<svg width="120" height="113" viewBox="0 0 120 113" fill="none" xmlns="http://www.w3.org/2000/svg">
<path d="M120 0H0V113H120V0Z" fill="#F0F6FF"/>
<g clip-path="url(#clip0_1_2)">
<path d="M78.4375 44.9844C77.5745 44.9844 76.875 45.6839 76.875 46.5469V52.0938H73.4497C72.6707 47.7035 68.8232 44.3588 64.2082 44.3588H49.3856C44.2104 44.3588 40 48.5645 40 53.7342C40 56.2168 40.962 58.5567 42.7086 60.3225C44.453 62.086 46.7796 63.0753 49.2599 63.108C49.2862 63.1085 49.3119 63.108 49.3378 63.1073C49.7797 63.091 50.2244 63.0368 50.6593 62.946C53.9445 62.2608 55.4688 60.7903 56.3794 59.9117C56.5048 59.7907 56.6596 59.6414 56.7824 59.5346C56.913 59.646 57.0837 59.8124 57.2208 59.9458C58.1711 60.871 59.6071 62.2693 62.852 62.946C63.2967 63.0388 63.7517 63.0933 64.2044 63.108C64.2213 63.1085 64.2383 63.1088 64.2551 63.1088H64.2646C66.7595 63.094 69.1025 62.1128 70.8625 60.3454C72.2693 58.9328 73.1705 57.1503 73.4765 55.2188H76.875V68.8125C76.875 71.0525 75.0525 72.875 72.8125 72.875H62.2656C60.0255 72.875 58.2031 71.0525 58.2031 68.8125V67.883C59.0349 68.0518 59.8052 68.3068 60.1333 68.4335C60.3188 68.5053 60.5097 68.5395 60.6975 68.5395C61.3231 68.5395 61.9137 68.161 62.1542 67.543C62.467 66.7385 62.0685 65.833 61.2642 65.5203C61.0203 65.4255 58.823 64.5938 56.7917 64.5938C54.7603 64.5938 52.563 65.4255 52.3191 65.5203C51.5148 65.833 51.1163 66.7385 51.4292 67.543C51.7419 68.3473 52.6472 68.7458 53.4517 68.4328C53.738 68.3215 54.3651 68.1108 55.0781 67.9468V68.8125C55.0781 72.7758 58.3024 76 62.2656 76H72.8125C76.7757 76 80 72.7758 80 68.8125V46.5469C80 45.6839 79.3005 44.9844 78.4375 44.9844ZM64.2768 59.9836C64.0136 59.9734 63.7491 59.9408 63.4901 59.8868C61.1355 59.3958 60.1737 58.4594 59.4009 57.7069C58.7883 57.1104 58.099 56.4392 57.0224 56.3287C56.9487 56.318 56.8734 56.3125 56.7969 56.3125H56.7145C56.6271 56.3125 56.5413 56.3197 56.4578 56.3335C55.4612 56.4553 54.7991 57.0942 54.2097 57.6628C53.414 58.4304 52.4238 59.3858 50.0215 59.8867C49.7709 59.939 49.5155 59.9712 49.2615 59.9826C45.8742 59.9165 43.125 57.1217 43.125 53.7342C43.125 50.2878 45.9334 47.4838 49.3856 47.4838H64.2082C67.6603 47.4838 70.4688 50.2878 70.4688 53.7342C70.4688 57.1497 67.6938 59.9468 64.2768 59.9836Z" fill="black"/>
<path d="M78.4375 36C77.5745 36 76.875 36.6995 76.875 37.5625V40.2969C76.875 41.1598 77.5745 41.8594 78.4375 41.8594C79.3005 41.8594 80 41.1598 80 40.2969V37.5625C80 36.6995 79.3005 36 78.4375 36Z" fill="black"/>
</g>
<defs>
<clipPath id="clip0_1_2">
<rect width="40" height="40" fill="white" transform="translate(40 36)"/>
</clipPath>
</defs>
</svg>
