<svg width="418" height="70" viewBox="0 0 418 70" fill="none" xmlns="http://www.w3.org/2000/svg">
<g clip-path="url(#clip0_858_35656)">
<path fill-rule="evenodd" clip-rule="evenodd" d="M37.9797 24.9113C39.2998 24.1519 40.5255 23.5332 41.6434 22.757C42.0272 22.4901 42.2585 21.8532 42.3541 21.3459C42.5286 20.4311 42.4155 19.4509 42.6578 18.5626C43.1986 16.5827 45.3613 14.9772 47.4368 14.7206C47.8826 14.6649 48.4138 14.3163 48.6754 13.9412C49.5497 12.6876 50.3509 12.4226 51.8778 12.7711C52.6234 12.9422 53.4751 12.8929 54.2298 12.7225C55.5027 12.4349 56.5992 12.5962 57.5575 13.6412C57.604 12.3779 58.212 12.0345 59.1341 12.764C59.7221 13.2272 60.2733 13.914 60.5123 14.6137C61.6347 17.8998 63.9518 20.1169 66.833 21.7547C68.9182 22.9391 71.2314 23.7217 73.3062 24.921C74.9758 25.8863 76.5156 27.1212 77.9779 28.3924C79.5739 29.7788 81.0562 31.3053 82.5094 32.8446C83.664 34.0665 84.3031 35.5036 83.8572 37.2723C83.6712 38.0063 83.8088 38.8596 83.5019 39.5205C81.4613 43.9261 77.2891 45.8568 73.3462 47.9236C70.887 49.2129 68.166 49.9981 65.5691 51.0269C65.3469 51.1151 65.1207 51.3004 64.9941 51.5018C64.3208 52.5611 63.6358 53.6159 63.0349 54.7154C61.2851 57.9159 55.8904 58.4925 53.3517 56.834C52.2887 56.1407 52.1776 55.1689 52.1705 54.1951C52.1614 52.9175 51.4106 52.4342 50.4259 52.2139C48.7911 51.8478 47.1337 51.588 45.4796 51.325C43.5605 51.0192 41.635 50.7458 39.7075 50.4892C39.4051 50.4503 38.883 50.4762 38.8003 50.6427C38.3008 51.647 37.402 51.8258 36.4534 51.9385C34.1241 52.2119 31.7882 52.4361 29.4646 52.7523C26.9382 53.0969 24.5138 50.1238 24.8983 47.6923C25.0889 46.4872 25.0378 45.2737 23.9704 44.2714C22.6283 43.0119 21.157 43.3061 19.8176 43.8827C17.6807 44.804 15.6822 46.0427 13.5861 47.0664C12.3112 47.6884 10.9885 48.2339 9.64129 48.6693C8.68692 48.9777 8.03237 48.3155 7.77778 47.4785C7.42498 46.3213 6.74006 45.656 5.63514 45.2011C5.11951 44.9886 4.72406 44.3563 4.39775 43.8341C3.77098 42.8338 3.41948 41.7077 1.9792 41.3935C1.03775 41.1881 0.458799 39.5405 0.929199 38.5648C1.74077 36.8803 1.21997 35.5198 0.349599 34.0685C-0.518832 32.6218 0.304368 30.2265 1.88938 29.7231C2.91354 29.3992 3.64046 28.8575 4.18969 27.9103C4.48434 27.4011 5.08591 27.0441 5.60348 26.7007C6.28 26.2524 7.01338 25.8922 7.7164 25.4827C8.67465 24.9223 9.79055 25.1341 10.721 25.9816C12.4359 27.5391 14.1947 29.0487 15.9083 30.6075C17.2588 31.8339 18.8031 31.7821 20.4204 31.4135C20.8359 31.3189 21.2837 31.2916 21.6591 31.1122C22.0513 30.9243 22.5166 30.6638 22.7033 30.3062C23.5032 28.7694 24.1636 27.0817 25.9457 26.4642C27.3272 25.9848 28.3042 25.2592 29.1506 24.0036C30.0468 22.6754 31.7656 22.6767 33.233 22.7207C35.0487 22.7778 36.8166 23.1756 37.9771 24.9106L37.9797 24.9113Z" fill="#000345"/>
</g>
<g clip-path="url(#clip1_858_35656)">
<path fill-rule="evenodd" clip-rule="evenodd" d="M189.001 43.2366C188.681 44.185 188.454 45.176 188.025 46.0747C186.23 49.842 182.882 51.665 179.022 52.8444C173.233 54.6141 167.289 55.0826 161.302 54.5717C156.39 54.1535 151.514 53.3475 146.622 52.7153C146.31 52.6747 145.996 52.6469 145.705 52.6153C144.538 54.8602 142.935 55.5426 140.374 54.5669C138.921 54.0123 137.66 52.9863 136.284 52.2214C135.894 52.0032 135.397 51.8323 134.96 51.8529C132.973 51.9481 130.991 52.2105 129.004 52.2457C124.298 52.3305 119.752 51.4881 115.39 49.7408C115.259 49.6887 115.095 49.6644 115.005 49.5729C114.605 49.1693 113.991 48.782 113.915 48.3166C113.854 47.9517 114.469 47.4802 114.616 47.2802C114.718 46.7135 114.666 46.2602 114.87 45.9984C115.867 44.722 117.195 43.876 118.763 43.3887C121.19 42.6353 123.633 41.9293 126.033 41.0996C130.346 39.6087 134.807 39.5456 139.3 39.5602C146.085 39.5844 152.747 40.7341 159.454 41.4838C161.464 41.7081 163.504 41.7929 165.524 41.7275C166.229 41.7044 167.076 41.1844 167.572 40.6426C168.504 39.622 169.456 38.7596 170.929 38.4026C169.651 38.0996 168.377 37.7772 167.093 37.4972C161.586 36.2972 156.392 34.2953 151.33 31.8753C149.181 30.8481 146.875 29.8147 144.548 29.5457C141.888 29.2384 139.099 29.6093 136.411 29.9905C132.656 30.5238 129.176 31.9069 125.908 33.8329C123.417 35.302 120.747 36.3869 117.742 36.1269C114.953 35.8844 112.621 34.9705 110.554 32.822C108.722 30.919 108.373 28.8887 108.252 26.5796C108.217 25.9293 108.088 25.2826 108.003 24.6341V22.7529C108.789 20.3487 110.556 18.8153 112.728 17.6257C115.316 16.2105 117.93 14.8863 121.025 15.0123C121.203 15.0196 121.409 14.9669 121.555 15.0366C122.144 15.3172 122.951 15.5093 123.215 15.982C123.402 16.3166 122.997 17.2141 122.592 17.5717C121.202 18.796 119.723 19.9257 118.227 21.0263C116.897 22.0044 115.498 22.8941 114.133 23.8281C114.019 23.9069 113.884 24.0038 113.836 24.1226C113.526 24.9044 113.238 25.6923 112.942 26.4802C113.663 26.5469 114.388 26.6911 115.104 26.6657C118.704 26.5384 121.633 24.6778 124.626 23.025C127.455 21.4632 130.343 20.0566 133.581 19.5281C139.429 18.5741 145.274 18.4917 151.029 20.0432C152.679 20.4869 154.162 21.5014 155.799 22.0202C160.53 23.5184 165.348 24.6638 170.298 25.2972C172.43 25.5699 174.706 25.8632 176.574 26.8014C181.014 29.0335 185.51 31.3814 187.748 36.165C188.3 37.3469 188.589 38.6469 189 39.8923L189.001 43.2366Z" fill="#000345"/>
</g>
<g clip-path="url(#clip2_858_35656)">
<path fill-rule="evenodd" clip-rule="evenodd" d="M263.011 69.2032C262.704 69.4773 262.369 69.734 262.01 69.9358C261.856 70.0222 261.568 70.0198 261.423 69.9282C261.303 69.8507 261.221 69.5607 261.266 69.4067C261.499 68.6175 261.749 67.8306 262.049 67.0641C262.911 64.8568 263.93 62.7037 264.426 60.3703C264.679 59.1833 264.811 57.9699 265.089 56.7887C265.313 55.8337 265.683 54.9127 265.966 53.9694C266.096 53.5331 266.252 53.0792 266.243 52.6359C266.237 52.3326 265.966 52.0362 265.814 51.7376C265.581 52.2124 265.508 52.6493 265.42 53.0833C264.603 57.0803 263.46 60.9612 261.38 64.5143C260.316 66.3332 259.015 67.9362 257.236 69.111C257.057 69.2294 256.877 69.3531 256.682 69.4377C256.302 69.6027 256.044 69.4202 256.092 69.0089C256.116 68.8024 256.204 68.5947 256.301 68.4069C257.933 65.1852 259.295 61.8491 260.579 58.4768C260.824 57.8322 260.79 57.3714 260.232 56.9182C260.003 57.2763 259.769 57.6473 259.53 58.0148C258.243 59.9958 256.873 61.9115 255.001 63.3961C254.318 63.9374 253.587 64.4239 252.849 64.8894C252.576 65.0627 252.168 65.261 251.906 64.9302C251.649 64.6094 251.995 64.3317 252.166 64.0611C252.841 62.9959 253.521 61.9348 254.175 60.8586C254.274 60.6952 254.29 60.4537 254.274 60.2537C254.17 58.9429 254.047 57.6345 253.929 56.3022C253.765 56.5081 253.6 56.7496 253.403 56.9602C251.264 59.2445 248.95 61.3212 246.196 62.8559C245.962 62.9866 245.7 63.091 245.438 63.1429C244.948 63.2392 244.633 62.9037 244.858 62.4703C245.249 61.712 245.732 61.0003 246.174 60.2653C246.235 60.1644 246.311 60.053 246.321 59.9416C246.606 56.3657 247.455 52.9241 248.798 49.6014C248.846 49.4847 248.887 49.3646 248.872 49.2012C248.791 49.2946 248.704 49.3821 248.631 49.4801C246.93 51.7802 244.839 53.5751 242.123 54.5994C240.282 55.2936 238.733 56.4357 237.309 57.7844C235.388 59.6044 233.224 61.0814 230.769 62.1098C230.613 62.1752 230.446 62.265 230.284 62.2638C230.087 62.2627 229.797 62.2347 229.722 62.1122C229.639 61.978 229.689 61.6688 229.8 61.5288C230.327 60.8667 230.89 60.2338 231.447 59.5957C231.635 59.381 231.839 59.1815 231.998 58.9132C231.493 59.0928 230.989 59.2725 230.39 59.4848C230.537 58.7265 230.707 58.0527 231.08 57.4647C232.359 55.4406 233.666 53.4327 234.962 51.4191C235.04 51.2995 235.128 51.1857 235.181 51.0247C235.076 51.0971 234.972 51.1694 234.867 51.2406C233.437 52.2031 232.001 53.1539 230.582 54.1327C229.779 54.6869 229.013 55.2936 228.214 55.8536C228.066 55.9568 227.84 55.9516 227.651 55.9965C227.643 55.7993 227.568 55.5724 227.64 55.4102C228.297 53.9297 229.189 52.5986 230.303 51.422C231.074 50.6082 231.876 49.8237 232.663 49.0262C232.763 48.9253 232.858 48.8197 232.979 48.6908C231.108 49.9427 229.177 50.8317 227.259 51.7428C225.404 52.6254 223.586 53.5722 221.983 54.8783C221.896 54.9494 221.793 55.0258 221.687 55.0439C221.573 55.0637 221.41 55.0567 221.339 54.9885C221.27 54.9208 221.236 54.7377 221.279 54.6478C221.401 54.3912 221.561 54.152 221.72 53.9146C222.727 52.4195 223.835 51.0142 225.255 49.8791C225.342 49.8091 225.419 49.6737 225.429 49.5629C225.525 48.3799 225.607 47.1957 225.691 46.0116C223.366 46.7221 221.07 47.5259 218.629 48.3811C218.732 47.9902 218.751 47.6595 218.9 47.4028C219.265 46.7711 219.654 46.1463 220.1 45.5712C220.505 45.0502 220.827 44.5719 220.916 43.8562C221.143 42.0548 221.914 40.425 222.928 38.9305C223.984 37.3759 225.026 35.8038 226.207 34.3455C227.743 32.4479 229.622 30.9155 231.833 29.7488C231.074 29.064 230.213 28.5565 229.231 28.3407C227.456 27.9498 225.671 27.587 223.876 27.3058C222.049 27.02 220.207 26.8217 218.366 26.6315C217.052 26.4956 215.731 26.4349 214.413 26.3433C213.941 26.3107 213.469 26.285 212.997 26.2558V25.7384C214.389 24.7794 215.869 23.9371 217.508 23.5544C218.965 23.2143 220.486 23.1192 221.986 22.9985C224.615 22.7862 227.253 22.8293 229.871 23.0977C232.537 23.3707 235.187 23.7877 237.839 24.171C238.665 24.29 239.441 24.3098 240.218 23.9225C240.791 23.6378 241.422 23.4675 242.028 23.2458C242.119 23.2108 242.208 23.1688 242.414 23.0825C241.651 22.9483 241.019 22.8276 240.383 22.7267C238.983 22.5038 237.573 22.3376 236.183 22.064C233.966 21.6282 231.76 21.1295 229.553 20.6436C228.759 20.4686 227.967 20.2702 227.184 20.0497C226.968 19.9891 226.786 19.8106 226.519 19.6432C228.177 18.9093 229.783 18.5348 231.437 18.4415C232.467 18.3832 233.507 18.4987 234.542 18.5272C234.64 18.5302 234.761 18.4981 234.838 18.4397C235.204 18.1539 235.522 17.7777 235.926 17.5694C238.145 16.4272 240.569 16.0737 243.014 15.8334C243.903 15.7459 244.796 15.6992 245.797 15.6257C245.282 15.4227 244.862 15.2827 244.465 15.0949C241.958 13.9189 239.282 13.3916 236.568 12.9716C235.157 12.7534 233.762 12.4192 232.366 12.1082C232.114 12.0534 231.893 11.8597 231.658 11.7291C232.057 11.4998 232.409 11.3732 232.772 11.3044C233.955 11.081 235.144 10.6837 236.324 10.7106C238.295 10.7555 240.283 10.9544 242.224 11.3067C245.728 11.9437 249.202 12.7458 252.69 13.4709C253.351 13.6074 254.016 13.7801 254.793 13.5205C254.659 13.3257 254.445 13.2259 254.272 13.0789C253.459 12.3865 252.488 12.0697 251.464 11.8656C249.129 11.4007 246.926 10.5939 245.051 9.10175C242.623 7.17091 240 5.56091 237.264 4.11425C236.39 3.65225 235.528 3.16458 234.678 2.65766C234.446 2.52 234.282 2.2715 234.087 2.07433C234.332 1.953 234.488 1.946 234.643 1.94016C237.013 1.83283 239.32 2.10933 241.482 3.14183C243.577 4.14108 245.695 5.10766 247.722 6.2335C250.053 7.5285 252.285 9.002 254.584 10.3594C255.281 10.7712 256.048 11.0693 256.798 11.3861C256.94 11.4444 257.214 11.4047 257.308 11.3021C257.401 11.2006 257.387 10.9486 257.34 10.7858C257.278 10.57 257.149 10.3717 257.029 10.1768C256.535 9.3765 255.844 8.7955 255.038 8.31308C253.611 7.45733 252.19 6.58816 250.802 5.67058C249.234 4.63516 247.71 3.53325 246.158 2.47216C245.223 1.83225 244.267 1.22091 243.331 0.582163C243.172 0.474247 243.058 0.29633 242.881 0.104997C245.173 -0.192503 247.267 0.116663 249.288 1.03425C253.667 3.02166 257.272 6.048 260.572 9.46808C261.546 10.479 262.42 11.5914 263.303 12.6863C265.247 15.0955 267.76 16.4558 270.838 16.6658C273.111 16.821 274.974 18.564 275.275 20.4528C275.304 20.629 275.389 20.8087 275.486 20.9621C276.154 22.0138 276.837 23.0562 277.506 24.108C277.757 24.5047 278.092 24.7712 278.551 24.8745C279.081 24.9935 279.615 25.0962 280.142 25.2233C280.952 25.4199 281.729 25.6702 281.996 26.6V26.8578C281.449 27.8419 280.906 28.8295 280.35 29.8083C280.102 30.2441 279.834 30.6693 279.564 31.0917C278.92 32.1008 278.042 32.8358 276.947 33.3223C276.437 33.5481 275.938 33.7972 275.405 34.0497C275.909 34.5952 276.398 35.1155 276.875 35.6463C278.596 37.5567 279.612 39.7938 279.899 42.3418C279.986 43.1252 280.038 43.9402 279.597 44.7481C278.63 43.3743 277.742 42.0064 276.741 40.7248C275.738 39.438 274.623 38.2369 273.535 36.9722C274.016 37.9487 274.484 38.9054 274.957 39.8597C275.949 41.853 276.572 43.9355 276.372 46.1854C276.291 47.0937 276.09 47.9914 275.924 48.8903C275.895 49.0478 275.772 49.1878 275.637 49.4375C275.43 48.8472 275.256 48.3583 275.089 47.866C274.509 46.1603 273.941 44.4506 273.354 42.7472C272.855 41.3023 271.966 40.0931 271.039 38.9497C271.093 40.208 271.207 41.4832 271.187 42.7572C271.155 44.6728 270.806 46.5389 269.929 48.2685C269.775 48.5718 269.494 48.8069 269.296 49.091C269.225 49.1925 269.205 49.3436 269.2 49.4737C269.14 51.1087 269.138 52.7473 269.019 54.3772C268.873 56.378 268.42 58.331 267.818 60.2437C267.096 62.5362 266.331 64.8153 265.035 66.8704C265.024 66.892 263.261 68.9751 263.009 69.1997L263.011 69.2032Z" fill="#000345"/>
</g>
<g clip-path="url(#clip3_858_35656)">
<path fill-rule="evenodd" clip-rule="evenodd" d="M336.016 46.8512C330.33 48.6308 325.255 51.4215 320.998 55.9783C321.187 53.4613 321.566 51.2029 322.574 49.1393C323.574 47.0969 324.795 45.1622 325.924 43.1732L315.553 40.0207C316.314 39.3571 316.905 38.8427 317.495 38.3257L317.346 38.0571C316.74 38.1825 316.125 38.2749 315.531 38.4435C315.012 38.591 314.608 38.5071 314.106 38.269C311.78 37.163 309.786 35.5969 307.865 33.9342C307.202 33.3596 306.673 32.6291 305.999 31.8766C307.455 31.2241 308.853 30.5681 310.274 29.9664C314.694 28.0961 319.32 26.8673 323.972 25.7512C326.505 25.1427 329.093 24.7512 331.663 24.2935C333.816 23.9122 335.971 23.5461 338.137 23.2368C339.364 23.0613 340.61 23.0232 341.845 22.9063C343.379 22.7622 344.94 22.7198 346.433 22.3893C347.053 22.2495 347.553 21.4952 348.071 20.9859C349.506 19.5817 350.885 18.1181 352.359 16.7571C353.43 15.7673 354.586 14.8605 355.759 13.9902C357.994 12.3291 360.472 11.124 363.153 10.3749C363.938 10.1571 364.779 10.1351 365.773 9.99947C368.447 9.63252 364.242 12.2385 363.533 13.2893C362.158 15.3317 360.938 17.4673 360.156 19.8012C359.719 21.1105 359.46 22.5571 360.599 23.669C361.159 24.2164 361.946 24.6885 362.705 24.8529C365.723 25.5054 368.771 26.0224 371.809 26.5902C374.031 27.0054 376.254 27.4164 378.474 27.8359C380.841 28.2834 383.206 28.7393 385.572 29.1918C387.937 29.6427 390.298 30.1266 392.674 30.5139C393.06 30.5766 393.65 30.3317 393.918 30.0291C396.599 26.9927 399.639 24.402 403.173 22.3952C406.614 20.4393 410.293 19.1834 414.211 18.6156C415.445 18.4351 416.683 18.28 417.92 18.113L418 18.3046C417.716 18.5571 417.418 18.7961 417.153 19.0673C415.528 20.7266 413.85 22.3385 412.306 24.069C410.18 26.4537 408.278 29.0181 406.674 31.7893C406.147 32.7012 405.602 33.6029 405.072 34.5113C404.815 34.9537 404.766 35.3859 404.88 35.9266C405.403 38.3986 406.317 40.7063 407.68 42.8249C408.904 44.7249 410.337 46.458 412.147 47.8503C412.214 47.9012 412.241 48.0029 412.38 48.2486C411.107 48.1757 409.959 48.2173 408.856 48.0198C407.107 47.7079 405.353 47.3503 403.666 46.8063C400.815 45.8859 398.234 44.4308 396.042 42.3588C395.086 41.4546 394.143 40.5317 393.25 39.5656C392.878 39.1622 392.477 39.1063 392.016 39.1715C389.946 39.4647 387.879 39.7673 385.813 40.0808C384.029 40.352 382.25 40.6402 380.223 40.9596C380.847 41.3868 380.223 40.7588 380.223 42.8257C380.223 44.8918 376.22 45.1393 373.539 46.5749C373.145 46.7851 372.829 46.8418 372.428 46.6037C371.108 45.8266 369.78 45.063 368.436 44.3308C368.186 44.1952 367.839 44.1715 367.545 44.1978C366.011 44.3393 364.481 44.5579 362.944 44.6656C360.561 44.8308 358.174 44.9766 355.785 45.0385C353.851 45.0893 351.913 44.9978 349.976 44.9851C348.038 44.9732 347.147 45.9681 346.895 47.6291C346.352 51.1927 346.82 54.6478 348.437 57.9003C348.792 58.6122 349.29 59.2529 349.769 59.9986C344.064 59.1724 338.927 55.2902 336.019 46.8503L336.016 46.8512Z" fill="#000345"/>
</g>
<defs>
<clipPath id="clip0_858_35656">
<rect width="84" height="46" fill="white" transform="translate(0 12)"/>
</clipPath>
<clipPath id="clip1_858_35656">
<rect width="81" height="40" fill="white" transform="translate(108 15)"/>
</clipPath>
<clipPath id="clip2_858_35656">
<rect width="69" height="70" fill="white" transform="translate(213)"/>
</clipPath>
<clipPath id="clip3_858_35656">
<rect width="112" height="50" fill="white" transform="translate(306 10)"/>
</clipPath>
</defs>
</svg>
