<svg width="120" height="113" viewBox="0 0 120 113" fill="none" xmlns="http://www.w3.org/2000/svg">
<rect width="120" height="113" fill="#F0F6FF"/>
<g clip-path="url(#clip0_4720_20085)">
<path d="M77.375 52.5938H76.875H73.4497H73.0306L72.9574 52.1811C72.2202 48.0254 68.5766 44.8588 64.2082 44.8588H49.3855C44.486 44.8588 40.5 48.8412 40.5 53.7341C40.5 56.0851 41.41 58.2986 43.0641 59.9709L42.7086 60.3225L43.0641 59.9709C44.7161 61.6412 46.9175 62.5771 49.2665 62.608L49.2689 62.6081L77.375 52.5938ZM77.375 52.5938V52.0938V46.5469C77.375 45.96 77.8507 45.4844 78.4375 45.4844C79.0243 45.4844 79.5 45.96 79.5 46.5469V68.8125C79.5 72.4996 76.4996 75.5 72.8125 75.5H62.2656C58.5786 75.5 55.5781 72.4996 55.5781 68.8125V67.9468V67.3189L54.9662 67.4595C54.2286 67.629 53.5784 67.8471 53.2705 67.9668C52.7234 68.1796 52.1078 67.9086 51.8951 67.3617L51.8951 67.3617C51.6824 66.8147 51.9534 66.199 52.5003 65.9863C52.7409 65.8928 54.8619 65.0938 56.7916 65.0938C58.7214 65.0938 60.8424 65.8928 61.083 65.9863C61.6299 66.199 61.9008 66.8147 61.6882 67.3616C61.5249 67.7813 61.1238 68.0395 60.6975 68.0395C60.5706 68.0395 60.441 68.0165 60.3139 67.9672L60.3133 67.967C59.9627 67.8317 59.1654 67.5679 58.3025 67.393L57.7031 67.2714V67.883V68.8125C57.7031 71.3287 59.7494 73.375 62.2656 73.375H72.8125C75.3287 73.375 77.375 71.3287 77.375 68.8125V55.2188V54.7188H76.875H73.4766H73.0495L72.9827 55.1405C72.6932 56.9678 71.841 58.6543 70.5082 59.9926C68.8418 61.666 66.6256 62.5944 64.2632 62.6088H64.2552C64.2444 62.6088 64.233 62.6086 64.2208 62.6082C63.7969 62.5943 63.3705 62.5433 62.9542 62.4564L62.9541 62.4564C59.8515 61.8095 58.497 60.4905 57.5773 59.595L57.5697 59.5876L57.5696 59.5875L57.5597 59.5778C57.4278 59.4494 57.2491 59.2756 57.1068 59.1542L56.7791 58.8747L56.4541 59.1574C56.3202 59.274 56.156 59.4324 56.0336 59.5506L56.0322 59.5519L56.0322 59.552L56.0262 59.5577C55.1439 60.409 53.7014 61.8008 50.5572 62.4565L50.5571 62.4565C50.1501 62.5415 49.7337 62.5922 49.3204 62.6074L77.375 52.5938ZM64.2698 60.4837L64.2574 60.4832C63.9662 60.4719 63.6741 60.4359 63.3881 60.3763L63.388 60.3763C62.1594 60.1201 61.2751 59.7433 60.5898 59.3204C59.9115 58.9019 59.4452 58.4478 59.0597 58.0725L59.0521 58.0651C58.4271 57.4565 57.8529 56.9166 56.9714 56.8261L56.9609 56.825L56.9505 56.8235C56.9009 56.8163 56.8496 56.8125 56.7969 56.8125H56.7145C56.6546 56.8125 56.5961 56.8174 56.5395 56.8268L56.529 56.8285L56.5185 56.8298C55.7105 56.9286 55.1608 57.44 54.5568 58.0226L54.5491 58.03C54.1523 58.4129 53.6734 58.875 52.9797 59.3009C52.2788 59.7311 51.3759 60.1151 50.1236 60.3762L64.2698 60.4837ZM64.2698 60.4837L64.2822 60.4836M64.2698 60.4837L64.2822 60.4836M64.2822 60.4836C67.9723 60.4438 70.9688 57.4246 70.9688 53.7341C70.9688 50.0108 67.9357 46.9838 64.2082 46.9838H49.3855C45.6581 46.9838 42.625 50.0108 42.625 53.7341C42.625 57.395 45.5931 60.4111 49.2517 60.4825L49.2678 60.4828M64.2822 60.4836L49.2678 60.4828M49.2678 60.4828L49.2839 60.4821M49.2678 60.4828L49.2839 60.4821M49.2839 60.4821C49.5648 60.4695 49.8469 60.4339 50.1236 60.3762L49.2839 60.4821ZM77.375 37.5625C77.375 36.9757 77.8507 36.5 78.4375 36.5C79.0243 36.5 79.5 36.9757 79.5 37.5625V40.2969C79.5 40.8837 79.0243 41.3594 78.4375 41.3594C77.8507 41.3594 77.375 40.8837 77.375 40.2969V37.5625Z" fill="#000345"/>
</g>
<defs>
<clipPath id="clip0_4720_20085">
<rect width="40" height="40" fill="white" transform="translate(40 36)"/>
</clipPath>
</defs>
</svg>
