<svg width="24" height="24" viewBox="0 0 24 24" fill="none" xmlns="http://www.w3.org/2000/svg">
<path d="M11.9999 3.75C8.76905 3.75 6.14054 6.37852 6.14054 9.60938C6.14054 12.8402 8.76905 15.4688 11.9999 15.4688C12.5456 15.4688 13.0862 15.3936 13.6069 15.2454C14.1049 15.1037 14.3936 14.5851 14.2519 14.0871C14.1101 13.5891 13.5916 13.3003 13.0936 13.4421C12.7399 13.5427 12.372 13.5938 11.9999 13.5938C9.80293 13.5938 8.01554 11.8064 8.01554 9.60938C8.01554 7.41239 9.80293 5.625 11.9999 5.625C14.1969 5.625 15.9843 7.41239 15.9843 9.60938C15.9843 10.0003 15.928 10.3861 15.8171 10.7561C15.6683 11.252 15.9498 11.7746 16.4458 11.9234C16.9418 12.072 17.4643 11.7907 17.6131 11.2947C17.7764 10.7498 17.8593 10.1828 17.8593 9.60938C17.8593 6.37852 15.2308 3.75 11.9999 3.75Z" fill="white"/>
<path d="M18.791 2.81081C16.9764 0.99825 14.5646 0 11.9999 0C9.43505 0 7.02328 0.99825 5.20875 2.81086C3.39441 4.62333 2.39358 7.03373 2.39062 9.60014C2.39245 11.4683 2.91136 13.2211 3.97692 14.9587C4.89966 16.4632 6.09839 17.776 7.36748 19.1658C8.61187 20.5285 9.89855 21.9377 10.9261 23.5634C11.0979 23.8352 11.3971 24 11.7186 24H12.2811C12.6026 24 12.9018 23.8352 13.0736 23.5634C14.1012 21.9376 15.3878 20.5285 16.6322 19.1658C17.9013 17.776 19.1001 16.4632 20.0228 14.9586C21.0884 13.221 21.6073 11.4682 21.6091 9.59808C21.6062 7.03369 20.6053 4.62328 18.791 2.81081ZM15.2476 17.9015C14.1412 19.1132 13.0028 20.36 11.9999 21.7939C10.997 20.36 9.85852 19.1132 8.75208 17.9015C6.3465 15.2671 4.26891 12.9919 4.26562 9.60028C4.2705 5.34056 7.74009 1.875 11.9999 1.875C16.2596 1.875 19.7292 5.34056 19.7341 9.59827C19.7308 12.9919 17.6532 15.267 15.2476 17.9015Z" fill="white"/>
<rect x="13" y="14" width="10" height="10" rx="5" fill="white"/>
<rect x="17.5" y="16" width="1" height="6" rx="0.5" fill="#0059DE"/>
<rect x="15" y="19.5" width="1" height="6" rx="0.5" transform="rotate(-90 15 19.5)" fill="#0059DE"/>
</svg>
