<svg width="40" height="40" viewBox="0 0 40 40" fill="none" xmlns="http://www.w3.org/2000/svg">
<rect width="40" height="40" rx="4" fill="#0059DE"/>
<path d="M20.0047 13.2974L20.0052 13.2974C20.1639 13.2974 20.3062 13.4397 20.3062 13.5983L20.3062 19.1934L20.3062 19.6934L20.8062 19.6934L26.4012 19.6934C26.4415 19.6934 26.4813 19.7013 26.5186 19.7167L26.7099 19.2548L26.5186 19.7167C26.5558 19.7321 26.5896 19.7547 26.618 19.7832C26.6465 19.8116 26.6691 19.8454 26.6845 19.8826L27.1464 19.6913L26.6845 19.8827C26.6999 19.9199 26.7079 19.9597 26.7079 20C26.7079 20.0403 26.6999 20.0801 26.6845 20.1173L27.1464 20.3087L26.6845 20.1174C26.6691 20.1546 26.6465 20.1884 26.618 20.2168C26.5896 20.2453 26.5558 20.2679 26.5186 20.2833L26.7099 20.7452L26.5186 20.2833C26.4813 20.2987 26.4415 20.3066 26.4012 20.3066H20.8062L20.3062 20.3066L20.3062 20.8066L20.3062 26.4017C20.3062 26.442 20.2982 26.4818 20.2828 26.519L20.7447 26.7104L20.2828 26.5191C20.2674 26.5563 20.2448 26.5901 20.2163 26.6185C20.1879 26.647 20.1541 26.6696 20.1169 26.685L20.3076 27.1455L20.1169 26.685C20.0796 26.7004 20.0398 26.7083 19.9995 26.7083C19.9592 26.7083 19.9194 26.7004 19.8822 26.685C19.845 26.6696 19.8111 26.647 19.7827 26.6185C19.7542 26.5901 19.7316 26.5563 19.7162 26.519C19.7008 26.4818 19.6929 26.442 19.6929 26.4017L19.6929 20.8066L19.6929 20.3066L19.1929 20.3066L13.5978 20.3066C13.5575 20.3066 13.5177 20.2987 13.4805 20.2833C13.4433 20.2679 13.4094 20.2453 13.381 20.2168C13.3525 20.1884 13.3299 20.1546 13.3145 20.1173C13.2991 20.0801 13.2912 20.0403 13.2912 20C13.2912 19.9597 13.2991 19.9199 13.3145 19.8827C13.3299 19.8454 13.3525 19.8116 13.381 19.7832C13.4094 19.7547 13.4433 19.7321 13.4805 19.7167C13.5177 19.7013 13.5575 19.6934 13.5978 19.6934L19.1929 19.6934H19.6923L19.6929 19.1939L19.6986 13.6045L19.6986 13.6035C19.6985 13.5633 19.7064 13.5235 19.7218 13.4863C19.7372 13.4491 19.7597 13.4154 19.7881 13.3869C19.8166 13.3585 19.8503 13.336 19.8875 13.3206C19.9247 13.3052 19.9645 13.2973 20.0047 13.2974Z" fill="white" stroke="white"/>
</svg>
