<svg width="25" height="24" viewBox="0 0 25 24" fill="none" xmlns="http://www.w3.org/2000/svg">
<g clip-path="url(#clip0_4479_20916)">
<path d="M12.4992 15.3002C14.3218 15.3002 15.7992 13.8227 15.7992 12.0002C15.7992 10.1777 14.3218 8.7002 12.4992 8.7002C10.6767 8.7002 9.19922 10.1777 9.19922 12.0002C9.19922 13.8227 10.6767 15.3002 12.4992 15.3002Z" fill="#000345" stroke="black" stroke-width="2" stroke-linecap="round" stroke-linejoin="round"/>
<path d="M12.4992 20.8002C17.3593 20.8002 21.2992 16.8603 21.2992 12.0002C21.2992 7.14009 17.3593 3.2002 12.4992 3.2002C7.63911 3.2002 3.69922 7.14009 3.69922 12.0002C3.69922 16.8603 7.63911 20.8002 12.4992 20.8002Z" stroke="black" stroke-width="2" stroke-linecap="round" stroke-linejoin="round"/>
<path d="M12.5 1V3.2" stroke="black" stroke-width="2" stroke-linecap="round" stroke-linejoin="round"/>
<path d="M12.5 20.7998V22.9998" stroke="black" stroke-width="2" stroke-linecap="round" stroke-linejoin="round"/>
<path d="M21.3008 12H23.5008" stroke="black" stroke-width="2" stroke-linecap="round" stroke-linejoin="round"/>
<path d="M1.5 12H3.7" stroke="black" stroke-width="2" stroke-linecap="round" stroke-linejoin="round"/>
</g>
<defs>
<clipPath id="clip0_4479_20916">
<rect width="24" height="24" fill="white" transform="translate(0.5)"/>
</clipPath>
</defs>
</svg>
