<svg width="24" height="24" viewBox="0 0 24 24" fill="none" xmlns="http://www.w3.org/2000/svg">
<path d="M24 5.625V12.2812C24 12.7991 23.5803 13.2188 23.0625 13.2188C22.5447 13.2188 22.125 12.7991 22.125 12.2812V5.625C22.125 4.59119 21.2838 3.75 20.25 3.75H19.0312V4.6875C19.0312 5.20532 18.6116 5.625 18.0938 5.625C17.5759 5.625 17.1562 5.20532 17.1562 4.6875V3.75H12.8906V4.6875C12.8906 5.20532 12.4709 5.625 11.9531 5.625C11.4353 5.625 11.0156 5.20532 11.0156 4.6875V3.75H6.79688V4.6875C6.79688 5.20532 6.3772 5.625 5.85938 5.625C5.34155 5.625 4.92188 5.20532 4.92188 4.6875V3.75H3.75C2.71619 3.75 1.875 4.59119 1.875 5.625V20.25C1.875 21.2838 2.71619 22.125 3.75 22.125H11.625C12.1428 22.125 12.5625 22.5447 12.5625 23.0625C12.5625 23.5803 12.1428 24 11.625 24H3.75C1.68219 24 0 22.3178 0 20.25V5.625C0 3.55719 1.68219 1.875 3.75 1.875H4.92188V0.9375C4.92188 0.419678 5.34155 0 5.85938 0C6.3772 0 6.79688 0.419678 6.79688 0.9375V1.875H11.0156V0.9375C11.0156 0.419678 11.4353 0 11.9531 0C12.4709 0 12.8906 0.419678 12.8906 0.9375V1.875H17.1562V0.9375C17.1562 0.419678 17.5759 0 18.0938 0C18.6116 0 19.0312 0.419678 19.0312 0.9375V1.875H20.25C22.3176 1.875 24 3.55719 24 5.625ZM6.79688 9.84375C6.79688 9.32593 6.3772 8.90625 5.85938 8.90625C5.34155 8.90625 4.92188 9.32593 4.92188 9.84375C4.92188 10.3616 5.34155 10.7812 5.85938 10.7812C6.3772 10.7812 6.79688 10.3616 6.79688 9.84375ZM14.0156 10.7812C14.5334 10.7812 14.9531 10.3616 14.9531 9.84375C14.9531 9.32593 14.5334 8.90625 14.0156 8.90625C13.4978 8.90625 13.0781 9.32593 13.0781 9.84375C13.0781 10.3616 13.4978 10.7812 14.0156 10.7812ZM18.0938 10.7812C18.6116 10.7812 19.0312 10.3616 19.0312 9.84375C19.0312 9.32593 18.6116 8.90625 18.0938 8.90625C17.5759 8.90625 17.1562 9.32593 17.1562 9.84375C17.1562 10.3616 17.5759 10.7812 18.0938 10.7812ZM6.79688 13.9219C6.79688 13.4041 6.3772 12.9844 5.85938 12.9844C5.34155 12.9844 4.92188 13.4041 4.92188 13.9219C4.92188 14.4397 5.34155 14.8594 5.85938 14.8594C6.3772 14.8594 6.79688 14.4395 6.79688 13.9219ZM5.85938 17.0625C5.34155 17.0625 4.92188 17.4822 4.92188 18C4.92188 18.5178 5.34155 18.9375 5.85938 18.9375C6.3772 18.9375 6.79688 18.5178 6.79688 18C6.79688 17.4822 6.3772 17.0625 5.85938 17.0625ZM10.875 9.84375C10.875 9.32593 10.4553 8.90625 9.9375 8.90625C9.41968 8.90625 9 9.32593 9 9.84375C9 10.3616 9.41968 10.7812 9.9375 10.7812C10.4553 10.7812 10.875 10.3616 10.875 9.84375ZM10.875 13.9219C10.875 13.4041 10.4553 12.9844 9.9375 12.9844C9.41968 12.9844 9 13.4041 9 13.9219C9 14.4397 9.41968 14.8594 9.9375 14.8594C10.4553 14.8594 10.875 14.4395 10.875 13.9219ZM9.9375 17.0625C9.41968 17.0625 9 17.4822 9 18C9 18.5178 9.41968 18.9375 9.9375 18.9375C10.4553 18.9375 10.875 18.5178 10.875 18C10.875 17.4822 10.4553 17.0625 9.9375 17.0625ZM13.0781 13.9219C13.0781 14.4397 13.4978 14.8594 14.0156 14.8594C14.5334 14.8594 14.9531 14.4397 14.9531 13.9219C14.9531 13.4041 14.5334 12.9844 14.0156 12.9844C13.4978 12.9844 13.0781 13.4041 13.0781 13.9219ZM17.1562 13.9219C17.1562 14.4397 17.5759 14.8594 18.0938 14.8594C18.6116 14.8594 19.0312 14.4397 19.0312 13.9219C19.0312 13.4041 18.6116 12.9844 18.0938 12.9844C17.5759 12.9844 17.1562 13.4041 17.1562 13.9219ZM23.6082 15.269C23.1872 14.9676 22.6016 15.0645 22.3002 15.4856L17.6792 21.9402C17.553 22.0865 17.3948 22.118 17.3102 22.1237C17.2231 22.1296 17.0559 22.1186 16.9087 21.9805L13.9222 19.066C13.5516 18.7044 12.958 18.7115 12.5964 19.0822C12.2349 19.4528 12.2421 20.0464 12.6127 20.408L15.6042 23.3275C15.607 23.33 15.6099 23.3328 15.6127 23.3355C16.0613 23.7623 16.6599 23.9998 17.2758 23.9998C17.3287 23.9998 17.3818 23.9982 17.4349 23.9945C18.1058 23.9498 18.7322 23.6235 19.1536 23.0993C19.1644 23.0858 19.175 23.072 19.1851 23.0579L23.8248 16.5769C24.1262 16.1559 24.0291 15.5704 23.6082 15.269Z" fill="#0059DE"/>
</svg>
