<svg width="46" height="46" viewBox="0 0 46 46" fill="none" xmlns="http://www.w3.org/2000/svg">
<g filter="url(#filter0_d_1444_42872)">
<path d="M8 23C8 14.7157 14.7157 8 23 8V8C31.2843 8 38 14.7157 38 23V23C38 31.2843 31.2843 38 23 38V38C14.7157 38 8 31.2843 8 23V23Z" fill="white" fill-opacity="0.8" shape-rendering="crispEdges"/>
<path d="M23.4697 27.5303C23.7626 27.8232 24.2374 27.8232 24.5303 27.5303C24.8232 27.2374 24.8232 26.7626 24.5303 26.4697L23.4697 27.5303ZM20 23L19.4697 22.4697C19.1768 22.7626 19.1768 23.2374 19.4697 23.5303L20 23ZM24.5303 19.5303C24.8232 19.2374 24.8232 18.7626 24.5303 18.4697C24.2374 18.1768 23.7626 18.1768 23.4697 18.4697L24.5303 19.5303ZM24.5303 26.4697L20.5303 22.4697L19.4697 23.5303L23.4697 27.5303L24.5303 26.4697ZM20.5303 23.5303L24.5303 19.5303L23.4697 18.4697L19.4697 22.4697L20.5303 23.5303Z" fill="#000345"/>
</g>
<defs>
<filter id="filter0_d_1444_42872" x="0" y="0" width="46" height="46" filterUnits="userSpaceOnUse" color-interpolation-filters="sRGB">
<feFlood flood-opacity="0" result="BackgroundImageFix"/>
<feColorMatrix in="SourceAlpha" type="matrix" values="0 0 0 0 0 0 0 0 0 0 0 0 0 0 0 0 0 0 127 0" result="hardAlpha"/>
<feOffset/>
<feGaussianBlur stdDeviation="4"/>
<feComposite in2="hardAlpha" operator="out"/>
<feColorMatrix type="matrix" values="0 0 0 0 0 0 0 0 0 0.245 0 0 0 0 0.35 0 0 0 0.1 0"/>
<feBlend mode="normal" in2="BackgroundImageFix" result="effect1_dropShadow_1444_42872"/>
<feBlend mode="normal" in="SourceGraphic" in2="effect1_dropShadow_1444_42872" result="shape"/>
</filter>
</defs>
</svg>
