<svg width="51" height="55" viewBox="0 0 51 55" fill="none" xmlns="http://www.w3.org/2000/svg">
<g clip-path="url(#clip0_102_15)">
<path d="M26.1022 9.01471C28.0906 9.01471 29.7022 7.27652 29.7022 5.13234C29.7022 2.98819 28.0906 1.25 26.1022 1.25C24.114 1.25 22.5022 2.98819 22.5022 5.13234C22.5022 7.27652 24.114 9.01471 26.1022 9.01471Z" fill="white"/>
<path opacity="0.3" d="M26.1022 55.338C28.0906 55.338 29.7022 53.5996 29.7022 51.4556C29.7022 49.3116 28.0906 47.5732 26.1022 47.5732C24.114 47.5732 22.5022 49.3116 22.5022 51.4556C22.5022 53.5996 24.114 55.338 26.1022 55.338Z" fill="white"/>
<path opacity="0.3" d="M37.3533 12.1031C39.3417 12.1031 40.9533 10.3649 40.9533 8.22074C40.9533 6.07656 39.3417 4.33838 37.3533 4.33838C35.3651 4.33838 33.7533 6.07656 33.7533 8.22074C33.7533 10.3649 35.3651 12.1031 37.3533 12.1031Z" fill="white"/>
<path opacity="0.3" d="M14.8511 52.2495C16.8393 52.2495 18.4511 50.5115 18.4511 48.3671C18.4511 46.2231 16.8393 44.4848 14.8511 44.4848C12.8629 44.4848 11.2511 46.2231 11.2511 48.3671C11.2511 50.5115 12.8629 52.2495 14.8511 52.2495Z" fill="white"/>
<path opacity="0.93" d="M14.8511 12.1031C16.8393 12.1031 18.4511 10.3649 18.4511 8.22074C18.4511 6.07656 16.8393 4.33838 14.8511 4.33838C12.8629 4.33838 11.2511 6.07656 11.2511 8.22074C11.2511 10.3649 12.8629 12.1031 14.8511 12.1031Z" fill="white"/>
<path opacity="0.3" d="M37.3533 52.2495C39.3417 52.2495 40.9533 50.5115 40.9533 48.3671C40.9533 46.2231 39.3417 44.4848 37.3533 44.4848C35.3651 44.4848 33.7533 46.2231 33.7533 48.3671C33.7533 50.5115 35.3651 52.2495 37.3533 52.2495Z" fill="white"/>
<path opacity="0.65" d="M3.59999 32.1763C5.58823 32.1763 7.2 30.4383 7.2 28.2939C7.2 26.1498 5.58823 24.4116 3.59999 24.4116C1.61177 24.4116 0 26.1498 0 28.2939C0 30.4383 1.61177 32.1763 3.59999 32.1763Z" fill="white"/>
<path opacity="0.3" d="M48.6043 32.1763C50.5927 32.1763 52.2043 30.4383 52.2043 28.2939C52.2043 26.1498 50.5927 24.4116 48.6043 24.4116C46.6162 24.4116 45.0043 26.1498 45.0043 28.2939C45.0043 30.4383 46.6162 32.1763 48.6043 32.1763Z" fill="white"/>
<path opacity="0.86" d="M6.59777 20.5967C8.58599 20.5967 10.1978 18.8585 10.1978 16.7144C10.1978 14.5702 8.58599 12.832 6.59777 12.832C4.60955 12.832 2.99777 14.5702 2.99777 16.7144C2.99777 18.8585 4.60955 20.5967 6.59777 20.5967Z" fill="white"/>
<path opacity="0.3" d="M45.5973 43.7585C47.5854 43.7585 49.1973 42.0201 49.1973 39.8761C49.1973 37.7317 47.5854 35.9937 45.5973 35.9937C43.6089 35.9937 41.9973 37.7317 41.9973 39.8761C41.9973 42.0201 43.6089 43.7585 45.5973 43.7585Z" fill="white"/>
<path opacity="0.44" d="M6.59777 43.7585C8.58599 43.7585 10.1978 42.0201 10.1978 39.8761C10.1978 37.7317 8.58599 35.9937 6.59777 35.9937C4.60955 35.9937 2.99777 37.7317 2.99777 39.8761C2.99777 42.0201 4.60955 43.7585 6.59777 43.7585Z" fill="white"/>
<path opacity="0.3" d="M45.5973 20.5967C47.5854 20.5967 49.1973 18.8585 49.1973 16.7144C49.1973 14.5702 47.5854 12.832 45.5973 12.832C43.6089 12.832 41.9973 14.5702 41.9973 16.7144C41.9973 18.8585 43.6089 20.5967 45.5973 20.5967Z" fill="white"/>
</g>
<defs>
<clipPath id="clip0_102_15">
<rect width="51" height="55" fill="white"/>
</clipPath>
</defs>
</svg>
