<svg width="40" height="40" viewBox="0 0 40 40" fill="none" xmlns="http://www.w3.org/2000/svg">
<rect width="40" height="40" rx="4" fill="#3FFFFF"/>
<path d="M19.3944 22.4744L24.4995 15.6624L24.5085 15.6531C24.6203 15.5513 24.76 15.4989 24.9003 15.5C25.0496 15.5012 25.1972 15.5629 25.3109 15.6797C25.4252 15.7972 25.4953 15.9612 25.4998 16.1383C25.5042 16.3155 25.4425 16.4838 25.3336 16.6082L25.3225 16.6208L25.3124 16.6341L19.4516 24.3104C19.3973 24.3687 19.334 24.4145 19.2658 24.4465C19.1932 24.4805 19.1158 24.4984 19.0379 24.4999C18.9601 24.5014 18.8822 24.4865 18.8087 24.4554C18.7351 24.4244 18.6667 24.3774 18.6081 24.316L18.6081 24.316L14.713 20.2368L14.7069 20.2304L14.7006 20.2242C14.6403 20.1653 14.5906 20.093 14.5557 20.011C14.5207 19.9289 14.5016 19.8394 14.5001 19.7481C14.4986 19.6568 14.5146 19.5666 14.5469 19.483C14.5791 19.3995 14.6264 19.3252 14.685 19.2638C14.7435 19.2026 14.8119 19.1556 14.8854 19.1245C14.9588 19.0935 15.0366 19.0785 15.1143 19.08C15.192 19.0814 15.2694 19.0992 15.342 19.1331C15.4146 19.167 15.4816 19.2166 15.5382 19.2803L15.5441 19.2869L15.5502 19.2933L18.6327 22.52L19.0404 22.9467L19.3944 22.4744Z" fill="#000345" stroke="#000345"/>
</svg>
