<svg width="25" height="24" viewBox="0 0 25 24" fill="none" xmlns="http://www.w3.org/2000/svg">
<g clip-path="url(#clip0_4606_6110)">
<path d="M12.4531 9.46875C12.9709 9.46875 13.3906 9.88843 13.3906 10.4062C13.3906 10.9241 12.9709 11.3438 12.4531 11.3438C11.9353 11.3438 11.5156 10.9241 11.5156 10.4062C11.5156 9.88843 11.9353 9.46875 12.4531 9.46875ZM15.7343 10.4062C15.7343 10.9241 16.154 11.3438 16.6718 11.3438C17.1897 11.3438 17.6093 10.9241 17.6093 10.4062C17.6093 9.88843 17.1897 9.46875 16.6718 9.46875C16.154 9.46875 15.7343 9.88843 15.7343 10.4062ZM7.29686 10.4062C7.29686 10.9241 7.71654 11.3438 8.23436 11.3438C8.75218 11.3438 9.17186 10.9241 9.17186 10.4062C9.17186 9.88843 8.75218 9.46875 8.23436 9.46875C7.71654 9.46875 7.29686 9.88843 7.29686 10.4062ZM23.6756 19.1982C24.7728 20.2954 24.7728 22.0796 23.6762 23.1762C23.1279 23.7244 22.4076 23.9987 21.6875 23.9987C20.9673 23.9987 20.247 23.7244 19.6988 23.1762L14.5524 18.0414C14.4431 17.9323 14.3625 17.798 14.3177 17.6501L13.1967 13.96C13.0973 13.6328 13.1839 13.2775 13.4226 13.0327C13.6614 12.7881 14.0144 12.6929 14.344 12.7841L18.1279 13.8322C18.2837 13.8754 18.4256 13.9579 18.5401 14.0722L23.6756 19.1982ZM16.0432 16.8801L19.5162 20.3454L20.8422 19.0193L17.3898 15.5735L15.4862 15.0461L16.0432 16.8801ZM22.3503 20.5247L22.1694 20.3439L20.8435 21.6698L21.0239 21.8496C21.3901 22.216 21.9848 22.216 22.3503 21.8503C22.716 21.4849 22.716 20.8901 22.3503 20.5247ZM13.0215 19.4275C12.8482 19.435 12.6728 19.4388 12.5 19.4388C10.9925 19.4388 9.54118 19.1581 8.18657 18.6046C7.95586 18.5105 7.69695 18.512 7.46733 18.6088L3.1986 20.4108L4.63689 17.0037C4.77752 16.6707 4.71398 16.2861 4.47338 16.0159C3.10064 14.4738 2.375 12.6286 2.375 10.6804C2.375 5.82513 6.9171 1.875 12.5 1.875C18.0829 1.875 22.625 5.82513 22.625 10.6804C22.625 11.8317 22.3422 12.9877 21.7845 14.1158C21.5551 14.58 21.7453 15.1423 22.2095 15.3717C22.6737 15.6011 23.236 15.4109 23.4654 14.9467C24.1519 13.5579 24.5 12.1225 24.5 10.6804C24.5 4.79114 19.1168 0 12.5 0C5.88329 0 0.5 4.79114 0.5 10.6804C0.5 12.9033 1.25366 15.0084 2.68609 16.8038L0.573791 21.8073C0.425476 22.1587 0.504944 22.565 0.774658 22.8347C0.954101 23.0142 1.19379 23.1094 1.43768 23.1094C1.56054 23.1094 1.68451 23.0852 1.80206 23.0356L7.84563 20.4844C9.31962 21.035 10.8835 21.3138 12.5 21.3138C12.6999 21.3138 12.903 21.3093 13.1035 21.3007C13.6208 21.278 14.0218 20.8403 13.9991 20.3231C13.9765 19.8058 13.538 19.4035 13.0215 19.4275Z" fill="#000345"/>
</g>
<defs>
<clipPath id="clip0_4606_6110">
<rect width="24" height="24" fill="white" transform="translate(0.5)"/>
</clipPath>
</defs>
</svg>
