<svg width="70" height="70" viewBox="0 0 70 70" fill="none" xmlns="http://www.w3.org/2000/svg">
<g clip-path="url(#clip0_3237_50297)">
<path d="M69.5926 60.9018C67.788 55.8934 63.9786 51.9627 59.234 49.8473C60.8271 47.984 61.7921 45.5679 61.7921 42.9297C61.7921 38.0922 58.5536 33.9997 54.1316 32.6993C54.4077 31.425 54.3313 30.06 53.8603 28.7686C51.997 23.6604 48.0476 19.6629 43.1364 17.5411C44.7087 15.6831 45.6593 13.2831 45.6593 10.6641C45.6593 4.78409 40.8752 0 34.9953 0C29.1153 0 24.3312 4.78409 24.3312 10.6641C24.3312 13.2831 25.2818 15.6826 26.8541 17.5411C21.9429 19.6629 17.9935 23.6604 16.1302 28.7686C15.6677 30.0359 15.6058 31.3978 15.9166 32.6827C11.4647 33.965 8.19838 38.0719 8.19838 42.9297C8.19838 45.5679 9.16342 47.984 10.7565 49.8473C6.01141 51.9622 2.20198 55.8934 0.397399 60.9018C-0.344941 62.9627 -0.0346536 65.2661 1.22786 67.0632C2.52028 68.902 4.64743 70 6.91771 70H16.9484C18.4587 70 19.6828 68.7759 19.6828 67.2656C19.6828 65.7553 18.4587 64.5313 16.9484 64.5313H6.91771C6.20955 64.5313 5.8325 64.1029 5.70273 63.9192C5.56013 63.7152 5.34865 63.2933 5.54251 62.7561C7.51746 57.2761 12.8703 53.5938 18.8624 53.5938C24.8546 53.5938 30.2074 57.2761 32.1824 62.7561C32.2438 62.9264 32.2673 63.0834 32.2673 63.2266C32.2678 63.241 32.2668 63.2549 32.2668 63.2693C32.2566 63.5865 32.129 63.8274 32.0318 63.9662C31.8833 64.1772 31.5383 64.5313 30.8937 64.5313C29.3834 64.5313 28.1593 65.7553 28.1593 67.2656C28.1593 68.7759 29.3834 70 30.8937 70C32.4077 70 33.8545 69.5065 35.0268 68.6301C36.2102 69.5065 37.6639 70 39.1833 70H49.4874C50.9978 70 52.2218 68.7759 52.2218 67.2656C52.2218 65.7553 50.9978 64.5313 49.4874 64.5313H39.1833C38.4752 64.5313 38.0981 64.1029 37.9684 63.9192C37.8258 63.7152 37.6143 63.2933 37.8081 62.7561C39.7831 57.2761 45.1359 53.5938 51.1281 53.5938C57.1202 53.5938 62.4731 57.2761 64.448 62.7561C64.6542 63.3286 64.4421 63.7601 64.2974 63.9662C64.1489 64.1772 63.8039 64.5318 63.1593 64.5318C61.649 64.5318 60.4249 65.7559 60.4249 67.2662C60.4249 68.7759 61.649 70.0005 63.1593 70.0005C65.4024 70.0005 67.5001 68.9201 68.7717 67.1102C70.0375 65.3088 70.3445 62.9878 69.5926 60.9018ZM56.3234 42.9297C56.3234 45.7944 53.9928 48.125 51.1281 48.125C48.2634 48.125 45.9328 45.7944 45.9328 42.9297C45.9328 40.065 48.2634 37.7344 51.1281 37.7344C53.9928 37.7344 56.3234 40.065 56.3234 42.9297ZM29.7999 10.6641C29.7999 7.79938 32.1306 5.46875 34.9953 5.46875C37.8599 5.46875 40.1906 7.79938 40.1906 10.6641C40.1906 13.5287 37.8599 15.8594 34.9953 15.8594C32.1306 15.8594 29.7999 13.5287 29.7999 10.6641ZM13.6671 42.9297C13.6671 40.065 15.9978 37.7344 18.8624 37.7344C21.7271 37.7344 24.0578 40.065 24.0578 42.9297C24.0578 45.7944 21.7271 48.125 18.8624 48.125C15.9978 48.125 13.6671 45.7944 13.6671 42.9297ZM34.9953 56.4269C32.9712 53.5526 30.1861 51.2818 26.9684 49.8473C28.5615 47.984 29.5265 45.5679 29.5265 42.9297C29.5265 41.155 29.088 39.4818 28.3179 38.0078H34.0382C35.5485 38.0078 36.7726 36.7838 36.7726 35.2734C36.7726 33.7631 35.5485 32.5391 34.0382 32.5391H22.7472C21.992 32.5391 21.5851 32.0739 21.4451 31.8736C21.2913 31.6541 21.0638 31.2018 21.2678 30.6432C23.2999 25.0713 28.8167 21.3281 34.9953 21.3281C41.1738 21.3281 46.6906 25.0713 48.7227 30.6432C48.9603 31.2936 48.7307 31.9505 48.3948 32.2379C48.3868 32.2448 48.3862 32.2453 48.3777 32.2523C48.062 32.5241 47.559 32.8552 47.3688 32.9177C47.0831 32.9994 46.8225 33.1249 46.5891 33.2825C42.973 34.9909 40.464 38.6722 40.464 42.9297C40.464 45.5679 41.4291 47.984 43.0221 49.8473C39.8044 51.2818 37.0188 53.5526 34.9953 56.4269Z" fill="#FDC90D" fill-opacity="0.2"/>
</g>
<defs>
<clipPath id="clip0_3237_50297">
<rect width="70" height="70" fill="white"/>
</clipPath>
</defs>
</svg>
