<svg width="114" height="114" viewBox="0 0 114 114" fill="none" xmlns="http://www.w3.org/2000/svg">
<g clip-path="url(#clip0_6112_54370)">
<circle cx="57" cy="57" r="57" fill="#3FFFFF" fill-opacity="0.2"/>
<g clip-path="url(#clip1_6112_54370)">
<path d="M82.8056 90.5483H89.2572L88.4572 93.7612C88.1733 94.9096 87.1411 95.7096 85.954 95.7096H72.483H71.1927C70.483 95.7096 69.9023 95.129 69.9023 94.4193V91.8387C69.9023 91.129 70.483 90.5483 71.1927 90.5483H72.483H80.2249H82.8056Z" fill="#AAB2BD"/>
<path d="M93.1273 74.7807C93.1273 74.9742 93.1014 75.1549 93.0627 75.3355L89.2563 90.5484H82.8047L87.4886 74.1484C87.7724 73.1678 88.6756 72.4839 89.695 72.4839H90.8305C92.095 72.4839 93.1273 73.5161 93.1273 74.7807Z" fill="#CCD1D9"/>
<path d="M75.0646 38.9355C75.1679 39.1291 75.2711 39.3226 75.3872 39.5162L75.0259 39.7355L73.7743 37.6452L71.1937 38.9355L67.3227 33.7742L63.4517 37.6452L58.2904 31.1936L53.1292 37.6452L49.2582 33.7742L45.3872 38.9355L42.8066 37.6452L42.0324 38.9355H26.0324C23.1808 38.9355 20.8711 36.6259 20.8711 33.7742V28.613C20.8711 25.7613 23.1808 23.4517 26.0324 23.4517H75.0646V38.9355Z" fill="url(#paint0_linear_6112_54370)"/>
<path d="M95.1786 21.6325C95.5141 21.9679 95.7076 22.4325 95.7076 22.9228C95.7076 23.9292 94.8947 24.7421 93.8883 24.7421H87.9657C86.5464 24.7421 85.3851 25.9034 85.3851 27.3228V35.0647C85.3851 36.4841 86.5464 37.6454 87.9657 37.6454H93.8883C94.8947 37.6454 95.7076 38.4583 95.7076 39.4647C95.7076 39.955 95.5141 40.4196 95.1786 40.755L94.5722 41.3615C92.8173 43.1163 90.4431 44.097 87.9657 44.097H83.4109C81.6431 44.097 79.9528 43.5938 78.5077 42.7034C77.9657 42.3679 77.4496 41.9809 75.3851 39.5163C75.269 39.3228 75.1657 39.1292 75.0625 38.9357V23.4518C76.6496 20.2905 79.8754 18.2905 83.4109 18.2905H87.1141C88.6238 18.2905 90.1077 18.5873 91.4754 19.155C92.8431 19.7228 94.1077 20.5615 95.1786 21.6325Z" fill="url(#paint1_linear_6112_54370)"/>
<path d="M39.9794 54.4326C40.0181 54.5488 40.0568 54.6649 40.1084 54.781L41.1536 57.3746C39.8374 57.9939 38.9342 59.3229 38.9342 60.8713C38.9342 61.9423 39.3729 62.91 40.0697 63.6068C40.7665 64.3036 41.7342 64.7423 42.8052 64.7423H44.16C44.4697 68.2262 46.0439 71.3488 48.4181 73.6455C46.3278 79.7359 40.56 84.0971 33.7729 84.0971C25.2181 84.0971 18.2891 77.1681 18.2891 68.6133C18.2891 60.0584 25.2181 53.1294 33.7729 53.1294C35.9794 53.1294 38.0826 53.5939 39.9794 54.4326Z" fill="url(#paint2_linear_6112_54370)"/>
<path d="M72.482 51.839H64.8304C60.6497 51.839 56.5852 50.6519 53.1013 48.4584L46.611 50.8971C45.1013 51.4648 44.0949 52.91 44.0949 54.5229V57.0003H42.8046C42.211 57.0003 41.6562 57.1293 41.1529 57.3745L40.1078 54.7809C40.0562 54.6648 40.0175 54.5487 39.9788 54.4326C39.282 52.6003 38.9336 50.6261 38.9336 48.6648C38.9336 45.6713 39.7465 42.7422 41.282 40.1874L42.0304 38.9358L42.8046 37.6455L45.3852 38.9358L49.2562 33.7745L53.1271 37.6455L58.2884 31.1938L63.4497 37.6455L67.3207 33.7745L71.1917 38.9358L73.7723 37.6455L75.0239 39.7358L75.2949 40.1874C76.8304 42.7422 77.6433 45.6713 77.6433 48.6648C77.6433 50.7551 77.2433 52.8455 76.4691 54.7809L75.4239 57.3745C74.9207 57.1293 74.3659 57.0003 73.7723 57.0003H72.482V51.839Z" fill="#B27946"/>
<path d="M72.482 51.839H64.8304C60.6497 51.839 56.5852 50.6519 53.1013 48.4584L46.611 50.8971C45.1013 51.4648 44.0949 52.91 44.0949 54.5229V57.0003H42.8046C42.211 57.0003 41.6562 57.1293 41.1529 57.3745L40.1078 54.7809C40.0562 54.6648 40.0175 54.5487 39.9788 54.4326C39.282 52.6003 38.9336 50.6261 38.9336 48.6648C38.9336 45.6713 39.7465 42.7422 41.282 40.1874L42.0304 38.9358L42.8046 37.6455L45.3852 38.9358L49.2562 33.7745L53.1271 37.6455L58.2884 31.1938L63.4497 37.6455L67.3207 33.7745L71.1917 38.9358L73.7723 37.6455L75.0239 39.7358L75.2949 40.1874C76.8304 42.7422 77.6433 45.6713 77.6433 48.6648C77.6433 50.7551 77.2433 52.8455 76.4691 54.7809L75.4239 57.3745C74.9207 57.1293 74.3659 57.0003 73.7723 57.0003H72.482V51.839Z" fill="url(#paint3_linear_6112_54370)" fill-opacity="0.5"/>
<path d="M66.8954 95.7098H54.418V83.2324C54.418 90.1227 60.0051 95.7098 66.8954 95.7098Z" fill="#EF3D57"/>
<path d="M69.9018 91.8391V94.4197C69.9018 95.1294 70.4825 95.71 71.1922 95.71H67.3212H66.8954C60.0051 95.71 54.418 90.1229 54.418 83.2326C54.418 81.6971 55.0373 80.2907 56.0567 79.2842C57.0631 78.2649 58.4696 77.6455 60.0051 77.6455C61.0502 77.6455 62.0696 77.9423 62.9341 78.4842C63.7986 79.0133 64.5212 79.7874 64.9986 80.7294L67.3212 85.3874H72.4825V90.5487H71.1922C70.4825 90.5487 69.9018 91.1294 69.9018 91.8391Z" fill="url(#paint4_linear_6112_54370)"/>
<path d="M80.2263 90.5485H72.4844V85.3872H75.065C77.9166 85.3872 80.2263 87.6969 80.2263 90.5485Z" fill="#F0D0B4"/>
<path d="M75.4244 57.3742C76.7405 57.9935 77.6438 59.3226 77.6438 60.871C77.6438 61.9419 77.2051 62.9097 76.5083 63.6064C75.8115 64.3032 74.8438 64.7419 73.7728 64.7419H72.418C72.4567 64.3161 72.4825 63.8903 72.4825 63.4516V57H73.7728C74.3664 57 74.9212 57.129 75.4244 57.3742Z" fill="#F0D0B4"/>
<path d="M72.4808 57.0004V63.452C72.4808 63.8908 72.455 64.3166 72.4163 64.7424C72.1195 68.1488 70.6099 71.2069 68.326 73.4908C65.7583 76.0585 62.2099 77.6456 58.2873 77.6456C54.4421 77.6456 50.9712 76.123 48.4163 73.6456C46.0421 71.3488 44.4679 68.2262 44.1583 64.7424C44.1196 64.3166 44.0938 63.8908 44.0938 63.452V57.0004V54.523C44.0938 52.9101 45.1002 51.4649 46.6099 50.8972L53.1002 48.4585C56.5841 50.652 60.6486 51.8391 64.8292 51.8391H72.4808V57.0004Z" fill="#F0D0B4"/>
<path d="M44.1594 64.7419H42.8046C41.7336 64.7419 40.7659 64.3032 40.0691 63.6064C39.3723 62.9097 38.9336 61.9419 38.9336 60.871C38.9336 59.3226 39.8368 57.9935 41.1529 57.3742C41.6562 57.129 42.211 57 42.8046 57H44.0949V63.4516C44.0949 63.8903 44.1207 64.3161 44.1594 64.7419Z" fill="#F0D0B4"/>
<path d="M55.7107 60.8708V59.5804C55.7107 57.4462 53.9739 55.7095 51.8397 55.7095C49.7055 55.7095 47.9688 57.4462 47.9688 59.5804V60.8708H50.5494V59.5804C50.5494 58.8682 51.1287 58.2901 51.8397 58.2901C52.5507 58.2901 53.13 58.8682 53.13 59.5804V60.8708H55.7107Z" fill="black"/>
<path d="M64.7421 55.7095C62.6079 55.7095 60.8711 57.4462 60.8711 59.5804V60.8708H63.4517V59.5804C63.4517 58.8682 64.0311 58.2901 64.7421 58.2901C65.453 58.2901 66.0324 58.8682 66.0324 59.5804V60.8708H68.613V59.5804C68.613 57.4462 66.8763 55.7095 64.7421 55.7095Z" fill="black"/>
<path d="M59.2747 68.613H54.418V71.1937H59.2747C61.5457 71.1937 63.5883 69.9304 64.6038 67.8995L62.2954 66.7446C61.7199 67.8969 60.5625 68.613 59.2747 68.613Z" fill="black"/>
<path d="M27.3242 87.9678H29.9049V90.5484H27.3242V87.9678Z" fill="black"/>
<path d="M32.4844 87.9678H35.065V90.5484H32.4844V87.9678Z" fill="black"/>
<path d="M37.6445 87.9678H40.2252V90.5484H37.6445V87.9678Z" fill="black"/>
<path d="M81.5156 53.1289H84.0963V55.7096H81.5156V53.1289Z" fill="black"/>
<path d="M86.6758 53.1289H94.4177V55.7096H86.6758V53.1289Z" fill="black"/>
<path d="M81.5156 58.2905H94.4188V60.8712H81.5156V58.2905Z" fill="black"/>
<path d="M81.5156 63.4517H84.0963V66.0323H81.5156V63.4517Z" fill="black"/>
<path d="M86.6758 63.4517H89.2564V66.0323H86.6758V63.4517Z" fill="black"/>
<path d="M93.8852 36.3548H87.9677C87.2568 36.3548 86.6774 35.7755 86.6774 35.0645V27.3226C86.6774 26.6116 87.2568 26.0323 87.9677 26.0323H93.8852C95.6026 26.0323 97 24.6348 97 22.9174C97 22.0852 96.6761 21.3032 96.0877 20.7148C93.6929 18.3187 90.5071 17 87.12 17H83.4155C79.6374 17 76.2142 18.9587 74.3007 22.1613H26.0323C22.4748 22.1613 19.5806 25.0555 19.5806 28.6129V33.7742C19.5806 37.3316 22.4748 40.2258 26.0323 40.2258H39.7858C38.3884 42.8155 37.6452 45.7135 37.6452 48.6632C37.6452 49.9342 37.7935 51.1845 38.0581 52.4129C36.6684 52.0452 35.2387 51.8387 33.7742 51.8387C24.5252 51.8387 17 59.3639 17 68.6129C17 77.8619 24.5252 85.3871 33.7742 85.3871C40.3187 85.3871 46.1961 81.5832 48.9394 75.7639C50.6994 77.1032 52.7458 78.0813 54.9794 78.5703C53.8413 79.7974 53.129 81.4258 53.129 83.2271V97H66.9019H67.3226H71.1935H72.4839H85.9523C87.7316 97 89.2761 95.7935 89.7084 94.0684L94.3123 75.6516C94.3832 75.3639 94.4194 75.0735 94.4194 74.7819C94.4194 72.8039 92.809 71.1935 90.831 71.1935H89.7006C88.1084 71.1935 86.689 72.2632 86.2503 73.7974L81.8335 89.2581H81.3858C80.7858 86.3174 78.1806 84.0968 75.0645 84.0968H68.12L66.1484 80.1536C65.6684 79.1936 64.9819 78.3923 64.1665 77.769C69.0284 75.7664 72.6413 71.3561 73.5406 66.0323H73.7742C76.6206 66.0323 78.9355 63.7174 78.9355 60.871C78.9355 59.2581 78.1768 57.8348 77.0155 56.8877L77.6632 55.2658C78.5071 53.1574 78.9355 50.9355 78.9355 48.6632C78.9355 47.1071 78.7265 45.5652 78.3277 44.0748C79.8581 44.9084 81.5897 45.3871 83.4155 45.3871H87.9716C90.8103 45.3871 93.4787 44.2813 95.4865 42.2735L96.0877 41.6723C96.6761 41.0839 97 40.3019 97 39.4697C97 37.7523 95.6026 36.3548 93.8852 36.3548ZM22.1613 33.7742V28.6129C22.1613 26.4787 23.8981 24.7419 26.0323 24.7419H73.7742V36.2026L71.5794 37.3006L67.4619 31.8103L63.5587 35.7135L58.2903 29.1277L53.0219 35.7135L49.1187 31.8103L45.0013 37.3006L42.3148 35.9574L41.3019 37.6452H26.0323C23.8981 37.6452 22.1613 35.9084 22.1613 33.7742ZM33.7742 81.2116L32.0761 77.8142C31.6335 76.929 31.28 76.0052 30.9703 75.0645H36.5781C36.2684 76.0039 35.9148 76.929 35.4723 77.8142L33.7742 81.2116ZM30.3058 72.4839C30.0606 71.2065 29.9032 69.9123 29.9032 68.6129C29.9032 67.3135 30.0606 66.0194 30.3058 64.7419H37.2426C37.4877 66.0194 37.6452 67.3135 37.6452 68.6129C37.6452 69.9123 37.4877 71.2065 37.2426 72.4839H30.3058ZM19.5806 68.6129C19.5806 67.2697 19.7806 65.9742 20.1303 64.7419H27.6542C27.4374 66.0206 27.3226 67.3174 27.3226 68.6129C27.3226 69.9084 27.4374 71.2052 27.6555 72.4839H20.1303C19.7806 71.2516 19.5806 69.9561 19.5806 68.6129ZM33.7742 56.0142L35.4723 59.4116C35.9148 60.2968 36.2684 61.2206 36.5781 62.1613H30.9703C31.28 61.2219 31.6335 60.2968 32.0761 59.4116L33.7742 56.0142ZM39.9561 65.1677C40.7742 65.7123 41.7523 66.0323 42.8065 66.0323H43.04C43.4413 68.4116 44.3832 70.6039 45.7394 72.4839H39.8929C40.111 71.2052 40.2258 69.9084 40.2258 68.6129C40.2258 67.4606 40.129 66.3084 39.9561 65.1677ZM42.8065 63.4516C41.3832 63.4516 40.2258 62.2942 40.2258 60.871C40.2258 59.4477 41.3832 58.2903 42.8065 58.2903V63.4516ZM38.0568 58.8529C37.9652 58.6542 37.8787 58.4529 37.7806 58.2581L35.9536 54.6039C36.9897 54.7639 38 55.0348 38.9781 55.4219L39.5639 56.8877C38.9187 57.4142 38.3884 58.0761 38.0568 58.8529ZM31.5935 54.6052L29.7677 58.2581C29.1419 59.5084 28.6361 60.8181 28.2477 62.1613H21.1471C23.1832 58.1923 27.0297 55.3135 31.5935 54.6052ZM21.1471 75.0645H28.2465C28.6361 76.4077 29.1419 77.7174 29.7665 78.9677L31.5923 82.6206C27.0297 81.9123 23.1832 79.0336 21.1471 75.0645ZM35.9471 82.6374L37.7819 78.9677C38.4065 77.7174 38.9123 76.4077 39.3019 75.0645H46.4142C44.3432 79.12 40.4426 81.9432 35.9471 82.6374ZM55.7097 94.4194V91.2232C56.5935 92.4555 57.6723 93.5355 58.9058 94.4194H55.7097ZM88.7316 74.5058C88.8555 74.0748 89.2542 73.7742 89.7006 73.7742H90.831C91.3871 73.7742 91.8387 74.2271 91.8387 74.7819C91.8387 74.8632 91.8284 74.9458 91.809 75.0258L88.2503 89.2581H84.5161L88.7316 74.5058ZM87.6052 91.8387L87.2039 93.4413C87.0606 94.0168 86.5458 94.4194 85.9523 94.4194H72.4839H71.1935V91.8387H87.6052ZM78.6981 89.2581H73.7742V86.6774H75.0645C76.7445 86.6774 78.1639 87.76 78.6981 89.2581ZM65.88 85.3871L64.8787 87.391L67.1871 88.5458L68.12 86.6774H71.1935V89.2581C69.7703 89.2581 68.6129 90.4155 68.6129 91.8387V94.4194H67.3226H66.9019C60.7303 94.4194 55.7097 89.3987 55.7097 83.2271C55.7097 80.8606 57.6348 78.9355 60.0013 78.9355C61.6374 78.9355 63.1084 79.8452 63.84 81.3084L65.88 85.3871ZM58.2903 76.3548C51.1755 76.3548 45.3871 70.5664 45.3871 63.4516V54.5213C45.3871 53.4516 46.0594 52.48 47.0619 52.1045L52.9961 49.8787C56.5484 51.9832 60.5987 53.129 64.8335 53.129H71.1935V63.4516C71.1935 70.5664 65.4052 76.3548 58.2903 76.3548ZM73.7742 63.4516V58.2903C75.1974 58.2903 76.3548 59.4477 76.3548 60.871C76.3548 62.2942 75.1974 63.4516 73.7742 63.4516ZM73.7742 55.7097V53.129V51.8387C73.7742 48.2361 71.209 45.1071 67.6748 44.4L66.2839 44.1226L65.7781 46.6529L67.1677 46.9303C69.0645 47.3097 70.5381 48.7458 71.0219 50.5484H64.8323C59.2929 50.5484 54.0852 48.391 50.169 44.4748L48.3445 46.2994C48.9935 46.9484 49.6813 47.5394 50.3897 48.1006L46.1548 49.689C44.1523 50.44 42.8065 52.3819 42.8065 54.5213V55.7097C42.4994 55.7097 42.2026 55.7484 41.9097 55.8L41.3123 54.3071C40.5923 52.5045 40.2258 50.6052 40.2258 48.6632C40.2258 45.9097 40.9755 43.2064 42.391 40.8452L43.2981 39.3342L45.7729 40.5716L49.3974 35.7394L53.2361 39.5781L58.2903 33.2594L63.3445 39.5768L67.1832 35.7381L70.8077 40.5703L73.2826 39.3329L74.1897 40.8439C75.6052 43.2065 76.3548 45.9097 76.3548 48.6632C76.3548 50.6052 75.9884 52.5045 75.2671 54.3084L74.6697 55.8013C74.3781 55.7484 74.0813 55.7097 73.7742 55.7097ZM94.2632 39.8477L93.6619 40.449C92.1406 41.969 90.12 42.8065 87.9716 42.8065H83.4155C80.4464 42.8065 77.7677 41.2103 76.3548 38.6194V23.7677C77.7677 21.1768 80.4464 19.5806 83.4155 19.5806H87.12C89.8181 19.5806 92.3548 20.631 94.2632 22.5394C94.3626 22.6387 94.4194 22.7768 94.4194 22.9174C94.4194 23.2116 94.1794 23.4516 93.8852 23.4516H87.9677C85.8335 23.4516 84.0968 25.1884 84.0968 27.3226V35.0645C84.0968 37.1987 85.8335 38.9355 87.9677 38.9355H93.8852C94.1794 38.9355 94.4194 39.1755 94.4194 39.4697C94.4194 39.6103 94.3626 39.7484 94.2632 39.8477Z" fill="black"/>
</g>
</g>
<defs>
<linearGradient id="paint0_linear_6112_54370" x1="48.1292" y1="23.4517" x2="48.1292" y2="39.7355" gradientUnits="userSpaceOnUse">
<stop stop-color="#CCD1D9"/>
<stop offset="1" stop-color="#5F5176"/>
</linearGradient>
<linearGradient id="paint1_linear_6112_54370" x1="85.3851" y1="18.2905" x2="85.3851" y2="44.097" gradientUnits="userSpaceOnUse">
<stop stop-color="#CCD1D9"/>
<stop offset="1" stop-color="#5F5176"/>
</linearGradient>
<linearGradient id="paint2_linear_6112_54370" x1="48.4181" y1="84.0971" x2="20.5979" y2="78.8139" gradientUnits="userSpaceOnUse">
<stop stop-color="#87B0FF"/>
<stop offset="1" stop-color="#6E26D1"/>
</linearGradient>
<linearGradient id="paint3_linear_6112_54370" x1="58.2884" y1="31.1938" x2="58.7009" y2="53.596" gradientUnits="userSpaceOnUse">
<stop offset="0.19785" stop-color="#630000"/>
<stop offset="1" stop-opacity="0"/>
</linearGradient>
<linearGradient id="paint4_linear_6112_54370" x1="72.4825" y1="95.71" x2="53.7999" y2="94.448" gradientUnits="userSpaceOnUse">
<stop stop-color="#90469F"/>
<stop offset="0.418244" stop-color="#F13886"/>
<stop offset="0.794595" stop-color="#EE3A57"/>
</linearGradient>
<clipPath id="clip0_6112_54370">
<rect width="114" height="114" fill="white"/>
</clipPath>
<clipPath id="clip1_6112_54370">
<rect width="80" height="80" fill="white" transform="translate(17 17)"/>
</clipPath>
</defs>
</svg>
