<svg width="106" height="20" viewBox="0 0 106 20" fill="none" xmlns="http://www.w3.org/2000/svg">
<path d="M22.4432 1.675C20.7282 0.8925 18.8944 0.323815 16.9772 0C16.7418 0.415119 16.4667 0.973462 16.277 1.41762C14.239 1.11874 12.2198 1.11874 10.2192 1.41762C10.0296 0.973462 9.7483 0.415119 9.51074 0C7.5915 0.323815 5.75561 0.894589 4.04059 1.67914C0.581376 6.77669 -0.35636 11.7476 0.112509 16.648C2.40684 18.3188 4.63033 19.3338 6.81629 19.9979C7.35601 19.2736 7.83738 18.5035 8.25206 17.692C7.46228 17.3994 6.70584 17.0382 5.9911 16.6189C6.18072 16.482 6.3662 16.3387 6.54539 16.1914C10.9048 18.1798 15.6415 18.1798 19.9488 16.1914C20.1301 16.3387 20.3155 16.482 20.5031 16.6189C19.7862 17.0403 19.0277 17.4014 18.238 17.6941C18.6526 18.5035 19.1319 19.2757 19.6737 20C21.8618 19.3358 24.0873 18.3209 26.3817 16.648C26.9318 10.9672 25.4419 6.04194 22.4432 1.675ZM8.84597 13.6343C7.53732 13.6343 6.46411 12.4429 6.46411 10.9921C6.46411 9.54132 7.5144 8.34788 8.84597 8.34788C10.1776 8.34788 11.2508 9.53923 11.2278 10.9921C11.2299 12.4429 10.1776 13.6343 8.84597 13.6343ZM17.6482 13.6343C16.3396 13.6343 15.2664 12.4429 15.2664 10.9921C15.2664 9.54132 16.3166 8.34788 17.6482 8.34788C18.9798 8.34788 20.053 9.53923 20.0301 10.9921C20.0301 12.4429 18.9798 13.6343 17.6482 13.6343Z" fill="white"/>
<path d="M35.6025 5.10218H41.2913C42.6627 5.10218 43.8213 5.31596 44.7717 5.74145C45.7196 6.16691 46.4304 6.76053 46.9014 7.52018C47.3721 8.27983 47.6096 9.14949 47.6096 10.1291C47.6096 11.0881 47.3638 11.9577 46.872 12.736C46.3803 13.5164 45.6321 14.1329 44.6257 14.5874C43.6193 15.042 42.3729 15.2703 40.8831 15.2703H35.6025V5.10218ZM40.8246 12.6862C41.7479 12.6862 42.4586 12.4558 42.9544 11.9971C43.4505 11.5364 43.6985 10.9096 43.6985 10.1146C43.6985 9.37779 43.4773 8.7904 43.0357 8.35038C42.5941 7.91037 41.9251 7.6883 41.0309 7.6883H39.2513V12.6862H40.8246Z" fill="white"/>
<path d="M56.1266 15.2579C55.3389 15.0545 54.6281 14.7597 53.9969 14.3716V11.9598C54.4741 12.3272 55.1137 12.6302 55.916 12.8689C56.7182 13.1055 57.4936 13.2238 58.2436 13.2238C58.5937 13.2238 58.8585 13.1782 59.0375 13.0868C59.2169 12.9955 59.3066 12.8855 59.3066 12.7589C59.3066 12.6136 59.2587 12.4932 59.1606 12.3957C59.0626 12.2981 58.873 12.2172 58.5919 12.1487L56.8414 11.7564C55.839 11.524 55.1282 11.2022 54.7055 10.7892C54.2824 10.3782 54.0717 9.83859 54.0717 9.17027C54.0717 8.60779 54.2551 8.12006 54.6263 7.70286C54.9949 7.28568 55.5201 6.96396 56.2014 6.73772C56.8831 6.50942 57.6789 6.39527 58.5937 6.39527C59.4105 6.39527 60.1587 6.48243 60.8404 6.65679C61.5217 6.83115 62.0843 7.05321 62.5324 7.3251V9.60615C62.0737 9.33425 61.5486 9.12048 60.9486 8.95855C60.3504 8.79875 59.7359 8.71988 59.1022 8.71988C58.1873 8.71988 57.7312 8.87554 57.7312 9.1848C57.7312 9.33011 57.802 9.43802 57.9436 9.51066C58.0853 9.5833 58.3457 9.65803 58.723 9.73691L60.1815 9.99842C61.1342 10.1624 61.8446 10.4509 62.3113 10.8618C62.7783 11.2728 63.0115 11.881 63.0115 12.6863C63.0115 13.5684 62.6261 14.2678 61.8529 14.7867C61.0797 15.3056 59.9836 15.565 58.5625 15.565C57.7268 15.563 56.9144 15.4613 56.1266 15.2579Z" fill="white"/>
<path d="M66.4545 14.9527C65.6192 14.5458 64.9876 13.9938 64.5666 13.2964C64.1457 12.599 63.9333 11.8144 63.9333 10.9427C63.9333 10.071 64.1519 9.29057 64.5895 8.60356C65.0272 7.91655 65.6689 7.37691 66.5151 6.98463C67.361 6.59236 68.3717 6.39724 69.5492 6.39724C71.0077 6.39724 72.2186 6.70236 73.1814 7.31255V9.97135C72.8418 9.73888 72.4456 9.55 71.9934 9.40472C71.5412 9.25944 71.0578 9.18677 70.541 9.18677C69.6367 9.18677 68.9303 9.35075 68.4197 9.68076C67.909 10.0108 67.653 10.4404 67.653 10.9738C67.653 11.4969 67.9007 11.9244 68.3968 12.2607C68.8929 12.5948 69.6116 12.763 70.5555 12.763C71.0411 12.763 71.5205 12.6924 71.9934 12.5533C72.4644 12.4122 72.8708 12.2399 73.2104 12.0365V14.6081C72.1416 15.2474 70.9017 15.567 69.4907 15.567C68.3031 15.5629 67.2902 15.3595 66.4545 14.9527Z" fill="white"/>
<path d="M76.8197 14.9527C75.9778 14.5459 75.3361 13.9897 74.8941 13.2819C74.4525 12.5742 74.2295 11.7855 74.2295 10.9137C74.2295 10.042 74.4503 9.26366 74.8941 8.58082C75.3379 7.89795 75.9757 7.36245 76.8135 6.97432C77.6488 6.58619 78.6472 6.39317 79.8036 6.39317C80.9603 6.39317 81.9584 6.58619 82.794 6.97432C83.6297 7.36245 84.2675 7.89381 84.7051 8.5725C85.1427 9.25122 85.3614 10.0295 85.3614 10.9117C85.3614 11.7834 85.1427 12.5721 84.7051 13.2798C84.2675 13.9876 83.6276 14.5439 82.7857 14.9507C81.9438 15.3575 80.9498 15.5609 79.8018 15.5609C78.6534 15.5609 77.6594 15.3595 76.8197 14.9527ZM81.252 12.3749C81.6064 12.0221 81.7855 11.5551 81.7855 10.9739C81.7855 10.3928 81.6083 9.92991 81.252 9.58743C80.8979 9.2429 80.4141 9.07064 79.8018 9.07064C79.1786 9.07064 78.6908 9.2429 78.3345 9.58743C77.9804 9.932 77.8032 10.3928 77.8032 10.9739C77.8032 11.5551 77.9804 12.0221 78.3345 12.3749C78.689 12.7278 79.1786 12.9063 79.8018 12.9063C80.4141 12.9042 80.8979 12.7278 81.252 12.3749Z" fill="white"/>
<path d="M94.1261 6.93275V10.071C93.7553 9.82814 93.2759 9.70776 92.6821 9.70776C91.9045 9.70776 91.3046 9.94232 90.8876 10.4114C90.4689 10.8805 90.2604 11.611 90.2604 12.599V15.2723H86.6867V6.77295H90.1878V9.47532C90.3814 8.48733 90.6962 7.75885 91.1295 7.28766C91.561 6.8186 92.1192 6.58408 92.7987 6.58408C93.3133 6.58408 93.7553 6.70031 94.1261 6.93275Z" fill="white"/>
<path d="M106 4.8116V15.2724H102.426V13.3691C102.124 14.0852 101.665 14.631 101.049 15.0046C100.432 15.3762 99.669 15.563 98.7646 15.563C97.9562 15.563 97.252 15.3679 96.6495 14.9756C96.0473 14.5833 95.5828 14.0457 95.2556 13.3629C94.9305 12.68 94.7656 11.9079 94.7656 11.0445C94.7555 10.1541 94.9283 9.35499 95.2846 8.64722C95.6391 7.93946 96.141 7.38738 96.7871 6.99093C97.4332 6.59451 98.1708 6.39525 98.9982 6.39525C100.701 6.39525 101.843 7.13206 102.426 8.60363V4.8116H106ZM101.893 12.3168C102.257 11.964 102.439 11.5053 102.439 10.9449C102.439 10.4031 102.261 9.96104 101.907 9.62274C101.553 9.28444 101.067 9.11423 100.457 9.11423C99.8546 9.11423 99.3733 9.28649 99.0127 9.63103C98.6521 9.9756 98.473 10.4218 98.473 10.9739C98.473 11.526 98.6521 11.9764 99.0127 12.3251C99.3733 12.6738 99.8484 12.8481 100.442 12.8481C101.044 12.8461 101.528 12.6696 101.893 12.3168Z" fill="white"/>
<path d="M50.6211 7.67785C51.605 7.67785 52.4029 6.96417 52.4029 6.08382C52.4029 5.20347 51.605 4.48982 50.6211 4.48982C49.6369 4.48982 48.8394 5.20347 48.8394 6.08382C48.8394 6.96417 49.6369 7.67785 50.6211 7.67785Z" fill="white"/>
<path d="M48.8379 8.77584C49.9297 9.2449 51.2843 9.26565 52.4011 8.77584V15.318H48.8379V8.77584Z" fill="white"/>
</svg>
