<svg width="114" height="114" viewBox="0 0 114 114" fill="none" xmlns="http://www.w3.org/2000/svg">
<g clip-path="url(#clip0_6112_54416)">
<circle cx="57" cy="57" r="57" fill="#3FFFFF" fill-opacity="0.2"/>
<path d="M74.5 69.5H24.5C21.7387 69.5 19.5 67.2612 19.5 64.5V34.5H74.5V69.5Z" fill="#E6E9ED"/>
<path d="M82 39.5V47H74.5H55.75V39.5H74.5H82Z" fill="url(#paint0_linear_6112_54416)"/>
<path d="M90.75 39.5C92.825 39.5 94.5 41.175 94.5 43.25C94.5 44.2875 94.075 45.225 93.4 45.9C92.725 46.575 91.7875 47 90.75 47H87V39.5H90.75Z" fill="#AAB2BD"/>
<path d="M82 39.5H87V47H82V39.5Z" fill="#E6E9ED"/>
<path d="M55.75 39.5V47L50.6625 44.9625C49.9625 44.6875 49.5 44 49.5 43.25C49.5 42.5 49.9625 41.8125 50.6625 41.5375L55.75 39.5Z" fill="#AAB2BD"/>
<path d="M74.5 27V34.5H19.5V27C19.5 25.625 20.625 24.5 22 24.5H29.5V27C29.5 28.375 30.625 29.5 32 29.5H34.5C35.875 29.5 37 28.375 37 27V24.5H57V27C57 28.375 58.125 29.5 59.5 29.5H62C63.375 29.5 64.5 28.375 64.5 27V24.5H72C73.375 24.5 74.5 25.625 74.5 27Z" fill="url(#paint1_linear_6112_54416)"/>
<path d="M64.5 24.5V27C64.5 28.375 63.375 29.5 62 29.5H59.5C58.125 29.5 57 28.375 57 27V24.5V22C57 20.625 58.125 19.5 59.5 19.5H62C63.375 19.5 64.5 20.625 64.5 22V24.5Z" fill="#CCD1D9"/>
<path d="M37 24.5V27C37 28.375 35.875 29.5 34.5 29.5H32C30.625 29.5 29.5 28.375 29.5 27V24.5V22C29.5 20.625 30.625 19.5 32 19.5H34.5C35.875 19.5 37 20.625 37 22V24.5Z" fill="#CCD1D9"/>
<path d="M74.5125 59.5125L72 57L74.5 54.5L78.25 50.75L93.25 65.75L87 72L84.4875 69.5L74.5125 59.5125Z" fill="url(#paint2_linear_6112_54416)"/>
<path d="M72.975 70.1C71.95 70.525 70.85 70.75 69.7125 70.75H68.25L66.4875 72.5125C66.0125 72.9875 65.375 73.25 64.7125 73.25H60.0125C59.0375 73.25 58.25 72.4625 58.25 71.4875C58.25 71.0125 58.4375 70.5625 58.7625 70.2375L65.75 63.25L66.3875 62.6125C67.3875 61.6125 68.5625 60.8375 69.8375 60.3C71.1 59.775 72.475 59.5 73.8875 59.5C74.1 59.5 74.3 59.5 74.5125 59.5125L84.4875 69.5C84.5 69.7 84.5 69.9 84.5 70.1125C84.5 72.925 83.3875 75.6125 81.3875 77.6125L81.375 77.625L73.875 70.125L72.975 70.1Z" fill="#F0D0B4"/>
<path d="M78.725 82.475C79.225 82.975 79.5 83.65 79.5 84.35C79.5 85.075 79.2 85.75 78.725 86.225C78.25 86.7 77.575 87 76.85 87C76.15 87 75.475 86.725 74.975 86.225C75.475 86.725 75.75 87.4 75.75 88.1C75.75 88.825 75.45 89.5 74.975 89.975C74.5 90.45 73.825 90.75 73.1 90.75C72.4 90.75 71.725 90.475 71.225 89.975C71.725 90.475 72 91.15 72 91.85C72 92.575 71.7 93.25 71.225 93.725C70.75 94.2 70.075 94.5 69.35 94.5C68.65 94.5 67.975 94.225 67.475 93.725L66.375 92.625L66.3625 92.6125C66.775 92.1375 67 91.525 67 90.9C67 90.175 66.7 89.5 66.225 89.025C65.75 88.55 65.075 88.25 64.35 88.25C63.65 88.25 62.975 88.525 62.475 89.025C62.975 88.525 63.25 87.85 63.25 87.15C63.25 86.425 62.95 85.75 62.475 85.275C62 84.8 61.325 84.5 60.6 84.5C59.9 84.5 59.225 84.775 58.725 85.275C59.225 84.775 59.5 84.1 59.5 83.4C59.5 82.675 59.2 82 58.725 81.525C58.25 81.05 57.575 80.75 56.85 80.75C56.15 80.75 55.475 81.025 54.975 81.525C55.475 81.025 55.75 80.35 55.75 79.65C55.75 78.925 55.45 78.25 54.975 77.775C54.5 77.3 53.825 77 53.1 77C52.4 77 51.725 77.275 51.225 77.775L50.75 78.25L50.1125 77.6125C48.1125 75.6125 47 72.925 47 70.1125C47 69.9 47 69.7 47.0125 69.4875L56.9875 59.5125C57.2 59.5 57.4 59.5 57.6125 59.5C59.025 59.5 60.4 59.775 61.6625 60.3C62.9375 60.8375 64.1125 61.6125 65.1125 62.6125L65.75 63.25L58.7625 70.2375C58.4375 70.5625 58.25 71.0125 58.25 71.4875C58.25 72.4625 59.0375 73.25 60.0125 73.25H64.7125C65.375 73.25 66.0125 72.9875 66.4875 72.5125L68.25 70.75H69.7125C70.85 70.75 71.95 70.525 72.975 70.1L73.875 70.125L81.375 77.625L82.475 78.725C82.975 79.225 83.25 79.9 83.25 80.6C83.25 81.325 82.95 82 82.475 82.475C82 82.95 81.325 83.25 80.6 83.25C79.9 83.25 79.225 82.975 78.725 82.475Z" fill="#F0D0B4"/>
<path d="M66.225 89.025C66.7 89.5 67 90.175 67 90.9C67 91.525 66.775 92.1375 66.3625 92.6125C66.325 92.675 66.275 92.725 66.225 92.775L65.275 93.725C64.775 94.225 64.1 94.5 63.4 94.5C62.675 94.5 62 94.2 61.525 93.725C61.05 93.25 60.75 92.575 60.75 91.85C60.75 91.15 61.025 90.475 61.525 89.975L62.475 89.025C62.975 88.525 63.65 88.25 64.35 88.25C65.075 88.25 65.75 88.55 66.225 89.025Z" fill="#F0D0B4"/>
<path d="M62.475 85.275C62.95 85.75 63.25 86.425 63.25 87.15C63.25 87.85 62.975 88.525 62.475 89.025L61.525 89.975C61.025 90.475 60.35 90.75 59.65 90.75C58.925 90.75 58.25 90.45 57.775 89.975C57.3 89.5 57 88.825 57 88.1C57 87.4 57.275 86.725 57.775 86.225L58.725 85.275C59.225 84.775 59.9 84.5 60.6 84.5C61.325 84.5 62 84.8 62.475 85.275Z" fill="#F0D0B4"/>
<path d="M56.9875 59.5125L47.0125 69.4875L44.5 72L42 69.5L38.25 65.75L52 52L53.25 50.75L59.5 57L56.9875 59.5125Z" fill="url(#paint3_linear_6112_54416)"/>
<path d="M58.725 81.525C59.2 82 59.5 82.675 59.5 83.4C59.5 84.1 59.225 84.775 58.725 85.275L57.775 86.225C57.275 86.725 56.6 87 55.9 87C55.175 87 54.5 86.7 54.025 86.225C53.55 85.75 53.25 85.075 53.25 84.35C53.25 83.65 53.525 82.975 54.025 82.475L54.975 81.525C55.475 81.025 56.15 80.75 56.85 80.75C57.575 80.75 58.25 81.05 58.725 81.525Z" fill="#F0D0B4"/>
<path d="M54.975 77.775C55.45 78.25 55.75 78.925 55.75 79.65C55.75 80.35 55.475 81.025 54.975 81.525L54.025 82.475C53.525 82.975 52.85 83.25 52.15 83.25C51.425 83.25 50.75 82.95 50.275 82.475C49.8 82 49.5 81.325 49.5 80.6C49.5 79.9 49.775 79.225 50.275 78.725L50.75 78.25L51.225 77.775C51.725 77.275 52.4 77 53.1 77C53.825 77 54.5 77.3 54.975 77.775Z" fill="#F0D0B4"/>
<path d="M49.5 43.25V49.5H39.5V39.5H49.5V43.25Z" fill="url(#paint4_linear_6112_54416)"/>
<path d="M24.5 54.5H34.5V64.5H24.5V54.5Z" fill="url(#paint5_linear_6112_54416)"/>
<path d="M24.5 39.5H34.5V49.5H24.5V39.5Z" fill="url(#paint6_linear_6112_54416)"/>
<path d="M75.75 51.4825V48.25H90.75C93.5075 48.25 95.75 46.0075 95.75 43.25C95.75 40.4925 93.5075 38.25 90.75 38.25H75.75V27C75.75 24.9325 74.0675 23.25 72 23.25H65.75V22C65.75 19.9325 64.0675 18.25 62 18.25H59.5C57.4325 18.25 55.75 19.9325 55.75 22V23.25H38.25V22C38.25 19.9325 36.5675 18.25 34.5 18.25H32C29.9325 18.25 28.25 19.9325 28.25 22V23.25H22C19.9325 23.25 18.25 24.9325 18.25 27V67C18.25 69.0675 19.9325 70.75 22 70.75H41.4825L44.5 73.7675L45.9587 72.3088C46.3762 74.545 47.4325 76.6037 49.0312 78.2787C48.5325 78.9487 48.25 79.7488 48.25 80.5988C48.25 82.7038 49.9275 84.4125 52.0137 84.4863C52.0863 86.5262 53.7238 88.1637 55.7637 88.2363C55.8363 90.2762 57.4738 91.9137 59.5138 91.9863C59.5875 94.0725 61.2975 95.75 63.4012 95.75C64.4437 95.75 65.4237 95.3438 66.16 94.6075L66.375 94.3925L66.59 94.6075C67.3263 95.3438 68.3063 95.75 69.3488 95.75C71.4538 95.75 73.1625 94.0725 73.2362 91.9863C75.2762 91.9137 76.9137 90.2762 76.9862 88.2363C79.0262 88.1637 80.6637 86.5262 80.7362 84.4863C82.8225 84.4125 84.5 82.7025 84.5 80.5988C84.5 79.5563 84.0938 78.5763 83.3575 77.84L83.0975 77.58C84.3487 76.045 85.18 74.2413 85.5413 72.3088L87 73.7675L95.0175 65.75L78.25 48.9825L75.75 51.4825ZM48.25 48.25H40.75V40.75H48.25V48.25ZM54.5 45.1538L51.125 43.8038C50.8975 43.7125 50.75 43.495 50.75 43.25C50.75 43.005 50.8975 42.7875 51.125 42.6962L54.5 41.3462V45.1538ZM57 40.75H80.75V45.75H57V40.75ZM83.25 40.75H85.75V45.75H83.25V40.75ZM93.25 43.25C93.25 44.6287 92.1288 45.75 90.75 45.75H88.25V40.75H90.75C92.1288 40.75 93.25 41.8713 93.25 43.25ZM58.25 22C58.25 21.3112 58.8112 20.75 59.5 20.75H62C62.6888 20.75 63.25 21.3112 63.25 22V27C63.25 27.6888 62.6888 28.25 62 28.25H59.5C58.8112 28.25 58.25 27.6888 58.25 27V22ZM30.75 22C30.75 21.3112 31.3112 20.75 32 20.75H34.5C35.1887 20.75 35.75 21.3112 35.75 22V27C35.75 27.6888 35.1887 28.25 34.5 28.25H32C31.3112 28.25 30.75 27.6888 30.75 27V22ZM22 25.75H28.25V27C28.25 29.0675 29.9325 30.75 32 30.75H34.5C36.5675 30.75 38.25 29.0675 38.25 27V25.75H55.75V27C55.75 29.0675 57.4325 30.75 59.5 30.75H62C64.0675 30.75 65.75 29.0675 65.75 27V25.75H72C72.6888 25.75 73.25 26.3112 73.25 27V33.25H20.75V27C20.75 26.3112 21.3112 25.75 22 25.75ZM22 68.25C21.3112 68.25 20.75 67.6888 20.75 67V35.75H73.25V38.25H55.51L50.75 40.1538V38.25H38.25V50.75H50.75V46.3462L55.51 48.25H73.25V53.9825L70.2325 57L71.6912 58.4587C69.4675 58.875 67.42 59.9225 65.7487 61.5062C64.08 59.9275 62.0125 58.8838 59.8013 58.4663L61.2675 57L53.25 48.9825L36.4825 65.75L38.9825 68.25H22ZM40.0175 65.75L53.25 52.5175L57.7325 57L44.5 70.2325L40.0175 65.75ZM50.75 80.5988C50.75 80.2238 50.8962 79.8725 51.16 79.6075L52.1075 78.66C52.3725 78.3962 52.7238 78.25 53.0988 78.25C53.8713 78.25 54.5 78.8787 54.5 79.6512C54.5 80.0262 54.3538 80.3775 54.09 80.6425L53.1425 81.59C52.8775 81.8538 52.5262 82 52.1512 82C51.3787 82 50.75 81.3713 50.75 80.5988ZM54.5 84.3488C54.5 83.9738 54.6462 83.6225 54.91 83.3575L55.8575 82.41C56.1225 82.1462 56.4738 82 56.8488 82C57.6213 82 58.25 82.6287 58.25 83.4012C58.25 83.7762 58.1038 84.1275 57.84 84.3925L56.8925 85.34C56.6275 85.6038 56.2762 85.75 55.9012 85.75C55.1287 85.75 54.5 85.1213 54.5 84.3488ZM58.25 88.0988C58.25 87.7238 58.3962 87.3725 58.66 87.1075L59.6075 86.16C59.8725 85.8962 60.2238 85.75 60.5988 85.75C61.3713 85.75 62 86.3787 62 87.1512C62 87.5262 61.8538 87.8775 61.59 88.1425L60.6425 89.09C60.3775 89.3538 60.0262 89.5 59.6512 89.5C58.8787 89.5 58.25 88.8713 58.25 88.0988ZM64.3925 92.84C64.1275 93.1038 63.7762 93.25 63.4012 93.25C62.6287 93.25 62 92.6213 62 91.8488C62 91.4738 62.1462 91.1225 62.41 90.8575L63.3575 89.91C63.6225 89.6462 63.9738 89.5 64.3488 89.5C65.1213 89.5 65.75 90.1287 65.75 90.9012C65.75 91.2762 65.6038 91.6275 65.34 91.8925L64.3925 92.84ZM80.5988 82C80.2238 82 79.8725 81.8538 79.6075 81.59L76.6338 78.6162L74.8662 80.3838L77.84 83.3575C78.1038 83.6225 78.25 83.9738 78.25 84.3488C78.25 85.1213 77.6213 85.75 76.8488 85.75C76.4738 85.75 76.1225 85.6038 75.8575 85.34L72.8838 82.3662L71.1162 84.1338L74.09 87.1075C74.3538 87.3725 74.5 87.7238 74.5 88.0988C74.5 88.8713 73.8713 89.5 73.0988 89.5C72.7238 89.5 72.3725 89.3538 72.1075 89.09L69.1338 86.1162L67.3662 87.8838L70.34 90.8575C70.6038 91.1225 70.75 91.4738 70.75 91.8488C70.75 92.6213 70.1213 93.25 69.3488 93.25C68.9738 93.25 68.6225 93.1038 68.3575 92.84L67.94 92.4225C68.1412 91.9475 68.25 91.4337 68.25 90.9012C68.25 88.7962 66.5725 87.0875 64.4862 87.0137C64.4137 84.9738 62.7762 83.3363 60.7362 83.2637C60.6637 81.2238 59.0262 79.5863 56.9863 79.5138C56.9125 77.4275 55.2025 75.75 53.0988 75.75C52.2575 75.75 51.465 76.025 50.8013 76.5137C49.1588 74.7713 48.25 72.5112 48.25 70.1063C48.25 70.075 48.2525 70.045 48.2525 70.015L57.5037 60.7638C59.8838 60.7425 62.205 61.6237 63.97 63.2625L57.8838 69.3488C57.3138 69.9188 57 70.6762 57 71.4825C57 73.1462 58.3538 74.5 60.0175 74.5H64.7138C65.715 74.5 66.6575 74.11 67.3662 73.4012L68.7675 72H69.7138C70.9625 72 72.1725 71.7612 73.3 71.3175L81.59 79.6075C81.8538 79.8725 82 80.2238 82 80.5988C82 81.3713 81.3713 82 80.5988 82ZM83.25 70.1063C83.25 72.1925 82.5638 74.1688 81.3125 75.7938L75.565 70.0462C75.9375 69.7663 76.2988 69.4688 76.635 69.1338L74.8675 67.3662C73.49 68.7425 71.6613 69.5 69.7138 69.5H67.7325L65.5988 71.6338C65.3625 71.87 65.0475 72 64.7138 72H60.0175C59.7325 72 59.5 71.7675 59.5 71.4825C59.5 71.3462 59.555 71.2125 59.6512 71.1162L67.2775 63.49C69.0687 61.7 71.51 60.745 73.9975 60.7638L83.2475 70.0137C83.2475 70.0462 83.25 70.0763 83.25 70.1063ZM87 70.2325L73.7675 57L78.25 52.5175L91.4825 65.75L87 70.2325Z" fill="black"/>
<path d="M23.25 50.75H35.75V38.25H23.25V50.75ZM25.75 40.75H33.25V48.25H25.75V40.75Z" fill="black"/>
<path d="M23.25 65.75H35.75V53.25H23.25V65.75ZM25.75 55.75H33.25V63.25H25.75V55.75Z" fill="black"/>
</g>
<defs>
<linearGradient id="paint0_linear_6112_54416" x1="68.875" y1="39.5" x2="68.875" y2="47" gradientUnits="userSpaceOnUse">
<stop stop-color="#FAD170"/>
<stop offset="1" stop-color="#E04754"/>
</linearGradient>
<linearGradient id="paint1_linear_6112_54416" x1="47" y1="24.5" x2="47" y2="34.5" gradientUnits="userSpaceOnUse">
<stop stop-color="#556AFA"/>
<stop offset="1" stop-color="#8428AE"/>
</linearGradient>
<linearGradient id="paint2_linear_6112_54416" x1="93.25" y1="72" x2="71.273" y2="70.5154" gradientUnits="userSpaceOnUse">
<stop stop-color="#2C51BD"/>
<stop offset="0.515625" stop-color="#543BA1"/>
<stop offset="1" stop-color="#583488"/>
</linearGradient>
<linearGradient id="paint3_linear_6112_54416" x1="59.5" y1="72" x2="37.523" y2="70.5154" gradientUnits="userSpaceOnUse">
<stop stop-color="#90469F"/>
<stop offset="0.418244" stop-color="#F13886"/>
<stop offset="0.794595" stop-color="#EE3A57"/>
</linearGradient>
<linearGradient id="paint4_linear_6112_54416" x1="44.5" y1="39.5" x2="44.5" y2="49.5" gradientUnits="userSpaceOnUse">
<stop offset="0.134839" stop-color="#F5D76B"/>
<stop offset="1" stop-color="#E76A5C"/>
</linearGradient>
<linearGradient id="paint5_linear_6112_54416" x1="29.5" y1="54.5" x2="29.5" y2="64.5" gradientUnits="userSpaceOnUse">
<stop stop-color="#7ECCFF"/>
<stop offset="1" stop-color="#7ECCFF" stop-opacity="0"/>
</linearGradient>
<linearGradient id="paint6_linear_6112_54416" x1="29.5" y1="39.5" x2="29.5" y2="49.5" gradientUnits="userSpaceOnUse">
<stop stop-color="#7ECCFF"/>
<stop offset="1" stop-color="#7ECCFF" stop-opacity="0"/>
</linearGradient>
<clipPath id="clip0_6112_54416">
<rect width="114" height="114" fill="white"/>
</clipPath>
</defs>
</svg>
