<svg width="20" height="20" viewBox="0 0 20 20" fill="none" xmlns="http://www.w3.org/2000/svg">
<path d="M16.0181 3.99213L16.0184 3.99249C16.2075 4.18153 16.2075 4.5122 16.0184 4.70124L11.0731 9.64661L10.7195 10.0002L11.0731 10.3537L16.0184 15.2991C16.0656 15.3463 16.1031 15.4023 16.1286 15.464C16.1542 15.5257 16.1673 15.5918 16.1673 15.6585C16.1673 15.7253 16.1542 15.7914 16.1286 15.853C16.1031 15.9147 16.0656 15.9707 16.0184 16.0179C15.9712 16.0652 15.9152 16.1026 15.8535 16.1281C15.7919 16.1537 15.7258 16.1668 15.659 16.1668C15.5923 16.1668 15.5262 16.1537 15.4645 16.1281C15.4028 16.1026 15.3468 16.0651 15.2996 16.0179L10.3542 11.0726L10.0007 10.719L9.6471 11.0726L4.70172 16.0179C4.65452 16.0651 4.59849 16.1026 4.53682 16.1281C4.47515 16.1537 4.40905 16.1668 4.3423 16.1668C4.27554 16.1668 4.20944 16.1537 4.14777 16.1281C4.0861 16.1026 4.03007 16.0651 3.98286 16.0179C3.93566 15.9707 3.89822 15.9147 3.87268 15.853C3.84713 15.7914 3.83398 15.7253 3.83398 15.6585C3.83398 15.5918 3.84713 15.5257 3.87268 15.464C3.89822 15.4023 3.93566 15.3463 3.98286 15.2991L8.92824 10.3537L9.28179 10.0002L8.92824 9.64661L3.98286 4.70124C3.93566 4.65404 3.89822 4.598 3.87268 4.53633C3.84713 4.47466 3.83398 4.40856 3.83398 4.34181C3.83398 4.27505 3.84713 4.20895 3.87268 4.14728C3.89822 4.08561 3.93566 4.02958 3.98286 3.98238C4.03007 3.93518 4.0861 3.89773 4.14777 3.87219C4.20944 3.84664 4.27554 3.8335 4.3423 3.8335C4.40905 3.8335 4.47515 3.84664 4.53682 3.87219C4.59849 3.89773 4.65452 3.93518 4.70172 3.98238L9.6471 8.92775L10.0003 9.28094L10.3538 8.92811L15.2992 3.99285L15.2999 3.99213C15.3471 3.94491 15.403 3.90745 15.4646 3.88189C15.5263 3.85634 15.5923 3.84318 15.659 3.84318C15.7257 3.84318 15.7918 3.85634 15.8534 3.88189C15.915 3.90745 15.971 3.94491 16.0181 3.99213Z" fill="#000345" stroke="#111111"/>
</svg>
