<svg width="133" height="40" viewBox="0 0 133 40" fill="none" xmlns="http://www.w3.org/2000/svg">
<path d="M62.9965 27.0003C60.3114 28.2295 57.1018 28.6462 53.1579 28.6462H42.9626V0.229492H53.8082C58.7171 0.229492 62.4721 1.02116 65.3251 3.14616C68.3459 5.39616 70.1081 9.08366 70.1081 14.3962C70.1081 21.1045 67.4439 25.0003 62.9965 27.0003ZM58.9898 6.27116C57.5843 5.37533 55.7801 4.97949 53.3677 4.97949H50.4727V23.8962H53.2418C59.5352 23.8962 62.3253 21.1878 62.3253 14.3753C62.3043 10.292 61.1925 7.68783 58.9898 6.27116Z" fill="#D20A11"/>
<path d="M89.9113 28.667L87.7086 22.292H76.2546L74.0519 28.667H66.9404L77.8699 0.229492H86.6807L97.8199 28.667H89.9113ZM81.9606 5.02116L77.6811 17.7712H86.1772L81.9606 5.02116Z" fill="#D20A11"/>
<path d="M114.938 28.667L104.869 6.33366V28.667H98.4285V0.229492H108.896L118.966 22.542V0.229492H125.406V28.667H114.938Z" fill="#D20A11"/>
<path d="M129.539 5.1875C128.238 5.1875 127.168 4.125 127.168 2.83333C127.168 1.54167 128.238 0.5 129.539 0.5C130.839 0.5 131.909 1.54167 131.909 2.83333C131.909 4.125 130.86 5.1875 129.539 5.1875ZM129.539 0.916667C128.448 0.916667 127.588 1.79167 127.588 2.85417C127.588 3.91667 128.469 4.79167 129.539 4.79167C130.609 4.79167 131.49 3.91667 131.49 2.85417C131.49 1.77083 130.63 0.916667 129.539 0.916667ZM130.042 4.02083C130 3.9375 130 3.83333 129.979 3.72917C129.958 3.625 129.958 3.5 129.958 3.375C129.916 3.14583 129.853 2.97917 129.602 2.97917H129.098V4.02083H128.679V1.60417H129.602C130.021 1.60417 130.441 1.6875 130.441 2.20833C130.441 2.52083 130.273 2.6875 130 2.79167C130.294 2.875 130.357 3.08333 130.378 3.3125C130.399 3.4375 130.399 3.5625 130.399 3.6875C130.42 3.8125 130.441 3.91667 130.504 4.04167H130.042V4.02083ZM129.476 1.89583H129.077V2.66667H129.434C129.728 2.66667 130 2.58333 130 2.25C130 1.95833 129.769 1.89583 129.476 1.89583Z" fill="#D20A11"/>
<path d="M1.09082 34.2295H2.89492C3.18861 34.2295 4.11164 34.2295 4.78293 34.7087C5.47521 35.2087 5.70596 36.0628 5.70596 36.8337C5.70596 38.5003 4.80391 39.3753 3.77599 39.5628C3.56622 39.6045 3.33546 39.6253 2.79003 39.6253H1.09082V34.2295ZM2.26558 38.7503C2.39145 38.7503 2.58025 38.7712 2.7271 38.7712C3.23057 38.7712 3.65013 38.7295 3.98577 38.3962C4.44729 37.9378 4.48924 37.1253 4.48924 36.8753C4.48924 36.1045 4.21653 35.3962 3.50328 35.2087C3.25155 35.1462 2.95786 35.1045 2.28656 35.1253V38.7503H2.26558Z" fill="#808080"/>
<path d="M6.50317 34.209H7.67794V39.6465H6.50317V34.209Z" fill="#808080"/>
<path d="M9.52404 34.25L10.9505 38.5L12.377 34.25H13.5308L11.5379 39.6458H10.2583L8.24438 34.25H9.52404Z" fill="#808080"/>
<path d="M14.0132 34.2295H17.6633V35.1253H15.1879V36.417H17.5165V37.292H15.1879V38.7503H17.7473V39.6462H14.0132V34.2295Z" fill="#808080"/>
<path d="M18.5234 34.2295H20.6212C21.2296 34.2295 21.8379 34.2295 22.2785 34.6045C22.6141 34.8962 22.761 35.292 22.761 35.6462C22.761 36.667 21.8799 36.8962 21.6282 36.9795C22.4463 37.0628 22.5092 37.5212 22.6141 38.2295C22.698 38.8753 22.74 39.1253 22.782 39.2712C22.8449 39.5212 22.8868 39.5628 22.9498 39.667H21.6491C21.6072 39.3753 21.4394 38.0003 21.3555 37.792C21.2506 37.4795 20.9569 37.4795 20.7681 37.4795H19.7192V39.667H18.5234V34.2295ZM19.6982 36.5837H20.6422C20.7681 36.5837 21.0408 36.5837 21.2296 36.4378C21.3135 36.3753 21.5233 36.1878 21.5233 35.8128C21.5233 35.4378 21.3345 35.2712 21.2296 35.2087C21.0408 35.0837 20.831 35.0837 20.4534 35.0837H19.6772V36.5837H19.6982Z" fill="#808080"/>
<path d="M24.5021 37.9167C24.5021 38.1667 24.4812 38.9375 25.4881 38.9375C26.1174 38.9375 26.516 38.6458 26.516 38.1875C26.516 37.7083 26.1804 37.625 25.4881 37.4583C24.1875 37.125 23.4742 36.75 23.4742 35.8125C23.4742 34.9167 24.1245 34.125 25.6349 34.125C26.2013 34.125 26.8726 34.25 27.2922 34.7708C27.6069 35.1667 27.6069 35.6042 27.6069 35.7708H26.4741C26.4531 35.5833 26.3902 34.9375 25.593 34.9375C25.0476 34.9375 24.6909 35.2292 24.6909 35.6667C24.6909 36.1667 25.0895 36.25 25.8867 36.4583C26.8307 36.6875 27.7537 36.9375 27.7537 38C27.7537 38.9792 26.9356 39.7708 25.4252 39.7708C23.3274 39.7708 23.3064 38.4375 23.3064 37.9167H24.5021Z" fill="#808080"/>
<path d="M32.9983 34.2295L34.8863 39.667H33.7116L33.313 38.5003H31.1523L30.7537 39.667H29.6418L31.6138 34.2295H32.9983ZM33.0193 37.6045L32.2641 35.292L31.4459 37.6045H33.0193Z" fill="#808080"/>
<path d="M35.4106 34.2295H36.6064V38.7295H38.9559V39.6462H35.4106V34.2295Z" fill="#808080"/>
<path d="M39.6692 34.2295H43.3193V35.1253H40.823V36.417H43.1515V37.292H40.823V38.7503H43.4033V39.6462H39.6692V34.2295Z" fill="#808080"/>
<path d="M44.1794 34.2295H46.2772C46.8856 34.2295 47.4939 34.2295 47.9345 34.6045C48.2701 34.8962 48.417 35.292 48.417 35.6462C48.417 36.667 47.5359 36.8962 47.2842 36.9795C48.1023 37.0628 48.1652 37.5212 48.2701 38.2295C48.354 38.8753 48.396 39.1253 48.438 39.2712C48.5009 39.5212 48.5428 39.5628 48.6058 39.667H47.3051C47.2422 39.3753 47.0954 38.0003 47.0115 37.792C46.9066 37.4795 46.6129 37.4795 46.4241 37.4795H45.3962V39.667H44.2004V34.2295H44.1794ZM45.3332 36.5837H46.2772C46.4031 36.5837 46.6758 36.5837 46.8646 36.4378C46.9485 36.3753 47.1583 36.1878 47.1583 35.8128C47.1583 35.4378 46.9695 35.2712 46.8646 35.2087C46.6758 35.0837 46.466 35.0837 46.0884 35.0837H45.3122V36.5837H45.3332Z" fill="#808080"/>
<path d="M50.2 35.1253H48.5847V34.2295H53.0111V35.1253H51.3958V39.6462H50.221V35.1253H50.2Z" fill="#808080"/>
<path d="M55.7173 34.2295H57.4165L59.4723 38.5003V34.2295H60.5632V39.667H58.9479L56.8291 35.167V39.667H55.7173V34.2295Z" fill="#808080"/>
<path d="M61.6331 34.2295H65.2832V35.1253H62.7868V36.417H65.1154V37.292H62.7868V38.7503H65.3671V39.6462H61.6331V34.2295Z" fill="#808080"/>
<path d="M67.2552 35.1253H65.6399V34.2295H70.0662V35.1253H68.4509V39.6462H67.2762V35.1253H67.2552Z" fill="#808080"/>
<path d="M71.6186 34.25L72.4577 38.3125L73.5276 34.25H74.8492L75.8142 38.3125L76.6952 34.25H77.8071L76.4225 39.6667H75.1219L74.1359 35.5208L73.0661 39.6667H71.7445L70.4229 34.25H71.6186Z" fill="#808080"/>
<path d="M80.4923 34.1045C81.0797 34.1045 81.8769 34.2295 82.4013 34.8337C82.9887 35.5003 83.0936 36.3337 83.0936 36.8753C83.0936 37.667 82.8419 38.5003 82.4013 39.0003C81.793 39.667 80.9119 39.7712 80.4504 39.7712C79.7371 39.7712 79.0239 39.542 78.5204 39.0212C77.933 38.3962 77.8491 37.4795 77.8491 37.0003C77.8701 35.5628 78.5414 34.1045 80.4923 34.1045ZM79.5064 38.5003C79.6742 38.7295 79.9469 38.9378 80.4923 38.9378C80.9748 38.9378 81.2895 38.7712 81.5203 38.4378C81.7091 38.167 81.8979 37.7503 81.8979 36.8753C81.8979 36.6045 81.8769 36.2295 81.772 35.917C81.5412 35.2503 81.0797 34.9587 80.5343 34.9587C80.0938 34.9587 79.7581 35.1462 79.5274 35.417C79.2127 35.792 79.1288 36.3753 79.1288 37.0003C79.1078 37.5003 79.1917 38.0628 79.5064 38.5003Z" fill="#808080"/>
<path d="M83.8906 34.2295H85.9884C86.5968 34.2295 87.2051 34.2295 87.6457 34.6045C87.9813 34.8962 88.1282 35.292 88.1282 35.6462C88.1282 36.667 87.2471 36.8962 86.9954 36.9795C87.8135 37.0628 87.8764 37.5212 87.9813 38.2295C88.0652 38.8753 88.1072 39.1253 88.1491 39.2712C88.2121 39.5212 88.254 39.5628 88.317 39.667H87.0163C86.9534 39.3753 86.8066 38.0003 86.7226 37.792C86.6178 37.4795 86.3241 37.4795 86.1353 37.4795H85.1073V39.667H83.9116V34.2295H83.8906ZM85.0444 36.5837H85.9884C86.1143 36.5837 86.387 36.5837 86.5758 36.4378C86.6597 36.3753 86.8695 36.1878 86.8695 35.8128C86.8695 35.4378 86.6807 35.2712 86.5758 35.2087C86.387 35.0837 86.1772 35.0837 85.7996 35.0837H85.0234V36.5837H85.0444Z" fill="#808080"/>
<path d="M88.9883 34.2298H90.163V36.5632L91.9881 34.209H93.3517L91.3588 36.6465L93.5405 39.6465H92.072L90.163 36.8757V39.6465H88.9883V34.2298Z" fill="#808080"/>
<path d="M95.7852 34.2295H99.4353V35.1253H96.9389V36.417H99.2675V37.292H96.9389V38.7503H99.5192V39.6462H95.7852V34.2295Z" fill="#D20A11"/>
<path d="M101.554 34.2298V37.5423C101.554 38.1257 101.596 38.8757 102.75 38.8757C102.939 38.8757 103.505 38.8757 103.799 38.3965C103.904 38.2298 103.967 38.0215 103.967 37.4798V34.2298H105.099V37.6048C105.099 39.209 103.799 39.7298 102.708 39.7298C102.163 39.7298 101.156 39.6048 100.652 38.7923C100.379 38.3756 100.379 37.959 100.379 37.459V34.209H101.554V34.2298Z" fill="#D20A11"/>
<path d="M106.169 34.2295H108.267C108.875 34.2295 109.484 34.2295 109.924 34.6045C110.26 34.8962 110.407 35.292 110.407 35.6462C110.407 36.667 109.526 36.8962 109.274 36.9795C110.092 37.0628 110.155 37.5212 110.26 38.2295C110.344 38.8753 110.386 39.1253 110.428 39.2712C110.491 39.5212 110.533 39.5628 110.596 39.667H109.295C109.232 39.3753 109.085 38.0003 109.001 37.792C108.896 37.4795 108.603 37.4795 108.414 37.4795H107.386V39.667H106.19V34.2295H106.169ZM107.323 36.5837H108.267C108.393 36.5837 108.666 36.5837 108.854 36.4378C108.938 36.3753 109.148 36.1878 109.148 35.8128C109.148 35.4378 108.959 35.2712 108.854 35.2087C108.666 35.0837 108.456 35.0837 108.078 35.0837H107.281V36.5837H107.323Z" fill="#D20A11"/>
<path d="M113.637 34.1045C114.225 34.1045 115.022 34.2295 115.567 34.8337C116.155 35.5003 116.26 36.3337 116.26 36.8753C116.26 37.667 116.008 38.5003 115.567 39.0003C114.959 39.667 114.078 39.7712 113.616 39.7712C112.903 39.7712 112.19 39.542 111.686 39.0212C111.099 38.3962 111.015 37.4795 111.015 37.0003C111.015 35.5628 111.665 34.1045 113.637 34.1045ZM112.651 38.5003C112.819 38.7295 113.092 38.9378 113.637 38.9378C114.12 38.9378 114.435 38.7712 114.665 38.4378C114.854 38.167 115.043 37.7503 115.043 36.8753C115.043 36.6045 115.022 36.2295 114.917 35.917C114.686 35.2503 114.225 34.9587 113.679 34.9587C113.239 34.9587 112.903 35.1462 112.672 35.417C112.358 35.792 112.274 36.3753 112.274 37.0003C112.232 37.5003 112.316 38.0628 112.651 38.5003Z" fill="#D20A11"/>
<path d="M117.057 34.2295H118.735C119.511 34.2295 120.182 34.292 120.623 34.8128C120.917 35.167 120.959 35.542 120.959 35.8337C120.959 36.4587 120.686 37.0003 120.266 37.2712C119.868 37.5212 119.322 37.5212 119.029 37.5212H118.231V39.6253H117.057V34.2295ZM118.231 36.667H118.693C119.071 36.667 119.784 36.667 119.784 35.8337C119.784 35.1045 119.154 35.1045 118.819 35.1045H118.231V36.667Z" fill="#D20A11"/>
<path d="M121.756 34.2295H125.406V35.1253H122.931V36.417H125.259V37.292H122.931V38.7503H125.49V39.6462H121.756V34.2295Z" fill="#D20A11"/>
<path d="M38.935 0.229492H1.09082V28.7712H38.935V0.229492Z" fill="#D20A11"/>
<path d="M11.7687 23.3125V25.2708H4.59424V15.75H11.6009V17.7917H7.69897V19.5417H11.433V21.4375H7.69897V23.3125H11.7687Z" fill="white"/>
<path d="M38.3476 28.1465H34.9492L1.67822 4.70898V0.833984H5.55914L38.3476 23.9382V28.1465Z" fill="white"/>
<path d="M36.9841 6.22982H33.3339V2.58398H29.8726V6.22982H26.2224V9.66732H29.8726V13.2923H33.3339V9.66732H36.9841V6.22982Z" fill="white"/>
</svg>
