<svg width="24" height="24" viewBox="0 0 24 24" fill="none" xmlns="http://www.w3.org/2000/svg">
<path d="M12.0002 0.381836C12.9425 0.381774 13.8492 0.742309 14.5341 1.38948C15.2191 2.03665 15.6304 2.9214 15.6838 3.86222L15.6894 4.07109H21.649C21.8647 4.07116 22.0723 4.1531 22.23 4.30036C22.3876 4.44762 22.4834 4.64922 22.4981 4.86443C22.5128 5.07963 22.4453 5.29239 22.3092 5.45972C22.173 5.62705 21.9785 5.73647 21.7648 5.76588L21.649 5.77382H20.7454L19.2924 20.5535C19.2196 21.2904 18.8873 21.9773 18.3548 22.4918C17.8222 23.0062 17.1242 23.3146 16.3853 23.3619L16.1855 23.3687H7.81487C7.07413 23.3687 6.35755 23.1053 5.79316 22.6255C5.22878 22.1458 4.85338 21.481 4.73406 20.7499L4.70795 20.5524L3.25381 5.77382H2.35137C2.14563 5.77381 1.94686 5.69931 1.79181 5.56408C1.63676 5.42886 1.53593 5.24206 1.50795 5.03824L1.5 4.92246C1.50001 4.71672 1.57451 4.51795 1.70974 4.3629C1.84496 4.20785 2.03176 4.10701 2.23558 4.07904L2.35137 4.07109H8.31093C8.31093 3.09264 8.69962 2.15426 9.39149 1.46239C10.0834 0.770524 11.0217 0.381836 12.0002 0.381836ZM19.0347 5.77382H4.96449L6.40273 20.3855C6.43458 20.7116 6.57826 21.0165 6.80937 21.2487C7.04049 21.4808 7.34482 21.6259 7.6707 21.6592L7.81487 21.666H16.1855C16.8666 21.666 17.4444 21.1835 17.5761 20.5286L17.5988 20.3855L19.0336 5.77382H19.0347ZM13.9867 8.8955C14.1924 8.89551 14.3912 8.97001 14.5463 9.10524C14.7013 9.24046 14.8021 9.42726 14.8301 9.63108L14.8381 9.74686V17.6929C14.838 17.9087 14.7561 18.1163 14.6088 18.2739C14.4615 18.4315 14.2599 18.5274 14.0447 18.5421C13.8295 18.5568 13.6168 18.4892 13.4494 18.3531C13.2821 18.217 13.1727 18.0224 13.1433 17.8087L13.1353 17.6929V9.74686C13.1353 9.52107 13.225 9.30452 13.3847 9.14486C13.5444 8.9852 13.7609 8.8955 13.9867 8.8955ZM10.0137 8.8955C10.2194 8.89551 10.4182 8.97001 10.5732 9.10524C10.7283 9.24046 10.8291 9.42726 10.8571 9.63108L10.865 9.74686V17.6929C10.865 17.9087 10.783 18.1163 10.6358 18.2739C10.4885 18.4315 10.2869 18.5274 10.0717 18.5421C9.85649 18.5568 9.64372 18.4892 9.47639 18.3531C9.30906 18.217 9.19964 18.0224 9.17024 17.8087L9.1623 17.6929V9.74686C9.1623 9.52107 9.25199 9.30452 9.41166 9.14486C9.57132 8.9852 9.78787 8.8955 10.0137 8.8955ZM12.0002 2.08457C11.5016 2.08459 11.0213 2.27206 10.6546 2.60978C10.2878 2.9475 10.0615 3.41077 10.0205 3.90763L10.0137 4.07109H13.9867C13.9867 3.54423 13.7774 3.03895 13.4049 2.66641C13.0323 2.29386 12.527 2.08457 12.0002 2.08457Z" fill="#000345"/>
</svg>
