<svg width="16" height="16" viewBox="0 0 16 16" fill="none" xmlns="http://www.w3.org/2000/svg">
<path d="M6.57534 4.51086V3.30342C6.57534 2.00855 5.52188 0.955078 4.227 0.955078C2.93213 0.955078 1.87866 2.00855 1.87866 3.30342V4.51086L0 14.2187V15.0451H0.469656C1.13388 15.0451 1.48481 14.6941 1.74106 14.4379C1.97131 14.2076 2.08425 14.1058 2.34828 14.1058C2.61228 14.1058 2.72522 14.2075 2.95547 14.4379C3.21175 14.6941 3.56269 15.0451 4.22687 15.0451C4.89106 15.0451 5.24203 14.6941 5.49828 14.4379C5.72856 14.2076 5.8415 14.1058 6.10553 14.1058C6.36956 14.1058 6.48253 14.2076 6.71281 14.4379C6.96909 14.6941 7.32006 15.0451 7.98431 15.0451H8.45397V14.2187L6.57534 4.51086ZM2.818 3.30339C2.818 2.52645 3.45009 1.89439 4.227 1.89439C5.00394 1.89439 5.636 2.52648 5.636 3.30339V4.08617H2.818V3.30339ZM4.69669 5.02552V7.37386C4.69669 7.63283 4.486 7.84352 4.22703 7.84352C3.96806 7.84352 3.75738 7.63283 3.75738 7.37386V5.02552H4.69669ZM7.37706 13.7736C7.12078 13.5174 6.76981 13.1664 6.10559 13.1664C5.44137 13.1664 5.09044 13.5174 4.83419 13.7737C4.60391 14.004 4.49097 14.1058 4.22694 14.1058C3.96294 14.1058 3.85 14.004 3.61975 13.7737C3.36347 13.5174 3.01253 13.1664 2.34834 13.1664C1.68416 13.1664 1.33312 13.5174 1.07687 13.7737C1.06241 13.7881 1.04838 13.8021 1.03475 13.8156L2.73578 5.02555H2.81797V7.37389C2.81797 8.1508 3.45006 8.78289 4.22697 8.78289C5.00391 8.78289 5.63597 8.1508 5.63597 7.37389V5.02555H5.71816L7.41919 13.8156C7.40559 13.8021 7.39156 13.7881 7.37706 13.7736Z" fill="#0059DE"/>
<path d="M15.5303 0.955078C14.8661 0.955078 14.5152 1.30605 14.2589 1.56233C14.0287 1.79261 13.9157 1.89442 13.6517 1.89442C13.3877 1.89442 13.2748 1.79264 13.0445 1.56233C12.7882 1.30605 12.4373 0.955078 11.7731 0.955078C11.1089 0.955078 10.758 1.30605 10.5017 1.56233C10.2714 1.79261 10.1585 1.89442 9.89447 1.89442C9.63041 1.89442 9.51747 1.79261 9.28716 1.5623C9.03091 1.30602 8.67994 0.955078 8.01572 0.955078H7.54606V1.78145L9.42472 11.4893V12.6968C9.42472 13.9916 10.4782 15.0451 11.7731 15.0451C13.0679 15.0451 14.1214 13.9916 14.1214 12.6968V11.4893L16 1.78142V0.955078H15.5303ZM13.182 12.6968C13.182 13.4737 12.5499 14.1058 11.773 14.1058C10.9961 14.1058 10.364 13.4737 10.364 12.6968V11.914H13.182V12.6968ZM11.3033 10.9746V8.6263C11.3033 8.36733 11.514 8.15664 11.773 8.15664C12.0319 8.15664 12.2426 8.36733 12.2426 8.6263V10.9746H11.3033ZM13.2642 10.9746H13.182V8.6263C13.182 7.84936 12.5499 7.2173 11.773 7.2173C10.9961 7.2173 10.364 7.84939 10.364 8.6263V10.9746H10.2818L8.58075 2.18458C8.59441 2.19805 8.60844 2.21205 8.62294 2.22655C8.87922 2.4828 9.23022 2.83377 9.89444 2.83377C10.5587 2.83377 10.9096 2.4828 11.1658 2.22652C11.3961 1.99623 11.5091 1.89442 11.7731 1.89442C12.0371 1.89442 12.15 1.9962 12.3803 2.22652C12.6366 2.4828 12.9875 2.83377 13.6517 2.83377C14.3159 2.83377 14.6669 2.4828 14.9231 2.22655C14.9376 2.21208 14.9516 2.19808 14.9652 2.18461L13.2642 10.9746Z" fill="#0059DE"/>
</svg>
