<svg width="73" height="62" viewBox="0 0 73 62" fill="none" xmlns="http://www.w3.org/2000/svg">
<path fill-rule="evenodd" clip-rule="evenodd" d="M42.6339 18.2383C43.115 19.7781 42.383 21.3611 40.9947 21.771L26.0113 26.1769C24.6229 26.5835 23.1074 25.6637 22.6263 24.1206C22.1451 22.5742 22.8806 20.9945 24.269 20.5879L39.2523 16.1787C40.6441 15.7688 42.1528 16.6919 42.6339 18.2383Z" fill="#FDC90D"/>
<path fill-rule="evenodd" clip-rule="evenodd" d="M42.6339 18.2383C43.115 19.7781 42.383 21.3611 40.9947 21.771L26.0113 26.1769C24.6229 26.5835 23.1074 25.6637 22.6263 24.1206C22.1451 22.5742 22.8806 20.9945 24.269 20.5879L39.2523 16.1787C40.6441 15.7688 42.1528 16.6919 42.6339 18.2383Z" fill="url(#paint0_linear_3978_52651)" fill-opacity="0.2"/>
<path fill-rule="evenodd" clip-rule="evenodd" d="M22.3823 22.9908L21.231 23.3241C20.6674 23.4907 20.3719 24.1306 20.5678 24.7572C20.7637 25.3804 21.3754 25.7503 21.9321 25.5837L23.0868 25.2437C22.8394 24.9438 22.64 24.5772 22.5129 24.1773C22.3857 23.7773 22.341 23.3774 22.3754 22.9908" fill="#FDC90D"/>
<path fill-rule="evenodd" clip-rule="evenodd" d="M22.3823 22.9908L21.231 23.3241C20.6674 23.4907 20.3719 24.1306 20.5678 24.7572C20.7637 25.3804 21.3754 25.7503 21.9321 25.5837L23.0868 25.2437C22.8394 24.9438 22.64 24.5772 22.5129 24.1773C22.3857 23.7773 22.341 23.3774 22.3754 22.9908" fill="url(#paint1_linear_3978_52651)" fill-opacity="0.2"/>
<path fill-rule="evenodd" clip-rule="evenodd" d="M23.3582 30.8627C23.3754 30.8194 23.4167 30.7961 23.4614 30.8027C23.5095 30.8194 23.5301 30.8694 23.5232 30.9027L23.2724 31.6926C23.2517 31.7359 23.2036 31.7592 23.1624 31.7426C23.1142 31.7326 23.0868 31.6859 23.104 31.6426L23.3582 30.8627Z" fill="#FDC90D"/>
<path fill-rule="evenodd" clip-rule="evenodd" d="M23.3582 30.8627C23.3754 30.8194 23.4167 30.7961 23.4614 30.8027C23.5095 30.8194 23.5301 30.8694 23.5232 30.9027L23.2724 31.6926C23.2517 31.7359 23.2036 31.7592 23.1624 31.7426C23.1142 31.7326 23.0868 31.6859 23.104 31.6426L23.3582 30.8627Z" fill="url(#paint2_linear_3978_52651)" fill-opacity="0.2"/>
<path fill-rule="evenodd" clip-rule="evenodd" d="M22.805 30.6461C22.8222 30.5994 22.8737 30.5794 22.9184 30.5994C22.9527 30.6161 22.9734 30.6661 22.9631 30.6994L22.6194 31.4526C22.5988 31.496 22.5404 31.5193 22.506 31.4926C22.4613 31.4793 22.4441 31.426 22.4648 31.3926L22.8015 30.6428" fill="#FDC90D"/>
<path fill-rule="evenodd" clip-rule="evenodd" d="M22.805 30.6461C22.8222 30.5994 22.8737 30.5794 22.9184 30.5994C22.9527 30.6161 22.9734 30.6661 22.9631 30.6994L22.6194 31.4526C22.5988 31.496 22.5404 31.5193 22.506 31.4926C22.4613 31.4793 22.4441 31.426 22.4648 31.3926L22.8015 30.6428" fill="url(#paint3_linear_3978_52651)" fill-opacity="0.2"/>
<path fill-rule="evenodd" clip-rule="evenodd" d="M22.2689 30.3695C22.2929 30.3295 22.3376 30.3128 22.3857 30.3362C22.4304 30.3595 22.4407 30.4095 22.4201 30.4495L22.0077 31.1627C21.9802 31.2027 21.9218 31.216 21.8874 31.1893C21.8427 31.1693 21.829 31.1227 21.853 31.0827L22.2723 30.3728" fill="#FDC90D"/>
<path fill-rule="evenodd" clip-rule="evenodd" d="M22.2689 30.3695C22.2929 30.3295 22.3376 30.3128 22.3857 30.3362C22.4304 30.3595 22.4407 30.4095 22.4201 30.4495L22.0077 31.1627C21.9802 31.2027 21.9218 31.216 21.8874 31.1893C21.8427 31.1693 21.829 31.1227 21.853 31.0827L22.2723 30.3728" fill="url(#paint4_linear_3978_52651)" fill-opacity="0.2"/>
<path fill-rule="evenodd" clip-rule="evenodd" d="M21.774 30.0495C21.7981 30.0096 21.8496 29.9996 21.8909 30.0262C21.9252 30.0529 21.9252 30.1029 21.9115 30.1429L21.4166 30.8094C21.3822 30.8427 21.3307 30.8527 21.2963 30.8261C21.262 30.7994 21.2517 30.7494 21.2792 30.7161L21.774 30.0495Z" fill="#FDC90D"/>
<path fill-rule="evenodd" clip-rule="evenodd" d="M21.774 30.0495C21.7981 30.0096 21.8496 29.9996 21.8909 30.0262C21.9252 30.0529 21.9252 30.1029 21.9115 30.1429L21.4166 30.8094C21.3822 30.8427 21.3307 30.8527 21.2963 30.8261C21.262 30.7994 21.2517 30.7494 21.2792 30.7161L21.774 30.0495Z" fill="url(#paint5_linear_3978_52651)" fill-opacity="0.2"/>
<path fill-rule="evenodd" clip-rule="evenodd" d="M21.3169 29.6863C21.341 29.6463 21.3926 29.643 21.4269 29.6729C21.4613 29.7063 21.4613 29.7596 21.4407 29.7929L20.8908 30.4128C20.8565 30.4461 20.7946 30.4461 20.7671 30.4128C20.7327 30.3895 20.7259 30.3362 20.7602 30.3062L21.3101 29.6896" fill="#FDC90D"/>
<path fill-rule="evenodd" clip-rule="evenodd" d="M21.3169 29.6863C21.341 29.6463 21.3926 29.643 21.4269 29.6729C21.4613 29.7063 21.4613 29.7596 21.4407 29.7929L20.8908 30.4128C20.8565 30.4461 20.7946 30.4461 20.7671 30.4128C20.7327 30.3895 20.7259 30.3362 20.7602 30.3062L21.3101 29.6896" fill="url(#paint6_linear_3978_52651)" fill-opacity="0.2"/>
<path fill-rule="evenodd" clip-rule="evenodd" d="M20.8908 29.283C20.9252 29.2497 20.9767 29.2497 21.0145 29.283C21.0489 29.3163 21.042 29.3697 21.0145 29.403L20.4028 29.9696C20.3685 30.0029 20.31 29.9962 20.2825 29.9696C20.2482 29.9362 20.2482 29.8796 20.2825 29.8529L20.8874 29.2863" fill="#FDC90D"/>
<path fill-rule="evenodd" clip-rule="evenodd" d="M20.8908 29.283C20.9252 29.2497 20.9767 29.2497 21.0145 29.283C21.0489 29.3163 21.042 29.3697 21.0145 29.403L20.4028 29.9696C20.3685 30.0029 20.31 29.9962 20.2825 29.9696C20.2482 29.9362 20.2482 29.8796 20.2825 29.8529L20.8874 29.2863" fill="url(#paint7_linear_3978_52651)" fill-opacity="0.2"/>
<path fill-rule="evenodd" clip-rule="evenodd" d="M20.5265 28.8598C20.5609 28.8264 20.609 28.8331 20.6434 28.8731C20.6674 28.9064 20.6606 28.9597 20.6296 28.9897L19.9698 29.4996C19.9286 29.533 19.877 29.5196 19.8495 29.4863C19.8152 29.453 19.8255 29.3997 19.8633 29.373L20.5231 28.8631" fill="#FDC90D"/>
<path fill-rule="evenodd" clip-rule="evenodd" d="M20.5265 28.8598C20.5609 28.8264 20.609 28.8331 20.6434 28.8731C20.6674 28.9064 20.6606 28.9597 20.6296 28.9897L19.9698 29.4996C19.9286 29.533 19.877 29.5196 19.8495 29.4863C19.8152 29.453 19.8255 29.3997 19.8633 29.373L20.5231 28.8631" fill="url(#paint8_linear_3978_52651)" fill-opacity="0.2"/>
<path fill-rule="evenodd" clip-rule="evenodd" d="M20.2001 28.4165C20.2413 28.3898 20.2963 28.3998 20.3204 28.4365C20.3444 28.4765 20.3307 28.5265 20.2963 28.5531L19.5952 29.0031C19.5437 29.0264 19.4921 29.0131 19.4715 28.9764C19.4372 28.9364 19.4543 28.8898 19.4921 28.8664L20.1966 28.4132" fill="#FDC90D"/>
<path fill-rule="evenodd" clip-rule="evenodd" d="M20.2001 28.4165C20.2413 28.3898 20.2963 28.3998 20.3204 28.4365C20.3444 28.4765 20.3307 28.5265 20.2963 28.5531L19.5952 29.0031C19.5437 29.0264 19.4921 29.0131 19.4715 28.9764C19.4372 28.9364 19.4543 28.8898 19.4921 28.8664L20.1966 28.4132" fill="url(#paint9_linear_3978_52651)" fill-opacity="0.2"/>
<path fill-rule="evenodd" clip-rule="evenodd" d="M19.9423 27.9633C19.9767 27.9366 20.0282 27.9533 20.0557 27.9966C20.0729 28.0299 20.0557 28.0832 20.0145 28.1066L19.2756 28.4932C19.231 28.5132 19.1725 28.4932 19.1588 28.4598C19.1416 28.4165 19.1588 28.3665 19.1931 28.3465L19.9492 27.9666" fill="#FDC90D"/>
<path fill-rule="evenodd" clip-rule="evenodd" d="M19.9423 27.9633C19.9767 27.9366 20.0282 27.9533 20.0557 27.9966C20.0729 28.0299 20.0557 28.0832 20.0145 28.1066L19.2756 28.4932C19.231 28.5132 19.1725 28.4932 19.1588 28.4598C19.1416 28.4165 19.1588 28.3665 19.1931 28.3465L19.9492 27.9666" fill="url(#paint10_linear_3978_52651)" fill-opacity="0.2"/>
<path fill-rule="evenodd" clip-rule="evenodd" d="M19.7292 27.5033C19.7739 27.4867 19.8255 27.5033 19.8427 27.55C19.8633 27.5933 19.8358 27.64 19.798 27.6566L19.0144 27.9633C18.9663 27.9832 18.9182 27.9633 18.901 27.9166C18.8839 27.8766 18.9079 27.8299 18.9492 27.8166L19.7327 27.5067" fill="#FDC90D"/>
<path fill-rule="evenodd" clip-rule="evenodd" d="M19.7292 27.5033C19.7739 27.4867 19.8255 27.5033 19.8427 27.55C19.8633 27.5933 19.8358 27.64 19.798 27.6566L19.0144 27.9633C18.9663 27.9832 18.9182 27.9633 18.901 27.9166C18.8839 27.8766 18.9079 27.8299 18.9492 27.8166L19.7327 27.5067" fill="url(#paint11_linear_3978_52651)" fill-opacity="0.2"/>
<path fill-rule="evenodd" clip-rule="evenodd" d="M19.5849 27.0601C19.633 27.0434 19.6743 27.0701 19.688 27.1167C19.7018 27.1601 19.6708 27.2034 19.6296 27.2167L18.8117 27.4367C18.767 27.4467 18.7189 27.42 18.7086 27.3767C18.6983 27.3334 18.7258 27.29 18.767 27.2767L19.578 27.0601" fill="#FDC90D"/>
<path fill-rule="evenodd" clip-rule="evenodd" d="M19.5849 27.0601C19.633 27.0434 19.6743 27.0701 19.688 27.1167C19.7018 27.1601 19.6708 27.2034 19.6296 27.2167L18.8117 27.4367C18.767 27.4467 18.7189 27.42 18.7086 27.3767C18.6983 27.3334 18.7258 27.29 18.767 27.2767L19.578 27.0601" fill="url(#paint12_linear_3978_52651)" fill-opacity="0.2"/>
<path fill-rule="evenodd" clip-rule="evenodd" d="M19.5024 26.6302C19.5471 26.6202 19.5918 26.6535 19.5987 26.6968C19.6056 26.7435 19.5746 26.7835 19.5299 26.7901L18.6949 26.9101C18.6433 26.9101 18.5986 26.8768 18.5918 26.8368C18.5849 26.7935 18.6261 26.7501 18.6674 26.7468L19.5024 26.6302Z" fill="#FDC90D"/>
<path fill-rule="evenodd" clip-rule="evenodd" d="M19.5024 26.6302C19.5471 26.6202 19.5918 26.6535 19.5987 26.6968C19.6056 26.7435 19.5746 26.7835 19.5299 26.7901L18.6949 26.9101C18.6433 26.9101 18.5986 26.8768 18.5918 26.8368C18.5849 26.7935 18.6261 26.7501 18.6674 26.7468L19.5024 26.6302Z" fill="url(#paint13_linear_3978_52651)" fill-opacity="0.2"/>
<path fill-rule="evenodd" clip-rule="evenodd" d="M19.4853 26.2269C19.5334 26.2269 19.5712 26.2602 19.5746 26.3069C19.5746 26.3569 19.5299 26.3902 19.4853 26.3935H18.6399C18.5918 26.3935 18.5574 26.3502 18.5574 26.3069C18.5574 26.2602 18.5986 26.2269 18.6433 26.2269H19.4921" fill="#FDC90D"/>
<path fill-rule="evenodd" clip-rule="evenodd" d="M19.4853 26.2269C19.5334 26.2269 19.5712 26.2602 19.5746 26.3069C19.5746 26.3569 19.5299 26.3902 19.4853 26.3935H18.6399C18.5918 26.3935 18.5574 26.3502 18.5574 26.3069C18.5574 26.2602 18.5986 26.2269 18.6433 26.2269H19.4921" fill="url(#paint14_linear_3978_52651)" fill-opacity="0.2"/>
<path fill-rule="evenodd" clip-rule="evenodd" d="M19.5299 25.8603C19.5815 25.867 19.609 25.9103 19.5987 25.9603C19.5987 26.0003 19.5437 26.0269 19.5024 26.0203L18.6777 25.8803C18.6261 25.8703 18.5952 25.8236 18.6089 25.7803C18.6089 25.737 18.6571 25.7137 18.7017 25.7137L19.5299 25.8603Z" fill="#FDC90D"/>
<path fill-rule="evenodd" clip-rule="evenodd" d="M19.5299 25.8603C19.5815 25.867 19.609 25.9103 19.5987 25.9603C19.5987 26.0003 19.5437 26.0269 19.5024 26.0203L18.6777 25.8803C18.6261 25.8703 18.5952 25.8236 18.6089 25.7803C18.6089 25.737 18.6571 25.7137 18.7017 25.7137L19.5299 25.8603Z" fill="url(#paint15_linear_3978_52651)" fill-opacity="0.2"/>
<path fill-rule="evenodd" clip-rule="evenodd" d="M19.6399 25.537C19.688 25.5537 19.7086 25.6037 19.6915 25.6437C19.6708 25.687 19.6227 25.7037 19.5815 25.6903L18.7911 25.3904C18.7499 25.3737 18.7292 25.3237 18.7464 25.2904C18.7636 25.2437 18.8151 25.2237 18.8564 25.2404L19.6399 25.537Z" fill="#FDC90D"/>
<path fill-rule="evenodd" clip-rule="evenodd" d="M19.6399 25.537C19.688 25.5537 19.7086 25.6037 19.6915 25.6437C19.6708 25.687 19.6227 25.7037 19.5815 25.6903L18.7911 25.3904C18.7499 25.3737 18.7292 25.3237 18.7464 25.2904C18.7636 25.2437 18.8151 25.2237 18.8564 25.2404L19.6399 25.537Z" fill="url(#paint16_linear_3978_52651)" fill-opacity="0.2"/>
<path fill-rule="evenodd" clip-rule="evenodd" d="M19.8152 25.2637C19.8564 25.2871 19.8598 25.3404 19.8358 25.3771C19.8014 25.4104 19.7533 25.4204 19.7121 25.4004L19.0144 24.9338C18.9801 24.9105 18.9663 24.8571 18.9938 24.8205C19.0179 24.7872 19.0729 24.7772 19.1107 24.8005L19.8152 25.2637Z" fill="#FDC90D"/>
<path fill-rule="evenodd" clip-rule="evenodd" d="M19.8152 25.2637C19.8564 25.2871 19.8598 25.3404 19.8358 25.3771C19.8014 25.4104 19.7533 25.4204 19.7121 25.4004L19.0144 24.9338C18.9801 24.9105 18.9663 24.8571 18.9938 24.8205C19.0179 24.7872 19.0729 24.7772 19.1107 24.8005L19.8152 25.2637Z" fill="url(#paint17_linear_3978_52651)" fill-opacity="0.2"/>
<path fill-rule="evenodd" clip-rule="evenodd" d="M20.0454 25.0304C20.0798 25.0638 20.0729 25.1138 20.0385 25.1471C20.0042 25.1804 19.9526 25.1738 19.9183 25.1404L19.3444 24.5405C19.31 24.5072 19.3203 24.4572 19.3512 24.4272C19.3856 24.3939 19.4372 24.4006 19.4646 24.4272L20.0489 25.0338" fill="#FDC90D"/>
<path fill-rule="evenodd" clip-rule="evenodd" d="M20.0454 25.0304C20.0798 25.0638 20.0729 25.1138 20.0385 25.1471C20.0042 25.1804 19.9526 25.1738 19.9183 25.1404L19.3444 24.5405C19.31 24.5072 19.3203 24.4572 19.3512 24.4272C19.3856 24.3939 19.4372 24.4006 19.4646 24.4272L20.0489 25.0338" fill="url(#paint18_linear_3978_52651)" fill-opacity="0.2"/>
<path fill-rule="evenodd" clip-rule="evenodd" d="M20.3444 24.8371C20.3719 24.8805 20.3547 24.9271 20.3169 24.9538C20.2654 24.9738 20.2138 24.9605 20.1966 24.9205L19.7705 24.2106C19.7499 24.1673 19.7705 24.1206 19.8049 24.094C19.8461 24.074 19.8976 24.094 19.9183 24.1273L20.3444 24.8371Z" fill="#FDC90D"/>
<path fill-rule="evenodd" clip-rule="evenodd" d="M20.3444 24.8371C20.3719 24.8805 20.3547 24.9271 20.3169 24.9538C20.2654 24.9738 20.2138 24.9605 20.1966 24.9205L19.7705 24.2106C19.7499 24.1673 19.7705 24.1206 19.8049 24.094C19.8461 24.074 19.8976 24.094 19.9183 24.1273L20.3444 24.8371Z" fill="url(#paint19_linear_3978_52651)" fill-opacity="0.2"/>
<path fill-rule="evenodd" clip-rule="evenodd" d="M20.7327 24.6905C20.7499 24.7338 20.719 24.7772 20.6777 24.7905C20.6331 24.8105 20.5884 24.7838 20.5746 24.7438L20.2997 23.964C20.2894 23.9173 20.3135 23.874 20.3582 23.8573C20.4028 23.844 20.451 23.8707 20.4613 23.9106L20.7362 24.6905" fill="#FDC90D"/>
<path fill-rule="evenodd" clip-rule="evenodd" d="M20.7327 24.6905C20.7499 24.7338 20.719 24.7772 20.6777 24.7905C20.6331 24.8105 20.5884 24.7838 20.5746 24.7438L20.2997 23.964C20.2894 23.9173 20.3135 23.874 20.3582 23.8573C20.4028 23.844 20.451 23.8707 20.4613 23.9106L20.7362 24.6905" fill="url(#paint20_linear_3978_52651)" fill-opacity="0.2"/>
<path fill-rule="evenodd" clip-rule="evenodd" d="M26.3 36.3018C26.2656 36.3417 26.214 36.3451 26.1762 36.3118C26.1487 36.2784 26.1522 36.2284 26.1762 36.1984L26.7604 35.5985C26.7948 35.5719 26.8567 35.5719 26.8773 35.6052C26.9185 35.6319 26.9185 35.6885 26.8773 35.7185L26.3 36.3018Z" fill="#FDC90D"/>
<path fill-rule="evenodd" clip-rule="evenodd" d="M26.3 36.3018C26.2656 36.3417 26.214 36.3451 26.1762 36.3118C26.1487 36.2784 26.1522 36.2284 26.1762 36.1984L26.7604 35.5985C26.7948 35.5719 26.8567 35.5719 26.8773 35.6052C26.9185 35.6319 26.9185 35.6885 26.8773 35.7185L26.3 36.3018Z" fill="url(#paint21_linear_3978_52651)" fill-opacity="0.2"/>
<path fill-rule="evenodd" clip-rule="evenodd" d="M26.6986 36.745C26.6642 36.7783 26.6092 36.7717 26.5749 36.735C26.5508 36.7017 26.5646 36.6517 26.5921 36.6217L27.245 36.1085C27.2862 36.0751 27.3481 36.0885 27.3653 36.1218C27.3996 36.1551 27.3928 36.2084 27.355 36.2351L26.702 36.745" fill="#FDC90D"/>
<path fill-rule="evenodd" clip-rule="evenodd" d="M26.6986 36.745C26.6642 36.7783 26.6092 36.7717 26.5749 36.735C26.5508 36.7017 26.5646 36.6517 26.5921 36.6217L27.245 36.1085C27.2862 36.0751 27.3481 36.0885 27.3653 36.1218C27.3996 36.1551 27.3928 36.2084 27.355 36.2351L26.702 36.745" fill="url(#paint22_linear_3978_52651)" fill-opacity="0.2"/>
<path fill-rule="evenodd" clip-rule="evenodd" d="M26.977 37.1583C26.9426 37.1849 26.891 37.1749 26.8601 37.1349C26.8395 37.0949 26.8601 37.045 26.8945 37.0216L27.6162 36.6017C27.6608 36.5784 27.7192 36.595 27.7296 36.635C27.7639 36.675 27.7467 36.7217 27.7055 36.7483L26.977 37.1583Z" fill="#FDC90D"/>
<path fill-rule="evenodd" clip-rule="evenodd" d="M26.977 37.1583C26.9426 37.1849 26.891 37.1749 26.8601 37.1349C26.8395 37.0949 26.8601 37.045 26.8945 37.0216L27.6162 36.6017C27.6608 36.5784 27.7192 36.595 27.7296 36.635C27.7639 36.675 27.7467 36.7217 27.7055 36.7483L26.977 37.1583Z" fill="url(#paint23_linear_3978_52651)" fill-opacity="0.2"/>
<path fill-rule="evenodd" clip-rule="evenodd" d="M27.1694 37.5682C27.1282 37.5849 27.0766 37.5682 27.0594 37.5215C27.0491 37.4815 27.0732 37.4315 27.1075 37.4149L27.8911 37.1083C27.9392 37.0916 27.9942 37.1149 28.0011 37.1549C28.0251 37.1983 28.001 37.2449 27.9564 37.2616L27.1763 37.5615" fill="#FDC90D"/>
<path fill-rule="evenodd" clip-rule="evenodd" d="M27.1694 37.5682C27.1282 37.5849 27.0766 37.5682 27.0594 37.5215C27.0491 37.4815 27.0732 37.4315 27.1075 37.4149L27.8911 37.1083C27.9392 37.0916 27.9942 37.1149 28.0011 37.1549C28.0251 37.1983 28.001 37.2449 27.9564 37.2616L27.1763 37.5615" fill="url(#paint24_linear_3978_52651)" fill-opacity="0.2"/>
<path fill-rule="evenodd" clip-rule="evenodd" d="M27.2828 37.9548C27.2381 37.9648 27.1969 37.9415 27.1797 37.8948C27.1694 37.8515 27.2038 37.8115 27.2416 37.7948L28.0663 37.6115C28.1145 37.6049 28.1626 37.6348 28.1694 37.6782C28.1832 37.7248 28.1523 37.7648 28.1007 37.7782L27.2828 37.9548Z" fill="#FDC90D"/>
<path fill-rule="evenodd" clip-rule="evenodd" d="M27.2828 37.9548C27.2381 37.9648 27.1969 37.9415 27.1797 37.8948C27.1694 37.8515 27.2038 37.8115 27.2416 37.7948L28.0663 37.6115C28.1145 37.6049 28.1626 37.6348 28.1694 37.6782C28.1832 37.7248 28.1523 37.7648 28.1007 37.7782L27.2828 37.9548Z" fill="url(#paint25_linear_3978_52651)" fill-opacity="0.2"/>
<path fill-rule="evenodd" clip-rule="evenodd" d="M27.3241 38.3281C27.2759 38.3347 27.2381 38.3014 27.2313 38.2547C27.2313 38.2081 27.2725 38.1714 27.3137 38.1681L28.1591 38.1181C28.2072 38.1181 28.2485 38.1514 28.245 38.1981C28.2554 38.2414 28.2175 38.2747 28.1694 38.2781L27.3275 38.3247" fill="#FDC90D"/>
<path fill-rule="evenodd" clip-rule="evenodd" d="M27.3241 38.3281C27.2759 38.3347 27.2381 38.3014 27.2313 38.2547C27.2313 38.2081 27.2725 38.1714 27.3137 38.1681L28.1591 38.1181C28.2072 38.1181 28.2485 38.1514 28.245 38.1981C28.2554 38.2414 28.2175 38.2747 28.1694 38.2781L27.3275 38.3247" fill="url(#paint26_linear_3978_52651)" fill-opacity="0.2"/>
<path fill-rule="evenodd" clip-rule="evenodd" d="M27.2965 38.6813C27.2553 38.6813 27.221 38.6413 27.2278 38.5913C27.2278 38.5513 27.2759 38.5247 27.3172 38.5247L28.1591 38.608C28.2107 38.608 28.245 38.658 28.2347 38.698C28.2347 38.7413 28.1901 38.7746 28.1454 38.7646L27.3034 38.678" fill="#FDC90D"/>
<path fill-rule="evenodd" clip-rule="evenodd" d="M27.2965 38.6813C27.2553 38.6813 27.221 38.6413 27.2278 38.5913C27.2278 38.5513 27.2759 38.5247 27.3172 38.5247L28.1591 38.608C28.2107 38.608 28.245 38.658 28.2347 38.698C28.2347 38.7413 28.1901 38.7746 28.1454 38.7646L27.3034 38.678" fill="url(#paint27_linear_3978_52651)" fill-opacity="0.2"/>
<path fill-rule="evenodd" clip-rule="evenodd" d="M27.2278 39.0179C27.1728 39.0046 27.1522 38.9613 27.1591 38.9179C27.1728 38.8713 27.2278 38.8513 27.2622 38.858L28.0801 39.0746C28.1248 39.0879 28.1557 39.1346 28.1351 39.1746C28.1282 39.2212 28.0801 39.2412 28.032 39.2346L27.2244 39.0179" fill="#FDC90D"/>
<path fill-rule="evenodd" clip-rule="evenodd" d="M27.2278 39.0179C27.1728 39.0046 27.1522 38.9613 27.1591 38.9179C27.1728 38.8713 27.2278 38.8513 27.2622 38.858L28.0801 39.0746C28.1248 39.0879 28.1557 39.1346 28.1351 39.1746C28.1282 39.2212 28.0801 39.2412 28.032 39.2346L27.2244 39.0179" fill="url(#paint28_linear_3978_52651)" fill-opacity="0.2"/>
<path fill-rule="evenodd" clip-rule="evenodd" d="M27.0904 39.3245C27.056 39.3112 27.0319 39.2579 27.056 39.2179C27.0697 39.1779 27.1247 39.1646 27.1591 39.1779L27.9323 39.5112C27.977 39.5345 27.9942 39.5878 27.9735 39.6245C27.9564 39.6678 27.9048 39.6811 27.8601 39.6645L27.0938 39.3212" fill="#FDC90D"/>
<path fill-rule="evenodd" clip-rule="evenodd" d="M27.0904 39.3245C27.056 39.3112 27.0319 39.2579 27.056 39.2179C27.0697 39.1779 27.1247 39.1646 27.1591 39.1779L27.9323 39.5112C27.977 39.5345 27.9942 39.5878 27.9735 39.6245C27.9564 39.6678 27.9048 39.6811 27.8601 39.6645L27.0938 39.3212" fill="url(#paint29_linear_3978_52651)" fill-opacity="0.2"/>
<path fill-rule="evenodd" clip-rule="evenodd" d="M26.9185 39.6078C26.8773 39.5845 26.867 39.5345 26.891 39.4945C26.9185 39.4545 26.9735 39.4512 27.0113 39.4712L27.7158 39.9211C27.7571 39.9544 27.7674 40.0044 27.7399 40.0377C27.7124 40.0777 27.6574 40.0877 27.623 40.0611L26.9151 39.6112" fill="#FDC90D"/>
<path fill-rule="evenodd" clip-rule="evenodd" d="M26.9185 39.6078C26.8773 39.5845 26.867 39.5345 26.891 39.4945C26.9185 39.4545 26.9735 39.4512 27.0113 39.4712L27.7158 39.9211C27.7571 39.9544 27.7674 40.0044 27.7399 40.0377C27.7124 40.0777 27.6574 40.0877 27.623 40.0611L26.9151 39.6112" fill="url(#paint30_linear_3978_52651)" fill-opacity="0.2"/>
<path fill-rule="evenodd" clip-rule="evenodd" d="M26.7055 39.8578C26.6642 39.8245 26.6642 39.7778 26.6951 39.7411C26.7295 39.7078 26.7811 39.7078 26.8154 39.7411L27.4443 40.281C27.4787 40.3144 27.4855 40.371 27.4512 40.3977C27.4168 40.431 27.3653 40.431 27.3344 40.3977L26.7089 39.8544" fill="#FDC90D"/>
<path fill-rule="evenodd" clip-rule="evenodd" d="M26.7055 39.8578C26.6642 39.8245 26.6642 39.7778 26.6951 39.7411C26.7295 39.7078 26.7811 39.7078 26.8154 39.7411L27.4443 40.281C27.4787 40.3144 27.4855 40.371 27.4512 40.3977C27.4168 40.431 27.3653 40.431 27.3344 40.3977L26.7089 39.8544" fill="url(#paint31_linear_3978_52651)" fill-opacity="0.2"/>
<path fill-rule="evenodd" clip-rule="evenodd" d="M26.4546 40.0677C26.4202 40.0344 26.4305 39.9878 26.4683 39.9544C26.5027 39.9278 26.5508 39.9378 26.5817 39.9711L27.1178 40.6043C27.1453 40.6376 27.1385 40.6943 27.1007 40.721C27.0663 40.7543 27.0147 40.741 26.9872 40.7076L26.4477 40.0744" fill="#FDC90D"/>
<path fill-rule="evenodd" clip-rule="evenodd" d="M26.4546 40.0677C26.4202 40.0344 26.4305 39.9878 26.4683 39.9544C26.5027 39.9278 26.5508 39.9378 26.5817 39.9711L27.1178 40.6043C27.1453 40.6376 27.1385 40.6943 27.1007 40.721C27.0663 40.7543 27.0147 40.741 26.9872 40.7076L26.4477 40.0744" fill="url(#paint32_linear_3978_52651)" fill-opacity="0.2"/>
<path fill-rule="evenodd" clip-rule="evenodd" d="M26.1762 40.2477C26.1522 40.2044 26.1659 40.1577 26.2106 40.1311C26.2518 40.1044 26.3 40.1211 26.324 40.1644L26.757 40.8643C26.7811 40.9043 26.7639 40.9576 26.7227 40.9742C26.6814 41.0009 26.6333 40.9842 26.6093 40.9476L26.1762 40.2477Z" fill="#FDC90D"/>
<path fill-rule="evenodd" clip-rule="evenodd" d="M26.1762 40.2477C26.1522 40.2044 26.1659 40.1577 26.2106 40.1311C26.2518 40.1044 26.3 40.1211 26.324 40.1644L26.757 40.8643C26.7811 40.9043 26.7639 40.9576 26.7227 40.9742C26.6814 41.0009 26.6333 40.9842 26.6093 40.9476L26.1762 40.2477Z" fill="url(#paint33_linear_3978_52651)" fill-opacity="0.2"/>
<path fill-rule="evenodd" clip-rule="evenodd" d="M25.8807 40.3744C25.8601 40.3344 25.8807 40.2844 25.9254 40.2677C25.9769 40.2477 26.0216 40.2744 26.0388 40.3144L26.3481 41.0742C26.3687 41.1176 26.3481 41.1675 26.3034 41.1809C26.2621 41.2009 26.214 41.1809 26.2003 41.1409L25.8807 40.3744Z" fill="#FDC90D"/>
<path fill-rule="evenodd" clip-rule="evenodd" d="M25.8807 40.3744C25.8601 40.3344 25.8807 40.2844 25.9254 40.2677C25.9769 40.2477 26.0216 40.2744 26.0388 40.3144L26.3481 41.0742C26.3687 41.1176 26.3481 41.1675 26.3034 41.1809C26.2621 41.2009 26.214 41.1809 26.2003 41.1409L25.8807 40.3744Z" fill="url(#paint34_linear_3978_52651)" fill-opacity="0.2"/>
<path fill-rule="evenodd" clip-rule="evenodd" d="M25.568 40.4543C25.5508 40.4077 25.5817 40.3644 25.6298 40.3544C25.6745 40.3477 25.7157 40.3744 25.726 40.421L25.9116 41.2209C25.9219 41.2675 25.8876 41.3075 25.8429 41.3209C25.8017 41.3275 25.7604 41.2975 25.7467 41.2542L25.568 40.4543Z" fill="#FDC90D"/>
<path fill-rule="evenodd" clip-rule="evenodd" d="M25.568 40.4543C25.5508 40.4077 25.5817 40.3644 25.6298 40.3544C25.6745 40.3477 25.7157 40.3744 25.726 40.421L25.9116 41.2209C25.9219 41.2675 25.8876 41.3075 25.8429 41.3209C25.8017 41.3275 25.7604 41.2975 25.7467 41.2542L25.568 40.4543Z" fill="url(#paint35_linear_3978_52651)" fill-opacity="0.2"/>
<path fill-rule="evenodd" clip-rule="evenodd" d="M25.2415 40.481C25.2346 40.4343 25.269 40.3977 25.3205 40.3943C25.3686 40.3943 25.403 40.4277 25.4064 40.4743L25.4477 41.2909C25.4477 41.3408 25.4133 41.3808 25.3686 41.3808C25.3171 41.3808 25.2793 41.3408 25.2793 41.3042L25.2381 40.4843" fill="#FDC90D"/>
<path fill-rule="evenodd" clip-rule="evenodd" d="M25.2415 40.481C25.2346 40.4343 25.269 40.3977 25.3205 40.3943C25.3686 40.3943 25.403 40.4277 25.4064 40.4743L25.4477 41.2909C25.4477 41.3408 25.4133 41.3808 25.3686 41.3808C25.3171 41.3808 25.2793 41.3408 25.2793 41.3042L25.2381 40.4843" fill="url(#paint36_linear_3978_52651)" fill-opacity="0.2"/>
<path fill-rule="evenodd" clip-rule="evenodd" d="M24.9116 40.4543C24.9116 40.4043 24.9563 40.381 25.0044 40.3877C25.0559 40.3877 25.08 40.431 25.0731 40.4777L24.97 41.2842C24.9631 41.3342 24.9185 41.3675 24.8772 41.3608C24.8291 41.3608 24.7982 41.3109 24.8016 41.2709L24.9116 40.4577" fill="#FDC90D"/>
<path fill-rule="evenodd" clip-rule="evenodd" d="M24.9116 40.4543C24.9116 40.4043 24.9563 40.381 25.0044 40.3877C25.0559 40.3877 25.08 40.431 25.0731 40.4777L24.97 41.2842C24.9631 41.3342 24.9185 41.3675 24.8772 41.3608C24.8291 41.3608 24.7982 41.3109 24.8016 41.2709L24.9116 40.4577" fill="url(#paint37_linear_3978_52651)" fill-opacity="0.2"/>
<path fill-rule="evenodd" clip-rule="evenodd" d="M24.5817 40.3677C24.5885 40.3244 24.6366 40.301 24.6848 40.3144C24.726 40.3277 24.7466 40.3744 24.7329 40.4143L24.4855 41.1942C24.4751 41.2475 24.4167 41.2675 24.3824 41.2542C24.3343 41.2409 24.3136 41.1942 24.3239 41.1542L24.5817 40.3677Z" fill="#FDC90D"/>
<path fill-rule="evenodd" clip-rule="evenodd" d="M24.5817 40.3677C24.5885 40.3244 24.6366 40.301 24.6848 40.3144C24.726 40.3277 24.7466 40.3744 24.7329 40.4143L24.4855 41.1942C24.4751 41.2475 24.4167 41.2675 24.3824 41.2542C24.3343 41.2409 24.3136 41.1942 24.3239 41.1542L24.5817 40.3677Z" fill="url(#paint38_linear_3978_52651)" fill-opacity="0.2"/>
<path fill-rule="evenodd" clip-rule="evenodd" d="M24.238 40.221C24.2586 40.1711 24.3136 40.1644 24.3549 40.1811C24.3995 40.2044 24.4099 40.2477 24.3892 40.2944L24.0043 41.0209C23.9803 41.0642 23.9356 41.0809 23.8875 41.0542C23.8463 41.0409 23.836 40.9876 23.8531 40.9542L24.238 40.221Z" fill="#FDC90D"/>
<path fill-rule="evenodd" clip-rule="evenodd" d="M24.238 40.221C24.2586 40.1711 24.3136 40.1644 24.3549 40.1811C24.3995 40.2044 24.4099 40.2477 24.3892 40.2944L24.0043 41.0209C23.9803 41.0642 23.9356 41.0809 23.8875 41.0542C23.8463 41.0409 23.836 40.9876 23.8531 40.9542L24.238 40.221Z" fill="url(#paint39_linear_3978_52651)" fill-opacity="0.2"/>
<path fill-rule="evenodd" clip-rule="evenodd" d="M17.9147 39.8011L18.224 40.2944L19.688 40.1544L20.6571 39.9311L20.8908 39.4312L20.3753 38.1314L18.9938 37.5415L17.767 38.2647L17.9113 39.7978L17.9147 39.8011ZM18.0453 40.9676C17.9285 40.9676 17.8185 40.9076 17.7601 40.8076L17.2996 40.0744C17.2721 40.0344 17.2584 39.9878 17.255 39.9411L17.0831 38.1248C17.0728 38.0014 17.1347 37.8815 17.2446 37.8181L18.798 36.9016C18.8907 36.845 19.0041 36.835 19.1072 36.8816L20.7808 37.5949C20.8633 37.6282 20.9252 37.6948 20.9595 37.7782L21.5713 39.3245C21.5987 39.4045 21.5953 39.4912 21.5609 39.5712L21.2035 40.351C21.1623 40.441 21.0764 40.511 20.9733 40.5343L19.7946 40.7943L18.0763 40.9609H18.0419L18.0453 40.9676Z" fill="#FDC90D"/>
<path fill-rule="evenodd" clip-rule="evenodd" d="M17.9147 39.8011L18.224 40.2944L19.688 40.1544L20.6571 39.9311L20.8908 39.4312L20.3753 38.1314L18.9938 37.5415L17.767 38.2647L17.9113 39.7978L17.9147 39.8011ZM18.0453 40.9676C17.9285 40.9676 17.8185 40.9076 17.7601 40.8076L17.2996 40.0744C17.2721 40.0344 17.2584 39.9878 17.255 39.9411L17.0831 38.1248C17.0728 38.0014 17.1347 37.8815 17.2446 37.8181L18.798 36.9016C18.8907 36.845 19.0041 36.835 19.1072 36.8816L20.7808 37.5949C20.8633 37.6282 20.9252 37.6948 20.9595 37.7782L21.5713 39.3245C21.5987 39.4045 21.5953 39.4912 21.5609 39.5712L21.2035 40.351C21.1623 40.441 21.0764 40.511 20.9733 40.5343L19.7946 40.7943L18.0763 40.9609H18.0419L18.0453 40.9676Z" fill="url(#paint40_linear_3978_52651)" fill-opacity="0.2"/>
<path fill-rule="evenodd" clip-rule="evenodd" d="M18.279 37.5782L17.5024 30.1929C17.5024 30.1929 19.4818 29.9496 20.0454 30.0862V37.6848" fill="#FDC90D"/>
<path fill-rule="evenodd" clip-rule="evenodd" d="M18.279 37.5782L17.5024 30.1929C17.5024 30.1929 19.4818 29.9496 20.0454 30.0862V37.6848" fill="url(#paint41_linear_3978_52651)" fill-opacity="0.2"/>
<path fill-rule="evenodd" clip-rule="evenodd" d="M23.5026 41.7674C22.7672 41.7674 22.1417 41.3742 22.0592 41.3175L21.8187 41.1575L21.6365 40.0511L21.396 40.0177L21.5953 38.728L22.8119 38.9079L23.0455 40.3577C23.2517 40.441 23.5198 40.5077 23.6985 40.4243C23.8909 40.3377 24.0421 40.0477 24.1384 39.6112L23.4236 38.9713L23.348 38.0714C23.3342 37.9048 23.2655 36.525 24.1658 35.6452C24.5026 35.3119 25.1109 34.9253 26.1144 34.9787L26.3481 34.9853L26.5268 35.1386C26.5405 35.1553 28.2588 36.5984 30.1283 36.4984C32.0184 36.4051 33.5305 36.0085 33.7813 35.9318L40.7781 32.8657L41.3383 34.0488L34.2075 37.1716C34.1387 37.1949 32.4273 37.6848 30.1936 37.7981C28.2004 37.8981 26.4237 36.7183 25.8429 36.2784C25.5336 36.2951 25.293 36.3884 25.1212 36.5584C24.7088 36.9583 24.6676 37.7348 24.6813 37.9748L24.7157 38.3647L25.5577 39.1246L25.5164 39.4579C25.3858 40.5743 24.9597 41.3009 24.2621 41.6175C24.0078 41.7274 23.7535 41.7741 23.506 41.7741" fill="#FDC90D"/>
<path fill-rule="evenodd" clip-rule="evenodd" d="M23.5026 41.7674C22.7672 41.7674 22.1417 41.3742 22.0592 41.3175L21.8187 41.1575L21.6365 40.0511L21.396 40.0177L21.5953 38.728L22.8119 38.9079L23.0455 40.3577C23.2517 40.441 23.5198 40.5077 23.6985 40.4243C23.8909 40.3377 24.0421 40.0477 24.1384 39.6112L23.4236 38.9713L23.348 38.0714C23.3342 37.9048 23.2655 36.525 24.1658 35.6452C24.5026 35.3119 25.1109 34.9253 26.1144 34.9787L26.3481 34.9853L26.5268 35.1386C26.5405 35.1553 28.2588 36.5984 30.1283 36.4984C32.0184 36.4051 33.5305 36.0085 33.7813 35.9318L40.7781 32.8657L41.3383 34.0488L34.2075 37.1716C34.1387 37.1949 32.4273 37.6848 30.1936 37.7981C28.2004 37.8981 26.4237 36.7183 25.8429 36.2784C25.5336 36.2951 25.293 36.3884 25.1212 36.5584C24.7088 36.9583 24.6676 37.7348 24.6813 37.9748L24.7157 38.3647L25.5577 39.1246L25.5164 39.4579C25.3858 40.5743 24.9597 41.3009 24.2621 41.6175C24.0078 41.7274 23.7535 41.7741 23.506 41.7741" fill="url(#paint42_linear_3978_52651)" fill-opacity="0.2"/>
<path fill-rule="evenodd" clip-rule="evenodd" d="M70.0576 14.2257L67.1021 16.6153C64.0264 19.0049 62.4284 16.3487 62.4284 16.3487L60.2496 15.6921L46.9777 28.9431C46.9777 28.9431 54.9677 28.4765 57.5623 25.467C57.5623 25.467 59.3252 23.834 60.1638 19.9247C60.1638 19.9247 63.4044 19.5981 64.0814 19.5981C70.0542 19.5981 70.8927 17.1519 70.8927 17.1519L70.0542 14.2191" fill="#FDC90D"/>
<path fill-rule="evenodd" clip-rule="evenodd" d="M70.0576 14.2257L67.1021 16.6153C64.0264 19.0049 62.4284 16.3487 62.4284 16.3487L60.2496 15.6921L46.9777 28.9431C46.9777 28.9431 54.9677 28.4765 57.5623 25.467C57.5623 25.467 59.3252 23.834 60.1638 19.9247C60.1638 19.9247 63.4044 19.5981 64.0814 19.5981C70.0542 19.5981 70.8927 17.1519 70.8927 17.1519L70.0542 14.2191" fill="url(#paint43_linear_3978_52651)" fill-opacity="0.2"/>
<path fill-rule="evenodd" clip-rule="evenodd" d="M36.5993 42.4906C34.8913 42.4906 32.7229 42.2673 31.3826 41.2909C28.9873 39.5445 27.7192 36.715 27.6643 36.5917L28.2828 36.3351C28.2932 36.3684 29.5337 39.1346 31.7813 40.7676C33.9875 42.374 39.0221 41.6874 39.0771 41.6808L39.1698 42.3273C39.0667 42.3407 37.9842 42.494 36.5924 42.494" fill="#FDC90D"/>
<path fill-rule="evenodd" clip-rule="evenodd" d="M36.5993 42.4906C34.8913 42.4906 32.7229 42.2673 31.3826 41.2909C28.9873 39.5445 27.7192 36.715 27.6643 36.5917L28.2828 36.3351C28.2932 36.3684 29.5337 39.1346 31.7813 40.7676C33.9875 42.374 39.0221 41.6874 39.0771 41.6808L39.1698 42.3273C39.0667 42.3407 37.9842 42.494 36.5924 42.494" fill="url(#paint44_linear_3978_52651)" fill-opacity="0.2"/>
<path fill-rule="evenodd" clip-rule="evenodd" d="M37.5237 42.454C37.5237 42.454 38.7094 40.2944 40.5479 42.1674C42.3933 44.0404 37.5237 42.454 37.5237 42.454Z" fill="#FDC90D"/>
<path fill-rule="evenodd" clip-rule="evenodd" d="M37.5237 42.454C37.5237 42.454 38.7094 40.2944 40.5479 42.1674C42.3933 44.0404 37.5237 42.454 37.5237 42.454Z" fill="url(#paint45_linear_3978_52651)" fill-opacity="0.2"/>
<path fill-rule="evenodd" clip-rule="evenodd" d="M38.6509 24.3806C38.6509 24.3806 40.4586 25.1671 40.8847 26.6068L38.6509 24.3806Z" fill="#FDC90D"/>
<path fill-rule="evenodd" clip-rule="evenodd" d="M38.6509 24.3806C38.6509 24.3806 40.4586 25.1671 40.8847 26.6068L38.6509 24.3806Z" fill="url(#paint46_linear_3978_52651)" fill-opacity="0.2"/>
<path fill-rule="evenodd" clip-rule="evenodd" d="M72.9821 4.47415L72.7759 3.53098L71.9512 4.07089C69.0301 5.97054 65.456 8.06017 64.7756 8.11349C63.59 8.11349 60.418 8.34678 60.2806 8.36011L60.1878 8.37344C58.0297 8.85336 56.8372 9.62988 56.5451 10.753C56.2461 11.9028 57.0536 12.9126 57.4866 13.3525C57.3629 15.9521 55.5622 18.1683 54.9952 18.8016C52.27 19.0115 50.7854 20.9245 50.2012 21.891C44.9673 20.258 39.5135 23.1308 38.4654 23.724H33.4548L33.3689 23.7307C33.1284 23.7573 27.5955 24.4639 24.7501 25.9736C22.7706 27.0234 22.2517 28.9531 22.1383 30.2795C21.1864 29.6863 19.743 29.0131 18.2653 29.1897C17.0625 29.3297 16.0487 29.9796 15.2583 31.1227C14.8322 31.7559 14.217 33.7222 14.6741 35.6485C15.0109 37.0583 15.87 38.1914 17.1587 38.9246L17.8357 37.7915C16.8597 37.2416 16.2412 36.4184 15.9903 35.3519C15.6226 33.8255 16.1209 32.2258 16.3821 31.8459C16.9491 31.0227 17.6123 30.5794 18.4234 30.4795C20.3238 30.2562 22.3582 32.0558 22.3823 32.0725L23.7569 33.3056L23.5026 31.5059C23.5026 31.4726 23.0765 28.3398 25.3927 27.1167C27.8945 25.7903 32.9875 25.0904 33.503 25.0238H38.8434L39.0083 24.9238C39.0667 24.8838 45.0567 21.3244 50.2871 23.2908L50.8885 23.5174L51.1462 22.9408C51.1978 22.8275 52.404 20.1747 55.3285 20.0747L55.5966 20.068L55.7821 19.878C55.9059 19.7547 58.8235 16.7953 58.8235 13.0726V12.7727L58.5933 12.5794C58.3939 12.4127 57.6826 11.6562 57.8372 11.0596C57.9231 10.7264 58.3767 10.1065 60.4318 9.64322C60.8442 9.60989 63.7171 9.40992 64.7722 9.40992C65.6382 9.40992 68.164 7.97018 70.2878 6.66375C69.6074 7.38362 68.5867 8.30679 67.0575 9.45658C66.8753 9.58989 66.7585 9.67654 66.7138 9.70321L66.3874 9.94983L66.4904 10.6997L66.8444 10.8463C67.109 10.9463 67.2705 10.913 67.5317 10.7464C67.6279 10.6797 67.7379 10.593 67.8754 10.4897C72.9958 6.65709 73.0749 4.91407 72.9821 4.47081" fill="#FDC90D"/>
<path fill-rule="evenodd" clip-rule="evenodd" d="M72.9821 4.47415L72.7759 3.53098L71.9512 4.07089C69.0301 5.97054 65.456 8.06017 64.7756 8.11349C63.59 8.11349 60.418 8.34678 60.2806 8.36011L60.1878 8.37344C58.0297 8.85336 56.8372 9.62988 56.5451 10.753C56.2461 11.9028 57.0536 12.9126 57.4866 13.3525C57.3629 15.9521 55.5622 18.1683 54.9952 18.8016C52.27 19.0115 50.7854 20.9245 50.2012 21.891C44.9673 20.258 39.5135 23.1308 38.4654 23.724H33.4548L33.3689 23.7307C33.1284 23.7573 27.5955 24.4639 24.7501 25.9736C22.7706 27.0234 22.2517 28.9531 22.1383 30.2795C21.1864 29.6863 19.743 29.0131 18.2653 29.1897C17.0625 29.3297 16.0487 29.9796 15.2583 31.1227C14.8322 31.7559 14.217 33.7222 14.6741 35.6485C15.0109 37.0583 15.87 38.1914 17.1587 38.9246L17.8357 37.7915C16.8597 37.2416 16.2412 36.4184 15.9903 35.3519C15.6226 33.8255 16.1209 32.2258 16.3821 31.8459C16.9491 31.0227 17.6123 30.5794 18.4234 30.4795C20.3238 30.2562 22.3582 32.0558 22.3823 32.0725L23.7569 33.3056L23.5026 31.5059C23.5026 31.4726 23.0765 28.3398 25.3927 27.1167C27.8945 25.7903 32.9875 25.0904 33.503 25.0238H38.8434L39.0083 24.9238C39.0667 24.8838 45.0567 21.3244 50.2871 23.2908L50.8885 23.5174L51.1462 22.9408C51.1978 22.8275 52.404 20.1747 55.3285 20.0747L55.5966 20.068L55.7821 19.878C55.9059 19.7547 58.8235 16.7953 58.8235 13.0726V12.7727L58.5933 12.5794C58.3939 12.4127 57.6826 11.6562 57.8372 11.0596C57.9231 10.7264 58.3767 10.1065 60.4318 9.64322C60.8442 9.60989 63.7171 9.40992 64.7722 9.40992C65.6382 9.40992 68.164 7.97018 70.2878 6.66375C69.6074 7.38362 68.5867 8.30679 67.0575 9.45658C66.8753 9.58989 66.7585 9.67654 66.7138 9.70321L66.3874 9.94983L66.4904 10.6997L66.8444 10.8463C67.109 10.9463 67.2705 10.913 67.5317 10.7464C67.6279 10.6797 67.7379 10.593 67.8754 10.4897C72.9958 6.65709 73.0749 4.91407 72.9821 4.47081" fill="url(#paint47_linear_3978_52651)" fill-opacity="0.2"/>
<path fill-rule="evenodd" clip-rule="evenodd" d="M44.0154 31.2693L43.2593 30.1929L45.6718 28.6065C50.3249 26.8401 53.0398 24.7338 53.3765 24.4639L57.631 19.6381L61.2188 11.2796L61.9404 11.023C62.6003 10.963 63.4285 10.5297 63.968 10.2464C64.346 10.0465 64.5797 9.9265 64.8031 9.88984L67.1262 9.50657L67.3564 10.7897L65.0299 11.1729C65.0024 11.1863 64.7894 11.3062 64.6072 11.3929C64.0024 11.7095 63.1089 12.1794 62.236 12.3027L58.7204 20.4013L54.2872 25.4137C54.1738 25.5137 51.3765 27.8233 46.232 29.7929L44.0154 31.2593" fill="#FDC90D"/>
<path fill-rule="evenodd" clip-rule="evenodd" d="M44.0154 31.2693L43.2593 30.1929L45.6718 28.6065C50.3249 26.8401 53.0398 24.7338 53.3765 24.4639L57.631 19.6381L61.2188 11.2796L61.9404 11.023C62.6003 10.963 63.4285 10.5297 63.968 10.2464C64.346 10.0465 64.5797 9.9265 64.8031 9.88984L67.1262 9.50657L67.3564 10.7897L65.0299 11.1729C65.0024 11.1863 64.7894 11.3062 64.6072 11.3929C64.0024 11.7095 63.1089 12.1794 62.236 12.3027L58.7204 20.4013L54.2872 25.4137C54.1738 25.5137 51.3765 27.8233 46.232 29.7929L44.0154 31.2593" fill="url(#paint48_linear_3978_52651)" fill-opacity="0.2"/>
<path fill-rule="evenodd" clip-rule="evenodd" d="M52.1772 37.8515C52.1772 42.2007 49.0499 40.4043 49.0499 40.4043L47.366 38.6713C47.366 38.6713 41.517 34.1155 40.1389 33.9888C37.2007 33.7289 33.1524 31.0027 30.6059 32.0425C30.386 32.1358 30.1764 32.2158 29.9702 32.2858C24.9734 34.0455 24.4545 30.6328 24.4545 30.6328C24.4545 30.6328 24.0078 27.1601 30.8293 27.0501C37.6474 26.9368 44.2388 30.7361 44.2388 30.7361L48.3763 37.035C48.3763 37.035 49.9434 37.2016 50.3902 38.3947C50.3902 38.3947 52.1772 36.8717 52.1772 37.8515Z" fill="#FDC90D"/>
<path fill-rule="evenodd" clip-rule="evenodd" d="M52.1772 37.8515C52.1772 42.2007 49.0499 40.4043 49.0499 40.4043L47.366 38.6713C47.366 38.6713 41.517 34.1155 40.1389 33.9888C37.2007 33.7289 33.1524 31.0027 30.6059 32.0425C30.386 32.1358 30.1764 32.2158 29.9702 32.2858C24.9734 34.0455 24.4545 30.6328 24.4545 30.6328C24.4545 30.6328 24.0078 27.1601 30.8293 27.0501C37.6474 26.9368 44.2388 30.7361 44.2388 30.7361L48.3763 37.035C48.3763 37.035 49.9434 37.2016 50.3902 38.3947C50.3902 38.3947 52.1772 36.8717 52.1772 37.8515Z" fill="url(#paint49_linear_3978_52651)" fill-opacity="0.2"/>
<path fill-rule="evenodd" clip-rule="evenodd" d="M72.5044 4.93073C72.5044 4.93073 66.1296 9.08665 64.9612 9.08665C63.7824 9.08665 60.5177 9.32994 60.5177 9.32994C54.9849 10.5531 58.3355 13.4025 58.3355 13.4025C58.3355 16.9019 55.4832 19.7547 55.4832 19.7547C52.081 19.8614 50.7063 23.0141 50.7063 23.0141C45.091 20.8945 38.8331 24.6972 38.8331 24.6972H33.6336C33.6336 24.6972 28.0148 25.397 25.2484 26.8634C22.4854 28.3299 23.0146 31.9159 23.0146 31.9159C23.0146 31.9159 18.633 27.9733 16.004 31.8092C15.4542 32.6024 14.3957 36.575 17.4543 38.5314L17.4199 38.0914L18.9663 37.1749L20.6434 37.8881L21.2516 39.4345L21.1932 39.5678L21.6812 39.6878L22.4029 39.8011L22.3513 41.4275C22.3513 41.4275 24.6985 42.4606 25.0319 39.6878L24.2518 38.9879L24.1933 38.3347C24.1933 38.3347 24.0215 35.8352 26.2621 35.9418C26.2621 35.9418 28.1626 37.5749 30.3413 37.4649C32.5201 37.3482 34.1972 36.865 34.1972 36.865L41.2421 33.7655L44.3109 30.7794L46.0979 29.5296C51.239 27.5733 54.0364 25.2371 54.0364 25.2371L58.3974 20.3046L61.9198 12.0994L62.1947 11.9928C63.3735 11.8828 64.7722 10.9063 65.1055 10.8497L67.4286 10.4664L67.652 10.2998C72.8412 6.4138 72.5147 4.93406 72.5147 4.93406" fill="#FDC90D"/>
<path fill-rule="evenodd" clip-rule="evenodd" d="M72.5044 4.93073C72.5044 4.93073 66.1296 9.08665 64.9612 9.08665C63.7824 9.08665 60.5177 9.32994 60.5177 9.32994C54.9849 10.5531 58.3355 13.4025 58.3355 13.4025C58.3355 16.9019 55.4832 19.7547 55.4832 19.7547C52.081 19.8614 50.7063 23.0141 50.7063 23.0141C45.091 20.8945 38.8331 24.6972 38.8331 24.6972H33.6336C33.6336 24.6972 28.0148 25.397 25.2484 26.8634C22.4854 28.3299 23.0146 31.9159 23.0146 31.9159C23.0146 31.9159 18.633 27.9733 16.004 31.8092C15.4542 32.6024 14.3957 36.575 17.4543 38.5314L17.4199 38.0914L18.9663 37.1749L20.6434 37.8881L21.2516 39.4345L21.1932 39.5678L21.6812 39.6878L22.4029 39.8011L22.3513 41.4275C22.3513 41.4275 24.6985 42.4606 25.0319 39.6878L24.2518 38.9879L24.1933 38.3347C24.1933 38.3347 24.0215 35.8352 26.2621 35.9418C26.2621 35.9418 28.1626 37.5749 30.3413 37.4649C32.5201 37.3482 34.1972 36.865 34.1972 36.865L41.2421 33.7655L44.3109 30.7794L46.0979 29.5296C51.239 27.5733 54.0364 25.2371 54.0364 25.2371L58.3974 20.3046L61.9198 12.0994L62.1947 11.9928C63.3735 11.8828 64.7722 10.9063 65.1055 10.8497L67.4286 10.4664L67.652 10.2998C72.8412 6.4138 72.5147 4.93406 72.5147 4.93406" fill="url(#paint50_linear_3978_52651)" fill-opacity="0.2"/>
<path fill-rule="evenodd" clip-rule="evenodd" d="M56.5485 36.3251C53.923 47.5031 43.6133 55.8682 31.331 55.8682C17.0693 55.8682 5.46757 44.5936 5.46757 30.7328C5.46757 16.8752 17.0693 5.59728 31.331 5.59728C36.967 5.59728 42.1906 7.36363 46.445 10.3498C47.3729 8.83336 48.4485 7.37029 49.7304 6.10719C44.5584 2.44118 38.2007 0.274902 31.331 0.274902C14.0555 0.274902 0 13.9391 0 30.7228C0 47.5131 14.0555 61.1739 31.331 61.1739C46.6718 61.1739 59.4764 50.3992 62.1466 36.2284C60.3046 36.4551 58.3527 36.3951 56.5519 36.3184" fill="#FDC90D"/>
<path fill-rule="evenodd" clip-rule="evenodd" d="M56.5485 36.3251C53.923 47.5031 43.6133 55.8682 31.331 55.8682C17.0693 55.8682 5.46757 44.5936 5.46757 30.7328C5.46757 16.8752 17.0693 5.59728 31.331 5.59728C36.967 5.59728 42.1906 7.36363 46.445 10.3498C47.3729 8.83336 48.4485 7.37029 49.7304 6.10719C44.5584 2.44118 38.2007 0.274902 31.331 0.274902C14.0555 0.274902 0 13.9391 0 30.7228C0 47.5131 14.0555 61.1739 31.331 61.1739C46.6718 61.1739 59.4764 50.3992 62.1466 36.2284C60.3046 36.4551 58.3527 36.3951 56.5519 36.3184" fill="url(#paint51_linear_3978_52651)" fill-opacity="0.2"/>
<defs>
<linearGradient id="paint0_linear_3978_52651" x1="36.5" y1="0.274902" x2="36.5" y2="61.1739" gradientUnits="userSpaceOnUse">
<stop offset="0.510417" stop-color="#DA0000" stop-opacity="0"/>
<stop offset="1" stop-color="#DA0000"/>
</linearGradient>
<linearGradient id="paint1_linear_3978_52651" x1="36.5" y1="0.274902" x2="36.5" y2="61.1739" gradientUnits="userSpaceOnUse">
<stop offset="0.510417" stop-color="#DA0000" stop-opacity="0"/>
<stop offset="1" stop-color="#DA0000"/>
</linearGradient>
<linearGradient id="paint2_linear_3978_52651" x1="36.5" y1="0.274902" x2="36.5" y2="61.1739" gradientUnits="userSpaceOnUse">
<stop offset="0.510417" stop-color="#DA0000" stop-opacity="0"/>
<stop offset="1" stop-color="#DA0000"/>
</linearGradient>
<linearGradient id="paint3_linear_3978_52651" x1="36.5" y1="0.274902" x2="36.5" y2="61.1739" gradientUnits="userSpaceOnUse">
<stop offset="0.510417" stop-color="#DA0000" stop-opacity="0"/>
<stop offset="1" stop-color="#DA0000"/>
</linearGradient>
<linearGradient id="paint4_linear_3978_52651" x1="36.5" y1="0.274902" x2="36.5" y2="61.1739" gradientUnits="userSpaceOnUse">
<stop offset="0.510417" stop-color="#DA0000" stop-opacity="0"/>
<stop offset="1" stop-color="#DA0000"/>
</linearGradient>
<linearGradient id="paint5_linear_3978_52651" x1="36.5" y1="0.274902" x2="36.5" y2="61.1739" gradientUnits="userSpaceOnUse">
<stop offset="0.510417" stop-color="#DA0000" stop-opacity="0"/>
<stop offset="1" stop-color="#DA0000"/>
</linearGradient>
<linearGradient id="paint6_linear_3978_52651" x1="36.5" y1="0.274902" x2="36.5" y2="61.1739" gradientUnits="userSpaceOnUse">
<stop offset="0.510417" stop-color="#DA0000" stop-opacity="0"/>
<stop offset="1" stop-color="#DA0000"/>
</linearGradient>
<linearGradient id="paint7_linear_3978_52651" x1="36.5" y1="0.274902" x2="36.5" y2="61.1739" gradientUnits="userSpaceOnUse">
<stop offset="0.510417" stop-color="#DA0000" stop-opacity="0"/>
<stop offset="1" stop-color="#DA0000"/>
</linearGradient>
<linearGradient id="paint8_linear_3978_52651" x1="36.5" y1="0.274902" x2="36.5" y2="61.1739" gradientUnits="userSpaceOnUse">
<stop offset="0.510417" stop-color="#DA0000" stop-opacity="0"/>
<stop offset="1" stop-color="#DA0000"/>
</linearGradient>
<linearGradient id="paint9_linear_3978_52651" x1="36.5" y1="0.274902" x2="36.5" y2="61.1739" gradientUnits="userSpaceOnUse">
<stop offset="0.510417" stop-color="#DA0000" stop-opacity="0"/>
<stop offset="1" stop-color="#DA0000"/>
</linearGradient>
<linearGradient id="paint10_linear_3978_52651" x1="36.5" y1="0.274902" x2="36.5" y2="61.1739" gradientUnits="userSpaceOnUse">
<stop offset="0.510417" stop-color="#DA0000" stop-opacity="0"/>
<stop offset="1" stop-color="#DA0000"/>
</linearGradient>
<linearGradient id="paint11_linear_3978_52651" x1="36.5" y1="0.274902" x2="36.5" y2="61.1739" gradientUnits="userSpaceOnUse">
<stop offset="0.510417" stop-color="#DA0000" stop-opacity="0"/>
<stop offset="1" stop-color="#DA0000"/>
</linearGradient>
<linearGradient id="paint12_linear_3978_52651" x1="36.5" y1="0.274902" x2="36.5" y2="61.1739" gradientUnits="userSpaceOnUse">
<stop offset="0.510417" stop-color="#DA0000" stop-opacity="0"/>
<stop offset="1" stop-color="#DA0000"/>
</linearGradient>
<linearGradient id="paint13_linear_3978_52651" x1="36.5" y1="0.274902" x2="36.5" y2="61.1739" gradientUnits="userSpaceOnUse">
<stop offset="0.510417" stop-color="#DA0000" stop-opacity="0"/>
<stop offset="1" stop-color="#DA0000"/>
</linearGradient>
<linearGradient id="paint14_linear_3978_52651" x1="36.5" y1="0.274902" x2="36.5" y2="61.1739" gradientUnits="userSpaceOnUse">
<stop offset="0.510417" stop-color="#DA0000" stop-opacity="0"/>
<stop offset="1" stop-color="#DA0000"/>
</linearGradient>
<linearGradient id="paint15_linear_3978_52651" x1="36.5" y1="0.274902" x2="36.5" y2="61.1739" gradientUnits="userSpaceOnUse">
<stop offset="0.510417" stop-color="#DA0000" stop-opacity="0"/>
<stop offset="1" stop-color="#DA0000"/>
</linearGradient>
<linearGradient id="paint16_linear_3978_52651" x1="36.5" y1="0.274902" x2="36.5" y2="61.1739" gradientUnits="userSpaceOnUse">
<stop offset="0.510417" stop-color="#DA0000" stop-opacity="0"/>
<stop offset="1" stop-color="#DA0000"/>
</linearGradient>
<linearGradient id="paint17_linear_3978_52651" x1="36.5" y1="0.274902" x2="36.5" y2="61.1739" gradientUnits="userSpaceOnUse">
<stop offset="0.510417" stop-color="#DA0000" stop-opacity="0"/>
<stop offset="1" stop-color="#DA0000"/>
</linearGradient>
<linearGradient id="paint18_linear_3978_52651" x1="36.5" y1="0.274902" x2="36.5" y2="61.1739" gradientUnits="userSpaceOnUse">
<stop offset="0.510417" stop-color="#DA0000" stop-opacity="0"/>
<stop offset="1" stop-color="#DA0000"/>
</linearGradient>
<linearGradient id="paint19_linear_3978_52651" x1="36.5" y1="0.274902" x2="36.5" y2="61.1739" gradientUnits="userSpaceOnUse">
<stop offset="0.510417" stop-color="#DA0000" stop-opacity="0"/>
<stop offset="1" stop-color="#DA0000"/>
</linearGradient>
<linearGradient id="paint20_linear_3978_52651" x1="36.5" y1="0.274902" x2="36.5" y2="61.1739" gradientUnits="userSpaceOnUse">
<stop offset="0.510417" stop-color="#DA0000" stop-opacity="0"/>
<stop offset="1" stop-color="#DA0000"/>
</linearGradient>
<linearGradient id="paint21_linear_3978_52651" x1="36.5" y1="0.274902" x2="36.5" y2="61.1739" gradientUnits="userSpaceOnUse">
<stop offset="0.510417" stop-color="#DA0000" stop-opacity="0"/>
<stop offset="1" stop-color="#DA0000"/>
</linearGradient>
<linearGradient id="paint22_linear_3978_52651" x1="36.5" y1="0.274902" x2="36.5" y2="61.1739" gradientUnits="userSpaceOnUse">
<stop offset="0.510417" stop-color="#DA0000" stop-opacity="0"/>
<stop offset="1" stop-color="#DA0000"/>
</linearGradient>
<linearGradient id="paint23_linear_3978_52651" x1="36.5" y1="0.274902" x2="36.5" y2="61.1739" gradientUnits="userSpaceOnUse">
<stop offset="0.510417" stop-color="#DA0000" stop-opacity="0"/>
<stop offset="1" stop-color="#DA0000"/>
</linearGradient>
<linearGradient id="paint24_linear_3978_52651" x1="36.5" y1="0.274902" x2="36.5" y2="61.1739" gradientUnits="userSpaceOnUse">
<stop offset="0.510417" stop-color="#DA0000" stop-opacity="0"/>
<stop offset="1" stop-color="#DA0000"/>
</linearGradient>
<linearGradient id="paint25_linear_3978_52651" x1="36.5" y1="0.274902" x2="36.5" y2="61.1739" gradientUnits="userSpaceOnUse">
<stop offset="0.510417" stop-color="#DA0000" stop-opacity="0"/>
<stop offset="1" stop-color="#DA0000"/>
</linearGradient>
<linearGradient id="paint26_linear_3978_52651" x1="36.5" y1="0.274902" x2="36.5" y2="61.1739" gradientUnits="userSpaceOnUse">
<stop offset="0.510417" stop-color="#DA0000" stop-opacity="0"/>
<stop offset="1" stop-color="#DA0000"/>
</linearGradient>
<linearGradient id="paint27_linear_3978_52651" x1="36.5" y1="0.274902" x2="36.5" y2="61.1739" gradientUnits="userSpaceOnUse">
<stop offset="0.510417" stop-color="#DA0000" stop-opacity="0"/>
<stop offset="1" stop-color="#DA0000"/>
</linearGradient>
<linearGradient id="paint28_linear_3978_52651" x1="36.5" y1="0.274902" x2="36.5" y2="61.1739" gradientUnits="userSpaceOnUse">
<stop offset="0.510417" stop-color="#DA0000" stop-opacity="0"/>
<stop offset="1" stop-color="#DA0000"/>
</linearGradient>
<linearGradient id="paint29_linear_3978_52651" x1="36.5" y1="0.274902" x2="36.5" y2="61.1739" gradientUnits="userSpaceOnUse">
<stop offset="0.510417" stop-color="#DA0000" stop-opacity="0"/>
<stop offset="1" stop-color="#DA0000"/>
</linearGradient>
<linearGradient id="paint30_linear_3978_52651" x1="36.5" y1="0.274902" x2="36.5" y2="61.1739" gradientUnits="userSpaceOnUse">
<stop offset="0.510417" stop-color="#DA0000" stop-opacity="0"/>
<stop offset="1" stop-color="#DA0000"/>
</linearGradient>
<linearGradient id="paint31_linear_3978_52651" x1="36.5" y1="0.274902" x2="36.5" y2="61.1739" gradientUnits="userSpaceOnUse">
<stop offset="0.510417" stop-color="#DA0000" stop-opacity="0"/>
<stop offset="1" stop-color="#DA0000"/>
</linearGradient>
<linearGradient id="paint32_linear_3978_52651" x1="36.5" y1="0.274902" x2="36.5" y2="61.1739" gradientUnits="userSpaceOnUse">
<stop offset="0.510417" stop-color="#DA0000" stop-opacity="0"/>
<stop offset="1" stop-color="#DA0000"/>
</linearGradient>
<linearGradient id="paint33_linear_3978_52651" x1="36.5" y1="0.274902" x2="36.5" y2="61.1739" gradientUnits="userSpaceOnUse">
<stop offset="0.510417" stop-color="#DA0000" stop-opacity="0"/>
<stop offset="1" stop-color="#DA0000"/>
</linearGradient>
<linearGradient id="paint34_linear_3978_52651" x1="36.5" y1="0.274902" x2="36.5" y2="61.1739" gradientUnits="userSpaceOnUse">
<stop offset="0.510417" stop-color="#DA0000" stop-opacity="0"/>
<stop offset="1" stop-color="#DA0000"/>
</linearGradient>
<linearGradient id="paint35_linear_3978_52651" x1="36.5" y1="0.274902" x2="36.5" y2="61.1739" gradientUnits="userSpaceOnUse">
<stop offset="0.510417" stop-color="#DA0000" stop-opacity="0"/>
<stop offset="1" stop-color="#DA0000"/>
</linearGradient>
<linearGradient id="paint36_linear_3978_52651" x1="36.5" y1="0.274902" x2="36.5" y2="61.1739" gradientUnits="userSpaceOnUse">
<stop offset="0.510417" stop-color="#DA0000" stop-opacity="0"/>
<stop offset="1" stop-color="#DA0000"/>
</linearGradient>
<linearGradient id="paint37_linear_3978_52651" x1="36.5" y1="0.274902" x2="36.5" y2="61.1739" gradientUnits="userSpaceOnUse">
<stop offset="0.510417" stop-color="#DA0000" stop-opacity="0"/>
<stop offset="1" stop-color="#DA0000"/>
</linearGradient>
<linearGradient id="paint38_linear_3978_52651" x1="36.5" y1="0.274902" x2="36.5" y2="61.1739" gradientUnits="userSpaceOnUse">
<stop offset="0.510417" stop-color="#DA0000" stop-opacity="0"/>
<stop offset="1" stop-color="#DA0000"/>
</linearGradient>
<linearGradient id="paint39_linear_3978_52651" x1="36.5" y1="0.274902" x2="36.5" y2="61.1739" gradientUnits="userSpaceOnUse">
<stop offset="0.510417" stop-color="#DA0000" stop-opacity="0"/>
<stop offset="1" stop-color="#DA0000"/>
</linearGradient>
<linearGradient id="paint40_linear_3978_52651" x1="36.5" y1="0.274902" x2="36.5" y2="61.1739" gradientUnits="userSpaceOnUse">
<stop offset="0.510417" stop-color="#DA0000" stop-opacity="0"/>
<stop offset="1" stop-color="#DA0000"/>
</linearGradient>
<linearGradient id="paint41_linear_3978_52651" x1="36.5" y1="0.274902" x2="36.5" y2="61.1739" gradientUnits="userSpaceOnUse">
<stop offset="0.510417" stop-color="#DA0000" stop-opacity="0"/>
<stop offset="1" stop-color="#DA0000"/>
</linearGradient>
<linearGradient id="paint42_linear_3978_52651" x1="36.5" y1="0.274902" x2="36.5" y2="61.1739" gradientUnits="userSpaceOnUse">
<stop offset="0.510417" stop-color="#DA0000" stop-opacity="0"/>
<stop offset="1" stop-color="#DA0000"/>
</linearGradient>
<linearGradient id="paint43_linear_3978_52651" x1="36.5" y1="0.274902" x2="36.5" y2="61.1739" gradientUnits="userSpaceOnUse">
<stop offset="0.510417" stop-color="#DA0000" stop-opacity="0"/>
<stop offset="1" stop-color="#DA0000"/>
</linearGradient>
<linearGradient id="paint44_linear_3978_52651" x1="36.5" y1="0.274902" x2="36.5" y2="61.1739" gradientUnits="userSpaceOnUse">
<stop offset="0.510417" stop-color="#DA0000" stop-opacity="0"/>
<stop offset="1" stop-color="#DA0000"/>
</linearGradient>
<linearGradient id="paint45_linear_3978_52651" x1="36.5" y1="0.274902" x2="36.5" y2="61.1739" gradientUnits="userSpaceOnUse">
<stop offset="0.510417" stop-color="#DA0000" stop-opacity="0"/>
<stop offset="1" stop-color="#DA0000"/>
</linearGradient>
<linearGradient id="paint46_linear_3978_52651" x1="36.5" y1="0.274902" x2="36.5" y2="61.1739" gradientUnits="userSpaceOnUse">
<stop offset="0.510417" stop-color="#DA0000" stop-opacity="0"/>
<stop offset="1" stop-color="#DA0000"/>
</linearGradient>
<linearGradient id="paint47_linear_3978_52651" x1="36.5" y1="0.274902" x2="36.5" y2="61.1739" gradientUnits="userSpaceOnUse">
<stop offset="0.510417" stop-color="#DA0000" stop-opacity="0"/>
<stop offset="1" stop-color="#DA0000"/>
</linearGradient>
<linearGradient id="paint48_linear_3978_52651" x1="36.5" y1="0.274902" x2="36.5" y2="61.1739" gradientUnits="userSpaceOnUse">
<stop offset="0.510417" stop-color="#DA0000" stop-opacity="0"/>
<stop offset="1" stop-color="#DA0000"/>
</linearGradient>
<linearGradient id="paint49_linear_3978_52651" x1="36.5" y1="0.274902" x2="36.5" y2="61.1739" gradientUnits="userSpaceOnUse">
<stop offset="0.510417" stop-color="#DA0000" stop-opacity="0"/>
<stop offset="1" stop-color="#DA0000"/>
</linearGradient>
<linearGradient id="paint50_linear_3978_52651" x1="36.5" y1="0.274902" x2="36.5" y2="61.1739" gradientUnits="userSpaceOnUse">
<stop offset="0.510417" stop-color="#DA0000" stop-opacity="0"/>
<stop offset="1" stop-color="#DA0000"/>
</linearGradient>
<linearGradient id="paint51_linear_3978_52651" x1="36.5" y1="0.274902" x2="36.5" y2="61.1739" gradientUnits="userSpaceOnUse">
<stop offset="0.510417" stop-color="#DA0000" stop-opacity="0"/>
<stop offset="1" stop-color="#DA0000"/>
</linearGradient>
</defs>
</svg>
