<svg width="270" height="80" viewBox="0 0 270 80" fill="none" xmlns="http://www.w3.org/2000/svg">
<path d="M0 0H270V60C270 71.0457 261.046 80 250 80H20C8.95431 80 0 71.0457 0 60V0Z" fill="#FDC90D"/>
<path fill-rule="evenodd" clip-rule="evenodd" d="M153.915 37.7491C154.11 38.3747 153.813 39.0179 153.248 39.1845L147.151 40.9747C146.586 41.1399 145.969 40.7662 145.773 40.1392C145.577 39.5109 145.877 38.869 146.442 38.7038L152.539 36.9122C153.105 36.7457 153.719 37.1208 153.915 37.7491Z" fill="#000345"/>
<path fill-rule="evenodd" clip-rule="evenodd" d="M145.674 39.6801L145.205 39.8155C144.976 39.8832 144.856 40.1432 144.936 40.3978C145.015 40.6511 145.264 40.8014 145.491 40.7337L145.961 40.5955C145.86 40.4737 145.779 40.3247 145.727 40.1622C145.675 39.9997 145.657 39.8372 145.671 39.6801" fill="#000345"/>
<path fill-rule="evenodd" clip-rule="evenodd" d="M146.071 42.8786C146.078 42.861 146.095 42.8516 146.113 42.8543C146.133 42.861 146.141 42.8813 146.138 42.8949L146.036 43.2158C146.028 43.2334 146.008 43.2429 145.991 43.2361C145.972 43.2321 145.961 43.2131 145.968 43.1955L146.071 42.8786Z" fill="#000345"/>
<path fill-rule="evenodd" clip-rule="evenodd" d="M145.846 42.7906C145.853 42.7717 145.874 42.7635 145.892 42.7717C145.906 42.7784 145.914 42.7987 145.91 42.8123L145.77 43.1183C145.762 43.1359 145.738 43.1454 145.724 43.1346C145.706 43.1292 145.699 43.1075 145.708 43.0939L145.845 42.7893" fill="#000345"/>
<path fill-rule="evenodd" clip-rule="evenodd" d="M145.628 42.6782C145.638 42.662 145.656 42.6552 145.675 42.6647C145.694 42.6742 145.698 42.6945 145.689 42.7107L145.522 43.0005C145.51 43.0168 145.487 43.0222 145.473 43.0113C145.454 43.0032 145.449 42.9843 145.459 42.968L145.629 42.6796" fill="#000345"/>
<path fill-rule="evenodd" clip-rule="evenodd" d="M145.426 42.5482C145.436 42.532 145.457 42.5279 145.474 42.5387C145.488 42.5496 145.488 42.5699 145.482 42.5861L145.281 42.857C145.267 42.8705 145.246 42.8746 145.232 42.8637C145.218 42.8529 145.214 42.8326 145.225 42.8191L145.426 42.5482Z" fill="#000345"/>
<path fill-rule="evenodd" clip-rule="evenodd" d="M145.24 42.4006C145.25 42.3844 145.271 42.383 145.285 42.3952C145.299 42.4087 145.299 42.4304 145.291 42.444L145.067 42.6958C145.053 42.7094 145.028 42.7094 145.017 42.6958C145.003 42.6863 145 42.6647 145.014 42.6525L145.238 42.402" fill="#000345"/>
<path fill-rule="evenodd" clip-rule="evenodd" d="M145.067 42.2368C145.081 42.2232 145.102 42.2232 145.117 42.2368C145.131 42.2503 145.129 42.272 145.117 42.2855L144.868 42.5157C144.855 42.5293 144.831 42.5266 144.82 42.5157C144.806 42.5022 144.806 42.4792 144.82 42.4683L145.066 42.2381" fill="#000345"/>
<path fill-rule="evenodd" clip-rule="evenodd" d="M144.919 42.0648C144.933 42.0512 144.952 42.054 144.966 42.0702C144.976 42.0837 144.973 42.1054 144.961 42.1176L144.692 42.3248C144.676 42.3383 144.655 42.3329 144.643 42.3194C144.629 42.3058 144.634 42.2842 144.649 42.2733L144.917 42.0661" fill="#000345"/>
<path fill-rule="evenodd" clip-rule="evenodd" d="M144.786 41.8847C144.803 41.8739 144.825 41.8779 144.835 41.8928C144.845 41.9091 144.839 41.9294 144.825 41.9402L144.54 42.123C144.519 42.1325 144.498 42.1271 144.49 42.1122C144.476 42.0959 144.483 42.077 144.498 42.0675L144.785 41.8833" fill="#000345"/>
<path fill-rule="evenodd" clip-rule="evenodd" d="M144.681 41.7005C144.695 41.6897 144.716 41.6965 144.727 41.7141C144.734 41.7276 144.727 41.7493 144.71 41.7587L144.41 41.9158C144.392 41.924 144.368 41.9158 144.362 41.9023C144.355 41.8847 144.362 41.8644 144.376 41.8562L144.684 41.7019" fill="#000345"/>
<path fill-rule="evenodd" clip-rule="evenodd" d="M144.594 41.5136C144.613 41.5069 144.634 41.5136 144.641 41.5326C144.649 41.5502 144.638 41.5692 144.622 41.5759L144.304 41.7005C144.284 41.7086 144.264 41.7005 144.257 41.6816C144.25 41.6653 144.26 41.6464 144.277 41.6409L144.596 41.515" fill="#000345"/>
<path fill-rule="evenodd" clip-rule="evenodd" d="M144.536 41.3335C144.555 41.3268 144.572 41.3376 144.578 41.3566C144.583 41.3742 144.571 41.3918 144.554 41.3972L144.221 41.4866C144.203 41.4906 144.183 41.4798 144.179 41.4622C144.175 41.4446 144.186 41.427 144.203 41.4216L144.533 41.3335" fill="#000345"/>
<path fill-rule="evenodd" clip-rule="evenodd" d="M144.502 41.1589C144.52 41.1548 144.538 41.1683 144.541 41.1859C144.544 41.2049 144.531 41.2212 144.513 41.2239L144.173 41.2726C144.153 41.2726 144.134 41.2591 144.132 41.2428C144.129 41.2252 144.146 41.2076 144.162 41.2063L144.502 41.1589Z" fill="#000345"/>
<path fill-rule="evenodd" clip-rule="evenodd" d="M144.495 40.995C144.515 40.995 144.53 41.0085 144.531 41.0275C144.531 41.0478 144.513 41.0614 144.495 41.0627H144.151C144.132 41.0627 144.118 41.0451 144.118 41.0275C144.118 41.0085 144.134 40.995 144.153 40.995H144.498" fill="#000345"/>
<path fill-rule="evenodd" clip-rule="evenodd" d="M144.513 40.846C144.534 40.8488 144.545 40.8664 144.541 40.8867C144.541 40.9029 144.519 40.9138 144.502 40.911L144.166 40.8542C144.146 40.8501 144.133 40.8312 144.139 40.8135C144.139 40.7959 144.158 40.7865 144.176 40.7865L144.513 40.846Z" fill="#000345"/>
<path fill-rule="evenodd" clip-rule="evenodd" d="M144.558 40.7147C144.578 40.7215 144.586 40.7418 144.579 40.758C144.571 40.7756 144.551 40.7824 144.534 40.777L144.213 40.6551C144.196 40.6483 144.187 40.628 144.194 40.6145C144.201 40.5955 144.222 40.5874 144.239 40.5942L144.558 40.7147Z" fill="#000345"/>
<path fill-rule="evenodd" clip-rule="evenodd" d="M144.629 40.6037C144.646 40.6131 144.648 40.6348 144.638 40.6497C144.624 40.6632 144.604 40.6673 144.587 40.6592L144.304 40.4696C144.29 40.4601 144.284 40.4384 144.295 40.4236C144.305 40.41 144.327 40.4059 144.343 40.4154L144.629 40.6037Z" fill="#000345"/>
<path fill-rule="evenodd" clip-rule="evenodd" d="M144.723 40.5089C144.737 40.5224 144.734 40.5427 144.72 40.5563C144.706 40.5698 144.685 40.5671 144.671 40.5536L144.438 40.3098C144.424 40.2963 144.428 40.2759 144.441 40.2638C144.455 40.2502 144.476 40.2529 144.487 40.2638L144.724 40.5102" fill="#000345"/>
<path fill-rule="evenodd" clip-rule="evenodd" d="M144.845 40.4303C144.856 40.4479 144.849 40.4669 144.834 40.4777C144.813 40.4858 144.792 40.4804 144.785 40.4642L144.611 40.1757C144.603 40.1581 144.611 40.1392 144.625 40.1283C144.642 40.1202 144.663 40.1283 144.671 40.1419L144.845 40.4303Z" fill="#000345"/>
<path fill-rule="evenodd" clip-rule="evenodd" d="M145.003 40.3707C145.01 40.3883 144.997 40.4059 144.98 40.4114C144.962 40.4195 144.944 40.4087 144.938 40.3924L144.827 40.0755C144.822 40.0566 144.832 40.039 144.85 40.0322C144.868 40.0268 144.888 40.0376 144.892 40.0539L145.004 40.3707" fill="#000345"/>
<path fill-rule="evenodd" clip-rule="evenodd" d="M147.268 45.0886C147.254 45.1049 147.233 45.1062 147.218 45.0927C147.207 45.0791 147.208 45.0588 147.218 45.0466L147.456 44.8029C147.47 44.7921 147.495 44.7921 147.503 44.8056C147.52 44.8164 147.52 44.8395 147.503 44.8516L147.268 45.0886Z" fill="#000345"/>
<path fill-rule="evenodd" clip-rule="evenodd" d="M147.43 45.2687C147.416 45.2823 147.394 45.2796 147.38 45.2647C147.37 45.2511 147.376 45.2308 147.387 45.2186L147.653 45.0101C147.669 44.9965 147.695 45.002 147.702 45.0155C147.716 45.029 147.713 45.0507 147.697 45.0615L147.432 45.2687" fill="#000345"/>
<path fill-rule="evenodd" clip-rule="evenodd" d="M147.544 45.4366C147.53 45.4475 147.509 45.4434 147.496 45.4272C147.488 45.4109 147.496 45.3906 147.51 45.3811L147.804 45.2105C147.822 45.201 147.846 45.2078 147.85 45.224C147.864 45.2403 147.857 45.2592 147.84 45.2701L147.544 45.4366Z" fill="#000345"/>
<path fill-rule="evenodd" clip-rule="evenodd" d="M147.622 45.6032C147.605 45.61 147.584 45.6032 147.577 45.5842C147.573 45.568 147.583 45.5477 147.597 45.5409L147.916 45.4163C147.935 45.4096 147.958 45.419 147.96 45.4353C147.97 45.4529 147.96 45.4718 147.942 45.4786L147.625 45.6005" fill="#000345"/>
<path fill-rule="evenodd" clip-rule="evenodd" d="M147.668 45.7603C147.65 45.7643 147.633 45.7549 147.626 45.7359C147.622 45.7183 147.636 45.7021 147.651 45.6953L147.987 45.6208C148.006 45.6181 148.026 45.6303 148.029 45.6479C148.034 45.6668 148.022 45.6831 148.001 45.6885L147.668 45.7603Z" fill="#000345"/>
<path fill-rule="evenodd" clip-rule="evenodd" d="M147.685 45.9119C147.665 45.9147 147.65 45.9011 147.647 45.8822C147.647 45.8632 147.664 45.8483 147.681 45.8469L148.025 45.8266C148.044 45.8266 148.061 45.8402 148.06 45.8591C148.064 45.8767 148.048 45.8903 148.029 45.8916L147.686 45.9106" fill="#000345"/>
<path fill-rule="evenodd" clip-rule="evenodd" d="M147.674 46.0555C147.657 46.0555 147.643 46.0392 147.646 46.0189C147.646 46.0027 147.665 45.9918 147.682 45.9918L148.025 46.0257C148.046 46.0257 148.06 46.046 148.055 46.0623C148.055 46.0799 148.037 46.0934 148.019 46.0893L147.676 46.0541" fill="#000345"/>
<path fill-rule="evenodd" clip-rule="evenodd" d="M147.646 46.1923C147.623 46.1868 147.615 46.1692 147.618 46.1516C147.623 46.1327 147.646 46.1245 147.66 46.1273L147.992 46.2153C148.011 46.2207 148.023 46.2397 148.015 46.2559C148.012 46.2749 147.992 46.283 147.973 46.2803L147.644 46.1923" fill="#000345"/>
<path fill-rule="evenodd" clip-rule="evenodd" d="M147.59 46.3168C147.576 46.3114 147.566 46.2898 147.576 46.2735C147.581 46.2573 147.604 46.2518 147.618 46.2573L147.932 46.3927C147.951 46.4022 147.958 46.4238 147.949 46.4387C147.942 46.4563 147.921 46.4617 147.903 46.455L147.591 46.3155" fill="#000345"/>
<path fill-rule="evenodd" clip-rule="evenodd" d="M147.52 46.4319C147.503 46.4225 147.499 46.4022 147.509 46.3859C147.52 46.3697 147.542 46.3683 147.558 46.3764L147.844 46.5592C147.861 46.5728 147.865 46.5931 147.854 46.6066C147.843 46.6229 147.821 46.6269 147.807 46.6161L147.518 46.4333" fill="#000345"/>
<path fill-rule="evenodd" clip-rule="evenodd" d="M147.433 46.5335C147.416 46.52 147.416 46.501 147.429 46.4861C147.443 46.4726 147.464 46.4726 147.478 46.4861L147.734 46.7055C147.748 46.719 147.751 46.742 147.737 46.7529C147.723 46.7664 147.702 46.7664 147.689 46.7529L147.435 46.5322" fill="#000345"/>
<path fill-rule="evenodd" clip-rule="evenodd" d="M147.331 46.6188C147.317 46.6053 147.321 46.5863 147.337 46.5728C147.351 46.5619 147.37 46.566 147.383 46.5795L147.601 46.8368C147.612 46.8504 147.609 46.8734 147.594 46.8842C147.58 46.8978 147.559 46.8924 147.548 46.8788L147.328 46.6215" fill="#000345"/>
<path fill-rule="evenodd" clip-rule="evenodd" d="M147.218 46.6919C147.208 46.6743 147.214 46.6554 147.232 46.6445C147.249 46.6337 147.268 46.6405 147.278 46.6581L147.454 46.9425C147.464 46.9587 147.457 46.9804 147.44 46.9871C147.423 46.998 147.404 46.9912 147.394 46.9763L147.218 46.6919Z" fill="#000345"/>
<path fill-rule="evenodd" clip-rule="evenodd" d="M147.098 46.7434C147.089 46.7271 147.098 46.7068 147.116 46.7001C147.137 46.6919 147.155 46.7028 147.162 46.719L147.288 47.0278C147.296 47.0454 147.288 47.0657 147.27 47.0711C147.253 47.0792 147.233 47.0711 147.228 47.0549L147.098 46.7434Z" fill="#000345"/>
<path fill-rule="evenodd" clip-rule="evenodd" d="M146.97 46.7759C146.963 46.7569 146.976 46.7393 146.995 46.7353C147.014 46.7326 147.03 46.7434 147.035 46.7624L147.11 47.0874C147.114 47.1063 147.1 47.1226 147.082 47.128C147.065 47.1307 147.049 47.1185 147.043 47.1009L146.97 46.7759Z" fill="#000345"/>
<path fill-rule="evenodd" clip-rule="evenodd" d="M146.837 46.7867C146.835 46.7678 146.849 46.7529 146.87 46.7515C146.889 46.7515 146.903 46.7651 146.905 46.784L146.921 47.1158C146.921 47.1361 146.907 47.1524 146.889 47.1524C146.868 47.1524 146.853 47.1361 146.853 47.1212L146.836 46.7881" fill="#000345"/>
<path fill-rule="evenodd" clip-rule="evenodd" d="M146.703 46.7759C146.703 46.7556 146.721 46.7461 146.741 46.7488C146.762 46.7488 146.772 46.7664 146.769 46.7854L146.727 47.1131C146.724 47.1334 146.706 47.1469 146.689 47.1442C146.67 47.1442 146.657 47.1239 146.658 47.1077L146.703 46.7773" fill="#000345"/>
<path fill-rule="evenodd" clip-rule="evenodd" d="M146.569 46.7407C146.572 46.7231 146.591 46.7136 146.611 46.719C146.628 46.7244 146.636 46.7434 146.63 46.7596L146.53 47.0765C146.526 47.0982 146.502 47.1063 146.488 47.1009C146.468 47.0955 146.46 47.0765 146.464 47.0603L146.569 46.7407Z" fill="#000345"/>
<path fill-rule="evenodd" clip-rule="evenodd" d="M146.429 46.6811C146.437 46.6608 146.46 46.6581 146.477 46.6649C146.495 46.6743 146.499 46.6919 146.491 46.7109L146.334 47.0061C146.324 47.0237 146.306 47.0305 146.286 47.0196C146.27 47.0142 146.265 46.9926 146.272 46.979L146.429 46.6811Z" fill="#000345"/>
<path fill-rule="evenodd" clip-rule="evenodd" d="M143.856 46.5105L143.982 46.7109L144.578 46.654L144.972 46.5633L145.067 46.3602L144.857 45.8321L144.295 45.5924L143.796 45.8862L143.855 46.5091L143.856 46.5105ZM143.909 46.9844C143.862 46.9844 143.817 46.9601 143.793 46.9194L143.606 46.6215C143.595 46.6053 143.589 46.5863 143.588 46.5674L143.518 45.8293C143.513 45.7792 143.539 45.7305 143.583 45.7048L144.215 45.3324C144.253 45.3093 144.299 45.3053 144.341 45.3242L145.022 45.614C145.056 45.6276 145.081 45.6547 145.095 45.6885L145.344 46.3168C145.355 46.3493 145.354 46.3845 145.34 46.417L145.194 46.7339C145.178 46.7705 145.143 46.7989 145.101 46.8084L144.621 46.914L143.922 46.9817H143.908L143.909 46.9844Z" fill="#000345"/>
<path fill-rule="evenodd" clip-rule="evenodd" d="M144.004 45.6073L143.688 42.6065C143.688 42.6065 144.494 42.5076 144.723 42.5631V45.6506" fill="#000345"/>
<path fill-rule="evenodd" clip-rule="evenodd" d="M146.13 47.3094C145.831 47.3094 145.576 47.1496 145.543 47.1266L145.445 47.0616L145.371 46.612L145.273 46.5985L145.354 46.0744L145.849 46.1476L145.944 46.7366C146.028 46.7705 146.137 46.7976 146.21 46.7637C146.288 46.7285 146.349 46.6107 146.389 46.4333L146.098 46.1733L146.067 45.8077C146.061 45.74 146.033 45.1793 146.4 44.8219C146.537 44.6864 146.784 44.5294 147.193 44.551L147.288 44.5537L147.36 44.616C147.366 44.6228 148.065 45.2091 148.826 45.1685C149.595 45.1306 150.21 44.9695 150.312 44.9383L153.16 43.6925L153.388 44.1732L150.486 45.4421C150.458 45.4515 149.761 45.6506 148.853 45.6966C148.041 45.7373 147.318 45.2579 147.082 45.0791C146.956 45.0859 146.858 45.1238 146.788 45.1929C146.621 45.3554 146.604 45.6709 146.609 45.7684L146.623 45.9268L146.966 46.2356L146.949 46.371C146.896 46.8246 146.723 47.1199 146.439 47.2485C146.335 47.2932 146.232 47.3121 146.131 47.3121" fill="#000345"/>
<path fill-rule="evenodd" clip-rule="evenodd" d="M165.074 36.1187L163.871 37.0896C162.62 38.0606 161.969 36.9813 161.969 36.9813L161.083 36.7145L155.682 42.0986C155.682 42.0986 158.934 41.9091 159.989 40.6863C159.989 40.6863 160.707 40.0227 161.048 38.4343C161.048 38.4343 162.367 38.3016 162.642 38.3016C165.072 38.3016 165.414 37.3076 165.414 37.3076L165.072 36.116" fill="#000345"/>
<path fill-rule="evenodd" clip-rule="evenodd" d="M151.459 47.6033C150.764 47.6033 149.882 47.5126 149.336 47.1158C148.362 46.4062 147.846 45.2565 147.823 45.2064L148.075 45.1022C148.079 45.1157 148.584 46.2397 149.499 46.9032C150.396 47.5559 152.445 47.2769 152.467 47.2742L152.505 47.5369C152.463 47.5424 152.023 47.6046 151.456 47.6046" fill="#000345"/>
<path fill-rule="evenodd" clip-rule="evenodd" d="M151.835 47.5884C151.835 47.5884 152.318 46.7109 153.066 47.4719C153.817 48.233 151.835 47.5884 151.835 47.5884Z" fill="#000345"/>
<path fill-rule="evenodd" clip-rule="evenodd" d="M152.294 40.2448C152.294 40.2448 153.03 40.5644 153.203 41.1494L152.294 40.2448Z" fill="#000345"/>
<path fill-rule="evenodd" clip-rule="evenodd" d="M166.264 32.1564L166.18 31.7732L165.844 31.9926C164.656 32.7644 163.201 33.6135 162.925 33.6352C162.442 33.6352 161.151 33.73 161.095 33.7354L161.058 33.7408C160.18 33.9358 159.694 34.2513 159.575 34.7077C159.454 35.1748 159.782 35.5852 159.959 35.7639C159.908 36.8201 159.175 37.7207 158.945 37.9779C157.836 38.0633 157.232 38.8405 156.994 39.2332C154.864 38.5697 152.645 39.737 152.218 39.978H150.18L150.145 39.9807C150.047 39.9916 147.795 40.2787 146.637 40.8921C145.832 41.3187 145.621 42.1027 145.575 42.6417C145.187 42.4006 144.6 42.1271 143.999 42.1989C143.509 42.2557 143.097 42.5198 142.775 42.9843C142.602 43.2416 142.351 44.0405 142.537 44.8232C142.674 45.396 143.024 45.8564 143.548 46.1543L143.824 45.6939C143.427 45.4705 143.175 45.136 143.073 44.7027C142.923 44.0825 143.126 43.4325 143.232 43.2781C143.463 42.9436 143.733 42.7635 144.063 42.7229C144.836 42.6322 145.664 43.3634 145.674 43.3702L146.233 43.8712L146.13 43.14C146.13 43.1264 145.956 41.8535 146.899 41.3566C147.917 40.8176 149.989 40.5332 150.199 40.5062H152.372L152.439 40.4655C152.463 40.4493 154.901 39.003 157.029 39.802L157.274 39.8941L157.379 39.6598C157.399 39.6138 157.89 38.5359 159.08 38.4952L159.189 38.4925L159.265 38.4153C159.315 38.3652 160.503 37.1627 160.503 35.6502V35.5283L160.409 35.4497C160.328 35.382 160.038 35.0746 160.101 34.8322C160.136 34.6968 160.321 34.445 161.157 34.2567C161.325 34.2432 162.494 34.1619 162.923 34.1619C163.276 34.1619 164.303 33.5769 165.168 33.0461C164.891 33.3386 164.475 33.7137 163.853 34.1809C163.779 34.2351 163.731 34.2703 163.713 34.2811L163.58 34.3813L163.622 34.686L163.766 34.7456C163.874 34.7862 163.94 34.7727 164.046 34.705C164.085 34.6779 164.13 34.6427 164.186 34.6007C166.27 33.0434 166.302 32.3352 166.264 32.1551" fill="#000345"/>
<path fill-rule="evenodd" clip-rule="evenodd" d="M154.477 43.0438L154.169 42.6065L155.151 41.9619C157.044 41.2442 158.149 40.3883 158.286 40.2787L160.017 38.3178L161.477 34.9216L161.771 34.8173C162.039 34.793 162.376 34.6169 162.596 34.5018C162.75 34.4206 162.845 34.3718 162.936 34.3569L163.881 34.2012L163.975 34.7226L163.028 34.8783C163.017 34.8837 162.93 34.9325 162.856 34.9677C162.61 35.0963 162.246 35.2872 161.891 35.3373L160.461 38.6279L158.657 40.6646C158.61 40.7052 157.472 41.6436 155.379 42.444L154.477 43.0398" fill="#000345"/>
<path fill-rule="evenodd" clip-rule="evenodd" d="M157.798 45.7183C157.798 47.4855 156.525 46.7556 156.525 46.7556L155.84 46.0514C155.84 46.0514 153.46 44.2003 152.899 44.1488C151.704 44.0432 150.057 42.9355 149.02 43.358C148.931 43.3959 148.846 43.4284 148.762 43.4569C146.728 44.1719 146.517 42.7852 146.517 42.7852C146.517 42.7852 146.335 41.3742 149.111 41.3295C151.886 41.2834 154.568 42.8272 154.568 42.8272L156.251 45.3865C156.251 45.3865 156.889 45.4542 157.071 45.939C157.071 45.939 157.798 45.3202 157.798 45.7183Z" fill="#000345"/>
<path fill-rule="evenodd" clip-rule="evenodd" d="M166.07 32.342C166.07 32.342 163.476 34.0306 163 34.0306C162.52 34.0306 161.192 34.1294 161.192 34.1294C158.941 34.6264 160.304 35.7842 160.304 35.7842C160.304 37.2061 159.143 38.3652 159.143 38.3652C157.759 38.4086 157.2 39.6896 157.2 39.6896C154.915 38.8284 152.368 40.3734 152.368 40.3734H150.252C150.252 40.3734 147.966 40.6578 146.84 41.2536C145.716 41.8495 145.931 43.3066 145.931 43.3066C145.931 43.3066 144.148 41.7046 143.079 43.2632C142.855 43.5855 142.424 45.1997 143.669 45.9945L143.655 45.8158L144.284 45.4434L144.966 45.7332L145.214 46.3615L145.19 46.4157L145.389 46.4644L145.682 46.5105L145.661 47.1713C145.661 47.1713 146.616 47.5911 146.752 46.4644L146.435 46.1801L146.411 45.9147C146.411 45.9147 146.341 44.899 147.253 44.9424C147.253 44.9424 148.026 45.6059 148.913 45.5612C149.799 45.5138 150.482 45.3175 150.482 45.3175L153.348 44.0581L154.597 42.8448L155.324 42.337C157.416 41.5421 158.555 40.5928 158.555 40.5928L160.329 38.5887L161.762 35.2547L161.874 35.2114C162.354 35.1667 162.923 34.77 163.059 34.7469L164.004 34.5912L164.095 34.5235C166.207 32.9446 166.074 32.3433 166.074 32.3433" fill="#000345"/>
<path fill-rule="evenodd" clip-rule="evenodd" d="M40.5483 52.7261C42.0222 52.745 43.3842 52.6042 44.6344 52.3063C45.8846 52.0043 47.0648 51.3448 48.1765 50.3292C49.1792 49.4165 49.9315 48.3697 50.4349 47.1876C50.9384 46.0054 51.1873 44.7609 51.1873 43.4555C51.1873 42.1068 50.9258 40.8217 50.4042 39.5962C49.8784 38.3747 49.0939 37.3171 48.0465 36.4247C46.9348 35.4714 45.7671 34.8539 44.5365 34.575C43.3059 34.2946 41.9774 34.1552 40.5469 34.1552H38.5891V52.7261H40.5483ZM35.9 31.696H40.4518C42.2669 31.7177 43.9338 31.9046 45.4511 32.258C46.9683 32.6101 48.4436 33.3779 49.8756 34.5601C51.2642 35.7003 52.2808 37.0382 52.9199 38.5711C53.5631 40.1067 53.8848 41.7439 53.8848 43.4867C53.8848 45.1861 53.5575 46.7773 52.9059 48.2601C52.2528 49.7429 51.2656 51.0659 49.9413 52.2277C48.5093 53.4708 47.0326 54.2684 45.5168 54.6219C43.9995 54.974 42.2907 55.15 40.3889 55.15H35.9V31.696Z" fill="#000345"/>
<path fill-rule="evenodd" clip-rule="evenodd" d="M60.9005 31.696H63.5938V55.15H60.9005V31.696Z" fill="#000345"/>
<path fill-rule="evenodd" clip-rule="evenodd" d="M79.267 49.5844L86.1583 31.696H89.0754L79.267 56.5502L69.4587 31.696H72.3757L79.267 49.5844Z" fill="#000345"/>
<path fill-rule="evenodd" clip-rule="evenodd" d="M94.9095 31.696H107.442V34.124H97.6014V41.0912H107.152V43.5151H97.6014V52.7233H107.442V55.15H94.9095V31.696Z" fill="#000345"/>
<path fill-rule="evenodd" clip-rule="evenodd" d="M117.923 52.7261H120.616C120.68 52.745 120.75 52.7558 120.826 52.7558H121.064C122.497 52.7152 123.811 52.4119 125.007 51.8486C126.204 51.2879 126.803 50.1559 126.803 48.4469C126.803 46.9073 126.263 45.8564 125.185 45.2945C124.105 44.7325 122.925 44.4007 121.643 44.2951C121.405 44.2951 121.173 44.2897 120.938 44.2788C120.7 44.2694 120.476 44.2653 120.267 44.2653H117.924V52.7247L117.923 52.7261ZM117.923 42.0242H118.949C120.465 42.0458 121.784 41.8481 122.907 41.431C124.025 41.014 124.588 39.8873 124.588 38.0565C124.588 36.2663 124.065 35.164 123.019 34.7469C121.97 34.3312 120.625 34.124 118.977 34.124H117.921V42.0228L117.923 42.0242ZM115.231 31.696H119.205C121.405 31.7177 123.302 32.1835 124.894 33.0976C126.488 34.0103 127.282 35.6705 127.282 38.0741C127.282 39.0274 127.091 39.8927 126.706 40.6714C126.32 41.4486 125.722 42.1068 124.911 42.6457C126.365 42.9788 127.491 43.7087 128.292 44.8395C129.093 45.9702 129.495 47.239 129.495 48.65C129.495 50.9724 128.65 52.6367 126.963 53.6415C125.274 54.6476 123.233 55.15 120.838 55.15H115.231V31.696Z" fill="#000345"/>
<path fill-rule="evenodd" clip-rule="evenodd" d="M176.323 36.6739L172.189 46.0677H180.363L176.323 36.6739ZM171.098 48.4957L168.183 55.15H165.235L176.387 30.5775L187.252 55.15H184.274L181.421 48.4943H171.097L171.098 48.4957Z" fill="#000345"/>
<path fill-rule="evenodd" clip-rule="evenodd" d="M195.778 42.5536H196.612C196.634 42.574 196.65 42.5834 196.659 42.5834H196.708C198.205 42.5834 199.582 42.3343 200.843 41.8346C202.102 41.3335 202.734 40.1825 202.734 38.3679C202.734 36.4342 202.115 35.2426 200.874 34.793C199.637 34.3461 198.203 34.124 196.581 34.124H195.778V42.5536ZM195.778 55.15H193.087V31.696H196.58C198.866 31.7177 200.912 32.1429 202.719 32.973C204.523 33.8017 205.427 35.5459 205.427 38.2C205.427 40.0011 204.882 41.4906 203.791 42.662C202.7 43.8333 201.228 44.5036 199.37 44.6661L207.061 55.15H203.76L196.452 44.8544H195.778V55.15Z" fill="#000345"/>
<path fill-rule="evenodd" clip-rule="evenodd" d="M218.312 52.7261C219.786 52.745 221.151 52.6042 222.398 52.3063C223.648 52.0043 224.831 51.3448 225.94 50.3292C226.943 49.4165 227.697 48.3697 228.199 47.1876C228.702 46.0054 228.954 44.7609 228.954 43.4555C228.954 42.1068 228.688 40.8217 228.167 39.5962C227.644 38.3747 226.858 37.3171 225.812 36.4247C224.7 35.4714 223.53 34.8539 222.302 34.575C221.071 34.2946 219.743 34.1552 218.311 34.1552H216.356V52.7261H218.312ZM213.664 31.696H218.216C220.034 31.7177 221.698 31.9046 223.216 32.258C224.734 32.6101 226.209 33.3779 227.641 34.5601C229.029 35.7003 230.046 37.0382 230.685 38.5711C231.328 40.1067 231.65 41.7439 231.65 43.4867C231.65 45.1861 231.323 46.7773 230.671 48.2601C230.019 49.7429 229.031 51.0659 227.707 52.2277C226.275 53.4708 224.801 54.2684 223.283 54.6219C221.766 54.974 220.056 55.15 218.156 55.15H213.667V31.696H213.664Z" fill="#000345"/>
<path fill-rule="evenodd" clip-rule="evenodd" d="M159.577 45.0981C158.508 49.6399 154.313 53.0389 149.315 53.0389C143.512 53.0389 138.791 48.4578 138.791 42.8258C138.791 37.1952 143.512 32.6128 149.315 32.6128C151.609 32.6128 153.734 33.3305 155.466 34.5438C155.843 33.9277 156.281 33.3332 156.802 32.82C154.698 31.3304 152.111 30.4502 149.315 30.4502C142.286 30.4502 136.566 36.0022 136.566 42.8218C136.566 49.644 142.286 55.1947 149.315 55.1947C155.558 55.1947 160.768 50.8167 161.855 45.0588C161.105 45.1509 160.311 45.1265 159.578 45.0954" fill="#000345"/>
</svg>
