<svg width="16" height="16" viewBox="0 0 16 16" fill="none" xmlns="http://www.w3.org/2000/svg">
<g clip-path="url(#clip0_3777_9967)">
<path d="M15.375 3.59375C15.0298 3.59375 14.75 3.87356 14.75 4.21875V6.4375H13.3799C13.0683 4.68141 11.5293 3.34353 9.68328 3.34353H3.75422C1.68416 3.34353 0 5.02581 0 7.09366C0 8.08672 0.384781 9.02266 1.08344 9.72901C1.78119 10.4344 2.71184 10.8301 3.70397 10.8432C3.71447 10.8434 3.72475 10.8432 3.73513 10.8429C3.91188 10.8364 4.08975 10.8147 4.26372 10.7784C5.57778 10.5043 6.1875 9.91613 6.55175 9.56469C6.60191 9.51629 6.66384 9.45657 6.71294 9.41385C6.76519 9.45841 6.8335 9.52494 6.88834 9.57832C7.26844 9.94841 7.84284 10.5077 9.14081 10.7784C9.31866 10.8155 9.50069 10.8373 9.68178 10.8432C9.68853 10.8434 9.69531 10.8435 9.70206 10.8435H9.70584C10.7038 10.8376 11.641 10.4451 12.345 9.73816C12.9077 9.1731 13.2682 8.4601 13.3906 7.6875H14.75V13.125C14.75 14.021 14.021 14.75 13.125 14.75H8.90625C8.01022 14.75 7.28125 14.021 7.28125 13.125V12.7532C7.61397 12.8207 7.92206 12.9227 8.05331 12.9734C8.12753 13.0021 8.20388 13.0158 8.279 13.0158C8.52925 13.0158 8.76547 12.8644 8.86166 12.6172C8.98678 12.2954 8.82741 11.9332 8.50569 11.8081C8.40812 11.7702 7.52919 11.4375 6.71666 11.4375C5.90413 11.4375 5.02519 11.7702 4.92763 11.8081C4.60591 11.9332 4.44653 12.2954 4.57166 12.6172C4.69675 12.9389 5.05888 13.0983 5.38069 12.9731C5.49519 12.9286 5.74603 12.8443 6.03125 12.7787V13.125C6.03125 14.7103 7.32097 16 8.90625 16H13.125C14.7103 16 16 14.7103 16 13.125V4.21875C16 3.87356 15.7202 3.59375 15.375 3.59375ZM9.71072 9.59344C9.60544 9.58935 9.49963 9.57632 9.39603 9.55472C8.45419 9.35832 8.0695 8.98376 7.76038 8.68275C7.51534 8.44416 7.23962 8.17569 6.80897 8.13147C6.7795 8.12719 6.74937 8.125 6.71875 8.125H6.68581C6.65084 8.125 6.61653 8.12788 6.58313 8.13341C6.18447 8.18213 5.91966 8.43766 5.68388 8.6651C5.36559 8.97216 4.9695 9.35432 4.00859 9.55469C3.90837 9.5756 3.80619 9.58847 3.70459 9.59304C2.34969 9.5666 1.25 8.44869 1.25 7.09366C1.25 5.7151 2.37337 4.59353 3.75422 4.59353H9.68328C11.0641 4.59353 12.1875 5.7151 12.1875 7.09366C12.1875 8.45988 11.0775 9.57872 9.71072 9.59344Z" fill="#0059DE"/>
<path d="M15.375 0C15.0298 0 14.75 0.279813 14.75 0.625V1.71875C14.75 2.06394 15.0298 2.34375 15.375 2.34375C15.7202 2.34375 16 2.06394 16 1.71875V0.625C16 0.279813 15.7202 0 15.375 0Z" fill="#0059DE"/>
</g>
<defs>
<clipPath id="clip0_3777_9967">
<rect width="16" height="16" fill="white"/>
</clipPath>
</defs>
</svg>
