<svg width="24" height="25" viewBox="0 0 24 25" fill="none" xmlns="http://www.w3.org/2000/svg">
<g clip-path="url(#clip0_2886_36969)">
<path d="M13.3947 22.4897C12.9435 22.5508 12.4823 22.582 12.0234 22.582C11.9925 22.582 11.9619 22.5811 11.931 22.5807C10.7369 22.556 9.52496 21.5608 8.59918 19.8403C7.66718 18.1083 7.10706 15.8532 6.9928 13.4122H11.9766C12.4935 13.4122 12.9122 12.9935 12.9122 12.4766C12.9122 12.4687 12.9113 12.4612 12.9111 12.4533C12.9113 12.4454 12.9122 12.4377 12.9122 12.4299V2.56323C14.9196 3.38684 16.5996 6.77942 16.9241 10.9584C16.964 11.4737 17.413 11.8589 17.9293 11.8188C18.4446 11.7789 18.8298 11.3289 18.7897 10.8136C18.5764 8.06665 17.827 5.52826 16.6793 3.66589C16.6309 3.58734 16.5815 3.51062 16.532 3.43481C19.847 5.09448 22.1287 8.52386 22.1287 12.4766C22.1287 12.8763 22.1045 13.2793 22.0569 13.6746C21.9952 14.1879 22.361 14.6537 22.8741 14.7156C23.3862 14.7773 23.853 14.4114 23.9149 13.8984C23.9714 13.4291 24 12.9506 24 12.4766C24 9.27753 22.7542 6.27002 20.4922 4.00793C18.23 1.74585 15.2225 0.5 12.0234 0.5C12.0137 0.5 12.004 0.500366 11.9945 0.500366C11.9885 0.500366 11.9826 0.5 11.9766 0.5C11.9557 0.5 11.9348 0.501099 11.9139 0.501282C8.75574 0.52948 5.79089 1.77167 3.55463 4.00793C1.36377 6.19879 0.12616 9.08911 0.0505371 12.1754C0.0183105 12.27 0 12.3711 0 12.4766C0 12.5822 0.0183105 12.6833 0.0505371 12.778C0.12616 15.8642 1.36377 18.7543 3.55463 20.9454C5.79089 23.1816 8.75574 24.4238 11.9139 24.4518C11.9348 24.4522 11.9557 24.4533 11.9766 24.4533C11.9797 24.4533 11.9826 24.4528 11.9857 24.4528C11.9984 24.4528 12.0108 24.4533 12.0234 24.4533C12.5662 24.4533 13.112 24.4165 13.6461 24.3442C14.1583 24.2748 14.5172 23.8033 14.4478 23.2913C14.3784 22.7792 13.907 22.4203 13.3947 22.4897ZM11.0409 2.56744V11.5409H6.99298C7.10724 9.1001 7.66718 6.84497 8.59937 5.11279C9.29462 3.82062 10.1516 2.93768 11.0409 2.56744ZM7.37476 3.50604C7.22864 3.73419 7.0871 3.97388 6.95142 4.2262C5.87805 6.22076 5.23846 8.78973 5.11981 11.5411H1.96179C2.28461 8.0423 4.39783 5.05493 7.37476 3.50604ZM1.96179 13.4122H5.11981C5.23846 16.1636 5.87805 18.7325 6.95142 20.7271C7.0871 20.9794 7.22864 21.2191 7.37476 21.4473C4.39783 19.8982 2.28461 16.9108 1.96179 13.4122ZM23.7261 22.8559L20.9491 20.0791C22.0248 18.396 21.8291 16.1293 20.3599 14.6601C18.6636 12.9636 15.9033 12.9636 14.2068 14.6601C12.5105 16.3564 12.5105 19.1167 14.2068 20.8132C15.0551 21.6613 16.1691 22.0854 17.2833 22.0854C18.0992 22.0854 18.9144 21.8571 19.6258 21.4022L22.4028 24.1792C22.5853 24.3618 22.8248 24.4531 23.0643 24.4531C23.3038 24.4531 23.5433 24.3618 23.7261 24.1792C24.0914 23.8137 24.0914 23.2214 23.7261 22.8559ZM15.5301 19.4899C14.5633 18.5231 14.5633 16.95 15.5301 15.9832C16.4967 15.0164 18.0698 15.0164 19.0366 15.9832C20.0034 16.95 20.0034 18.5231 19.0367 19.4899C18.0698 20.4567 16.4969 20.4567 15.5301 19.4899Z" fill="#000345"/>
</g>
<defs>
<clipPath id="clip0_2886_36969">
<rect width="24" height="24" fill="white" transform="translate(0 0.5)"/>
</clipPath>
</defs>
</svg>
