<svg width="24" height="25" viewBox="0 0 24 25" fill="none" xmlns="http://www.w3.org/2000/svg">
<g clip-path="url(#clip0_4211_1660)">
<path d="M22.1043 3.28961C20.9808 2.16992 19.3995 1.57812 17.5312 1.57812C15.4896 1.57812 13.7256 2.44733 12.4297 4.09161C12.2794 4.28241 12.1437 4.47339 12.0218 4.65997C11.9048 4.47577 11.7742 4.28735 11.629 4.09912C10.3561 2.44989 8.57172 1.57812 6.46875 1.57812C4.60052 1.57812 3.01923 2.16992 1.89569 3.28961C0.637756 4.54333 0 6.37531 0 8.73444C0 11.0245 1.33942 13.7722 3.98126 16.9011C5.99579 19.2874 8.45709 21.4951 10.0887 22.7654C10.6514 23.2036 11.3256 23.4226 12 23.4226C12.6742 23.4226 13.3488 23.2036 13.9113 22.7654C14.4542 22.3427 15.5678 21.4416 16.9254 20.1555C17.3013 19.7995 17.3172 19.2061 16.9612 18.8301C16.6051 18.4542 16.0118 18.4383 15.6359 18.7943C14.3357 20.026 13.2755 20.884 12.7593 21.2859C12.3122 21.6342 11.6878 21.6342 11.2407 21.2859C9.68372 20.0738 7.33539 17.9675 5.41388 15.6917C3.09869 12.9495 1.875 10.5439 1.875 8.73444C1.875 4.36938 4.37311 3.45312 6.46875 3.45312C10.0732 3.45312 11.0522 6.9151 11.0938 7.06818C11.0949 7.07275 11.0967 7.07697 11.098 7.08154C11.1041 7.10297 11.1108 7.12402 11.1183 7.1449C11.1215 7.15369 11.1246 7.16248 11.1281 7.17108C11.1359 7.19122 11.1445 7.211 11.1537 7.23059C11.1577 7.23883 11.1616 7.24725 11.1658 7.25531C11.176 7.27527 11.1868 7.29449 11.1984 7.31372C11.2024 7.32013 11.2062 7.32672 11.2103 7.33313C11.2236 7.35437 11.2381 7.37469 11.2533 7.39484C11.2557 7.39795 11.2579 7.40125 11.2603 7.40417C11.3767 7.55469 11.5391 7.67169 11.7354 7.72937C12.1575 7.85315 12.5958 7.66693 12.8079 7.30365C12.8082 7.30292 12.8088 7.302 12.8093 7.30109C12.822 7.27911 12.8337 7.25677 12.8447 7.23352C12.8481 7.22638 12.8514 7.21924 12.8547 7.2121C12.8624 7.19489 12.8696 7.17731 12.8762 7.15936C12.8818 7.1449 12.8868 7.13025 12.8915 7.11542C12.8937 7.10864 12.8965 7.10223 12.8985 7.09546C12.9014 7.08594 13.1951 6.13049 13.9389 5.20618C14.8749 4.04291 16.0836 3.45312 17.5312 3.45312C19.6269 3.45312 22.125 4.36938 22.125 8.73444C22.125 10.4831 20.9832 12.7474 18.7313 15.4643C18.401 15.8629 18.4563 16.4538 18.8549 16.7843C19.0298 16.9293 19.2418 17 19.4526 17C19.7221 17 19.9896 16.8845 20.1749 16.6607C22.7488 13.5554 24 10.9626 24 8.73444C24 6.37531 23.3622 4.54333 22.1043 3.28961Z" fill="#0059DE"/>
</g>
<defs>
<clipPath id="clip0_4211_1660">
<rect width="24" height="24" fill="white" transform="translate(0 0.5)"/>
</clipPath>
</defs>
</svg>
