<svg width="24" height="25" viewBox="0 0 24 25" fill="none" xmlns="http://www.w3.org/2000/svg">
<g clip-path="url(#clip0_4211_3884)">
<path d="M7.59389 11.6093H4.73451C4.21673 11.6093 3.79701 12.0291 3.79701 12.5468C3.79701 13.0646 4.21673 13.4843 4.73451 13.4843H7.59389C8.11167 13.4843 8.53139 13.0646 8.53139 12.5468C8.53139 12.0291 8.11167 11.6093 7.59389 11.6093Z" fill="#000345"/>
<path d="M7.59389 15.2656H4.73451C4.21673 15.2656 3.79701 15.6853 3.79701 16.2031C3.79701 16.7209 4.21673 17.1406 4.73451 17.1406H7.59389C8.11167 17.1406 8.53139 16.7209 8.53139 16.2031C8.53139 15.6853 8.11167 15.2656 7.59389 15.2656Z" fill="#000345"/>
<path d="M7.59389 18.875H4.73451C4.21673 18.875 3.79701 19.2947 3.79701 19.8125C3.79701 20.3303 4.21673 20.75 4.73451 20.75H7.59389C8.11167 20.75 8.53139 20.3303 8.53139 19.8125C8.53139 19.2947 8.11167 18.875 7.59389 18.875Z" fill="#000345"/>
<path d="M13.6875 18.875H10.8281C10.3104 18.875 9.89065 19.2947 9.89065 19.8125C9.89065 20.3303 10.3104 20.75 10.8281 20.75H13.6875C14.2053 20.75 14.625 20.3303 14.625 19.8125C14.625 19.2947 14.2053 18.875 13.6875 18.875Z" fill="#000345"/>
<path d="M13.6876 4.24999H4.73451C4.21673 4.24999 3.79701 4.66971 3.79701 5.18749V8.89062C3.79701 9.4084 4.21673 9.82812 4.73451 9.82812H13.6876C14.2054 9.82812 14.6251 9.4084 14.6251 8.89062V5.18749C14.6251 4.66971 14.2054 4.24999 13.6876 4.24999ZM12.7501 7.95312H5.67201V6.12499H12.7501V7.95312Z" fill="#000345"/>
<path d="M23.0625 17.0009C23.5803 17.0009 24 16.5812 24 16.0634V13.7196C24 13.2019 23.5803 12.7821 23.0625 12.7821H18.375V1.43848C18.375 0.920696 17.9553 0.500977 17.4375 0.500977H0.937641C0.419906 0.500977 0.000140625 0.920696 0.000140625 1.43848L0 20.7507C0 22.8184 1.6822 24.5007 3.75 24.5008L20.2499 24.5009C20.2571 24.5009 20.2642 24.5008 20.2714 24.5007C21.265 24.4952 22.1983 24.1056 22.9016 23.4025C23.6099 22.6942 24 21.7524 24 20.7507C24 20.2329 23.5803 19.8132 23.0625 19.8132C22.5447 19.8132 22.125 20.2329 22.125 20.7507C22.125 21.2516 21.93 21.7224 21.5758 22.0766C21.2216 22.4307 20.7508 22.6257 20.25 22.6257C19.2162 22.6256 18.375 21.7845 18.375 20.7507V14.6572H22.125V16.0634C22.125 16.5812 22.5448 17.0009 23.0625 17.0009ZM3.75 22.6258C2.71613 22.6257 1.875 21.7846 1.875 20.7507L1.87514 2.37598H16.5V20.7507C16.5 21.4333 16.6834 22.0739 17.0034 22.6258L3.75 22.6258Z" fill="#000345"/>
<path d="M13.6875 11.6093H10.8281C10.3104 11.6093 9.89065 12.0291 9.89065 12.5468C9.89065 13.0646 10.3104 13.4843 10.8281 13.4843H13.6875C14.2053 13.4843 14.625 13.0646 14.625 12.5468C14.625 12.0291 14.2053 11.6093 13.6875 11.6093Z" fill="#000345"/>
<path d="M13.6875 15.2656H10.8281C10.3104 15.2656 9.89065 15.6853 9.89065 16.2031C9.89065 16.7209 10.3104 17.1406 10.8281 17.1406H13.6875C14.2053 17.1406 14.625 16.7209 14.625 16.2031C14.625 15.6853 14.2053 15.2656 13.6875 15.2656Z" fill="#000345"/>
</g>
<defs>
<clipPath id="clip0_4211_3884">
<rect width="24" height="24" fill="white" transform="translate(0 0.5)"/>
</clipPath>
</defs>
</svg>
