<svg width="16" height="22" viewBox="0 0 16 22" fill="none" xmlns="http://www.w3.org/2000/svg">
<path d="M15.6 7.121V7.12091C15.5995 6.49786 15.3515 5.90053 14.9107 5.46025L10.5412 1.08781L10.5412 1.08777C10.3229 0.869582 10.0637 0.696544 9.77849 0.578536C9.49329 0.460533 9.18764 0.399866 8.879 0.4C8.87899 0.4 8.87897 0.4 8.87895 0.4L3.5 0.4C2.67783 0.4 1.88933 0.726607 1.30797 1.30797C0.726606 1.88933 0.4 2.67783 0.4 3.5V18.5C0.4 19.3222 0.726606 20.1107 1.30797 20.692C1.88933 21.2734 2.67783 21.6 3.5 21.6H12.5C13.3222 21.6 14.1107 21.2734 14.692 20.692C15.2734 20.1107 15.6 19.3222 15.6 18.5V7.121ZM2.1 3.5C2.1 3.1287 2.2475 2.7726 2.51005 2.51005C2.7726 2.2475 3.1287 2.1 3.5 2.1H7.9V5.75C7.9 6.37326 8.14759 6.97099 8.5883 7.4117C9.02901 7.85241 9.62674 8.1 10.25 8.1H13.9V18.5C13.9 18.8713 13.7525 19.2274 13.4899 19.4899C13.2274 19.7525 12.8713 19.9 12.5 19.9H3.5C3.1287 19.9 2.7726 19.7525 2.51005 19.4899C2.2475 19.2274 2.1 18.8713 2.1 18.5V3.5ZM9.6 2.55192L13.4481 6.4H10.25C10.0776 6.4 9.91228 6.33152 9.79038 6.20962C9.66848 6.08772 9.6 5.92239 9.6 5.75V2.55192Z" fill="#000345" stroke="black" stroke-width="0.2"/>
</svg>
