<svg width="40" height="40" viewBox="0 0 40 40" fill="none" xmlns="http://www.w3.org/2000/svg">
<path d="M8.95006 34.6368L10.5153 32.8062L18.1601 23.8656L8.95006 34.6368ZM8.95006 34.6368C8.97995 34.6659 9.01029 34.6946 9.04108 34.7228L10.3796 33.1574L17.0432 25.3642L18.2066 24.0036L19.3426 25.3872L22.6874 29.4611L22.6874 29.4612C22.6982 29.4743 22.714 29.4826 22.7314 29.4838C22.76 29.4824 22.7764 29.4701 22.7836 29.4616L29.8988 20.9884L31.041 19.6281L32.1908 20.982L38.0174 27.8429L38.3739 28.2627L38.3741 28.8134L38.375 31.8097V31.8102C38.375 33.9236 36.6579 35.6406 34.5445 35.6406H11.7188C11.6098 35.6406 11.5012 35.6361 11.3933 35.6269L10.4108 35.5439C10.8206 35.6875 11.2608 35.7656 11.7188 35.7656H34.5445C36.724 35.7656 38.4998 33.9902 38.5 31.8101C38.5 31.8101 38.5 31.8101 38.5 31.8101C38.5 31.81 38.5 31.8098 38.5 31.8097L38.4989 28.2398V28.2397C38.4989 28.2251 38.4937 28.2108 38.4841 28.1994C38.4841 28.1994 38.4841 28.1994 38.484 28.1993L31.0885 19.4908L32.125 18.6105L31.0884 19.4908C31.0811 19.4821 31.074 19.4774 31.0676 19.4744C31.0615 19.4716 31.0527 19.4689 31.0398 19.4688C31.0216 19.4691 31.0045 19.4773 30.9929 19.4911L29.882 18.5582L30.9929 19.4911L23.8979 27.9402L22.7362 29.3236L21.5899 27.9274L18.2559 23.8666L8.95006 34.6368ZM18.2099 23.8437C18.2278 23.8444 18.2446 23.8528 18.2559 23.8665L18.2099 23.8437ZM18.2099 23.8437C18.1977 23.8439 18.1882 23.8465 18.1808 23.8499C18.1731 23.8534 18.1663 23.8584 18.1601 23.8655L18.2099 23.8437ZM32.25 8.98438V10.4844H33.75H34.5312C36.7183 10.4844 38.5 12.2661 38.5 14.4531V20.2344C38.5 20.2689 38.472 20.2969 38.4375 20.2969C38.403 20.2969 38.375 20.2689 38.375 20.2344V14.4531C38.375 12.3324 36.652 10.6094 34.5312 10.6094H11.6406C9.56287 10.6094 7.875 12.2974 7.875 14.375V31.7969C7.875 31.8152 7.87512 31.8335 7.87537 31.8518L7.88879 32.8382C7.79831 32.5062 7.75 32.157 7.75 31.7969V31.0156V29.5156H6.25H5.46875C3.28171 29.5156 1.5 27.7339 1.5 25.5469V8.125C1.5 5.98101 3.24663 4.23438 5.39062 4.23438H28.2812C30.4683 4.23438 32.25 6.01608 32.25 8.20312V8.98438ZM6.25 29.3906H7.75V27.8906V14.375C7.75 12.231 9.49663 10.4844 11.6406 10.4844H30.625H32.125V8.98438V8.20312C32.125 6.08235 30.402 4.35938 28.2812 4.35938H5.39062C3.31287 4.35938 1.625 6.04739 1.625 8.125V25.5469C1.625 27.6676 3.34798 29.3906 5.46875 29.3906H6.25ZM15.9375 16.9688C16.1877 16.9688 16.3906 17.1716 16.3906 17.4219C16.3906 17.6721 16.1877 17.875 15.9375 17.875C15.6873 17.875 15.4844 17.6721 15.4844 17.4219C15.4844 17.1716 15.6873 16.9688 15.9375 16.9688Z" fill="black" stroke="#0059DE" stroke-width="3"/>
</svg>
