<svg width="24" height="24" viewBox="0 0 24 24" fill="none" xmlns="http://www.w3.org/2000/svg">
<path d="M23.0625 13.0781C23.5803 13.0781 24 12.6584 24 12.1406V8.67188C24 6.86259 22.528 5.39062 20.7188 5.39062H20.25V4.92188C20.25 3.11259 18.778 1.64062 16.9688 1.64062H3.23438C1.45092 1.64062 0 3.09155 0 4.875V15.3281C0 17.1374 1.47197 18.6094 3.28125 18.6094H3.75V19.0781C3.75 20.8874 5.22197 22.3594 7.03125 22.3594H20.7267C22.5316 22.3594 24 20.891 24 19.0858L23.9993 16.9436C23.9993 16.7214 23.9203 16.5064 23.7765 16.3371L19.3391 11.1119C19.1603 10.9014 18.9001 10.7809 18.6219 10.7812C18.3458 10.782 18.0841 10.9044 17.9065 11.1159L13.6495 16.1853L11.6491 13.7488C11.4732 13.5345 11.2113 13.4091 10.934 13.4062C10.6556 13.4042 10.3923 13.5237 10.212 13.7344L5.62514 19.0988C5.62505 19.092 5.625 19.0851 5.625 19.0781V8.625C5.625 7.87547 6.2348 7.26562 6.98438 7.26562H20.7188C21.4942 7.26562 22.125 7.89647 22.125 8.67188V12.1406C22.125 12.6584 22.5447 13.0781 23.0625 13.0781ZM10.91 15.8034L12.9168 18.2478C13.0937 18.4633 13.3574 18.5888 13.6362 18.5904C13.915 18.5902 14.1801 18.4693 14.3594 18.2557L18.6285 13.1718L22.1244 17.2883L22.125 19.0861C22.125 19.8571 21.4977 20.4844 20.7267 20.4844H7.03125C6.99103 20.4844 6.95114 20.4827 6.91177 20.4794L10.91 15.8034ZM3.75 8.625V16.7344H3.28125C2.50584 16.7344 1.875 16.1035 1.875 15.3281V4.875C1.875 4.12547 2.4848 3.51562 3.23438 3.51562H16.9688C17.7442 3.51562 18.375 4.14647 18.375 4.92188V5.39062H6.98438C5.20092 5.39062 3.75 6.84155 3.75 8.625ZM9.5625 9.28125C10.2097 9.28125 10.7344 9.80592 10.7344 10.4531C10.7344 11.1003 10.2097 11.625 9.5625 11.625C8.9153 11.625 8.39062 11.1003 8.39062 10.4531C8.39062 9.80592 8.9153 9.28125 9.5625 9.28125Z" fill="#000345"/>
</svg>
