<svg width="197" height="40" viewBox="0 0 197 40" fill="none" xmlns="http://www.w3.org/2000/svg">
<g clip-path="url(#clip0_477_30026)">
<path d="M17.8411 19.5059C17.8411 11.7005 21.6994 4.94553 33.1798 4.94553C33.1798 12.7678 27.9681 19.5059 17.8411 19.5059Z" fill="#47A138"/>
<path d="M36.235 40C38.3853 40 40.038 39.6978 41.7354 39.0813C41.7354 32.904 38.003 28.4899 31.4101 25.3092C26.3648 22.8111 20.155 21.5179 14.4917 21.5179C16.9766 14.1539 15.1653 5.01645 12.7571 0.000644684C10.089 5.25534 8.42369 14.264 10.9855 21.5933C5.95476 21.9555 1.96527 24.1191 0.277369 26.972C0.149867 27.1896 -0.105502 27.6534 0.0472843 27.7327C0.167538 27.7964 0.362191 27.6021 0.482445 27.4938C2.3002 25.8323 4.70717 25.0229 7.0181 25.0229C12.3589 25.0229 16.1293 29.3987 18.7932 32.0275C24.5186 37.6795 30.1146 40.0117 36.235 40Z" fill="#47A138"/>
<path d="M58.2961 10.9899L55.5122 12.3985C55.3733 12.4673 55.2339 12.5703 55.0947 12.5703C54.9903 12.5703 54.8859 12.5016 54.8163 12.3298C54.1901 10.8527 53.2854 10.303 52.3458 10.303H50.0491C48.6922 10.303 47.5439 11.4366 47.5439 12.7765V22.9454C47.5439 24.2853 48.6922 25.4191 50.0491 25.4191H51.7543C53.1462 25.4191 54.2247 24.3197 54.2247 22.9454V21.3309C54.2247 21.0904 54.1203 20.9873 53.8767 20.9873H50.6059C50.3623 20.9873 50.2579 20.8842 50.2579 20.6438V17.7236C50.2579 17.4831 50.3623 17.38 50.6059 17.38H57.8785C58.1221 17.38 58.2263 17.4831 58.2263 17.7236V22.9454C58.2263 26.5184 55.6862 29.0264 51.7543 29.0264H50.0491C46.0824 29.0264 43.5769 26.5184 43.5769 22.9454V12.7765C43.5769 9.20363 46.0824 6.69561 50.0491 6.69561H52.3458C55.2339 6.69561 56.7998 7.86373 57.8437 9.47848C58.1569 9.99382 58.5049 10.5433 58.5049 10.7494C58.5049 10.8527 58.4353 10.9212 58.2961 10.9899Z" fill="#231F20"/>
<path d="M71.8672 21.949C71.8672 20.5749 70.7536 19.5098 69.3617 19.5098H65.5341C65.2908 19.5098 65.1861 19.613 65.1861 19.8534V24.7318C65.1861 24.9723 65.2908 25.0754 65.5341 25.0754H69.3617C70.7188 25.0754 71.8672 24.0103 71.8672 22.6018V21.949ZM71.8672 13.1198C71.8672 11.7799 70.7188 10.6464 69.3617 10.6464H65.5341C65.2908 10.6464 65.1861 10.7492 65.1861 10.9897V15.5589C65.1861 15.7994 65.2908 15.9025 65.5341 15.9025H69.3617C70.7188 15.9025 71.8672 14.7687 71.8672 13.429V13.1198ZM69.3617 28.6826H61.5326C61.2892 28.6826 61.1846 28.5795 61.1846 28.3391V7.38255C61.1846 7.14206 61.2892 7.03899 61.5326 7.03899H69.3617C73.3287 7.03899 75.8342 9.547 75.8342 13.429V13.7726C75.8342 15.0438 74.999 16.5209 73.9899 17.4829C73.8852 17.5516 73.8507 17.6547 73.8507 17.7234C73.8507 17.7922 73.8852 17.8951 73.9899 17.9638C74.999 18.9258 75.8342 20.5749 75.8342 21.846V22.3612C75.8342 26.2435 73.3287 28.6826 69.3617 28.6826Z" fill="#231F20"/>
<path d="M82.7942 28.6826H79.4886C79.245 28.6826 79.1406 28.5795 79.1406 28.3391V7.38255C79.1406 7.14206 79.245 7.03899 79.4886 7.03899H82.7942C83.0378 7.03899 83.1422 7.14206 83.1422 7.38255V28.3391C83.1422 28.5795 83.0378 28.6826 82.7942 28.6826Z" fill="#231F20"/>
<path d="M100.158 10.6464H91.8762C91.6326 10.6464 91.5282 10.7492 91.5282 10.9897V15.5589C91.5282 15.7994 91.6326 15.9025 91.8762 15.9025H98.6616C98.9052 15.9025 99.0096 16.0055 99.0096 16.246V19.1662C99.0096 19.4067 98.9052 19.5098 98.6616 19.5098H91.8762C91.6326 19.5098 91.5282 19.613 91.5282 19.8534V28.3391C91.5282 28.5795 91.4238 28.6826 91.1802 28.6826H87.8746C87.631 28.6826 87.5266 28.5795 87.5266 28.3391V7.38255C87.5266 7.14206 87.631 7.03899 87.8746 7.03899H100.158C100.401 7.03899 100.506 7.14206 100.506 7.38255V10.3028C100.506 10.5431 100.401 10.6464 100.158 10.6464Z" fill="#231F20"/>
<path d="M107.143 3.20353V31.9102" stroke="#231F20" stroke-width="1.25" stroke-miterlimit="10"/>
<path d="M116.962 14.543H116.595C115.317 14.543 114.501 13.7489 114.501 12.5924V8.90165C114.501 7.75689 115.317 6.95112 116.595 6.95112H117.175C117.825 6.95112 118.275 7.13802 118.594 7.40646C118.795 7.57022 118.937 7.7688 119.056 7.97883C119.091 8.04892 119.067 8.10733 118.996 8.14237L118.369 8.44608C118.31 8.48113 118.263 8.45777 118.227 8.39936C117.979 7.97884 117.565 7.75689 117.175 7.75689H116.595C115.956 7.75689 115.436 8.25918 115.436 8.90165V12.5924C115.436 13.2115 115.944 13.7372 116.595 13.7372H116.962C117.589 13.7372 118.121 13.2232 118.121 12.5924V11.7399C118.121 11.6582 118.086 11.6231 118.003 11.6231H116.796C116.713 11.6231 116.678 11.5881 116.678 11.5063V10.9339C116.678 10.8522 116.713 10.8171 116.796 10.8171H118.937C119.02 10.8171 119.056 10.8522 119.056 10.9339V12.5924C119.056 13.7372 118.239 14.543 116.962 14.543Z" fill="#231F20"/>
<path d="M121.351 14.4258H120.653C120.57 14.4258 120.535 14.3907 120.535 14.309V7.18414C120.535 7.10238 120.57 7.06733 120.653 7.06733H121.351C121.434 7.06733 121.47 7.10238 121.47 7.18414V14.309C121.47 14.3907 121.434 14.4258 121.351 14.4258Z" fill="#231F20"/>
<path d="M126.107 10.9807C126.107 10.3849 125.622 9.89432 124.948 9.89432C124.214 9.89432 123.788 10.4083 123.788 11.0391V12.6625C123.788 13.2583 124.274 13.7489 124.948 13.7489C125.681 13.7489 126.107 13.2349 126.107 12.6041V10.9807ZM124.948 14.543C123.694 14.543 122.854 13.7255 122.854 12.6041V11.0391C122.854 9.92959 123.67 9.10023 124.948 9.10023C126.202 9.10023 127.042 9.91791 127.042 11.0391V12.6041C127.042 13.7138 126.226 14.543 124.948 14.543Z" fill="#231F20"/>
<path d="M131.692 11.1553C131.692 10.5362 131.159 10.0108 130.52 10.0108C129.881 10.0108 129.361 10.5245 129.361 11.1553V12.4753C129.361 13.0941 129.881 13.6198 130.52 13.6198C131.147 13.6198 131.692 13.1058 131.692 12.4753V11.1553ZM130.52 14.4258C130.225 14.4258 129.787 14.2737 129.444 13.9118C129.349 13.8184 129.243 13.8534 129.243 13.9936V14.309C129.243 14.3907 129.207 14.4258 129.124 14.4258H128.545C128.462 14.4258 128.426 14.3907 128.426 14.309V7.18414C128.426 7.10238 128.462 7.06733 128.545 7.06733H129.243C129.325 7.06733 129.361 7.10238 129.361 7.18414V9.62528C129.361 9.75354 129.479 9.8005 129.562 9.70705C129.881 9.35638 130.296 9.21644 130.639 9.21644C131.739 9.21644 132.626 10.0108 132.626 11.1553V12.4753C132.626 13.6198 131.798 14.4258 130.52 14.4258Z" fill="#231F20"/>
<path d="M136.838 12.3349C136.838 12.2533 136.803 12.218 136.72 12.218H135.265C134.922 12.218 134.649 12.4867 134.649 12.8255V13.0124C134.649 13.3394 134.922 13.6198 135.265 13.6198H135.726C136.235 13.6198 136.696 13.1642 136.838 12.697V12.3349ZM137.654 14.4258H137.086C137.004 14.4258 136.968 14.3907 136.968 14.309V13.9819C136.968 13.8534 136.85 13.795 136.755 13.8884C136.412 14.2272 135.998 14.4258 135.726 14.4258H135.265C134.413 14.4258 133.727 13.8651 133.727 13.0124V12.9423C133.727 12.0895 134.413 11.5408 135.265 11.5408H136.72C136.803 11.5408 136.838 11.5057 136.838 11.424V11.0268C136.838 10.396 136.318 9.90563 135.667 9.90563C135.276 9.90563 134.886 10.104 134.626 10.5479C134.59 10.6063 134.531 10.6296 134.46 10.5946L133.857 10.2792C133.786 10.2442 133.762 10.1857 133.81 10.1159C133.94 9.90563 134.094 9.70705 134.295 9.55519C134.626 9.28653 135.075 9.11131 135.667 9.11131C136.945 9.11131 137.773 9.87036 137.773 11.0268V14.309C137.773 14.3907 137.737 14.4258 137.654 14.4258Z" fill="#231F20"/>
<path d="M140.092 14.4258H139.394C139.311 14.4258 139.275 14.3907 139.275 14.309V7.18414C139.275 7.10238 139.311 7.06733 139.394 7.06733H140.092C140.175 7.06733 140.21 7.10238 140.21 7.18414V14.309C140.21 14.3907 140.175 14.4258 140.092 14.4258Z" fill="#231F20"/>
<path d="M147.581 12.2297C147.581 11.6108 147.06 11.0969 146.41 11.0969H145.002C144.919 11.0969 144.883 11.1319 144.883 11.2137V13.503C144.883 13.5847 144.919 13.6198 145.002 13.6198H146.41C147.048 13.6198 147.581 13.1175 147.581 12.4753V12.2297ZM147.581 9.01786C147.581 8.39875 147.06 7.87333 146.41 7.87333H145.002C144.919 7.87333 144.883 7.90815 144.883 7.98991V10.1741C144.883 10.2558 144.919 10.2909 145.002 10.2909H146.41C147.048 10.2909 147.581 9.7769 147.581 9.13467V9.01786ZM146.41 14.4258H144.079C143.996 14.4258 143.961 14.3907 143.961 14.309V7.18414C143.961 7.10238 143.996 7.06733 144.079 7.06733H146.41C147.687 7.06733 148.503 7.87333 148.503 9.13467V9.25148C148.503 9.70705 148.137 10.3376 147.699 10.5946C147.592 10.653 147.592 10.7348 147.687 10.7932C148.089 11.0385 148.503 11.6225 148.503 12.1947V12.3701C148.503 13.6315 147.687 14.4258 146.41 14.4258Z" fill="#231F20"/>
<path d="M150.704 14.4258H150.006C149.923 14.4258 149.888 14.3907 149.888 14.309V9.33325C149.888 9.25148 149.923 9.21644 150.006 9.21644H150.704C150.787 9.21644 150.823 9.25148 150.823 9.33325V14.309C150.823 14.3907 150.787 14.4258 150.704 14.4258ZM150.349 8.10673C150.018 8.10673 149.77 7.84974 149.77 7.52267C149.77 7.20751 150.03 6.95052 150.349 6.95052C150.681 6.95052 150.941 7.19582 150.941 7.52267C150.941 7.83806 150.681 8.10673 150.349 8.10673Z" fill="#231F20"/>
<path d="M155.46 10.9807C155.46 10.3849 154.975 9.89432 154.301 9.89432C153.567 9.89432 153.141 10.4083 153.141 11.0391V12.6625C153.141 13.2583 153.626 13.7489 154.301 13.7489C155.034 13.7489 155.46 13.2349 155.46 12.6041V10.9807ZM154.301 14.543C153.047 14.543 152.207 13.7255 152.207 12.6041V11.0391C152.207 9.92959 153.023 9.10023 154.301 9.10023C155.555 9.10023 156.395 9.91791 156.395 11.0391V12.6041C156.395 13.7138 155.579 14.543 154.301 14.543Z" fill="#231F20"/>
<path d="M160.855 11.1553C160.855 10.5362 160.335 10.0108 159.696 10.0108C159.057 10.0108 158.536 10.5245 158.536 11.1553V12.4753C158.536 13.0941 159.057 13.6198 159.696 13.6198C160.323 13.6198 160.855 13.1058 160.855 12.4753V11.1553ZM161.671 14.4258H161.103C161.021 14.4258 160.985 14.3907 160.985 14.309V13.9819C160.985 13.8534 160.867 13.8067 160.772 13.9001C160.417 14.2737 159.991 14.4258 159.696 14.4258C158.418 14.4258 157.602 13.6198 157.602 12.4753V11.1553C157.602 10.0108 158.465 9.21644 159.577 9.21644C159.932 9.21644 160.346 9.35638 160.654 9.71873C160.737 9.82386 160.855 9.7769 160.855 9.63696V7.18414C160.855 7.10238 160.89 7.06733 160.974 7.06733H161.671C161.754 7.06733 161.79 7.10238 161.79 7.18414V14.309C161.79 14.3907 161.754 14.4258 161.671 14.4258Z" fill="#231F20"/>
<path d="M164.168 14.4258H163.47C163.387 14.4258 163.352 14.3907 163.352 14.309V9.33325C163.352 9.25148 163.387 9.21644 163.47 9.21644H164.168C164.251 9.21644 164.286 9.25148 164.286 9.33325V14.309C164.286 14.3907 164.251 14.4258 164.168 14.4258ZM163.813 8.10673C163.482 8.10673 163.233 7.84974 163.233 7.52267C163.233 7.20751 163.494 6.95052 163.813 6.95052C164.144 6.95052 164.405 7.19582 164.405 7.52267C164.405 7.83806 164.144 8.10673 163.813 8.10673Z" fill="#231F20"/>
<path d="M167.966 14.3555C167.942 14.4024 167.907 14.4258 167.859 14.4258H167.292C167.244 14.4258 167.209 14.4024 167.185 14.3555L165.138 9.37997C165.091 9.27484 165.138 9.21644 165.245 9.21644H165.978C166.026 9.21644 166.061 9.2398 166.085 9.28652L167.422 12.6269C167.445 12.6853 167.54 12.9773 167.552 13.0824H167.599C167.611 12.9773 167.706 12.6853 167.729 12.6269L169.054 9.28652C169.078 9.2398 169.114 9.21644 169.161 9.21644H169.894C170.001 9.21644 170.048 9.27484 170.001 9.37997L167.966 14.3555Z" fill="#231F20"/>
<path d="M173.929 10.9807C173.929 10.3849 173.444 9.89432 172.769 9.89432C172.036 9.89432 171.61 10.4083 171.61 11.0391V11.1676C171.61 11.226 171.669 11.2377 171.728 11.2377H173.81C173.893 11.2377 173.929 11.2026 173.929 11.1208V10.9807ZM174.745 11.9266H171.728C171.645 11.9266 171.61 11.9619 171.61 12.0437V12.5924C171.61 13.2115 172.131 13.7372 172.769 13.7372C173.171 13.7372 173.574 13.5036 173.822 13.0714C173.858 13.013 173.917 12.9896 173.976 13.0246L174.603 13.34C174.674 13.3751 174.686 13.4218 174.65 13.4919C174.544 13.6788 174.426 13.8657 174.26 14.0175C173.941 14.3327 173.479 14.543 172.769 14.543C171.492 14.543 170.675 13.7489 170.675 12.5924V11.0391C170.675 9.92959 171.492 9.10023 172.769 9.10023C174.023 9.10023 174.863 9.91791 174.863 11.0391V11.8098C174.863 11.8918 174.828 11.9266 174.745 11.9266Z" fill="#231F20"/>
<path d="M178.555 10.1857C178.496 10.1624 178.413 10.1507 178.342 10.1507C177.691 10.1507 177.182 10.5829 177.182 11.2721V14.309C177.182 14.3907 177.147 14.4258 177.064 14.4258H176.366C176.283 14.4258 176.248 14.3907 176.248 14.309V9.33325C176.248 9.25148 176.283 9.21644 176.366 9.21644H176.946C177.029 9.21644 177.064 9.25148 177.064 9.33325V9.81218C177.064 9.94044 177.182 9.99885 177.265 9.89371C177.573 9.46151 177.975 9.21644 178.342 9.21644H178.602C178.685 9.21644 178.709 9.26316 178.709 9.34493V10.0806C178.709 10.1741 178.649 10.2208 178.555 10.1857Z" fill="#231F20"/>
<path d="M181.406 14.543H181.051C180.389 14.543 179.951 14.3561 179.643 14.0876C179.442 13.9241 179.3 13.7138 179.194 13.5153C179.158 13.4452 179.182 13.3984 179.253 13.3634L179.821 13.0831C179.892 13.048 179.939 13.0714 179.974 13.1298C180.187 13.5153 180.613 13.7839 181.051 13.7839H181.406C182.068 13.7839 182.4 13.4101 182.4 12.9779C182.4 12.4055 181.631 12.3238 180.803 12.1605C180.022 12.0084 179.182 11.6699 179.182 10.6886C179.182 9.62588 179.986 9.10023 181.051 9.10023H181.406C182.021 9.10023 182.459 9.26376 182.766 9.50907C182.991 9.68406 183.145 9.89432 183.263 10.1046C183.299 10.1747 183.275 10.2331 183.204 10.2681L182.636 10.5485C182.577 10.5835 182.518 10.5601 182.483 10.5017C182.246 10.1165 181.867 9.85928 181.406 9.85928H181.051C180.365 9.85928 180.093 10.1863 180.093 10.5718C180.093 11.2143 180.862 11.2727 181.666 11.4362C182.565 11.6231 183.322 11.9149 183.322 12.8611C183.322 13.7839 182.672 14.543 181.406 14.543Z" fill="#231F20"/>
<path d="M185.381 14.4258H184.683C184.601 14.4258 184.565 14.3907 184.565 14.309V9.33325C184.565 9.25148 184.601 9.21644 184.683 9.21644H185.381C185.464 9.21644 185.5 9.25148 185.5 9.33325V14.309C185.5 14.3907 185.464 14.4258 185.381 14.4258ZM185.026 8.10673C184.695 8.10673 184.447 7.84974 184.447 7.52267C184.447 7.20751 184.707 6.95052 185.026 6.95052C185.358 6.95052 185.618 7.19582 185.618 7.52267C185.618 7.83806 185.358 8.10673 185.026 8.10673Z" fill="#231F20"/>
<path d="M189.085 14.5315C188.6 14.4845 188.197 14.3212 187.89 14.0876C187.452 13.7372 187.203 13.2232 187.203 12.5924V10.1281C187.203 10.0461 187.168 10.0113 187.085 10.0113H186.423C186.34 10.0113 186.304 9.97605 186.304 9.89428V9.5789L187.653 8.17738C187.665 8.1657 187.712 8.14234 187.736 8.14234H188.02C188.103 8.14234 188.138 8.17738 188.138 8.25915V9.1002C188.138 9.18196 188.174 9.21701 188.256 9.21701H189.096C189.179 9.21701 189.215 9.25205 189.215 9.33382V9.89428C189.215 9.97605 189.179 10.0113 189.096 10.0113H188.256C188.174 10.0113 188.138 10.0461 188.138 10.1281V12.5924C188.138 13.1297 188.516 13.597 189.12 13.7138C189.179 13.7255 189.215 13.7605 189.215 13.8306V14.4147C189.215 14.4964 189.167 14.5429 189.085 14.5315Z" fill="#231F20"/>
<path d="M192.255 17.1709C191.569 17.1709 191.108 16.9608 190.777 16.657C190.611 16.4933 190.481 16.3183 190.374 16.1314C190.339 16.0613 190.351 16.0029 190.421 15.9679L191.048 15.6641C191.119 15.6291 191.167 15.6525 191.203 15.7109C191.439 16.1314 191.853 16.365 192.255 16.365C192.894 16.365 193.426 15.8627 193.426 15.2203V14.0407C193.426 13.9122 193.296 13.8538 193.213 13.9587C192.953 14.2741 192.61 14.4262 192.255 14.4262C190.978 14.4262 190.161 13.6202 190.161 12.4756V9.33363C190.161 9.25187 190.197 9.21682 190.28 9.21682H190.978C191.06 9.21682 191.096 9.25187 191.096 9.33363V12.4756C191.096 13.0945 191.616 13.6202 192.255 13.6202C192.977 13.6202 193.426 13.0244 193.426 12.4756V9.33363C193.426 9.25187 193.462 9.21682 193.545 9.21682H194.231C194.314 9.21682 194.349 9.25187 194.349 9.33363V15.0918C194.349 16.2832 193.651 17.1709 192.255 17.1709Z" fill="#231F20"/>
<path d="M115.483 28.4434H114.797C114.714 28.4434 114.678 28.4084 114.678 28.3266V21.2018C114.678 21.12 114.714 21.0848 114.797 21.0848H115.483C115.566 21.0848 115.601 21.12 115.601 21.2018V28.3266C115.601 28.4084 115.566 28.4434 115.483 28.4434Z" fill="#231F20"/>
<path d="M121.363 28.4434H120.665C120.581 28.4434 120.546 28.4084 120.546 28.3266V25.1729C120.546 24.5538 120.014 24.0284 119.375 24.0284C118.736 24.0284 118.216 24.5421 118.216 25.1729V28.3266C118.216 28.4084 118.18 28.4434 118.097 28.4434H117.4C117.316 28.4434 117.281 28.4084 117.281 28.3266V23.3508C117.281 23.2691 117.316 23.2341 117.4 23.2341H117.979C118.062 23.2341 118.097 23.2691 118.097 23.3508V23.6546C118.097 23.7831 118.216 23.8415 118.299 23.7364C118.618 23.3626 119.008 23.2341 119.375 23.2341C120.653 23.2341 121.481 24.0284 121.481 25.1729V28.3266C121.481 28.4084 121.445 28.4434 121.363 28.4434Z" fill="#231F20"/>
<path d="M125.598 21.704C125.575 21.7624 125.539 21.7857 125.48 21.7857C125.374 21.774 125.315 21.774 125.232 21.774C124.593 21.774 124.072 22.2763 124.072 22.9186V23.6546C124.072 23.7364 124.108 23.7713 124.191 23.7713H125.042C125.125 23.7713 125.161 23.8064 125.161 23.8879V24.4486C125.161 24.5304 125.125 24.5655 125.042 24.5655H124.191C124.108 24.5655 124.072 24.6006 124.072 24.6822V28.3266C124.072 28.4084 124.037 28.4434 123.954 28.4434H123.268C123.185 28.4434 123.149 28.4084 123.149 28.3266V24.6822C123.149 24.6006 123.114 24.5655 123.031 24.5655H122.724C122.641 24.5655 122.605 24.5304 122.605 24.4486V23.8879C122.605 23.8064 122.641 23.7713 122.724 23.7713H123.031C123.114 23.7713 123.149 23.7364 123.149 23.6546V23.0355C123.149 21.8909 124.072 20.9681 125.232 20.9681C125.386 20.9681 125.516 20.9797 125.693 20.9915C125.788 21.0031 125.823 21.0498 125.788 21.1433L125.598 21.704Z" fill="#231F20"/>
<path d="M129.147 24.9983C129.147 24.4028 128.662 23.9121 127.988 23.9121C127.255 23.9121 126.829 24.4261 126.829 25.0567V26.6802C126.829 27.2758 127.314 27.7665 127.988 27.7665C128.722 27.7665 129.147 27.2525 129.147 26.6219V24.9983ZM127.988 28.5605C126.734 28.5605 125.894 27.7432 125.894 26.6219V25.0567C125.894 23.9472 126.71 23.1178 127.988 23.1178C129.242 23.1178 130.082 23.9355 130.082 25.0567V26.6219C130.082 27.7314 129.266 28.5605 127.988 28.5605Z" fill="#231F20"/>
<path d="M133.774 24.2033C133.715 24.18 133.632 24.1685 133.561 24.1685C132.91 24.1685 132.402 24.6006 132.402 25.2897V28.3266C132.402 28.4084 132.366 28.4434 132.283 28.4434H131.585C131.503 28.4434 131.467 28.4084 131.467 28.3266V23.3508C131.467 23.2691 131.503 23.2341 131.585 23.2341H132.165C132.248 23.2341 132.283 23.2691 132.283 23.3508V23.8298C132.283 23.9583 132.402 24.0167 132.484 23.9116C132.792 23.4793 133.194 23.2341 133.561 23.2341H133.821C133.904 23.2341 133.928 23.2808 133.928 23.3626V24.0982C133.928 24.1919 133.869 24.2384 133.774 24.2033Z" fill="#231F20"/>
<path d="M141.558 28.4434H140.86C140.777 28.4434 140.742 28.4084 140.742 28.3266V25.1729C140.742 24.5421 140.198 24.0284 139.701 24.0284C139.239 24.0284 138.659 24.5304 138.659 25.1729V28.3266C138.659 28.4084 138.624 28.4434 138.541 28.4434H137.843C137.761 28.4434 137.725 28.4084 137.725 28.3266V25.1729C137.725 24.5421 137.181 24.0284 136.684 24.0284C136.211 24.0284 135.643 24.5304 135.643 25.1729V28.3266C135.643 28.4084 135.607 28.4434 135.525 28.4434H134.827C134.744 28.4434 134.708 28.4084 134.708 28.3266V23.3508C134.708 23.2691 134.744 23.2341 134.827 23.2341H135.406C135.489 23.2341 135.525 23.2691 135.525 23.3508V23.6546C135.525 23.7831 135.619 23.8415 135.714 23.748C136.045 23.3859 136.447 23.2341 136.802 23.2341C137.228 23.2341 137.761 23.4093 138.104 23.8415C138.163 23.9233 138.234 23.9116 138.293 23.8415C138.672 23.421 139.168 23.2341 139.701 23.2341C140.825 23.2341 141.676 24.0284 141.676 25.1729V28.3266C141.676 28.4084 141.641 28.4434 141.558 28.4434Z" fill="#231F20"/>
<path d="M146.007 26.3527C146.007 26.271 145.971 26.2356 145.889 26.2356H144.434C144.09 26.2356 143.818 26.5043 143.818 26.843V27.0299C143.818 27.357 144.09 27.6374 144.434 27.6374H144.895C145.404 27.6374 145.865 27.1818 146.007 26.7145V26.3527ZM146.823 28.4434H146.255C146.173 28.4434 146.137 28.4084 146.137 28.3266V27.9995C146.137 27.871 146.019 27.8126 145.924 27.906C145.581 28.2448 145.167 28.4434 144.895 28.4434H144.434C143.582 28.4434 142.896 27.8827 142.896 27.0299V26.9599C142.896 26.1071 143.582 25.5583 144.434 25.5583H145.889C145.971 25.5583 146.007 25.5233 146.007 25.4416V25.0444C146.007 24.4137 145.486 23.9233 144.836 23.9233C144.445 23.9233 144.055 24.1218 143.795 24.5655C143.759 24.6239 143.7 24.6473 143.629 24.6122L143.026 24.2971C142.955 24.2617 142.931 24.2033 142.978 24.1335C143.108 23.9233 143.262 23.7246 143.463 23.5728C143.795 23.3041 144.244 23.129 144.836 23.129C146.113 23.129 146.941 23.8879 146.941 25.0444V28.3266C146.941 28.4084 146.906 28.4434 146.823 28.4434Z" fill="#231F20"/>
<path d="M150.467 28.5491C149.982 28.5024 149.58 28.3388 149.272 28.1052C148.835 27.7547 148.586 27.2408 148.586 26.61V24.1457C148.586 24.0639 148.551 24.0289 148.468 24.0289H147.806C147.723 24.0289 147.687 23.9936 147.687 23.9121V23.5967L149.036 22.1951C149.048 22.1835 149.095 22.1601 149.119 22.1601H149.403C149.485 22.1601 149.521 22.1951 149.521 22.2769V23.1178C149.521 23.1996 149.556 23.2346 149.639 23.2346H150.479C150.562 23.2346 150.597 23.2696 150.597 23.3514V23.9121C150.597 23.9936 150.562 24.0289 150.479 24.0289H149.639C149.556 24.0289 149.521 24.0639 149.521 24.1457V26.61C149.521 27.1473 149.899 27.6145 150.503 27.7314C150.562 27.7431 150.597 27.7781 150.597 27.8482V28.4323C150.597 28.5141 150.55 28.5605 150.467 28.5491Z" fill="#231F20"/>
<path d="M152.42 28.4434H151.722C151.639 28.4434 151.603 28.4084 151.603 28.3266V23.3508C151.603 23.2691 151.639 23.2341 151.722 23.2341H152.42C152.503 23.2341 152.538 23.2691 152.538 23.3508V28.3266C152.538 28.4084 152.503 28.4434 152.42 28.4434ZM152.065 22.1244C151.734 22.1244 151.485 21.8675 151.485 21.5404C151.485 21.2251 151.745 20.9681 152.065 20.9681C152.396 20.9681 152.656 21.2134 152.656 21.5404C152.656 21.8558 152.396 22.1244 152.065 22.1244Z" fill="#231F20"/>
<path d="M157.176 24.9983C157.176 24.4028 156.691 23.9121 156.017 23.9121C155.283 23.9121 154.857 24.4261 154.857 25.0567V26.6802C154.857 27.2758 155.342 27.7665 156.017 27.7665C156.75 27.7665 157.176 27.2525 157.176 26.6219V24.9983ZM156.017 28.5605C154.762 28.5605 153.922 27.7432 153.922 26.6219V25.0567C153.922 23.9472 154.739 23.1178 156.017 23.1178C157.27 23.1178 158.11 23.9355 158.11 25.0567V26.6219C158.11 27.7314 157.294 28.5605 156.017 28.5605Z" fill="#231F20"/>
<path d="M163.576 28.4434H162.878C162.795 28.4434 162.76 28.4084 162.76 28.3266V25.1729C162.76 24.5538 162.228 24.0284 161.589 24.0284C160.95 24.0284 160.43 24.5421 160.43 25.1729V28.3266C160.43 28.4084 160.394 28.4434 160.311 28.4434H159.613C159.53 28.4434 159.495 28.4084 159.495 28.3266V23.3508C159.495 23.2691 159.53 23.2341 159.613 23.2341H160.193C160.276 23.2341 160.311 23.2691 160.311 23.3508V23.6546C160.311 23.7831 160.43 23.8415 160.512 23.7364C160.832 23.3626 161.222 23.2341 161.589 23.2341C162.867 23.2341 163.695 24.0284 163.695 25.1729V28.3266C163.695 28.4084 163.659 28.4434 163.576 28.4434Z" fill="#231F20"/>
<path d="M171.456 21.8909H168.427C168.344 21.8909 168.309 21.9259 168.309 22.0076V24.1919C168.309 24.2736 168.344 24.3085 168.427 24.3085H170.912C170.994 24.3085 171.03 24.3435 171.03 24.4255V24.9977C171.03 25.0795 170.994 25.1145 170.912 25.1145H168.427C168.344 25.1145 168.309 25.1495 168.309 25.2313V28.3266C168.309 28.4084 168.274 28.4434 168.191 28.4434H167.505C167.422 28.4434 167.386 28.4084 167.386 28.3266V21.2018C167.386 21.12 167.422 21.0848 167.505 21.0848H171.456C171.539 21.0848 171.574 21.12 171.574 21.2018V21.774C171.574 21.8558 171.539 21.8909 171.456 21.8909Z" fill="#231F20"/>
<path d="M174.84 26.3527C174.84 26.271 174.804 26.2356 174.722 26.2356H173.266C172.923 26.2356 172.651 26.5043 172.651 26.843V27.0299C172.651 27.357 172.923 27.6374 173.266 27.6374H173.728C174.237 27.6374 174.698 27.1818 174.84 26.7145V26.3527ZM175.656 28.4434H175.088C175.005 28.4434 174.97 28.4084 174.97 28.3266V27.9995C174.97 27.871 174.852 27.8126 174.757 27.906C174.414 28.2448 174 28.4434 173.728 28.4434H173.266C172.414 28.4434 171.728 27.8827 171.728 27.0299V26.9599C171.728 26.1071 172.414 25.5583 173.266 25.5583H174.722C174.804 25.5583 174.84 25.5233 174.84 25.4416V25.0444C174.84 24.4137 174.319 23.9233 173.668 23.9233C173.278 23.9233 172.888 24.1218 172.627 24.5655C172.592 24.6239 172.533 24.6473 172.462 24.6122L171.859 24.2971C171.787 24.2617 171.764 24.2033 171.811 24.1335C171.941 23.9233 172.095 23.7246 172.296 23.5728C172.627 23.3041 173.077 23.129 173.668 23.129C174.946 23.129 175.774 23.8879 175.774 25.0444V28.3266C175.774 28.4084 175.739 28.4434 175.656 28.4434Z" fill="#231F20"/>
<path d="M180.625 28.0935C180.306 28.3739 179.856 28.5605 179.194 28.5605C177.916 28.5605 177.1 27.7197 177.1 26.61V25.0567C177.1 23.9472 177.916 23.1178 179.194 23.1178C179.856 23.1178 180.306 23.3047 180.625 23.5734C180.814 23.737 180.956 23.9239 181.075 24.1341C181.11 24.2039 181.087 24.2623 181.016 24.2977L180.389 24.6128C180.329 24.6479 180.282 24.6245 180.247 24.5661C179.998 24.1572 179.596 23.9121 179.194 23.9121C178.46 23.9121 178.034 24.4261 178.034 25.0567V26.61C178.034 27.2409 178.46 27.7548 179.194 27.7548C179.596 27.7548 179.998 27.5212 180.247 27.0889C180.282 27.0305 180.341 27.0072 180.4 27.0425L181.027 27.3576C181.098 27.3927 181.11 27.4394 181.075 27.5094C180.956 27.7197 180.814 27.9183 180.625 28.0935Z" fill="#231F20"/>
<path d="M183.039 28.4434H182.341C182.258 28.4434 182.223 28.4084 182.223 28.3266V23.3508C182.223 23.2691 182.258 23.2341 182.341 23.2341H183.039C183.122 23.2341 183.157 23.2691 183.157 23.3508V28.3266C183.157 28.4084 183.122 28.4434 183.039 28.4434ZM182.684 22.1244C182.353 22.1244 182.104 21.8675 182.104 21.5404C182.104 21.2251 182.365 20.9681 182.684 20.9681C183.015 20.9681 183.276 21.2134 183.276 21.5404C183.276 21.8558 183.015 22.1244 182.684 22.1244Z" fill="#231F20"/>
<path d="M185.536 28.4434H184.838C184.755 28.4434 184.719 28.4084 184.719 28.3266V21.2018C184.719 21.12 184.755 21.0848 184.838 21.0848H185.536C185.618 21.0848 185.654 21.12 185.654 21.2018V28.3266C185.654 28.4084 185.618 28.4434 185.536 28.4434Z" fill="#231F20"/>
<path d="M188.032 28.4434H187.334C187.251 28.4434 187.215 28.4084 187.215 28.3266V23.3508C187.215 23.2691 187.251 23.2341 187.334 23.2341H188.032C188.115 23.2341 188.15 23.2691 188.15 23.3508V28.3266C188.15 28.4084 188.115 28.4434 188.032 28.4434ZM187.677 22.1244C187.346 22.1244 187.097 21.8675 187.097 21.5404C187.097 21.2251 187.357 20.9681 187.677 20.9681C188.008 20.9681 188.268 21.2134 188.268 21.5404C188.268 21.8558 188.008 22.1244 187.677 22.1244Z" fill="#231F20"/>
<path d="M191.735 28.5491C191.25 28.5024 190.848 28.3388 190.54 28.1052C190.102 27.7547 189.854 27.2408 189.854 26.61V24.1457C189.854 24.0639 189.819 24.0289 189.736 24.0289H189.073C188.99 24.0289 188.955 23.9936 188.955 23.9121V23.5967L190.304 22.1951C190.315 22.1835 190.363 22.1601 190.386 22.1601H190.67C190.753 22.1601 190.788 22.1951 190.788 22.2769V23.1178C190.788 23.1996 190.824 23.2346 190.907 23.2346H191.747C191.83 23.2346 191.865 23.2696 191.865 23.3514V23.9121C191.865 23.9936 191.83 24.0289 191.747 24.0289H190.907C190.824 24.0289 190.788 24.0639 190.788 24.1457V26.61C190.788 27.1473 191.167 27.6145 191.77 27.7314C191.83 27.7431 191.865 27.7781 191.865 27.8482V28.4323C191.865 28.5141 191.818 28.5605 191.735 28.5491Z" fill="#231F20"/>
<path d="M194.905 31.1885C194.219 31.1885 193.758 30.9782 193.427 30.6746C193.261 30.511 193.131 30.3358 193.025 30.1488C192.989 30.0788 193.001 30.0204 193.072 29.9854L193.699 29.6816C193.77 29.6466 193.817 29.6699 193.853 29.7283C194.089 30.1488 194.503 30.3825 194.905 30.3825C195.544 30.3825 196.077 29.8803 196.077 29.2378V28.0582C196.077 27.9297 195.947 27.8713 195.864 27.9764C195.604 28.2918 195.261 28.4436 194.905 28.4436C193.628 28.4436 192.812 27.6377 192.812 26.4931V23.3511C192.812 23.2693 192.847 23.2344 192.93 23.2344H193.628C193.711 23.2344 193.746 23.2693 193.746 23.3511V26.4931C193.746 27.112 194.267 27.6377 194.905 27.6377C195.627 27.6377 196.077 27.0422 196.077 26.4931V23.3511C196.077 23.2693 196.112 23.2344 196.195 23.2344H196.881C196.964 23.2344 197 23.2693 197 23.3511V29.1093C197 30.3008 196.302 31.1885 194.905 31.1885Z" fill="#231F20"/>
</g>
<defs>
<clipPath id="clip0_477_30026">
<rect width="197" height="40" fill="white"/>
</clipPath>
</defs>
</svg>
