<svg width="24" height="24" viewBox="0 0 24 24" fill="none" xmlns="http://www.w3.org/2000/svg">
<g clip-path="url(#clip0_3554_11922)">
<path d="M22.1043 2.78961C20.9808 1.66992 19.3995 1.07812 17.5312 1.07812C15.4896 1.07812 13.7256 1.94733 12.4297 3.59161C12.2794 3.78241 12.1437 3.97339 12.0218 4.15997C11.9048 3.97577 11.7742 3.78735 11.629 3.59912C10.3561 1.94989 8.57172 1.07812 6.46875 1.07812C4.60052 1.07812 3.01923 1.66992 1.89569 2.78961C0.637756 4.04333 0 5.87531 0 8.23444C0 10.5245 1.33942 13.2722 3.98126 16.4011C5.99579 18.7874 8.45709 20.9951 10.0887 22.2654C10.6514 22.7036 11.3256 22.9226 12 22.9226C12.6742 22.9226 13.3488 22.7036 13.9113 22.2654C14.4542 21.8427 15.5678 20.9416 16.9254 19.6555C17.3013 19.2995 17.3172 18.7061 16.9612 18.3301C16.6051 17.9542 16.0118 17.9383 15.6359 18.2943C14.3357 19.526 13.2755 20.384 12.7593 20.7859C12.3122 21.1342 11.6878 21.1342 11.2407 20.7859C9.68372 19.5738 7.33539 17.4675 5.41388 15.1917C3.09869 12.4495 1.875 10.0439 1.875 8.23444C1.875 3.86938 4.37311 2.95312 6.46875 2.95312C10.0732 2.95312 11.0522 6.4151 11.0938 6.56818C11.0949 6.57275 11.0967 6.57697 11.098 6.58154C11.1041 6.60297 11.1108 6.62402 11.1183 6.6449C11.1215 6.65369 11.1246 6.66248 11.1281 6.67108C11.1359 6.69122 11.1445 6.711 11.1537 6.73059C11.1577 6.73883 11.1616 6.74725 11.1658 6.75531C11.176 6.77527 11.1868 6.79449 11.1984 6.81372C11.2024 6.82013 11.2062 6.82672 11.2103 6.83313C11.2236 6.85437 11.2381 6.87469 11.2533 6.89484C11.2557 6.89795 11.2579 6.90125 11.2603 6.90417C11.3767 7.05469 11.5391 7.17169 11.7354 7.22937C12.1575 7.35315 12.5958 7.16693 12.8079 6.80365C12.8082 6.80292 12.8088 6.802 12.8093 6.80109C12.822 6.77911 12.8337 6.75677 12.8447 6.73352C12.8481 6.72638 12.8514 6.71924 12.8547 6.7121C12.8624 6.69489 12.8696 6.67731 12.8762 6.65936C12.8818 6.6449 12.8868 6.63025 12.8915 6.61542C12.8937 6.60864 12.8965 6.60223 12.8985 6.59546C12.9014 6.58594 13.1951 5.63049 13.9389 4.70618C14.8749 3.54291 16.0836 2.95312 17.5312 2.95312C19.6269 2.95312 22.125 3.86938 22.125 8.23444C22.125 9.98309 20.9832 12.2474 18.7313 14.9643C18.401 15.3629 18.4563 15.9538 18.8549 16.2843C19.0298 16.4293 19.2418 16.5 19.4526 16.5C19.7221 16.5 19.9896 16.3845 20.1749 16.1607C22.7488 13.0554 24 10.4626 24 8.23444C24 5.87531 23.3622 4.04333 22.1043 2.78961Z" fill="#000345"/>
</g>
<defs>
<clipPath id="clip0_3554_11922">
<rect width="24" height="24" fill="white"/>
</clipPath>
</defs>
</svg>
