<svg width="16" height="16" viewBox="0 0 16 16" fill="none" xmlns="http://www.w3.org/2000/svg">
<path d="M15.9889 5.3166C15.9845 5.26081 15.9796 5.21804 15.9752 5.18867C15.7513 2.65391 13.8917 0.647583 11.4783 0.647583C10.0801 0.647583 8.80234 1.30923 7.9657 2.38185C7.14858 1.30201 5.91951 0.647583 4.52872 0.647583C2.1235 0.647583 0.268152 2.64032 0.0292673 5.20308C0.0246751 5.23294 0.0200518 5.2693 0.0158345 5.31207C-0.0249949 5.72611 0.0089619 6.27473 0.16675 6.94318C0.502007 8.3634 1.28598 9.65695 2.39172 10.6593L7.54078 15.1865C7.79157 15.407 8.16688 15.4078 8.41863 15.1884L13.6055 10.6687C14.828 9.39635 15.5546 8.25182 15.8427 6.93297C15.9872 6.27064 16.0209 5.72561 15.9889 5.3166Z" fill="#000345"/>
</svg>
