<svg width="16" height="16" viewBox="0 0 16 16" fill="none" xmlns="http://www.w3.org/2000/svg">
<path d="M8.46967 12.5303C8.76256 12.8232 9.23744 12.8232 9.53033 12.5303C9.82322 12.2374 9.82322 11.7626 9.53033 11.4697L8.46967 12.5303ZM5 8L4.46967 7.46967C4.17678 7.76256 4.17678 8.23744 4.46967 8.53033L5 8ZM9.53033 4.53033C9.82322 4.23744 9.82322 3.76256 9.53033 3.46967C9.23744 3.17678 8.76256 3.17678 8.46967 3.46967L9.53033 4.53033ZM9.53033 11.4697L5.53033 7.46967L4.46967 8.53033L8.46967 12.5303L9.53033 11.4697ZM5.53033 8.53033L9.53033 4.53033L8.46967 3.46967L4.46967 7.46967L5.53033 8.53033Z" fill="#000345"/>
</svg>
