<svg width="16" height="16" viewBox="0 0 16 16" fill="none" xmlns="http://www.w3.org/2000/svg">
<path d="M16 6.78817C16 5.92511 15.2978 5.22295 14.4348 5.22295H10.66L11.2095 3.72377C11.2113 3.71892 11.213 3.71411 11.2146 3.70923C11.4794 2.9148 11.4128 2.08123 11.0218 1.29845C10.7267 0.708359 10.1337 0.341797 9.47422 0.341797H9.29084C8.84672 0.341797 8.47106 0.688766 8.43553 1.13161C8.37347 1.90602 8.04131 2.63952 7.50028 3.19727L4.47722 6.26645H4.17391V5.7447C4.17391 5.45658 3.94031 5.22295 3.65216 5.22295H0.52175C0.233594 5.22295 0 5.45658 0 5.7447V15.136C0 15.4241 0.233594 15.6578 0.52175 15.6578H3.65219C3.94031 15.6578 4.17394 15.4242 4.17394 15.136V14.6143H12.8696C13.7327 14.6143 14.4348 13.9121 14.4348 13.049C14.4348 12.7702 14.3616 12.5081 14.2332 12.2811C14.6679 12.0027 14.9566 11.5155 14.9566 10.9621C14.9566 10.6832 14.8833 10.4212 14.7549 10.1942C15.1897 9.91577 15.4783 9.42855 15.4783 8.87511C15.4783 8.59623 15.4051 8.3342 15.2767 8.1072C15.7113 7.82886 16 7.34161 16 6.78817ZM3.13044 14.6143H1.04347V6.26645H3.13044V14.6143ZM14.4348 7.30992H12.8696C12.5814 7.30992 12.3478 7.54352 12.3478 7.83167C12.3478 8.11983 12.5814 8.35342 12.8696 8.35342H13.913C14.2007 8.35342 14.4348 8.58749 14.4348 8.87517C14.4348 9.16286 14.2007 9.39692 13.913 9.39692H12.3478C12.0597 9.39692 11.8261 9.63052 11.8261 9.91867C11.8261 10.2068 12.0597 10.4404 12.3478 10.4404H13.3913C13.679 10.4404 13.913 10.6745 13.913 10.9622C13.913 11.2499 13.679 11.4839 13.3913 11.4839H12.8695C12.8422 11.4839 12.8156 11.4867 12.7893 11.4907H11.7914C11.5033 11.4907 11.2697 11.7243 11.2697 12.0125C11.2697 12.3006 11.5033 12.5342 11.7914 12.5342H12.8349C12.8583 12.5342 12.8811 12.5321 12.9037 12.5291C13.1755 12.5469 13.3913 12.773 13.3913 13.0491C13.3913 13.3368 13.1572 13.5709 12.8695 13.5709H4.17391V7.30989H4.69566C4.83541 7.30989 4.96928 7.25383 5.06738 7.15427L8.24509 3.92805L8.24766 3.92539C8.91825 3.23483 9.34441 2.33839 9.45866 1.3852H9.47422C9.73594 1.3852 9.97134 1.53077 10.0884 1.76489C10.3557 2.29992 10.4022 2.84064 10.2269 3.37227L9.42316 5.56511C9.36447 5.72514 9.38772 5.90374 9.48531 6.04345C9.58291 6.18317 9.74256 6.26642 9.91303 6.26642H14.4348C14.7225 6.26642 14.9565 6.50049 14.9565 6.78817C14.9565 7.07586 14.7225 7.30992 14.4348 7.30992Z" fill="#0059DE"/>
</svg>
