<svg width="21" height="22" viewBox="0 0 21 22" fill="none" xmlns="http://www.w3.org/2000/svg">
<path d="M10.5009 2.97059C11.1832 2.97059 11.7362 2.41753 11.7362 1.73529C11.7362 1.05306 11.1832 0.5 10.5009 0.5C9.81868 0.5 9.26562 1.05306 9.26562 1.73529C9.26562 2.41753 9.81868 2.97059 10.5009 2.97059Z" fill="#000345"/>
<path opacity="0.3" d="M10.5009 21.4999C11.1832 21.4999 11.7362 20.9468 11.7362 20.2646C11.7362 19.5824 11.1832 19.0293 10.5009 19.0293C9.81868 19.0293 9.26562 19.5824 9.26562 20.2646C9.26562 20.9468 9.81868 21.4999 10.5009 21.4999Z" fill="black"/>
<path opacity="0.3" d="M15.1337 4.20594C15.816 4.20594 16.369 3.65288 16.369 2.97065C16.369 2.28841 15.816 1.73535 15.1337 1.73535C14.4515 1.73535 13.8984 2.28841 13.8984 2.97065C13.8984 3.65288 14.4515 4.20594 15.1337 4.20594Z" fill="black"/>
<path opacity="0.3" d="M5.86811 20.2645C6.55034 20.2645 7.1034 19.7115 7.1034 19.0292C7.1034 18.347 6.55034 17.7939 5.86811 17.7939C5.18587 17.7939 4.63281 18.347 4.63281 19.0292C4.63281 19.7115 5.18587 20.2645 5.86811 20.2645Z" fill="black"/>
<path opacity="0.93" d="M5.86811 4.20594C6.55034 4.20594 7.1034 3.65288 7.1034 2.97065C7.1034 2.28841 6.55034 1.73535 5.86811 1.73535C5.18587 1.73535 4.63281 2.28841 4.63281 2.97065C4.63281 3.65288 5.18587 4.20594 5.86811 4.20594Z" fill="black"/>
<path opacity="0.3" d="M15.1337 20.2645C15.816 20.2645 16.369 19.7115 16.369 19.0292C16.369 18.347 15.816 17.7939 15.1337 17.7939C14.4515 17.7939 13.8984 18.347 13.8984 19.0292C13.8984 19.7115 14.4515 20.2645 15.1337 20.2645Z" fill="black"/>
<path opacity="0.65" d="M1.23529 12.2352C1.91753 12.2352 2.47059 11.6822 2.47059 10.9999C2.47059 10.3177 1.91753 9.76465 1.23529 9.76465C0.55306 9.76465 0 10.3177 0 10.9999C0 11.6822 0.55306 12.2352 1.23529 12.2352Z" fill="black"/>
<path opacity="0.3" d="M19.7665 12.2352C20.4488 12.2352 21.0018 11.6822 21.0018 10.9999C21.0018 10.3177 20.4488 9.76465 19.7665 9.76465C19.0843 9.76465 18.5312 10.3177 18.5312 10.9999C18.5312 11.6822 19.0843 12.2352 19.7665 12.2352Z" fill="black"/>
<path opacity="0.86" d="M2.46967 7.6034C3.1519 7.6034 3.70496 7.05034 3.70496 6.36811C3.70496 5.68587 3.1519 5.13281 2.46967 5.13281C1.78744 5.13281 1.23438 5.68587 1.23438 6.36811C1.23438 7.05034 1.78744 7.6034 2.46967 7.6034Z" fill="black"/>
<path opacity="0.3" d="M18.5283 16.8681C19.2105 16.8681 19.7636 16.315 19.7636 15.6328C19.7636 14.9505 19.2105 14.3975 18.5283 14.3975C17.846 14.3975 17.293 14.9505 17.293 15.6328C17.293 16.315 17.846 16.8681 18.5283 16.8681Z" fill="black"/>
<path opacity="0.44" d="M2.46967 16.8681C3.1519 16.8681 3.70496 16.315 3.70496 15.6328C3.70496 14.9505 3.1519 14.3975 2.46967 14.3975C1.78744 14.3975 1.23438 14.9505 1.23438 15.6328C1.23438 16.315 1.78744 16.8681 2.46967 16.8681Z" fill="black"/>
<path opacity="0.3" d="M18.5283 7.6034C19.2105 7.6034 19.7636 7.05034 19.7636 6.36811C19.7636 5.68587 19.2105 5.13281 18.5283 5.13281C17.846 5.13281 17.293 5.68587 17.293 6.36811C17.293 7.05034 17.846 7.6034 18.5283 7.6034Z" fill="black"/>
</svg>
