<svg width="24" height="24" viewBox="0 0 24 24" fill="none" xmlns="http://www.w3.org/2000/svg">
<g clip-path="url(#clip0_1136_37966)">
<path d="M12.9357 11.7895C12.9357 11.2727 12.5168 10.8538 12 10.8538C10.5554 10.8538 9.38013 9.67857 9.38013 8.23393C9.38013 6.78929 10.5554 5.61404 12 5.61404C13.4447 5.61404 14.6199 6.78929 14.6199 8.23393C14.6199 8.75068 15.0388 9.1696 15.5556 9.1696C16.0723 9.1696 16.4913 8.75068 16.4913 8.23393C16.4913 5.75743 14.4765 3.74269 12 3.74269C9.52352 3.74269 7.50878 5.75743 7.50878 8.23393C7.50878 10.7104 9.52352 12.7252 12 12.7252C12.5168 12.7252 12.9357 12.3062 12.9357 11.7895Z" fill="#0059DE"/>
<path d="M23.7466 20.7992L21.9874 17.2275C21.5718 16.3837 20.7293 15.8596 19.7888 15.8596H18.8305C18.3137 15.8596 17.8948 16.2785 17.8948 16.7953C17.8948 17.312 18.3137 17.7309 18.8305 17.7309H19.7888C20.0112 17.7309 20.2102 17.8548 20.3085 18.0543L22.0678 21.626C22.1423 21.7772 22.0892 21.9027 22.0511 21.9642C22.0129 22.0256 21.9236 22.1286 21.7551 22.1286H2.24498C2.07652 22.1286 1.98727 22.0256 1.94906 21.9642C1.91086 21.9028 1.85789 21.7772 1.93233 21.6261L3.69159 18.0543C3.7898 17.8548 3.98897 17.731 4.2113 17.731H5.12288C5.63963 17.731 6.05855 17.3121 6.05855 16.7953C6.05855 16.2786 5.63963 15.8596 5.12288 15.8596H4.2113C3.2707 15.8596 2.42827 16.3838 2.01281 17.2275L0.253547 20.7992C-0.0877031 21.492 -0.0478593 22.2971 0.360141 22.9528C0.768094 23.6085 1.47267 24 2.24498 24H21.7552C22.5274 24 23.232 23.6085 23.64 22.9528C24.048 22.2971 24.0878 21.492 23.7466 20.7992Z" fill="#0059DE"/>
<path d="M10.96 19.9614C11.1314 20.233 11.4301 20.3977 11.7512 20.3977H12.2216C12.5427 20.3977 12.8414 20.233 13.0128 19.9614C13.865 18.6113 14.9364 17.4364 15.9726 16.3002C18.0362 14.0371 20.1702 11.6971 20.1735 8.18738C20.1683 3.67289 16.4956 0 11.9864 0C7.47721 0 3.80446 3.67289 3.79926 8.18944C3.80263 11.6971 5.93657 14.0372 8.00024 16.3002C9.03636 17.4364 10.1078 18.6114 10.96 19.9614ZM11.9864 1.87134C15.4649 1.87134 18.2982 4.70569 18.3022 8.18761C18.2995 10.9712 16.5804 12.8564 14.5898 15.0393C13.7066 16.0079 12.7991 17.003 11.9864 18.1376C11.1738 17.003 10.2663 16.0079 9.38296 15.0393C7.39241 12.8564 5.67332 10.9712 5.6706 8.18958C5.67463 4.70569 8.50785 1.87134 11.9864 1.87134Z" fill="#0059DE"/>
</g>
<defs>
<clipPath id="clip0_1136_37966">
<rect width="24" height="24" fill="white"/>
</clipPath>
</defs>
</svg>
