<svg width="24" height="24" viewBox="0 0 24 24" fill="none" xmlns="http://www.w3.org/2000/svg">
<path d="M15.8437 17.1562C16.3615 17.1562 16.7812 16.7365 16.7812 16.2187C16.7812 15.7009 16.3615 15.2812 15.8437 15.2812C15.3259 15.2812 14.9062 15.7009 14.9062 16.2187C14.9062 16.7365 15.3259 17.1562 15.8437 17.1562Z" fill="#000345"/>
<path d="M11.1562 22.1259H3.74999C2.71611 22.1259 1.87499 21.2848 1.87499 20.2509V12.5634C1.87499 11.5296 2.71611 10.6884 3.74999 10.6884H17.2499C18.2838 10.6884 19.1249 11.5296 19.1249 12.5634V14.4384C19.1249 14.9562 19.5446 15.3759 20.0624 15.3759C20.5802 15.3759 20.9999 14.9562 20.9999 14.4384V12.5634C20.9999 10.4957 19.3177 8.81344 17.2499 8.81344H16.1232V5.50717C16.1232 2.47104 13.5998 0.000976562 10.4982 0.000976562C7.39661 0.000976562 4.87325 2.47104 4.87325 5.50717V8.81344H3.74999C1.68224 8.81344 0 10.4957 0 12.5634V20.2509C0 22.3186 1.68224 24.0009 3.74999 24.0009H11.1562C11.674 24.0009 12.0937 23.5812 12.0937 23.0634C12.0937 22.5456 11.674 22.1259 11.1562 22.1259ZM6.74824 5.50717C6.74824 3.50492 8.43048 1.87597 10.4982 1.87597C12.566 1.87597 14.2482 3.50492 14.2482 5.50717V8.81344H6.74824V5.50717Z" fill="#000345"/>
<path d="M23.6082 15.2689C23.1871 14.9675 22.6014 15.0645 22.3002 15.4855L17.6792 21.9402C17.553 22.0865 17.3949 22.1181 17.3101 22.1237C17.2232 22.1295 17.0559 22.1185 16.9085 21.9802L13.9222 19.066C13.5516 18.7043 12.9581 18.7117 12.5965 19.0822C12.2349 19.4527 12.2421 20.0462 12.6127 20.4079L15.6042 23.3273C15.607 23.33 15.6098 23.3327 15.6127 23.3354C16.0611 23.7624 16.6598 23.9999 17.2757 23.9999C17.3286 23.9999 17.3817 23.9982 17.4347 23.9946C18.1057 23.9499 18.7322 23.6236 19.1535 23.0994C19.1643 23.0858 19.1748 23.072 19.185 23.0578L23.8247 16.5769C24.1261 16.1559 24.0292 15.5703 23.6082 15.2689Z" fill="#000345"/>
<path d="M12.2812 17.1562C12.799 17.1562 13.2187 16.7365 13.2187 16.2187C13.2187 15.7009 12.799 15.2812 12.2812 15.2812C11.7634 15.2812 11.3437 15.7009 11.3437 16.2187C11.3437 16.7365 11.7634 17.1562 12.2812 17.1562Z" fill="#000345"/>
<path d="M5.24998 17.1562C5.76774 17.1562 6.18748 16.7365 6.18748 16.2187C6.18748 15.7009 5.76774 15.2812 5.24998 15.2812C4.73221 15.2812 4.31248 15.7009 4.31248 16.2187C4.31248 16.7365 4.73221 17.1562 5.24998 17.1562Z" fill="#000345"/>
<path d="M8.76559 17.1562C9.28336 17.1562 9.70309 16.7365 9.70309 16.2187C9.70309 15.7009 9.28336 15.2812 8.76559 15.2812C8.24783 15.2812 7.82809 15.7009 7.82809 16.2187C7.82809 16.7365 8.24783 17.1562 8.76559 17.1562Z" fill="#000345"/>
</svg>
