<svg width="24" height="25" viewBox="0 0 24 25" fill="none" xmlns="http://www.w3.org/2000/svg">
<g clip-path="url(#clip0_2886_36974)">
<path d="M23.6265 1.3918C23.3913 1.21466 23.0866 1.15836 22.8036 1.23955C21.7178 1.55145 20.3337 1.46347 18.5814 1.352C17.4842 1.2822 16.2406 1.20312 14.8125 1.20312C13.6932 1.20312 12.6877 1.69662 12 2.47667C11.3123 1.69662 10.3067 1.20312 9.18748 1.20312C7.75934 1.20312 6.51575 1.2822 5.41854 1.352C3.66631 1.46342 2.28219 1.55141 1.19628 1.23959C0.913388 1.15831 0.608654 1.2147 0.373435 1.39184C0.138263 1.56889 -1.77803e-05 1.8462 -1.77803e-05 2.14062V17.6936C-0.00259591 18.697 0.386279 19.6409 1.09489 20.3514C1.80359 21.0619 2.74648 21.4531 3.74998 21.4531H11.0625C11.0625 21.9709 11.4822 22.3906 12 22.3906C12.5178 22.3906 12.9375 21.9709 12.9375 21.4531V4.95312C12.9375 3.91925 13.7786 3.07812 14.8125 3.07812C16.181 3.07812 17.3931 3.15519 18.4624 3.2232C19.8609 3.31208 21.0467 3.3875 22.125 3.2705V17.7031C22.125 18.2209 22.5447 18.6406 23.0625 18.6406C23.5803 18.6406 24 18.2209 24 17.7031V2.14062C24 1.8462 23.8617 1.56889 23.6265 1.3918ZM1.87498 3.27055C2.95325 3.3875 4.13914 3.31212 5.53756 3.2232C6.60692 3.15523 7.81892 3.07812 9.18748 3.07812C10.2214 3.07812 11.0625 3.91925 11.0625 4.95312V15.8753C10.911 15.8444 10.7542 15.8281 10.5937 15.8281H3.74998C2.71611 15.8281 1.87498 14.987 1.87498 13.9531V3.27055ZM3.74998 19.5781C3.24823 19.5781 2.77676 19.3825 2.42244 19.0272C2.06811 18.672 1.87372 18.2001 1.87498 17.696V17.1986C2.42703 17.5188 3.0672 17.7031 3.74998 17.7031H10.5937C10.8522 17.7031 11.0625 17.9134 11.0625 18.1719V19.5781H3.74998ZM18.4729 9.85827C18.3127 9.5555 18 9.36425 17.6575 9.35947C17.3153 9.35483 16.9971 9.53712 16.8284 9.83525L14.8872 13.2667C14.8075 13.4075 14.7656 13.5665 14.7656 13.7284V20.9844C14.7656 22.5352 16.0273 23.7969 17.5781 23.7969C19.1289 23.7969 20.3906 22.5352 20.3906 20.9844V13.7135C20.3906 13.5605 20.3532 13.4099 20.2817 13.2748L18.4729 9.85827ZM17.6171 12.2491L18.5156 13.9463V18.875H16.6406V13.9752L17.6171 12.2491ZM17.5781 21.9219C17.0612 21.9219 16.6406 21.5013 16.6406 20.9844V20.75H18.5156V20.9844C18.5156 21.5013 18.0951 21.9219 17.5781 21.9219Z" fill="#0059DE"/>
</g>
<defs>
<clipPath id="clip0_2886_36974">
<rect width="24" height="24" fill="white" transform="translate(0 0.5)"/>
</clipPath>
</defs>
</svg>
