<svg width="24" height="24" viewBox="0 0 24 24" fill="none" xmlns="http://www.w3.org/2000/svg">
<g clip-path="url(#clip0_3069_9768)">
<path d="M23.6266 0.891797C23.3913 0.714656 23.0866 0.658359 22.8037 0.739547C21.7178 1.05145 20.3337 0.963469 18.5814 0.852C17.4842 0.782203 16.2407 0.703125 14.8125 0.703125C13.6933 0.703125 12.6877 1.19662 12 1.97667C11.3123 1.19662 10.3067 0.703125 9.18751 0.703125C7.75937 0.703125 6.51578 0.782203 5.41858 0.852C3.66634 0.963422 2.28222 1.05141 1.19631 0.739594C0.913419 0.658312 0.608685 0.714703 0.373466 0.891844C0.138294 1.06889 1.27373e-05 1.3462 1.27373e-05 1.64062V17.1936C-0.00256539 18.197 0.38631 19.1409 1.09492 19.8514C1.80362 20.5619 2.74651 20.9531 3.75001 20.9531H11.0625C11.0625 21.4709 11.4822 21.8906 12 21.8906C12.5178 21.8906 12.9375 21.4709 12.9375 20.9531V4.45312C12.9375 3.41925 13.7786 2.57812 14.8125 2.57812C16.1811 2.57812 17.3931 2.65519 18.4624 2.7232C19.8609 2.81208 21.0467 2.8875 22.125 2.7705V17.2031C22.125 17.7209 22.5447 18.1406 23.0625 18.1406C23.5803 18.1406 24 17.7209 24 17.2031V1.64062C24 1.3462 23.8617 1.06889 23.6266 0.891797ZM1.87501 2.77055C2.95328 2.8875 4.13917 2.81212 5.53759 2.7232C6.60695 2.65523 7.81895 2.57812 9.18751 2.57812C10.2214 2.57812 11.0625 3.41925 11.0625 4.45312V15.3753C10.911 15.3444 10.7543 15.3281 10.5938 15.3281H3.75001C2.71614 15.3281 1.87501 14.487 1.87501 13.4531V2.77055ZM3.75001 19.0781C3.24826 19.0781 2.77679 18.8825 2.42247 18.5272C2.06814 18.172 1.87375 17.7001 1.87501 17.196V16.6986C2.42706 17.0188 3.06723 17.2031 3.75001 17.2031H10.5938C10.8522 17.2031 11.0625 17.4134 11.0625 17.6719V19.0781H3.75001ZM18.473 9.35827C18.3127 9.0555 18.0001 8.86425 17.6575 8.85947C17.3154 8.85483 16.9972 9.03712 16.8285 9.33525L14.8872 12.7667C14.8075 12.9075 14.7656 13.0665 14.7656 13.2284V20.4844C14.7656 22.0352 16.0273 23.2969 17.5781 23.2969C19.129 23.2969 20.3906 22.0352 20.3906 20.4844V13.2135C20.3906 13.0605 20.3532 12.9099 20.2817 12.7748L18.473 9.35827ZM17.6171 11.7491L18.5156 13.4463V18.375H16.6406V13.4752L17.6171 11.7491ZM17.5781 21.4219C17.0612 21.4219 16.6406 21.0013 16.6406 20.4844V20.25H18.5156V20.4844C18.5156 21.0013 18.0951 21.4219 17.5781 21.4219Z" fill="white"/>
</g>
<defs>
<clipPath id="clip0_3069_9768">
<rect width="24" height="24" fill="white"/>
</clipPath>
</defs>
</svg>
