<svg width="70" height="70" viewBox="0 0 70 70" fill="none" xmlns="http://www.w3.org/2000/svg">
<path d="M17.979 64.5312H8.29832C7.13102 64.5312 6.42678 63.8798 6.11096 63.4914C5.56573 62.8206 5.3545 61.9478 5.53182 61.0962C8.37133 47.457 20.4081 37.4963 34.3036 37.1731C34.5351 37.1818 34.7671 37.1875 35.0005 37.1875C35.2359 37.1875 35.4699 37.1816 35.7035 37.1729C39.1013 37.2504 42.4203 37.8893 45.5795 39.0756C46.9931 39.6067 48.5697 38.8907 49.1005 37.4769C49.6314 36.0633 48.9157 34.4868 47.5019 33.9559C47.0492 33.7858 46.5934 33.6267 46.1354 33.4757C50.6609 30.081 53.5942 24.6735 53.5942 18.5938C53.5942 8.34121 45.2531 0 35.0005 0C24.7478 0 16.4067 8.34121 16.4067 18.5938C16.4067 24.679 19.3451 30.0907 23.8774 33.4849C19.7251 34.8518 15.8287 36.9775 12.4186 39.7824C6.1662 44.9254 1.81895 52.0989 0.177913 59.9817C-0.336423 62.4516 0.279632 64.9886 1.86817 66.9417C3.44864 68.8853 5.79241 70 8.29832 70H17.979C19.4892 70 20.7133 68.7758 20.7133 67.2656C20.7133 65.7554 19.4892 64.5312 17.979 64.5312ZM21.8755 18.5938C21.8755 11.3565 27.7632 5.46875 35.0005 5.46875C42.2377 5.46875 48.1255 11.3565 48.1255 18.5938C48.1255 25.6166 42.581 31.3685 35.6395 31.703C35.4266 31.6992 35.2137 31.6959 35.0005 31.6959C34.7866 31.6959 34.5729 31.6991 34.3594 31.7029C27.4189 31.3674 21.8755 25.6159 21.8755 18.5938Z" fill="#FDC90D" fill-opacity="0.2"/>
<path d="M67.9059 47.1142C66.7354 44.4961 64.0989 42.7997 61.1826 42.793H52.6552C52.649 42.793 52.6433 42.793 52.637 42.793C49.5608 42.793 46.877 44.6059 45.7971 47.415C45.6534 47.7888 45.4777 48.2597 45.2944 48.8086H27.3916C26.6523 48.8086 25.9447 49.1079 25.4297 49.6382L20.7326 54.4764C19.698 55.542 19.7032 57.2385 20.7442 58.2977L25.5293 63.1665C26.0434 63.6896 26.7461 63.9842 27.4795 63.9842H36.3662C37.8764 63.9842 39.1006 62.7601 39.1006 61.2499C39.1006 59.7397 37.8764 58.5155 36.3662 58.5155H28.626L26.5167 56.3693L28.5479 54.2773H47.3455C48.6053 54.2773 49.7019 53.4167 50.0014 52.1932C50.2227 51.2899 50.5002 50.4215 50.9016 49.3773C51.1663 48.6888 51.831 48.2617 52.6435 48.2617H61.1762C61.9494 48.2635 62.615 48.6791 62.9132 49.3462C63.6472 50.9884 64.5237 53.5309 64.5303 56.3169C64.5368 59.1236 63.6613 61.7243 62.9253 63.4118C62.6287 64.0924 61.9575 64.5312 61.2081 64.5312H52.5733C51.8168 64.5295 51.1082 64.0427 50.8101 63.3202C50.4904 62.5449 50.2132 61.6596 49.9629 60.6136C49.6114 59.1449 48.1354 58.2393 46.6673 58.5907C45.1985 58.9422 44.2929 60.4178 44.6444 61.8864C44.9617 63.2125 45.325 64.3635 45.7547 65.4053C46.903 68.1894 49.5745 69.9929 52.567 69.9999H61.1973C61.2032 69.9999 61.2087 69.9999 61.2146 69.9999C64.1337 69.9997 66.7718 68.2731 67.9384 65.5974C68.8834 63.4303 70.0079 60.0588 69.999 56.3039C69.9903 52.5593 68.8559 49.2397 67.9059 47.1142Z" fill="#FDC90D" fill-opacity="0.2"/>
<path d="M58.9252 59.0625C60.4354 59.0625 61.6596 57.8383 61.6596 56.3281C61.6596 54.818 60.4354 53.5938 58.9252 53.5938C57.4151 53.5938 56.1908 54.818 56.1908 56.3281C56.1908 57.8383 57.4151 59.0625 58.9252 59.0625Z" fill="#FDC90D" fill-opacity="0.2"/>
</svg>
