<svg width="24" height="25" viewBox="0 0 24 25" fill="none" xmlns="http://www.w3.org/2000/svg">
<g clip-path="url(#clip0_2886_36984)">
<path d="M6.16433 22.625H2.84525C2.44503 22.625 2.20357 22.4016 2.09529 22.2685C1.90836 22.0385 1.83593 21.7393 1.89673 21.4473C2.87028 16.771 6.99715 13.3559 11.7613 13.2451C11.8407 13.248 11.9202 13.25 12.0003 13.25C12.081 13.25 12.1612 13.248 12.2413 13.245C13.4063 13.2716 14.5442 13.4906 15.6274 13.8973C16.112 14.0795 16.6526 13.834 16.8346 13.3492C17.0166 12.8645 16.7712 12.324 16.2865 12.142C16.1313 12.0837 15.975 12.0291 15.818 11.9774C17.3696 10.8135 18.3753 8.95948 18.3753 6.875C18.3753 3.35984 15.5155 0.5 12.0003 0.5C8.48506 0.5 5.62526 3.35984 5.62526 6.875C5.62526 8.96136 6.6327 10.8168 8.18665 11.9805C6.76301 12.4492 5.42708 13.178 4.25792 14.1397C2.11423 15.903 0.623747 18.3625 0.0611061 21.0651C-0.115238 21.912 0.0959811 22.7818 0.640622 23.4515C1.1825 24.1178 1.98608 24.5 2.84525 24.5H6.16433C6.68211 24.5 7.10183 24.0803 7.10183 23.5625C7.10183 23.0447 6.68211 22.625 6.16433 22.625ZM7.50026 6.875C7.50026 4.39367 9.51894 2.375 12.0003 2.375C14.4816 2.375 16.5003 4.39367 16.5003 6.875C16.5003 9.28283 14.5993 11.2549 12.2194 11.3696C12.1464 11.3683 12.0734 11.3672 12.0003 11.3672C11.927 11.3672 11.8537 11.3682 11.7805 11.3696C9.40086 11.2545 7.50026 9.28259 7.50026 6.875Z" fill="#000345"/>
<path d="M23.2821 16.6535C22.8808 15.7558 21.9769 15.1742 20.977 15.1719H18.0533C18.0512 15.1719 18.0492 15.1719 18.0471 15.1719C16.9924 15.1719 16.0722 15.7934 15.702 16.7566C15.6527 16.8847 15.5925 17.0462 15.5296 17.2344H9.39152C9.13807 17.2344 8.89544 17.337 8.71887 17.5188L7.10843 19.1776C6.75373 19.543 6.75551 20.1246 7.11241 20.4878L8.75304 22.1571C8.92929 22.3364 9.17023 22.4375 9.42166 22.4375H12.4685C12.9863 22.4375 13.406 22.0177 13.406 21.5C13.406 20.9822 12.9863 20.5625 12.4685 20.5625H9.81476L9.09157 19.8266L9.78799 19.1094H16.2329C16.6648 19.1094 17.0408 18.8143 17.1435 18.3948C17.2193 18.0851 17.3145 17.7874 17.4521 17.4294C17.5429 17.1933 17.7708 17.0469 18.0493 17.0469H20.9748C21.2399 17.0475 21.4681 17.19 21.5704 17.4187C21.822 17.9818 22.1225 18.8534 22.1248 19.8087C22.127 20.771 21.8269 21.6626 21.5745 22.2412C21.4728 22.4745 21.2427 22.625 20.9858 22.625H18.0252C17.7659 22.6244 17.5229 22.4575 17.4207 22.2098C17.3111 21.944 17.2161 21.6404 17.1303 21.2818C17.0097 20.7783 16.5037 20.4678 16.0003 20.5882C15.4968 20.7087 15.1863 21.2147 15.3068 21.7182C15.4156 22.1728 15.5401 22.5675 15.6874 22.9247C16.0812 23.8792 16.9971 24.4976 18.0231 24.5H20.9821C20.9841 24.5 20.986 24.5 20.988 24.5C21.9888 24.4999 22.8933 23.9079 23.2933 22.9905C23.6173 22.2475 24.0028 21.0916 23.9998 19.8042C23.9968 18.5203 23.6079 17.3822 23.2821 16.6535Z" fill="#000345"/>
<path d="M20.203 20.75C20.7208 20.75 21.1405 20.3303 21.1405 19.8125C21.1405 19.2947 20.7208 18.875 20.203 18.875C19.6853 18.875 19.2655 19.2947 19.2655 19.8125C19.2655 20.3303 19.6853 20.75 20.203 20.75Z" fill="#000345"/>
</g>
<defs>
<clipPath id="clip0_2886_36984">
<rect width="24" height="24" fill="white" transform="translate(0 0.5)"/>
</clipPath>
</defs>
</svg>
