<svg width="135" height="18" viewBox="0 0 135 18" fill="none" xmlns="http://www.w3.org/2000/svg">
<path fill-rule="evenodd" clip-rule="evenodd" d="M81.3894 5.03372C81.5245 5.46519 81.319 5.90879 80.9294 6.02366L76.7246 7.25828C76.335 7.37221 75.9097 7.11445 75.7746 6.68206C75.6396 6.24873 75.846 5.80606 76.2356 5.69212L80.4405 4.45657C80.831 4.3417 81.2544 4.60039 81.3894 5.03372Z" fill="#3C4144"/>
<path fill-rule="evenodd" clip-rule="evenodd" d="M75.7062 6.36547L75.3831 6.45886C75.2249 6.50555 75.142 6.68486 75.197 6.86043C75.2519 7.03507 75.4236 7.13874 75.5798 7.09204L75.9039 6.99678C75.8344 6.91273 75.7785 6.81 75.7428 6.69794C75.7071 6.58587 75.6946 6.4738 75.7042 6.36547" fill="#3C4144"/>
<path fill-rule="evenodd" clip-rule="evenodd" d="M75.9801 8.57134C75.9849 8.5592 75.9965 8.55266 76.009 8.55453C76.0225 8.5592 76.0283 8.57321 76.0264 8.58255L75.9559 8.80388C75.9502 8.81602 75.9367 8.82256 75.9251 8.81789C75.9116 8.81509 75.9039 8.80201 75.9087 8.78987L75.9801 8.57134Z" fill="#3C4144"/>
<path fill-rule="evenodd" clip-rule="evenodd" d="M75.8248 8.51064C75.8296 8.49756 75.8441 8.49196 75.8566 8.49756C75.8663 8.50223 75.872 8.51624 75.8691 8.52558L75.7727 8.73664C75.7669 8.74878 75.7505 8.75532 75.7409 8.74785C75.7283 8.74411 75.7235 8.72917 75.7293 8.71983L75.8238 8.5097" fill="#3C4144"/>
<path fill-rule="evenodd" clip-rule="evenodd" d="M75.6743 8.43312C75.6811 8.42192 75.6936 8.41725 75.7071 8.42378C75.7197 8.43032 75.7226 8.44433 75.7168 8.45554L75.601 8.65539C75.5933 8.6666 75.5769 8.67033 75.5673 8.66286C75.5548 8.65726 75.5509 8.64418 75.5576 8.63298L75.6753 8.43406" fill="#3C4144"/>
<path fill-rule="evenodd" clip-rule="evenodd" d="M75.5355 8.34347C75.5422 8.33226 75.5567 8.32946 75.5683 8.33693C75.5779 8.3444 75.5779 8.35841 75.574 8.36962L75.4352 8.5564C75.4255 8.56574 75.4111 8.56854 75.4014 8.56107C75.3918 8.5536 75.3889 8.53959 75.3966 8.53025L75.5355 8.34347Z" fill="#3C4144"/>
<path fill-rule="evenodd" clip-rule="evenodd" d="M75.4072 8.24167C75.414 8.23047 75.4284 8.22953 75.4381 8.23794C75.4477 8.24728 75.4477 8.26222 75.4419 8.27156L75.2876 8.44526C75.278 8.4546 75.2606 8.4546 75.2529 8.44526C75.2432 8.43873 75.2413 8.42378 75.251 8.41538L75.4053 8.24261" fill="#3C4144"/>
<path fill-rule="evenodd" clip-rule="evenodd" d="M75.2876 8.12867C75.2973 8.11933 75.3117 8.11933 75.3223 8.12867C75.332 8.13801 75.33 8.15295 75.3223 8.16229L75.1507 8.32105C75.141 8.33039 75.1246 8.32853 75.1169 8.32105C75.1073 8.31172 75.1073 8.29584 75.1169 8.28837L75.2867 8.1296" fill="#3C4144"/>
<path fill-rule="evenodd" clip-rule="evenodd" d="M75.1854 8.01007C75.195 8.00073 75.2085 8.00259 75.2182 8.0138C75.2249 8.02314 75.223 8.03808 75.2143 8.04649L75.0291 8.18937C75.0176 8.19871 75.0031 8.19498 74.9954 8.18564C74.9858 8.1763 74.9886 8.16136 74.9993 8.15389L75.1844 8.011" fill="#3C4144"/>
<path fill-rule="evenodd" clip-rule="evenodd" d="M75.0938 7.88586C75.1053 7.87839 75.1208 7.88119 75.1275 7.89146C75.1343 7.90267 75.1304 7.91668 75.1208 7.92415L74.924 8.05022C74.9096 8.05676 74.8951 8.05303 74.8893 8.04275C74.8797 8.03155 74.8845 8.01847 74.8951 8.01193L75.0928 7.88492" fill="#3C4144"/>
<path fill-rule="evenodd" clip-rule="evenodd" d="M75.0214 7.75885C75.0311 7.75138 75.0455 7.75604 75.0533 7.76819C75.0581 7.77752 75.0533 7.79247 75.0417 7.799L74.8343 7.90734C74.8218 7.91294 74.8054 7.90734 74.8015 7.898C74.7967 7.88586 74.8016 7.87185 74.8112 7.86624L75.0234 7.75978" fill="#3C4144"/>
<path fill-rule="evenodd" clip-rule="evenodd" d="M74.9616 7.62997C74.9742 7.6253 74.9886 7.62997 74.9935 7.64304C74.9993 7.65518 74.9915 7.66826 74.9809 7.67293L74.761 7.75885C74.7475 7.76445 74.734 7.75885 74.7292 7.74577C74.7244 7.73457 74.7311 7.72149 74.7427 7.71775L74.9626 7.6309" fill="#3C4144"/>
<path fill-rule="evenodd" clip-rule="evenodd" d="M74.9211 7.50576C74.9346 7.50109 74.9462 7.50856 74.9501 7.52164C74.9539 7.53378 74.9452 7.54592 74.9337 7.54965L74.7041 7.61129C74.6916 7.61409 74.6781 7.60662 74.6752 7.59448C74.6723 7.58234 74.68 7.5702 74.6916 7.56646L74.9192 7.50576" fill="#3C4144"/>
<path fill-rule="evenodd" clip-rule="evenodd" d="M74.898 7.38529C74.9105 7.38248 74.9231 7.39182 74.925 7.40396C74.9269 7.41704 74.9182 7.42825 74.9057 7.43011L74.6714 7.46373C74.6569 7.46373 74.6444 7.45439 74.6424 7.44319C74.6405 7.43105 74.6521 7.41891 74.6636 7.41797L74.898 7.38529Z" fill="#3C4144"/>
<path fill-rule="evenodd" clip-rule="evenodd" d="M74.8932 7.27228C74.9067 7.27228 74.9173 7.28162 74.9182 7.2947C74.9182 7.30871 74.9057 7.31805 74.8932 7.31898H74.6559C74.6424 7.31898 74.6328 7.30684 74.6328 7.2947C74.6328 7.28162 74.6444 7.27228 74.6569 7.27228H74.8951" fill="#3C4144"/>
<path fill-rule="evenodd" clip-rule="evenodd" d="M74.9057 7.16955C74.9202 7.17142 74.9279 7.18356 74.925 7.19757C74.925 7.20878 74.9096 7.21625 74.898 7.21438L74.6665 7.17516C74.6521 7.17236 74.6434 7.15928 74.6472 7.14714C74.6472 7.135 74.6607 7.12846 74.6733 7.12846L74.9057 7.16955Z" fill="#3C4144"/>
<path fill-rule="evenodd" clip-rule="evenodd" d="M74.9366 7.07897C74.9501 7.08364 74.9559 7.09764 74.951 7.10885C74.9453 7.12099 74.9317 7.12566 74.9202 7.12193L74.6984 7.03788C74.6868 7.03321 74.681 7.0192 74.6858 7.00986C74.6906 6.99678 74.7051 6.99118 74.7167 6.99585L74.9366 7.07897Z" fill="#3C4144"/>
<path fill-rule="evenodd" clip-rule="evenodd" d="M74.9857 7.00239C74.9973 7.00892 74.9983 7.02387 74.9915 7.03414C74.9819 7.04348 74.9684 7.04628 74.9568 7.04068L74.761 6.90993C74.7514 6.90339 74.7475 6.88845 74.7553 6.87818C74.762 6.86884 74.7774 6.86604 74.788 6.87257L74.9857 7.00239Z" fill="#3C4144"/>
<path fill-rule="evenodd" clip-rule="evenodd" d="M75.0504 6.93701C75.06 6.94635 75.0581 6.96036 75.0484 6.9697C75.0388 6.97904 75.0243 6.97717 75.0147 6.96783L74.8536 6.79973C74.844 6.79039 74.8469 6.77638 74.8556 6.76798C74.8652 6.75864 74.8797 6.76051 74.8874 6.76798L75.0513 6.93795" fill="#3C4144"/>
<path fill-rule="evenodd" clip-rule="evenodd" d="M75.1343 6.88285C75.142 6.89499 75.1372 6.90806 75.1266 6.91553C75.1121 6.92114 75.0976 6.9174 75.0928 6.9062L74.9732 6.70727C74.9674 6.69513 74.9732 6.68206 74.9829 6.67459C74.9944 6.66898 75.0089 6.67459 75.0147 6.68393L75.1343 6.88285Z" fill="#3C4144"/>
<path fill-rule="evenodd" clip-rule="evenodd" d="M75.2432 6.84176C75.2481 6.8539 75.2394 6.86604 75.2278 6.86977C75.2153 6.87538 75.2027 6.86791 75.1989 6.8567L75.1217 6.63817C75.1188 6.62509 75.1256 6.61295 75.1381 6.60828C75.1507 6.60455 75.1642 6.61202 75.1671 6.62322L75.2442 6.84176" fill="#3C4144"/>
<path fill-rule="evenodd" clip-rule="evenodd" d="M76.8056 10.0955C76.796 10.1067 76.7815 10.1076 76.7709 10.0983C76.7632 10.0889 76.7641 10.0749 76.7709 10.0665L76.9348 9.89841C76.9445 9.89094 76.9618 9.89094 76.9676 9.90028C76.9792 9.90775 76.9792 9.92363 76.9676 9.93203L76.8056 10.0955Z" fill="#3C4144"/>
<path fill-rule="evenodd" clip-rule="evenodd" d="M76.9175 10.2197C76.9078 10.229 76.8924 10.2271 76.8828 10.2169C76.876 10.2075 76.8799 10.1935 76.8876 10.1851L77.0708 10.0413C77.0824 10.032 77.0997 10.0357 77.1046 10.045C77.1142 10.0544 77.1123 10.0693 77.1017 10.0768L76.9184 10.2197" fill="#3C4144"/>
<path fill-rule="evenodd" clip-rule="evenodd" d="M76.9956 10.3355C76.9859 10.3429 76.9715 10.3401 76.9628 10.3289C76.957 10.3177 76.9628 10.3037 76.9724 10.2972L77.175 10.1795C77.1875 10.173 77.2039 10.1776 77.2068 10.1889C77.2164 10.2001 77.2116 10.2131 77.2 10.2206L76.9956 10.3355Z" fill="#3C4144"/>
<path fill-rule="evenodd" clip-rule="evenodd" d="M77.0496 10.4503C77.038 10.455 77.0236 10.4503 77.0187 10.4373C77.0158 10.4261 77.0226 10.4121 77.0322 10.4074L77.2521 10.3215C77.2656 10.3168 77.2811 10.3233 77.283 10.3345C77.2897 10.3467 77.283 10.3598 77.2704 10.3644L77.0515 10.4485" fill="#3C4144"/>
<path fill-rule="evenodd" clip-rule="evenodd" d="M77.0814 10.5587C77.0689 10.5615 77.0573 10.5549 77.0525 10.5419C77.0496 10.5297 77.0592 10.5185 77.0698 10.5139L77.3013 10.4625C77.3148 10.4606 77.3283 10.469 77.3302 10.4812C77.3341 10.4942 77.3254 10.5054 77.3109 10.5092L77.0814 10.5587Z" fill="#3C4144"/>
<path fill-rule="evenodd" clip-rule="evenodd" d="M77.093 10.6633C77.0795 10.6651 77.0689 10.6558 77.067 10.6427C77.067 10.6297 77.0785 10.6194 77.0901 10.6184L77.3273 10.6044C77.3408 10.6044 77.3524 10.6138 77.3514 10.6269C77.3543 10.639 77.3437 10.6483 77.3302 10.6493L77.094 10.6623" fill="#3C4144"/>
<path fill-rule="evenodd" clip-rule="evenodd" d="M77.0853 10.7623C77.0737 10.7623 77.0641 10.7511 77.066 10.7371C77.066 10.7258 77.0795 10.7184 77.0911 10.7184L77.3273 10.7417C77.3418 10.7417 77.3515 10.7557 77.3486 10.7669C77.3486 10.7791 77.336 10.7884 77.3235 10.7856L77.0872 10.7613" fill="#3C4144"/>
<path fill-rule="evenodd" clip-rule="evenodd" d="M77.066 10.8566C77.0506 10.8529 77.0448 10.8407 77.0467 10.8286C77.0506 10.8155 77.066 10.8099 77.0756 10.8118L77.3052 10.8725C77.3177 10.8762 77.3264 10.8893 77.3206 10.9005C77.3187 10.9136 77.3052 10.9192 77.2917 10.9173L77.065 10.8566" fill="#3C4144"/>
<path fill-rule="evenodd" clip-rule="evenodd" d="M77.0274 10.9425C77.0178 10.9388 77.011 10.9238 77.0178 10.9126C77.0216 10.9014 77.037 10.8977 77.0467 10.9014L77.2637 10.9948C77.2762 11.0013 77.281 11.0163 77.2753 11.0266C77.2704 11.0387 77.256 11.0424 77.2434 11.0378L77.0284 10.9416" fill="#3C4144"/>
<path fill-rule="evenodd" clip-rule="evenodd" d="M76.9792 11.0219C76.9676 11.0154 76.9647 11.0013 76.9715 10.9901C76.9792 10.9789 76.9946 10.978 77.0052 10.9836L77.2029 11.1097C77.2145 11.119 77.2174 11.133 77.2097 11.1424C77.202 11.1536 77.1865 11.1564 77.1769 11.1489L76.9782 11.0228" fill="#3C4144"/>
<path fill-rule="evenodd" clip-rule="evenodd" d="M76.9194 11.0919C76.9078 11.0826 76.9078 11.0695 76.9165 11.0593C76.9261 11.0499 76.9406 11.0499 76.9503 11.0593L77.1267 11.2105C77.1364 11.2199 77.1383 11.2358 77.1287 11.2432C77.119 11.2526 77.1046 11.2526 77.0959 11.2432L76.9204 11.091" fill="#3C4144"/>
<path fill-rule="evenodd" clip-rule="evenodd" d="M76.849 11.1508C76.8393 11.1414 76.8422 11.1284 76.8529 11.119C76.8625 11.1115 76.876 11.1144 76.8847 11.1237L77.0351 11.3011C77.0428 11.3105 77.0409 11.3263 77.0303 11.3338C77.0207 11.3432 77.0062 11.3394 76.9985 11.3301L76.8471 11.1526" fill="#3C4144"/>
<path fill-rule="evenodd" clip-rule="evenodd" d="M76.7709 11.2012C76.7641 11.1891 76.768 11.176 76.7805 11.1685C76.7921 11.161 76.8056 11.1657 76.8123 11.1779L76.9339 11.374C76.9406 11.3852 76.9358 11.4001 76.9242 11.4048C76.9126 11.4123 76.8991 11.4076 76.8924 11.3973L76.7709 11.2012Z" fill="#3C4144"/>
<path fill-rule="evenodd" clip-rule="evenodd" d="M76.6879 11.2367C76.6821 11.2255 76.6879 11.2115 76.7005 11.2068C76.7149 11.2012 76.7275 11.2087 76.7323 11.2199L76.8191 11.4328C76.8249 11.445 76.8191 11.459 76.8066 11.4627C76.795 11.4683 76.7815 11.4627 76.7776 11.4515L76.6879 11.2367Z" fill="#3C4144"/>
<path fill-rule="evenodd" clip-rule="evenodd" d="M76.6002 11.2591C76.5954 11.246 76.604 11.2339 76.6175 11.2311C76.6301 11.2292 76.6416 11.2367 76.6445 11.2498L76.6966 11.4739C76.6995 11.487 76.6899 11.4982 76.6773 11.5019C76.6658 11.5038 76.6542 11.4954 76.6503 11.4832L76.6002 11.2591Z" fill="#3C4144"/>
<path fill-rule="evenodd" clip-rule="evenodd" d="M76.5086 11.2666C76.5066 11.2535 76.5163 11.2432 76.5307 11.2423C76.5442 11.2423 76.5539 11.2516 76.5548 11.2647L76.5664 11.4935C76.5664 11.5075 76.5568 11.5187 76.5442 11.5187C76.5298 11.5187 76.5192 11.5075 76.5192 11.4973L76.5076 11.2675" fill="#3C4144"/>
<path fill-rule="evenodd" clip-rule="evenodd" d="M76.416 11.2591C76.416 11.2451 76.4285 11.2386 76.442 11.2404C76.4565 11.2404 76.4632 11.2526 76.4613 11.2656L76.4324 11.4916C76.4304 11.5057 76.4179 11.515 76.4063 11.5131C76.3928 11.5131 76.3841 11.4991 76.3851 11.4879L76.416 11.26" fill="#3C4144"/>
<path fill-rule="evenodd" clip-rule="evenodd" d="M76.3234 11.2348C76.3253 11.2227 76.3388 11.2161 76.3523 11.2199C76.3639 11.2236 76.3697 11.2367 76.3658 11.2479L76.2964 11.4664C76.2935 11.4814 76.2771 11.487 76.2675 11.4832C76.254 11.4795 76.2482 11.4664 76.2511 11.4552L76.3234 11.2348Z" fill="#3C4144"/>
<path fill-rule="evenodd" clip-rule="evenodd" d="M76.227 11.1937C76.2327 11.1797 76.2482 11.1779 76.2597 11.1825C76.2723 11.1891 76.2752 11.2012 76.2694 11.2143L76.1614 11.4179C76.1546 11.43 76.1421 11.4347 76.1286 11.4272C76.117 11.4235 76.1141 11.4085 76.1189 11.3992L76.227 11.1937Z" fill="#3C4144"/>
<path fill-rule="evenodd" clip-rule="evenodd" d="M74.4524 11.0761L74.5392 11.2143L74.9501 11.1751L75.222 11.1125L75.2876 10.9724L75.143 10.6082L74.7553 10.4429L74.411 10.6455L74.4515 11.0751L74.4524 11.0761ZM74.4891 11.4029C74.4563 11.4029 74.4254 11.3861 74.409 11.3581L74.2798 11.1526C74.2721 11.1414 74.2682 11.1284 74.2673 11.1153L74.219 10.6063C74.2162 10.5718 74.2335 10.5381 74.2644 10.5204L74.7003 10.2636C74.7263 10.2477 74.7581 10.2449 74.7871 10.258L75.2568 10.4578C75.2799 10.4672 75.2973 10.4858 75.3069 10.5092L75.4786 10.9425C75.4863 10.9649 75.4853 10.9892 75.4757 11.0116L75.3754 11.2302C75.3638 11.2554 75.3397 11.275 75.3108 11.2815L74.98 11.3544L74.4978 11.4011H74.4881L74.4891 11.4029Z" fill="#3C4144"/>
<path fill-rule="evenodd" clip-rule="evenodd" d="M74.5547 10.4531L74.3367 8.38363C74.3367 8.38363 74.8922 8.31545 75.0504 8.35374V10.483" fill="#3C4144"/>
<path fill-rule="evenodd" clip-rule="evenodd" d="M76.0206 11.6271C75.8142 11.6271 75.6387 11.5169 75.6155 11.501L75.548 11.4562L75.4969 11.1461L75.4294 11.1368L75.4853 10.7753L75.8267 10.8258L75.8923 11.232C75.9502 11.2554 76.0254 11.274 76.0755 11.2507C76.1295 11.2264 76.172 11.1452 76.199 11.0228L75.9984 10.8435L75.9772 10.5914C75.9733 10.5447 75.954 10.158 76.2067 9.91149C76.3012 9.8181 76.4719 9.70976 76.7535 9.72471L76.8191 9.72657L76.8692 9.76953C76.8731 9.7742 77.3553 10.1786 77.8799 10.1506C78.4104 10.1244 78.8347 10.0133 78.9051 9.9918L80.8687 9.13261L81.0258 9.46415L79.0247 10.3392C79.0054 10.3458 78.5251 10.483 77.8983 10.5148C77.3389 10.5428 76.8403 10.2122 76.6773 10.0889C76.5905 10.0936 76.523 10.1197 76.4748 10.1674C76.3591 10.2794 76.3475 10.497 76.3514 10.5643L76.361 10.6735L76.5973 10.8865L76.5857 10.9799C76.5491 11.2927 76.4295 11.4963 76.2337 11.585C76.1623 11.6159 76.091 11.6289 76.0215 11.6289" fill="#3C4144"/>
<path fill-rule="evenodd" clip-rule="evenodd" d="M89.0854 3.90931L88.256 4.57892C87.3929 5.24852 86.9444 4.5042 86.9444 4.5042L86.333 4.32022L82.6084 8.03341C82.6084 8.03341 84.8507 7.90267 85.5788 7.05935C85.5788 7.05935 86.0736 6.60174 86.3089 5.50628C86.3089 5.50628 87.2183 5.41476 87.4083 5.41476C89.0845 5.41476 89.3198 4.72927 89.3198 4.72927L89.0845 3.90744" fill="#3C4144"/>
<path fill-rule="evenodd" clip-rule="evenodd" d="M79.6959 11.8297C79.2166 11.8297 78.6081 11.7671 78.232 11.4935C77.5598 11.0042 77.2039 10.2113 77.1885 10.1767L77.3621 10.1048C77.365 10.1141 77.7131 10.8893 78.3438 11.3469C78.963 11.797 80.3758 11.6046 80.3913 11.6028L80.4173 11.784C80.3884 11.7877 80.0846 11.8307 79.694 11.8307" fill="#3C4144"/>
<path fill-rule="evenodd" clip-rule="evenodd" d="M79.9554 11.8194C79.9554 11.8194 80.2881 11.2143 80.804 11.7391C81.3219 12.264 79.9554 11.8194 79.9554 11.8194Z" fill="#3C4144"/>
<path fill-rule="evenodd" clip-rule="evenodd" d="M80.2717 6.7549C80.2717 6.7549 80.779 6.9753 80.8986 7.37875L80.2717 6.7549Z" fill="#3C4144"/>
<path fill-rule="evenodd" clip-rule="evenodd" d="M89.9061 1.17671L89.8483 0.912421L89.6168 1.06371C88.7971 1.59604 87.7941 2.18159 87.6031 2.19653C87.2704 2.19653 86.3803 2.26191 86.3417 2.26564L86.3156 2.26938C85.71 2.40386 85.3753 2.62146 85.2934 2.93618C85.2095 3.25838 85.4361 3.54135 85.5576 3.66463C85.5229 4.39307 85.0175 5.01411 84.8584 5.19155C84.0936 5.25039 83.677 5.78645 83.5131 6.05728C82.0443 5.59967 80.5137 6.40469 80.2196 6.57092H78.8135L78.7894 6.57279C78.7219 6.58026 77.1692 6.77825 76.3707 7.20131C75.8151 7.49549 75.6695 8.03621 75.6377 8.40791C75.3706 8.24167 74.9655 8.05303 74.5508 8.10252C74.2133 8.14175 73.9288 8.32386 73.7069 8.64418C73.5874 8.82162 73.4147 9.37263 73.543 9.91242C73.6375 10.3075 73.8786 10.625 74.2403 10.8304L74.4303 10.5129C74.1564 10.3588 73.9828 10.1282 73.9124 9.8293C73.8092 9.40158 73.949 8.95331 74.0223 8.84684C74.1814 8.61617 74.3676 8.49196 74.5952 8.46394C75.1285 8.40137 75.6994 8.90568 75.7062 8.91035L76.0919 9.25589L76.0206 8.75158C76.0206 8.74224 75.901 7.86438 76.551 7.52164C77.2531 7.14994 78.6823 6.95382 78.827 6.93515H80.3257L80.372 6.90713C80.3884 6.89592 82.0693 5.89852 83.5372 6.44952L83.7059 6.51302L83.7783 6.35146C83.7927 6.31971 84.1312 5.57632 84.952 5.5483L85.0272 5.54644L85.0793 5.4932C85.114 5.45865 85.9328 4.62935 85.9328 3.58618V3.50213L85.8682 3.44796C85.8122 3.40127 85.6126 3.18927 85.656 3.0221C85.6801 2.92871 85.8074 2.75501 86.3841 2.62519C86.4998 2.61586 87.3061 2.55982 87.6022 2.55982C87.8452 2.55982 88.554 2.15638 89.15 1.79029C88.9591 1.99201 88.6727 2.2507 88.2435 2.5729C88.1924 2.61025 88.1596 2.63453 88.1471 2.642L88.0554 2.71111L88.0844 2.92124L88.1837 2.96233C88.258 2.99035 88.3033 2.98101 88.3766 2.93432C88.4036 2.91564 88.4344 2.89136 88.473 2.86241C89.91 1.78842 89.9322 1.29999 89.9061 1.17578" fill="#3C4144"/>
<path fill-rule="evenodd" clip-rule="evenodd" d="M81.7771 8.68528L81.565 8.38363L82.242 7.93909C83.5478 7.44412 84.3097 6.8539 84.4042 6.77825L85.5981 5.42596L86.605 3.08374L86.8075 3.01183C86.9927 2.99502 87.2251 2.87361 87.3765 2.79423C87.4826 2.7382 87.5482 2.70458 87.6108 2.6943L88.2628 2.5869L88.3274 2.94646L87.6745 3.05385C87.6668 3.05759 87.607 3.09121 87.5559 3.11549C87.3861 3.20421 87.1354 3.33589 86.8904 3.37045L85.9038 5.63983L84.6597 7.04441C84.6279 7.07243 83.8429 7.71962 82.3992 8.27156L81.7771 8.68247" fill="#3C4144"/>
<path fill-rule="evenodd" clip-rule="evenodd" d="M84.0676 10.5297C84.0676 11.7485 83.19 11.2451 83.19 11.2451L82.7174 10.7595C82.7174 10.7595 81.076 9.48283 80.6893 9.44734C79.8647 9.37449 78.7286 8.61056 78.014 8.90194C77.9523 8.92809 77.8934 8.9505 77.8356 8.97012C76.4333 9.46321 76.2877 8.5069 76.2877 8.5069C76.2877 8.5069 76.1623 7.53378 78.0767 7.50296C79.9901 7.47121 81.8398 8.53585 81.8398 8.53585L83.001 10.3009C83.001 10.3009 83.4407 10.3476 83.5661 10.682C83.5661 10.682 84.0676 10.2552 84.0676 10.5297Z" fill="#3C4144"/>
<path fill-rule="evenodd" clip-rule="evenodd" d="M89.7721 1.30466C89.7721 1.30466 87.9831 2.46923 87.6552 2.46923C87.3244 2.46923 86.4082 2.53741 86.4082 2.53741C84.8555 2.88015 85.7958 3.67863 85.7958 3.67863C85.7958 4.65923 84.9954 5.45865 84.9954 5.45865C84.0406 5.48853 83.6548 6.372 83.6548 6.372C82.079 5.77804 80.3228 6.84362 80.3228 6.84362H78.8636C78.8636 6.84362 77.2868 7.03974 76.5105 7.45066C75.7351 7.86158 75.8836 8.86645 75.8836 8.86645C75.8836 8.86645 74.654 7.76165 73.9162 8.83657C73.7619 9.05884 73.4649 10.172 74.3232 10.7202L74.3136 10.597L74.7475 10.3401L75.2182 10.54L75.3889 10.9733L75.3725 11.0107L75.5094 11.0443L75.712 11.0761L75.6975 11.5318C75.6975 11.5318 76.3562 11.8213 76.4497 11.0443L76.2308 10.8482L76.2144 10.6651C76.2144 10.6651 76.1662 9.96472 76.795 9.99461C76.795 9.99461 77.3283 10.4522 77.9397 10.4214C78.5512 10.3887 79.0218 10.2533 79.0218 10.2533L80.9988 9.38477L81.8601 8.54799L82.3616 8.19778C83.8043 7.64958 84.5893 6.99492 84.5893 6.99492L85.8132 5.61274L86.8017 3.31348L86.8789 3.28359C87.2096 3.25278 87.6022 2.97914 87.6957 2.96327L88.3476 2.85587L88.4103 2.80917C89.8666 1.72024 89.775 1.30559 89.775 1.30559" fill="#3C4144"/>
<path fill-rule="evenodd" clip-rule="evenodd" d="M3.2057 15.3627C4.22219 15.3757 5.16152 15.2786 6.0237 15.0732C6.88589 14.8649 7.69985 14.4101 8.46655 13.7097C9.15804 13.0802 9.67689 12.3583 10.0241 11.543C10.3713 10.7277 10.5429 9.86946 10.5429 8.96918C10.5429 8.03902 10.3626 7.15275 10.0029 6.30756C9.64024 5.46519 9.09921 4.73581 8.37686 4.12037C7.61016 3.4629 6.80488 3.03704 5.95619 2.84466C5.10751 2.65134 4.19132 2.55515 3.20473 2.55515H1.85456V15.3627H3.2057ZM0 0.859189H3.13915C4.39096 0.874131 5.54053 1.00301 6.58692 1.24676C7.6333 1.48957 8.65076 2.01909 9.63831 2.83439C10.596 3.62073 11.2971 4.54343 11.7378 5.6006C12.1815 6.65965 12.4033 7.78873 12.4033 8.99066C12.4033 10.1627 12.1776 11.26 11.7282 12.2827C11.2778 13.3053 10.5969 14.2177 9.68364 15.019C8.69608 15.8763 7.67767 16.4264 6.63225 16.6701C5.58586 16.9129 4.40735 17.0343 3.09576 17.0343H0V0.859189Z" fill="#3C4144"/>
<path fill-rule="evenodd" clip-rule="evenodd" d="M17.2417 0.859189H19.0992V17.0343H17.2417V0.859189Z" fill="#3C4144"/>
<path fill-rule="evenodd" clip-rule="evenodd" d="M29.9083 13.196L34.6609 0.859189H36.6726L29.9083 18L23.1439 0.859189H25.1557L29.9083 13.196Z" fill="#3C4144"/>
<path fill-rule="evenodd" clip-rule="evenodd" d="M40.6962 0.859189H49.3392V2.53367H42.5527V7.33859H49.1396V9.01027H42.5527V15.3608H49.3392V17.0343H40.6962V0.859189Z" fill="#3C4144"/>
<path fill-rule="evenodd" clip-rule="evenodd" d="M56.5675 15.3627H58.4249C58.4693 15.3757 58.5175 15.3832 58.5696 15.3832H58.7335C59.722 15.3552 60.6286 15.146 61.4532 14.7575C62.2787 14.3709 62.6915 13.5901 62.6915 12.4115C62.6915 11.3497 62.3192 10.625 61.5756 10.2374C60.8311 9.84985 60.0171 9.62104 59.1328 9.5482C58.9688 9.5482 58.8087 9.54446 58.6467 9.53699C58.4828 9.53046 58.3285 9.52765 58.1838 9.52765H56.5684V15.3617L56.5675 15.3627ZM56.5675 7.98205H57.2753C58.3208 7.99699 59.2302 7.86064 60.0046 7.573C60.7761 7.28536 61.1638 6.50835 61.1638 5.24572C61.1638 4.0111 60.8031 3.25091 60.0818 2.96327C59.3585 2.67656 58.4307 2.53367 57.2946 2.53367H56.5665V7.98111L56.5675 7.98205ZM54.711 0.859189H57.4518C58.9688 0.874131 60.2775 1.19539 61.375 1.82578C62.4745 2.45522 63.0222 3.60019 63.0222 5.25786C63.0222 5.91533 62.8901 6.51209 62.6249 7.04908C62.3587 7.58514 61.946 8.03902 61.3866 8.41071C62.3896 8.64045 63.1659 9.14382 63.7186 9.92363C64.2712 10.7034 64.5479 11.5785 64.5479 12.5516C64.5479 14.1533 63.9654 15.301 62.8024 15.994C61.6374 16.6879 60.2293 17.0343 58.5783 17.0343H54.711V0.859189Z" fill="#3C4144"/>
<path fill-rule="evenodd" clip-rule="evenodd" d="M96.8431 4.29221L93.9923 10.7707H99.6293L96.8431 4.29221ZM93.2401 12.4452L91.2293 17.0343H89.1963L96.8875 0.0877867L104.381 17.0343H102.327L100.359 12.4442H93.2391L93.2401 12.4452Z" fill="#3C4144"/>
<path fill-rule="evenodd" clip-rule="evenodd" d="M110.261 8.3472H110.836C110.851 8.36121 110.862 8.36775 110.869 8.36775H110.902C111.934 8.36775 112.884 8.19591 113.754 7.8513C114.622 7.50576 115.058 6.71194 115.058 5.46052C115.058 4.12691 114.631 3.30507 113.775 2.99502C112.922 2.68683 111.933 2.53367 110.815 2.53367H110.261V8.3472ZM110.261 17.0343H108.404V0.859189H110.814C112.39 0.874131 113.801 1.16738 115.047 1.73986C116.291 2.3114 116.915 3.51427 116.915 5.34471C116.915 6.5868 116.539 7.61409 115.787 8.42192C115.035 9.22974 114.019 9.69202 112.738 9.80409L118.042 17.0343H115.766L110.726 9.9339H110.261V17.0343Z" fill="#3C4144"/>
<path fill-rule="evenodd" clip-rule="evenodd" d="M125.801 15.3627C126.818 15.3757 127.759 15.2786 128.619 15.0732C129.482 14.8649 130.298 14.4101 131.062 13.7097C131.754 13.0802 132.274 12.3583 132.62 11.543C132.967 10.7277 133.141 9.86946 133.141 8.96918C133.141 8.03902 132.957 7.15275 132.598 6.30756C132.237 5.46519 131.695 4.73581 130.974 4.12037C130.207 3.4629 129.4 3.03704 128.553 2.84466C127.704 2.65134 126.788 2.55515 125.8 2.55515H124.452V15.3627H125.801ZM122.596 0.859189H125.735C126.989 0.874131 128.136 1.00301 129.184 1.24676C130.23 1.48957 131.247 2.01909 132.235 2.83439C133.193 3.62073 133.894 4.54343 134.335 5.6006C134.778 6.65965 135 7.78873 135 8.99066C135 10.1627 134.774 11.26 134.325 12.2827C133.876 13.3053 133.194 14.2177 132.28 15.019C131.293 15.8763 130.276 16.4264 129.23 16.6701C128.184 16.9129 127.004 17.0343 125.693 17.0343H122.598V0.859189H122.596Z" fill="#3C4144"/>
<path fill-rule="evenodd" clip-rule="evenodd" d="M85.2943 10.102C84.5575 13.2343 81.6643 15.5784 78.2175 15.5784C74.2152 15.5784 70.9593 12.419 70.9593 8.53492C70.9593 4.65176 74.2152 1.49144 78.2175 1.49144C79.7991 1.49144 81.265 1.98641 82.459 2.82318C82.7194 2.39826 83.0212 1.98827 83.3809 1.63433C81.9295 0.607035 80.1453 0 78.2175 0C73.3694 0 69.425 3.82899 69.425 8.53212C69.425 13.2371 73.3694 17.0652 78.2175 17.0652C82.5226 17.0652 86.116 14.0459 86.8653 10.0749C86.3484 10.1384 85.8006 10.1216 85.2953 10.1001" fill="#3C4144"/>
</svg>
