<svg width="189" height="27" viewBox="0 0 189 27" fill="none" xmlns="http://www.w3.org/2000/svg">
<path fill-rule="evenodd" clip-rule="evenodd" d="M112.576 8.14563C112.758 8.7281 112.481 9.32696 111.955 9.48204L106.278 11.1488C105.752 11.3026 105.178 10.9546 104.996 10.3709C104.813 9.78588 105.092 9.18828 105.618 9.03447L111.295 7.36647C111.822 7.2114 112.393 7.56063 112.576 8.14563Z" fill="#FDC90D"/>
<path fill-rule="evenodd" clip-rule="evenodd" d="M112.576 8.14563C112.758 8.7281 112.481 9.32696 111.955 9.48204L106.278 11.1488C105.752 11.3026 105.178 10.9546 104.996 10.3709C104.813 9.78588 105.092 9.18828 105.618 9.03447L111.295 7.36647C111.822 7.2114 112.393 7.56063 112.576 8.14563Z" fill="url(#paint0_linear_2835_10810)" fill-opacity="0.2"/>
<path fill-rule="evenodd" clip-rule="evenodd" d="M104.903 9.94348L104.467 10.0696C104.254 10.1326 104.142 10.3747 104.216 10.6117C104.29 10.8474 104.522 10.9874 104.733 10.9244L105.17 10.7958C105.076 10.6823 105.001 10.5436 104.953 10.3923C104.905 10.241 104.888 10.0897 104.901 9.94348" fill="#FDC90D"/>
<path fill-rule="evenodd" clip-rule="evenodd" d="M104.903 9.94348L104.467 10.0696C104.254 10.1326 104.142 10.3747 104.216 10.6117C104.29 10.8474 104.522 10.9874 104.733 10.9244L105.17 10.7958C105.076 10.6823 105.001 10.5436 104.953 10.3923C104.905 10.241 104.888 10.0897 104.901 9.94348" fill="url(#paint1_linear_2835_10810)" fill-opacity="0.2"/>
<path fill-rule="evenodd" clip-rule="evenodd" d="M105.273 12.9214C105.28 12.905 105.295 12.8962 105.312 12.8987C105.33 12.905 105.338 12.9239 105.336 12.9365L105.24 13.2353C105.233 13.2517 105.214 13.2606 105.199 13.2542C105.181 13.2505 105.17 13.2328 105.177 13.2164L105.273 12.9214Z" fill="#FDC90D"/>
<path fill-rule="evenodd" clip-rule="evenodd" d="M105.273 12.9214C105.28 12.905 105.295 12.8962 105.312 12.8987C105.33 12.905 105.338 12.9239 105.336 12.9365L105.24 13.2353C105.233 13.2517 105.214 13.2606 105.199 13.2542C105.181 13.2505 105.17 13.2328 105.177 13.2164L105.273 12.9214Z" fill="url(#paint2_linear_2835_10810)" fill-opacity="0.2"/>
<path fill-rule="evenodd" clip-rule="evenodd" d="M105.063 12.8395C105.07 12.8218 105.089 12.8142 105.106 12.8218C105.119 12.8281 105.127 12.847 105.123 12.8596L104.993 13.1446C104.985 13.161 104.963 13.1698 104.95 13.1597C104.933 13.1546 104.927 13.1345 104.935 13.1219L105.062 12.8382" fill="#FDC90D"/>
<path fill-rule="evenodd" clip-rule="evenodd" d="M105.063 12.8395C105.07 12.8218 105.089 12.8142 105.106 12.8218C105.119 12.8281 105.127 12.847 105.123 12.8596L104.993 13.1446C104.985 13.161 104.963 13.1698 104.95 13.1597C104.933 13.1546 104.927 13.1345 104.935 13.1219L105.062 12.8382" fill="url(#paint3_linear_2835_10810)" fill-opacity="0.2"/>
<path fill-rule="evenodd" clip-rule="evenodd" d="M104.86 12.7348C104.869 12.7197 104.886 12.7134 104.905 12.7222C104.922 12.731 104.925 12.7499 104.918 12.7651L104.761 13.0349C104.751 13.05 104.729 13.055 104.716 13.045C104.699 13.0374 104.694 13.0197 104.703 13.0046L104.862 12.7361" fill="#FDC90D"/>
<path fill-rule="evenodd" clip-rule="evenodd" d="M104.86 12.7348C104.869 12.7197 104.886 12.7134 104.905 12.7222C104.922 12.731 104.925 12.7499 104.918 12.7651L104.761 13.0349C104.751 13.05 104.729 13.055 104.716 13.045C104.699 13.0374 104.694 13.0197 104.703 13.0046L104.862 12.7361" fill="url(#paint4_linear_2835_10810)" fill-opacity="0.2"/>
<path fill-rule="evenodd" clip-rule="evenodd" d="M104.673 12.6138C104.682 12.5986 104.701 12.5949 104.717 12.605C104.73 12.615 104.73 12.634 104.725 12.6491L104.537 12.9012C104.524 12.9138 104.505 12.9176 104.492 12.9075C104.479 12.8975 104.475 12.8785 104.485 12.8659L104.673 12.6138Z" fill="#FDC90D"/>
<path fill-rule="evenodd" clip-rule="evenodd" d="M104.673 12.6138C104.682 12.5986 104.701 12.5949 104.717 12.605C104.73 12.615 104.73 12.634 104.725 12.6491L104.537 12.9012C104.524 12.9138 104.505 12.9176 104.492 12.9075C104.479 12.8975 104.475 12.8785 104.485 12.8659L104.673 12.6138Z" fill="url(#paint5_linear_2835_10810)" fill-opacity="0.2"/>
<path fill-rule="evenodd" clip-rule="evenodd" d="M104.5 12.4764C104.509 12.4612 104.528 12.46 104.541 12.4713C104.554 12.4839 104.554 12.5041 104.547 12.5167L104.338 12.7512C104.325 12.7638 104.302 12.7638 104.291 12.7512C104.278 12.7424 104.276 12.7222 104.289 12.7109L104.497 12.4776" fill="#FDC90D"/>
<path fill-rule="evenodd" clip-rule="evenodd" d="M104.5 12.4764C104.509 12.4612 104.528 12.46 104.541 12.4713C104.554 12.4839 104.554 12.5041 104.547 12.5167L104.338 12.7512C104.325 12.7638 104.302 12.7638 104.291 12.7512C104.278 12.7424 104.276 12.7222 104.289 12.7109L104.497 12.4776" fill="url(#paint6_linear_2835_10810)" fill-opacity="0.2"/>
<path fill-rule="evenodd" clip-rule="evenodd" d="M104.338 12.3238C104.351 12.3112 104.371 12.3112 104.385 12.3238C104.398 12.3364 104.396 12.3566 104.385 12.3692L104.153 12.5835C104.14 12.5961 104.118 12.5936 104.108 12.5835C104.095 12.5709 104.095 12.5495 104.108 12.5394L104.337 12.3251" fill="#FDC90D"/>
<path fill-rule="evenodd" clip-rule="evenodd" d="M104.338 12.3238C104.351 12.3112 104.371 12.3112 104.385 12.3238C104.398 12.3364 104.396 12.3566 104.385 12.3692L104.153 12.5835C104.14 12.5961 104.118 12.5936 104.108 12.5835C104.095 12.5709 104.095 12.5495 104.108 12.5394L104.337 12.3251" fill="url(#paint7_linear_2835_10810)" fill-opacity="0.2"/>
<path fill-rule="evenodd" clip-rule="evenodd" d="M104.2 12.1637C104.213 12.1511 104.231 12.1536 104.244 12.1687C104.254 12.1813 104.251 12.2015 104.239 12.2129L103.989 12.4058C103.974 12.4184 103.954 12.4133 103.944 12.4007C103.931 12.3881 103.935 12.3679 103.949 12.3578L104.199 12.1649" fill="#FDC90D"/>
<path fill-rule="evenodd" clip-rule="evenodd" d="M104.2 12.1637C104.213 12.1511 104.231 12.1536 104.244 12.1687C104.254 12.1813 104.251 12.2015 104.239 12.2129L103.989 12.4058C103.974 12.4184 103.954 12.4133 103.944 12.4007C103.931 12.3881 103.935 12.3679 103.949 12.3578L104.199 12.1649" fill="url(#paint8_linear_2835_10810)" fill-opacity="0.2"/>
<path fill-rule="evenodd" clip-rule="evenodd" d="M104.077 11.996C104.092 11.9859 104.113 11.9897 104.122 12.0036C104.131 12.0187 104.126 12.0376 104.113 12.0477L103.847 12.2179C103.828 12.2267 103.808 12.2217 103.801 12.2078C103.788 12.1927 103.794 12.175 103.808 12.1662L104.075 11.9947" fill="#FDC90D"/>
<path fill-rule="evenodd" clip-rule="evenodd" d="M104.077 11.996C104.092 11.9859 104.113 11.9897 104.122 12.0036C104.131 12.0187 104.126 12.0376 104.113 12.0477L103.847 12.2179C103.828 12.2267 103.808 12.2217 103.801 12.2078C103.788 12.1927 103.794 12.175 103.808 12.1662L104.075 11.9947" fill="url(#paint9_linear_2835_10810)" fill-opacity="0.2"/>
<path fill-rule="evenodd" clip-rule="evenodd" d="M103.979 11.8245C103.992 11.8145 104.011 11.8208 104.022 11.8371C104.028 11.8498 104.022 11.8699 104.006 11.8788L103.726 12.025C103.709 12.0326 103.687 12.025 103.682 12.0124C103.676 11.996 103.682 11.9771 103.695 11.9695L103.981 11.8258" fill="#FDC90D"/>
<path fill-rule="evenodd" clip-rule="evenodd" d="M103.979 11.8245C103.992 11.8145 104.011 11.8208 104.022 11.8371C104.028 11.8498 104.022 11.8699 104.006 11.8788L103.726 12.025C103.709 12.0326 103.687 12.025 103.682 12.0124C103.676 11.996 103.682 11.9771 103.695 11.9695L103.981 11.8258" fill="url(#paint10_linear_2835_10810)" fill-opacity="0.2"/>
<path fill-rule="evenodd" clip-rule="evenodd" d="M103.898 11.6506C103.915 11.6443 103.935 11.6506 103.941 11.6682C103.949 11.6846 103.939 11.7022 103.924 11.7086L103.627 11.8245C103.609 11.8321 103.591 11.8245 103.584 11.8069C103.578 11.7918 103.587 11.7741 103.603 11.7691L103.899 11.6518" fill="#FDC90D"/>
<path fill-rule="evenodd" clip-rule="evenodd" d="M103.898 11.6506C103.915 11.6443 103.935 11.6506 103.941 11.6682C103.949 11.6846 103.939 11.7022 103.924 11.7086L103.627 11.8245C103.609 11.8321 103.591 11.8245 103.584 11.8069C103.578 11.7918 103.587 11.7741 103.603 11.7691L103.899 11.6518" fill="url(#paint11_linear_2835_10810)" fill-opacity="0.2"/>
<path fill-rule="evenodd" clip-rule="evenodd" d="M103.843 11.4829C103.862 11.4766 103.877 11.4867 103.883 11.5043C103.888 11.5207 103.876 11.5371 103.86 11.5421L103.551 11.6253C103.534 11.6291 103.515 11.619 103.511 11.6026C103.508 11.5863 103.518 11.5699 103.534 11.5648L103.841 11.4829" fill="#FDC90D"/>
<path fill-rule="evenodd" clip-rule="evenodd" d="M103.843 11.4829C103.862 11.4766 103.877 11.4867 103.883 11.5043C103.888 11.5207 103.876 11.5371 103.86 11.5421L103.551 11.6253C103.534 11.6291 103.515 11.619 103.511 11.6026C103.508 11.5863 103.518 11.5699 103.534 11.5648L103.841 11.4829" fill="url(#paint12_linear_2835_10810)" fill-opacity="0.2"/>
<path fill-rule="evenodd" clip-rule="evenodd" d="M103.812 11.3202C103.829 11.3165 103.846 11.3291 103.849 11.3454C103.851 11.3631 103.84 11.3782 103.823 11.3808L103.506 11.4261C103.487 11.4261 103.47 11.4135 103.467 11.3984C103.465 11.382 103.48 11.3656 103.496 11.3644L103.812 11.3202Z" fill="#FDC90D"/>
<path fill-rule="evenodd" clip-rule="evenodd" d="M103.812 11.3202C103.829 11.3165 103.846 11.3291 103.849 11.3454C103.851 11.3631 103.84 11.3782 103.823 11.3808L103.506 11.4261C103.487 11.4261 103.47 11.4135 103.467 11.3984C103.465 11.382 103.48 11.3656 103.496 11.3644L103.812 11.3202Z" fill="url(#paint13_linear_2835_10810)" fill-opacity="0.2"/>
<path fill-rule="evenodd" clip-rule="evenodd" d="M103.806 11.1677C103.824 11.1677 103.838 11.1803 103.84 11.1979C103.84 11.2169 103.823 11.2295 103.806 11.2307H103.485C103.467 11.2307 103.454 11.2143 103.454 11.1979C103.454 11.1803 103.47 11.1677 103.487 11.1677H103.808" fill="#FDC90D"/>
<path fill-rule="evenodd" clip-rule="evenodd" d="M103.806 11.1677C103.824 11.1677 103.838 11.1803 103.84 11.1979C103.84 11.2169 103.823 11.2295 103.806 11.2307H103.485C103.467 11.2307 103.454 11.2143 103.454 11.1979C103.454 11.1803 103.47 11.1677 103.487 11.1677H103.808" fill="url(#paint14_linear_2835_10810)" fill-opacity="0.2"/>
<path fill-rule="evenodd" clip-rule="evenodd" d="M103.823 11.029C103.842 11.0315 103.853 11.0479 103.849 11.0668C103.849 11.0819 103.828 11.092 103.812 11.0895L103.5 11.0366C103.48 11.0328 103.469 11.0151 103.474 10.9987C103.474 10.9823 103.492 10.9735 103.509 10.9735L103.823 11.029Z" fill="#FDC90D"/>
<path fill-rule="evenodd" clip-rule="evenodd" d="M103.823 11.029C103.842 11.0315 103.853 11.0479 103.849 11.0668C103.849 11.0819 103.828 11.092 103.812 11.0895L103.5 11.0366C103.48 11.0328 103.469 11.0151 103.474 10.9987C103.474 10.9823 103.492 10.9735 103.509 10.9735L103.823 11.029Z" fill="url(#paint15_linear_2835_10810)" fill-opacity="0.2"/>
<path fill-rule="evenodd" clip-rule="evenodd" d="M103.864 10.9067C103.883 10.913 103.89 10.9319 103.884 10.947C103.876 10.9634 103.858 10.9697 103.842 10.9647L103.543 10.8512C103.527 10.8449 103.519 10.826 103.526 10.8134C103.532 10.7958 103.552 10.7882 103.567 10.7945L103.864 10.9067Z" fill="#FDC90D"/>
<path fill-rule="evenodd" clip-rule="evenodd" d="M103.864 10.9067C103.883 10.913 103.89 10.9319 103.884 10.947C103.876 10.9634 103.858 10.9697 103.842 10.9647L103.543 10.8512C103.527 10.8449 103.519 10.826 103.526 10.8134C103.532 10.7958 103.552 10.7882 103.567 10.7945L103.864 10.9067Z" fill="url(#paint16_linear_2835_10810)" fill-opacity="0.2"/>
<path fill-rule="evenodd" clip-rule="evenodd" d="M103.931 10.8033C103.946 10.8121 103.948 10.8323 103.939 10.8462C103.926 10.8588 103.907 10.8626 103.892 10.855L103.627 10.6785C103.614 10.6697 103.609 10.6495 103.62 10.6356C103.629 10.623 103.649 10.6192 103.664 10.6281L103.931 10.8033Z" fill="#FDC90D"/>
<path fill-rule="evenodd" clip-rule="evenodd" d="M103.931 10.8033C103.946 10.8121 103.948 10.8323 103.939 10.8462C103.926 10.8588 103.907 10.8626 103.892 10.855L103.627 10.6785C103.614 10.6697 103.609 10.6495 103.62 10.6356C103.629 10.623 103.649 10.6192 103.664 10.6281L103.931 10.8033Z" fill="url(#paint17_linear_2835_10810)" fill-opacity="0.2"/>
<path fill-rule="evenodd" clip-rule="evenodd" d="M104.018 10.7151C104.031 10.7277 104.028 10.7466 104.015 10.7592C104.002 10.7718 103.983 10.7693 103.97 10.7567L103.752 10.5297C103.739 10.5171 103.743 10.4982 103.755 10.4869C103.768 10.4743 103.788 10.4768 103.798 10.4869L104.019 10.7163" fill="#FDC90D"/>
<path fill-rule="evenodd" clip-rule="evenodd" d="M104.018 10.7151C104.031 10.7277 104.028 10.7466 104.015 10.7592C104.002 10.7718 103.983 10.7693 103.97 10.7567L103.752 10.5297C103.739 10.5171 103.743 10.4982 103.755 10.4869C103.768 10.4743 103.788 10.4768 103.798 10.4869L104.019 10.7163" fill="url(#paint18_linear_2835_10810)" fill-opacity="0.2"/>
<path fill-rule="evenodd" clip-rule="evenodd" d="M104.131 10.6419C104.142 10.6583 104.135 10.676 104.121 10.6861C104.101 10.6936 104.082 10.6886 104.075 10.6735L103.914 10.4049C103.906 10.3885 103.914 10.3709 103.927 10.3608C103.942 10.3532 103.962 10.3608 103.97 10.3734L104.131 10.6419Z" fill="#FDC90D"/>
<path fill-rule="evenodd" clip-rule="evenodd" d="M104.131 10.6419C104.142 10.6583 104.135 10.676 104.121 10.6861C104.101 10.6936 104.082 10.6886 104.075 10.6735L103.914 10.4049C103.906 10.3885 103.914 10.3709 103.927 10.3608C103.942 10.3532 103.962 10.3608 103.97 10.3734L104.131 10.6419Z" fill="url(#paint19_linear_2835_10810)" fill-opacity="0.2"/>
<path fill-rule="evenodd" clip-rule="evenodd" d="M104.278 10.5865C104.285 10.6029 104.273 10.6192 104.258 10.6243C104.241 10.6319 104.224 10.6218 104.218 10.6066L104.114 10.3116C104.11 10.294 104.12 10.2776 104.136 10.2713C104.153 10.2662 104.172 10.2763 104.175 10.2914L104.28 10.5865" fill="#FDC90D"/>
<path fill-rule="evenodd" clip-rule="evenodd" d="M104.278 10.5865C104.285 10.6029 104.273 10.6192 104.258 10.6243C104.241 10.6319 104.224 10.6218 104.218 10.6066L104.114 10.3116C104.11 10.294 104.12 10.2776 104.136 10.2713C104.153 10.2662 104.172 10.2763 104.175 10.2914L104.28 10.5865" fill="url(#paint20_linear_2835_10810)" fill-opacity="0.2"/>
<path fill-rule="evenodd" clip-rule="evenodd" d="M106.388 14.979C106.374 14.9941 106.355 14.9954 106.341 14.9828C106.33 14.9702 106.332 14.9512 106.341 14.9399L106.562 14.713C106.575 14.7029 106.598 14.7029 106.606 14.7155C106.622 14.7256 106.622 14.747 106.606 14.7583L106.388 14.979Z" fill="#FDC90D"/>
<path fill-rule="evenodd" clip-rule="evenodd" d="M106.388 14.979C106.374 14.9941 106.355 14.9954 106.341 14.9828C106.33 14.9702 106.332 14.9512 106.341 14.9399L106.562 14.713C106.575 14.7029 106.598 14.7029 106.606 14.7155C106.622 14.7256 106.622 14.747 106.606 14.7583L106.388 14.979Z" fill="url(#paint21_linear_2835_10810)" fill-opacity="0.2"/>
<path fill-rule="evenodd" clip-rule="evenodd" d="M106.539 15.1467C106.526 15.1593 106.505 15.1567 106.492 15.1429C106.483 15.1303 106.488 15.1114 106.498 15.1L106.746 14.9059C106.761 14.8932 106.785 14.8983 106.791 14.9109C106.804 14.9235 106.802 14.9437 106.787 14.9538L106.54 15.1467" fill="#FDC90D"/>
<path fill-rule="evenodd" clip-rule="evenodd" d="M106.539 15.1467C106.526 15.1593 106.505 15.1567 106.492 15.1429C106.483 15.1303 106.488 15.1114 106.498 15.1L106.746 14.9059C106.761 14.8932 106.785 14.8983 106.791 14.9109C106.804 14.9235 106.802 14.9437 106.787 14.9538L106.54 15.1467" fill="url(#paint22_linear_2835_10810)" fill-opacity="0.2"/>
<path fill-rule="evenodd" clip-rule="evenodd" d="M106.644 15.303C106.631 15.3131 106.611 15.3093 106.6 15.2942C106.592 15.279 106.6 15.2601 106.613 15.2513L106.886 15.0924C106.903 15.0836 106.925 15.0899 106.929 15.1051C106.942 15.1202 106.936 15.1378 106.92 15.1479L106.644 15.303Z" fill="#FDC90D"/>
<path fill-rule="evenodd" clip-rule="evenodd" d="M106.644 15.303C106.631 15.3131 106.611 15.3093 106.6 15.2942C106.592 15.279 106.6 15.2601 106.613 15.2513L106.886 15.0924C106.903 15.0836 106.925 15.0899 106.929 15.1051C106.942 15.1202 106.936 15.1378 106.92 15.1479L106.644 15.303Z" fill="url(#paint23_linear_2835_10810)" fill-opacity="0.2"/>
<path fill-rule="evenodd" clip-rule="evenodd" d="M106.717 15.4581C106.701 15.4644 106.682 15.4581 106.675 15.4404C106.671 15.4253 106.68 15.4064 106.693 15.4001L106.99 15.2841C107.009 15.2778 107.029 15.2866 107.032 15.3017C107.041 15.3181 107.032 15.3358 107.015 15.3421L106.719 15.4555" fill="#FDC90D"/>
<path fill-rule="evenodd" clip-rule="evenodd" d="M106.717 15.4581C106.701 15.4644 106.682 15.4581 106.675 15.4404C106.671 15.4253 106.68 15.4064 106.693 15.4001L106.99 15.2841C107.009 15.2778 107.029 15.2866 107.032 15.3017C107.041 15.3181 107.032 15.3358 107.015 15.3421L106.719 15.4555" fill="url(#paint24_linear_2835_10810)" fill-opacity="0.2"/>
<path fill-rule="evenodd" clip-rule="evenodd" d="M106.76 15.6043C106.743 15.6081 106.727 15.5993 106.721 15.5816C106.717 15.5652 106.73 15.5501 106.744 15.5438L107.057 15.4745C107.075 15.4719 107.093 15.4833 107.096 15.4997C107.101 15.5173 107.089 15.5325 107.07 15.5375L106.76 15.6043Z" fill="#FDC90D"/>
<path fill-rule="evenodd" clip-rule="evenodd" d="M106.76 15.6043C106.743 15.6081 106.727 15.5993 106.721 15.5816C106.717 15.5652 106.73 15.5501 106.744 15.5438L107.057 15.4745C107.075 15.4719 107.093 15.4833 107.096 15.4997C107.101 15.5173 107.089 15.5325 107.07 15.5375L106.76 15.6043Z" fill="url(#paint25_linear_2835_10810)" fill-opacity="0.2"/>
<path fill-rule="evenodd" clip-rule="evenodd" d="M106.775 15.7455C106.757 15.748 106.743 15.7354 106.74 15.7178C106.74 15.7001 106.756 15.6863 106.772 15.685L107.092 15.6661C107.11 15.6661 107.126 15.6787 107.124 15.6964C107.128 15.7127 107.114 15.7253 107.096 15.7266L106.777 15.7443" fill="#FDC90D"/>
<path fill-rule="evenodd" clip-rule="evenodd" d="M106.775 15.7455C106.757 15.748 106.743 15.7354 106.74 15.7178C106.74 15.7001 106.756 15.6863 106.772 15.685L107.092 15.6661C107.11 15.6661 107.126 15.6787 107.124 15.6964C107.128 15.7127 107.114 15.7253 107.096 15.7266L106.777 15.7443" fill="url(#paint26_linear_2835_10810)" fill-opacity="0.2"/>
<path fill-rule="evenodd" clip-rule="evenodd" d="M106.765 15.8792C106.749 15.8792 106.736 15.864 106.739 15.8451C106.739 15.83 106.757 15.8199 106.773 15.8199L107.092 15.8514C107.111 15.8514 107.124 15.8703 107.121 15.8855C107.121 15.9019 107.104 15.9145 107.087 15.9107L106.768 15.8779" fill="#FDC90D"/>
<path fill-rule="evenodd" clip-rule="evenodd" d="M106.765 15.8792C106.749 15.8792 106.736 15.864 106.739 15.8451C106.739 15.83 106.757 15.8199 106.773 15.8199L107.092 15.8514C107.111 15.8514 107.124 15.8703 107.121 15.8855C107.121 15.9019 107.104 15.9145 107.087 15.9107L106.768 15.8779" fill="url(#paint27_linear_2835_10810)" fill-opacity="0.2"/>
<path fill-rule="evenodd" clip-rule="evenodd" d="M106.739 16.0065C106.718 16.0015 106.71 15.9851 106.713 15.9687C106.718 15.951 106.739 15.9435 106.752 15.946L107.062 16.0279C107.079 16.033 107.091 16.0506 107.083 16.0658C107.08 16.0834 107.062 16.091 107.044 16.0885L106.738 16.0065" fill="#FDC90D"/>
<path fill-rule="evenodd" clip-rule="evenodd" d="M106.739 16.0065C106.718 16.0015 106.71 15.9851 106.713 15.9687C106.718 15.951 106.739 15.9435 106.752 15.946L107.062 16.0279C107.079 16.033 107.091 16.0506 107.083 16.0658C107.08 16.0834 107.062 16.091 107.044 16.0885L106.738 16.0065" fill="url(#paint28_linear_2835_10810)" fill-opacity="0.2"/>
<path fill-rule="evenodd" clip-rule="evenodd" d="M106.687 16.1225C106.674 16.1174 106.665 16.0973 106.674 16.0821C106.679 16.067 106.7 16.062 106.713 16.067L107.006 16.1931C107.023 16.2019 107.029 16.2221 107.022 16.236C107.015 16.2523 106.996 16.2574 106.979 16.2511L106.688 16.1212" fill="#FDC90D"/>
<path fill-rule="evenodd" clip-rule="evenodd" d="M106.687 16.1225C106.674 16.1174 106.665 16.0973 106.674 16.0821C106.679 16.067 106.7 16.062 106.713 16.067L107.006 16.1931C107.023 16.2019 107.029 16.2221 107.022 16.236C107.015 16.2523 106.996 16.2574 106.979 16.2511L106.688 16.1212" fill="url(#paint29_linear_2835_10810)" fill-opacity="0.2"/>
<path fill-rule="evenodd" clip-rule="evenodd" d="M106.622 16.2297C106.606 16.2208 106.602 16.2019 106.611 16.1868C106.622 16.1717 106.643 16.1704 106.657 16.178L106.924 16.3482C106.94 16.3608 106.943 16.3797 106.933 16.3923C106.923 16.4074 106.902 16.4112 106.889 16.4011L106.621 16.2309" fill="#FDC90D"/>
<path fill-rule="evenodd" clip-rule="evenodd" d="M106.622 16.2297C106.606 16.2208 106.602 16.2019 106.611 16.1868C106.622 16.1717 106.643 16.1704 106.657 16.178L106.924 16.3482C106.94 16.3608 106.943 16.3797 106.933 16.3923C106.923 16.4074 106.902 16.4112 106.889 16.4011L106.621 16.2309" fill="url(#paint30_linear_2835_10810)" fill-opacity="0.2"/>
<path fill-rule="evenodd" clip-rule="evenodd" d="M106.541 16.3242C106.526 16.3116 106.526 16.294 106.537 16.2801C106.55 16.2675 106.57 16.2675 106.583 16.2801L106.821 16.4843C106.834 16.4969 106.837 16.5184 106.824 16.5285C106.811 16.5411 106.791 16.5411 106.779 16.5285L106.542 16.323" fill="#FDC90D"/>
<path fill-rule="evenodd" clip-rule="evenodd" d="M106.541 16.3242C106.526 16.3116 106.526 16.294 106.537 16.2801C106.55 16.2675 106.57 16.2675 106.583 16.2801L106.821 16.4843C106.834 16.4969 106.837 16.5184 106.824 16.5285C106.811 16.5411 106.791 16.5411 106.779 16.5285L106.542 16.323" fill="url(#paint31_linear_2835_10810)" fill-opacity="0.2"/>
<path fill-rule="evenodd" clip-rule="evenodd" d="M106.446 16.4036C106.433 16.391 106.437 16.3734 106.451 16.3608C106.464 16.3507 106.483 16.3545 106.494 16.3671L106.697 16.6066C106.708 16.6192 106.705 16.6407 106.691 16.6508C106.678 16.6634 106.658 16.6583 106.648 16.6457L106.443 16.4062" fill="#FDC90D"/>
<path fill-rule="evenodd" clip-rule="evenodd" d="M106.446 16.4036C106.433 16.391 106.437 16.3734 106.451 16.3608C106.464 16.3507 106.483 16.3545 106.494 16.3671L106.697 16.6066C106.708 16.6192 106.705 16.6407 106.691 16.6508C106.678 16.6634 106.658 16.6583 106.648 16.6457L106.443 16.4062" fill="url(#paint32_linear_2835_10810)" fill-opacity="0.2"/>
<path fill-rule="evenodd" clip-rule="evenodd" d="M106.341 16.4717C106.332 16.4553 106.337 16.4377 106.354 16.4276C106.369 16.4175 106.388 16.4238 106.397 16.4402L106.561 16.705C106.57 16.7201 106.563 16.7403 106.548 16.7466C106.532 16.7567 106.514 16.7504 106.505 16.7365L106.341 16.4717Z" fill="#FDC90D"/>
<path fill-rule="evenodd" clip-rule="evenodd" d="M106.341 16.4717C106.332 16.4553 106.337 16.4377 106.354 16.4276C106.369 16.4175 106.388 16.4238 106.397 16.4402L106.561 16.705C106.57 16.7201 106.563 16.7403 106.548 16.7466C106.532 16.7567 106.514 16.7504 106.505 16.7365L106.341 16.4717Z" fill="url(#paint33_linear_2835_10810)" fill-opacity="0.2"/>
<path fill-rule="evenodd" clip-rule="evenodd" d="M106.229 16.5196C106.221 16.5045 106.229 16.4856 106.246 16.4793C106.265 16.4717 106.282 16.4818 106.289 16.4969L106.406 16.7844C106.414 16.8008 106.406 16.8197 106.389 16.8247C106.373 16.8323 106.355 16.8247 106.35 16.8096L106.229 16.5196Z" fill="#FDC90D"/>
<path fill-rule="evenodd" clip-rule="evenodd" d="M106.229 16.5196C106.221 16.5045 106.229 16.4856 106.246 16.4793C106.265 16.4717 106.282 16.4818 106.289 16.4969L106.406 16.7844C106.414 16.8008 106.406 16.8197 106.389 16.8247C106.373 16.8323 106.355 16.8247 106.35 16.8096L106.229 16.5196Z" fill="url(#paint34_linear_2835_10810)" fill-opacity="0.2"/>
<path fill-rule="evenodd" clip-rule="evenodd" d="M106.11 16.5499C106.104 16.5322 106.115 16.5158 106.134 16.5121C106.151 16.5095 106.166 16.5196 106.17 16.5373L106.24 16.8399C106.244 16.8575 106.231 16.8726 106.214 16.8777C106.199 16.8802 106.183 16.8689 106.178 16.8525L106.11 16.5499Z" fill="#FDC90D"/>
<path fill-rule="evenodd" clip-rule="evenodd" d="M106.11 16.5499C106.104 16.5322 106.115 16.5158 106.134 16.5121C106.151 16.5095 106.166 16.5196 106.17 16.5373L106.24 16.8399C106.244 16.8575 106.231 16.8726 106.214 16.8777C106.199 16.8802 106.183 16.8689 106.178 16.8525L106.11 16.5499Z" fill="url(#paint35_linear_2835_10810)" fill-opacity="0.2"/>
<path fill-rule="evenodd" clip-rule="evenodd" d="M105.987 16.56C105.984 16.5423 105.997 16.5285 106.016 16.5272C106.035 16.5272 106.048 16.5398 106.049 16.5575L106.065 16.8663C106.065 16.8853 106.052 16.9004 106.035 16.9004C106.015 16.9004 106.001 16.8853 106.001 16.8714L105.985 16.5612" fill="#FDC90D"/>
<path fill-rule="evenodd" clip-rule="evenodd" d="M105.987 16.56C105.984 16.5423 105.997 16.5285 106.016 16.5272C106.035 16.5272 106.048 16.5398 106.049 16.5575L106.065 16.8663C106.065 16.8853 106.052 16.9004 106.035 16.9004C106.015 16.9004 106.001 16.8853 106.001 16.8714L105.985 16.5612" fill="url(#paint36_linear_2835_10810)" fill-opacity="0.2"/>
<path fill-rule="evenodd" clip-rule="evenodd" d="M105.862 16.5499C105.862 16.531 105.878 16.5222 105.897 16.5247C105.916 16.5247 105.925 16.5411 105.923 16.5587L105.884 16.8638C105.881 16.8827 105.864 16.8953 105.848 16.8928C105.83 16.8928 105.819 16.8739 105.82 16.8588L105.862 16.5512" fill="#FDC90D"/>
<path fill-rule="evenodd" clip-rule="evenodd" d="M105.862 16.5499C105.862 16.531 105.878 16.5222 105.897 16.5247C105.916 16.5247 105.925 16.5411 105.923 16.5587L105.884 16.8638C105.881 16.8827 105.864 16.8953 105.848 16.8928C105.83 16.8928 105.819 16.8739 105.82 16.8588L105.862 16.5512" fill="url(#paint37_linear_2835_10810)" fill-opacity="0.2"/>
<path fill-rule="evenodd" clip-rule="evenodd" d="M105.737 16.5171C105.739 16.5007 105.757 16.4919 105.776 16.4969C105.791 16.502 105.799 16.5196 105.794 16.5348L105.7 16.8298C105.696 16.85 105.674 16.8575 105.661 16.8525C105.643 16.8474 105.635 16.8298 105.639 16.8147L105.737 16.5171Z" fill="#FDC90D"/>
<path fill-rule="evenodd" clip-rule="evenodd" d="M105.737 16.5171C105.739 16.5007 105.757 16.4919 105.776 16.4969C105.791 16.502 105.799 16.5196 105.794 16.5348L105.7 16.8298C105.696 16.85 105.674 16.8575 105.661 16.8525C105.643 16.8474 105.635 16.8298 105.639 16.8147L105.737 16.5171Z" fill="url(#paint38_linear_2835_10810)" fill-opacity="0.2"/>
<path fill-rule="evenodd" clip-rule="evenodd" d="M105.606 16.4616C105.614 16.4427 105.635 16.4402 105.651 16.4465C105.668 16.4553 105.671 16.4717 105.664 16.4894L105.518 16.7642C105.509 16.7806 105.492 16.7869 105.474 16.7768C105.458 16.7718 105.454 16.7516 105.461 16.739L105.606 16.4616Z" fill="#FDC90D"/>
<path fill-rule="evenodd" clip-rule="evenodd" d="M105.606 16.4616C105.614 16.4427 105.635 16.4402 105.651 16.4465C105.668 16.4553 105.671 16.4717 105.664 16.4894L105.518 16.7642C105.509 16.7806 105.492 16.7869 105.474 16.7768C105.458 16.7718 105.454 16.7516 105.461 16.739L105.606 16.4616Z" fill="url(#paint39_linear_2835_10810)" fill-opacity="0.2"/>
<path fill-rule="evenodd" clip-rule="evenodd" d="M103.211 16.3028L103.328 16.4894L103.883 16.4364L104.25 16.3519L104.338 16.1628L104.143 15.6711L103.62 15.448L103.155 15.7216L103.209 16.3015L103.211 16.3028ZM103.26 16.744C103.216 16.744 103.174 16.7214 103.152 16.6835L102.978 16.4062C102.967 16.391 102.962 16.3734 102.961 16.3557L102.896 15.6686C102.892 15.622 102.915 15.5766 102.957 15.5526L103.545 15.2059C103.58 15.1845 103.623 15.1807 103.663 15.1983L104.297 15.4682C104.328 15.4808 104.351 15.506 104.364 15.5375L104.596 16.1225C104.606 16.1527 104.605 16.1855 104.592 16.2158L104.457 16.5108C104.441 16.5448 104.409 16.5713 104.369 16.5801L103.923 16.6785L103.272 16.7415H103.259L103.26 16.744Z" fill="#FDC90D"/>
<path fill-rule="evenodd" clip-rule="evenodd" d="M103.211 16.3028L103.328 16.4894L103.883 16.4364L104.25 16.3519L104.338 16.1628L104.143 15.6711L103.62 15.448L103.155 15.7216L103.209 16.3015L103.211 16.3028ZM103.26 16.744C103.216 16.744 103.174 16.7214 103.152 16.6835L102.978 16.4062C102.967 16.391 102.962 16.3734 102.961 16.3557L102.896 15.6686C102.892 15.622 102.915 15.5766 102.957 15.5526L103.545 15.2059C103.58 15.1845 103.623 15.1807 103.663 15.1983L104.297 15.4682C104.328 15.4808 104.351 15.506 104.364 15.5375L104.596 16.1225C104.606 16.1527 104.605 16.1855 104.592 16.2158L104.457 16.5108C104.441 16.5448 104.409 16.5713 104.369 16.5801L103.923 16.6785L103.272 16.7415H103.259L103.26 16.744Z" fill="url(#paint40_linear_2835_10810)" fill-opacity="0.2"/>
<path fill-rule="evenodd" clip-rule="evenodd" d="M103.349 15.4618L103.055 12.668C103.055 12.668 103.804 12.576 104.018 12.6276V15.5022" fill="#FDC90D"/>
<path fill-rule="evenodd" clip-rule="evenodd" d="M103.349 15.4618L103.055 12.668C103.055 12.668 103.804 12.576 104.018 12.6276V15.5022" fill="url(#paint41_linear_2835_10810)" fill-opacity="0.2"/>
<path fill-rule="evenodd" clip-rule="evenodd" d="M105.328 17.0466C105.049 17.0466 104.812 16.8979 104.781 16.8764L104.69 16.8159L104.621 16.3973L104.53 16.3847L104.605 15.8968L105.066 15.9649L105.155 16.5133C105.233 16.5448 105.334 16.5701 105.402 16.5385C105.475 16.5058 105.532 16.3961 105.569 16.2309L105.298 15.9888L105.269 15.6484C105.264 15.5854 105.238 15.0634 105.579 14.7306C105.707 14.6045 105.937 14.4583 106.317 14.4785L106.406 14.481L106.473 14.539C106.479 14.5453 107.13 15.0912 107.838 15.0534C108.554 15.0181 109.127 14.868 109.222 14.839L111.873 13.6791L112.085 14.1267L109.383 15.308C109.357 15.3169 108.709 15.5022 107.863 15.5451C107.107 15.5829 106.434 15.1366 106.214 14.9702C106.097 14.9765 106.006 15.0118 105.941 15.0761C105.785 15.2273 105.769 15.5211 105.774 15.6119L105.787 15.7594L106.106 16.0468L106.091 16.1729C106.041 16.5953 105.88 16.8701 105.615 16.9899C105.519 17.0315 105.423 17.0492 105.329 17.0492" fill="#FDC90D"/>
<path fill-rule="evenodd" clip-rule="evenodd" d="M105.328 17.0466C105.049 17.0466 104.812 16.8979 104.781 16.8764L104.69 16.8159L104.621 16.3973L104.53 16.3847L104.605 15.8968L105.066 15.9649L105.155 16.5133C105.233 16.5448 105.334 16.5701 105.402 16.5385C105.475 16.5058 105.532 16.3961 105.569 16.2309L105.298 15.9888L105.269 15.6484C105.264 15.5854 105.238 15.0634 105.579 14.7306C105.707 14.6045 105.937 14.4583 106.317 14.4785L106.406 14.481L106.473 14.539C106.479 14.5453 107.13 15.0912 107.838 15.0534C108.554 15.0181 109.127 14.868 109.222 14.839L111.873 13.6791L112.085 14.1267L109.383 15.308C109.357 15.3169 108.709 15.5022 107.863 15.5451C107.107 15.5829 106.434 15.1366 106.214 14.9702C106.097 14.9765 106.006 15.0118 105.941 15.0761C105.785 15.2273 105.769 15.5211 105.774 15.6119L105.787 15.7594L106.106 16.0468L106.091 16.1729C106.041 16.5953 105.88 16.8701 105.615 16.9899C105.519 17.0315 105.423 17.0492 105.329 17.0492" fill="url(#paint42_linear_2835_10810)" fill-opacity="0.2"/>
<path fill-rule="evenodd" clip-rule="evenodd" d="M122.965 6.62766L121.846 7.53163C120.68 8.4356 120.075 7.43077 120.075 7.43077L119.249 7.1824L114.221 12.1952C114.221 12.1952 117.248 12.0187 118.231 10.8802C118.231 10.8802 118.899 10.2625 119.217 8.78357C119.217 8.78357 120.445 8.66002 120.701 8.66002C122.964 8.66002 123.282 7.73462 123.282 7.73462L122.964 6.62514" fill="#FDC90D"/>
<path fill-rule="evenodd" clip-rule="evenodd" d="M122.965 6.62766L121.846 7.53163C120.68 8.4356 120.075 7.43077 120.075 7.43077L119.249 7.1824L114.221 12.1952C114.221 12.1952 117.248 12.0187 118.231 10.8802C118.231 10.8802 118.899 10.2625 119.217 8.78357C119.217 8.78357 120.445 8.66002 120.701 8.66002C122.964 8.66002 123.282 7.73462 123.282 7.73462L122.964 6.62514" fill="url(#paint43_linear_2835_10810)" fill-opacity="0.2"/>
<path fill-rule="evenodd" clip-rule="evenodd" d="M110.289 17.3202C109.642 17.3202 108.821 17.2357 108.313 16.8663C107.406 16.2057 106.925 15.1353 106.904 15.0887L107.139 14.9916C107.143 15.0042 107.613 16.0506 108.464 16.6684C109.3 17.2761 111.207 17.0164 111.228 17.0139L111.263 17.2584C111.224 17.2635 110.814 17.3215 110.287 17.3215" fill="#FDC90D"/>
<path fill-rule="evenodd" clip-rule="evenodd" d="M110.289 17.3202C109.642 17.3202 108.821 17.2357 108.313 16.8663C107.406 16.2057 106.925 15.1353 106.904 15.0887L107.139 14.9916C107.143 15.0042 107.613 16.0506 108.464 16.6684C109.3 17.2761 111.207 17.0164 111.228 17.0139L111.263 17.2584C111.224 17.2635 110.814 17.3215 110.287 17.3215" fill="url(#paint44_linear_2835_10810)" fill-opacity="0.2"/>
<path fill-rule="evenodd" clip-rule="evenodd" d="M110.64 17.3063C110.64 17.3063 111.089 16.4894 111.785 17.1979C112.485 17.9065 110.64 17.3063 110.64 17.3063Z" fill="#FDC90D"/>
<path fill-rule="evenodd" clip-rule="evenodd" d="M110.64 17.3063C110.64 17.3063 111.089 16.4894 111.785 17.1979C112.485 17.9065 110.64 17.3063 110.64 17.3063Z" fill="url(#paint45_linear_2835_10810)" fill-opacity="0.2"/>
<path fill-rule="evenodd" clip-rule="evenodd" d="M111.067 10.4692C111.067 10.4692 111.752 10.7668 111.913 11.3114L111.067 10.4692Z" fill="#FDC90D"/>
<path fill-rule="evenodd" clip-rule="evenodd" d="M111.067 10.4692C111.067 10.4692 111.752 10.7668 111.913 11.3114L111.067 10.4692Z" fill="url(#paint46_linear_2835_10810)" fill-opacity="0.2"/>
<path fill-rule="evenodd" clip-rule="evenodd" d="M124.073 2.93866L123.995 2.58187L123.683 2.78611C122.576 3.50475 121.222 4.29525 120.964 4.31542C120.515 4.31542 119.313 4.40367 119.261 4.40872L119.226 4.41376C118.408 4.59531 117.957 4.88907 117.846 5.31395C117.733 5.74891 118.039 6.13092 118.203 6.29734C118.156 7.28074 117.474 8.11915 117.259 8.35869C116.226 8.43812 115.664 9.1618 115.443 9.52742C113.46 8.90965 111.394 9.99643 110.996 10.2208H109.098L109.066 10.2234C108.974 10.2335 106.878 10.5007 105.8 11.0719C105.05 11.469 104.854 12.199 104.811 12.7008C104.45 12.4764 103.903 12.2217 103.344 12.2885C102.888 12.3415 102.504 12.5873 102.204 13.0197C102.043 13.2593 101.81 14.0031 101.983 14.7319C102.111 15.2652 102.436 15.6938 102.924 15.9712L103.181 15.5425C102.811 15.3345 102.577 15.0231 102.482 14.6197C102.342 14.0422 102.531 13.4371 102.63 13.2933C102.845 12.9819 103.096 12.8142 103.403 12.7764C104.123 12.6919 104.894 13.3728 104.903 13.3791L105.424 13.8455L105.328 13.1647C105.328 13.1521 105.166 11.967 106.044 11.5043C106.992 11.0025 108.921 10.7378 109.116 10.7125H111.14L111.202 10.6747C111.224 10.6596 113.494 9.31309 115.475 10.0569L115.703 10.1427L115.801 9.92457C115.82 9.8817 116.277 8.87813 117.385 8.84031L117.487 8.83779L117.557 8.76592C117.604 8.71927 118.709 7.59971 118.709 6.19144V6.07797L118.622 6.00484C118.546 5.94181 118.277 5.65561 118.336 5.42994C118.368 5.30386 118.54 5.06936 119.319 4.89411C119.475 4.8815 120.563 4.80586 120.963 4.80586C121.291 4.80586 122.248 4.26121 123.053 3.76699C122.795 4.03931 122.408 4.38854 121.829 4.82351C121.76 4.87394 121.715 4.90672 121.698 4.9168L121.575 5.0101L121.614 5.29377L121.748 5.34925C121.848 5.38707 121.909 5.37446 122.008 5.31142C122.045 5.28621 122.086 5.25343 122.139 5.21434C124.078 3.76446 124.108 3.10508 124.073 2.9374" fill="#FDC90D"/>
<path fill-rule="evenodd" clip-rule="evenodd" d="M124.073 2.93866L123.995 2.58187L123.683 2.78611C122.576 3.50475 121.222 4.29525 120.964 4.31542C120.515 4.31542 119.313 4.40367 119.261 4.40872L119.226 4.41376C118.408 4.59531 117.957 4.88907 117.846 5.31395C117.733 5.74891 118.039 6.13092 118.203 6.29734C118.156 7.28074 117.474 8.11915 117.259 8.35869C116.226 8.43812 115.664 9.1618 115.443 9.52742C113.46 8.90965 111.394 9.99643 110.996 10.2208H109.098L109.066 10.2234C108.974 10.2335 106.878 10.5007 105.8 11.0719C105.05 11.469 104.854 12.199 104.811 12.7008C104.45 12.4764 103.903 12.2217 103.344 12.2885C102.888 12.3415 102.504 12.5873 102.204 13.0197C102.043 13.2593 101.81 14.0031 101.983 14.7319C102.111 15.2652 102.436 15.6938 102.924 15.9712L103.181 15.5425C102.811 15.3345 102.577 15.0231 102.482 14.6197C102.342 14.0422 102.531 13.4371 102.63 13.2933C102.845 12.9819 103.096 12.8142 103.403 12.7764C104.123 12.6919 104.894 13.3728 104.903 13.3791L105.424 13.8455L105.328 13.1647C105.328 13.1521 105.166 11.967 106.044 11.5043C106.992 11.0025 108.921 10.7378 109.116 10.7125H111.14L111.202 10.6747C111.224 10.6596 113.494 9.31309 115.475 10.0569L115.703 10.1427L115.801 9.92457C115.82 9.8817 116.277 8.87813 117.385 8.84031L117.487 8.83779L117.557 8.76592C117.604 8.71927 118.709 7.59971 118.709 6.19144V6.07797L118.622 6.00484C118.546 5.94181 118.277 5.65561 118.336 5.42994C118.368 5.30386 118.54 5.06936 119.319 4.89411C119.475 4.8815 120.563 4.80586 120.963 4.80586C121.291 4.80586 122.248 4.26121 123.053 3.76699C122.795 4.03931 122.408 4.38854 121.829 4.82351C121.76 4.87394 121.715 4.90672 121.698 4.9168L121.575 5.0101L121.614 5.29377L121.748 5.34925C121.848 5.38707 121.909 5.37446 122.008 5.31142C122.045 5.28621 122.086 5.25343 122.139 5.21434C124.078 3.76446 124.108 3.10508 124.073 2.9374" fill="url(#paint47_linear_2835_10810)" fill-opacity="0.2"/>
<path fill-rule="evenodd" clip-rule="evenodd" d="M113.099 13.0752L112.813 12.668L113.727 12.0679C115.489 11.3997 116.518 10.6029 116.646 10.5007L118.257 8.67515L119.617 5.51315L119.89 5.41607C120.14 5.39337 120.454 5.22947 120.658 5.12231C120.801 5.04666 120.89 5.00128 120.975 4.98741L121.855 4.84242L121.942 5.32781L121.061 5.4728C121.05 5.47784 120.969 5.52323 120.9 5.55601C120.671 5.67579 120.333 5.85355 120.002 5.9002L118.67 8.96386L116.991 10.8601C116.948 10.8979 115.888 11.7716 113.939 12.5167L113.099 13.0714" fill="#FDC90D"/>
<path fill-rule="evenodd" clip-rule="evenodd" d="M113.099 13.0752L112.813 12.668L113.727 12.0679C115.489 11.3997 116.518 10.6029 116.646 10.5007L118.257 8.67515L119.617 5.51315L119.89 5.41607C120.14 5.39337 120.454 5.22947 120.658 5.12231C120.801 5.04666 120.89 5.00128 120.975 4.98741L121.855 4.84242L121.942 5.32781L121.061 5.4728C121.05 5.47784 120.969 5.52323 120.9 5.55601C120.671 5.67579 120.333 5.85355 120.002 5.9002L118.67 8.96386L116.991 10.8601C116.948 10.8979 115.888 11.7716 113.939 12.5167L113.099 13.0714" fill="url(#paint48_linear_2835_10810)" fill-opacity="0.2"/>
<path fill-rule="evenodd" clip-rule="evenodd" d="M116.191 15.5652C116.191 17.2105 115.006 16.531 115.006 16.531L114.368 15.8754C114.368 15.8754 112.153 14.1519 111.63 14.104C110.517 14.0057 108.984 12.9744 108.019 13.3677C107.936 13.403 107.856 13.4333 107.778 13.4598C105.885 14.1254 105.688 12.8344 105.688 12.8344C105.688 12.8344 105.519 11.5207 108.103 11.4791C110.687 11.4362 113.184 12.8735 113.184 12.8735L114.751 15.2563C114.751 15.2563 115.345 15.3194 115.514 15.7707C115.514 15.7707 116.191 15.1946 116.191 15.5652Z" fill="#FDC90D"/>
<path fill-rule="evenodd" clip-rule="evenodd" d="M116.191 15.5652C116.191 17.2105 115.006 16.531 115.006 16.531L114.368 15.8754C114.368 15.8754 112.153 14.1519 111.63 14.104C110.517 14.0057 108.984 12.9744 108.019 13.3677C107.936 13.403 107.856 13.4333 107.778 13.4598C105.885 14.1254 105.688 12.8344 105.688 12.8344C105.688 12.8344 105.519 11.5207 108.103 11.4791C110.687 11.4362 113.184 12.8735 113.184 12.8735L114.751 15.2563C114.751 15.2563 115.345 15.3194 115.514 15.7707C115.514 15.7707 116.191 15.1946 116.191 15.5652Z" fill="url(#paint49_linear_2835_10810)" fill-opacity="0.2"/>
<path fill-rule="evenodd" clip-rule="evenodd" d="M123.892 3.11139C123.892 3.11139 121.477 4.68356 121.034 4.68356C120.588 4.68356 119.351 4.7756 119.351 4.7756C117.255 5.2383 118.524 6.31625 118.524 6.31625C118.524 7.64006 117.444 8.71927 117.444 8.71927C116.155 8.75962 115.634 9.9523 115.634 9.9523C113.507 9.15046 111.136 10.589 111.136 10.589H109.166C109.166 10.589 107.037 10.8537 105.989 11.4085C104.942 11.9632 105.143 13.3198 105.143 13.3198C105.143 13.3198 103.483 11.8283 102.487 13.2795C102.279 13.5795 101.878 15.0824 103.036 15.8224L103.023 15.656L103.609 15.3093L104.244 15.5791L104.475 16.1641L104.453 16.2145L104.638 16.2599L104.911 16.3028L104.892 16.918C104.892 16.918 105.781 17.3089 105.907 16.2599L105.612 15.9952L105.589 15.748C105.589 15.748 105.524 14.8025 106.373 14.8428C106.373 14.8428 107.093 15.4606 107.919 15.419C108.744 15.3749 109.379 15.192 109.379 15.192L112.048 14.0195L113.211 12.8899L113.888 12.4171C115.836 11.677 116.896 10.7932 116.896 10.7932L118.548 8.9273L119.882 5.82329L119.986 5.78295C120.433 5.74134 120.963 5.37194 121.089 5.35051L121.969 5.20552L122.054 5.14248C124.02 3.67243 123.896 3.11265 123.896 3.11265" fill="#FDC90D"/>
<path fill-rule="evenodd" clip-rule="evenodd" d="M123.892 3.11139C123.892 3.11139 121.477 4.68356 121.034 4.68356C120.588 4.68356 119.351 4.7756 119.351 4.7756C117.255 5.2383 118.524 6.31625 118.524 6.31625C118.524 7.64006 117.444 8.71927 117.444 8.71927C116.155 8.75962 115.634 9.9523 115.634 9.9523C113.507 9.15046 111.136 10.589 111.136 10.589H109.166C109.166 10.589 107.037 10.8537 105.989 11.4085C104.942 11.9632 105.143 13.3198 105.143 13.3198C105.143 13.3198 103.483 11.8283 102.487 13.2795C102.279 13.5795 101.878 15.0824 103.036 15.8224L103.023 15.656L103.609 15.3093L104.244 15.5791L104.475 16.1641L104.453 16.2145L104.638 16.2599L104.911 16.3028L104.892 16.918C104.892 16.918 105.781 17.3089 105.907 16.2599L105.612 15.9952L105.589 15.748C105.589 15.748 105.524 14.8025 106.373 14.8428C106.373 14.8428 107.093 15.4606 107.919 15.419C108.744 15.3749 109.379 15.192 109.379 15.192L112.048 14.0195L113.211 12.8899L113.888 12.4171C115.836 11.677 116.896 10.7932 116.896 10.7932L118.548 8.9273L119.882 5.82329L119.986 5.78295C120.433 5.74134 120.963 5.37194 121.089 5.35051L121.969 5.20552L122.054 5.14248C124.02 3.67243 123.896 3.11265 123.896 3.11265" fill="url(#paint50_linear_2835_10810)" fill-opacity="0.2"/>
<path fill-rule="evenodd" clip-rule="evenodd" d="M7.02764 22.0897C8.3999 22.1073 9.668 21.9762 10.832 21.6989C11.9959 21.4177 13.0947 20.8037 14.1298 19.8581C15.0633 19.0084 15.7638 18.0338 16.2325 16.9332C16.7012 15.8325 16.9329 14.6739 16.9329 13.4585C16.9329 12.2028 16.6894 11.0063 16.2038 9.86531C15.7143 8.7281 14.9839 7.74344 14.0087 6.9126C12.9737 6.02502 11.8865 5.45011 10.7408 5.19039C9.5951 4.92941 8.35824 4.79955 7.02634 4.79955H5.20361V22.0897H7.02764ZM2.69995 2.51H6.93781C8.62774 2.53017 10.1797 2.70416 11.5923 3.03322C13.0049 3.36102 14.3785 4.07587 15.7117 5.17652C17.0045 6.23809 17.951 7.48372 18.546 8.91091C19.1449 10.3406 19.4444 11.8649 19.4444 13.4875C19.4444 15.0698 19.1397 16.5512 18.533 17.9317C17.925 19.3122 17.0058 20.544 15.7729 21.6257C14.4397 22.7831 13.0648 23.5257 11.6535 23.8548C10.2409 24.1826 8.64988 24.3465 6.87922 24.3465H2.69995V2.51Z" fill="#FDC90D"/>
<path fill-rule="evenodd" clip-rule="evenodd" d="M7.02764 22.0897C8.3999 22.1073 9.668 21.9762 10.832 21.6989C11.9959 21.4177 13.0947 20.8037 14.1298 19.8581C15.0633 19.0084 15.7638 18.0338 16.2325 16.9332C16.7012 15.8325 16.9329 14.6739 16.9329 13.4585C16.9329 12.2028 16.6894 11.0063 16.2038 9.86531C15.7143 8.7281 14.9839 7.74344 14.0087 6.9126C12.9737 6.02502 11.8865 5.45011 10.7408 5.19039C9.5951 4.92941 8.35824 4.79955 7.02634 4.79955H5.20361V22.0897H7.02764ZM2.69995 2.51H6.93781C8.62774 2.53017 10.1797 2.70416 11.5923 3.03322C13.0049 3.36102 14.3785 4.07587 15.7117 5.17652C17.0045 6.23809 17.951 7.48372 18.546 8.91091C19.1449 10.3406 19.4444 11.8649 19.4444 13.4875C19.4444 15.0698 19.1397 16.5512 18.533 17.9317C17.925 19.3122 17.0058 20.544 15.7729 21.6257C14.4397 22.7831 13.0648 23.5257 11.6535 23.8548C10.2409 24.1826 8.64988 24.3465 6.87922 24.3465H2.69995V2.51Z" fill="url(#paint51_linear_2835_10810)" fill-opacity="0.2"/>
<path fill-rule="evenodd" clip-rule="evenodd" d="M25.9763 2.51H28.4838V24.3465H25.9763V2.51Z" fill="#FDC90D"/>
<path fill-rule="evenodd" clip-rule="evenodd" d="M25.9763 2.51H28.4838V24.3465H25.9763V2.51Z" fill="url(#paint52_linear_2835_10810)" fill-opacity="0.2"/>
<path fill-rule="evenodd" clip-rule="evenodd" d="M43.0761 19.1647L49.4921 2.51H52.208L43.0761 25.6501L33.9442 2.51H36.6601L43.0761 19.1647Z" fill="#FDC90D"/>
<path fill-rule="evenodd" clip-rule="evenodd" d="M43.0761 19.1647L49.4921 2.51H52.208L43.0761 25.6501L33.9442 2.51H36.6601L43.0761 19.1647Z" fill="url(#paint53_linear_2835_10810)" fill-opacity="0.2"/>
<path fill-rule="evenodd" clip-rule="evenodd" d="M57.6398 2.51H69.3079V4.77056H60.146V11.2572H69.0384V13.514H60.146V22.0872H69.3079V24.3465H57.6398V2.51Z" fill="#FDC90D"/>
<path fill-rule="evenodd" clip-rule="evenodd" d="M57.6398 2.51H69.3079V4.77056H60.146V11.2572H69.0384V13.514H60.146V22.0872H69.3079V24.3465H57.6398V2.51Z" fill="url(#paint54_linear_2835_10810)" fill-opacity="0.2"/>
<path fill-rule="evenodd" clip-rule="evenodd" d="M79.066 22.0897H81.5736C81.6335 22.1073 81.6986 22.1174 81.7689 22.1174H81.9902C83.3247 22.0796 84.5485 21.7972 85.6617 21.2727C86.7762 20.7508 87.3334 19.6968 87.3334 18.1057C87.3334 16.6722 86.8309 15.6938 85.8271 15.1706C84.822 14.6474 83.7231 14.3385 82.5292 14.2402C82.3079 14.2402 82.0918 14.2351 81.873 14.225C81.6517 14.2162 81.4434 14.2124 81.2481 14.2124H79.0673V22.0884L79.066 22.0897ZM79.066 12.1259H80.0217C81.433 12.146 82.6607 11.962 83.7062 11.5736C84.7477 11.1853 85.2711 10.1364 85.2711 8.43182C85.2711 6.76509 84.7842 5.73882 83.8103 5.35051C82.8339 4.96345 81.5814 4.77056 80.0477 4.77056H79.0647V12.1246L79.066 12.1259ZM76.5598 2.51H80.2599C82.3079 2.53017 84.0746 2.96388 85.5563 3.81489C87.0405 4.66465 87.78 6.21035 87.78 8.44821C87.78 9.33579 87.6016 10.1414 87.2436 10.8664C86.8842 11.59 86.327 12.2028 85.5719 12.7046C86.9259 13.0147 87.974 13.6943 88.72 14.747C89.466 15.7997 89.8397 16.9811 89.8397 18.2948C89.8397 20.457 89.0533 22.0065 87.4831 22.942C85.9104 23.8787 84.0095 24.3465 81.7806 24.3465H76.5598V2.51Z" fill="#FDC90D"/>
<path fill-rule="evenodd" clip-rule="evenodd" d="M79.066 22.0897H81.5736C81.6335 22.1073 81.6986 22.1174 81.7689 22.1174H81.9902C83.3247 22.0796 84.5485 21.7972 85.6617 21.2727C86.7762 20.7508 87.3334 19.6968 87.3334 18.1057C87.3334 16.6722 86.8309 15.6938 85.8271 15.1706C84.822 14.6474 83.7231 14.3385 82.5292 14.2402C82.3079 14.2402 82.0918 14.2351 81.873 14.225C81.6517 14.2162 81.4434 14.2124 81.2481 14.2124H79.0673V22.0884L79.066 22.0897ZM79.066 12.1259H80.0217C81.433 12.146 82.6607 11.962 83.7062 11.5736C84.7477 11.1853 85.2711 10.1364 85.2711 8.43182C85.2711 6.76509 84.7842 5.73882 83.8103 5.35051C82.8339 4.96345 81.5814 4.77056 80.0477 4.77056H79.0647V12.1246L79.066 12.1259ZM76.5598 2.51H80.2599C82.3079 2.53017 84.0746 2.96388 85.5563 3.81489C87.0405 4.66465 87.78 6.21035 87.78 8.44821C87.78 9.33579 87.6016 10.1414 87.2436 10.8664C86.8842 11.59 86.327 12.2028 85.5719 12.7046C86.9259 13.0147 87.974 13.6943 88.72 14.747C89.466 15.7997 89.8397 16.9811 89.8397 18.2948C89.8397 20.457 89.0533 22.0065 87.4831 22.942C85.9104 23.8787 84.0095 24.3465 81.7806 24.3465H76.5598V2.51Z" fill="url(#paint55_linear_2835_10810)" fill-opacity="0.2"/>
<path fill-rule="evenodd" clip-rule="evenodd" d="M133.438 7.14458L129.59 15.8905H137.2L133.438 7.14458ZM128.574 18.1511L125.86 24.3465H123.115L133.498 1.46861L143.614 24.3465H140.841L138.185 18.1498H128.573L128.574 18.1511Z" fill="#FDC90D"/>
<path fill-rule="evenodd" clip-rule="evenodd" d="M133.438 7.14458L129.59 15.8905H137.2L133.438 7.14458ZM128.574 18.1511L125.86 24.3465H123.115L133.498 1.46861L143.614 24.3465H140.841L138.185 18.1498H128.573L128.574 18.1511Z" fill="url(#paint56_linear_2835_10810)" fill-opacity="0.2"/>
<path fill-rule="evenodd" clip-rule="evenodd" d="M151.552 12.6188H152.328C152.349 12.6377 152.363 12.6466 152.372 12.6466H152.418C153.811 12.6466 155.094 12.4146 156.268 11.9494C157.44 11.4829 158.028 10.4112 158.028 8.7218C158.028 6.92142 157.451 5.81195 156.297 5.39337C155.144 4.97732 153.81 4.77056 152.3 4.77056H151.552V12.6188ZM151.552 24.3465H149.046V2.51H152.298C154.427 2.53017 156.332 2.92605 158.014 3.6989C159.693 4.47049 160.536 6.09436 160.536 8.56546C160.536 10.2423 160.028 11.6291 159.012 12.7197C157.997 13.8102 156.626 14.4343 154.896 14.5856L162.056 24.3465H158.984L152.18 14.7609H151.552V24.3465Z" fill="#FDC90D"/>
<path fill-rule="evenodd" clip-rule="evenodd" d="M151.552 12.6188H152.328C152.349 12.6377 152.363 12.6466 152.372 12.6466H152.418C153.811 12.6466 155.094 12.4146 156.268 11.9494C157.44 11.4829 158.028 10.4112 158.028 8.7218C158.028 6.92142 157.451 5.81195 156.297 5.39337C155.144 4.97732 153.81 4.77056 152.3 4.77056H151.552V12.6188ZM151.552 24.3465H149.046V2.51H152.298C154.427 2.53017 156.332 2.92605 158.014 3.6989C159.693 4.47049 160.536 6.09436 160.536 8.56546C160.536 10.2423 160.028 11.6291 159.012 12.7197C157.997 13.8102 156.626 14.4343 154.896 14.5856L162.056 24.3465H158.984L152.18 14.7609H151.552V24.3465Z" fill="url(#paint57_linear_2835_10810)" fill-opacity="0.2"/>
<path fill-rule="evenodd" clip-rule="evenodd" d="M172.532 22.0897C173.904 22.1073 175.175 21.9762 176.336 21.6989C177.5 21.4177 178.602 20.8037 179.634 19.8581C180.568 19.0084 181.269 18.0338 181.737 16.9332C182.205 15.8325 182.44 14.6739 182.44 13.4585C182.44 12.2028 182.192 11.0063 181.707 9.86531C181.22 8.7281 180.488 7.74344 179.514 6.9126C178.479 6.02502 177.39 5.45011 176.246 5.19039C175.101 4.92941 173.864 4.79955 172.531 4.79955H170.71V22.0897H172.532ZM168.204 2.51H172.442C174.135 2.53017 175.684 2.70416 177.098 3.03322C178.511 3.36102 179.884 4.07587 181.217 5.17652C182.51 6.23809 183.457 7.48372 184.052 8.91091C184.651 10.3406 184.95 11.8649 184.95 13.4875C184.95 15.0698 184.645 16.5512 184.039 17.9317C183.432 19.3122 182.511 20.544 181.278 21.6257C179.945 22.7831 178.573 23.5257 177.16 23.8548C175.748 24.1826 174.155 24.3465 172.386 24.3465H168.207V2.51H168.204Z" fill="#FDC90D"/>
<path fill-rule="evenodd" clip-rule="evenodd" d="M172.532 22.0897C173.904 22.1073 175.175 21.9762 176.336 21.6989C177.5 21.4177 178.602 20.8037 179.634 19.8581C180.568 19.0084 181.269 18.0338 181.737 16.9332C182.205 15.8325 182.44 14.6739 182.44 13.4585C182.44 12.2028 182.192 11.0063 181.707 9.86531C181.22 8.7281 180.488 7.74344 179.514 6.9126C178.479 6.02502 177.39 5.45011 176.246 5.19039C175.101 4.92941 173.864 4.79955 172.531 4.79955H170.71V22.0897H172.532ZM168.204 2.51H172.442C174.135 2.53017 175.684 2.70416 177.098 3.03322C178.511 3.36102 179.884 4.07587 181.217 5.17652C182.51 6.23809 183.457 7.48372 184.052 8.91091C184.651 10.3406 184.95 11.8649 184.95 13.4875C184.95 15.0698 184.645 16.5512 184.039 17.9317C183.432 19.3122 182.511 20.544 181.278 21.6257C179.945 22.7831 178.573 23.5257 177.16 23.8548C175.748 24.1826 174.155 24.3465 172.386 24.3465H168.207V2.51H168.204Z" fill="url(#paint58_linear_2835_10810)" fill-opacity="0.2"/>
<path fill-rule="evenodd" clip-rule="evenodd" d="M117.847 14.9878C116.853 19.2164 112.947 22.3809 108.294 22.3809C102.89 22.3809 98.4951 18.1158 98.4951 12.8722C98.4951 7.62997 102.89 3.36354 108.294 3.36354C110.429 3.36354 112.408 4.03175 114.02 5.16139C114.371 4.58774 114.779 4.03427 115.264 3.55644C113.305 2.1696 110.896 1.3501 108.294 1.3501C101.749 1.3501 96.4237 6.51924 96.4237 12.8685C96.4237 19.2202 101.749 24.3881 108.294 24.3881C114.105 24.3881 118.957 20.312 119.968 14.9512C119.27 15.037 118.531 15.0143 117.849 14.9853" fill="#FDC90D"/>
<path fill-rule="evenodd" clip-rule="evenodd" d="M117.847 14.9878C116.853 19.2164 112.947 22.3809 108.294 22.3809C102.89 22.3809 98.4951 18.1158 98.4951 12.8722C98.4951 7.62997 102.89 3.36354 108.294 3.36354C110.429 3.36354 112.408 4.03175 114.02 5.16139C114.371 4.58774 114.779 4.03427 115.264 3.55644C113.305 2.1696 110.896 1.3501 108.294 1.3501C101.749 1.3501 96.4237 6.51924 96.4237 12.8685C96.4237 19.2202 101.749 24.3881 108.294 24.3881C114.105 24.3881 118.957 20.312 119.968 14.9512C119.27 15.037 118.531 15.0143 117.849 14.9853" fill="url(#paint59_linear_2835_10810)" fill-opacity="0.2"/>
<defs>
<linearGradient id="paint0_linear_2835_10810" x1="93.825" y1="1.3501" x2="93.825" y2="25.6501" gradientUnits="userSpaceOnUse">
<stop offset="0.510417" stop-color="#DA0000" stop-opacity="0"/>
<stop offset="1" stop-color="#DA0000"/>
</linearGradient>
<linearGradient id="paint1_linear_2835_10810" x1="93.825" y1="1.3501" x2="93.825" y2="25.6501" gradientUnits="userSpaceOnUse">
<stop offset="0.510417" stop-color="#DA0000" stop-opacity="0"/>
<stop offset="1" stop-color="#DA0000"/>
</linearGradient>
<linearGradient id="paint2_linear_2835_10810" x1="93.825" y1="1.3501" x2="93.825" y2="25.6501" gradientUnits="userSpaceOnUse">
<stop offset="0.510417" stop-color="#DA0000" stop-opacity="0"/>
<stop offset="1" stop-color="#DA0000"/>
</linearGradient>
<linearGradient id="paint3_linear_2835_10810" x1="93.825" y1="1.3501" x2="93.825" y2="25.6501" gradientUnits="userSpaceOnUse">
<stop offset="0.510417" stop-color="#DA0000" stop-opacity="0"/>
<stop offset="1" stop-color="#DA0000"/>
</linearGradient>
<linearGradient id="paint4_linear_2835_10810" x1="93.825" y1="1.3501" x2="93.825" y2="25.6501" gradientUnits="userSpaceOnUse">
<stop offset="0.510417" stop-color="#DA0000" stop-opacity="0"/>
<stop offset="1" stop-color="#DA0000"/>
</linearGradient>
<linearGradient id="paint5_linear_2835_10810" x1="93.825" y1="1.3501" x2="93.825" y2="25.6501" gradientUnits="userSpaceOnUse">
<stop offset="0.510417" stop-color="#DA0000" stop-opacity="0"/>
<stop offset="1" stop-color="#DA0000"/>
</linearGradient>
<linearGradient id="paint6_linear_2835_10810" x1="93.825" y1="1.3501" x2="93.825" y2="25.6501" gradientUnits="userSpaceOnUse">
<stop offset="0.510417" stop-color="#DA0000" stop-opacity="0"/>
<stop offset="1" stop-color="#DA0000"/>
</linearGradient>
<linearGradient id="paint7_linear_2835_10810" x1="93.825" y1="1.3501" x2="93.825" y2="25.6501" gradientUnits="userSpaceOnUse">
<stop offset="0.510417" stop-color="#DA0000" stop-opacity="0"/>
<stop offset="1" stop-color="#DA0000"/>
</linearGradient>
<linearGradient id="paint8_linear_2835_10810" x1="93.825" y1="1.3501" x2="93.825" y2="25.6501" gradientUnits="userSpaceOnUse">
<stop offset="0.510417" stop-color="#DA0000" stop-opacity="0"/>
<stop offset="1" stop-color="#DA0000"/>
</linearGradient>
<linearGradient id="paint9_linear_2835_10810" x1="93.825" y1="1.3501" x2="93.825" y2="25.6501" gradientUnits="userSpaceOnUse">
<stop offset="0.510417" stop-color="#DA0000" stop-opacity="0"/>
<stop offset="1" stop-color="#DA0000"/>
</linearGradient>
<linearGradient id="paint10_linear_2835_10810" x1="93.825" y1="1.3501" x2="93.825" y2="25.6501" gradientUnits="userSpaceOnUse">
<stop offset="0.510417" stop-color="#DA0000" stop-opacity="0"/>
<stop offset="1" stop-color="#DA0000"/>
</linearGradient>
<linearGradient id="paint11_linear_2835_10810" x1="93.825" y1="1.3501" x2="93.825" y2="25.6501" gradientUnits="userSpaceOnUse">
<stop offset="0.510417" stop-color="#DA0000" stop-opacity="0"/>
<stop offset="1" stop-color="#DA0000"/>
</linearGradient>
<linearGradient id="paint12_linear_2835_10810" x1="93.825" y1="1.3501" x2="93.825" y2="25.6501" gradientUnits="userSpaceOnUse">
<stop offset="0.510417" stop-color="#DA0000" stop-opacity="0"/>
<stop offset="1" stop-color="#DA0000"/>
</linearGradient>
<linearGradient id="paint13_linear_2835_10810" x1="93.825" y1="1.3501" x2="93.825" y2="25.6501" gradientUnits="userSpaceOnUse">
<stop offset="0.510417" stop-color="#DA0000" stop-opacity="0"/>
<stop offset="1" stop-color="#DA0000"/>
</linearGradient>
<linearGradient id="paint14_linear_2835_10810" x1="93.825" y1="1.3501" x2="93.825" y2="25.6501" gradientUnits="userSpaceOnUse">
<stop offset="0.510417" stop-color="#DA0000" stop-opacity="0"/>
<stop offset="1" stop-color="#DA0000"/>
</linearGradient>
<linearGradient id="paint15_linear_2835_10810" x1="93.825" y1="1.3501" x2="93.825" y2="25.6501" gradientUnits="userSpaceOnUse">
<stop offset="0.510417" stop-color="#DA0000" stop-opacity="0"/>
<stop offset="1" stop-color="#DA0000"/>
</linearGradient>
<linearGradient id="paint16_linear_2835_10810" x1="93.825" y1="1.3501" x2="93.825" y2="25.6501" gradientUnits="userSpaceOnUse">
<stop offset="0.510417" stop-color="#DA0000" stop-opacity="0"/>
<stop offset="1" stop-color="#DA0000"/>
</linearGradient>
<linearGradient id="paint17_linear_2835_10810" x1="93.825" y1="1.3501" x2="93.825" y2="25.6501" gradientUnits="userSpaceOnUse">
<stop offset="0.510417" stop-color="#DA0000" stop-opacity="0"/>
<stop offset="1" stop-color="#DA0000"/>
</linearGradient>
<linearGradient id="paint18_linear_2835_10810" x1="93.825" y1="1.3501" x2="93.825" y2="25.6501" gradientUnits="userSpaceOnUse">
<stop offset="0.510417" stop-color="#DA0000" stop-opacity="0"/>
<stop offset="1" stop-color="#DA0000"/>
</linearGradient>
<linearGradient id="paint19_linear_2835_10810" x1="93.825" y1="1.3501" x2="93.825" y2="25.6501" gradientUnits="userSpaceOnUse">
<stop offset="0.510417" stop-color="#DA0000" stop-opacity="0"/>
<stop offset="1" stop-color="#DA0000"/>
</linearGradient>
<linearGradient id="paint20_linear_2835_10810" x1="93.825" y1="1.3501" x2="93.825" y2="25.6501" gradientUnits="userSpaceOnUse">
<stop offset="0.510417" stop-color="#DA0000" stop-opacity="0"/>
<stop offset="1" stop-color="#DA0000"/>
</linearGradient>
<linearGradient id="paint21_linear_2835_10810" x1="93.825" y1="1.3501" x2="93.825" y2="25.6501" gradientUnits="userSpaceOnUse">
<stop offset="0.510417" stop-color="#DA0000" stop-opacity="0"/>
<stop offset="1" stop-color="#DA0000"/>
</linearGradient>
<linearGradient id="paint22_linear_2835_10810" x1="93.825" y1="1.3501" x2="93.825" y2="25.6501" gradientUnits="userSpaceOnUse">
<stop offset="0.510417" stop-color="#DA0000" stop-opacity="0"/>
<stop offset="1" stop-color="#DA0000"/>
</linearGradient>
<linearGradient id="paint23_linear_2835_10810" x1="93.825" y1="1.3501" x2="93.825" y2="25.6501" gradientUnits="userSpaceOnUse">
<stop offset="0.510417" stop-color="#DA0000" stop-opacity="0"/>
<stop offset="1" stop-color="#DA0000"/>
</linearGradient>
<linearGradient id="paint24_linear_2835_10810" x1="93.825" y1="1.3501" x2="93.825" y2="25.6501" gradientUnits="userSpaceOnUse">
<stop offset="0.510417" stop-color="#DA0000" stop-opacity="0"/>
<stop offset="1" stop-color="#DA0000"/>
</linearGradient>
<linearGradient id="paint25_linear_2835_10810" x1="93.825" y1="1.3501" x2="93.825" y2="25.6501" gradientUnits="userSpaceOnUse">
<stop offset="0.510417" stop-color="#DA0000" stop-opacity="0"/>
<stop offset="1" stop-color="#DA0000"/>
</linearGradient>
<linearGradient id="paint26_linear_2835_10810" x1="93.825" y1="1.3501" x2="93.825" y2="25.6501" gradientUnits="userSpaceOnUse">
<stop offset="0.510417" stop-color="#DA0000" stop-opacity="0"/>
<stop offset="1" stop-color="#DA0000"/>
</linearGradient>
<linearGradient id="paint27_linear_2835_10810" x1="93.825" y1="1.3501" x2="93.825" y2="25.6501" gradientUnits="userSpaceOnUse">
<stop offset="0.510417" stop-color="#DA0000" stop-opacity="0"/>
<stop offset="1" stop-color="#DA0000"/>
</linearGradient>
<linearGradient id="paint28_linear_2835_10810" x1="93.825" y1="1.3501" x2="93.825" y2="25.6501" gradientUnits="userSpaceOnUse">
<stop offset="0.510417" stop-color="#DA0000" stop-opacity="0"/>
<stop offset="1" stop-color="#DA0000"/>
</linearGradient>
<linearGradient id="paint29_linear_2835_10810" x1="93.825" y1="1.3501" x2="93.825" y2="25.6501" gradientUnits="userSpaceOnUse">
<stop offset="0.510417" stop-color="#DA0000" stop-opacity="0"/>
<stop offset="1" stop-color="#DA0000"/>
</linearGradient>
<linearGradient id="paint30_linear_2835_10810" x1="93.825" y1="1.3501" x2="93.825" y2="25.6501" gradientUnits="userSpaceOnUse">
<stop offset="0.510417" stop-color="#DA0000" stop-opacity="0"/>
<stop offset="1" stop-color="#DA0000"/>
</linearGradient>
<linearGradient id="paint31_linear_2835_10810" x1="93.825" y1="1.3501" x2="93.825" y2="25.6501" gradientUnits="userSpaceOnUse">
<stop offset="0.510417" stop-color="#DA0000" stop-opacity="0"/>
<stop offset="1" stop-color="#DA0000"/>
</linearGradient>
<linearGradient id="paint32_linear_2835_10810" x1="93.825" y1="1.3501" x2="93.825" y2="25.6501" gradientUnits="userSpaceOnUse">
<stop offset="0.510417" stop-color="#DA0000" stop-opacity="0"/>
<stop offset="1" stop-color="#DA0000"/>
</linearGradient>
<linearGradient id="paint33_linear_2835_10810" x1="93.825" y1="1.3501" x2="93.825" y2="25.6501" gradientUnits="userSpaceOnUse">
<stop offset="0.510417" stop-color="#DA0000" stop-opacity="0"/>
<stop offset="1" stop-color="#DA0000"/>
</linearGradient>
<linearGradient id="paint34_linear_2835_10810" x1="93.825" y1="1.3501" x2="93.825" y2="25.6501" gradientUnits="userSpaceOnUse">
<stop offset="0.510417" stop-color="#DA0000" stop-opacity="0"/>
<stop offset="1" stop-color="#DA0000"/>
</linearGradient>
<linearGradient id="paint35_linear_2835_10810" x1="93.825" y1="1.3501" x2="93.825" y2="25.6501" gradientUnits="userSpaceOnUse">
<stop offset="0.510417" stop-color="#DA0000" stop-opacity="0"/>
<stop offset="1" stop-color="#DA0000"/>
</linearGradient>
<linearGradient id="paint36_linear_2835_10810" x1="93.825" y1="1.3501" x2="93.825" y2="25.6501" gradientUnits="userSpaceOnUse">
<stop offset="0.510417" stop-color="#DA0000" stop-opacity="0"/>
<stop offset="1" stop-color="#DA0000"/>
</linearGradient>
<linearGradient id="paint37_linear_2835_10810" x1="93.825" y1="1.3501" x2="93.825" y2="25.6501" gradientUnits="userSpaceOnUse">
<stop offset="0.510417" stop-color="#DA0000" stop-opacity="0"/>
<stop offset="1" stop-color="#DA0000"/>
</linearGradient>
<linearGradient id="paint38_linear_2835_10810" x1="93.825" y1="1.3501" x2="93.825" y2="25.6501" gradientUnits="userSpaceOnUse">
<stop offset="0.510417" stop-color="#DA0000" stop-opacity="0"/>
<stop offset="1" stop-color="#DA0000"/>
</linearGradient>
<linearGradient id="paint39_linear_2835_10810" x1="93.825" y1="1.3501" x2="93.825" y2="25.6501" gradientUnits="userSpaceOnUse">
<stop offset="0.510417" stop-color="#DA0000" stop-opacity="0"/>
<stop offset="1" stop-color="#DA0000"/>
</linearGradient>
<linearGradient id="paint40_linear_2835_10810" x1="93.825" y1="1.3501" x2="93.825" y2="25.6501" gradientUnits="userSpaceOnUse">
<stop offset="0.510417" stop-color="#DA0000" stop-opacity="0"/>
<stop offset="1" stop-color="#DA0000"/>
</linearGradient>
<linearGradient id="paint41_linear_2835_10810" x1="93.825" y1="1.3501" x2="93.825" y2="25.6501" gradientUnits="userSpaceOnUse">
<stop offset="0.510417" stop-color="#DA0000" stop-opacity="0"/>
<stop offset="1" stop-color="#DA0000"/>
</linearGradient>
<linearGradient id="paint42_linear_2835_10810" x1="93.825" y1="1.3501" x2="93.825" y2="25.6501" gradientUnits="userSpaceOnUse">
<stop offset="0.510417" stop-color="#DA0000" stop-opacity="0"/>
<stop offset="1" stop-color="#DA0000"/>
</linearGradient>
<linearGradient id="paint43_linear_2835_10810" x1="93.825" y1="1.3501" x2="93.825" y2="25.6501" gradientUnits="userSpaceOnUse">
<stop offset="0.510417" stop-color="#DA0000" stop-opacity="0"/>
<stop offset="1" stop-color="#DA0000"/>
</linearGradient>
<linearGradient id="paint44_linear_2835_10810" x1="93.825" y1="1.3501" x2="93.825" y2="25.6501" gradientUnits="userSpaceOnUse">
<stop offset="0.510417" stop-color="#DA0000" stop-opacity="0"/>
<stop offset="1" stop-color="#DA0000"/>
</linearGradient>
<linearGradient id="paint45_linear_2835_10810" x1="93.825" y1="1.3501" x2="93.825" y2="25.6501" gradientUnits="userSpaceOnUse">
<stop offset="0.510417" stop-color="#DA0000" stop-opacity="0"/>
<stop offset="1" stop-color="#DA0000"/>
</linearGradient>
<linearGradient id="paint46_linear_2835_10810" x1="93.825" y1="1.3501" x2="93.825" y2="25.6501" gradientUnits="userSpaceOnUse">
<stop offset="0.510417" stop-color="#DA0000" stop-opacity="0"/>
<stop offset="1" stop-color="#DA0000"/>
</linearGradient>
<linearGradient id="paint47_linear_2835_10810" x1="93.825" y1="1.3501" x2="93.825" y2="25.6501" gradientUnits="userSpaceOnUse">
<stop offset="0.510417" stop-color="#DA0000" stop-opacity="0"/>
<stop offset="1" stop-color="#DA0000"/>
</linearGradient>
<linearGradient id="paint48_linear_2835_10810" x1="93.825" y1="1.3501" x2="93.825" y2="25.6501" gradientUnits="userSpaceOnUse">
<stop offset="0.510417" stop-color="#DA0000" stop-opacity="0"/>
<stop offset="1" stop-color="#DA0000"/>
</linearGradient>
<linearGradient id="paint49_linear_2835_10810" x1="93.825" y1="1.3501" x2="93.825" y2="25.6501" gradientUnits="userSpaceOnUse">
<stop offset="0.510417" stop-color="#DA0000" stop-opacity="0"/>
<stop offset="1" stop-color="#DA0000"/>
</linearGradient>
<linearGradient id="paint50_linear_2835_10810" x1="93.825" y1="1.3501" x2="93.825" y2="25.6501" gradientUnits="userSpaceOnUse">
<stop offset="0.510417" stop-color="#DA0000" stop-opacity="0"/>
<stop offset="1" stop-color="#DA0000"/>
</linearGradient>
<linearGradient id="paint51_linear_2835_10810" x1="93.825" y1="1.3501" x2="93.825" y2="25.6501" gradientUnits="userSpaceOnUse">
<stop offset="0.510417" stop-color="#DA0000" stop-opacity="0"/>
<stop offset="1" stop-color="#DA0000"/>
</linearGradient>
<linearGradient id="paint52_linear_2835_10810" x1="93.825" y1="1.3501" x2="93.825" y2="25.6501" gradientUnits="userSpaceOnUse">
<stop offset="0.510417" stop-color="#DA0000" stop-opacity="0"/>
<stop offset="1" stop-color="#DA0000"/>
</linearGradient>
<linearGradient id="paint53_linear_2835_10810" x1="93.825" y1="1.3501" x2="93.825" y2="25.6501" gradientUnits="userSpaceOnUse">
<stop offset="0.510417" stop-color="#DA0000" stop-opacity="0"/>
<stop offset="1" stop-color="#DA0000"/>
</linearGradient>
<linearGradient id="paint54_linear_2835_10810" x1="93.825" y1="1.3501" x2="93.825" y2="25.6501" gradientUnits="userSpaceOnUse">
<stop offset="0.510417" stop-color="#DA0000" stop-opacity="0"/>
<stop offset="1" stop-color="#DA0000"/>
</linearGradient>
<linearGradient id="paint55_linear_2835_10810" x1="93.825" y1="1.3501" x2="93.825" y2="25.6501" gradientUnits="userSpaceOnUse">
<stop offset="0.510417" stop-color="#DA0000" stop-opacity="0"/>
<stop offset="1" stop-color="#DA0000"/>
</linearGradient>
<linearGradient id="paint56_linear_2835_10810" x1="93.825" y1="1.3501" x2="93.825" y2="25.6501" gradientUnits="userSpaceOnUse">
<stop offset="0.510417" stop-color="#DA0000" stop-opacity="0"/>
<stop offset="1" stop-color="#DA0000"/>
</linearGradient>
<linearGradient id="paint57_linear_2835_10810" x1="93.825" y1="1.3501" x2="93.825" y2="25.6501" gradientUnits="userSpaceOnUse">
<stop offset="0.510417" stop-color="#DA0000" stop-opacity="0"/>
<stop offset="1" stop-color="#DA0000"/>
</linearGradient>
<linearGradient id="paint58_linear_2835_10810" x1="93.825" y1="1.3501" x2="93.825" y2="25.6501" gradientUnits="userSpaceOnUse">
<stop offset="0.510417" stop-color="#DA0000" stop-opacity="0"/>
<stop offset="1" stop-color="#DA0000"/>
</linearGradient>
<linearGradient id="paint59_linear_2835_10810" x1="93.825" y1="1.3501" x2="93.825" y2="25.6501" gradientUnits="userSpaceOnUse">
<stop offset="0.510417" stop-color="#DA0000" stop-opacity="0"/>
<stop offset="1" stop-color="#DA0000"/>
</linearGradient>
</defs>
</svg>
