<svg width="24" height="24" viewBox="0 0 24 24" fill="none" xmlns="http://www.w3.org/2000/svg">
<path d="M24 3.75V20.25C24 22.3178 22.3178 24 20.25 24H10.8281C8.76031 24 7.07812 22.3178 7.07812 20.25V18.375C7.07812 17.8572 7.4978 17.4375 8.01562 17.4375C8.53345 17.4375 8.95312 17.8572 8.95312 18.375V20.25C8.95312 21.2838 9.79431 22.125 10.8281 22.125H20.25C21.2838 22.125 22.125 21.2838 22.125 20.25V3.75C22.125 2.71619 21.2838 1.875 20.25 1.875H10.8281C9.79431 1.875 8.95312 2.71619 8.95312 3.75V5.625C8.95312 6.14282 8.53345 6.5625 8.01562 6.5625C7.4978 6.5625 7.07812 6.14282 7.07812 5.625V3.75C7.07812 1.68219 8.76031 0 10.8281 0H20.25C22.3178 0 24 1.68219 24 3.75ZM10.5897 14.4282C10.2222 14.7929 10.2198 15.3865 10.5844 15.754C10.7677 15.9388 11.0089 16.0312 11.25 16.0312C11.4888 16.0312 11.7275 15.9406 11.9103 15.7593L14.0264 13.6599C14.4728 13.2169 14.7188 12.6275 14.7188 12C14.7188 11.3725 14.4728 10.7831 14.0264 10.3401L11.9103 8.24066C11.5428 7.8761 10.9492 7.8783 10.5844 8.24597C10.2198 8.61346 10.2222 9.20709 10.5897 9.57166L12.0923 11.0625H0.9375C0.419678 11.0625 0 11.4822 0 12C0 12.5178 0.419678 12.9375 0.9375 12.9375H12.0923L10.5897 14.4282Z" fill="#000345"/>
</svg>
