<svg width="16" height="16" viewBox="0 0 16 16" fill="none" xmlns="http://www.w3.org/2000/svg">
<g clip-path="url(#clip0_475_29928)">
<path d="M8 16C12.4183 16 16 12.4183 16 8C16 3.58172 12.4183 0 8 0C3.58172 0 0 3.58172 0 8C0 12.4183 3.58172 16 8 16Z" fill="#F0F0F0"/>
<path d="M7.65222 7.99992H16C16 7.27783 15.9038 6.5784 15.7244 5.91296H7.65222V7.99992Z" fill="#D80027"/>
<path d="M7.65222 3.8261H14.8258C14.3361 3.02698 13.71 2.32064 12.9799 1.73914H7.65222V3.8261Z" fill="#D80027"/>
<path d="M8.00005 16.0001C9.88283 16.0001 11.6134 15.3494 12.98 14.261H3.02014C4.38674 15.3494 6.11727 16.0001 8.00005 16.0001Z" fill="#D80027"/>
<path d="M1.17423 12.1739H14.8259C15.219 11.5324 15.5239 10.8311 15.7244 10.0869H0.275635C0.476166 10.8311 0.781072 11.5324 1.17423 12.1739Z" fill="#D80027"/>
<path d="M8 8C8 3.58175 8 3.06087 8 0C3.58175 0 0 3.58175 0 8H8Z" fill="#0052B4"/>
<path d="M5.3198 6.84781C4.22724 6.84781 3.34155 5.9621 3.34155 4.86956C3.34155 3.77703 4.22727 2.89131 5.3198 2.89131C5.66046 2.89131 5.98099 2.97747 6.26083 3.1291C5.82183 2.69981 5.22146 2.43481 4.55893 2.43481C3.21427 2.43481 2.12415 3.52491 2.12415 4.8696C2.12415 6.21428 3.21427 7.30438 4.55893 7.30438C5.22146 7.30438 5.82183 7.03938 6.26083 6.6101C5.98099 6.76166 5.66049 6.84781 5.3198 6.84781Z" fill="#FFDA44"/>
<path d="M5.87732 3.47827L6.22854 4.21271L7.0217 4.02946L6.66651 4.76193L7.30438 5.26777L6.5102 5.4468L6.51241 6.2609L5.87732 5.75158L5.2422 6.2609L5.24438 5.4468L4.4502 5.26777L5.08807 4.76193L4.73285 4.02946L5.52607 4.21271L5.87732 3.47827Z" fill="#FFDA44"/>
</g>
<defs>
<clipPath id="clip0_475_29928">
<rect width="16" height="16" fill="white"/>
</clipPath>
</defs>
</svg>
