<svg width="40" height="40" viewBox="0 0 40 40" fill="none" xmlns="http://www.w3.org/2000/svg">
<path d="M27.4096 19.8723L27.8405 18.4355C27.8074 18.4256 27.7887 18.3907 27.7986 18.3577L27.7986 18.3577C28.0259 17.5995 28.1405 16.8112 28.1405 16.0156C28.1405 11.5256 24.4899 7.875 19.9999 7.875C15.5098 7.875 11.8592 11.5256 11.8592 16.0156C11.8592 20.5057 15.5098 24.1562 19.9999 24.1562C20.7572 24.1562 21.5087 24.0523 22.2332 23.8461L22.2333 23.8461C22.2663 23.8367 22.3008 23.8556 22.3105 23.889C22.32 23.9224 22.3005 23.9569 22.2676 23.9663L22.2674 23.9663C21.5344 24.175 20.7716 24.2812 19.9999 24.2812C15.4435 24.2812 11.7342 20.572 11.7342 16.0156C11.7342 11.4593 15.4435 7.75 19.9999 7.75C24.5562 7.75 28.2655 11.4593 28.2655 16.0156C28.2655 16.8266 28.1483 17.6263 27.9183 18.3935C27.9084 18.4265 27.8737 18.4454 27.8402 18.4354L27.4096 19.8723ZM27.4096 19.8723C28.2363 20.12 29.1071 19.6511 29.3551 18.8245L21.8226 22.4034C21.2332 22.5712 20.6199 22.6562 19.9999 22.6562C16.3382 22.6562 13.3592 19.6773 13.3592 16.0156C13.3592 12.354 16.3382 9.375 19.9999 9.375C23.6615 9.375 26.6405 12.354 26.6405 16.0156C26.6405 16.6671 26.5467 17.3102 26.3618 17.9268C26.1139 18.7534 26.5831 19.6244 27.4096 19.8723ZM20.5214 38.4708L20.5213 38.4709C20.5099 38.489 20.4899 38.5 20.4685 38.5H20.3077L21.229 37.1828C22.836 34.8852 24.6675 32.8764 26.5204 30.8473L26.5204 30.8473C26.5765 30.7859 26.6326 30.7245 26.6886 30.6632C30.5636 26.4207 34.3841 22.238 34.3902 15.9986L34.3902 15.9954C34.3811 8.07119 27.9269 1.625 19.9998 1.625C12.0724 1.625 5.61845 8.07144 5.60937 15.9988L5.60938 16.0019C5.61541 22.2382 9.4361 26.421 13.311 30.6632C13.367 30.7246 13.4231 30.7859 13.4791 30.8473L14.5868 29.8359L13.4791 30.8473C15.332 32.8765 17.1637 34.8852 18.7706 37.1828L19.6918 38.5H19.531C19.5096 38.5 19.4896 38.489 19.4782 38.4709C17.694 35.6482 15.4738 33.2169 13.424 30.9723L13.3868 30.9316C13.3868 30.9316 13.3868 30.9316 13.3868 30.9316C11.2533 28.595 9.35713 26.5116 7.90688 24.1469C6.2621 21.4648 5.48742 18.8122 5.48438 16.0004C5.48925 12.121 6.99914 8.48536 9.74135 5.74599C12.4843 3.00593 16.1226 1.5 19.9998 1.5C23.8768 1.5 27.5152 3.00593 30.2582 5.7459C33.0004 8.48525 34.5102 12.1206 34.5152 15.9962C34.5122 18.8118 33.7376 21.4647 32.0926 24.1468C30.6424 26.5116 28.7462 28.5951 26.6127 30.9315L26.5755 30.9722C24.5258 33.2169 22.3055 35.6481 20.5214 38.4708Z" fill="" stroke="#0059DE" stroke-width="3"/>
</svg>
