<svg width="40" height="40" viewBox="0 0 40 40" fill="none" xmlns="http://www.w3.org/2000/svg">
<g clip-path="url(#clip0_4145_18157)">
<mask id="path-1-inside-1_4145_18157" fill="white">
<path d="M33.6328 7.86132C32.8777 7.86132 32.2656 8.47341 32.2656 9.22851V14.082H29.2685C28.587 10.2406 25.2204 7.31397 21.1822 7.31397H8.21235C3.68409 7.31397 0 10.994 0 15.5174C0 17.6897 0.841709 19.7371 2.37002 21.2822C3.89635 22.8253 5.93216 23.6909 8.10243 23.7195C8.1254 23.7199 8.14789 23.7195 8.17059 23.7187C8.55723 23.7045 8.94633 23.6571 9.32688 23.5777C12.2014 22.9782 13.5352 21.6915 14.332 20.9227C14.4417 20.8169 14.5772 20.6862 14.6846 20.5928C14.7988 20.6903 14.9483 20.8358 15.0683 20.9526C15.8997 21.7621 17.1562 22.9856 19.9955 23.5776C20.3846 23.6588 20.7828 23.7065 21.1789 23.7194C21.1937 23.7199 21.2085 23.7202 21.2233 23.7202H21.2315C23.4145 23.7072 25.4648 22.8486 27.0047 21.3022C28.2356 20.0661 29.0242 18.5065 29.292 16.8164H32.2656V28.7109C32.2656 30.671 30.671 32.2656 28.7109 32.2656H19.4824C17.5224 32.2656 15.9277 30.671 15.9277 28.7109V27.8976C16.6556 28.0452 17.3295 28.2684 17.6166 28.3793C17.779 28.4421 17.946 28.472 18.1103 28.472C18.6577 28.472 19.1745 28.1409 19.3849 27.6C19.6586 26.8963 19.31 26.1039 18.6062 25.8303C18.3928 25.7473 16.4701 25.0195 14.6927 25.0195C12.9153 25.0195 10.9926 25.7473 10.7792 25.8303C10.0754 26.1039 9.72679 26.8963 10.0005 27.6C10.2741 28.3037 11.0663 28.6524 11.7703 28.3787C12.0207 28.2813 12.5694 28.0968 13.1934 27.9534V28.7109C13.1934 32.1787 16.0146 35 19.4824 35H28.7109C32.1787 35 35 32.1787 35 28.7109V9.22851C35 8.47341 34.3879 7.86132 33.6328 7.86132ZM21.2422 20.9856C21.0119 20.9767 20.7804 20.9482 20.5538 20.9009C18.4935 20.4713 17.652 19.6519 16.9758 18.9935C16.4398 18.4716 15.8367 17.8843 14.8946 17.7876C14.8302 17.7782 14.7643 17.7734 14.6973 17.7734H14.6252C14.5487 17.7734 14.4737 17.7797 14.4006 17.7918C13.5285 17.8984 12.9492 18.4574 12.4335 18.9549C11.7372 19.6266 10.8708 20.4626 8.7688 20.9009C8.54957 20.9466 8.32603 20.9748 8.1038 20.9847C5.13994 20.9269 2.73438 18.4815 2.73438 15.5174C2.73438 12.5018 5.19176 10.0483 8.21235 10.0483H21.1822C24.2028 10.0483 26.6602 12.5018 26.6602 15.5174C26.6602 18.506 24.2321 20.9534 21.2422 20.9856Z"/>
<path d="M33.6328 0C32.8777 0 32.2656 0.612089 32.2656 1.36719V3.75976C32.2656 4.51486 32.8777 5.12695 33.6328 5.12695C34.3879 5.12695 35 4.51486 35 3.75976V1.36719C35 0.612089 34.3879 0 33.6328 0Z"/>
</mask>
<path d="M33.6328 7.86132C32.8777 7.86132 32.2656 8.47341 32.2656 9.22851V14.082H29.2685C28.587 10.2406 25.2204 7.31397 21.1822 7.31397H8.21235C3.68409 7.31397 0 10.994 0 15.5174C0 17.6897 0.841709 19.7371 2.37002 21.2822C3.89635 22.8253 5.93216 23.6909 8.10243 23.7195C8.1254 23.7199 8.14789 23.7195 8.17059 23.7187C8.55723 23.7045 8.94633 23.6571 9.32688 23.5777C12.2014 22.9782 13.5352 21.6915 14.332 20.9227C14.4417 20.8169 14.5772 20.6862 14.6846 20.5928C14.7988 20.6903 14.9483 20.8358 15.0683 20.9526C15.8997 21.7621 17.1562 22.9856 19.9955 23.5776C20.3846 23.6588 20.7828 23.7065 21.1789 23.7194C21.1937 23.7199 21.2085 23.7202 21.2233 23.7202H21.2315C23.4145 23.7072 25.4648 22.8486 27.0047 21.3022C28.2356 20.0661 29.0242 18.5065 29.292 16.8164H32.2656V28.7109C32.2656 30.671 30.671 32.2656 28.7109 32.2656H19.4824C17.5224 32.2656 15.9277 30.671 15.9277 28.7109V27.8976C16.6556 28.0452 17.3295 28.2684 17.6166 28.3793C17.779 28.4421 17.946 28.472 18.1103 28.472C18.6577 28.472 19.1745 28.1409 19.3849 27.6C19.6586 26.8963 19.31 26.1039 18.6062 25.8303C18.3928 25.7473 16.4701 25.0195 14.6927 25.0195C12.9153 25.0195 10.9926 25.7473 10.7792 25.8303C10.0754 26.1039 9.72679 26.8963 10.0005 27.6C10.2741 28.3037 11.0663 28.6524 11.7703 28.3787C12.0207 28.2813 12.5694 28.0968 13.1934 27.9534V28.7109C13.1934 32.1787 16.0146 35 19.4824 35H28.7109C32.1787 35 35 32.1787 35 28.7109V9.22851C35 8.47341 34.3879 7.86132 33.6328 7.86132ZM21.2422 20.9856C21.0119 20.9767 20.7804 20.9482 20.5538 20.9009C18.4935 20.4713 17.652 19.6519 16.9758 18.9935C16.4398 18.4716 15.8367 17.8843 14.8946 17.7876C14.8302 17.7782 14.7643 17.7734 14.6973 17.7734H14.6252C14.5487 17.7734 14.4737 17.7797 14.4006 17.7918C13.5285 17.8984 12.9492 18.4574 12.4335 18.9549C11.7372 19.6266 10.8708 20.4626 8.7688 20.9009C8.54957 20.9466 8.32603 20.9748 8.1038 20.9847C5.13994 20.9269 2.73438 18.4815 2.73438 15.5174C2.73438 12.5018 5.19176 10.0483 8.21235 10.0483H21.1822C24.2028 10.0483 26.6602 12.5018 26.6602 15.5174C26.6602 18.506 24.2321 20.9534 21.2422 20.9856Z" fill="black"/>
<path d="M33.6328 0C32.8777 0 32.2656 0.612089 32.2656 1.36719V3.75976C32.2656 4.51486 32.8777 5.12695 33.6328 5.12695C34.3879 5.12695 35 4.51486 35 3.75976V1.36719C35 0.612089 34.3879 0 33.6328 0Z" fill="black"/>
<path d="M32.2656 14.082V17.082H35.2656V14.082H32.2656ZM29.2685 14.082L26.3146 14.606L26.7538 17.082H29.2685V14.082ZM2.37002 21.2822L4.50293 19.1725L4.50291 19.1725L2.37002 21.2822ZM8.10243 23.7195L8.156 20.7199L8.14193 20.7197L8.10243 23.7195ZM8.17059 23.7187L8.26993 26.7171L8.28084 26.7167L8.17059 23.7187ZM9.32689 23.5777L8.71445 20.6409L8.71391 20.641L9.32689 23.5777ZM14.332 20.9227L16.415 23.0817L16.4153 23.0814L14.332 20.9227ZM14.6846 20.5928L16.6313 18.3102L14.6649 16.6331L12.7153 18.3296L14.6846 20.5928ZM15.0683 20.9526L17.1611 18.8031L17.1606 18.8026L15.0683 20.9526ZM19.9955 23.5776L20.6086 20.6409L20.6079 20.6408L19.9955 23.5776ZM21.1789 23.7194L21.0811 26.7178L21.0817 26.7178L21.1789 23.7194ZM21.2315 23.7202V26.7202H21.2404L21.2493 26.7201L21.2315 23.7202ZM27.0047 21.3022L24.879 19.1853L24.879 19.1853L27.0047 21.3022ZM29.292 16.8164V13.8164H26.7299L26.329 16.347L29.292 16.8164ZM32.2656 16.8164H35.2656V13.8164H32.2656V16.8164ZM15.9277 27.8976L16.5239 24.9574L12.9277 24.2282V27.8976H15.9277ZM17.6166 28.3793L18.7003 25.5818L18.6968 25.5805L17.6166 28.3793ZM19.3849 27.6L22.1808 28.6877L22.1809 28.6875L19.3849 27.6ZM18.6062 25.8303L17.5189 28.6263L17.519 28.6263L18.6062 25.8303ZM10.7792 25.8303L11.8664 28.6263L11.8664 28.6263L10.7792 25.8303ZM10.0005 27.6L12.7965 26.5127L12.7965 26.5126L10.0005 27.6ZM11.7703 28.3787L12.8574 31.1748L12.8577 31.1747L11.7703 28.3787ZM13.1934 27.9534H16.1934V24.186L12.5216 25.0296L13.1934 27.9534ZM21.2422 20.9856L21.1256 23.9834L21.2 23.9863L21.2745 23.9855L21.2422 20.9856ZM20.5538 20.9009L19.9414 23.8378L19.9416 23.8378L20.5538 20.9009ZM16.9758 18.9935L14.8829 21.1429L14.8829 21.1429L16.9758 18.9935ZM14.8946 17.7876L14.4633 20.7564L14.5256 20.7655L14.5882 20.7719L14.8946 17.7876ZM14.4006 17.7918L14.7645 20.7697L14.8278 20.7619L14.8906 20.7515L14.4006 17.7918ZM12.4335 18.9549L10.3507 16.7957L10.3505 16.7959L12.4335 18.9549ZM8.7688 20.9009L8.15639 17.964L8.15617 17.9641L8.7688 20.9009ZM8.1038 20.9847L8.04527 23.9842L8.14187 23.9861L8.23839 23.9817L8.1038 20.9847ZM33.6328 4.86132C31.2209 4.86132 29.2656 6.81656 29.2656 9.22851H35.2656C35.2656 10.1303 34.5346 10.8613 33.6328 10.8613V4.86132ZM29.2656 9.22851V14.082H35.2656V9.22851H29.2656ZM32.2656 11.082H29.2685V17.082H32.2656V11.082ZM32.2224 13.558C31.2912 8.30913 26.7002 4.31397 21.1822 4.31397V10.314C23.7405 10.314 25.8828 12.172 26.3146 14.606L32.2224 13.558ZM21.1822 4.31397H8.21235V10.314H21.1822V4.31397ZM8.21235 4.31397C2.03034 4.31397 -3 9.334 -3 15.5174H3C3 12.6539 5.33784 10.314 8.21235 10.314V4.31397ZM-3 15.5174C-3 18.48 -1.84643 21.2854 0.237124 23.3919L4.50291 19.1725C3.52985 18.1887 3 16.8993 3 15.5174H-3ZM0.237109 23.3918C2.31735 25.495 5.10508 26.6803 8.06294 26.7192L8.14193 20.7197C6.75924 20.7015 5.47535 20.1556 4.50293 19.1725L0.237109 23.3918ZM8.04887 26.719C8.14138 26.7206 8.21904 26.7188 8.26993 26.7171L8.07124 20.7204C8.07674 20.7202 8.10942 20.7191 8.15599 20.7199L8.04887 26.719ZM8.28084 26.7167C8.83666 26.6962 9.39394 26.6283 9.93986 26.5144L8.71391 20.641C8.49872 20.6859 8.27779 20.7127 8.06034 20.7207L8.28084 26.7167ZM9.93932 26.5145C13.6173 25.7475 15.4452 24.0173 16.415 23.0817L12.2489 18.7638C11.8679 19.1315 11.5279 19.453 11.0244 19.7661C10.5308 20.073 9.80766 20.4129 8.71445 20.6409L9.93932 26.5145ZM16.4153 23.0814C16.5417 22.9594 16.6169 22.8881 16.6538 22.8559L12.7153 18.3296C12.5374 18.4844 12.3416 18.6744 12.2486 18.7641L16.4153 23.0814ZM12.7378 22.8754C12.7353 22.8733 12.7568 22.8919 12.8105 22.9428C12.8603 22.99 12.9133 23.0415 12.9759 23.1025L17.1606 18.8026C17.0666 18.7112 16.8375 18.486 16.6313 18.3102L12.7378 22.8754ZM12.9754 23.102C13.9894 24.0893 15.7412 25.755 19.3831 26.5145L20.6079 20.6408C19.5211 20.4142 18.8281 20.0884 18.3641 19.7996C17.8882 19.5035 17.5641 19.1956 17.1611 18.8031L12.9754 23.102ZM19.3825 26.5143C19.9412 26.6309 20.5117 26.6992 21.0811 26.7178L21.2767 20.721C21.0538 20.7137 20.828 20.6867 20.6086 20.6409L19.3825 26.5143ZM21.0817 26.7178C21.124 26.7192 21.1716 26.7202 21.2233 26.7202V20.7202C21.2454 20.7202 21.2633 20.7206 21.2761 20.721L21.0817 26.7178ZM21.2233 26.7202H21.2315V20.7202H21.2233V26.7202ZM21.2493 26.7201C24.2236 26.7025 27.0316 25.5266 29.1304 23.4191L24.879 19.1853C23.8979 20.1705 22.6054 20.712 21.2138 20.7202L21.2493 26.7201ZM29.1304 23.4191C30.8056 21.737 31.8882 19.6013 32.255 17.2859L26.329 16.347C26.1603 17.4116 25.6657 18.3953 24.879 19.1853L29.1304 23.4191ZM29.292 19.8164H32.2656V13.8164H29.292V19.8164ZM29.2656 16.8164V28.7109H35.2656V16.8164H29.2656ZM29.2656 28.7109C29.2656 29.0141 29.0142 29.2656 28.7109 29.2656V35.2656C32.3279 35.2656 35.2656 32.3279 35.2656 28.7109H29.2656ZM28.7109 29.2656H19.4824V35.2656H28.7109V29.2656ZM19.4824 29.2656C19.1792 29.2656 18.9277 29.0141 18.9277 28.7109H12.9277C12.9277 32.3279 15.8655 35.2656 19.4824 35.2656V29.2656ZM18.9277 28.7109V27.8976H12.9277V28.7109H18.9277ZM15.3315 30.8378C15.8726 30.9475 16.3842 31.1193 16.5364 31.178L18.6968 25.5805C18.2748 25.4176 17.4385 25.1429 16.5239 24.9574L15.3315 30.8378ZM16.533 31.1767C17.0457 31.3753 17.5805 31.472 18.1103 31.472V25.472C18.3114 25.472 18.5122 25.509 18.7003 25.5818L16.533 31.1767ZM18.1103 31.472C19.8537 31.472 21.5071 30.4194 22.1808 28.6877L16.589 26.5123C16.8419 25.8624 17.4618 25.472 18.1103 25.472V31.472ZM22.1809 28.6875C23.0551 26.4395 21.9415 23.9083 19.6934 23.0342L17.519 28.6263C16.6784 28.2995 16.262 27.353 16.5889 26.5126L22.1809 28.6875ZM19.6934 23.0342C19.4603 22.9436 17.0794 22.0195 14.6927 22.0195V28.0195C15.2159 28.0195 15.8601 28.1336 16.4712 28.2947C17.0575 28.4492 17.4791 28.6108 17.5189 28.6263L19.6934 23.0342ZM14.6927 22.0195C12.306 22.0195 9.92506 22.9436 9.69193 23.0342L11.8664 28.6263C11.9063 28.6108 12.3279 28.4492 12.9142 28.2947C13.5253 28.1336 14.1695 28.0195 14.6927 28.0195V22.0195ZM9.69199 23.0342C7.44384 23.9083 6.33023 26.4395 7.20452 28.6875L12.7965 26.5126C13.1233 27.353 12.707 28.2995 11.8664 28.6263L9.69199 23.0342ZM7.20446 28.6873C8.07856 30.9351 10.6092 32.0489 12.8574 31.1748L10.6831 25.5826C11.5234 25.2559 12.4697 25.6723 12.7965 26.5127L7.20446 28.6873ZM12.8577 31.1747C12.9787 31.1276 13.3886 30.9868 13.8651 30.8773L12.5216 25.0296C11.7503 25.2068 11.0628 25.435 10.6828 25.5827L12.8577 31.1747ZM10.1934 27.9534V28.7109H16.1934V27.9534H10.1934ZM10.1934 28.7109C10.1934 33.8356 14.3578 38 19.4824 38V32C17.6715 32 16.1934 30.5219 16.1934 28.7109H10.1934ZM19.4824 38H28.7109V32H19.4824V38ZM28.7109 38C33.8356 38 38 33.8356 38 28.7109H32C32 30.5219 30.5219 32 28.7109 32V38ZM38 28.7109V9.22851H32V28.7109H38ZM38 9.22851C38 6.81656 36.0448 4.86132 33.6328 4.86132V10.8613C32.7311 10.8613 32 10.1303 32 9.22851H38ZM21.3588 17.9879C21.2961 17.9855 21.2304 17.9775 21.166 17.9641L19.9416 23.8378C20.3304 23.9189 20.7277 23.9679 21.1256 23.9834L21.3588 17.9879ZM21.1662 17.9641C20.4436 17.8134 20.0496 17.6209 19.8211 17.4799C19.5769 17.3293 19.4037 17.1703 19.0687 16.8441L14.8829 21.1429C15.2241 21.4751 15.8098 22.0551 16.6705 22.5862C17.5468 23.1268 18.6037 23.5588 19.9414 23.8378L21.1662 17.9641ZM19.0687 16.8441C18.6072 16.3947 17.3134 15.0202 15.201 14.8033L14.5882 20.7719C14.5436 20.7673 14.4956 20.7554 14.4539 20.7392C14.4154 20.7242 14.4029 20.7136 14.421 20.7257C14.442 20.7397 14.4872 20.7727 14.5672 20.8436C14.6527 20.9195 14.7415 21.0052 14.8829 21.1429L19.0687 16.8441ZM15.3259 14.8188C15.1173 14.7884 14.9073 14.7734 14.6973 14.7734V20.7734C14.6213 20.7734 14.543 20.768 14.4633 20.7564L15.3259 14.8188ZM14.6973 14.7734H14.6252V20.7734H14.6973V14.7734ZM14.6252 14.7734C14.3841 14.7734 14.1451 14.7933 13.9105 14.8321L14.8906 20.7515C14.8022 20.7662 14.7134 20.7734 14.6252 20.7734V14.7734ZM14.0367 14.814C12.0325 15.0589 10.7793 16.3823 10.3507 16.7957L14.5162 21.1141C14.6523 20.9828 14.7385 20.9003 14.8215 20.827C14.8994 20.7583 14.9434 20.7258 14.964 20.7118C14.9822 20.6995 14.9685 20.7111 14.9271 20.7279C14.8825 20.746 14.8254 20.7622 14.7645 20.7697L14.0367 14.814ZM10.3505 16.7959C10.0053 17.129 9.81959 17.2986 9.55863 17.4588C9.31343 17.6094 8.90049 17.8089 8.15639 17.964L9.38121 23.8377C10.7391 23.5545 11.8104 23.1169 12.6979 22.572C13.5698 22.0367 14.1655 21.4525 14.5164 21.1139L10.3505 16.7959ZM8.15617 17.9641C8.09377 17.9771 8.03009 17.985 7.96921 17.9878L8.23839 23.9817C8.62198 23.9645 9.00537 23.9161 9.38143 23.8377L8.15617 17.9641ZM8.16232 17.9853C6.82676 17.9593 5.73438 16.842 5.73438 15.5174H-0.265625C-0.265625 20.121 3.45312 23.8946 8.04527 23.9842L8.16232 17.9853ZM5.73438 15.5174C5.73438 14.1632 6.844 13.0483 8.21235 13.0483V7.04834C3.53951 7.04834 -0.265625 10.8403 -0.265625 15.5174H5.73438ZM8.21235 13.0483H21.1822V7.04834H8.21235V13.0483ZM21.1822 13.0483C22.5505 13.0483 23.6602 14.1632 23.6602 15.5174H29.6602C29.6602 10.8403 25.855 7.04834 21.1822 7.04834V13.0483ZM23.6602 15.5174C23.6602 16.8563 22.561 17.9713 21.2099 17.9858L21.2745 23.9855C25.9032 23.9356 29.6602 20.1556 29.6602 15.5174H23.6602ZM33.6328 -3C31.2209 -3 29.2656 -1.04477 29.2656 1.36719H35.2656C35.2656 2.26895 34.5346 3 33.6328 3V-3ZM29.2656 1.36719V3.75976H35.2656V1.36719H29.2656ZM29.2656 3.75976C29.2656 6.17172 31.2209 8.12695 33.6328 8.12695V2.12695C34.5346 2.12695 35.2656 2.858 35.2656 3.75976H29.2656ZM33.6328 8.12695C36.0448 8.12695 38 6.17172 38 3.75976H32C32 2.858 32.7311 2.12695 33.6328 2.12695V8.12695ZM38 3.75976V1.36719H32V3.75976H38ZM38 1.36719C38 -1.04477 36.0448 -3 33.6328 -3V3C32.7311 3 32 2.26895 32 1.36719H38Z" fill="#0059DE" mask="url(#path-1-inside-1_4145_18157)"/>
<rect x="22.2" y="22.2" width="18.1" height="18.1" rx="9.05" fill="#0059DE" stroke="white" stroke-width="0.6"/>
<path d="M31.9866 25.3051C31.7912 25.1097 31.5263 25 31.25 25C30.9737 25 30.7088 25.1097 30.5134 25.3051C30.3181 25.5004 30.2083 25.7654 30.2083 26.0417V30.2083H26.0417C25.7654 30.2083 25.5004 30.3181 25.3051 30.5134C25.1097 30.7088 25 30.9737 25 31.25C25 31.5263 25.1097 31.7912 25.3051 31.9866C25.5004 32.1819 25.7654 32.2917 26.0417 32.2917H30.2083V36.4583C30.2083 36.7346 30.3181 36.9996 30.5134 37.1949C30.7088 37.3903 30.9737 37.5 31.25 37.5C31.5263 37.5 31.7912 37.3903 31.9866 37.1949C32.1819 36.9996 32.2917 36.7346 32.2917 36.4583V32.2917H36.4583C36.7346 32.2917 36.9996 32.1819 37.1949 31.9866C37.3903 31.7912 37.5 31.5263 37.5 31.25C37.5 30.9737 37.3903 30.7088 37.1949 30.5134C36.9996 30.3181 36.7346 30.2083 36.4583 30.2083H32.2917V26.0417C32.2917 25.7654 32.1819 25.5004 31.9866 25.3051Z" fill="white"/>
</g>
<defs>
<clipPath id="clip0_4145_18157">
<rect width="40" height="40" fill="white"/>
</clipPath>
</defs>
</svg>
