<svg width="80" height="80" viewBox="0 0 80 80" fill="none" xmlns="http://www.w3.org/2000/svg">
<path d="M0 15C0 6.7157 6.7157 0 15 0H65C73.2843 0 80 6.7157 80 15V65C80 73.2843 73.2843 80 65 80H15C6.7157 80 0 73.2843 0 65V15Z" fill="#F0F6FF"/>
<path d="M51.9391 48.5651C51.8336 48.0582 51.3373 47.7329 50.8302 47.8384C50.3233 47.9439 49.998 48.4404 50.1035 48.9473C50.1643 49.2393 50.0919 49.5385 49.905 49.7685C49.7967 49.9016 49.5552 50.125 49.155 50.125H30.845C30.4447 50.125 30.2033 49.9016 30.095 49.7685C29.908 49.5385 29.8357 49.2393 29.8965 48.9473C30.8694 44.2741 34.9913 40.8603 39.7515 40.7452C39.8339 40.7484 39.9167 40.75 40 40.75C40.0835 40.75 40.1667 40.7484 40.2495 40.7452C43.6025 40.8256 46.7017 42.5239 48.5785 45.323C48.8669 45.7531 49.4492 45.8679 49.8793 45.5796C50.3093 45.2913 50.4242 44.7089 50.1359 44.2788C48.5976 41.9846 46.3638 40.3163 43.8169 39.478C45.369 38.3142 46.375 36.4599 46.375 34.375C46.375 30.8598 43.5152 28 40 28C36.4848 28 33.625 30.8598 33.625 34.375C33.625 36.4611 34.6322 38.3164 36.1859 39.4802C34.7624 39.9489 33.4267 40.6781 32.2576 41.6397C30.114 43.403 28.6235 45.8625 28.0608 48.5651C27.8845 49.412 28.0957 50.2818 28.6403 50.9515C29.1823 51.6178 29.9858 52 30.845 52H49.155C50.0141 52 50.8177 51.6178 51.3596 50.9515C51.9043 50.2818 52.1155 49.412 51.9391 48.5651ZM35.5 34.375C35.5 31.8937 37.5187 29.875 40 29.875C42.4813 29.875 44.5 31.8937 44.5 34.375C44.5 36.7799 42.6037 38.7503 40.2277 38.8693C40.152 38.8679 40.076 38.8672 40 38.8672C39.9243 38.8672 39.8487 38.8679 39.7731 38.8693C37.3968 38.7508 35.5 36.7803 35.5 34.375Z" fill="#000345"/>
</svg>
