<svg width="110" height="110" viewBox="0 0 110 110" fill="none" xmlns="http://www.w3.org/2000/svg">
<g filter="url(#filter0_d_3395_50252)">
<path d="M15 22C15 13.7157 21.7157 7 30 7H80C88.2843 7 95 13.7157 95 22V72C95 80.2843 88.2843 87 80 87H30C21.7157 87 15 80.2843 15 72V22Z" fill="#F0F6FF"/>
<g clip-path="url(#clip0_3395_50252)">
<path d="M66.9391 55.5651C66.8336 55.0582 66.3373 54.7329 65.8302 54.8384C65.3233 54.9439 64.998 55.4404 65.1035 55.9473C65.1643 56.2393 65.0919 56.5385 64.905 56.7685C64.7967 56.9016 64.5552 57.125 64.155 57.125H45.845C45.4447 57.125 45.2033 56.9016 45.095 56.7685C44.908 56.5385 44.8357 56.2393 44.8965 55.9473C45.8694 51.2741 49.9913 47.8603 54.7515 47.7452C54.8339 47.7484 54.9167 47.75 55 47.75C55.0835 47.75 55.1667 47.7484 55.2495 47.7452C58.6025 47.8256 61.7017 49.5239 63.5785 52.323C63.8669 52.7531 64.4492 52.8679 64.8793 52.5796C65.3093 52.2913 65.4242 51.7089 65.1359 51.2788C63.5976 48.9846 61.3638 47.3163 58.8169 46.478C60.369 45.3142 61.375 43.4599 61.375 41.375C61.375 37.8598 58.5152 35 55 35C51.4848 35 48.625 37.8598 48.625 41.375C48.625 43.4611 49.6322 45.3164 51.1859 46.4802C49.7624 46.9489 48.4267 47.6781 47.2576 48.6397C45.114 50.403 43.6235 52.8625 43.0608 55.5651C42.8845 56.412 43.0957 57.2818 43.6403 57.9515C44.1823 58.6178 44.9858 59 45.845 59H64.155C65.0141 59 65.8177 58.6178 66.3596 57.9515C66.9043 57.2818 67.1155 56.412 66.9391 55.5651ZM50.5 41.375C50.5 38.8937 52.5187 36.875 55 36.875C57.4813 36.875 59.5 38.8937 59.5 41.375C59.5 43.7799 57.6037 45.7503 55.2277 45.8693C55.152 45.8679 55.076 45.8672 55 45.8672C54.9243 45.8672 54.8487 45.8679 54.7731 45.8693C52.3968 45.7508 50.5 43.7803 50.5 41.375Z" fill="#000345"/>
</g>
</g>
<defs>
<filter id="filter0_d_3395_50252" x="0" y="0" width="110" height="110" filterUnits="userSpaceOnUse" color-interpolation-filters="sRGB">
<feFlood flood-opacity="0" result="BackgroundImageFix"/>
<feColorMatrix in="SourceAlpha" type="matrix" values="0 0 0 0 0 0 0 0 0 0 0 0 0 0 0 0 0 0 127 0" result="hardAlpha"/>
<feOffset dy="8"/>
<feGaussianBlur stdDeviation="7.5"/>
<feComposite in2="hardAlpha" operator="out"/>
<feColorMatrix type="matrix" values="0 0 0 0 0 0 0 0 0 0.245 0 0 0 0 0.35 0 0 0 0.06 0"/>
<feBlend mode="normal" in2="BackgroundImageFix" result="effect1_dropShadow_3395_50252"/>
<feBlend mode="normal" in="SourceGraphic" in2="effect1_dropShadow_3395_50252" result="shape"/>
</filter>
<clipPath id="clip0_3395_50252">
<rect width="24" height="24" fill="white" transform="translate(43 35)"/>
</clipPath>
</defs>
</svg>
