<svg width="16" height="16" viewBox="0 0 16 16" fill="none" xmlns="http://www.w3.org/2000/svg">
<g clip-path="url(#clip0_3816_16089)">
<path d="M1.27438 15.0404C2.55384 16.3199 4.6357 16.3199 5.91545 15.0402C6.24552 14.7097 11.9803 8.96654 12.1904 8.75605C13.1142 7.83224 13.3709 6.4902 12.9607 5.33387L13.8294 4.46519C15.1535 6.12023 15.0494 8.549 13.5164 10.082L11.802 11.7964C11.2793 11.5475 10.6337 11.6388 10.2015 12.0709C9.65191 12.6205 9.65182 13.5101 10.2015 14.0598C10.7498 14.6082 11.6421 14.6082 12.1905 14.0598C12.6317 13.6186 12.7106 12.9708 12.4655 12.4588L14.1794 10.745C16.0964 8.82787 16.1856 5.7645 14.4469 3.74074C14.7043 3.21563 14.6154 2.56232 14.1794 2.12624C13.7473 1.69411 13.1016 1.60275 12.5789 1.85178L11.8589 1.13177L12.1904 0.80027C12.3735 0.61722 12.3735 0.320379 12.1904 0.137299C12.0074 -0.0457506 11.7106 -0.0457818 11.5275 0.137299C11.0526 0.612189 10.6762 0.988538 10.2015 1.46324C10.0184 1.64629 10.0184 1.94313 10.2015 2.12621C10.3845 2.30929 10.6814 2.30929 10.8645 2.12621L11.1959 1.79474L11.8589 2.45771L10.9734 3.34327C9.83315 2.93732 8.48814 3.17653 7.54933 4.11541C7.21427 4.45097 1.48355 10.1901 1.27438 10.3996C-0.00803131 11.682 -0.00821885 13.7578 1.27438 15.0404ZM11.5275 13.3969C11.3443 13.5801 11.0477 13.5801 10.8645 13.3969C10.6812 13.2136 10.6812 12.9172 10.8645 12.7339C11.0473 12.5511 11.3446 12.5512 11.5275 12.7339C11.7107 12.9171 11.7107 13.2136 11.5275 13.3969ZM7.21883 5.77338L10.5337 9.08827L6.24599 13.3823L2.9311 10.0674L7.21883 5.77338ZM12.8534 2.78924C13.0362 2.60648 13.3336 2.60651 13.5164 2.78924C13.6992 2.97204 13.6992 3.26948 13.5164 3.45225L12.4982 4.4705C12.3159 4.22704 12.0957 4.00261 11.8355 3.80719L12.8534 2.78924ZM11.5275 4.77819C12.4414 5.69209 12.4414 7.17917 11.5272 8.09332L11.1962 8.42483L7.8813 5.10991L8.21255 4.77816C9.12989 3.86091 10.6123 3.86304 11.5275 4.77819ZM1.9376 11.0623L2.2686 10.7309L5.58348 14.0458L5.25223 14.3775C4.33833 15.2914 2.85125 15.2914 1.93735 14.3775C1.02154 13.4617 1.02091 11.979 1.9376 11.0623Z" fill="#0059DE"/>
</g>
<defs>
<clipPath id="clip0_3816_16089">
<rect width="16" height="16" fill="white"/>
</clipPath>
</defs>
</svg>
