<svg width="14" height="14" viewBox="0 0 14 14" fill="none" xmlns="http://www.w3.org/2000/svg">
<path d="M7.00506 0.697702C6.91234 0.697607 6.82052 0.715798 6.73484 0.751235C6.64917 0.786672 6.57132 0.838659 6.50576 0.904218C6.4402 0.969778 6.38821 1.04763 6.35278 1.1333C6.31734 1.21898 6.29915 1.3108 6.29924 1.40352L6.29424 6.29418L1.39857 6.29418C1.30588 6.29418 1.2141 6.31244 1.12846 6.34791C1.04283 6.38338 0.96502 6.43537 0.899479 6.50091C0.833938 6.56645 0.781947 6.64426 0.746477 6.7299C0.711006 6.81553 0.69275 6.90731 0.69275 7C0.69275 7.09269 0.711006 7.18447 0.746477 7.2701C0.781947 7.35574 0.833938 7.43355 0.899479 7.49909C0.96502 7.56463 1.04283 7.61662 1.12846 7.65209C1.2141 7.68756 1.30588 7.70582 1.39857 7.70582L6.29424 7.70582L6.29424 12.6015C6.29424 12.6942 6.31249 12.786 6.34796 12.8716C6.38344 12.9572 6.43543 13.035 6.50097 13.1006C6.56651 13.1661 6.64432 13.2181 6.72995 13.2536C6.81558 13.289 6.90737 13.3073 7.00005 13.3073C7.09274 13.3073 7.18453 13.289 7.27016 13.2536C7.35579 13.2181 7.4336 13.1661 7.49914 13.1006C7.56468 13.035 7.61667 12.9572 7.65215 12.8716C7.68762 12.786 7.70587 12.6942 7.70587 12.6015L7.70587 7.70582L12.6015 7.70582C12.6942 7.70582 12.786 7.68756 12.8716 7.65209C12.9573 7.61662 13.0351 7.56463 13.1006 7.49909C13.1662 7.43355 13.2182 7.35574 13.2536 7.2701C13.2891 7.18447 13.3074 7.09269 13.3074 7C13.3074 6.90731 13.2891 6.81553 13.2536 6.7299C13.2182 6.64426 13.1662 6.56645 13.1006 6.50091C13.0351 6.43537 12.9573 6.38338 12.8716 6.34791C12.786 6.31244 12.6942 6.29418 12.6015 6.29418L7.70587 6.29418L7.70587 1.39851C7.70587 1.01807 7.3855 0.697702 7.00506 0.697702Z" fill="#0059DE"/>
</svg>
