<svg width="24" height="24" viewBox="0 0 24 24" fill="none" xmlns="http://www.w3.org/2000/svg">
<path d="M12 7.125C12.2155 7.125 12.4222 7.2106 12.5745 7.36298C12.7269 7.51535 12.8125 7.72201 12.8125 7.9375V11.1875H16.0625C16.278 11.1875 16.4847 11.2731 16.637 11.4255C16.7894 11.5778 16.875 11.7845 16.875 12C16.875 12.2155 16.7894 12.4222 16.637 12.5745C16.4847 12.7269 16.278 12.8125 16.0625 12.8125H12.8125V16.0625C12.8125 16.278 12.7269 16.4847 12.5745 16.637C12.4222 16.7894 12.2155 16.875 12 16.875C11.7845 16.875 11.5778 16.7894 11.4255 16.637C11.2731 16.4847 11.1875 16.278 11.1875 16.0625V12.8125H7.9375C7.72201 12.8125 7.51535 12.7269 7.36298 12.5745C7.2106 12.4222 7.125 12.2155 7.125 12C7.125 11.7845 7.2106 11.5778 7.36298 11.4255C7.51535 11.2731 7.72201 11.1875 7.9375 11.1875H11.1875V7.9375C11.1875 7.72201 11.2731 7.51535 11.4255 7.36298C11.5778 7.2106 11.7845 7.125 12 7.125ZM2.25 12C2.25 10.7196 2.50219 9.45176 2.99217 8.26884C3.48216 7.08591 4.20034 6.01108 5.10571 5.10571C6.01108 4.20034 7.08591 3.48216 8.26884 2.99217C9.45176 2.50219 10.7196 2.25 12 2.25C13.2804 2.25 14.5482 2.50219 15.7312 2.99217C16.9141 3.48216 17.9889 4.20034 18.8943 5.10571C19.7997 6.01108 20.5178 7.08591 21.0078 8.26884C21.4978 9.45176 21.75 10.7196 21.75 12C21.75 14.5859 20.7228 17.0658 18.8943 18.8943C17.0658 20.7228 14.5859 21.75 12 21.75C9.41414 21.75 6.93419 20.7228 5.10571 18.8943C3.27723 17.0658 2.25 14.5859 2.25 12ZM12 3.875C9.84512 3.875 7.77849 4.73102 6.25476 6.25476C4.73102 7.77849 3.875 9.84512 3.875 12C3.875 14.1549 4.73102 16.2215 6.25476 17.7452C7.77849 19.269 9.84512 20.125 12 20.125C14.1549 20.125 16.2215 19.269 17.7452 17.7452C19.269 16.2215 20.125 14.1549 20.125 12C20.125 9.84512 19.269 7.77849 17.7452 6.25476C16.2215 4.73102 14.1549 3.875 12 3.875Z" fill="#fff"/>
</svg>
