<svg width="20" height="20" viewBox="0 0 20 20" fill="none" xmlns="http://www.w3.org/2000/svg">
<path d="M10 5.125C10.2155 5.125 10.4222 5.2106 10.5745 5.36298C10.7269 5.51535 10.8125 5.72201 10.8125 5.9375V9.1875H14.0625C14.278 9.1875 14.4847 9.2731 14.637 9.42548C14.7894 9.57785 14.875 9.78451 14.875 10C14.875 10.2155 14.7894 10.4222 14.637 10.5745C14.4847 10.7269 14.278 10.8125 14.0625 10.8125H10.8125V14.0625C10.8125 14.278 10.7269 14.4847 10.5745 14.637C10.4222 14.7894 10.2155 14.875 10 14.875C9.78451 14.875 9.57785 14.7894 9.42548 14.637C9.2731 14.4847 9.1875 14.278 9.1875 14.0625V10.8125H5.9375C5.72201 10.8125 5.51535 10.7269 5.36298 10.5745C5.2106 10.4222 5.125 10.2155 5.125 10C5.125 9.78451 5.2106 9.57785 5.36298 9.42548C5.51535 9.2731 5.72201 9.1875 5.9375 9.1875H9.1875V5.9375C9.1875 5.72201 9.2731 5.51535 9.42548 5.36298C9.57785 5.2106 9.78451 5.125 10 5.125ZM0.25 10C0.25 8.71961 0.502191 7.45176 0.992174 6.26884C1.48216 5.08591 2.20034 4.01108 3.10571 3.10571C4.01108 2.20034 5.08591 1.48216 6.26884 0.992175C7.45176 0.502191 8.71961 0.25 10 0.25C11.2804 0.25 12.5482 0.502191 13.7312 0.992175C14.9141 1.48216 15.9889 2.20034 16.8943 3.10571C17.7997 4.01108 18.5178 5.08591 19.0078 6.26884C19.4978 7.45176 19.75 8.71961 19.75 10C19.75 12.5859 18.7228 15.0658 16.8943 16.8943C15.0658 18.7228 12.5859 19.75 10 19.75C7.41414 19.75 4.93419 18.7228 3.10571 16.8943C1.27723 15.0658 0.25 12.5859 0.25 10ZM10 1.875C7.84512 1.875 5.77849 2.73102 4.25476 4.25476C2.73102 5.77849 1.875 7.84512 1.875 10C1.875 12.1549 2.73102 14.2215 4.25476 15.7452C5.77849 17.269 7.84512 18.125 10 18.125C12.1549 18.125 14.2215 17.269 15.7452 15.7452C17.269 14.2215 18.125 12.1549 18.125 10C18.125 7.84512 17.269 5.77849 15.7452 4.25476C14.2215 2.73102 12.1549 1.875 10 1.875Z" fill="#000345"/>
</svg>
