<svg width="16" height="16" viewBox="0 0 16 16" fill="none" xmlns="http://www.w3.org/2000/svg">
<path d="M5.46967 11.4697C5.17678 11.7626 5.17678 12.2374 5.46967 12.5303C5.76256 12.8232 6.23744 12.8232 6.53033 12.5303L5.46967 11.4697ZM10 8L10.5303 8.53033C10.8232 8.23744 10.8232 7.76256 10.5303 7.46967L10 8ZM6.53033 3.46967C6.23744 3.17678 5.76256 3.17678 5.46967 3.46967C5.17678 3.76256 5.17678 4.23744 5.46967 4.53033L6.53033 3.46967ZM6.53033 12.5303L10.5303 8.53033L9.46967 7.46967L5.46967 11.4697L6.53033 12.5303ZM10.5303 7.46967L6.53033 3.46967L5.46967 4.53033L9.46967 8.53033L10.5303 7.46967Z" fill="white"/>
</svg>
