<svg width="24" height="24" viewBox="0 0 24 24" fill="none" xmlns="http://www.w3.org/2000/svg">
<path d="M22.9459 13.9076L21.9475 13.0857C21.2636 12.5227 21.2648 11.4762 21.9476 10.9143L22.9459 10.0924C23.6564 9.50747 23.8382 8.50444 23.378 7.70733L21.4066 4.29267C20.9464 3.49561 19.9866 3.15155 19.125 3.47433L17.914 3.92803C17.0845 4.23872 16.1788 3.7147 16.0335 2.84236L15.8209 1.5667C15.6696 0.658922 14.8918 0 13.9714 0H10.0286C9.10816 0 8.33032 0.658922 8.17905 1.56675L7.96643 2.84236C7.82078 3.71625 6.91394 4.2382 6.08599 3.92808L4.87497 3.47433C4.01327 3.15155 3.05364 3.49566 2.59338 4.29267L0.621955 7.70728C0.161783 8.5043 0.343471 9.50737 1.05405 10.0924L2.05244 10.9143C2.73644 11.4773 2.73508 12.5237 2.05244 13.0856L1.054 13.9075C0.343471 14.4925 0.161736 15.4956 0.621908 16.2926L2.59338 19.7073C3.0536 20.5043 4.01303 20.8484 4.87497 20.5256L6.08594 20.0719C6.91558 19.7611 7.82102 20.2855 7.96638 21.1576L8.179 22.4332C8.33032 23.3411 9.10816 24 10.0285 24H13.9714C14.8917 24 15.6696 23.3411 15.8208 22.4333L16.0334 21.1577C16.179 20.284 17.0858 19.7617 17.9139 20.072L19.125 20.5257C19.9869 20.8485 20.9464 20.5044 21.4066 19.7073L23.3781 16.2926C23.8382 15.4956 23.6564 14.4925 22.9459 13.9076ZM19.7828 18.7698L18.5718 18.3161C16.6359 17.5909 14.5232 18.8144 14.184 20.8494L13.9714 22.125H10.0286L9.81593 20.8494C9.47613 18.8105 7.36033 17.5923 5.42819 18.3161L4.21717 18.7698L2.24575 15.3552L3.24414 14.5333C4.84019 13.2194 4.83686 10.7779 3.24414 9.46673L2.24575 8.64483L4.21722 5.23017L5.42819 5.68388C7.36413 6.40903 9.47678 5.18559 9.81593 3.15061L10.0285 1.875H13.9714L14.184 3.15061C14.5238 5.18977 16.6397 6.40753 18.5717 5.68388L19.7827 5.23017L21.7546 8.64436C21.7546 8.64436 21.7545 8.6445 21.7541 8.64478L20.7558 9.46669C19.1598 10.7805 19.1629 13.222 20.7557 14.5332L21.7541 15.3551L19.7828 18.7698ZM12 7.37498C9.44974 7.37498 7.37496 9.44977 7.37496 12C7.37496 14.5502 9.44974 16.625 12 16.625C14.5502 16.625 16.625 14.5502 16.625 12C16.625 9.44977 14.5502 7.37498 12 7.37498ZM12 14.75C10.4836 14.75 9.24996 13.5164 9.24996 12C9.24996 10.4836 10.4836 9.24998 12 9.24998C13.5163 9.24998 14.75 10.4836 14.75 12C14.75 13.5164 13.5163 14.75 12 14.75Z" fill="#000345"/>
</svg>
