<svg width="46" height="46" viewBox="0 0 46 46" fill="none" xmlns="http://www.w3.org/2000/svg">
<g filter="url(#filter0_d_1136_37951)">
<rect x="8" y="8" width="30" height="30" rx="15" fill="white" fill-opacity="0.8" shape-rendering="crispEdges"/>
<path d="M26.6484 25.2969C25.9216 25.2969 25.2707 25.6284 24.839 26.1481L23.0092 25.238C22.7388 25.1036 22.4105 25.2137 22.276 25.4842C22.1415 25.7546 22.2517 26.0828 22.5221 26.2173L24.3548 27.1288C24.3169 27.296 24.2969 27.4699 24.2969 27.6484C24.2969 28.9451 25.3518 30 26.6484 30C27.9451 30 29 28.9451 29 27.6484C29 26.3518 27.9451 25.2969 26.6484 25.2969ZM26.6484 28.9062C25.9549 28.9062 25.3906 28.342 25.3906 27.6484C25.3906 27.4764 25.4253 27.3124 25.4881 27.163C25.5015 27.1431 25.5138 27.1221 25.5248 27.1C25.5365 27.0765 25.5463 27.0526 25.5544 27.0284C25.7709 26.6478 26.1802 26.3906 26.6484 26.3906C27.342 26.3906 27.9062 26.9549 27.9062 27.6484C27.9062 28.342 27.342 28.9062 26.6484 28.9062Z" fill="black"/>
<path d="M26.6484 16C25.3518 16 24.2969 17.0549 24.2969 18.3516C24.2969 18.5328 24.3175 18.7092 24.3565 18.8788L19.1519 21.4887C18.7202 20.9753 18.0733 20.6484 17.3516 20.6484C16.0549 20.6484 15 21.7033 15 23C15 24.2967 16.0549 25.3516 17.3516 25.3516C18.0702 25.3516 18.7146 25.0275 19.1463 24.5179L20.0293 24.9673C20.1087 25.0077 20.1934 25.0269 20.2769 25.0269C20.4761 25.0269 20.6682 24.9177 20.7647 24.728C20.9017 24.4588 20.7946 24.1295 20.5254 23.9925L19.6401 23.542C19.6813 23.3679 19.7031 23.1865 19.7031 23C19.7031 22.8166 19.682 22.6379 19.6421 22.4665L24.844 19.8579C25.2757 20.3742 25.9244 20.7031 26.6484 20.7031C27.9451 20.7031 29 19.6482 29 18.3516C29 17.0549 27.9451 16 26.6484 16ZM17.3516 24.2578C16.658 24.2578 16.0938 23.6936 16.0938 23C16.0938 22.3065 16.658 21.7422 17.3516 21.7422C18.0451 21.7422 18.6094 22.3065 18.6094 23C18.6094 23.6936 18.0451 24.2578 17.3516 24.2578ZM26.6484 19.6094C25.9549 19.6094 25.3906 19.0451 25.3906 18.3516C25.3906 17.658 25.9549 17.0938 26.6484 17.0938C27.342 17.0938 27.9062 17.658 27.9062 18.3516C27.9062 19.0451 27.342 19.6094 26.6484 19.6094Z" fill="black"/>
</g>
<defs>
<filter id="filter0_d_1136_37951" x="0" y="0" width="46" height="46" filterUnits="userSpaceOnUse" color-interpolation-filters="sRGB">
<feFlood flood-opacity="0" result="BackgroundImageFix"/>
<feColorMatrix in="SourceAlpha" type="matrix" values="0 0 0 0 0 0 0 0 0 0 0 0 0 0 0 0 0 0 127 0" result="hardAlpha"/>
<feOffset/>
<feGaussianBlur stdDeviation="4"/>
<feComposite in2="hardAlpha" operator="out"/>
<feColorMatrix type="matrix" values="0 0 0 0 0 0 0 0 0 0.245 0 0 0 0 0.35 0 0 0 0.1 0"/>
<feBlend mode="normal" in2="BackgroundImageFix" result="effect1_dropShadow_1136_37951"/>
<feBlend mode="normal" in="SourceGraphic" in2="effect1_dropShadow_1136_37951" result="shape"/>
</filter>
</defs>
</svg>
