<svg width="16" height="16" viewBox="0 0 16 16" fill="none" xmlns="http://www.w3.org/2000/svg">
<path d="M11.6484 10.2969C10.9216 10.2969 10.2707 10.6284 9.83899 11.1481L8.00917 10.238C7.73877 10.1036 7.41048 10.2137 7.276 10.4842C7.1415 10.7546 7.25169 11.0828 7.52212 11.2173L9.35476 12.1288C9.31686 12.296 9.29687 12.4699 9.29687 12.6484C9.29687 13.9451 10.3518 15 11.6484 15C12.9451 15 14 13.9451 14 12.6484C14 11.3518 12.9451 10.2969 11.6484 10.2969ZM11.6484 13.9062C10.9549 13.9062 10.3906 13.342 10.3906 12.6484C10.3906 12.4764 10.4253 12.3124 10.4881 12.163C10.5015 12.1431 10.5138 12.1221 10.5248 12.1C10.5365 12.0765 10.5463 12.0526 10.5544 12.0284C10.7709 11.6478 11.1802 11.3906 11.6484 11.3906C12.342 11.3906 12.9062 11.9549 12.9062 12.6484C12.9062 13.342 12.342 13.9062 11.6484 13.9062Z" fill="black"/>
<path d="M11.6484 1C10.3518 1 9.29688 2.0549 9.29688 3.35156C9.29688 3.53277 9.31749 3.70925 9.35646 3.87878L4.15188 6.48874C3.72017 5.97531 3.07333 5.64844 2.35156 5.64844C1.05492 5.64844 0 6.70334 0 8C0 9.29667 1.05492 10.3516 2.35156 10.3516C3.07021 10.3516 3.71459 10.0275 4.14627 9.51791L5.02928 9.96731C5.10874 10.0077 5.19343 10.0269 5.27688 10.0269C5.47611 10.0269 5.66817 9.91768 5.76472 9.72797C5.90171 9.45877 5.79458 9.12952 5.52538 8.99253L4.64007 8.54199C4.6813 8.36794 4.70312 8.18646 4.70312 8C4.70312 7.81656 4.68202 7.63795 4.64207 7.4665L9.84397 4.85788C10.2757 5.37418 10.9244 5.70313 11.6484 5.70313C12.9451 5.70313 14 4.64823 14 3.35156C14 2.0549 12.9451 1 11.6484 1ZM2.35156 9.25782C1.65802 9.25782 1.09375 8.69355 1.09375 8C1.09375 7.30646 1.65802 6.74219 2.35156 6.74219C3.04511 6.74219 3.60938 7.30646 3.60938 8C3.60938 8.69355 3.04511 9.25782 2.35156 9.25782ZM11.6484 4.60938C10.9549 4.60938 10.3906 4.04511 10.3906 3.35156C10.3906 2.65802 10.9549 2.09375 11.6484 2.09375C12.342 2.09375 12.9062 2.65802 12.9062 3.35156C12.9062 4.04511 12.342 4.60938 11.6484 4.60938Z" fill="black"/>
</svg>
