<svg width="40" height="40" viewBox="0 0 40 40" fill="none" xmlns="http://www.w3.org/2000/svg">
<path d="M13.8448 22.1475L12.8909 21.602L12.0831 22.3471C11.2865 23.0819 10.2443 23.4929 9.16064 23.4997C8.40947 23.5013 7.67076 23.3076 7.01699 22.9377C6.36258 22.5673 5.8158 22.0331 5.43039 21.3874C5.04498 20.7418 4.83421 20.007 4.81878 19.2552C4.80336 18.5035 4.98382 17.7606 5.34242 17.0997C5.70102 16.4388 6.22542 15.8826 6.86409 15.4857C7.50275 15.0889 8.23369 14.865 8.98506 14.8362L8.92755 13.3373L8.98506 14.8362C9.73643 14.8074 10.4824 14.9745 11.1496 15.3213C11.8168 15.6681 12.3822 16.1825 12.7904 16.8139L13.5612 18.0064L14.7941 17.3022L24.2775 11.8855L25.2889 11.3078L24.9797 10.1847C24.8871 9.84861 24.838 9.50203 24.8335 9.15344C24.829 8.16471 25.1641 7.20437 25.7829 6.43304C26.4025 5.66052 27.269 5.12457 28.2369 4.91508C29.2049 4.70558 30.2154 4.83528 31.0991 5.28243C31.9827 5.72957 32.6858 6.46697 33.0903 7.37094C33.4948 8.27491 33.5761 9.29048 33.3207 10.2473C33.0653 11.2042 32.4887 12.0441 31.6875 12.6262C30.8863 13.2084 29.9093 13.4973 28.9203 13.4446C27.9314 13.3919 26.9907 13.0007 26.2559 12.3367L25.449 11.6075L24.505 12.1478L14.2551 18.0145L13.5138 18.4387L13.5004 19.2927C13.4958 19.5812 13.4506 19.8675 13.3661 20.1433L13.0146 21.2898L14.0555 21.8851L24.4888 27.8518L25.4414 28.3965L26.249 27.6536C26.9907 26.9713 27.9448 26.5654 28.9507 26.5043C29.9566 26.4432 30.9529 26.7305 31.7717 27.3179C32.5905 27.9053 33.182 28.757 33.4464 29.7294C33.7108 30.7019 33.6321 31.7357 33.2235 32.6569C32.8149 33.5781 32.1013 34.3304 31.2029 34.787C30.3046 35.2437 29.2763 35.3768 28.2913 35.1641C27.3062 34.9514 26.4246 34.4057 25.7948 33.619C25.165 32.8323 24.8255 31.8526 24.8335 30.8449H24.8335L24.8335 30.8323C24.8333 30.4939 24.8809 30.1573 24.9747 29.8323L25.3016 28.6995L24.2782 28.1142L13.8448 22.1475ZM32.8624 29.3022L31.4765 29.8763L32.8624 29.3022C32.5596 28.5713 32.0469 27.9466 31.3891 27.5071C30.7313 27.0676 29.958 26.833 29.1668 26.833C28.106 26.833 27.0886 27.2544 26.3384 28.0046C25.5883 28.7547 25.1668 29.7721 25.1668 30.833C25.1668 31.6241 25.4014 32.3975 25.841 33.0553C26.2805 33.7131 26.9052 34.2257 27.6361 34.5285C28.367 34.8312 29.1713 34.9105 29.9472 34.7561C30.7231 34.6018 31.4359 34.2208 31.9953 33.6614C32.5547 33.102 32.9356 32.3893 33.09 31.6133C33.2443 30.8374 33.1651 30.0332 32.8624 29.3022ZM31.3891 5.84044C30.7313 5.40091 29.958 5.16631 29.1668 5.16631C28.106 5.16631 27.0886 5.58774 26.3384 6.33789C25.5883 7.08803 25.1668 8.10544 25.1668 9.16631C25.1668 9.95744 25.4014 10.7308 25.841 11.3886C26.2805 12.0464 26.9052 12.5591 27.6361 12.8618C28.367 13.1646 29.1713 13.2438 29.9472 13.0895C30.7231 12.9351 31.4359 12.5542 31.9953 11.9947C32.5547 11.4353 32.9356 10.7226 33.09 9.94667C33.2443 9.17075 33.1651 8.36648 32.8624 7.63558C32.5596 6.90468 32.0469 6.27996 31.3891 5.84044ZM11.3891 15.8404C10.7313 15.4009 9.95796 15.1663 9.16684 15.1663C8.10597 15.1663 7.08856 15.5877 6.33841 16.3379C5.58826 17.088 5.16684 18.1054 5.16684 19.1663C5.16684 19.9574 5.40143 20.7308 5.84096 21.3886C6.28048 22.0464 6.9052 22.5591 7.6361 22.8618C8.36701 23.1646 9.17128 23.2438 9.9472 23.0895C10.7231 22.9351 11.4359 22.5541 11.9953 21.9947C12.5547 21.4353 12.9356 20.7226 13.09 19.9467C13.2443 19.1708 13.1651 18.3665 12.8624 17.6356C12.5596 16.9047 12.0469 16.28 11.3891 15.8404Z" fill="black" stroke="#0059DE" stroke-width="3"/>
</svg>
