<svg width="24" height="24" viewBox="0 0 24 24" fill="none" xmlns="http://www.w3.org/2000/svg">
<g clip-path="url(#clip0_646_32793)">
<path d="M12.0071 21.0443C9.09061 21.0443 6.41233 19.9953 4.04679 17.9266C2.12125 16.2428 0.887303 14.2755 0.323155 13.2527C-0.111171 12.4653 -0.107509 11.5271 0.333043 10.7426C0.906712 9.72128 2.15696 7.75638 4.08487 6.07346C6.45719 4.0029 9.12265 2.95316 12.0071 2.95316C14.8927 2.95316 17.5572 4.00381 19.9262 6.07584C21.8514 7.75931 23.0976 9.72458 23.6691 10.7461C24.1067 11.5284 24.1106 12.464 23.679 13.2492C23.4184 13.7234 22.9819 14.4595 22.3819 15.2732C22.0748 15.69 21.4879 15.7786 21.0712 15.4715C20.6545 15.1643 20.5658 14.5774 20.8729 14.1607C21.4118 13.4299 21.8027 12.7707 22.036 12.3463C22.1539 12.1315 22.1528 11.8755 22.0331 11.6615C20.8835 9.60684 17.6056 4.82779 12.0071 4.82779C6.40921 4.82779 3.12137 9.60611 1.96763 11.6606C1.84714 11.8752 1.84604 12.1319 1.9647 12.347C3.0961 14.3983 6.33982 19.1693 12.0071 19.1693C14.0938 19.1693 16.0534 18.5171 17.8315 17.2306C18.251 16.9272 18.837 17.0213 19.1404 17.4406C19.4439 17.8601 19.3498 18.4461 18.9305 18.7497C16.8259 20.2722 14.4964 21.0443 12.0071 21.0443ZM17.5305 11.9987C17.5305 8.94931 15.0496 6.46841 12.0002 6.46841C8.95072 6.46841 6.47001 8.94931 6.47001 11.9987C6.47001 15.0482 8.9509 17.5289 12.0002 17.5289C15.0496 17.5289 17.5305 15.0482 17.5305 11.9987ZM15.6559 11.9987C15.6559 14.0144 14.016 15.6543 12.0002 15.6543C9.98453 15.6543 8.34464 14.0144 8.34464 11.9987C8.34464 9.98312 9.98453 8.34323 12.0002 8.34323C14.016 8.34323 15.6559 9.98312 15.6559 11.9987ZM13.0515 12.2533C12.3327 12.2051 11.7596 11.6042 11.7429 10.8838C11.7427 10.878 11.7425 10.8719 11.7425 10.8661C11.7381 10.4568 11.2851 10.218 10.9468 10.4482C10.4134 10.8111 10.077 11.4417 10.1312 12.1469C10.2015 13.0597 10.9392 13.7976 11.852 13.8677C12.5572 13.9219 13.1878 13.5855 13.5507 13.0523C13.7807 12.7141 13.5425 12.2608 13.1334 12.2564C13.1063 12.2562 13.079 12.2551 13.0515 12.2533Z" fill="black"/>
</g>
<defs>
<clipPath id="clip0_646_32793">
<rect width="24" height="24" fill="white"/>
</clipPath>
</defs>
</svg>
