<svg width="20" height="20" viewBox="0 0 20 20" fill="none" xmlns="http://www.w3.org/2000/svg">
<path d="M20 3.125V16.875C20 18.5982 18.5982 20 16.875 20H9.02344C7.30026 20 5.89844 18.5982 5.89844 16.875V15.3125C5.89844 14.881 6.24817 14.5312 6.67969 14.5312C7.11121 14.5312 7.46094 14.881 7.46094 15.3125V16.875C7.46094 17.7365 8.16193 18.4375 9.02344 18.4375H16.875C17.7365 18.4375 18.4375 17.7365 18.4375 16.875V3.125C18.4375 2.26349 17.7365 1.5625 16.875 1.5625H9.02344C8.16193 1.5625 7.46094 2.26349 7.46094 3.125V4.6875C7.46094 5.11902 7.11121 5.46875 6.67969 5.46875C6.24817 5.46875 5.89844 5.11902 5.89844 4.6875V3.125C5.89844 1.40182 7.30026 0 9.02344 0H16.875C18.5982 0 20 1.40182 20 3.125ZM8.82477 12.0235C8.51852 12.3274 8.51654 12.8221 8.82034 13.1284C8.97308 13.2823 9.17404 13.3594 9.375 13.3594C9.57397 13.3594 9.77295 13.2838 9.92523 13.1328L11.6887 11.3832C12.0607 11.0141 12.2656 10.5229 12.2656 10C12.2656 9.47708 12.0607 8.9859 11.6887 8.61679L9.92523 6.86722C9.61899 6.56342 9.1243 6.56525 8.82034 6.87164C8.51654 7.17789 8.51852 7.67258 8.82477 7.97638L10.0769 9.21875H0.78125C0.349731 9.21875 0 9.56848 0 10C0 10.4315 0.349731 10.7812 0.78125 10.7812H10.0769L8.82477 12.0235Z" fill="#0059DE"/>
</svg>
