<svg width="70" height="70" viewBox="0 0 70 70" fill="none" xmlns="http://www.w3.org/2000/svg">
<path d="M70 10.9375V59.0625C70 65.0936 65.0936 70 59.0625 70H31.582C25.5509 70 20.6445 65.0936 20.6445 59.0625V53.5938C20.6445 52.0834 21.8686 50.8594 23.3789 50.8594C24.8892 50.8594 26.1133 52.0834 26.1133 53.5938V59.0625C26.1133 62.0778 28.5667 64.5312 31.582 64.5312H59.0625C62.0778 64.5312 64.5312 62.0778 64.5312 59.0625V10.9375C64.5312 7.92221 62.0778 5.46875 59.0625 5.46875H31.582C28.5667 5.46875 26.1133 7.92221 26.1133 10.9375V16.4062C26.1133 17.9166 24.8892 19.1406 23.3789 19.1406C21.8686 19.1406 20.6445 17.9166 20.6445 16.4062V10.9375C20.6445 4.90639 25.5509 0 31.582 0H59.0625C65.0936 0 70 4.90639 70 10.9375ZM30.8867 42.0821C29.8148 43.146 29.8079 44.8774 30.8712 45.9492C31.4058 46.4881 32.1091 46.7578 32.8125 46.7578C33.5089 46.7578 34.2053 46.4935 34.7383 45.9647L40.9104 39.8412C42.2124 38.5493 42.9297 36.8302 42.9297 35C42.9297 33.1698 42.2124 31.4507 40.9104 30.1588L34.7383 24.0353C33.6665 22.972 31.935 22.9784 30.8712 24.0508C29.8079 25.1226 29.8148 26.854 30.8867 27.9173L35.2692 32.2656H2.73438C1.22406 32.2656 0 33.4897 0 35C0 36.5103 1.22406 37.7344 2.73438 37.7344H35.2692L30.8867 42.0821Z" fill="#FDC90D" fill-opacity="0.2"/>
</svg>
