<svg width="16" height="16" viewBox="0 0 16 16" fill="none" xmlns="http://www.w3.org/2000/svg">
<g clip-path="url(#clip0_1217_40834)">
<path d="M0 8C0 9.475 0.45409 10.85 1.22871 12H14.7713C15.5459 10.85 16 9.475 16 8C16 6.525 15.5459 5.15 14.7713 4H1.22871C0.45409 5.15 0 6.525 0 8Z" fill="#FFCE31"/>
<path d="M14.7962 3.71954C13.3783 1.47229 10.8635 -0.0258789 8.00095 -0.0258789C5.13838 -0.0258789 2.6236 1.47229 1.20569 3.71954H14.7962Z" fill="#ED4C5C"/>
<path d="M1.20569 12.2805C2.6236 14.5278 5.13838 16.0259 8.00095 16.0259C10.8635 16.0259 13.3783 14.5278 14.7962 12.2805H1.20569Z" fill="#ED4C5C"/>
<path d="M2.30005 7.17505H3.10005V7.62505H2.30005V7.17505Z" fill="#C8B100"/>
<path d="M2.30005 10.4751H3.12505V10.9001H2.30005V10.4751Z" fill="#C8B100"/>
<path d="M2.22498 9.77502C2.14998 9.82502 2.09998 9.87502 2.09998 9.90002C2.09998 9.92502 2.12498 9.95003 2.17498 9.97503C2.22498 10 2.27498 10.05 2.24998 10.1C2.29998 10.05 2.32498 10 2.32498 9.95002C2.32498 9.87502 2.27498 9.80002 2.22498 9.77502Z" fill="#ED4C5C"/>
<path d="M2.42505 7.625H3.00005V10.475H2.42505V7.625Z" fill="white"/>
<path d="M3.59999 8.675C3.47499 8.625 3.24999 8.575 2.99999 8.575C2.92499 8.575 2.82499 8.575 2.72499 8.6C2.37499 8.65 2.09999 8.8 2.12499 8.9L1.99999 8.625C1.97499 8.5 2.27499 8.35 2.64999 8.275C2.77499 8.25 2.89999 8.25 2.99999 8.25C3.24999 8.25 3.47499 8.275 3.59999 8.325V8.675Z" fill="#ED4C5C"/>
<path d="M2.42502 9.05C2.27502 9.05 2.15002 9 2.15002 8.925C2.15002 8.875 2.20002 8.8 2.30002 8.75H2.45002L2.42502 9.05Z" fill="#ED4C5C"/>
<path d="M3 8.82495C3.1 8.84995 3.175 8.87495 3.225 8.89995C3.25 8.92495 3.15 9.02495 3 9.09995V8.82495Z" fill="#ED4C5C"/>
<path d="M2.04999 9.60003C2.02499 9.55003 2.19999 9.45002 2.42499 9.37502C2.52499 9.35002 2.59999 9.30002 2.72499 9.25002C3.02499 9.12502 3.27499 8.95002 3.22499 8.90002L3.27499 9.20002C3.29999 9.25002 3.09999 9.40003 2.79999 9.55002C2.69999 9.60002 2.52499 9.67502 2.42499 9.70002C2.24999 9.75002 2.09999 9.85002 2.09999 9.87502L2.04999 9.60003Z" fill="#ED4C5C"/>
<path d="M7.67505 7.17505H8.47505V7.62505H7.67505V7.17505Z" fill="#C8B100"/>
<path d="M7.65002 10.4751H8.47502V10.9001H7.65002V10.4751Z" fill="#C8B100"/>
<path d="M8.54995 9.77502C8.62495 9.82502 8.67495 9.87502 8.67495 9.90002C8.67495 9.92502 8.64995 9.95003 8.59995 9.97503C8.54995 10.025 8.49995 10.1 8.52495 10.125C8.47495 10.075 8.44995 10.025 8.44995 9.97503C8.44995 9.87503 8.49995 9.80002 8.54995 9.77502Z" fill="#ED4C5C"/>
<path d="M7.77502 7.625H8.35002V10.475H7.77502V7.625Z" fill="white"/>
<path d="M7.17493 8.675C7.29993 8.625 7.52493 8.575 7.77493 8.575C7.84993 8.575 7.94993 8.575 8.04993 8.6C8.39993 8.65 8.67493 8.8 8.64993 8.9L8.77493 8.6C8.79993 8.475 8.49993 8.325 8.12493 8.25H7.77493C7.52493 8.25 7.29993 8.275 7.17493 8.325V8.675Z" fill="#ED4C5C"/>
<path d="M8.34995 9.05C8.49995 9.05 8.62495 9 8.62495 8.925C8.62495 8.875 8.57495 8.8 8.47495 8.75H8.32495L8.34995 9.05Z" fill="#ED4C5C"/>
<path d="M7.77497 8.82495C7.67497 8.84995 7.59997 8.87495 7.54997 8.89995C7.52497 8.92495 7.62497 9.02495 7.77497 9.09995V8.82495Z" fill="#ED4C5C"/>
<path d="M8.72491 9.5999C8.74991 9.5499 8.57491 9.4499 8.34991 9.3749C8.24991 9.3499 8.17491 9.2999 8.04991 9.2499C7.74991 9.1249 7.49991 8.9499 7.54991 8.8999L7.49991 9.1999C7.47491 9.2499 7.67491 9.3999 7.97491 9.5499C8.07491 9.5999 8.24991 9.6749 8.34991 9.6999C8.52491 9.7499 8.67491 9.8749 8.64991 9.8999L8.72491 9.5999Z" fill="#ED4C5C"/>
<path d="M5.37495 5.57495C5.84995 5.57495 6.82495 5.67495 7.17495 6.02495C6.79995 6.92495 6.19995 6.54995 5.37495 6.54995C4.57495 6.54995 3.94995 6.92495 3.57495 6.02495C3.92495 5.67495 4.87495 5.57495 5.37495 5.57495Z" fill="#ED4C5C"/>
<path d="M6.5999 6.575C6.2999 6.4 5.8499 6.375 5.3749 6.375C4.8999 6.375 4.4499 6.425 4.1499 6.575L4.2499 7C4.5249 7.075 4.9249 7.125 5.3749 7.125C5.8249 7.125 6.1999 7.075 6.4999 7L6.5999 6.575Z" fill="#C8B100"/>
<path d="M7.02495 5.5C6.92495 5.425 6.72495 5.35 6.54995 5.35C6.47495 5.35 6.39995 5.35 6.32495 5.375C6.32495 5.375 6.17495 5.175 5.82495 5.175C5.69995 5.175 5.59995 5.2 5.49995 5.25V5.225C5.47495 5.175 5.42495 5.125 5.37495 5.125C5.32495 5.125 5.24995 5.2 5.24995 5.25V5.275C5.14995 5.225 5.04995 5.2 4.92495 5.2C4.57495 5.2 4.42495 5.425 4.42495 5.4C4.34995 5.375 4.27495 5.375 4.19995 5.375C3.04995 5.375 3.62495 6.15 3.62495 6.15L3.74995 6C3.47495 5.65 3.72495 5.45 4.22495 5.45C4.29995 5.45 4.34995 5.45 4.39995 5.475C4.22495 5.725 4.54995 5.95 4.54995 5.95L4.62495 5.825C4.44995 5.7 4.42495 5.275 4.92495 5.275C5.04995 5.275 5.14995 5.3 5.24995 5.375C5.24995 5.4 5.22495 5.75 5.19995 5.8L5.39995 5.975L5.59995 5.8C5.57495 5.725 5.54995 5.4 5.54995 5.375C5.62495 5.325 5.74995 5.275 5.87495 5.275C6.39995 5.275 6.39995 5.7 6.17495 5.825L6.24995 5.95C6.24995 5.95 6.52495 5.725 6.39995 5.475C6.44995 5.475 6.52495 5.45 6.57495 5.45C7.17495 5.45 7.19995 5.9 7.04995 6L7.14995 6.15C7.09995 6.15 7.37495 5.8 7.02495 5.5Z" fill="#C8B100"/>
<path d="M5.22498 5.025C5.22498 4.95 5.29998 4.875 5.37498 4.875C5.47498 4.875 5.52498 4.95 5.52498 5.025C5.52498 5.1 5.44998 5.175 5.37498 5.175C5.29998 5.175 5.22498 5.1 5.22498 5.025Z" fill="#005BBF"/>
<path d="M5.32498 4.59998V4.67498H5.24998V4.74998H5.32498V4.99998H5.22498V5.07498H5.52498L5.54998 5.02498L5.52498 4.99998H5.42498V4.74998H5.49998V4.67498H5.42498V4.59998H5.32498Z" fill="#C8B100"/>
<path d="M5.37498 7.07495C4.97498 7.07495 4.62498 7.02495 4.34998 6.94995C4.62498 6.87495 4.97498 6.82495 5.37498 6.82495C5.77498 6.82495 6.12498 6.87495 6.39998 6.94995C6.14998 7.02495 5.77498 7.07495 5.37498 7.07495Z" fill="#ED4C5C"/>
<path d="M5.39998 11.4C4.92498 11.4 4.47498 11.275 4.07498 11.1C3.77498 10.95 3.59998 10.675 3.59998 10.35V9.15002H7.19998V10.35C7.19998 10.675 6.99998 10.975 6.72498 11.1C6.32498 11.3 5.87498 11.4 5.39998 11.4Z" fill="white"/>
<path d="M5.375 7.15002H7.175V9.15002H5.375V7.15002Z" fill="white"/>
<path d="M5.39998 10.35C5.39998 10.825 4.99998 11.2 4.49998 11.2C3.99998 11.2 3.59998 10.825 3.59998 10.35V9.15002H5.39998V10.35Z" fill="#ED4C5C"/>
<path d="M3.97498 11.05C4.02498 11.075 4.09998 11.125 4.19998 11.15V9.09998H3.99998L3.97498 11.05Z" fill="#C8B100"/>
<path d="M3.57495 10.325C3.57495 10.575 3.67495 10.775 3.77495 10.875V9.09998H3.57495V10.325Z" fill="#C8B100"/>
<path d="M4.375 11.2H4.575V9.09998H4.375V11.2Z" fill="#C7B500"/>
<path d="M4.77502 11.15C4.85002 11.125 4.95002 11.075 5.00002 11.05V9.09998H4.80002L4.77502 11.15Z" fill="#C8B100"/>
<path d="M3.57495 7.15002H5.37495V9.15002H3.57495V7.15002Z" fill="#ED4C5C"/>
<path d="M5.19995 10.875C5.29995 10.8 5.37495 10.625 5.39995 10.425V9.125H5.19995V10.875Z" fill="#C8B100"/>
<path d="M7.20002 9.15002V10.35C7.20002 10.825 6.80002 11.2 6.30002 11.2C5.80002 11.2 5.40002 10.825 5.40002 10.35V9.15002H7.20002Z" fill="#ED4C5C"/>
<path d="M6.55003 7.49997C6.62503 7.64997 6.62503 8.02497 6.40003 7.94997C6.45003 7.97497 6.47503 8.14997 6.55003 8.24997C6.67503 8.39997 6.82503 8.27497 6.80003 8.09997C6.75003 7.82497 6.77503 7.64997 6.82503 7.37497C6.82503 7.39997 6.95003 7.39997 7.00003 7.34997C6.97503 7.42497 6.95003 7.52497 7.00003 7.52497C6.95003 7.59997 6.82503 7.72497 6.80003 7.79997C6.77503 7.97497 7.05003 8.29997 6.75003 8.37497C6.55003 8.42497 6.67503 8.57497 6.75003 8.64997C6.75003 8.64997 6.65003 8.97497 6.70003 8.94997C6.50003 9.02497 6.55003 8.84997 6.55003 8.84997C6.65003 8.54997 6.37503 8.52497 6.40003 8.47497C6.15003 8.44997 6.42503 8.69997 6.20003 8.69997C6.15003 8.69997 6.05003 8.74997 6.05003 8.74997C5.77503 8.72497 5.92503 8.47497 6.02503 8.49997C6.10003 8.52497 6.17503 8.64997 6.17503 8.47497C6.17503 8.47497 6.05003 8.27497 6.37503 8.27497C6.25003 8.27497 6.17503 8.17497 6.12503 8.04997C6.07503 8.07497 6.00003 8.19997 5.72503 8.22497C5.72503 8.22497 5.65003 7.94997 5.72503 7.99997C5.82503 8.04997 5.87503 8.04997 5.97503 7.94997C5.92503 7.87497 5.62503 7.77497 5.67503 7.59997C5.67503 7.54997 5.82503 7.47497 5.82503 7.47497C5.80003 7.59997 5.87503 7.72497 6.02503 7.72497C6.22503 7.74997 6.15003 7.67497 6.17503 7.62497C6.20003 7.57497 6.35003 7.64997 6.30003 7.52497C6.30003 7.49997 6.12503 7.47497 6.17503 7.39997C6.27503 7.27497 6.42503 7.37497 6.55003 7.49997Z" fill="#ED4C5C"/>
<path d="M5.39998 11.15L5.34998 11.025L5.39998 10.875L5.44998 11.025L5.39998 11.15Z" fill="#ED4C5C"/>
<path d="M4.12498 7.575V7.7H4.17498V7.8H4.04998V8.05H4.12498V8.6H3.97498V8.875H4.99998V8.6H4.87498V8.05H4.92498V7.8H4.79998V7.7H4.87498V7.575H4.62498V7.7H4.67498V7.8H4.54998V7.5H4.62498V7.375H4.34998V7.5H4.42498V7.8H4.29998V7.7H4.34998V7.575H4.12498Z" fill="#C8B100"/>
<path d="M6.95002 10.65V9.40002H5.65002V10.65L6.25002 10.925H6.32502L6.95002 10.65ZM6.25002 9.50002V9.92502L5.82502 9.50002H6.25002ZM5.72502 9.52502L6.22502 10.025L5.72502 10.525V9.52502ZM5.77502 10.625L6.25002 10.15V10.85L5.77502 10.625ZM6.32502 10.825V10.125L6.80002 10.6L6.32502 10.825ZM6.85002 10.525L6.35002 10.025L6.85002 9.52502V10.525ZM6.32502 9.50002H6.75002L6.32502 9.92502V9.50002Z" fill="#C8B100"/>
<path d="M4.80005 9.12498C4.80005 8.74998 5.05005 8.47498 5.37505 8.47498C5.70005 8.47498 5.95005 8.77498 5.95005 9.12498C5.95005 9.47498 5.70005 9.77497 5.37505 9.77497C5.05005 9.77497 4.80005 9.49998 4.80005 9.12498Z" fill="#ED4C5C"/>
<path d="M4.97498 9.12502C4.97498 8.85002 5.14998 8.65002 5.37498 8.65002C5.59998 8.65002 5.77498 8.87502 5.77498 9.12502C5.77498 9.40002 5.59998 9.60003 5.37498 9.60003C5.17498 9.62503 4.97498 9.40002 4.97498 9.12502Z" fill="#005BBF"/>
<path d="M5.19998 8.80005L5.09998 9.07505L5.17498 9.10005L5.12498 9.20005H5.27498L5.22498 9.10005L5.29998 9.07505L5.19998 8.80005Z" fill="#C8B100"/>
<path d="M5.57498 8.80005L5.47498 9.07505L5.54998 9.10005L5.49998 9.20005H5.64998L5.62498 9.10005L5.69998 9.07505L5.57498 8.80005Z" fill="#C8B100"/>
<path d="M5.40002 9.125L5.27502 9.4L5.35002 9.425L5.32502 9.525H5.45002L5.42502 9.425L5.50002 9.4L5.40002 9.125Z" fill="#C8B100"/>
</g>
<defs>
<clipPath id="clip0_1217_40834">
<rect width="16" height="16" fill="white"/>
</clipPath>
</defs>
</svg>
