<svg width="24" height="24" viewBox="0 0 24 24" fill="none" xmlns="http://www.w3.org/2000/svg">
<g clip-path="url(#clip0_1136_37956)">
<path d="M9.7934 8.94983C10.3109 8.94983 10.7305 9.36951 10.7305 9.88696C10.7305 10.4046 10.3109 10.8241 9.7934 10.8241C9.27576 10.8241 8.85608 10.4046 8.85608 9.88696C8.85608 9.36951 9.27576 8.94983 9.7934 8.94983ZM14.0105 10.8241C14.5281 10.8241 14.9476 10.4046 14.9476 9.88696C14.9476 9.36951 14.5281 8.94983 14.0105 8.94983C13.4929 8.94983 13.0734 9.36951 13.0734 9.88696C13.0734 10.4046 13.493 10.8241 14.0105 10.8241ZM24.0383 15.3693L24.0381 14.6283C24.0381 13.468 22.975 12.4503 21.763 12.4503C20.6667 12.4503 19.4929 13.322 19.4929 14.6197C19.4929 15.1371 19.9125 15.5568 20.4302 15.5568C20.9476 15.5568 21.3673 15.1371 21.3673 14.6197C21.3673 14.436 21.6422 14.3245 21.763 14.3245C21.9489 14.3245 22.1638 14.5084 22.1638 14.6285V14.6402V14.6404C22.1638 15.5834 21.3966 16.3506 20.4536 16.3506C19.5104 16.3506 18.7432 15.5834 18.7432 14.6404V14.6169C18.7432 14.0189 18.9377 13.1378 19.1435 12.2051C19.439 10.8658 19.7741 9.3479 19.7741 7.79315C19.7741 7.78015 19.7726 7.7677 19.7721 7.75488C19.7726 7.74225 19.7741 7.72961 19.7741 7.7168C19.7741 3.46179 16.3123 0 12.0573 0C7.78601 0 4.31085 3.49603 4.31085 7.79315C4.31085 9.3479 4.64594 10.8658 4.94147 12.2051C5.14746 13.138 5.34174 14.0189 5.34174 14.6169V14.6404C5.34174 15.5834 4.57452 16.3508 3.63153 16.3508C2.68835 16.3508 1.92114 15.5834 1.92114 14.6404C1.92114 14.6384 1.92096 14.6364 1.92096 14.6343C1.92096 14.6323 1.92114 14.6305 1.92114 14.6285C1.92114 14.5085 2.13611 14.3247 2.32214 14.3247C2.44043 14.3247 2.71783 14.4091 2.71783 14.5728C2.71783 15.0905 3.13733 15.5099 3.65497 15.5099C4.17261 15.5099 4.5921 15.0905 4.5921 14.5728C4.5921 13.2618 3.41382 12.4503 2.32214 12.4503C1.10999 12.4503 0.046875 13.4681 0.046875 14.6285C0.046875 14.6305 0.0472412 14.6323 0.0472412 14.6343C0.0472412 14.6364 0.046875 14.6384 0.046875 14.6404C0.046875 14.7242 0.0507202 14.807 0.0563965 14.8894C0.0507202 14.9312 0.046875 14.9733 0.046875 15.0167C0.046875 16.3808 0.655334 17.6814 1.76001 18.6786C2.7951 19.613 4.14386 20.1489 5.46039 20.1489C6.66852 20.1489 8.17401 19.6016 9.28217 18.5649C10.3004 22.2812 13.491 24 16.4923 24C16.9929 24 17.5018 23.9445 18.0049 23.8352C18.5109 23.7253 18.8317 23.2262 18.722 22.7205C18.6119 22.2147 18.1128 21.8937 17.6072 22.0036C17.2344 22.0845 16.8594 22.1255 16.4923 22.1255C14.3871 22.1255 10.8243 20.8255 10.8243 15.9523V15.0883C10.8243 14.5706 10.4046 14.1511 9.88715 14.1511C9.36951 14.1511 8.94983 14.5706 8.94983 15.0883C8.94983 16.2193 8.30585 16.9704 7.76532 17.4012C7.10028 17.9319 6.19537 18.2747 5.46039 18.2747C5.14197 18.2747 4.81348 18.2205 4.49084 18.1201C6.05365 17.7341 7.21619 16.3207 7.21619 14.6404V14.6169C7.21619 13.8146 7.01019 12.8815 6.77179 11.8011C6.49695 10.5555 6.1853 9.14355 6.1853 7.79315C6.1853 4.52948 8.81946 1.87427 12.0573 1.87427C15.2789 1.87427 17.8997 4.49524 17.8997 7.7168C17.8997 7.72961 17.9011 7.74225 17.9017 7.75507C17.9011 7.7677 17.8997 7.78033 17.8997 7.79315C17.8997 9.14355 17.5882 10.5555 17.3132 11.8011C17.0748 12.8815 16.8688 13.8146 16.8688 14.6169V14.6404C16.8688 16.617 18.477 18.225 20.4534 18.225C20.5607 18.225 20.6667 18.2194 20.7717 18.21C20.1224 18.7927 19.2625 19.1649 18.2278 19.1649C16.2413 19.1649 14.8539 17.4915 14.8539 15.0954C14.8539 14.5778 14.4344 14.1583 13.9167 14.1583C13.3993 14.1583 12.9796 14.5778 12.9796 15.0954C12.9796 16.7199 13.4879 18.2093 14.4109 19.2894C15.3752 20.4177 16.7307 21.0392 18.2278 21.0392C19.8904 21.0392 21.4043 20.3632 22.4907 19.1356C23.3491 18.1659 23.8878 16.8988 24.011 15.5903C24.0282 15.5193 24.0383 15.4455 24.0383 15.3693Z" fill="#0059DE"/>
</g>
<defs>
<clipPath id="clip0_1136_37956">
<rect width="24" height="24" fill="white"/>
</clipPath>
</defs>
</svg>
