<svg width="40" height="40" viewBox="0 0 40 40" fill="none" xmlns="http://www.w3.org/2000/svg">
<rect width="40" height="40" fill="#F2F2F2"/>
<g clip-path="url(#clip0_380_44901)">
<rect width="1920" height="6032" transform="translate(-1258 -2256)" fill="white"/>
<g filter="url(#filter0_d_380_44901)">
<path d="M-50 -11C-50 -22.0457 -41.0457 -31 -30 -31H350C361.046 -31 370 -22.0457 370 -11V209C370 220.046 361.046 229 350 229H-30C-41.0457 229 -50 220.046 -50 209V-11Z" fill="white"/>
<rect x="-50" y="-31" width="420" height="74" fill="#7FB7F9" fill-opacity="0.2"/>
<g filter="url(#filter1_d_380_44901)">
<rect x="-30" y="-30" width="100" height="100" rx="50" fill="white"/>
</g>
<mask id="path-4-inside-1_380_44901" fill="white">
<path d="M38.3171 22.0166L39.9648 14.3774C40.0823 13.8328 39.9009 13.2669 39.4888 12.8921C39.0767 12.5171 38.4965 12.3902 37.9652 12.5585C33.8204 13.8727 31.4269 16.6207 30.1341 18.7427C28.9723 17.1285 27.2271 15.0247 25.0136 13.2924C25.0588 13.1248 25.2473 12.6229 26.0164 11.6778C26.6543 10.8942 26.9158 9.87339 26.7339 8.87707C26.5518 7.87965 25.9457 7.01621 25.0709 6.50785C22.9265 5.26176 20.1788 4.36317 16.6708 3.76083C16.2679 3.69169 15.8546 3.78301 15.5185 4.01504C12.6276 6.01121 11.5544 9.55972 11.1919 11.2689C7.60819 12.7717 4.29453 15.4338 1.82032 17.7929C0.665943 18.8937 0.0024285 20.4322 6.63102e-06 22.0141C-0.00241524 23.5996 0.658677 25.1418 1.81391 26.2452C4.52047 28.8304 8.25038 31.783 12.253 33.1389C12.4429 33.9058 12.8862 35.429 13.7565 37.1919C14.5008 38.6999 16.0181 39.5953 17.6121 39.5953C18.0921 39.5953 18.5791 39.514 19.054 39.3439C19.9484 39.0233 20.7782 38.6127 21.52 38.1236C22.9859 37.1574 23.5356 35.2204 22.7986 33.6182L22.2442 32.413C22.748 32.152 23.2502 31.8573 23.75 31.5281C24.4707 31.0534 24.67 30.0844 24.1953 29.3637C23.7207 28.643 22.7517 28.4436 22.031 28.9184C20.1688 30.1451 18.3133 30.767 16.5159 30.767C11.7794 30.767 6.6239 26.5182 3.97226 23.9855C3.42461 23.4625 3.12375 22.7641 3.12484 22.0191C3.12602 21.2749 3.42852 20.5772 3.97656 20.0545C5.48273 18.6185 7.78335 16.6374 10.3505 15.1726C10.9332 16.5147 11.9619 19.318 11.953 22.3589C11.9509 23.0663 11.9351 23.6126 11.742 24.7159C11.5933 25.566 12.1617 26.3756 13.0117 26.5244C13.1029 26.5403 13.1935 26.548 13.2829 26.548C14.0277 26.548 14.6874 26.0135 14.8202 25.2547C15.0551 23.9126 15.0757 23.1827 15.078 22.3681C15.0844 20.2468 14.6922 18.0102 13.9124 15.7205C13.668 15.0028 13.4093 14.3597 13.1849 13.8497C13.1923 13.8466 13.1994 13.8428 13.2067 13.8396C14.3484 13.4348 15.5039 13.1914 16.6328 13.1914C22.4831 13.1914 27.13 19.7416 28.5621 22.0074C28.1882 22.586 27.6001 23.444 26.8338 24.3967C26.2929 25.0691 26.3996 26.0527 27.0721 26.5935C27.7445 27.1345 28.7281 27.0277 29.2689 26.3552C29.5774 25.9717 29.8591 25.603 30.1137 25.257C31.4016 27.3834 33.7984 30.1535 37.9651 31.4747C38.12 31.5238 38.2792 31.5478 38.4372 31.5478C38.8206 31.5478 39.1969 31.4066 39.4888 31.1412C39.9008 30.7663 40.0822 30.2005 39.9648 29.6559L38.3171 22.0166ZM19.3215 33.5369L19.9597 34.9242C20.0573 35.1365 19.9887 35.3904 19.8002 35.5147C19.2658 35.8669 18.66 36.1655 17.9995 36.4022C17.4431 36.6016 16.824 36.3464 16.5587 35.8087C16.2075 35.0972 15.9386 34.4322 15.7367 33.865C15.9963 33.8828 16.2562 33.892 16.5161 33.892C17.4502 33.8919 18.3867 33.7728 19.3215 33.5369ZM14.7404 10.2233C15.1443 9.12394 15.7936 7.8634 16.8147 6.96223C19.624 7.4934 21.816 8.23082 23.5007 9.20988C23.6091 9.27292 23.647 9.36894 23.6596 9.43847C23.6722 9.5073 23.6708 9.60941 23.5928 9.70527C23.0507 10.3714 22.6408 10.9865 22.3568 11.559C20.6318 10.6537 18.712 10.0666 16.6329 10.0666C16.0015 10.0665 15.3697 10.1215 14.7404 10.2233ZM33.3135 24.4283C32.5976 23.437 32.1772 22.5274 31.9709 22.0131C32.3674 21.016 33.5719 18.5299 36.2474 16.7907L35.1912 21.6872C35.1444 21.9043 35.1444 22.1289 35.1912 22.3461L36.2481 27.2464C35.1227 26.5159 34.141 25.574 33.3135 24.4283ZM8.20312 19.9073C9.06608 19.9073 9.76561 20.6068 9.76561 21.4698C9.76561 22.3327 9.06608 23.0323 8.20312 23.0323C7.34015 23.0323 6.64062 22.3327 6.64062 21.4698C6.64062 20.6068 7.34015 19.9073 8.20312 19.9073Z"/>
</mask>
<path d="M38.3171 22.0166L39.9648 14.3774C40.0823 13.8328 39.9009 13.2669 39.4888 12.8921C39.0767 12.5171 38.4965 12.3902 37.9652 12.5585C33.8204 13.8727 31.4269 16.6207 30.1341 18.7427C28.9723 17.1285 27.2271 15.0247 25.0136 13.2924C25.0588 13.1248 25.2473 12.6229 26.0164 11.6778C26.6543 10.8942 26.9158 9.87339 26.7339 8.87707C26.5518 7.87965 25.9457 7.01621 25.0709 6.50785C22.9265 5.26176 20.1788 4.36317 16.6708 3.76083C16.2679 3.69169 15.8546 3.78301 15.5185 4.01504C12.6276 6.01121 11.5544 9.55972 11.1919 11.2689C7.60819 12.7717 4.29453 15.4338 1.82032 17.7929C0.665943 18.8937 0.0024285 20.4322 6.63102e-06 22.0141C-0.00241524 23.5996 0.658677 25.1418 1.81391 26.2452C4.52047 28.8304 8.25038 31.783 12.253 33.1389C12.4429 33.9058 12.8862 35.429 13.7565 37.1919C14.5008 38.6999 16.0181 39.5953 17.6121 39.5953C18.0921 39.5953 18.5791 39.514 19.054 39.3439C19.9484 39.0233 20.7782 38.6127 21.52 38.1236C22.9859 37.1574 23.5356 35.2204 22.7986 33.6182L22.2442 32.413C22.748 32.152 23.2502 31.8573 23.75 31.5281C24.4707 31.0534 24.67 30.0844 24.1953 29.3637C23.7207 28.643 22.7517 28.4436 22.031 28.9184C20.1688 30.1451 18.3133 30.767 16.5159 30.767C11.7794 30.767 6.6239 26.5182 3.97226 23.9855C3.42461 23.4625 3.12375 22.7641 3.12484 22.0191C3.12602 21.2749 3.42852 20.5772 3.97656 20.0545C5.48273 18.6185 7.78335 16.6374 10.3505 15.1726C10.9332 16.5147 11.9619 19.318 11.953 22.3589C11.9509 23.0663 11.9351 23.6126 11.742 24.7159C11.5933 25.566 12.1617 26.3756 13.0117 26.5244C13.1029 26.5403 13.1935 26.548 13.2829 26.548C14.0277 26.548 14.6874 26.0135 14.8202 25.2547C15.0551 23.9126 15.0757 23.1827 15.078 22.3681C15.0844 20.2468 14.6922 18.0102 13.9124 15.7205C13.668 15.0028 13.4093 14.3597 13.1849 13.8497C13.1923 13.8466 13.1994 13.8428 13.2067 13.8396C14.3484 13.4348 15.5039 13.1914 16.6328 13.1914C22.4831 13.1914 27.13 19.7416 28.5621 22.0074C28.1882 22.586 27.6001 23.444 26.8338 24.3967C26.2929 25.0691 26.3996 26.0527 27.0721 26.5935C27.7445 27.1345 28.7281 27.0277 29.2689 26.3552C29.5774 25.9717 29.8591 25.603 30.1137 25.257C31.4016 27.3834 33.7984 30.1535 37.9651 31.4747C38.12 31.5238 38.2792 31.5478 38.4372 31.5478C38.8206 31.5478 39.1969 31.4066 39.4888 31.1412C39.9008 30.7663 40.0822 30.2005 39.9648 29.6559L38.3171 22.0166ZM19.3215 33.5369L19.9597 34.9242C20.0573 35.1365 19.9887 35.3904 19.8002 35.5147C19.2658 35.8669 18.66 36.1655 17.9995 36.4022C17.4431 36.6016 16.824 36.3464 16.5587 35.8087C16.2075 35.0972 15.9386 34.4322 15.7367 33.865C15.9963 33.8828 16.2562 33.892 16.5161 33.892C17.4502 33.8919 18.3867 33.7728 19.3215 33.5369ZM14.7404 10.2233C15.1443 9.12394 15.7936 7.8634 16.8147 6.96223C19.624 7.4934 21.816 8.23082 23.5007 9.20988C23.6091 9.27292 23.647 9.36894 23.6596 9.43847C23.6722 9.5073 23.6708 9.60941 23.5928 9.70527C23.0507 10.3714 22.6408 10.9865 22.3568 11.559C20.6318 10.6537 18.712 10.0666 16.6329 10.0666C16.0015 10.0665 15.3697 10.1215 14.7404 10.2233ZM33.3135 24.4283C32.5976 23.437 32.1772 22.5274 31.9709 22.0131C32.3674 21.016 33.5719 18.5299 36.2474 16.7907L35.1912 21.6872C35.1444 21.9043 35.1444 22.1289 35.1912 22.3461L36.2481 27.2464C35.1227 26.5159 34.141 25.574 33.3135 24.4283ZM8.20312 19.9073C9.06608 19.9073 9.76561 20.6068 9.76561 21.4698C9.76561 22.3327 9.06608 23.0323 8.20312 23.0323C7.34015 23.0323 6.64062 22.3327 6.64062 21.4698C6.64062 20.6068 7.34015 19.9073 8.20312 19.9073Z" fill="black" stroke="#0059DE" stroke-width="6" mask="url(#path-4-inside-1_380_44901)"/>
</g>
</g>
<defs>
<filter id="filter0_d_380_44901" x="-75" y="-31" width="470" height="310" filterUnits="userSpaceOnUse" color-interpolation-filters="sRGB">
<feFlood flood-opacity="0" result="BackgroundImageFix"/>
<feColorMatrix in="SourceAlpha" type="matrix" values="0 0 0 0 0 0 0 0 0 0 0 0 0 0 0 0 0 0 127 0" result="hardAlpha"/>
<feMorphology radius="15" operator="erode" in="SourceAlpha" result="effect1_dropShadow_380_44901"/>
<feOffset dy="25"/>
<feGaussianBlur stdDeviation="20"/>
<feComposite in2="hardAlpha" operator="out"/>
<feColorMatrix type="matrix" values="0 0 0 0 0 0 0 0 0 0.245 0 0 0 0 0.35 0 0 0 0.12 0"/>
<feBlend mode="normal" in2="BackgroundImageFix" result="effect1_dropShadow_380_44901"/>
<feBlend mode="normal" in="SourceGraphic" in2="effect1_dropShadow_380_44901" result="shape"/>
</filter>
<filter id="filter1_d_380_44901" x="-35" y="-30" width="110" height="115" filterUnits="userSpaceOnUse" color-interpolation-filters="sRGB">
<feFlood flood-opacity="0" result="BackgroundImageFix"/>
<feColorMatrix in="SourceAlpha" type="matrix" values="0 0 0 0 0 0 0 0 0 0 0 0 0 0 0 0 0 0 127 0" result="hardAlpha"/>
<feMorphology radius="5" operator="erode" in="SourceAlpha" result="effect1_dropShadow_380_44901"/>
<feOffset dy="10"/>
<feGaussianBlur stdDeviation="5"/>
<feComposite in2="hardAlpha" operator="out"/>
<feColorMatrix type="matrix" values="0 0 0 0 0 0 0 0 0 0.0117646 0 0 0 0 0.270588 0 0 0 0.13 0"/>
<feBlend mode="normal" in2="BackgroundImageFix" result="effect1_dropShadow_380_44901"/>
<feBlend mode="normal" in="SourceGraphic" in2="effect1_dropShadow_380_44901" result="shape"/>
</filter>
<clipPath id="clip0_380_44901">
<rect width="1920" height="6032" fill="white" transform="translate(-1258 -2256)"/>
</clipPath>
</defs>
</svg>
