<svg width="20" height="20" viewBox="0 0 20 20" fill="none" xmlns="http://www.w3.org/2000/svg">
<path d="M18.2897 7.96513C18.1806 7.61297 17.8813 7.36285 17.5271 7.32954L12.7167 6.87375L10.8145 2.22787C10.6742 1.88739 10.3548 1.66699 9.99991 1.66699C9.645 1.66699 9.32558 1.88739 9.18532 2.22867L7.28314 6.87375L2.47193 7.32954C2.11843 7.36364 1.81986 7.61297 1.71012 7.96513C1.60038 8.31729 1.70172 8.70355 1.96914 8.94703L5.60527 12.2746L4.53306 17.2031C4.4546 17.5655 4.58939 17.9401 4.87754 18.1574C5.03242 18.2742 5.21362 18.3337 5.39635 18.3337C5.5539 18.3337 5.71018 18.2893 5.85043 18.2018L9.99991 15.6139L14.1479 18.2018C14.4514 18.3923 14.834 18.3749 15.1215 18.1574C15.4098 17.9394 15.5444 17.5647 15.466 17.2031L14.3938 12.2746L18.0299 8.9477C18.2973 8.70355 18.3994 8.31795 18.2897 7.96513Z" fill="#FDC90D"/>
</svg>
