<svg width="24" height="24" viewBox="0 0 24 24" fill="none" xmlns="http://www.w3.org/2000/svg">
<g clip-path="url(#clip0_1136_37983)">
<path d="M23.0625 16.74C23.5803 16.74 24 16.3203 24 15.8025V9.19315C24 7.28047 22.4439 5.7244 20.5312 5.7244C18.6186 5.7244 17.0625 7.28047 17.0625 9.19315V20.5312C17.0625 22.4439 18.6186 23.9999 20.5312 23.9999C22.4439 23.9999 24 22.4439 24 20.5312C24 20.0134 23.5803 19.5937 23.0625 19.5937C22.5447 19.5937 22.125 20.0134 22.125 20.5312C22.125 21.41 21.4101 22.1249 20.5312 22.1249C19.6524 22.1249 18.9375 21.41 18.9375 20.5312V9.19315C18.9375 8.31434 19.6524 7.5994 20.5312 7.5994C21.4101 7.5994 22.125 8.31434 22.125 9.19315V15.8025C22.125 16.3203 22.5447 16.74 23.0625 16.74Z" fill="#0059DE"/>
<path d="M3.46875 8.58377C1.55606 8.58377 0 10.1398 0 12.0525V20.5312C0 22.4439 1.55606 23.9999 3.46875 23.9999C5.38144 23.9999 6.9375 22.4439 6.9375 20.5312V12.0525C6.9375 10.1398 5.38144 8.58377 3.46875 8.58377ZM5.0625 20.5312C5.0625 21.41 4.34756 22.1249 3.46875 22.1249C2.58994 22.1249 1.875 21.41 1.875 20.5312V12.0525C1.875 11.1737 2.58994 10.4588 3.46875 10.4588C4.34756 10.4588 5.0625 11.1737 5.0625 12.0525V20.5312Z" fill="#0059DE"/>
<path d="M12 0C10.0873 0 8.53125 1.55606 8.53125 3.46875V20.5312C8.53125 22.4439 10.0873 24 12 24C13.9127 24 15.4688 22.4439 15.4688 20.5312V3.46875C15.4688 1.55606 13.9127 0 12 0ZM13.5938 20.5312C13.5938 21.4101 12.8788 22.125 12 22.125C11.1212 22.125 10.4062 21.4101 10.4062 20.5312V3.46875C10.4062 2.58994 11.1212 1.875 12 1.875C12.8788 1.875 13.5938 2.58994 13.5938 3.46875V20.5312Z" fill="#0059DE"/>
</g>
<defs>
<clipPath id="clip0_1136_37983">
<rect width="24" height="24" fill="white"/>
</clipPath>
</defs>
</svg>
