<svg width="24" height="24" viewBox="0 0 24 24" fill="none" xmlns="http://www.w3.org/2000/svg">
<path d="M11 17C11 17.5523 11.4477 18 12 18C12.5523 18 13 17.5523 13 17C13 16.4477 12.5523 16 12 16C11.4477 16 11 16.4477 11 17ZM12 2C6.48 2 2 6.48 2 12C2 17.52 6.48 22 12 22C17.52 22 22 17.52 22 12C22 6.48 17.52 2 12 2ZM12 20C7.59 20 4 16.41 4 12C4 7.59 7.59 3.98994 12 3.98994C16.41 3.98994 20.0099 7.59 20.0099 12C20.0099 16.41 16.41 20 12 20ZM12 6C10.2017 6 8.68143 7.18525 8.17747 8.81758C7.98196 9.45083 8.53726 10 9.2 10C9.64183 10 9.98548 9.62779 10.1587 9.22134C10.4639 8.50526 11.1758 8 12 8C13.1 8 14 8.9 14 10C14 11.7695 11.6517 11.7777 11.1104 14.0069C10.98 14.5436 11.4477 15 12 15C12.5523 15 12.9768 14.5295 13.2172 14.0323C13.9066 12.6067 16 12.0884 16 10C16 7.79 14.21 6 12 6Z" fill="#000345"/>
</svg>
