<svg width="40" height="40" viewBox="0 0 40 40" fill="none" xmlns="http://www.w3.org/2000/svg">
<g clip-path="url(#clip0_4145_18168)">
<path d="M38.4305 34.5809L38.4306 34.5809C38.6327 35.5515 38.3916 36.541 37.7695 37.3059L37.7693 37.3061C37.1512 38.0662 36.2394 38.5 35.2587 38.5H4.7421C3.76152 38.5 2.84973 38.0663 2.23147 37.306L1.07514 38.2464L2.23147 37.306C1.60935 36.541 1.36827 35.5515 1.57037 34.5809L1.57038 34.5809C2.43802 30.4132 4.73905 26.6142 8.04943 23.8913C9.85245 22.4082 11.9141 21.2823 14.1127 20.5584L16.8463 19.6585L14.5429 17.9331C12.314 16.2636 10.8755 13.6078 10.8755 10.625C10.8755 5.59483 14.9702 1.5 20.0005 1.5C25.0307 1.5 29.1255 5.59483 29.1255 10.625C29.1255 13.606 27.6887 16.2603 25.4621 17.93L23.1609 19.6557L25.8931 20.5549C29.8235 21.8485 33.2717 24.4231 35.6477 27.9668L35.6478 27.9668C35.6669 27.9954 35.6593 28.0342 35.6307 28.0534C35.6017 28.0727 35.563 28.0648 35.544 28.0364L35.5439 28.0363C32.1446 22.9667 26.5282 19.8881 20.4522 19.7424L20.4054 19.7413L20.3585 19.7431C20.2394 19.7477 20.12 19.75 20.0005 19.75C19.8809 19.75 19.7621 19.7477 19.6442 19.7432L19.5971 19.7413L19.55 19.7425C10.9234 19.9511 3.45712 26.1317 1.69274 34.6063C1.50005 35.5317 1.72986 36.4912 2.32843 37.2272L2.32851 37.2273C2.66405 37.6398 3.45187 38.375 4.7421 38.375H35.2588C36.5489 38.375 37.3368 37.64 37.6726 37.2271L37.6727 37.2269C38.2708 36.4911 38.5009 35.532 38.3082 34.6063L38.3082 34.6063C38.3012 34.5726 38.3228 34.5396 38.3565 34.5325C38.3906 34.5254 38.4235 34.5472 38.4305 34.5809ZM20.3522 19.6152L20.4037 19.6162L20.4551 19.6136C25.2088 19.3755 29.0005 15.4369 29.0005 10.625C29.0005 5.66103 24.9644 1.625 20.0005 1.625C15.0365 1.625 11.0005 5.66103 11.0005 10.625C11.0005 15.4375 14.793 19.3765 19.5476 19.6137L19.5989 19.6162L19.6502 19.6153C19.7675 19.6131 19.8843 19.612 20.0005 19.612C20.1179 19.612 20.2352 19.613 20.3522 19.6152Z" fill="black" stroke="#0059DE" stroke-width="3"/>
<path d="M4.1665 12.5003V6.66699H9.99984V6.66699C10.2539 6.66699 10.4598 6.87292 10.4598 7.12693V10.5003C10.4598 11.6049 9.56435 12.5003 8.45978 12.5003L4.1665 12.5003ZM4.1665 12.5003C4.1665 12.5003 4.1665 17.5003 5.83317 17.5003C7.49984 17.5003 8.33317 16.667 8.33317 16.667" stroke="#0059DE" stroke-width="3" stroke-linejoin="round"/>
<rect x="6.6665" y="15" width="3.33333" height="3.33333" rx="1.66667" fill="#0059DE"/>
</g>
<defs>
<clipPath id="clip0_4145_18168">
<rect width="40" height="40" fill="white"/>
</clipPath>
</defs>
</svg>
