<svg width="16" height="16" viewBox="0 0 16 16" fill="none" xmlns="http://www.w3.org/2000/svg">
<path d="M12.245 1.52718L13.9421 2.9424C14.0589 3.03986 14.2008 3.08743 14.342 3.08743C14.521 3.08743 14.6987 3.01093 14.8224 2.86271C15.0434 2.59761 15.0077 2.20349 14.7426 1.98243L13.0455 0.567177C12.7805 0.346114 12.3863 0.38177 12.1653 0.646895C11.9442 0.911989 11.9799 1.30608 12.245 1.52718Z" fill="#0059DE"/>
<path d="M1.65802 3.0874C1.79915 3.0874 1.94112 3.03984 2.05796 2.94237L3.75499 1.52719C4.02008 1.30612 4.0558 0.911998 3.83474 0.646904C3.61371 0.381842 3.21955 0.346123 2.95446 0.567185L1.2574 1.9824C0.992303 2.20347 0.956585 2.59759 1.17765 2.86269C1.3013 3.0109 1.47899 3.0874 1.65802 3.0874Z" fill="#0059DE"/>
<path d="M13.2149 3.41009C11.9703 2.16553 10.3592 1.42106 8.625 1.27647V0.625C8.625 0.279813 8.34519 0 8 0C7.65481 0 7.375 0.279813 7.375 0.625V1.27647C5.64081 1.42106 4.02966 2.1655 2.78509 3.41006C1.39213 4.80303 0.625 6.65506 0.625 8.625C0.625 10.5949 1.39213 12.447 2.78509 13.8399C4.17803 15.2329 6.03006 16 8 16C9.58606 16 11.0974 15.5041 12.3708 14.5658C12.6487 14.3611 12.7079 13.9698 12.5032 13.6919C12.2984 13.414 11.9071 13.3547 11.6292 13.5595C10.5723 14.3383 9.31731 14.75 8 14.75C4.62266 14.75 1.875 12.0023 1.875 8.625C1.875 5.24766 4.62266 2.5 8 2.5C11.3773 2.5 14.125 5.24766 14.125 8.625C14.125 9.65656 13.8639 10.6762 13.37 11.5736C13.2035 11.876 13.3138 12.2561 13.6162 12.4225C13.9185 12.5889 14.2986 12.4788 14.4651 12.1763C15.0603 11.0948 15.375 9.86672 15.375 8.625C15.375 6.65506 14.6079 4.80303 13.2149 3.41009Z" fill="#0059DE"/>
<path d="M11.0448 4.86253C10.7766 4.64544 10.383 4.68684 10.1658 4.95519L8.19515 7.39034C8.13153 7.38031 8.06637 7.375 8 7.375C7.31075 7.375 6.75 7.93575 6.75 8.625C6.75 9.31425 7.31075 9.875 8 9.875C8.68925 9.875 9.24999 9.31425 9.24999 8.625C9.24999 8.46712 9.22027 8.31612 9.16662 8.17694L11.1375 5.74153C11.3546 5.47319 11.3131 5.07963 11.0448 4.86253Z" fill="#0059DE"/>
</svg>
