<svg width="36" height="36" viewBox="0 0 36 36" fill="none" xmlns="http://www.w3.org/2000/svg">
<path d="M18 1C8.61117 1 1 8.61117 1 18C1 27.3888 8.61117 35 18 35C27.3888 35 35 27.3888 35 18C35 8.61117 27.3888 1 18 1ZM27.2527 13.388C27.2527 17.7659 25.4269 21.922 21.838 24.5498C17.3868 27.8085 11.0056 27.9342 6.33691 25.0518C8.73221 25.5218 11.5049 24.571 13.4126 23.146C12.4218 23.1451 11.4558 22.8366 10.648 22.263C9.84015 21.6895 9.23035 20.8792 8.90282 19.9442C9.60418 20.1161 10.384 20.0044 11.0799 19.868C8.88555 19.4838 7.25539 17.5159 7.26994 15.2939C7.92712 15.6905 8.67957 15.9012 9.4471 15.9038C8.2027 15.1414 7.34773 13.6929 7.34773 12.0921C7.35115 11.2884 7.56567 10.4998 7.9698 9.80512C10.3022 12.5495 13.879 14.3791 17.8445 14.6078C17.2374 11.633 19.4241 8.89031 22.5097 8.89031C23.9093 8.89031 25.1533 9.42391 26.0087 10.3387C27.0972 10.11 29.041 9.19522 29.041 9.19522C28.6523 10.3387 27.8747 11.1773 26.9417 11.7872C27.8747 11.6347 28.8078 11.4064 29.6631 11.0248C28.9782 11.9251 28.1663 12.7211 27.2527 13.388Z" fill="white"/>
</svg>
