<svg width="50" height="50" viewBox="0 0 50 50" fill="none" xmlns="http://www.w3.org/2000/svg">
<path d="M26.5689 28.0338C34.2979 28.0338 40.5858 21.7458 40.5858 14.0169C40.5858 6.28799 34.2979 0 26.5689 0C18.8399 0 12.5521 6.28799 12.5521 14.0169C12.5521 21.7458 18.84 28.0338 26.5689 28.0338ZM26.5689 2.92969C32.6825 2.92969 37.6562 7.90342 37.6562 14.0169C37.6562 20.1304 32.6825 25.1041 26.569 25.1041C20.4556 25.1041 15.4818 20.1304 15.4818 14.0169C15.4818 7.90342 20.4555 2.92969 26.5689 2.92969Z" fill="#0059DE"/>
<path d="M25.7845 15.4817H27.3535C27.8437 15.4817 28.2423 15.8804 28.2423 16.3705C28.2423 16.8606 27.8437 17.2592 27.3535 17.2592H25C24.191 17.2592 23.5352 17.915 23.5352 18.724C23.5352 19.533 24.191 20.1889 25 20.1889H25.1041V20.293C25.1041 21.102 25.76 21.7578 26.5689 21.7578C27.3779 21.7578 28.0338 21.102 28.0338 20.293V20.127C29.8156 19.805 31.1719 18.2438 31.1719 16.3705C31.1719 14.2649 29.459 12.5521 27.3534 12.5521H25.7845C25.2944 12.5521 24.8958 12.1534 24.8958 11.6634C24.8958 11.1732 25.2944 10.7746 25.7845 10.7746H28.1381C28.9471 10.7746 29.6029 10.1188 29.6029 9.30977C29.6029 8.50078 28.9471 7.84492 28.1381 7.84492H28.0339V7.74082C28.0339 6.93184 27.378 6.27598 26.569 6.27598C25.7601 6.27598 25.1042 6.93184 25.1042 7.74082V7.90684C23.3225 8.22881 21.9662 9.79014 21.9662 11.6634C21.9662 13.7689 23.6791 15.4817 25.7845 15.4817Z" fill="#0059DE"/>
<path d="M35.4855 32.1569L33.5087 34.134C32.7953 32.514 31.1744 31.3803 29.2937 31.3803H19.0394C15.0456 31.3803 13.3938 34.6316 13.0413 36.0873H10.7747V34.4141C10.7747 33.6051 10.1188 32.9492 9.30986 32.9492H1.46484C0.655859 32.9492 0 33.6051 0 34.4141V48.5352C0 49.3441 0.655859 50 1.46484 50H9.30986C10.1188 50 10.7747 49.3441 10.7747 48.5352V46.862H30.9743C32.7958 46.862 34.5088 46.1524 35.7979 44.8639L46.4329 34.2284C47.005 33.6564 47.0045 32.7283 46.4329 32.1568C43.4147 29.1388 38.5039 29.1388 35.4855 32.1569ZM7.84512 47.0703H2.92969V35.8789H7.84502L7.84512 47.0703ZM33.7265 42.7921C32.9909 43.5273 32.0135 43.9322 30.9743 43.9322H10.7748V39.0169H14.3324C15.1414 39.0169 15.7973 38.361 15.7973 37.5521C15.7973 35.7603 17.2462 34.3099 19.0395 34.3099H29.2937C30.2163 34.3099 30.9669 35.0605 30.9669 35.983C30.9669 37.3516 29.7045 37.6493 29.3228 37.656C29.322 37.656 29.3211 37.656 29.3207 37.656C29.3117 37.6561 29.3027 37.6562 29.2937 37.6562H23.9368C23.1278 37.6562 22.472 38.312 22.472 39.121C22.472 39.93 23.1278 40.5858 23.9368 40.5858H29.2943C30.5225 40.5858 31.6778 40.1074 32.5482 39.2379L37.5573 34.2283C39.0722 32.7136 41.3542 32.4219 43.1644 33.3537L33.7265 42.7921Z" fill="#0059DE"/>
<path d="M46.0519 9.05117L49.1899 7.48213C49.9136 7.12041 50.2068 6.24053 49.845 5.5169C49.4832 4.79326 48.6035 4.5 47.8798 4.86172L44.7417 6.43076C44.0181 6.79248 43.7248 7.67237 44.0866 8.396C44.4498 9.12237 45.3311 9.41133 46.0519 9.05117Z" fill="#0059DE"/>
<path d="M49.1899 20.5518L46.0519 18.9827C45.3286 18.6213 44.4484 18.9143 44.0866 19.6379C43.7248 20.3615 44.0181 21.2414 44.7417 21.6031L47.8798 23.1722C48.6024 23.5333 49.4827 23.2415 49.845 22.517C50.2068 21.7934 49.9136 20.9135 49.1899 20.5518Z" fill="#0059DE"/>
<path d="M3.94805 7.48203L7.08613 9.05107C7.80693 9.41133 8.68818 9.12236 9.05137 8.3959C9.41319 7.67227 9.11992 6.79238 8.39629 6.43066L5.2582 4.86162C4.53447 4.4999 3.65479 4.79316 3.29297 5.5168C2.93115 6.24043 3.22441 7.12031 3.94805 7.48203Z" fill="#0059DE"/>
<path d="M5.2582 23.1722L8.39629 21.6031C9.11992 21.2414 9.41319 20.3615 9.05137 19.6379C8.68955 18.9143 7.80938 18.6213 7.08613 18.9827L3.94805 20.5518C3.22441 20.9135 2.93115 21.7934 3.29297 22.517C3.65527 23.2416 4.53555 23.5334 5.2582 23.1722Z" fill="#0059DE"/>
</svg>
