<svg width="24" height="25" viewBox="0 0 24 25" fill="none" xmlns="http://www.w3.org/2000/svg">
<g clip-path="url(#clip0_2886_36979)">
<path d="M18.9843 12.5474C17.4335 12.5474 16.1718 13.8091 16.1718 15.3599C16.1718 16.9107 17.4335 18.1724 18.9843 18.1724H22.9687C22.9846 18.1724 23.0001 18.1708 23.0158 18.17C23.0314 18.1708 23.0467 18.1724 23.0625 18.1724C23.5802 18.1724 24 17.7526 24 17.2349V9.8755C24 8.62741 23.3865 7.52046 22.4458 6.83848L19.2564 1.6063C19.1264 1.39293 18.9166 1.2403 18.6735 1.18236C18.4304 1.12433 18.1742 1.16582 17.9619 1.29754L15.6098 2.7561L14.5491 0.961068C14.4216 0.745256 14.213 0.589538 13.9698 0.5286C13.7268 0.467663 13.4693 0.50671 13.2551 0.636834L4.22385 6.12551H2.81249C2.30339 6.12551 1.88775 5.71761 1.87528 5.21145C1.88775 4.7053 2.30339 4.29739 2.81249 4.29739H4.54687C5.06465 4.29739 5.48436 3.87767 5.48436 3.35989C5.48436 2.84211 5.06465 2.42239 4.54687 2.42239H2.81249C1.48603 2.42239 0.371202 3.34555 0.0764061 4.58309C0.0273749 4.69681 0 4.82197 0 4.95364V20.7505C0 22.8182 1.68225 24.5005 3.74999 24.5005H20.25C21.8667 24.5005 23.2965 23.4706 23.8078 21.9378C23.9717 21.4466 23.7063 20.9156 23.2152 20.7518C22.7241 20.588 22.193 20.8533 22.0292 21.3444C21.7736 22.1107 21.0586 22.6255 20.25 22.6255H3.74999C2.71612 22.6255 1.875 21.7844 1.875 20.7505V7.83968C2.16839 7.94374 2.4839 8.00051 2.81249 8.00051H20.25C21.2838 8.00051 22.125 8.84163 22.125 9.8755V12.5474H18.9843ZM22.125 16.2974H18.9843C18.4674 16.2974 18.0468 15.8769 18.0468 15.3599C18.0468 14.8429 18.4674 14.4224 18.9843 14.4224H22.125V16.2974ZM7.83411 6.12556L13.4178 2.73214L14.4161 4.42156C14.4353 4.46773 14.4573 4.51325 14.4845 4.55712C14.5049 4.58998 14.5275 4.62059 14.5511 4.65003L15.4229 6.12556H7.83411ZM17.6008 6.12551L16.5639 4.3707L18.1472 3.38891L19.8153 6.12551H17.6008Z" fill="#0059DE"/>
</g>
<defs>
<clipPath id="clip0_2886_36979">
<rect width="24" height="24" fill="white" transform="translate(0 0.5)"/>
</clipPath>
</defs>
</svg>
