<svg width="24" height="24" viewBox="0 0 24 24" fill="none" xmlns="http://www.w3.org/2000/svg">
<g clip-path="url(#clip0_2835_12675)">
<path d="M18.9843 12.0474C17.4335 12.0474 16.1718 13.3091 16.1718 14.8599C16.1718 16.4107 17.4335 17.6724 18.9843 17.6724H22.9687C22.9846 17.6724 23.0001 17.6708 23.0158 17.67C23.0314 17.6708 23.0467 17.6724 23.0625 17.6724C23.5802 17.6724 24 17.2526 24 16.7349V9.3755C24 8.12741 23.3865 7.02046 22.4458 6.33848L19.2564 1.1063C19.1264 0.892927 18.9166 0.740302 18.6735 0.682365C18.4304 0.624333 18.1742 0.665818 17.9619 0.797536L15.6098 2.2561L14.5491 0.461068C14.4216 0.245256 14.213 0.0895376 13.9698 0.0286002C13.7268 -0.0323372 13.4693 0.00670965 13.2551 0.136834L4.22385 5.62551H2.81249C2.30339 5.62551 1.88775 5.21761 1.87528 4.71145C1.88775 4.2053 2.30339 3.79739 2.81249 3.79739H4.54687C5.06465 3.79739 5.48436 3.37767 5.48436 2.85989C5.48436 2.34211 5.06465 1.92239 4.54687 1.92239H2.81249C1.48603 1.92239 0.371202 2.84555 0.0764061 4.08309C0.0273749 4.19681 0 4.32197 0 4.45364V20.2505C0 22.3182 1.68225 24.0005 3.74999 24.0005H20.25C21.8667 24.0005 23.2965 22.9706 23.8078 21.4378C23.9717 20.9466 23.7063 20.4156 23.2152 20.2518C22.7241 20.088 22.193 20.3533 22.0292 20.8444C21.7736 21.6107 21.0586 22.1255 20.25 22.1255H3.74999C2.71612 22.1255 1.875 21.2844 1.875 20.2505V7.33968C2.16839 7.44374 2.4839 7.50051 2.81249 7.50051H20.25C21.2838 7.50051 22.125 8.34163 22.125 9.3755V12.0474H18.9843ZM22.125 15.7974H18.9843C18.4674 15.7974 18.0468 15.3769 18.0468 14.8599C18.0468 14.3429 18.4674 13.9224 18.9843 13.9224H22.125V15.7974ZM7.83411 5.62556L13.4178 2.23214L14.4161 3.92156C14.4353 3.96773 14.4573 4.01325 14.4845 4.05712C14.5049 4.08998 14.5275 4.12059 14.5511 4.15003L15.4229 5.62556H7.83411ZM17.6008 5.62551L16.5639 3.8707L18.1472 2.88891L19.8153 5.62551H17.6008Z" fill="#074EE8"/>
</g>
<defs>
<clipPath id="clip0_2835_12675">
<rect width="24" height="24" fill="white"/>
</clipPath>
</defs>
</svg>
