<svg width="126" height="40" viewBox="0 0 126 40" fill="none" xmlns="http://www.w3.org/2000/svg">
<path d="M37.9326 13.787C38.1846 13.2004 38.5825 12.7604 39.4711 11.787C40.068 11.1337 40.7842 10.547 41.2219 10.187C42.389 9.28037 44.0071 8.42704 44.6968 8.28037C45.3732 8.12037 46.9648 7.85371 47.9861 8.04037C49.0206 8.24037 50.5193 8.94704 51.0499 9.25371C51.3284 9.41371 52.0711 9.90704 52.7873 10.4937C53.5168 11.0937 54.2198 11.7737 54.4983 12.147C54.8962 12.6537 55.241 12.9737 55.5859 13.7204C55.745 14.0404 55.8909 14.547 56.0633 15.0137C56.3949 15.867 56.3684 15.747 56.4878 15.9737C56.5939 16.2004 56.8326 16.507 56.753 16.9337C56.6734 17.347 56.6734 17.6537 56.2623 17.7737C55.8379 17.8937 55.3737 17.4937 54.8431 17.4937C54.3126 17.4937 53.9412 17.4537 53.9412 17.6937C53.9412 17.9204 54.3524 18.0804 54.9625 18.427C55.5726 18.7737 56.3684 19.2137 56.4878 19.6537C56.5939 20.0937 56.5806 20.187 56.4347 20.347C56.3021 20.4937 55.997 20.7737 55.2012 20.347C54.3922 19.9204 52.2303 18.6137 51.9518 18.467C51.66 18.307 51.2223 18.2937 51.1162 18.307C50.9968 18.3337 50.6918 18.387 50.6918 18.547C50.6918 18.6937 50.9305 18.987 51.1162 19.1604C51.4478 19.4404 53.6229 20.5337 54.2728 20.8404C54.9227 21.147 55.6654 21.587 55.7052 21.8137C55.745 22.0404 55.7583 22.347 55.4798 22.4804C55.188 22.6137 54.9227 22.5204 54.3524 22.2804C53.7821 22.027 52.8669 21.6137 52.5221 21.467C52.1772 21.3204 51.912 21.2937 51.8589 21.3737C51.7926 21.4537 51.8457 21.7204 51.9783 21.8937C52.1242 22.067 53.9147 23.7737 53.9678 24.0404C54.0208 24.307 53.928 24.6137 53.8617 24.7204C53.7821 24.8404 53.3179 25.027 52.9067 24.7604C52.4823 24.4937 50.9438 22.8137 50.9438 22.8137C50.9438 22.8137 50.652 22.6804 50.5989 22.7604C50.5591 22.8004 50.5193 23.2004 50.6785 23.7337C50.7979 24.107 50.8907 24.4404 50.957 24.667C51.1162 25.2004 51.2753 25.827 51.1029 26.187C50.9305 26.5604 50.4663 26.7337 50.201 26.4937C49.9358 26.2404 49.8562 25.987 49.6307 25.227C49.4052 24.4537 49.2328 23.6137 49.1002 23.347C48.9543 23.0804 48.941 22.867 48.7686 23.0004C48.5962 23.1337 48.5033 23.4804 48.4901 23.8804C48.4635 24.2804 48.5033 25.147 48.5299 25.627C48.5431 26.107 48.5431 26.5204 48.384 26.7204C48.2381 26.907 47.933 26.867 47.7075 26.8137C47.4423 26.747 47.3229 26.067 47.2699 25.507C47.2035 24.9604 47.2301 22.387 47.2301 22.0804C47.2301 21.7737 47.1505 21.107 47.0179 21.0537C46.8852 20.987 46.7791 21.0137 46.7261 21.0004C46.5934 20.9737 46.3414 21.2137 46.3547 22.387C46.3812 23.547 46.3282 25.0804 46.2221 25.5737C46.1292 26.067 46.0099 26.8004 45.8374 26.8537C45.665 26.907 45.0947 27.0004 45.0151 26.5604C44.9355 26.1204 44.9621 25.3737 45.0549 24.7737C45.1478 24.147 45.1345 23.0137 45.108 22.907C45.0947 22.8537 44.9886 22.707 44.8825 22.747C44.7764 22.787 44.6172 23.0804 44.5774 23.1604C44.5509 23.2137 44.4183 23.5337 44.2989 23.947C44.0734 24.7337 43.8214 25.827 43.7419 25.947C43.6225 26.147 43.3838 26.6404 42.9991 26.547C42.6145 26.4537 42.5614 25.8404 42.5614 25.5337C42.5614 25.227 42.6675 24.7604 42.7869 24.387C42.893 24.0137 43.0522 23.427 43.0787 23.227C43.092 23.0404 43.1185 22.827 43.0389 22.787C43.0124 22.7737 42.9195 22.747 42.8002 22.8004C42.6145 22.8937 42.3625 23.107 42.2033 23.2804C41.9381 23.5737 40.7974 24.7337 40.5985 24.8004C40.3995 24.867 39.9353 24.8004 39.8558 24.5604C39.7762 24.307 39.7231 24.107 39.9884 23.7737C40.2536 23.427 41.7524 22.147 41.8452 21.7604C41.9381 21.387 41.6861 21.2004 41.4606 21.2937C41.2219 21.4004 40.9433 21.467 40.0414 22.067C39.1661 22.6537 38.5958 22.9604 38.3703 22.6937C38.1448 22.427 38.1846 22.0004 38.4631 21.707C38.5825 21.5737 39.0202 21.267 39.564 20.9337C40.2139 20.5337 40.9831 20.0537 41.4341 19.867C42.2033 19.5337 42.9063 19.1737 42.9859 18.947C43.0522 18.7204 43.1715 18.507 42.9991 18.427C42.8267 18.347 42.4686 18.3737 42.3492 18.4137C42.2431 18.4404 41.9381 18.5204 41.2219 18.9204C40.4924 19.3204 38.8345 20.4137 38.5294 20.6137C38.2244 20.8004 37.6143 20.8537 37.4949 20.5737C37.349 20.227 37.3092 19.8804 37.4816 19.667C37.6673 19.4404 38.2907 18.947 38.8743 18.6004C39.4711 18.2537 39.6568 18.267 39.7894 18.0137C39.9221 17.7737 39.9088 17.667 39.7099 17.587C39.4976 17.507 38.5029 17.8137 38.1448 17.907C37.7734 18.0004 37.0042 18.067 36.8715 17.6804C36.7389 17.2937 36.7654 16.747 36.9246 16.4937C37.0705 16.2404 37.4153 15.2937 37.5082 15.0804C37.6275 14.827 37.8265 14.0404 37.9326 13.787ZM51.1825 11.0537C51.1825 11.0537 50.5061 11.747 50.2939 12.027C50.0817 12.3204 49.8562 12.627 49.8031 12.7737C49.697 13.0537 49.7766 13.2937 49.7766 13.2937C49.7766 13.2937 49.8429 13.4137 49.9092 13.4137C49.9888 13.4137 50.0684 13.4537 50.5459 13.107C51.0233 12.7604 51.3549 12.1604 51.4345 12.0537C51.5273 11.947 51.7263 11.5204 51.7793 11.387C51.8457 11.2537 51.912 11.1337 51.9385 10.907C51.9518 10.7737 51.9385 10.7204 51.8722 10.667C51.8457 10.6537 51.7528 10.667 51.66 10.7204C51.4743 10.827 51.1825 11.0537 51.1825 11.0537ZM46.1558 12.1737C46.1292 12.387 46.0364 12.7337 45.9568 13.0537C45.8905 13.3337 45.8109 13.6004 45.7977 13.7337C45.7844 13.867 45.7711 14.2404 45.7711 14.5737C45.7711 14.8804 45.7977 15.1604 45.8242 15.267C45.8507 15.387 45.9568 15.5737 46.0497 15.7204C46.1027 15.827 46.1558 15.9204 46.1558 15.947L46.1823 16.0537C46.0629 16.0137 45.7977 15.9204 45.413 15.7204L45.2406 15.627C44.7896 15.3737 44.5774 15.267 44.1795 15.227C43.9673 15.2137 43.596 15.2004 43.2246 15.2004C42.893 15.2137 42.5614 15.227 42.3227 15.2537C42.084 15.2804 41.832 15.2804 41.5932 15.267C41.3678 15.2537 41.1555 15.227 41.0362 15.1737C40.7974 15.0804 40.1873 14.7737 40.1873 14.7737L40.1343 14.8804C40.1343 14.8804 41.3943 15.787 41.7259 15.8004L41.8187 15.8137C42.2299 15.8404 43.3572 15.907 43.7684 15.9737C44.0469 16.027 44.5111 16.107 44.8825 16.1737C45.1212 16.227 45.3069 16.267 45.3732 16.2937C45.4395 16.3204 45.5722 16.3737 45.7181 16.427C45.9966 16.5204 46.3282 16.6404 46.3945 16.6937C46.4343 16.7204 46.4608 16.7604 46.4873 16.8004C46.4873 16.8137 46.5006 16.827 46.5006 16.8404C46.4873 16.8404 46.4873 16.8537 46.4873 16.8537C46.4741 16.867 46.4475 16.867 46.421 16.8804C46.3017 16.8937 45.8507 16.787 45.4395 16.6937C45.1743 16.627 44.9355 16.5604 44.8162 16.547C44.657 16.5337 44.2193 16.4537 43.8082 16.387C43.4235 16.3204 43.0654 16.2537 42.9593 16.227H42.9328C42.7073 16.1604 42.4155 16.0937 41.8983 16.067C41.7789 16.067 41.6728 16.067 41.5534 16.0537C41.1555 16.0404 40.7974 16.0137 40.4659 16.0937C40.068 16.187 39.4579 16.4404 39.4579 16.4404L39.4844 16.547C39.4844 16.547 40.6913 16.3204 41.2616 16.4004C41.6463 16.4537 42.084 16.7204 42.3492 16.8937C42.4686 16.9604 42.5614 17.027 42.6145 17.027L42.7736 17.067C43.1185 17.1337 43.8214 17.2804 44.153 17.2937C44.3387 17.307 44.604 17.307 44.856 17.307C45.1743 17.307 45.4926 17.2937 45.5457 17.3204L45.7048 17.3737C45.6385 17.4004 45.5589 17.467 45.4793 17.547C45.36 17.6537 44.856 18.187 44.4713 18.747C44.2459 19.067 44.0602 19.4004 44.0071 19.6537C43.8878 20.2404 43.7419 20.6004 43.649 20.8404L43.596 20.9737C43.5562 21.067 43.4501 21.227 43.3174 21.4004C43.1185 21.6537 42.893 21.9204 42.7869 22.027L42.7604 22.0537C42.6675 22.2004 42.6675 22.2404 42.7471 22.2004C42.7736 22.2004 42.8002 22.187 42.84 22.1337L42.8798 22.107L42.9991 22.0004C43.2511 21.8004 43.7153 21.387 43.901 21.147C44.1132 20.867 44.2856 20.5737 44.4846 20.2004C44.5509 20.067 44.6305 19.9337 44.7101 19.8004L44.9488 19.3604C45.2141 18.8804 45.5059 18.3604 45.6518 18.1737L45.7977 18.0004C45.9435 17.827 46.0629 17.667 46.2353 17.5337C46.4078 17.4004 46.5271 17.307 46.5802 17.2804C46.5934 17.2804 46.62 17.307 46.62 17.3604C46.62 17.427 46.6067 17.5337 46.5669 17.6404C46.5404 17.7204 46.5006 17.787 46.4608 17.827C46.3945 17.907 46.0364 18.3204 45.7579 18.6804C45.5722 18.9204 45.413 19.1204 45.3865 19.187C45.3467 19.2804 45.2141 19.507 45.0416 19.787C44.9223 20.0137 44.7631 20.267 44.6438 20.4804L44.4581 20.827C44.2061 21.267 43.9408 21.7337 43.8612 22.027C43.7286 22.5204 43.9408 22.4004 43.9408 22.4004L43.9673 22.387V22.3737C43.9673 22.3604 44.1795 21.5737 44.6172 21.187C44.7499 21.067 44.8825 20.9604 45.0019 20.867C45.2671 20.6537 45.4793 20.4804 45.6518 20.227C45.8507 19.9204 46.1292 19.4537 46.2884 19.187L46.5537 18.7337C46.6067 18.6404 46.6465 18.5604 46.6863 18.4937C46.7659 18.347 46.7924 18.267 46.8189 18.187V18.1604C46.8322 18.1204 46.8454 18.067 46.8587 18.0004L46.872 17.9204V17.9337C46.8852 17.987 46.8985 18.0404 46.925 18.107C46.9648 18.2004 47.0577 18.427 47.1505 18.667C47.2699 18.947 47.3892 19.2404 47.4423 19.347C47.4953 19.467 47.6678 19.747 47.8402 20.0004C47.9728 20.2004 48.1187 20.387 48.2115 20.4804C48.3309 20.587 48.4768 20.6804 48.6094 20.787C48.7553 20.8937 48.9012 21.0004 48.9941 21.0937C49.0869 21.187 49.193 21.3204 49.2991 21.467C49.4052 21.6004 49.4981 21.7604 49.5777 21.907C49.7235 22.1737 49.8562 22.8404 49.8562 22.8404L49.9755 22.827C49.9755 22.8137 49.8164 21.587 49.2593 20.747C48.8349 20.1204 48.0657 18.9204 47.7208 18.3737L47.5219 18.067C47.5086 18.0404 47.4555 17.987 47.4025 17.9204C47.3229 17.827 47.2168 17.6937 47.177 17.6404C47.1505 17.587 47.124 17.507 47.124 17.4404C47.124 17.4004 47.124 17.3604 47.1505 17.347C47.177 17.3204 47.2035 17.307 47.2433 17.307C47.2831 17.3204 47.3362 17.3337 47.4025 17.4004C47.4688 17.467 47.7606 17.8537 48.0524 18.267C48.3574 18.6937 48.6492 19.147 48.7155 19.2804C48.8084 19.4537 49.1665 20.067 49.4185 20.507C49.5379 20.707 49.644 20.8804 49.6705 20.947C49.7235 21.027 50.0684 21.4004 50.4265 21.7737C50.8244 22.187 51.2621 22.6004 51.3019 22.6004C51.3417 22.6004 51.3682 22.587 51.3682 22.547C51.3682 22.507 51.209 22.307 50.9835 22.0537C50.5591 21.547 49.9092 20.7604 49.8694 20.5604C49.8562 20.4537 49.8562 20.387 49.8562 20.3204C49.8694 20.187 49.8694 20.0804 49.7235 19.747C49.5909 19.4537 49.392 19.0537 49.193 18.707C49.0339 18.4537 48.888 18.227 48.7553 18.0804C48.6227 17.947 48.4768 17.827 48.3574 17.7337C48.1718 17.587 48.0259 17.467 47.9595 17.3337C47.9595 17.3204 47.9595 17.2937 47.9728 17.267C47.9728 17.2537 47.9861 17.227 47.9861 17.227C48.0789 17.1604 48.2646 17.2004 48.4635 17.2404C48.5829 17.267 48.7155 17.2937 48.8217 17.2937C48.9941 17.2937 49.2991 17.2804 49.6307 17.227C49.8694 17.2004 50.1082 17.147 50.3071 17.0804C50.5989 16.987 50.7846 16.8804 50.9438 16.7737C51.0499 16.707 51.156 16.6404 51.2886 16.587C51.5804 16.467 51.7528 16.4404 52.0711 16.387L52.1507 16.3737C52.4558 16.3337 52.6017 16.3337 52.7475 16.3337H52.8669C52.9598 16.3337 53.0393 16.347 53.1189 16.3604C53.1985 16.3604 53.2781 16.3737 53.3709 16.4004C53.5566 16.4404 53.8219 16.4937 53.8219 16.4937L54.1137 16.547L53.8617 16.387C53.8617 16.387 53.2648 16.0404 52.5221 16.0137C52.1905 16.0004 51.8191 16.027 51.4875 16.0537C51.0897 16.0804 50.7448 16.1337 50.5857 16.1737C50.4132 16.2137 49.7235 16.387 49.1134 16.5204C48.7155 16.6004 48.3574 16.6804 48.185 16.707C47.9993 16.7337 47.8534 16.787 47.7341 16.827C47.6147 16.867 47.5351 16.907 47.4953 16.867C47.429 16.827 47.4025 16.8004 47.3892 16.7604C47.3892 16.7337 47.4025 16.6937 47.4555 16.6537C47.5351 16.5737 47.7341 16.4404 47.9861 16.3337C48.1718 16.2537 48.384 16.187 48.6094 16.1737L49.5246 16.067C49.8297 16.0404 50.0817 16.0137 50.1214 16.0137C50.1745 16.0137 50.4132 15.9737 50.652 15.9204C50.8377 15.8804 51.0233 15.8404 51.1427 15.827C51.209 15.8137 51.2753 15.8004 51.3417 15.8004C51.5406 15.7737 51.7926 15.747 52.0977 15.6537C52.3099 15.587 52.4823 15.5337 52.6282 15.4937C52.7873 15.4537 52.9067 15.4137 53.0393 15.4004C53.172 15.387 53.2781 15.3604 53.3577 15.347C53.4638 15.3204 53.5566 15.307 53.6097 15.307H53.6362C53.7555 15.307 53.8351 15.2937 53.8617 15.267C53.928 15.2537 53.928 15.227 53.8749 15.2137C53.8484 15.187 53.7555 15.1737 53.6229 15.187H53.4903C53.2648 15.1737 52.7741 15.1737 52.1374 15.227C51.4743 15.2804 51.2223 15.2404 51.0233 15.187C50.9305 15.1737 50.8377 15.1604 50.7315 15.147C50.5459 15.147 50.148 15.187 49.7235 15.267C49.3522 15.347 48.9543 15.4404 48.689 15.5337C48.4238 15.6404 48.0657 15.867 47.7871 16.0537C47.628 16.147 47.5086 16.227 47.429 16.267C47.4821 16.187 47.5351 16.1337 47.5882 16.0804C47.6943 15.987 47.7739 15.907 47.8402 15.7204C47.8932 15.5604 47.9463 15.1737 47.9728 14.7604C47.9993 14.4404 47.9993 14.0937 47.9463 13.8404C47.8932 13.507 47.8137 13.2137 47.7473 12.987C47.6943 12.8137 47.6545 12.667 47.6412 12.587C47.6412 12.4804 47.6412 12.387 47.6412 12.2937C47.6412 12.2004 47.6412 12.0937 47.628 11.987C47.6147 11.8937 47.6014 11.8004 47.5882 11.707C47.5617 11.6137 47.5484 11.507 47.5351 11.3737L47.5219 11.3204C47.5219 11.2004 47.5086 11.0937 47.5086 10.987L47.5351 10.8804C47.5617 10.747 47.5749 10.6537 47.5219 10.6404C47.4821 10.627 47.4555 10.6537 47.4423 10.7204C47.4158 10.8137 47.4025 10.8937 47.4025 10.9737C47.3627 11.2004 47.3097 11.507 47.3097 11.6804C47.2964 11.8804 47.2831 12.1737 47.2831 12.547C47.2699 12.8404 47.2831 13.1604 47.2831 13.507C47.2964 14.0404 47.2433 14.707 47.2035 15.187C47.1903 15.427 47.1638 15.6137 47.1638 15.707C47.1638 15.8537 47.1505 16.0137 47.124 16.1604C47.1107 16.2804 47.0842 16.387 47.0444 16.4137C47.0179 16.4537 46.9781 16.4937 46.925 16.5204C46.9118 16.5337 46.8852 16.5337 46.872 16.5337C46.8587 16.5337 46.8454 16.5204 46.8189 16.507C46.8057 16.4937 46.7791 16.467 46.7659 16.427C46.6995 16.2937 46.6332 16.0404 46.5669 15.7604C46.5139 15.5204 46.4741 15.267 46.4608 15.0537C46.4608 14.8937 46.4475 14.707 46.4343 14.5337C46.3945 14.1604 46.368 13.7737 46.4078 13.6004C46.4343 13.4404 46.4741 13.2537 46.4873 13.0937C46.5139 12.9737 46.5271 12.8537 46.5271 12.7604C46.5271 12.707 46.5271 12.707 46.5271 12.6937C46.5537 12.6537 46.5802 12.6004 46.5404 12.147C46.4873 11.467 46.4475 10.8004 46.4475 10.8004H46.3945H46.3282C46.3282 10.8004 46.2221 11.8004 46.1558 12.1737ZM41.8585 10.827C41.7922 10.8804 41.832 11.1204 41.8585 11.2404C41.8718 11.3604 42.084 11.6937 42.084 11.6937C42.084 11.6937 42.4288 12.227 42.6941 12.5737C42.9593 12.907 43.5296 13.4004 43.7551 13.387C44.0204 13.387 44.0336 13.227 44.0469 13.147C44.0734 12.987 43.9541 12.7604 43.8745 12.587C43.7684 12.3737 43.2511 11.7337 43.145 11.6137C43.0787 11.5204 42.641 11.107 42.4023 10.9604C42.2033 10.827 41.9779 10.7337 41.8585 10.827Z" fill="#2D5E91"/>
<path d="M23.5553 4.44051C23.595 4.80051 23.6216 5.13384 23.6216 5.46717C23.6216 6.29384 23.4624 7.32051 23.1308 8.48051C22.7727 9.66717 22.2422 11.0272 21.5525 12.5738C21.5127 12.4805 21.4464 12.3205 21.3801 12.1205C19.2447 6.06717 17.6001 3.01384 16.4462 3.01384C15.982 3.01384 15.5974 3.12051 15.226 3.34717C14.8944 3.57384 14.5363 3.90717 14.2445 4.40051C15.0005 4.97384 15.8228 6.02717 16.7115 7.61384C17.5736 9.20051 18.6479 11.6538 20.0007 14.9605C18.7142 17.2138 17.6266 18.9605 16.7115 20.2272C15.8228 21.4805 15.1597 22.1072 14.8016 22.1072C14.3108 22.1072 12.8917 18.8005 10.5839 12.2138C9.82788 10.0938 9.20452 8.37384 8.78009 7.14717C8.09041 5.24051 7.53336 4.01384 7.09567 3.50717C6.71104 3.01384 6.18052 2.74717 5.55715 2.74717C5.15925 2.74717 4.80115 2.85384 4.42978 3.08051C4.07167 3.28051 3.71357 3.61384 3.31567 4.04051C4.33694 4.84051 5.88873 8.04051 7.98431 13.6672C9.27083 17.1472 10.3584 19.9205 11.2205 22.0138C11.7776 23.4272 12.3346 24.5605 12.7988 25.3205C13.2896 26.1072 13.6875 26.5072 13.9793 26.5072C14.47 26.5072 15.2923 25.7205 16.5523 24.1205C17.7593 22.5738 19.2845 20.2938 21.0883 17.3472C21.1281 17.3738 21.1546 17.4805 21.2209 17.6138C24.046 23.5338 25.7569 26.5072 26.3538 26.5072C26.8843 26.5072 28.6881 24.0272 31.7519 19.0272L31.8447 18.8938C33.5026 16.2538 34.7494 13.7072 35.638 11.2538C36.5266 8.81384 36.9908 6.69384 36.9908 4.90717C36.9908 4.14717 36.8582 3.57384 36.5929 3.25384C36.3277 2.92051 35.9033 2.74717 35.3064 2.74717C35.0411 2.74717 34.7494 2.78717 34.4576 2.85384C34.126 2.92051 33.7944 3.01384 33.4628 3.14717C33.5955 3.54717 33.6883 3.94717 33.7546 4.37384C33.8209 4.77384 33.8607 5.20051 33.8607 5.66717C33.8607 7.58717 33.4628 9.66717 32.7068 11.8538C31.911 14.0405 30.7041 16.5472 28.9931 19.4005C28.5555 20.1205 28.131 20.7205 27.7066 21.2138C27.2822 21.7072 26.9771 21.9738 26.8445 21.9738C26.5793 21.9738 26.1283 21.3738 25.3988 20.2272C24.6826 19.0672 23.7542 17.3472 22.6401 15.0938C23.9531 12.5472 24.9081 10.4272 25.5713 8.68051C26.2211 6.96051 26.5527 5.62717 26.5527 4.73384C26.5527 4.14717 26.4599 3.68051 26.2211 3.41384C25.9957 3.14717 25.5978 3.01384 25.107 3.01384C24.8418 3.01384 24.5765 3.05384 24.2847 3.12051C23.9797 3.14717 23.6614 3.25384 23.3298 3.38717C23.4226 3.74717 23.4889 4.08051 23.5553 4.44051ZM64.1007 5.13384C64.4721 5.10717 64.8302 5.06717 65.1883 5.06717C66.8329 5.06717 68.1195 5.46717 69.0479 6.22717C69.9365 6.98717 70.3875 8.08051 70.3875 9.46717C70.3875 11.2938 69.7641 12.7472 68.5439 13.7738C67.2971 14.8005 65.5862 15.3205 63.411 15.3205C63.3182 15.3205 63.2121 15.3205 63.0131 15.3205C62.854 15.2938 62.7611 15.2938 62.655 15.2938C62.655 13.7338 62.6948 12.1472 62.7214 10.4938C62.7611 8.84051 62.8275 7.12051 62.9203 5.33384C63.3182 5.24051 63.7161 5.17384 64.1007 5.13384ZM72.2045 13.4672C73.0931 12.2538 73.5176 10.7605 73.5176 9.04051C73.5176 7.05384 72.8279 5.49384 71.4485 4.34717C70.0691 3.18717 68.1592 2.61384 65.7454 2.61384C65.5597 2.61384 64.7374 2.65384 63.2121 2.74717C61.7001 2.85384 60.2544 2.92051 58.875 2.94717C59.2066 3.68051 59.4586 4.73384 59.5913 6.09384C59.7637 7.45384 59.83 9.57384 59.83 12.4138C59.83 14.6272 59.7902 16.9738 59.6974 19.4938C59.5913 22.0138 59.5249 23.4005 59.5249 23.7338C59.5249 24.6538 59.631 25.2805 59.8565 25.5872C60.0555 25.8805 60.4534 26.0405 61.0502 26.0405C61.4083 26.0405 61.8327 25.9738 62.2571 25.8405C62.6948 25.7205 63.1458 25.5205 63.6763 25.2138C63.3447 24.6272 63.1193 23.7338 62.9866 22.6405C62.8275 21.5072 62.7214 19.7605 62.655 17.3472C63.0131 17.3072 63.3182 17.2805 63.5835 17.2805C63.8089 17.2405 64.0344 17.2405 64.2068 17.2405C65.679 17.2405 67.7216 18.8005 70.2283 21.8805C71.0771 22.8672 71.7138 23.6272 72.2045 24.1872C72.8544 24.9472 73.4247 25.5205 73.8757 25.8405C74.3797 26.1738 74.8041 26.3472 75.202 26.3472C75.6529 26.3472 76.0906 26.1738 76.4089 25.8138C76.7803 25.4538 77.1119 24.8272 77.4037 24.0005C76.7803 23.8272 76.0243 23.3605 75.0959 22.6405C74.2073 21.8805 73.1595 20.8538 71.9393 19.5338C71.7801 19.3605 71.5414 19.0938 71.2098 18.7338C70.0691 17.4138 69.1142 16.6138 68.3184 16.3472C70.0294 15.6938 71.3159 14.7338 72.2045 13.4672ZM104.659 2.92051C104.354 2.78717 104.023 2.72051 103.731 2.72051C103.201 2.72051 102.643 3.01384 102.126 3.64051C101.556 4.24051 100.933 5.26717 100.243 6.72051C99.5797 8.04051 98.7308 9.82717 97.6167 12.0538C94.9774 17.4138 93.5317 20.1205 93.2399 20.1205C93.1073 20.1205 92.8022 19.7205 92.3512 18.9605C91.9136 18.1738 91.0912 16.5872 89.871 14.1738C89.3538 13.1072 88.6243 11.6805 87.7755 9.86717C85.4677 5.10717 83.823 2.72051 82.762 2.72051C82.4437 2.72051 82.1121 2.78717 81.807 2.92051C81.555 3.08051 81.2235 3.28051 80.8521 3.61384C81.0245 4.28051 81.1571 5.00051 81.25 5.73384C81.3561 6.45384 81.3826 7.21384 81.3826 8.08051C81.3826 11.6138 81.1571 14.8272 80.7327 17.7072C80.295 20.6138 79.6451 23.1072 78.8228 25.2138C79.3401 25.4805 79.8043 25.7205 80.2287 25.8405C80.6266 25.9738 80.9582 26.0405 81.25 26.0405C81.6214 26.0405 81.9131 25.9738 82.1121 25.8138C82.3376 25.6805 82.4702 25.4138 82.6028 25.0805C82.8018 24.4938 83.0007 22.2138 83.1599 18.2405C83.3323 14.2672 83.4915 10.9205 83.6904 8.21384C84.4464 9.60051 85.4279 11.4938 86.6216 13.8672C87.8418 16.2138 89.2875 19.1605 91.0249 22.7072C91.0912 22.8672 91.1974 23.0672 91.33 23.3338C91.887 24.5205 92.4043 25.1205 92.9348 25.1205C93.2001 25.1205 93.399 25.0138 93.598 24.8538C93.8235 24.6938 94.0224 24.3872 94.2214 24.0005C94.3805 23.6672 94.6856 23.0405 95.1365 22.0805C97.6167 17.0405 99.9776 12.3872 102.219 8.14717C102.511 11.6538 102.776 15.2272 102.949 18.8938C103.108 22.6005 103.24 24.5605 103.307 24.8272C103.399 25.2538 103.598 25.5472 103.864 25.7472C104.129 25.9472 104.461 26.0405 104.911 26.0405C105.349 26.0405 105.774 25.9738 106.238 25.8405C106.689 25.7205 107.153 25.4805 107.683 25.2138C106.821 23.1072 106.171 20.6138 105.734 17.7072C105.309 14.8272 105.084 11.6538 105.084 8.17384C105.084 7.32051 105.11 6.49384 105.217 5.76051C105.309 5.04051 105.442 4.30717 105.641 3.61384C105.283 3.28051 104.911 3.08051 104.659 2.92051ZM110.509 23.4938C110.416 23.8272 110.349 24.1205 110.349 24.3872C110.349 25.0138 110.575 25.4805 111.039 25.8138C111.503 26.1072 112.193 26.2805 113.108 26.2805C114.461 26.2805 115.708 26.0138 116.862 25.4538C118.055 24.9205 119.01 24.1605 119.793 23.1338C120.257 22.5338 120.615 21.9072 120.854 21.3205C121.079 20.6805 121.172 20.0272 121.172 19.4005C121.172 17.6805 119.726 15.6272 116.795 13.1472C116.57 12.9472 116.371 12.7738 116.238 12.6805C115.389 11.9472 114.793 11.3205 114.461 10.7872C114.169 10.2672 113.997 9.66717 113.997 9.04051C113.997 7.94717 114.395 7.12051 115.151 6.49384C115.946 5.86717 117.034 5.56051 118.374 5.56051C118.838 5.56051 119.262 5.60051 119.7 5.69384C120.151 5.80051 120.549 5.93384 120.973 6.09384C121.238 5.66717 121.437 5.29384 121.61 4.97384C121.742 4.64051 121.795 4.40051 121.795 4.21384C121.795 3.64051 121.61 3.21384 121.172 2.94717C120.748 2.65384 120.124 2.52051 119.302 2.52051C118.148 2.52051 117.034 2.74717 115.907 3.25384C114.819 3.74717 113.798 4.46717 112.843 5.40051C112.219 6.02717 111.729 6.72051 111.397 7.48051C111.039 8.28051 110.88 9.04051 110.88 9.82717C110.88 11.5205 112.259 13.5072 115.058 15.7205C115.124 15.7872 115.151 15.8272 115.19 15.8538H115.217C117.127 17.4405 118.082 18.8005 118.082 19.9872C118.082 20.9872 117.724 21.7472 116.994 22.3338C116.238 22.9072 115.257 23.2005 113.97 23.2005C113.44 23.2005 112.909 23.1338 112.458 23.0405C111.954 22.9072 111.503 22.7338 111.039 22.4672C110.814 22.8405 110.641 23.1605 110.509 23.4938Z" fill="#305E91"/>
<path d="M9.74841 30.2003C9.74841 30.2937 9.76167 30.3737 9.76167 30.4537C9.76167 30.667 9.72188 30.9203 9.64231 31.2137C9.54946 31.507 9.41683 31.8403 9.24441 32.2403C9.23115 32.2137 9.21788 32.1737 9.20462 32.1203C8.6741 30.6003 8.26294 29.8403 7.97115 29.8403C7.85178 29.8403 7.75894 29.867 7.6661 29.9337C7.58652 29.987 7.49367 30.067 7.4141 30.187C7.61304 30.3337 7.81199 30.6003 8.03746 31.0003C8.24967 31.387 8.51494 32.0003 8.85978 32.827C8.54146 33.387 8.26294 33.827 8.03746 34.147C7.81199 34.467 7.65283 34.6137 7.55999 34.6137C7.42736 34.6137 7.08252 33.787 6.49894 32.147C6.31325 31.6137 6.1541 31.187 6.04799 30.8803C5.87557 30.4003 5.74294 30.0937 5.63683 29.9737C5.53073 29.8403 5.3981 29.7737 5.23894 29.7737C5.1461 29.7737 5.05325 29.8003 4.96041 29.867C4.88083 29.907 4.78799 30.0003 4.68188 30.107C4.93388 30.2937 5.33178 31.107 5.84904 32.507C6.18062 33.3737 6.44588 34.067 6.6581 34.587C6.80399 34.947 6.93662 35.227 7.05599 35.4137C7.17536 35.6137 7.28146 35.7203 7.34778 35.7203C7.48041 35.7203 7.67936 35.5203 7.99767 35.1203C8.30273 34.7337 8.6741 34.1603 9.12504 33.427C9.13831 33.4403 9.15157 33.4537 9.16483 33.4937C9.86778 34.9737 10.2922 35.7203 10.4514 35.7203C10.5707 35.7203 11.0349 35.0937 11.7909 33.8537L11.8175 33.8137C12.2286 33.1603 12.5469 32.5203 12.7591 31.907C12.9846 31.2937 13.104 30.7603 13.104 30.3203C13.104 30.1203 13.0642 29.987 12.9979 29.907C12.9448 29.8137 12.8255 29.7737 12.6796 29.7737C12.6133 29.7737 12.5469 29.787 12.4674 29.8003C12.3878 29.8137 12.3082 29.8403 12.2286 29.8803C12.2551 29.9737 12.2817 30.0803 12.2949 30.187C12.3082 30.2803 12.3215 30.387 12.3215 30.507C12.3215 30.987 12.2286 31.507 12.0297 32.0537C11.8307 32.6003 11.5257 33.227 11.1013 33.9337C10.9951 34.1203 10.889 34.267 10.7829 34.4003C10.6768 34.5203 10.5973 34.587 10.5707 34.587C10.5044 34.587 10.385 34.4403 10.2126 34.147C10.0269 33.8537 9.80146 33.427 9.50967 32.867C9.84125 32.227 10.08 31.6937 10.2524 31.2537C10.4116 30.827 10.4911 30.4937 10.4911 30.2803C10.4911 30.1203 10.4646 30.0137 10.4116 29.947C10.3585 29.8803 10.2524 29.8403 10.133 29.8403C10.0667 29.8403 10.0004 29.8537 9.92083 29.867C9.85452 29.8803 9.77494 29.907 9.6821 29.9337C9.70862 30.027 9.73515 30.107 9.74841 30.2003ZM14.2314 34.707C13.9661 34.427 13.8202 34.067 13.8202 33.6403C13.8202 33.1603 13.9661 32.7737 14.2314 32.4803C14.5099 32.2003 14.8547 32.0403 15.3057 32.0403C15.7301 32.0403 16.0882 32.187 16.3535 32.467C16.632 32.747 16.7646 33.107 16.7646 33.5603C16.7646 34.0137 16.632 34.4003 16.3535 34.6803C16.0749 34.9737 15.7168 35.1203 15.2791 35.1203C14.8547 35.1203 14.5099 34.987 14.2314 34.707ZM16.2341 35.467C16.5391 35.307 16.8044 35.0803 17.0431 34.7737C17.1758 34.6137 17.2819 34.4137 17.3482 34.187C17.4278 33.9603 17.4543 33.7203 17.4543 33.4937C17.4543 32.9203 17.2554 32.4403 16.8707 32.0537C16.4861 31.667 15.9821 31.4803 15.3853 31.4803C14.7221 31.4803 14.1783 31.6803 13.7539 32.0803C13.3295 32.4803 13.1305 33.0003 13.1305 33.6403C13.1305 34.2403 13.3295 34.747 13.7141 35.1203C14.112 35.507 14.616 35.707 15.2394 35.707C15.6107 35.707 15.929 35.627 16.2341 35.467ZM19.0194 32.1737C19.0326 32.1203 19.0326 32.067 19.0326 32.0403C19.0326 31.8803 18.9928 31.7603 18.9133 31.6937C18.8337 31.6137 18.7276 31.587 18.5684 31.587C18.5154 31.587 18.4623 31.587 18.4093 31.6003C18.3562 31.6003 18.3031 31.627 18.2501 31.6403C18.3031 31.787 18.3562 31.9337 18.3827 32.1203C18.4093 32.307 18.4225 32.5603 18.4225 32.9203C18.4225 33.3337 18.4093 33.787 18.3827 34.267C18.3562 34.747 18.3429 35.027 18.3429 35.107C18.3429 35.307 18.3695 35.4403 18.4093 35.507C18.4623 35.5737 18.5551 35.6003 18.6878 35.6003C18.7806 35.6003 18.8867 35.587 18.9928 35.5603C19.0857 35.5337 19.1918 35.4803 19.2979 35.427C19.205 35.2537 19.1387 35.027 19.0989 34.7603C19.0591 34.4937 19.0326 34.1603 19.0326 33.7603C19.0326 33.627 19.0326 33.5203 19.0326 33.387C19.0459 33.267 19.0591 33.1337 19.0724 33.027C19.205 32.7737 19.3509 32.587 19.4968 32.4537C19.6427 32.3203 19.7754 32.267 19.908 32.267C20.0008 32.267 20.0804 32.2803 20.1467 32.347C20.1998 32.4003 20.2528 32.4937 20.2926 32.6137C20.4253 32.5203 20.5048 32.4403 20.5711 32.347C20.6242 32.267 20.664 32.1737 20.664 32.0803C20.664 31.9337 20.6109 31.827 20.5048 31.7203C20.3987 31.627 20.2661 31.587 20.1202 31.587C19.9478 31.587 19.7621 31.6537 19.5764 31.787C19.404 31.9337 19.205 32.1337 19.0061 32.427C19.0194 32.3203 19.0194 32.2403 19.0194 32.1737ZM22.1362 34.7737C22.0964 34.507 22.0831 34.067 22.0831 33.467C22.0831 32.9203 22.0964 32.267 22.1362 31.5337C22.1627 30.8003 22.176 30.347 22.176 30.1737C22.176 29.9737 22.1495 29.827 22.0964 29.7603C22.0434 29.6937 21.9638 29.667 21.8311 29.667C21.7383 29.667 21.6455 29.6803 21.5526 29.707C21.4465 29.7337 21.3404 29.7737 21.2343 29.8403C21.3139 30.0003 21.3802 30.227 21.42 30.5203C21.4465 30.827 21.4598 31.2537 21.4598 31.8403C21.4598 32.307 21.4465 32.8937 21.42 33.6137C21.3935 34.3337 21.3802 34.8137 21.3802 35.067C21.3802 35.2803 21.3935 35.4137 21.4465 35.4937C21.4996 35.5737 21.5791 35.6003 21.7118 35.6003C21.8046 35.6003 21.8975 35.587 21.9903 35.5603C22.0964 35.5337 22.1893 35.4803 22.3086 35.4137C22.2158 35.267 22.1627 35.0537 22.1362 34.7737ZM25.7968 34.9203C25.5846 35.027 25.3591 35.0937 25.1071 35.0937C24.7225 35.0937 24.4175 34.9603 24.192 34.7203C23.9798 34.4803 23.8604 34.147 23.8604 33.7203C23.8604 33.2137 23.993 32.8137 24.2716 32.5203C24.5368 32.227 24.9082 32.0803 25.3857 32.0803C25.5316 32.0803 25.6907 32.0937 25.8499 32.1337C26.009 32.1737 26.1815 32.2403 26.3804 32.3203C26.3804 32.4003 26.3937 32.4937 26.3937 32.6003C26.3937 32.6937 26.3937 32.8537 26.3937 33.0537C26.3937 33.0937 26.3937 33.267 26.3804 33.5603C26.3804 33.8537 26.3804 34.147 26.3804 34.4003C26.1815 34.6403 25.9958 34.8137 25.7968 34.9203ZM25.8764 31.6003C25.704 31.5603 25.5316 31.547 25.3857 31.547C24.7358 31.547 24.2185 31.747 23.7941 32.1603C23.3697 32.587 23.1707 33.107 23.1707 33.747C23.1707 34.307 23.3431 34.7603 23.6747 35.1203C24.0196 35.4803 24.4573 35.6537 24.9878 35.6537C25.253 35.6537 25.5183 35.6003 25.7438 35.4937C25.9693 35.387 26.1815 35.227 26.3937 34.987C26.3937 35.0137 26.3937 35.0403 26.3937 35.067C26.3804 35.0937 26.3804 35.1337 26.3804 35.187C26.3804 35.3337 26.4069 35.4403 26.4467 35.507C26.4865 35.5737 26.5794 35.6003 26.6855 35.6003C26.7518 35.6003 26.8446 35.587 26.9507 35.5603C27.0436 35.5337 27.1497 35.4803 27.269 35.4137C27.1762 35.267 27.1099 35.027 27.0701 34.7203C27.0303 34.4003 27.017 33.8937 27.017 33.2137C27.017 32.6403 27.0303 32.027 27.0701 31.3337C27.0966 30.6537 27.1231 30.2537 27.1231 30.147C27.1231 29.947 27.0966 29.827 27.0436 29.7603C26.9905 29.6937 26.8977 29.667 26.7783 29.667C26.6987 29.667 26.6191 29.6803 26.5263 29.707C26.4202 29.7337 26.3274 29.7737 26.2213 29.8403C26.2876 29.9737 26.3406 30.1737 26.3671 30.4137C26.4069 30.667 26.4202 30.987 26.4202 31.4003V31.7603C26.2345 31.6803 26.0488 31.627 25.8764 31.6003ZM31.9377 30.3737C32.0173 30.3603 32.1101 30.3603 32.2029 30.3603C32.6141 30.3603 32.9324 30.4537 33.1711 30.6537C33.3834 30.8403 33.5027 31.107 33.5027 31.4537C33.5027 31.907 33.3436 32.2803 33.0385 32.5337C32.7335 32.787 32.2958 32.9203 31.752 32.9203C31.7387 32.9203 31.7122 32.9203 31.6591 32.9203C31.6194 32.9203 31.5928 32.9203 31.5663 32.9203C31.5663 32.5203 31.5796 32.1337 31.5796 31.7203C31.5928 31.307 31.6061 30.867 31.6326 30.427C31.7387 30.4003 31.8316 30.387 31.9377 30.3737ZM33.9537 32.4537C34.1791 32.147 34.2853 31.787 34.2853 31.347C34.2853 30.8537 34.1128 30.467 33.768 30.1737C33.4231 29.8803 32.9457 29.747 32.3488 29.747C32.2958 29.747 32.0836 29.7603 31.7122 29.7737C31.3276 29.8003 30.9695 29.8137 30.6246 29.827C30.7042 30.0137 30.7705 30.2803 30.8103 30.6137C30.8501 30.947 30.8634 31.4803 30.8634 32.2003C30.8634 32.747 30.8501 33.3337 30.8236 33.9603C30.8103 34.587 30.7838 34.947 30.7838 35.027C30.7838 35.2537 30.8103 35.4137 30.8634 35.4803C30.9164 35.5603 31.0225 35.6003 31.1684 35.6003C31.2613 35.6003 31.3674 35.587 31.4735 35.547C31.5796 35.5203 31.6989 35.467 31.8183 35.4003C31.7387 35.2403 31.6857 35.027 31.6459 34.747C31.6061 34.467 31.5796 34.027 31.5663 33.427C31.6591 33.4137 31.7387 33.4137 31.805 33.4137C31.8581 33.4003 31.9111 33.4003 31.9509 33.4003C32.3223 33.4003 32.8396 33.787 33.4629 34.5603C33.6751 34.8137 33.8343 35.0003 33.9537 35.1337C34.1261 35.3337 34.2587 35.467 34.3781 35.547C34.4975 35.6403 34.6036 35.6803 34.7097 35.6803C34.8158 35.6803 34.9219 35.6403 35.0147 35.547C35.0943 35.4537 35.1871 35.2937 35.2535 35.0937C35.0943 35.0537 34.9086 34.9337 34.6831 34.747C34.4577 34.5603 34.1924 34.307 33.8874 33.9737C33.8476 33.9337 33.7945 33.867 33.7149 33.7737C33.4231 33.4403 33.1844 33.2403 32.9855 33.1737C33.4099 33.0137 33.7282 32.7737 33.9537 32.4537ZM36.4604 32.3203C36.6594 32.1337 36.9246 32.027 37.2297 32.027C37.5347 32.027 37.7602 32.107 37.9194 32.2403C38.0918 32.387 38.1846 32.587 38.1846 32.827C38.1846 32.987 38.1183 33.0937 38.0122 33.1603C37.9061 33.2137 37.6806 33.2537 37.3358 33.2537C37.097 33.2537 36.8583 33.2403 36.6461 33.227C36.4339 33.2137 36.2349 33.2003 36.0625 33.1603C36.1288 32.8003 36.2482 32.5203 36.4604 32.3203ZM37.9459 34.987C37.7735 35.0403 37.5878 35.067 37.3888 35.067C36.9644 35.067 36.6328 34.947 36.3808 34.707C36.1421 34.4537 36.0095 34.1203 36.0095 33.6937V33.6403C36.2217 33.6803 36.4339 33.6937 36.6461 33.707C36.8583 33.7203 37.0573 33.7337 37.2695 33.7337C37.8398 33.7337 38.2377 33.667 38.4764 33.5337C38.7151 33.4003 38.8345 33.1737 38.8345 32.867C38.8345 32.4803 38.6886 32.147 38.3968 31.907C38.1183 31.6537 37.7602 31.5203 37.3225 31.5203C36.7389 31.5203 36.2747 31.7203 35.9034 32.1203C35.5453 32.5203 35.3596 33.027 35.3596 33.6537C35.3596 34.267 35.5453 34.7603 35.9034 35.107C36.2615 35.467 36.7655 35.6403 37.4021 35.6403C37.7469 35.6403 38.0387 35.587 38.2509 35.4937C38.4631 35.4003 38.5693 35.2803 38.5693 35.1337C38.5693 35.0803 38.556 35.0137 38.5295 34.9603C38.5029 34.8937 38.4631 34.827 38.3968 34.747C38.2642 34.8537 38.105 34.9337 37.9459 34.987ZM40.4394 33.467C40.2669 33.307 40.1741 33.0937 40.1741 32.8537C40.1741 32.6003 40.2669 32.4003 40.4394 32.2537C40.6118 32.0937 40.8505 32.027 41.129 32.027C41.4076 32.027 41.633 32.0937 41.8055 32.2537C41.9779 32.4137 42.0575 32.6137 42.0575 32.867C42.0575 33.107 41.9779 33.307 41.8055 33.467C41.6198 33.627 41.3943 33.707 41.1158 33.707C40.8505 33.707 40.6118 33.627 40.4394 33.467ZM40.0813 34.4003C40.0282 34.4937 40.0017 34.587 40.0017 34.6803C40.0017 34.747 40.0149 34.8137 40.0415 34.8803C40.0813 34.9337 40.1343 35.0003 40.2006 35.0537C39.8956 35.187 39.6701 35.347 39.5109 35.547C39.3518 35.747 39.2855 35.987 39.2855 36.2537C39.2855 36.627 39.4446 36.9203 39.7497 37.147C40.0547 37.3737 40.4791 37.4803 41.0229 37.4803C41.5933 37.4803 42.0575 37.347 42.4288 37.0803C42.8002 36.8137 42.9726 36.4803 42.9726 36.067C42.9726 35.7737 42.893 35.5603 42.7074 35.4003C42.5349 35.2403 42.1901 35.1203 41.6994 35.0003C41.633 34.987 41.5269 34.9603 41.4076 34.9337C40.8903 34.827 40.6383 34.6803 40.6383 34.4803C40.6383 34.4403 40.6516 34.387 40.6781 34.3337C40.7046 34.2803 40.7444 34.2403 40.7975 34.187C40.8638 34.2003 40.9168 34.2003 40.9831 34.2003C41.0495 34.2137 41.1025 34.2137 41.1556 34.2137C41.58 34.2137 41.9514 34.0937 42.2299 33.827C42.5217 33.587 42.6676 33.267 42.6676 32.8937C42.6676 32.7603 42.6543 32.6403 42.6013 32.5203C42.5615 32.387 42.4951 32.2803 42.389 32.147C42.641 32.1203 42.8267 32.067 42.9196 31.987C43.0257 31.907 43.0787 31.8137 43.0787 31.667C43.0787 31.6003 43.0655 31.547 43.0389 31.4803C43.0124 31.4137 42.9726 31.3603 42.9196 31.307C42.8798 31.3737 42.7869 31.427 42.641 31.4937C42.4951 31.5603 42.2829 31.6403 41.9779 31.7203C41.8187 31.6403 41.6861 31.587 41.5402 31.547C41.4076 31.4937 41.2617 31.4803 41.129 31.4803C40.6648 31.4803 40.2802 31.6137 39.9884 31.8937C39.6966 32.147 39.5507 32.4937 39.5507 32.907C39.5507 33.1603 39.617 33.387 39.7497 33.587C39.869 33.7737 40.068 33.9337 40.3333 34.067C40.2271 34.187 40.1343 34.2937 40.0813 34.4003ZM40.6648 35.3603C41.7657 35.6137 42.2962 35.8937 42.2962 36.227C42.2962 36.4403 42.1901 36.6137 41.9779 36.747C41.7657 36.8803 41.4739 36.947 41.129 36.947C40.7577 36.947 40.4791 36.8803 40.2669 36.7203C40.0415 36.5737 39.9354 36.3737 39.9354 36.1203C39.9354 35.9603 39.9884 35.8137 40.0945 35.6803C40.2139 35.547 40.373 35.4403 40.5985 35.347L40.6648 35.3603ZM44.6305 34.827C44.5907 34.6003 44.5775 34.2937 44.5775 33.9337C44.5775 33.547 44.5907 33.147 44.6173 32.7203C44.6438 32.2803 44.6438 32.0537 44.6438 32.0137C44.6438 31.8403 44.6173 31.7337 44.5775 31.667C44.5377 31.6137 44.4448 31.587 44.3255 31.587C44.2194 31.587 44.1265 31.6003 44.0204 31.627C43.9143 31.6537 43.8082 31.707 43.7154 31.7603C43.7817 31.907 43.8347 32.0937 43.8613 32.307C43.901 32.507 43.9143 32.787 43.9143 33.1203C43.9143 33.4403 43.901 33.8003 43.8878 34.227C43.8613 34.667 43.8347 34.947 43.8347 35.067C43.8347 35.2803 43.8613 35.4137 43.9143 35.4937C43.9541 35.5737 44.0469 35.6003 44.1796 35.6003C44.2724 35.6003 44.3653 35.587 44.4714 35.5603C44.5775 35.5337 44.6836 35.4803 44.7897 35.4137C44.7234 35.267 44.6703 35.067 44.6305 34.827ZM44.6305 30.027C44.5377 29.9337 44.4316 29.8937 44.2857 29.8937C44.1265 29.8937 44.0071 29.947 43.901 30.0537C43.7949 30.1603 43.7286 30.2937 43.7286 30.4403C43.7286 30.5737 43.7817 30.6937 43.8613 30.7603C43.9408 30.8403 44.0602 30.8937 44.1928 30.8937C44.3653 30.8937 44.4846 30.8403 44.604 30.7337C44.7101 30.627 44.7631 30.507 44.7631 30.347C44.7631 30.2137 44.7234 30.107 44.6305 30.027ZM45.7711 35.187C45.7446 35.2403 45.7314 35.307 45.7314 35.3603C45.7314 35.467 45.7711 35.547 45.8507 35.6003C45.9303 35.6537 46.0497 35.6937 46.1956 35.6937C46.62 35.6937 46.9781 35.5737 47.2699 35.3337C47.5749 35.0803 47.7208 34.787 47.7208 34.467C47.7208 34.3203 47.681 34.1737 47.6015 34.0403C47.5219 33.907 47.4158 33.7603 47.2566 33.627C47.2036 33.587 47.1373 33.5203 47.0444 33.4403C46.673 33.1203 46.4874 32.867 46.4874 32.6803C46.4874 32.4937 46.5537 32.3603 46.6863 32.2537C46.8322 32.147 47.0046 32.0803 47.2301 32.0803C47.2831 32.0803 47.3495 32.0937 47.4158 32.107C47.4821 32.1337 47.5484 32.147 47.628 32.1737C47.681 32.0803 47.7208 32.0003 47.7474 31.9337C47.7739 31.867 47.7871 31.827 47.7871 31.7737C47.7871 31.6803 47.7474 31.6003 47.681 31.5603C47.6147 31.507 47.5219 31.4803 47.3893 31.4803C47.124 31.4803 46.872 31.5337 46.6598 31.6403C46.421 31.747 46.2221 31.907 46.0629 32.107C45.9701 32.2137 45.9038 32.3203 45.8507 32.4403C45.8109 32.5603 45.7977 32.6803 45.7977 32.8003C45.7977 33.0937 46.0231 33.427 46.4741 33.8003C46.5271 33.8403 46.5669 33.867 46.5935 33.8937C46.7659 34.0537 46.8853 34.1737 46.9516 34.267C47.0179 34.3737 47.0444 34.4803 47.0444 34.6003C47.0444 34.747 46.9914 34.8803 46.872 34.9603C46.7526 35.0537 46.5935 35.107 46.4078 35.107C46.3282 35.107 46.2354 35.0937 46.1425 35.067C46.0629 35.0537 45.9701 35.0003 45.8773 34.9603C45.8242 35.0537 45.7977 35.1203 45.7711 35.187ZM48.888 33.5603C48.8747 34.0537 48.8482 34.347 48.8482 34.467C48.8482 34.8537 48.9278 35.1603 49.0604 35.347C49.2063 35.5337 49.4185 35.6403 49.7103 35.6403C49.8827 35.6403 50.0154 35.6003 50.1215 35.507C50.2408 35.4137 50.2939 35.307 50.2939 35.187C50.2939 35.147 50.2806 35.1203 50.2806 35.067C50.2674 35.027 50.2541 34.987 50.2276 34.9337C50.1745 34.9603 50.1215 34.987 50.0817 35.0003C50.0419 35.027 49.9888 35.027 49.949 35.027C49.7899 35.027 49.6838 34.9603 49.6175 34.8137C49.5511 34.6537 49.5246 34.4003 49.5246 34.027C49.5246 33.8537 49.5246 33.627 49.5379 33.347C49.5379 33.0937 49.5644 32.7337 49.5909 32.3203C49.644 32.3203 49.7368 32.307 49.8297 32.307C49.9225 32.307 49.9756 32.307 50.0021 32.307C50.1082 32.307 50.201 32.307 50.2806 32.307C50.3602 32.3203 50.4265 32.3337 50.4928 32.347C50.5326 32.2803 50.5857 32.2137 50.5989 32.147C50.6255 32.0803 50.6387 32.0403 50.6387 32.0003C50.6387 31.9203 50.6255 31.867 50.5857 31.8403C50.5326 31.8003 50.4796 31.787 50.3867 31.787C50.2939 31.787 50.1745 31.8003 50.0551 31.8003C49.9358 31.8137 49.7899 31.827 49.6307 31.8537C49.644 31.787 49.644 31.667 49.6573 31.547C49.6838 31.187 49.697 30.9737 49.697 30.907C49.697 30.747 49.6705 30.6403 49.6175 30.5603C49.5644 30.4937 49.4848 30.467 49.3787 30.467C49.3124 30.467 49.2328 30.4803 49.1533 30.507C49.0604 30.5337 48.9543 30.587 48.8349 30.6403C48.888 30.7603 48.9278 30.907 48.9543 31.067C48.9808 31.2137 48.9941 31.4137 48.9941 31.6137C48.9941 31.6403 48.9941 31.6937 48.9941 31.747C48.9941 31.8003 48.9941 31.8403 48.9941 31.8803C48.9808 31.8803 48.9676 31.8803 48.9543 31.8803C48.7951 31.8937 48.689 31.8937 48.6095 31.8937C48.5829 31.8937 48.5431 31.8937 48.4901 31.8937C48.437 31.8937 48.4105 31.8937 48.384 31.8937C48.3575 31.947 48.3442 32.0003 48.3309 32.0403C48.3177 32.0937 48.3044 32.1337 48.3044 32.1737C48.3044 32.2403 48.3309 32.307 48.3707 32.3203C48.4105 32.3603 48.5034 32.3737 48.6095 32.3737C48.636 32.3737 48.6758 32.3737 48.7554 32.3737C48.8482 32.3737 48.9145 32.3603 48.9543 32.3603C48.941 32.6803 48.9145 33.0803 48.888 33.5603ZM52.2568 32.3203C52.4558 32.1337 52.7078 32.027 53.0261 32.027C53.3179 32.027 53.5566 32.107 53.7158 32.2403C53.8882 32.387 53.9678 32.587 53.9678 32.827C53.9678 32.987 53.9147 33.0937 53.7954 33.1603C53.6893 33.2137 53.4638 33.2537 53.1322 33.2537C52.8802 33.2537 52.6547 33.2403 52.4425 33.227C52.2303 33.2137 52.0314 33.2003 51.8589 33.1603C51.912 32.8003 52.0446 32.5203 52.2568 32.3203ZM53.729 34.987C53.5566 35.0403 53.3842 35.067 53.1853 35.067C52.7608 35.067 52.4293 34.947 52.1773 34.707C51.9253 34.4537 51.8059 34.1203 51.8059 33.6937V33.6403C52.0181 33.6803 52.217 33.6937 52.4293 33.707C52.6415 33.7203 52.8537 33.7337 53.0659 33.7337C53.6362 33.7337 54.0341 33.667 54.2728 33.5337C54.4983 33.4003 54.6177 33.1737 54.6177 32.867C54.6177 32.4803 54.485 32.147 54.1933 31.907C53.9147 31.6537 53.5566 31.5203 53.1057 31.5203C52.5354 31.5203 52.0579 31.7203 51.6998 32.1203C51.3284 32.5203 51.1427 33.027 51.1427 33.6537C51.1427 34.267 51.3284 34.7603 51.6865 35.107C52.0579 35.467 52.5486 35.6403 53.1985 35.6403C53.5434 35.6403 53.8351 35.587 54.0474 35.4937C54.2596 35.4003 54.3657 35.2803 54.3657 35.1337C54.3657 35.0803 54.3524 35.0137 54.3259 34.9603C54.2994 34.8937 54.2463 34.827 54.1933 34.747C54.0474 34.8537 53.9015 34.9337 53.729 34.987ZM56.1429 32.1737C56.1562 32.1203 56.1562 32.067 56.1562 32.0403C56.1562 31.8803 56.1031 31.7603 56.0368 31.6937C55.9573 31.6137 55.8511 31.587 55.692 31.587C55.6257 31.587 55.5859 31.587 55.5196 31.6003C55.4798 31.6003 55.4267 31.627 55.3737 31.6403C55.4267 31.787 55.4798 31.9337 55.5063 32.1203C55.5196 32.307 55.5461 32.5603 55.5461 32.9203C55.5461 33.3337 55.5196 33.787 55.5063 34.267C55.4798 34.747 55.4533 35.027 55.4533 35.107C55.4533 35.307 55.4798 35.4403 55.5328 35.507C55.5859 35.5737 55.6787 35.6003 55.8114 35.6003C55.9042 35.6003 55.997 35.587 56.1031 35.5603C56.2093 35.5337 56.3154 35.4803 56.4215 35.427C56.3286 35.2537 56.2623 35.027 56.2225 34.7603C56.1695 34.4937 56.1562 34.1603 56.1562 33.7603C56.1562 33.627 56.1562 33.5203 56.1562 33.387C56.1695 33.267 56.1827 33.1337 56.196 33.027C56.3286 32.7737 56.4745 32.587 56.6204 32.4537C56.7663 32.3203 56.8989 32.267 57.0316 32.267C57.1244 32.267 57.1907 32.2803 57.257 32.347C57.3234 32.4003 57.3764 32.4937 57.4162 32.6137C57.5356 32.5203 57.6284 32.4403 57.6947 32.347C57.7478 32.267 57.7743 32.1737 57.7743 32.0803C57.7743 31.9337 57.7345 31.827 57.6284 31.7203C57.5223 31.627 57.3897 31.587 57.2305 31.587C57.0581 31.587 56.8857 31.6537 56.7 31.787C56.5143 31.9337 56.3286 32.1337 56.1297 32.427C56.1297 32.3203 56.1429 32.2403 56.1429 32.1737ZM61.6737 34.707C61.4084 34.427 61.2625 34.067 61.2625 33.6403C61.2625 33.1603 61.4084 32.7737 61.6737 32.4803C61.9522 32.2003 62.3103 32.0403 62.748 32.0403C63.1724 32.0403 63.5305 32.187 63.809 32.467C64.0743 32.747 64.2202 33.107 64.2202 33.5603C64.2202 34.0137 64.0743 34.4003 63.7958 34.6803C63.5173 34.9737 63.1724 35.1203 62.7347 35.1203C62.3103 35.1203 61.9655 34.987 61.6737 34.707ZM63.6897 35.467C63.9815 35.307 64.26 35.0803 64.4987 34.7737C64.6181 34.6137 64.7242 34.4137 64.8038 34.187C64.8701 33.9603 64.9099 33.7203 64.9099 33.4937C64.9099 32.9203 64.7109 32.4403 64.3263 32.0537C63.9284 31.667 63.4377 31.4803 62.8276 31.4803C62.1644 31.4803 61.6206 31.6803 61.1962 32.0803C60.785 32.4803 60.5728 33.0003 60.5728 33.6403C60.5728 34.2403 60.7718 34.747 61.1564 35.1203C61.5543 35.507 62.0583 35.707 62.6817 35.707C63.053 35.707 63.3846 35.627 63.6897 35.467ZM66.0107 32.4403C66.024 32.9203 66.0373 33.2403 66.0373 33.4403C66.0373 33.9603 66.0107 34.3737 65.9709 34.6937C65.9311 35.0003 65.8781 35.2403 65.7985 35.4003C65.9179 35.467 66.024 35.5203 66.1168 35.547C66.2229 35.587 66.3158 35.6003 66.4086 35.6003C66.528 35.6003 66.6076 35.5603 66.6606 35.4803C66.7137 35.4137 66.7269 35.267 66.7269 35.0537C66.7269 35.0137 66.7269 34.6803 66.7137 34.067C66.6871 33.4403 66.6739 32.8537 66.6739 32.267C66.7004 32.267 66.7137 32.2537 66.7535 32.2537C66.7667 32.2537 66.8065 32.2537 66.8596 32.2537C67.0585 32.2537 67.2044 32.267 67.3105 32.267C67.4034 32.2803 67.4829 32.2937 67.5493 32.3203C67.589 32.227 67.6156 32.1603 67.6288 32.1203C67.6421 32.0803 67.6421 32.0403 67.6421 32.0137C67.6421 31.9203 67.6156 31.867 67.5758 31.827C67.536 31.787 67.4697 31.7603 67.3768 31.7603C67.2442 31.7603 67.1248 31.7603 67.0055 31.7603C66.8861 31.7737 66.7667 31.787 66.6871 31.787V31.6537C66.6871 31.1737 66.7269 30.827 66.833 30.6137C66.9259 30.4003 67.085 30.2937 67.2973 30.2937C67.3768 30.2937 67.4431 30.307 67.5095 30.347C67.589 30.387 67.6554 30.4403 67.7084 30.5203C67.8278 30.467 67.9074 30.4003 67.9737 30.3337C68.0267 30.2537 68.0665 30.187 68.0665 30.107C68.0665 29.9737 68.0135 29.8803 67.8941 29.8003C67.7747 29.7337 67.6288 29.6937 67.4431 29.6937C66.9922 29.6937 66.6208 29.867 66.3821 30.2137C66.1301 30.5737 66.0107 31.0803 66.0107 31.7337V31.827H65.6924C65.6791 31.827 65.6526 31.827 65.6128 31.827C65.573 31.827 65.5333 31.827 65.5067 31.827C65.4802 31.867 65.4669 31.907 65.4537 31.947C65.4404 31.987 65.4271 32.027 65.4271 32.067C65.4271 32.147 65.4537 32.2003 65.4935 32.2403C65.5333 32.2803 65.5863 32.307 65.6659 32.307C65.6924 32.307 65.7322 32.307 65.8118 32.2937C65.8914 32.2937 65.9577 32.2937 66.0107 32.2937C66.0107 32.3203 66.0107 32.3737 66.0107 32.4403ZM76.9396 29.8137C76.8733 29.787 76.7804 29.7737 76.7141 29.7737C76.5815 29.7737 76.4356 29.8403 76.3162 30.0003C76.1703 30.147 76.0111 30.4137 75.8387 30.7737C75.6796 31.107 75.4674 31.547 75.1888 32.107C74.5257 33.4403 74.1676 34.1203 74.088 34.1203C74.0615 34.1203 73.9819 34.027 73.8625 33.827C73.7564 33.627 73.5575 33.2403 73.2524 32.627C73.1198 32.3737 72.9341 32.0137 72.7219 31.5603C72.1516 30.3603 71.7404 29.7737 71.4751 29.7737C71.3956 29.7737 71.3027 29.787 71.2364 29.8137C71.1701 29.867 71.0905 29.907 70.9977 30.0003C71.0375 30.1603 71.064 30.347 71.0905 30.5203C71.117 30.707 71.1303 30.8937 71.1303 31.107C71.1303 32.0003 71.064 32.8003 70.9579 33.5203C70.8518 34.2403 70.6926 34.867 70.4804 35.4003C70.613 35.467 70.7324 35.5203 70.8385 35.547C70.9314 35.587 71.0242 35.6003 71.0905 35.6003C71.1834 35.6003 71.2629 35.587 71.3027 35.547C71.369 35.507 71.3956 35.4403 71.4354 35.3603C71.4751 35.2137 71.5282 34.6403 71.568 33.6537C71.6078 32.6537 71.6476 31.827 71.7006 31.147C71.8863 31.4937 72.1383 31.9603 72.4301 32.5603C72.7351 33.147 73.1065 33.8803 73.5309 34.7603C73.5575 34.8137 73.584 34.8537 73.6105 34.9203C73.7564 35.227 73.8758 35.3737 74.0084 35.3737C74.0747 35.3737 74.1278 35.347 74.1808 35.307C74.2339 35.267 74.2869 35.187 74.34 35.0937C74.3798 35.0003 74.4461 34.8537 74.5655 34.6137C75.1888 33.347 75.7724 32.187 76.3295 31.1337C76.409 32.0003 76.4754 32.8937 76.5151 33.8137C76.5549 34.747 76.5947 35.227 76.608 35.2937C76.6345 35.4003 76.6743 35.4803 76.7406 35.5337C76.8069 35.5737 76.8998 35.6003 77.0059 35.6003C77.112 35.6003 77.2181 35.587 77.3375 35.547C77.4568 35.5203 77.5629 35.467 77.6956 35.4003C77.4834 34.867 77.3242 34.2403 77.2181 33.5203C77.112 32.8003 77.0457 32.0003 77.0457 31.1337C77.0457 30.9203 77.0589 30.707 77.0855 30.5337C77.112 30.347 77.1385 30.1737 77.1916 30.0003C77.0987 29.907 77.0059 29.867 76.9396 29.8137ZM81.5154 34.8403C81.4756 34.6137 81.449 34.3203 81.449 33.947C81.449 33.8137 81.449 33.627 81.4623 33.4137C81.4623 33.2003 81.4756 33.0403 81.4756 32.947C81.4756 32.4803 81.3562 32.1203 81.1042 31.8803C80.8655 31.6403 80.4941 31.5203 80.0034 31.5203C79.6055 31.5203 79.2739 31.587 79.0351 31.7203C78.7831 31.8403 78.6638 32.0003 78.6638 32.2003C78.6638 32.2937 78.6903 32.3737 78.7434 32.4403C78.7831 32.4937 78.8627 32.5337 78.9556 32.5603C79.0617 32.387 79.181 32.267 79.3402 32.1737C79.4994 32.0937 79.7116 32.0537 79.9503 32.0537C80.2554 32.0537 80.4676 32.1337 80.6267 32.2803C80.7859 32.4137 80.8655 32.627 80.8655 32.9203C80.8655 32.947 80.8655 32.9737 80.8655 33.0003C80.8655 33.027 80.8655 33.0537 80.8522 33.0803C80.7328 33.067 80.6267 33.0537 80.5206 33.0403C80.4013 33.0403 80.3084 33.0403 80.2156 33.0403C79.6452 33.0403 79.1943 33.1603 78.8495 33.4137C78.5179 33.667 78.3455 34.0003 78.3455 34.4137C78.3455 34.787 78.4648 35.0937 78.7168 35.307C78.9556 35.5337 79.2739 35.6537 79.685 35.6537C79.884 35.6537 80.0829 35.6137 80.2819 35.5337C80.4808 35.4403 80.6798 35.307 80.8787 35.1337C80.8787 35.307 80.9185 35.4137 80.9716 35.4803C81.0246 35.5603 81.1042 35.6003 81.2236 35.6003C81.2899 35.6003 81.3562 35.5737 81.449 35.547C81.5286 35.507 81.6215 35.4537 81.7276 35.387C81.6347 35.2403 81.5551 35.067 81.5154 34.8403ZM80.8389 33.827C80.8389 33.9337 80.8389 34.0003 80.8389 34.0537C80.8389 34.1337 80.8389 34.2137 80.8389 34.307C80.8389 34.387 80.8522 34.4937 80.8522 34.627C80.7063 34.7737 80.5604 34.8937 80.388 34.9603C80.2156 35.0403 80.0431 35.067 79.8442 35.067C79.5789 35.067 79.38 35.0003 79.2341 34.8803C79.0882 34.7603 79.0086 34.587 79.0086 34.3603C79.0086 34.0937 79.1147 33.8803 79.3269 33.747C79.5391 33.6003 79.8442 33.5337 80.2686 33.5337C80.3349 33.5337 80.4145 33.547 80.5206 33.547C80.6135 33.5603 80.7328 33.5737 80.8389 33.587C80.8522 33.6403 80.8522 33.7203 80.8389 33.827ZM83.3589 32.1737C83.3722 32.1203 83.3722 32.067 83.3722 32.0403C83.3722 31.8803 83.3324 31.7603 83.2528 31.6937C83.1865 31.6137 83.0671 31.587 82.908 31.587C82.8549 31.587 82.8019 31.587 82.7488 31.6003C82.6958 31.6003 82.6427 31.627 82.5897 31.6403C82.6427 31.787 82.6958 31.9337 82.7223 32.1203C82.7488 32.307 82.7621 32.5603 82.7621 32.9203C82.7621 33.3337 82.7488 33.787 82.7223 34.267C82.6958 34.747 82.6825 35.027 82.6825 35.107C82.6825 35.307 82.709 35.4403 82.7488 35.507C82.8019 35.5737 82.8947 35.6003 83.0274 35.6003C83.1202 35.6003 83.2263 35.587 83.3324 35.5603C83.4253 35.5337 83.5314 35.4803 83.6375 35.427C83.5446 35.2537 83.4783 35.027 83.4385 34.7603C83.3987 34.4937 83.3722 34.1603 83.3722 33.7603C83.3722 33.627 83.3722 33.5203 83.3722 33.387C83.3855 33.267 83.3987 33.1337 83.412 33.027C83.5446 32.7737 83.6905 32.587 83.8364 32.4537C83.9823 32.3203 84.1149 32.267 84.2476 32.267C84.3404 32.267 84.42 32.2803 84.4863 32.347C84.5394 32.4003 84.5924 32.4937 84.6322 32.6137C84.7648 32.5203 84.8444 32.4403 84.9107 32.347C84.9638 32.267 85.0036 32.1737 85.0036 32.0803C85.0036 31.9337 84.9505 31.827 84.8444 31.7203C84.7383 31.627 84.6057 31.587 84.4598 31.587C84.2874 31.587 84.1017 31.6537 83.916 31.787C83.7436 31.9337 83.5446 32.1337 83.3457 32.427C83.3589 32.3203 83.3589 32.2403 83.3589 32.1737ZM86.4758 34.827C86.436 34.6003 86.4227 34.2937 86.4227 33.9337C86.4227 33.547 86.436 33.147 86.4625 32.7203C86.489 32.2803 86.5023 32.0537 86.5023 32.0137C86.5023 31.8403 86.4758 31.7337 86.436 31.667C86.3829 31.6137 86.3034 31.587 86.1707 31.587C86.0646 31.587 85.9718 31.6003 85.8657 31.627C85.7596 31.6537 85.6535 31.707 85.5606 31.7603C85.6269 31.907 85.68 32.0937 85.7198 32.307C85.7463 32.507 85.7596 32.787 85.7596 33.1203C85.7596 33.4403 85.7596 33.8003 85.733 34.227C85.7065 34.667 85.6933 34.947 85.6933 35.067C85.6933 35.2803 85.7198 35.4137 85.7596 35.4937C85.7994 35.5737 85.8922 35.6003 86.0248 35.6003C86.1177 35.6003 86.2105 35.587 86.3299 35.5603C86.4227 35.5337 86.5288 35.4803 86.6482 35.4137C86.5686 35.267 86.5156 35.067 86.4758 34.827ZM86.4758 30.027C86.3829 29.9337 86.2768 29.8937 86.1309 29.8937C85.9718 29.8937 85.8524 29.947 85.7463 30.0537C85.6402 30.1603 85.5871 30.2937 85.5871 30.4403C85.5871 30.5737 85.6269 30.6937 85.7065 30.7603C85.7861 30.8403 85.9055 30.8937 86.0381 30.8937C86.2105 30.8937 86.3431 30.8403 86.4492 30.7337C86.5554 30.627 86.6084 30.507 86.6084 30.347C86.6084 30.2137 86.5686 30.107 86.4758 30.027ZM89.0488 32.2003C89.2478 32.1337 89.4202 32.0937 89.5926 32.0937C89.9242 32.0937 90.1497 32.2003 90.2956 32.427C90.4415 32.6403 90.521 33.0003 90.521 33.4803C90.521 33.747 90.5078 34.0537 90.4945 34.4137C90.4813 34.787 90.468 35.0137 90.468 35.1337C90.468 35.307 90.4945 35.4403 90.5476 35.507C90.6006 35.5737 90.6802 35.6003 90.8128 35.6003C90.8791 35.6003 90.9587 35.587 91.0516 35.5603C91.1577 35.5337 91.2638 35.4803 91.3831 35.4137C91.3036 35.307 91.2638 35.147 91.224 34.947C91.1842 34.747 91.1709 34.5203 91.1709 34.2403C91.1709 34.1337 91.1709 34.0003 91.1842 33.8537C91.1842 33.6937 91.1842 33.6003 91.1842 33.5603C91.1842 33.1737 91.1577 32.8803 91.1311 32.6937C91.0914 32.4937 91.0516 32.3337 90.9587 32.2003C90.8526 31.987 90.6935 31.827 90.4813 31.707C90.269 31.587 90.0303 31.5337 89.7518 31.5337C89.5263 31.5337 89.3141 31.5737 89.0886 31.6537C88.8631 31.7337 88.6509 31.8403 88.452 31.987C88.4387 31.8403 88.3857 31.7337 88.3061 31.6537C88.2265 31.5737 88.1071 31.5337 87.9745 31.5337C87.9082 31.5337 87.8551 31.547 87.8021 31.547C87.7358 31.5603 87.6695 31.5737 87.6164 31.587C87.6827 31.7603 87.7358 31.947 87.7623 32.147C87.7888 32.3603 87.8021 32.6537 87.8021 33.027C87.8021 33.4403 87.7888 33.8537 87.7623 34.307C87.7358 34.7603 87.7225 35.0003 87.7225 35.0537C87.7225 35.2803 87.749 35.427 87.7888 35.4937C87.8419 35.5737 87.9215 35.6003 88.0408 35.6003C88.1337 35.6003 88.2265 35.587 88.3194 35.5603C88.4122 35.5337 88.5183 35.4803 88.6244 35.427C88.5581 35.2803 88.5183 35.0937 88.4785 34.8803C88.452 34.667 88.4255 34.3737 88.4255 34.027C88.4255 33.987 88.4387 33.8003 88.452 33.4537C88.452 33.107 88.4652 32.8003 88.4652 32.4937C88.6642 32.3737 88.8631 32.267 89.0488 32.2003ZM93.1737 32.3203C93.3859 32.1337 93.6379 32.027 93.9562 32.027C94.248 32.027 94.4735 32.107 94.6459 32.2403C94.8183 32.387 94.8979 32.587 94.8979 32.827C94.8979 32.987 94.8448 33.0937 94.7255 33.1603C94.6194 33.2137 94.3939 33.2537 94.0623 33.2537C93.8103 33.2537 93.5848 33.2403 93.3726 33.227C93.1471 33.2137 92.9615 33.2003 92.789 33.1603C92.8421 32.8003 92.9747 32.5203 93.1737 32.3203ZM94.6591 34.987C94.4867 35.0403 94.301 35.067 94.1021 35.067C93.6909 35.067 93.3461 34.947 93.1074 34.707C92.8554 34.4537 92.736 34.1203 92.736 33.6937V33.6403C92.9349 33.6803 93.1471 33.6937 93.3594 33.707C93.5716 33.7203 93.7838 33.7337 93.996 33.7337C94.5663 33.7337 94.9509 33.667 95.1897 33.5337C95.4284 33.4003 95.5478 33.1737 95.5478 32.867C95.5478 32.4803 95.4019 32.147 95.1234 31.907C94.8448 31.6537 94.4735 31.5203 94.0358 31.5203C93.4522 31.5203 92.988 31.7203 92.6299 32.1203C92.2585 32.5203 92.0728 33.027 92.0728 33.6537C92.0728 34.267 92.2585 34.7603 92.6166 35.107C92.9747 35.467 93.4787 35.6403 94.1286 35.6403C94.4735 35.6403 94.752 35.587 94.9775 35.4937C95.1897 35.4003 95.2958 35.2803 95.2958 35.1337C95.2958 35.0803 95.2692 35.0137 95.256 34.9603C95.2295 34.8937 95.1764 34.827 95.1234 34.747C94.9775 34.8537 94.8183 34.9337 94.6591 34.987ZM98.6381 34.9603C98.6116 35.0537 98.5983 35.1203 98.5983 35.187C98.5983 35.347 98.6514 35.467 98.7707 35.547C98.8768 35.6137 99.0492 35.6537 99.288 35.6537C99.6196 35.6537 99.9379 35.6003 100.216 35.4537C100.521 35.3203 100.76 35.1337 100.959 34.8803C101.065 34.7203 101.158 34.5737 101.211 34.4137C101.277 34.267 101.304 34.0937 101.304 33.9337C101.304 33.507 100.933 33.0003 100.203 32.3737C100.15 32.3203 100.097 32.2803 100.071 32.267C99.845 32.0803 99.6991 31.9203 99.6196 31.787C99.54 31.6537 99.5002 31.507 99.5002 31.347C99.5002 31.0803 99.6063 30.867 99.792 30.707C99.9909 30.5603 100.256 30.4803 100.601 30.4803C100.72 30.4803 100.827 30.4937 100.933 30.5203C101.039 30.5337 101.145 30.5737 101.251 30.6137C101.317 30.507 101.37 30.4137 101.41 30.3337C101.437 30.2537 101.45 30.187 101.45 30.147C101.45 30.0003 101.41 29.8937 101.304 29.827C101.198 29.7603 101.039 29.7203 100.827 29.7203C100.548 29.7203 100.256 29.7737 99.9777 29.907C99.7124 30.027 99.4604 30.2137 99.2217 30.4403C99.0625 30.6003 98.9431 30.7737 98.8503 30.9603C98.7707 31.1603 98.7177 31.347 98.7177 31.547C98.7177 31.9737 99.0625 32.467 99.7655 33.027C99.7787 33.0403 99.792 33.0403 99.8053 33.0537C100.283 33.4537 100.521 33.787 100.521 34.0937C100.521 34.3337 100.429 34.5203 100.256 34.6803C100.071 34.8137 99.8185 34.8937 99.5002 34.8937C99.3676 34.8937 99.2349 34.8803 99.1156 34.8537C98.9962 34.8137 98.8768 34.7737 98.7707 34.707C98.7044 34.8003 98.6646 34.8803 98.6381 34.9603ZM103.081 33.467C103.081 33.107 103.081 32.8003 103.081 32.5603C103.28 32.427 103.466 32.3203 103.665 32.2537C103.864 32.187 104.036 32.147 104.209 32.147C104.62 32.147 104.951 32.2803 105.203 32.547C105.442 32.8137 105.575 33.1603 105.575 33.6003C105.575 34.027 105.442 34.3603 105.164 34.6403C104.898 34.907 104.553 35.0537 104.129 35.0537C103.943 35.0537 103.771 35.0137 103.585 34.9603C103.413 34.8937 103.227 34.8137 103.055 34.707C103.068 34.2403 103.068 33.827 103.081 33.467ZM103.559 35.5203C103.731 35.5737 103.943 35.6003 104.156 35.6003C104.726 35.6003 105.23 35.4003 105.641 34.987C106.052 34.5737 106.251 34.067 106.251 33.4937C106.251 32.9603 106.065 32.4937 105.707 32.1337C105.336 31.7737 104.885 31.587 104.341 31.587C104.129 31.587 103.904 31.627 103.678 31.707C103.453 31.787 103.24 31.8937 103.041 32.0403C103.041 31.8937 103.002 31.787 102.922 31.707C102.843 31.627 102.736 31.587 102.604 31.587C102.537 31.587 102.471 31.6003 102.418 31.6003C102.365 31.6137 102.299 31.627 102.246 31.6537C102.325 31.827 102.365 32.0403 102.405 32.307C102.431 32.5737 102.445 33.0003 102.445 33.587C102.445 34.1337 102.431 34.787 102.405 35.5337C102.365 36.267 102.339 36.7337 102.339 36.9203C102.339 37.0937 102.365 37.227 102.418 37.2937C102.471 37.3603 102.551 37.387 102.67 37.387C102.75 37.387 102.843 37.3737 102.922 37.347C103.015 37.3203 103.121 37.267 103.24 37.2137C103.161 37.067 103.121 36.8803 103.081 36.6403C103.055 36.4137 103.041 36.1203 103.041 35.747C103.041 35.627 103.041 35.5337 103.041 35.467C103.041 35.4003 103.041 35.3337 103.041 35.267C103.214 35.387 103.386 35.467 103.559 35.5203ZM107.962 32.3203C108.174 32.1337 108.426 32.027 108.731 32.027C109.036 32.027 109.262 32.107 109.434 32.2403C109.607 32.387 109.686 32.587 109.686 32.827C109.686 32.987 109.62 33.0937 109.514 33.1603C109.408 33.2137 109.182 33.2537 108.851 33.2537C108.599 33.2537 108.373 33.2403 108.148 33.227C107.936 33.2137 107.737 33.2003 107.564 33.1603C107.631 32.8003 107.763 32.5203 107.962 32.3203ZM109.448 34.987C109.275 35.0403 109.089 35.067 108.891 35.067C108.479 35.067 108.135 34.947 107.896 34.707C107.644 34.4537 107.524 34.1203 107.524 33.6937V33.6403C107.723 33.6803 107.936 33.6937 108.148 33.707C108.36 33.7203 108.559 33.7337 108.784 33.7337C109.341 33.7337 109.739 33.667 109.978 33.5337C110.217 33.4003 110.336 33.1737 110.336 32.867C110.336 32.4803 110.19 32.147 109.912 31.907C109.62 31.6537 109.262 31.5203 108.824 31.5203C108.241 31.5203 107.776 31.7203 107.418 32.1203C107.047 32.5203 106.861 33.027 106.861 33.6537C106.861 34.267 107.047 34.7603 107.405 35.107C107.763 35.467 108.267 35.6403 108.904 35.6403C109.262 35.6403 109.54 35.587 109.753 35.4937C109.978 35.4003 110.084 35.2803 110.084 35.1337C110.084 35.0803 110.058 35.0137 110.031 34.9603C110.018 34.8937 109.965 34.827 109.912 34.747C109.766 34.8537 109.607 34.9337 109.448 34.987ZM113.824 32.1337C113.864 32.067 113.877 32.0003 113.877 31.9203C113.877 31.787 113.824 31.6803 113.705 31.6137C113.586 31.547 113.413 31.5203 113.188 31.5203C112.551 31.5203 112.007 31.7337 111.57 32.187C111.119 32.627 110.907 33.187 110.907 33.8403C110.907 34.387 111.079 34.827 111.45 35.1603C111.808 35.507 112.286 35.667 112.883 35.667C113.214 35.667 113.48 35.6137 113.679 35.5203C113.877 35.4137 113.97 35.2937 113.97 35.1203C113.97 35.0537 113.957 35.0003 113.931 34.9337C113.904 34.8803 113.877 34.8137 113.824 34.747C113.705 34.8403 113.559 34.9203 113.413 34.9603C113.267 35.0137 113.108 35.0403 112.936 35.0403C112.525 35.0403 112.206 34.9203 111.968 34.6803C111.729 34.4403 111.596 34.1203 111.596 33.7203C111.596 33.267 111.729 32.8937 112.007 32.6003C112.273 32.307 112.617 32.1603 113.029 32.1603C113.148 32.1603 113.254 32.1737 113.347 32.2003C113.453 32.2403 113.546 32.2803 113.652 32.347C113.745 32.267 113.785 32.2003 113.824 32.1337ZM115.496 34.827C115.456 34.6003 115.429 34.2937 115.429 33.9337C115.429 33.547 115.456 33.147 115.482 32.7203C115.496 32.2803 115.509 32.0537 115.509 32.0137C115.509 31.8403 115.482 31.7337 115.443 31.667C115.389 31.6137 115.31 31.587 115.191 31.587C115.084 31.587 114.978 31.6003 114.872 31.627C114.779 31.6537 114.673 31.707 114.567 31.7603C114.647 31.907 114.7 32.0937 114.726 32.307C114.766 32.507 114.779 32.787 114.779 33.1203C114.779 33.4403 114.766 33.8003 114.74 34.227C114.713 34.667 114.7 34.947 114.7 35.067C114.7 35.2803 114.726 35.4137 114.779 35.4937C114.819 35.5737 114.912 35.6003 115.045 35.6003C115.124 35.6003 115.23 35.587 115.336 35.5603C115.429 35.5337 115.549 35.4803 115.655 35.4137C115.588 35.267 115.522 35.067 115.496 34.827ZM115.496 30.027C115.403 29.9337 115.283 29.8937 115.151 29.8937C114.992 29.8937 114.872 29.947 114.766 30.0537C114.66 30.1603 114.594 30.2937 114.594 30.4403C114.594 30.5737 114.633 30.6937 114.713 30.7603C114.806 30.8403 114.912 30.8937 115.058 30.8937C115.217 30.8937 115.35 30.8403 115.456 30.7337C115.562 30.627 115.628 30.507 115.628 30.347C115.628 30.2137 115.588 30.107 115.496 30.027ZM117.565 32.3203C117.777 32.1337 118.029 32.027 118.334 32.027C118.639 32.027 118.864 32.107 119.037 32.2403C119.209 32.387 119.289 32.587 119.289 32.827C119.289 32.987 119.223 33.0937 119.116 33.1603C119.01 33.2137 118.785 33.2537 118.453 33.2537C118.201 33.2537 117.976 33.2403 117.75 33.227C117.538 33.2137 117.339 33.2003 117.167 33.1603C117.233 32.8003 117.366 32.5203 117.565 32.3203ZM119.05 34.987C118.878 35.0403 118.692 35.067 118.493 35.067C118.082 35.067 117.737 34.947 117.498 34.707C117.246 34.4537 117.127 34.1203 117.127 33.6937V33.6403C117.326 33.6803 117.538 33.6937 117.75 33.707C117.963 33.7203 118.161 33.7337 118.387 33.7337C118.944 33.7337 119.342 33.667 119.581 33.5337C119.819 33.4003 119.939 33.1737 119.939 32.867C119.939 32.4803 119.793 32.147 119.514 31.907C119.223 31.6537 118.864 31.5203 118.427 31.5203C117.843 31.5203 117.379 31.7203 117.021 32.1203C116.649 32.5203 116.464 33.027 116.464 33.6537C116.464 34.267 116.649 34.7603 117.008 35.107C117.366 35.467 117.87 35.6403 118.506 35.6403C118.864 35.6403 119.143 35.587 119.355 35.4937C119.581 35.4003 119.687 35.2803 119.687 35.1337C119.687 35.0803 119.66 35.0137 119.634 34.9603C119.62 34.8937 119.567 34.827 119.514 34.747C119.368 34.8537 119.209 34.9337 119.05 34.987ZM120.668 35.187C120.642 35.2403 120.642 35.307 120.642 35.3603C120.642 35.467 120.681 35.547 120.748 35.6003C120.827 35.6537 120.947 35.6937 121.093 35.6937C121.517 35.6937 121.875 35.5737 122.18 35.3337C122.472 35.0803 122.618 34.787 122.618 34.467C122.618 34.3203 122.578 34.1737 122.499 34.0403C122.432 33.907 122.313 33.7603 122.154 33.627C122.114 33.587 122.034 33.5203 121.941 33.4403C121.57 33.1203 121.384 32.867 121.384 32.6803C121.384 32.4937 121.451 32.3603 121.583 32.2537C121.729 32.147 121.915 32.0803 122.127 32.0803C122.193 32.0803 122.26 32.0937 122.326 32.107C122.392 32.1337 122.459 32.147 122.525 32.1737C122.591 32.0803 122.631 32.0003 122.658 31.9337C122.671 31.867 122.684 31.827 122.684 31.7737C122.684 31.6803 122.658 31.6003 122.591 31.5603C122.525 31.507 122.419 31.4803 122.286 31.4803C122.021 31.4803 121.782 31.5337 121.557 31.6403C121.331 31.747 121.132 31.907 120.96 32.107C120.88 32.2137 120.814 32.3203 120.761 32.4403C120.721 32.5603 120.695 32.6803 120.695 32.8003C120.695 33.0937 120.92 33.427 121.371 33.8003C121.424 33.8403 121.464 33.867 121.491 33.8937C121.676 34.0537 121.782 34.1737 121.849 34.267C121.915 34.3737 121.955 34.4803 121.955 34.6003C121.955 34.747 121.888 34.8803 121.769 34.9603C121.65 35.0537 121.504 35.107 121.305 35.107C121.225 35.107 121.132 35.0937 121.053 35.067C120.96 35.0537 120.867 35.0003 120.774 34.9603C120.721 35.0537 120.695 35.1203 120.668 35.187Z" fill="#2D5E91"/>
</svg>
