<svg width="256" height="256" viewBox="0 0 256 256" fill="none" xmlns="http://www.w3.org/2000/svg">
<path fill-rule="evenodd" clip-rule="evenodd" d="M149.285 85.0235C150.957 90.3698 148.418 95.8651 143.597 97.2838L91.5998 112.579C86.7833 113.993 81.5245 110.801 79.8518 105.441C78.1835 100.073 80.7363 94.5909 85.5529 93.1809L137.55 77.8731C142.379 76.45 147.616 79.6552 149.285 85.0235Z" fill="#FDC90D"/>
<path fill-rule="evenodd" clip-rule="evenodd" d="M149.285 85.0235C150.957 90.3698 148.418 95.8651 143.597 97.2838L91.5998 112.579C86.7833 113.993 81.5245 110.801 79.8518 105.441C78.1835 100.073 80.7363 94.5909 85.5529 93.1809L137.55 77.8731C142.379 76.45 147.616 79.6552 149.285 85.0235Z" fill="url(#paint0_linear_1_129)"/>
<path fill-rule="evenodd" clip-rule="evenodd" d="M79.0068 101.522L75.0134 102.678C73.0561 103.256 72.0315 105.476 72.7102 107.652C73.3889 109.816 75.5126 111.099 77.4436 110.521L81.4501 109.343C80.5919 108.301 79.9 107.026 79.4622 105.638C79.0199 104.25 78.8623 102.862 78.9849 101.522" fill="#FDC90D"/>
<path fill-rule="evenodd" clip-rule="evenodd" d="M79.0068 101.522L75.0134 102.678C73.0561 103.256 72.0315 105.476 72.7102 107.652C73.3889 109.816 75.5126 111.099 77.4436 110.521L81.4501 109.343C80.5919 108.301 79.9 107.026 79.4622 105.638C79.0199 104.25 78.8623 102.862 78.9849 101.522" fill="url(#paint1_linear_1_129)"/>
<path fill-rule="evenodd" clip-rule="evenodd" d="M82.3915 128.845C82.4528 128.696 82.5973 128.613 82.7505 128.64C82.9169 128.696 82.9914 128.867 82.9651 128.985L82.0937 131.726C82.0237 131.875 81.8573 131.959 81.7128 131.902C81.5464 131.867 81.4501 131.705 81.5114 131.551L82.3915 128.845Z" fill="#FDC90D"/>
<path fill-rule="evenodd" clip-rule="evenodd" d="M82.3915 128.845C82.4528 128.696 82.5973 128.613 82.7505 128.64C82.9169 128.696 82.9914 128.867 82.9651 128.985L82.0937 131.726C82.0237 131.875 81.8573 131.959 81.7128 131.902C81.5464 131.867 81.4501 131.705 81.5114 131.551L82.3915 128.845Z" fill="url(#paint2_linear_1_129)"/>
<path fill-rule="evenodd" clip-rule="evenodd" d="M80.4736 128.092C80.5349 127.93 80.7145 127.864 80.8677 127.93C80.9859 127.991 81.0604 128.162 81.021 128.28L79.83 130.895C79.7599 131.043 79.5541 131.127 79.4359 131.035C79.2826 130.986 79.2213 130.803 79.2914 130.684L80.4605 128.083" fill="#FDC90D"/>
<path fill-rule="evenodd" clip-rule="evenodd" d="M80.4736 128.092C80.5349 127.93 80.7145 127.864 80.8677 127.93C80.9859 127.991 81.0604 128.162 81.021 128.28L79.83 130.895C79.7599 131.043 79.5541 131.127 79.4359 131.035C79.2826 130.986 79.2213 130.803 79.2914 130.684L80.4605 128.083" fill="url(#paint3_linear_1_129)"/>
<path fill-rule="evenodd" clip-rule="evenodd" d="M78.6127 127.133C78.6959 126.993 78.8535 126.936 79.0199 127.019C79.1731 127.098 79.2082 127.273 79.1381 127.413L77.7063 129.887C77.61 130.027 77.4085 130.071 77.2903 129.979C77.1327 129.909 77.0889 129.747 77.1721 129.612L78.6258 127.146" fill="#FDC90D"/>
<path fill-rule="evenodd" clip-rule="evenodd" d="M78.6127 127.133C78.6959 126.993 78.8535 126.936 79.0199 127.019C79.1731 127.098 79.2082 127.273 79.1381 127.413L77.7063 129.887C77.61 130.027 77.4085 130.071 77.2903 129.979C77.1327 129.909 77.0889 129.747 77.1721 129.612L78.6258 127.146" fill="url(#paint4_linear_1_129)"/>
<path fill-rule="evenodd" clip-rule="evenodd" d="M76.8962 126.021C76.9794 125.885 77.1589 125.85 77.3034 125.942C77.4217 126.034 77.4217 126.209 77.3735 126.35L75.6571 128.661C75.5345 128.775 75.3593 128.81 75.2367 128.718C75.1185 128.626 75.0834 128.451 75.1798 128.337L76.8962 126.021Z" fill="#FDC90D"/>
<path fill-rule="evenodd" clip-rule="evenodd" d="M76.8962 126.021C76.9794 125.885 77.1589 125.85 77.3034 125.942C77.4217 126.034 77.4217 126.209 77.3735 126.35L75.6571 128.661C75.5345 128.775 75.3593 128.81 75.2367 128.718C75.1185 128.626 75.0834 128.451 75.1798 128.337L76.8962 126.021Z" fill="url(#paint5_linear_1_129)"/>
<path fill-rule="evenodd" clip-rule="evenodd" d="M75.3111 124.764C75.3943 124.624 75.5738 124.611 75.6921 124.716C75.8103 124.83 75.8103 125.018 75.7402 125.132L73.8311 127.282C73.7129 127.4 73.4984 127.4 73.402 127.282C73.2838 127.203 73.2575 127.019 73.3758 126.914L75.2849 124.773" fill="#FDC90D"/>
<path fill-rule="evenodd" clip-rule="evenodd" d="M75.3111 124.764C75.3943 124.624 75.5738 124.611 75.6921 124.716C75.8103 124.83 75.8103 125.018 75.7402 125.132L73.8311 127.282C73.7129 127.4 73.4984 127.4 73.402 127.282C73.2838 127.203 73.2575 127.019 73.3758 126.914L75.2849 124.773" fill="url(#paint6_linear_1_129)"/>
<path fill-rule="evenodd" clip-rule="evenodd" d="M73.8312 123.363C73.9494 123.245 74.1289 123.245 74.2603 123.363C74.3785 123.477 74.3566 123.665 74.2603 123.779L72.1366 125.745C72.0184 125.863 71.817 125.837 71.7206 125.745C71.6024 125.631 71.6024 125.434 71.7206 125.342L73.818 123.372" fill="#FDC90D"/>
<path fill-rule="evenodd" clip-rule="evenodd" d="M73.8312 123.363C73.9494 123.245 74.1289 123.245 74.2603 123.363C74.3785 123.477 74.3566 123.665 74.2603 123.779L72.1366 125.745C72.0184 125.863 71.817 125.837 71.7206 125.745C71.6024 125.631 71.6024 125.434 71.7206 125.342L73.818 123.372" fill="url(#paint7_linear_1_129)"/>
<path fill-rule="evenodd" clip-rule="evenodd" d="M72.5657 121.892C72.6839 121.778 72.8547 121.8 72.9729 121.94C73.0561 122.054 73.0342 122.242 72.9247 122.343L70.6347 124.116C70.4902 124.23 70.3107 124.182 70.2187 124.068C70.0961 123.954 70.1355 123.766 70.2669 123.674L72.5569 121.905" fill="#FDC90D"/>
<path fill-rule="evenodd" clip-rule="evenodd" d="M72.5657 121.892C72.6839 121.778 72.8547 121.8 72.9729 121.94C73.0561 122.054 73.0342 122.242 72.9247 122.343L70.6347 124.116C70.4902 124.23 70.3107 124.182 70.2187 124.068C70.0961 123.954 70.1355 123.766 70.2669 123.674L72.5569 121.905" fill="url(#paint8_linear_1_129)"/>
<path fill-rule="evenodd" clip-rule="evenodd" d="M71.4361 120.355C71.5762 120.263 71.7688 120.298 71.852 120.425C71.9352 120.561 71.8871 120.736 71.7688 120.828L69.3343 122.391C69.1548 122.47 68.9752 122.426 68.9052 122.299C68.787 122.159 68.8439 121.997 68.9752 121.918L71.4229 120.342" fill="#FDC90D"/>
<path fill-rule="evenodd" clip-rule="evenodd" d="M71.4361 120.355C71.5762 120.263 71.7688 120.298 71.852 120.425C71.9352 120.561 71.8871 120.736 71.7688 120.828L69.3343 122.391C69.1548 122.47 68.9752 122.426 68.9052 122.299C68.787 122.159 68.8439 121.997 68.9752 121.918L71.4229 120.342" fill="url(#paint9_linear_1_129)"/>
<path fill-rule="evenodd" clip-rule="evenodd" d="M70.5384 118.783C70.6566 118.687 70.8362 118.748 70.9325 118.897C70.9938 119.011 70.9325 119.199 70.788 119.278L68.2265 120.622C68.0688 120.692 67.8674 120.622 67.8192 120.504C67.7623 120.355 67.8192 120.18 67.9375 120.11L70.5647 118.792" fill="#FDC90D"/>
<path fill-rule="evenodd" clip-rule="evenodd" d="M70.5384 118.783C70.6566 118.687 70.8362 118.748 70.9325 118.897C70.9938 119.011 70.9325 119.199 70.788 119.278L68.2265 120.622C68.0688 120.692 67.8674 120.622 67.8192 120.504C67.7623 120.355 67.8192 120.18 67.9375 120.11L70.5647 118.792" fill="url(#paint10_linear_1_129)"/>
<path fill-rule="evenodd" clip-rule="evenodd" d="M69.7984 117.185C69.956 117.128 70.1355 117.185 70.1925 117.347C70.2669 117.496 70.1706 117.658 70.0392 117.715L67.32 118.783C67.1537 118.849 66.9873 118.783 66.926 118.621C66.8647 118.481 66.9479 118.319 67.0924 118.271L69.8115 117.198" fill="#FDC90D"/>
<path fill-rule="evenodd" clip-rule="evenodd" d="M69.7984 117.185C69.956 117.128 70.1355 117.185 70.1925 117.347C70.2669 117.496 70.1706 117.658 70.0392 117.715L67.32 118.783C67.1537 118.849 66.9873 118.783 66.926 118.621C66.8647 118.481 66.9479 118.319 67.0924 118.271L69.8115 117.198" fill="url(#paint11_linear_1_129)"/>
<path fill-rule="evenodd" clip-rule="evenodd" d="M69.2992 115.648C69.4656 115.587 69.6101 115.679 69.6583 115.841C69.7065 115.994 69.597 116.143 69.4525 116.191L66.6151 116.953C66.4619 116.988 66.2955 116.896 66.2561 116.747C66.221 116.594 66.3174 116.445 66.4619 116.397L69.2773 115.648" fill="#FDC90D"/>
<path fill-rule="evenodd" clip-rule="evenodd" d="M69.2992 115.648C69.4656 115.587 69.6101 115.679 69.6583 115.841C69.7065 115.994 69.597 116.143 69.4525 116.191L66.6151 116.953C66.4619 116.988 66.2955 116.896 66.2561 116.747C66.221 116.594 66.3174 116.445 66.4619 116.397L69.2773 115.648" fill="url(#paint12_linear_1_129)"/>
<path fill-rule="evenodd" clip-rule="evenodd" d="M69.0146 114.155C69.1679 114.12 69.3211 114.234 69.3474 114.387C69.3693 114.549 69.2642 114.685 69.1066 114.707L66.2123 115.127C66.0327 115.127 65.8751 115.009 65.8532 114.873C65.8269 114.72 65.9714 114.571 66.1159 114.558L69.0146 114.155Z" fill="#FDC90D"/>
<path fill-rule="evenodd" clip-rule="evenodd" d="M69.0146 114.155C69.1679 114.12 69.3211 114.234 69.3474 114.387C69.3693 114.549 69.2642 114.685 69.1066 114.707L66.2123 115.127C66.0327 115.127 65.8751 115.009 65.8532 114.873C65.8269 114.72 65.9714 114.571 66.1159 114.558L69.0146 114.155Z" fill="url(#paint13_linear_1_129)"/>
<path fill-rule="evenodd" clip-rule="evenodd" d="M68.9533 112.754C69.1197 112.754 69.2511 112.868 69.2642 113.03C69.2642 113.205 69.1066 113.319 68.9533 113.332H66.0196C65.8532 113.332 65.735 113.183 65.735 113.03C65.735 112.868 65.8751 112.754 66.0327 112.754H68.9752" fill="#FDC90D"/>
<path fill-rule="evenodd" clip-rule="evenodd" d="M68.9533 112.754C69.1197 112.754 69.2511 112.868 69.2642 113.03C69.2642 113.205 69.1066 113.319 68.9533 113.332H66.0196C65.8532 113.332 65.735 113.183 65.735 113.03C65.735 112.868 65.8751 112.754 66.0327 112.754H68.9752" fill="url(#paint14_linear_1_129)"/>
<path fill-rule="evenodd" clip-rule="evenodd" d="M69.1066 111.479C69.2861 111.506 69.3824 111.655 69.3474 111.83C69.3474 111.965 69.1547 112.057 69.0146 112.036L66.1509 111.549C65.9714 111.514 65.8663 111.352 65.9101 111.204C65.9101 111.055 66.0809 110.971 66.2341 110.971L69.1066 111.479Z" fill="#FDC90D"/>
<path fill-rule="evenodd" clip-rule="evenodd" d="M69.1066 111.479C69.2861 111.506 69.3824 111.655 69.3474 111.83C69.3474 111.965 69.1547 112.057 69.0146 112.036L66.1509 111.549C65.9714 111.514 65.8663 111.352 65.9101 111.204C65.9101 111.055 66.0809 110.971 66.2341 110.971L69.1066 111.479Z" fill="url(#paint15_linear_1_129)"/>
<path fill-rule="evenodd" clip-rule="evenodd" d="M69.4919 110.358C69.6583 110.415 69.7283 110.591 69.667 110.731C69.597 110.88 69.4306 110.936 69.2861 110.893L66.545 109.851C66.4005 109.794 66.3305 109.618 66.3874 109.505C66.4487 109.343 66.6282 109.273 66.7727 109.329L69.4919 110.358Z" fill="#FDC90D"/>
<path fill-rule="evenodd" clip-rule="evenodd" d="M69.4919 110.358C69.6583 110.415 69.7283 110.591 69.667 110.731C69.597 110.88 69.4306 110.936 69.2861 110.893L66.545 109.851C66.4005 109.794 66.3305 109.618 66.3874 109.505C66.4487 109.343 66.6282 109.273 66.7727 109.329L69.4919 110.358Z" fill="url(#paint16_linear_1_129)"/>
<path fill-rule="evenodd" clip-rule="evenodd" d="M70.0961 109.408C70.2406 109.492 70.2538 109.675 70.1706 109.802C70.0523 109.921 69.8816 109.956 69.7415 109.886L67.32 108.266C67.2018 108.182 67.1537 107.998 67.2456 107.871C67.3332 107.758 67.5215 107.723 67.6528 107.801L70.0961 109.408Z" fill="#FDC90D"/>
<path fill-rule="evenodd" clip-rule="evenodd" d="M70.0961 109.408C70.2406 109.492 70.2538 109.675 70.1706 109.802C70.0523 109.921 69.8816 109.956 69.7415 109.886L67.32 108.266C67.2018 108.182 67.1537 107.998 67.2456 107.871C67.3332 107.758 67.5215 107.723 67.6528 107.801L70.0961 109.408Z" fill="url(#paint17_linear_1_129)"/>
<path fill-rule="evenodd" clip-rule="evenodd" d="M70.8975 108.598C71.0157 108.717 70.9938 108.892 70.8712 109.006C70.753 109.119 70.5735 109.097 70.4552 108.984L68.4629 106.899C68.3447 106.786 68.3797 106.61 68.4892 106.505C68.6074 106.391 68.787 106.413 68.8833 106.505L70.9106 108.611" fill="#FDC90D"/>
<path fill-rule="evenodd" clip-rule="evenodd" d="M70.8975 108.598C71.0157 108.717 70.9938 108.892 70.8712 109.006C70.753 109.119 70.5735 109.097 70.4552 108.984L68.4629 106.899C68.3447 106.786 68.3797 106.61 68.4892 106.505C68.6074 106.391 68.787 106.413 68.8833 106.505L70.9106 108.611" fill="url(#paint18_linear_1_129)"/>
<path fill-rule="evenodd" clip-rule="evenodd" d="M71.9352 107.928C72.0315 108.082 71.9702 108.244 71.8389 108.336C71.6593 108.406 71.4798 108.357 71.4229 108.217L69.9429 105.757C69.8728 105.603 69.9429 105.441 70.0611 105.349C70.2056 105.279 70.3851 105.349 70.4552 105.468L71.9352 107.928Z" fill="#FDC90D"/>
<path fill-rule="evenodd" clip-rule="evenodd" d="M71.9352 107.928C72.0315 108.082 71.9702 108.244 71.8389 108.336C71.6593 108.406 71.4798 108.357 71.4229 108.217L69.9429 105.757C69.8728 105.603 69.9429 105.441 70.0611 105.349C70.2056 105.279 70.3851 105.349 70.4552 105.468L71.9352 107.928Z" fill="url(#paint19_linear_1_129)"/>
<path fill-rule="evenodd" clip-rule="evenodd" d="M73.2839 107.42C73.3408 107.569 73.2357 107.723 73.0912 107.766C72.9379 107.836 72.7803 107.744 72.7321 107.604L71.7776 104.898C71.7426 104.736 71.8258 104.587 71.9834 104.526C72.1366 104.482 72.303 104.574 72.3424 104.714L73.2926 107.42" fill="#FDC90D"/>
<path fill-rule="evenodd" clip-rule="evenodd" d="M73.2839 107.42C73.3408 107.569 73.2357 107.723 73.0912 107.766C72.9379 107.836 72.7803 107.744 72.7321 107.604L71.7776 104.898C71.7426 104.736 71.8258 104.587 71.9834 104.526C72.1366 104.482 72.303 104.574 72.3424 104.714L73.2926 107.42" fill="url(#paint20_linear_1_129)"/>
<path fill-rule="evenodd" clip-rule="evenodd" d="M92.6026 147.726C92.4844 147.866 92.3049 147.875 92.1735 147.761C92.0772 147.647 92.0903 147.472 92.1735 147.367L94.2008 145.287C94.319 145.191 94.5336 145.191 94.608 145.309C94.7482 145.401 94.7482 145.598 94.608 145.703L92.6026 147.726Z" fill="#FDC90D"/>
<path fill-rule="evenodd" clip-rule="evenodd" d="M92.6026 147.726C92.4844 147.866 92.3049 147.875 92.1735 147.761C92.0772 147.647 92.0903 147.472 92.1735 147.367L94.2008 145.287C94.319 145.191 94.5336 145.191 94.608 145.309C94.7482 145.401 94.7482 145.598 94.608 145.703L92.6026 147.726Z" fill="url(#paint21_linear_1_129)"/>
<path fill-rule="evenodd" clip-rule="evenodd" d="M93.9862 149.263C93.868 149.381 93.6754 149.359 93.5571 149.232C93.4739 149.114 93.5221 148.943 93.6184 148.838L95.8822 147.056C96.0267 146.938 96.2413 146.986 96.2982 147.1C96.4164 147.218 96.3945 147.402 96.2632 147.494L93.9994 149.263" fill="#FDC90D"/>
<path fill-rule="evenodd" clip-rule="evenodd" d="M93.9862 149.263C93.868 149.381 93.6754 149.359 93.5571 149.232C93.4739 149.114 93.5221 148.943 93.6184 148.838L95.8822 147.056C96.0267 146.938 96.2413 146.986 96.2982 147.1C96.4164 147.218 96.3945 147.402 96.2632 147.494L93.9994 149.263" fill="url(#paint22_linear_1_129)"/>
<path fill-rule="evenodd" clip-rule="evenodd" d="M94.9539 150.699C94.8313 150.791 94.6518 150.756 94.5467 150.621C94.4767 150.48 94.5467 150.305 94.6649 150.226L97.1696 148.768C97.3272 148.685 97.5286 148.746 97.5636 148.882C97.6819 149.022 97.6249 149.184 97.4804 149.276L94.9539 150.699Z" fill="#FDC90D"/>
<path fill-rule="evenodd" clip-rule="evenodd" d="M94.9539 150.699C94.8313 150.791 94.6518 150.756 94.5467 150.621C94.4767 150.48 94.5467 150.305 94.6649 150.226L97.1696 148.768C97.3272 148.685 97.5286 148.746 97.5636 148.882C97.6819 149.022 97.6249 149.184 97.4804 149.276L94.9539 150.699Z" fill="url(#paint23_linear_1_129)"/>
<path fill-rule="evenodd" clip-rule="evenodd" d="M95.6195 152.122C95.475 152.179 95.2998 152.122 95.2385 151.96C95.2035 151.82 95.2867 151.649 95.4049 151.593L98.1241 150.529C98.2905 150.467 98.4832 150.55 98.505 150.686C98.5882 150.839 98.505 151.001 98.3518 151.058L95.6458 152.1" fill="#FDC90D"/>
<path fill-rule="evenodd" clip-rule="evenodd" d="M95.6195 152.122C95.475 152.179 95.2998 152.122 95.2385 151.96C95.2035 151.82 95.2867 151.649 95.4049 151.593L98.1241 150.529C98.2905 150.467 98.4832 150.55 98.505 150.686C98.5882 150.839 98.505 151.001 98.3518 151.058L95.6458 152.1" fill="url(#paint24_linear_1_129)"/>
<path fill-rule="evenodd" clip-rule="evenodd" d="M96.0135 153.467C95.8603 153.502 95.7158 153.419 95.6545 153.257C95.6195 153.108 95.7377 152.968 95.869 152.911L98.7327 152.271C98.8991 152.249 99.0655 152.355 99.0918 152.503C99.1399 152.665 99.0305 152.806 98.8509 152.854L96.0135 153.467Z" fill="#FDC90D"/>
<path fill-rule="evenodd" clip-rule="evenodd" d="M96.0135 153.467C95.8603 153.502 95.7158 153.419 95.6545 153.257C95.6195 153.108 95.7377 152.968 95.869 152.911L98.7327 152.271C98.8991 152.249 99.0655 152.355 99.0918 152.503C99.1399 152.665 99.0305 152.806 98.8509 152.854L96.0135 153.467Z" fill="url(#paint25_linear_1_129)"/>
<path fill-rule="evenodd" clip-rule="evenodd" d="M96.1581 154.763C95.9873 154.785 95.8603 154.666 95.834 154.504C95.834 154.342 95.9785 154.215 96.1187 154.207L99.0524 154.031C99.2231 154.031 99.3633 154.145 99.3545 154.307C99.3895 154.461 99.2582 154.574 99.0918 154.588L96.1668 154.75" fill="#FDC90D"/>
<path fill-rule="evenodd" clip-rule="evenodd" d="M96.1581 154.763C95.9873 154.785 95.8603 154.666 95.834 154.504C95.834 154.342 95.9785 154.215 96.1187 154.207L99.0524 154.031C99.2231 154.031 99.3633 154.145 99.3545 154.307C99.3895 154.461 99.2582 154.574 99.0918 154.588L96.1668 154.75" fill="url(#paint26_linear_1_129)"/>
<path fill-rule="evenodd" clip-rule="evenodd" d="M96.0617 155.989C95.9172 155.989 95.799 155.849 95.8209 155.673C95.8209 155.533 95.9873 155.441 96.1317 155.441L99.0523 155.73C99.2319 155.73 99.3545 155.906 99.315 156.046C99.315 156.195 99.1618 156.313 99.0085 156.278L96.0836 155.976" fill="#FDC90D"/>
<path fill-rule="evenodd" clip-rule="evenodd" d="M96.0617 155.989C95.9172 155.989 95.799 155.849 95.8209 155.673C95.8209 155.533 95.9873 155.441 96.1317 155.441L99.0523 155.73C99.2319 155.73 99.3545 155.906 99.315 156.046C99.315 156.195 99.1618 156.313 99.0085 156.278L96.0836 155.976" fill="url(#paint27_linear_1_129)"/>
<path fill-rule="evenodd" clip-rule="evenodd" d="M95.8209 157.153C95.6326 157.11 95.5582 156.961 95.5845 156.808C95.6326 156.646 95.8209 156.575 95.9435 156.602L98.7809 157.351C98.9341 157.399 99.0436 157.561 98.9692 157.701C98.9473 157.863 98.7809 157.929 98.6145 157.907L95.8121 157.153" fill="#FDC90D"/>
<path fill-rule="evenodd" clip-rule="evenodd" d="M95.8209 157.153C95.6326 157.11 95.5582 156.961 95.5845 156.808C95.6326 156.646 95.8209 156.575 95.9435 156.602L98.7809 157.351C98.9341 157.399 99.0436 157.561 98.9692 157.701C98.9473 157.863 98.7809 157.929 98.6145 157.907L95.8121 157.153" fill="url(#paint28_linear_1_129)"/>
<path fill-rule="evenodd" clip-rule="evenodd" d="M95.3436 158.218C95.2254 158.174 95.1422 157.99 95.2254 157.85C95.2736 157.71 95.4662 157.666 95.5845 157.71L98.2686 158.866C98.4218 158.949 98.4831 159.133 98.4087 159.26C98.3518 159.413 98.1723 159.457 98.0146 159.4L95.3568 158.209" fill="#FDC90D"/>
<path fill-rule="evenodd" clip-rule="evenodd" d="M95.3436 158.218C95.2254 158.174 95.1422 157.99 95.2254 157.85C95.2736 157.71 95.4662 157.666 95.5845 157.71L98.2686 158.866C98.4218 158.949 98.4831 159.133 98.4087 159.26C98.3518 159.413 98.1723 159.457 98.0146 159.4L95.3568 158.209" fill="url(#paint29_linear_1_129)"/>
<path fill-rule="evenodd" clip-rule="evenodd" d="M94.7481 159.203C94.608 159.124 94.5686 158.949 94.6518 158.809C94.7481 158.673 94.9407 158.66 95.0721 158.73L97.5154 160.289C97.6599 160.407 97.6949 160.578 97.5986 160.696C97.5023 160.836 97.314 160.867 97.1958 160.775L94.7393 159.216" fill="#FDC90D"/>
<path fill-rule="evenodd" clip-rule="evenodd" d="M94.7481 159.203C94.608 159.124 94.5686 158.949 94.6518 158.809C94.7481 158.673 94.9407 158.66 95.0721 158.73L97.5154 160.289C97.6599 160.407 97.6949 160.578 97.5986 160.696C97.5023 160.836 97.314 160.867 97.1958 160.775L94.7393 159.216" fill="url(#paint30_linear_1_129)"/>
<path fill-rule="evenodd" clip-rule="evenodd" d="M94.0081 160.07C93.868 159.956 93.868 159.794 93.9731 159.667C94.0913 159.549 94.2709 159.549 94.3891 159.667L96.574 161.541C96.6923 161.655 96.7185 161.852 96.5959 161.944C96.4777 162.062 96.2982 162.062 96.1931 161.944L94.0213 160.061" fill="#FDC90D"/>
<path fill-rule="evenodd" clip-rule="evenodd" d="M94.0081 160.07C93.868 159.956 93.868 159.794 93.9731 159.667C94.0913 159.549 94.2709 159.549 94.3891 159.667L96.574 161.541C96.6923 161.655 96.7185 161.852 96.5959 161.944C96.4777 162.062 96.2982 162.062 96.1931 161.944L94.0213 160.061" fill="url(#paint31_linear_1_129)"/>
<path fill-rule="evenodd" clip-rule="evenodd" d="M93.1412 160.801C93.0186 160.683 93.0536 160.521 93.1849 160.407C93.3075 160.315 93.4739 160.35 93.579 160.464L95.44 162.662C95.5363 162.776 95.5144 162.973 95.383 163.069C95.2604 163.183 95.0809 163.135 94.989 163.021L93.1149 160.823" fill="#FDC90D"/>
<path fill-rule="evenodd" clip-rule="evenodd" d="M93.1412 160.801C93.0186 160.683 93.0536 160.521 93.1849 160.407C93.3075 160.315 93.4739 160.35 93.579 160.464L95.44 162.662C95.5363 162.776 95.5144 162.973 95.383 163.069C95.2604 163.183 95.0809 163.135 94.989 163.021L93.1149 160.823" fill="url(#paint32_linear_1_129)"/>
<path fill-rule="evenodd" clip-rule="evenodd" d="M92.1735 161.423C92.0903 161.274 92.1384 161.112 92.2917 161.02C92.4362 160.928 92.6026 160.985 92.6858 161.134L94.1876 163.564C94.2708 163.704 94.2139 163.888 94.0694 163.945C93.9249 164.037 93.7585 163.98 93.6753 163.853L92.1735 161.423Z" fill="#FDC90D"/>
<path fill-rule="evenodd" clip-rule="evenodd" d="M92.1735 161.423C92.0903 161.274 92.1384 161.112 92.2917 161.02C92.4362 160.928 92.6026 160.985 92.6858 161.134L94.1876 163.564C94.2708 163.704 94.2139 163.888 94.0694 163.945C93.9249 164.037 93.7585 163.98 93.6753 163.853L92.1735 161.423Z" fill="url(#paint33_linear_1_129)"/>
<path fill-rule="evenodd" clip-rule="evenodd" d="M91.1489 161.865C91.0744 161.725 91.1489 161.55 91.3021 161.493C91.4816 161.423 91.6349 161.519 91.6962 161.655L92.769 164.295C92.839 164.444 92.769 164.619 92.6157 164.663C92.4712 164.733 92.3048 164.663 92.2567 164.523L91.1489 161.865Z" fill="#FDC90D"/>
<path fill-rule="evenodd" clip-rule="evenodd" d="M91.1489 161.865C91.0744 161.725 91.1489 161.55 91.3021 161.493C91.4816 161.423 91.6349 161.519 91.6962 161.655L92.769 164.295C92.839 164.444 92.769 164.619 92.6157 164.663C92.4712 164.733 92.3048 164.663 92.2567 164.523L91.1489 161.865Z" fill="url(#paint34_linear_1_129)"/>
<path fill-rule="evenodd" clip-rule="evenodd" d="M90.0629 162.141C90.0016 161.979 90.1111 161.83 90.2775 161.795C90.4308 161.773 90.5753 161.865 90.6103 162.027L91.2539 164.803C91.289 164.965 91.1708 165.105 91.0175 165.149C90.873 165.171 90.7285 165.07 90.6803 164.917L90.0629 162.141Z" fill="#FDC90D"/>
<path fill-rule="evenodd" clip-rule="evenodd" d="M90.0629 162.141C90.0016 161.979 90.1111 161.83 90.2775 161.795C90.4308 161.773 90.5753 161.865 90.6103 162.027L91.2539 164.803C91.289 164.965 91.1708 165.105 91.0175 165.149C90.873 165.171 90.7285 165.07 90.6803 164.917L90.0629 162.141Z" fill="url(#paint35_linear_1_129)"/>
<path fill-rule="evenodd" clip-rule="evenodd" d="M88.9288 162.233C88.907 162.071 89.0252 161.944 89.2047 161.935C89.3711 161.935 89.4893 162.049 89.5025 162.211L89.647 165.044C89.647 165.219 89.5243 165.359 89.3711 165.359C89.1916 165.359 89.0602 165.219 89.0602 165.092L88.9157 162.246" fill="#FDC90D"/>
<path fill-rule="evenodd" clip-rule="evenodd" d="M88.9288 162.233C88.907 162.071 89.0252 161.944 89.2047 161.935C89.3711 161.935 89.4893 162.049 89.5025 162.211L89.647 165.044C89.647 165.219 89.5243 165.359 89.3711 165.359C89.1916 165.359 89.0602 165.219 89.0602 165.092L88.9157 162.246" fill="url(#paint36_linear_1_129)"/>
<path fill-rule="evenodd" clip-rule="evenodd" d="M87.786 162.141C87.786 161.966 87.9393 161.887 88.1057 161.909C88.2852 161.909 88.3684 162.062 88.3465 162.224L87.9875 165.022C87.9612 165.197 87.8079 165.311 87.6634 165.289C87.497 165.289 87.392 165.114 87.4007 164.978L87.786 162.154" fill="#FDC90D"/>
<path fill-rule="evenodd" clip-rule="evenodd" d="M87.786 162.141C87.786 161.966 87.9393 161.887 88.1057 161.909C88.2852 161.909 88.3684 162.062 88.3465 162.224L87.9875 165.022C87.9612 165.197 87.8079 165.311 87.6634 165.289C87.497 165.289 87.392 165.114 87.4007 164.978L87.786 162.154" fill="url(#paint37_linear_1_129)"/>
<path fill-rule="evenodd" clip-rule="evenodd" d="M86.6388 161.839C86.6651 161.69 86.8315 161.611 86.9979 161.655C87.1424 161.703 87.2124 161.865 87.1642 162.001L86.306 164.711C86.271 164.895 86.0652 164.965 85.947 164.917C85.7806 164.873 85.7105 164.711 85.7456 164.571L86.6388 161.839Z" fill="#FDC90D"/>
<path fill-rule="evenodd" clip-rule="evenodd" d="M86.6388 161.839C86.6651 161.69 86.8315 161.611 86.9979 161.655C87.1424 161.703 87.2124 161.865 87.1642 162.001L86.306 164.711C86.271 164.895 86.0652 164.965 85.947 164.917C85.7806 164.873 85.7105 164.711 85.7456 164.571L86.6388 161.839Z" fill="url(#paint38_linear_1_129)"/>
<path fill-rule="evenodd" clip-rule="evenodd" d="M85.4478 161.331C85.5179 161.16 85.7106 161.134 85.8507 161.195C86.0083 161.274 86.0433 161.423 85.9733 161.585L84.6378 164.107C84.5546 164.26 84.397 164.317 84.2306 164.225C84.0861 164.177 84.051 163.993 84.1123 163.875L85.4478 161.331Z" fill="#FDC90D"/>
<path fill-rule="evenodd" clip-rule="evenodd" d="M85.4478 161.331C85.5179 161.16 85.7106 161.134 85.8507 161.195C86.0083 161.274 86.0433 161.423 85.9733 161.585L84.6378 164.107C84.5546 164.26 84.397 164.317 84.2306 164.225C84.0861 164.177 84.051 163.993 84.1123 163.875L85.4478 161.331Z" fill="url(#paint39_linear_1_129)"/>
<path fill-rule="evenodd" clip-rule="evenodd" d="M63.5018 159.873L64.5746 161.585L69.6582 161.099L73.0211 160.324L73.8311 158.59L72.0402 154.08L67.2456 152.03L62.9895 154.539L63.4931 159.864L63.5018 159.873ZM63.9572 163.923C63.55 163.923 63.169 163.713 62.9676 163.367L61.3694 160.823C61.2731 160.683 61.2249 160.521 61.2118 160.359L60.6163 154.053C60.5812 153.629 60.7958 153.208 61.1767 152.989L66.5669 149.81C66.8909 149.613 67.285 149.578 67.6397 149.74L73.4502 152.214C73.7348 152.333 73.9494 152.56 74.0676 152.854L76.1912 158.218C76.2876 158.498 76.2744 158.8 76.1562 159.076L74.917 161.782C74.7725 162.097 74.4748 162.338 74.1157 162.421L70.0261 163.323L64.0623 163.901H63.9441L63.9572 163.923Z" fill="#FDC90D"/>
<path fill-rule="evenodd" clip-rule="evenodd" d="M63.5018 159.873L64.5746 161.585L69.6582 161.099L73.0211 160.324L73.8311 158.59L72.0402 154.08L67.2456 152.03L62.9895 154.539L63.4931 159.864L63.5018 159.873ZM63.9572 163.923C63.55 163.923 63.169 163.713 62.9676 163.367L61.3694 160.823C61.2731 160.683 61.2249 160.521 61.2118 160.359L60.6163 154.053C60.5812 153.629 60.7958 153.208 61.1767 152.989L66.5669 149.81C66.8909 149.613 67.285 149.578 67.6397 149.74L73.4502 152.214C73.7348 152.333 73.9494 152.56 74.0676 152.854L76.1912 158.218C76.2876 158.498 76.2744 158.8 76.1562 159.076L74.917 161.782C74.7725 162.097 74.4748 162.338 74.1157 162.421L70.0261 163.323L64.0623 163.901H63.9441L63.9572 163.923Z" fill="url(#paint40_linear_1_129)"/>
<path fill-rule="evenodd" clip-rule="evenodd" d="M64.7673 152.157L62.07 126.52C62.07 126.52 68.9402 125.675 70.8974 126.152V152.53" fill="#FDC90D"/>
<path fill-rule="evenodd" clip-rule="evenodd" d="M64.7673 152.157L62.07 126.52C62.07 126.52 68.9402 125.675 70.8974 126.152V152.53" fill="url(#paint41_linear_1_129)"/>
<path fill-rule="evenodd" clip-rule="evenodd" d="M82.895 166.699C80.3423 166.699 78.1704 165.333 77.8858 165.136L77.0495 164.584L76.419 160.74L75.5826 160.626L76.2745 156.151L80.4999 156.773L81.31 161.808C82.0237 162.097 82.9563 162.325 83.5737 162.036C84.2437 161.738 84.7691 160.731 85.1019 159.216L82.6192 156.991L82.3565 153.869C82.3083 153.291 82.0718 148.501 85.1982 145.449C86.363 144.289 88.4779 142.949 91.9589 143.133L92.769 143.155L93.3907 143.689C93.4389 143.746 99.3983 148.755 105.887 148.409C112.447 148.085 117.697 146.71 118.564 146.443L142.848 135.799L144.792 139.906L120.044 150.747C119.807 150.826 113.865 152.53 106.115 152.919C99.1969 153.27 93.0317 149.171 91.0175 147.647C89.9447 147.704 89.1084 148.028 88.5129 148.619C87.0811 150.007 86.9366 152.7 86.9847 153.532L87.103 154.89L90.0279 157.526L89.8834 158.682C89.428 162.557 87.9524 165.079 85.531 166.178C84.6465 166.559 83.7664 166.721 82.9082 166.721" fill="#FDC90D"/>
<path fill-rule="evenodd" clip-rule="evenodd" d="M82.895 166.699C80.3423 166.699 78.1704 165.333 77.8858 165.136L77.0495 164.584L76.419 160.74L75.5826 160.626L76.2745 156.151L80.4999 156.773L81.31 161.808C82.0237 162.097 82.9563 162.325 83.5737 162.036C84.2437 161.738 84.7691 160.731 85.1019 159.216L82.6192 156.991L82.3565 153.869C82.3083 153.291 82.0718 148.501 85.1982 145.449C86.363 144.289 88.4779 142.949 91.9589 143.133L92.769 143.155L93.3907 143.689C93.4389 143.746 99.3983 148.755 105.887 148.409C112.447 148.085 117.697 146.71 118.564 146.443L142.848 135.799L144.792 139.906L120.044 150.747C119.807 150.826 113.865 152.53 106.115 152.919C99.1969 153.27 93.0317 149.171 91.0175 147.647C89.9447 147.704 89.1084 148.028 88.5129 148.619C87.0811 150.007 86.9366 152.7 86.9847 153.532L87.103 154.89L90.0279 157.526L89.8834 158.682C89.428 162.557 87.9524 165.079 85.531 166.178C84.6465 166.559 83.7664 166.721 82.9082 166.721" fill="url(#paint42_linear_1_129)"/>
<path fill-rule="evenodd" clip-rule="evenodd" d="M244.455 71.0949L234.2 79.3881C223.525 87.6857 217.982 78.4642 217.982 78.4642L210.42 76.1829L164.36 122.181C164.36 122.181 192.091 120.561 201.093 110.118C201.093 110.118 207.21 104.447 210.122 90.8778C210.122 90.8778 221.366 89.7437 223.718 89.7437C244.442 89.7437 247.354 81.2534 247.354 81.2534L244.442 71.073" fill="#FDC90D"/>
<path fill-rule="evenodd" clip-rule="evenodd" d="M244.455 71.0949L234.2 79.3881C223.525 87.6857 217.982 78.4642 217.982 78.4642L210.42 76.1829L164.36 122.181C164.36 122.181 192.091 120.561 201.093 110.118C201.093 110.118 207.21 104.447 210.122 90.8778C210.122 90.8778 221.366 89.7437 223.718 89.7437C244.442 89.7437 247.354 81.2534 247.354 81.2534L244.442 71.073" fill="url(#paint43_linear_1_129)"/>
<path fill-rule="evenodd" clip-rule="evenodd" d="M128.346 169.208C122.417 169.208 114.89 168.433 110.24 165.044C101.929 158.984 97.5286 149.162 97.3359 148.733L99.4815 147.844C99.5209 147.958 103.825 157.561 111.624 163.231C119.282 168.805 136.753 166.423 136.941 166.397L137.265 168.643C136.906 168.691 133.149 169.221 128.319 169.221" fill="#FDC90D"/>
<path fill-rule="evenodd" clip-rule="evenodd" d="M128.346 169.208C122.417 169.208 114.89 168.433 110.24 165.044C101.929 158.984 97.5286 149.162 97.3359 148.733L99.4815 147.844C99.5209 147.958 103.825 157.561 111.624 163.231C119.282 168.805 136.753 166.423 136.941 166.397L137.265 168.643C136.906 168.691 133.149 169.221 128.319 169.221" fill="url(#paint44_linear_1_129)"/>
<path fill-rule="evenodd" clip-rule="evenodd" d="M131.551 169.081C131.551 169.081 135.667 161.585 142.047 168.087C148.453 174.589 131.551 169.081 131.551 169.081Z" fill="#FDC90D"/>
<path fill-rule="evenodd" clip-rule="evenodd" d="M131.551 169.081C131.551 169.081 135.667 161.585 142.047 168.087C148.453 174.589 131.551 169.081 131.551 169.081Z" fill="url(#paint45_linear_1_129)"/>
<path fill-rule="evenodd" clip-rule="evenodd" d="M135.465 106.343C135.465 106.343 141.736 109.076 143.216 114.072L135.465 106.343Z" fill="#FDC90D"/>
<path fill-rule="evenodd" clip-rule="evenodd" d="M135.465 106.343C135.465 106.343 141.736 109.076 143.216 114.072L135.465 106.343Z" fill="url(#paint46_linear_1_129)"/>
<path fill-rule="evenodd" clip-rule="evenodd" d="M254.605 37.2433L253.887 33.968L251.028 35.8421C240.891 42.4364 228.486 49.6919 226.126 49.8758C222.01 49.8758 211.002 50.6859 210.525 50.734L210.205 50.7778C202.713 52.4461 198.575 55.139 197.564 59.0404C196.526 63.0294 199.329 66.5367 200.83 68.0648C200.401 77.0849 194.153 84.7783 192.183 86.9764C182.725 87.7076 177.575 94.3457 175.548 97.7042C157.385 92.0338 138.456 102.008 134.822 104.066H117.434L117.132 104.088C116.3 104.18 97.0995 106.632 87.2255 111.874C80.3554 115.517 78.5558 122.216 78.1617 126.822C74.8558 124.764 69.8466 122.426 64.7191 123.039C60.5462 123.525 57.0258 125.78 54.2847 129.747C52.8047 131.945 50.6723 138.772 52.2574 145.458C53.4265 150.353 56.4084 154.285 60.879 156.829L63.2304 152.897C59.8413 150.988 57.6957 148.133 56.8244 144.429C55.5502 139.131 57.2797 133.579 58.1861 132.261C60.1522 129.401 62.4553 127.865 65.2665 127.514C71.8651 126.739 78.9236 132.988 79.0068 133.044L83.7751 137.327L82.895 131.078C82.895 130.965 81.415 120.088 89.4543 115.841C98.1372 111.239 115.81 108.808 117.6 108.576H136.131L136.705 108.231C136.906 108.09 157.696 95.7337 175.846 102.56L177.934 103.348L178.828 101.347C179.007 100.953 183.193 91.7448 193.339 91.3988L194.271 91.3726L194.915 90.7158C195.344 90.2867 205.467 80.0143 205.467 67.0928V66.0507L204.671 65.3807C203.979 64.7984 201.509 62.1755 202.048 60.1044C202.345 58.9484 203.917 56.7941 211.05 55.1871C212.482 55.0689 222.452 54.3771 226.113 54.3771C229.117 54.3771 237.883 49.381 245.252 44.8447C242.892 47.3449 239.35 50.5457 234.043 54.5391C233.412 55.0032 233.005 55.301 232.852 55.3929L231.718 56.2512L232.077 58.8521L233.303 59.3644C234.222 59.7103 234.783 59.5965 235.689 59.0141C236.022 58.7864 236.407 58.4843 236.885 58.1252C254.653 44.8228 254.925 38.7715 254.605 37.2302" fill="#FDC90D"/>
<path fill-rule="evenodd" clip-rule="evenodd" d="M254.605 37.2433L253.887 33.968L251.028 35.8421C240.891 42.4364 228.486 49.6919 226.126 49.8758C222.01 49.8758 211.002 50.6859 210.525 50.734L210.205 50.7778C202.713 52.4461 198.575 55.139 197.564 59.0404C196.526 63.0294 199.329 66.5367 200.83 68.0648C200.401 77.0849 194.153 84.7783 192.183 86.9764C182.725 87.7076 177.575 94.3457 175.548 97.7042C157.385 92.0338 138.456 102.008 134.822 104.066H117.434L117.132 104.088C116.3 104.18 97.0995 106.632 87.2255 111.874C80.3554 115.517 78.5558 122.216 78.1617 126.822C74.8558 124.764 69.8466 122.426 64.7191 123.039C60.5462 123.525 57.0258 125.78 54.2847 129.747C52.8047 131.945 50.6723 138.772 52.2574 145.458C53.4265 150.353 56.4084 154.285 60.879 156.829L63.2304 152.897C59.8413 150.988 57.6957 148.133 56.8244 144.429C55.5502 139.131 57.2797 133.579 58.1861 132.261C60.1522 129.401 62.4553 127.865 65.2665 127.514C71.8651 126.739 78.9236 132.988 79.0068 133.044L83.7751 137.327L82.895 131.078C82.895 130.965 81.415 120.088 89.4543 115.841C98.1372 111.239 115.81 108.808 117.6 108.576H136.131L136.705 108.231C136.906 108.09 157.696 95.7337 175.846 102.56L177.934 103.348L178.828 101.347C179.007 100.953 183.193 91.7448 193.339 91.3988L194.271 91.3726L194.915 90.7158C195.344 90.2867 205.467 80.0143 205.467 67.0928V66.0507L204.671 65.3807C203.979 64.7984 201.509 62.1755 202.048 60.1044C202.345 58.9484 203.917 56.7941 211.05 55.1871C212.482 55.0689 222.452 54.3771 226.113 54.3771C229.117 54.3771 237.883 49.381 245.252 44.8447C242.892 47.3449 239.35 50.5457 234.043 54.5391C233.412 55.0032 233.005 55.301 232.852 55.3929L231.718 56.2512L232.077 58.8521L233.303 59.3644C234.222 59.7103 234.783 59.5965 235.689 59.0141C236.022 58.7864 236.407 58.4843 236.885 58.1252C254.653 44.8228 254.925 38.7715 254.605 37.2302" fill="url(#paint47_linear_1_129)"/>
<path fill-rule="evenodd" clip-rule="evenodd" d="M154.079 130.255L151.456 126.52L159.828 121.012C175.977 114.882 185.4 107.569 186.565 106.632L201.33 89.8838L213.783 60.8663L216.287 59.9774C218.577 59.7672 221.45 58.2653 223.324 57.2801C224.633 56.5883 225.447 56.168 226.222 56.041L234.284 54.7142L235.08 59.1674L227.006 60.4985C226.914 60.5423 226.174 60.9582 225.539 61.2604C223.442 62.3594 220.342 63.9927 217.312 64.4174L205.113 92.5329L189.726 109.929C189.332 110.28 179.624 118.297 161.773 125.132L154.079 130.225" fill="#FDC90D"/>
<path fill-rule="evenodd" clip-rule="evenodd" d="M154.079 130.255L151.456 126.52L159.828 121.012C175.977 114.882 185.4 107.569 186.565 106.632L201.33 89.8838L213.783 60.8663L216.287 59.9774C218.577 59.7672 221.45 58.2653 223.324 57.2801C224.633 56.5883 225.447 56.168 226.222 56.041L234.284 54.7142L235.08 59.1674L227.006 60.4985C226.914 60.5423 226.174 60.9582 225.539 61.2604C223.442 62.3594 220.342 63.9927 217.312 64.4174L205.113 92.5329L189.726 109.929C189.332 110.28 179.624 118.297 161.773 125.132L154.079 130.225" fill="url(#paint48_linear_1_129)"/>
<path fill-rule="evenodd" clip-rule="evenodd" d="M182.405 153.108C182.405 168.205 171.55 161.966 171.55 161.966L165.709 155.954C165.709 155.954 145.409 140.138 140.628 139.696C130.43 138.794 116.383 129.331 107.547 132.939C106.781 133.263 106.054 133.544 105.34 133.785C88.0006 139.893 86.1966 128.048 86.1966 128.048C86.1966 128.048 84.6465 115.994 108.322 115.613C131.98 115.219 154.854 128.407 154.854 128.407L169.216 150.27C169.216 150.27 174.655 150.848 176.205 154.99C176.205 154.99 182.405 149.705 182.405 153.108Z" fill="#FDC90D"/>
<path fill-rule="evenodd" clip-rule="evenodd" d="M182.405 153.108C182.405 168.205 171.55 161.966 171.55 161.966L165.709 155.954C165.709 155.954 145.409 140.138 140.628 139.696C130.43 138.794 116.383 129.331 107.547 132.939C106.781 133.263 106.054 133.544 105.34 133.785C88.0006 139.893 86.1966 128.048 86.1966 128.048C86.1966 128.048 84.6465 115.994 108.322 115.613C131.98 115.219 154.854 128.407 154.854 128.407L169.216 150.27C169.216 150.27 174.655 150.848 176.205 154.99C176.205 154.99 182.405 149.705 182.405 153.108Z" fill="url(#paint49_linear_1_129)"/>
<path fill-rule="evenodd" clip-rule="evenodd" d="M252.946 38.8284C252.946 38.8284 230.824 53.2561 226.77 53.2561C222.68 53.2561 211.348 54.1012 211.348 54.1012C192.148 58.3442 203.777 68.2356 203.777 68.2356C203.777 80.3821 193.877 90.2866 193.877 90.2866C182.072 90.6588 177.299 101.601 177.299 101.601C157.814 94.245 136.096 107.442 136.096 107.442H118.051C118.051 107.442 98.5532 109.872 88.9551 114.965C79.3658 120.053 81.2005 132.502 81.2005 132.502C81.2005 132.502 65.9977 118.818 56.8725 132.134C54.9634 134.884 51.2897 148.676 61.9036 155.468L61.7854 153.94L67.1537 150.756L72.9729 153.235L75.0834 158.603L74.882 159.063L76.5722 159.479L79.0768 159.873L78.8973 165.521C78.8973 165.521 87.046 169.107 88.202 159.479L85.496 157.053L85.2902 154.785C85.2902 154.785 84.6947 146.106 92.4712 146.478C92.4712 146.478 99.0655 152.144 106.627 151.763C114.189 151.361 120.009 149.683 120.009 149.683L144.455 138.921L155.108 128.556L161.308 124.217C179.147 117.426 188.855 109.316 188.855 109.316L203.992 92.1958L216.213 63.7124L217.167 63.3446C221.261 62.9593 226.113 59.5702 227.269 59.3731L235.33 58.042L236.105 57.464C254.115 43.9777 252.981 38.8415 252.981 38.8415" fill="#FDC90D"/>
<path fill-rule="evenodd" clip-rule="evenodd" d="M252.946 38.8284C252.946 38.8284 230.824 53.2561 226.77 53.2561C222.68 53.2561 211.348 54.1012 211.348 54.1012C192.148 58.3442 203.777 68.2356 203.777 68.2356C203.777 80.3821 193.877 90.2866 193.877 90.2866C182.072 90.6588 177.299 101.601 177.299 101.601C157.814 94.245 136.096 107.442 136.096 107.442H118.051C118.051 107.442 98.5532 109.872 88.9551 114.965C79.3658 120.053 81.2005 132.502 81.2005 132.502C81.2005 132.502 65.9977 118.818 56.8725 132.134C54.9634 134.884 51.2897 148.676 61.9036 155.468L61.7854 153.94L67.1537 150.756L72.9729 153.235L75.0834 158.603L74.882 159.063L76.5722 159.479L79.0768 159.873L78.8973 165.521C78.8973 165.521 87.046 169.107 88.202 159.479L85.496 157.053L85.2902 154.785C85.2902 154.785 84.6947 146.106 92.4712 146.478C92.4712 146.478 99.0655 152.144 106.627 151.763C114.189 151.361 120.009 149.683 120.009 149.683L144.455 138.921L155.108 128.556L161.308 124.217C179.147 117.426 188.855 109.316 188.855 109.316L203.992 92.1958L216.213 63.7124L217.167 63.3446C221.261 62.9593 226.113 59.5702 227.269 59.3731L235.33 58.042L236.105 57.464C254.115 43.9777 252.981 38.8415 252.981 38.8415" fill="url(#paint50_linear_1_129)"/>
<path fill-rule="evenodd" clip-rule="evenodd" d="M197.573 147.809C188.465 186.609 152.687 215.648 110.06 215.648C60.5681 215.648 20.3061 176.512 20.3061 128.394C20.3061 80.2901 60.5681 41.1403 110.06 41.1403C129.62 41.1403 147.748 47.2749 162.513 57.6392C165.731 52.376 169.466 47.2967 173.915 42.9137C155.966 30.1849 133.902 22.6667 110.06 22.6667C50.1118 22.6667 1.33331 70.1009 1.33331 128.359C1.33331 186.644 50.1118 234.065 110.06 234.065C163.301 234.065 207.736 196.662 217.001 147.472C210.608 148.26 203.834 148.05 197.586 147.783" fill="#FDC90D"/>
<path fill-rule="evenodd" clip-rule="evenodd" d="M197.573 147.809C188.465 186.609 152.687 215.648 110.06 215.648C60.5681 215.648 20.3061 176.512 20.3061 128.394C20.3061 80.2901 60.5681 41.1403 110.06 41.1403C129.62 41.1403 147.748 47.2749 162.513 57.6392C165.731 52.376 169.466 47.2967 173.915 42.9137C155.966 30.1849 133.902 22.6667 110.06 22.6667C50.1118 22.6667 1.33331 70.1009 1.33331 128.359C1.33331 186.644 50.1118 234.065 110.06 234.065C163.301 234.065 207.736 196.662 217.001 147.472C210.608 148.26 203.834 148.05 197.586 147.783" fill="url(#paint51_linear_1_129)"/>
<defs>
<linearGradient id="paint0_linear_1_129" x1="128" y1="22.6664" x2="128" y2="234.065" gradientUnits="userSpaceOnUse">
<stop offset="0.510417" stop-color="#DA0000" stop-opacity="0"/>
<stop offset="1" stop-color="#DA0000" stop-opacity="0.2"/>
</linearGradient>
<linearGradient id="paint1_linear_1_129" x1="128" y1="22.6664" x2="128" y2="234.065" gradientUnits="userSpaceOnUse">
<stop offset="0.510417" stop-color="#DA0000" stop-opacity="0"/>
<stop offset="1" stop-color="#DA0000" stop-opacity="0.2"/>
</linearGradient>
<linearGradient id="paint2_linear_1_129" x1="128" y1="22.6663" x2="128" y2="234.065" gradientUnits="userSpaceOnUse">
<stop offset="0.510417" stop-color="#DA0000" stop-opacity="0"/>
<stop offset="1" stop-color="#DA0000" stop-opacity="0.2"/>
</linearGradient>
<linearGradient id="paint3_linear_1_129" x1="128" y1="22.6664" x2="128" y2="234.065" gradientUnits="userSpaceOnUse">
<stop offset="0.510417" stop-color="#DA0000" stop-opacity="0"/>
<stop offset="1" stop-color="#DA0000" stop-opacity="0.2"/>
</linearGradient>
<linearGradient id="paint4_linear_1_129" x1="128" y1="22.6663" x2="128" y2="234.065" gradientUnits="userSpaceOnUse">
<stop offset="0.510417" stop-color="#DA0000" stop-opacity="0"/>
<stop offset="1" stop-color="#DA0000" stop-opacity="0.2"/>
</linearGradient>
<linearGradient id="paint5_linear_1_129" x1="128" y1="22.6664" x2="128" y2="234.065" gradientUnits="userSpaceOnUse">
<stop offset="0.510417" stop-color="#DA0000" stop-opacity="0"/>
<stop offset="1" stop-color="#DA0000" stop-opacity="0.2"/>
</linearGradient>
<linearGradient id="paint6_linear_1_129" x1="128" y1="22.6663" x2="128" y2="234.065" gradientUnits="userSpaceOnUse">
<stop offset="0.510417" stop-color="#DA0000" stop-opacity="0"/>
<stop offset="1" stop-color="#DA0000" stop-opacity="0.2"/>
</linearGradient>
<linearGradient id="paint7_linear_1_129" x1="128" y1="22.6664" x2="128" y2="234.065" gradientUnits="userSpaceOnUse">
<stop offset="0.510417" stop-color="#DA0000" stop-opacity="0"/>
<stop offset="1" stop-color="#DA0000" stop-opacity="0.2"/>
</linearGradient>
<linearGradient id="paint8_linear_1_129" x1="128" y1="22.6664" x2="128" y2="234.065" gradientUnits="userSpaceOnUse">
<stop offset="0.510417" stop-color="#DA0000" stop-opacity="0"/>
<stop offset="1" stop-color="#DA0000" stop-opacity="0.2"/>
</linearGradient>
<linearGradient id="paint9_linear_1_129" x1="128" y1="22.6664" x2="128" y2="234.065" gradientUnits="userSpaceOnUse">
<stop offset="0.510417" stop-color="#DA0000" stop-opacity="0"/>
<stop offset="1" stop-color="#DA0000" stop-opacity="0.2"/>
</linearGradient>
<linearGradient id="paint10_linear_1_129" x1="128" y1="22.6663" x2="128" y2="234.065" gradientUnits="userSpaceOnUse">
<stop offset="0.510417" stop-color="#DA0000" stop-opacity="0"/>
<stop offset="1" stop-color="#DA0000" stop-opacity="0.2"/>
</linearGradient>
<linearGradient id="paint11_linear_1_129" x1="128" y1="22.6663" x2="128" y2="234.065" gradientUnits="userSpaceOnUse">
<stop offset="0.510417" stop-color="#DA0000" stop-opacity="0"/>
<stop offset="1" stop-color="#DA0000" stop-opacity="0.2"/>
</linearGradient>
<linearGradient id="paint12_linear_1_129" x1="128" y1="22.6665" x2="128" y2="234.065" gradientUnits="userSpaceOnUse">
<stop offset="0.510417" stop-color="#DA0000" stop-opacity="0"/>
<stop offset="1" stop-color="#DA0000" stop-opacity="0.2"/>
</linearGradient>
<linearGradient id="paint13_linear_1_129" x1="128" y1="22.6665" x2="128" y2="234.065" gradientUnits="userSpaceOnUse">
<stop offset="0.510417" stop-color="#DA0000" stop-opacity="0"/>
<stop offset="1" stop-color="#DA0000" stop-opacity="0.2"/>
</linearGradient>
<linearGradient id="paint14_linear_1_129" x1="128" y1="22.6664" x2="128" y2="234.065" gradientUnits="userSpaceOnUse">
<stop offset="0.510417" stop-color="#DA0000" stop-opacity="0"/>
<stop offset="1" stop-color="#DA0000" stop-opacity="0.2"/>
</linearGradient>
<linearGradient id="paint15_linear_1_129" x1="128" y1="22.6663" x2="128" y2="234.065" gradientUnits="userSpaceOnUse">
<stop offset="0.510417" stop-color="#DA0000" stop-opacity="0"/>
<stop offset="1" stop-color="#DA0000" stop-opacity="0.2"/>
</linearGradient>
<linearGradient id="paint16_linear_1_129" x1="128" y1="22.6664" x2="128" y2="234.065" gradientUnits="userSpaceOnUse">
<stop offset="0.510417" stop-color="#DA0000" stop-opacity="0"/>
<stop offset="1" stop-color="#DA0000" stop-opacity="0.2"/>
</linearGradient>
<linearGradient id="paint17_linear_1_129" x1="128" y1="22.6664" x2="128" y2="234.065" gradientUnits="userSpaceOnUse">
<stop offset="0.510417" stop-color="#DA0000" stop-opacity="0"/>
<stop offset="1" stop-color="#DA0000" stop-opacity="0.2"/>
</linearGradient>
<linearGradient id="paint18_linear_1_129" x1="128" y1="22.6664" x2="128" y2="234.065" gradientUnits="userSpaceOnUse">
<stop offset="0.510417" stop-color="#DA0000" stop-opacity="0"/>
<stop offset="1" stop-color="#DA0000" stop-opacity="0.2"/>
</linearGradient>
<linearGradient id="paint19_linear_1_129" x1="128" y1="22.6664" x2="128" y2="234.065" gradientUnits="userSpaceOnUse">
<stop offset="0.510417" stop-color="#DA0000" stop-opacity="0"/>
<stop offset="1" stop-color="#DA0000" stop-opacity="0.2"/>
</linearGradient>
<linearGradient id="paint20_linear_1_129" x1="128" y1="22.6664" x2="128" y2="234.065" gradientUnits="userSpaceOnUse">
<stop offset="0.510417" stop-color="#DA0000" stop-opacity="0"/>
<stop offset="1" stop-color="#DA0000" stop-opacity="0.2"/>
</linearGradient>
<linearGradient id="paint21_linear_1_129" x1="128" y1="22.6663" x2="128" y2="234.065" gradientUnits="userSpaceOnUse">
<stop offset="0.510417" stop-color="#DA0000" stop-opacity="0"/>
<stop offset="1" stop-color="#DA0000" stop-opacity="0.2"/>
</linearGradient>
<linearGradient id="paint22_linear_1_129" x1="128" y1="22.6664" x2="128" y2="234.065" gradientUnits="userSpaceOnUse">
<stop offset="0.510417" stop-color="#DA0000" stop-opacity="0"/>
<stop offset="1" stop-color="#DA0000" stop-opacity="0.2"/>
</linearGradient>
<linearGradient id="paint23_linear_1_129" x1="128" y1="22.6664" x2="128" y2="234.066" gradientUnits="userSpaceOnUse">
<stop offset="0.510417" stop-color="#DA0000" stop-opacity="0"/>
<stop offset="1" stop-color="#DA0000" stop-opacity="0.2"/>
</linearGradient>
<linearGradient id="paint24_linear_1_129" x1="128" y1="22.6664" x2="128" y2="234.065" gradientUnits="userSpaceOnUse">
<stop offset="0.510417" stop-color="#DA0000" stop-opacity="0"/>
<stop offset="1" stop-color="#DA0000" stop-opacity="0.2"/>
</linearGradient>
<linearGradient id="paint25_linear_1_129" x1="128" y1="22.6664" x2="128" y2="234.066" gradientUnits="userSpaceOnUse">
<stop offset="0.510417" stop-color="#DA0000" stop-opacity="0"/>
<stop offset="1" stop-color="#DA0000" stop-opacity="0.2"/>
</linearGradient>
<linearGradient id="paint26_linear_1_129" x1="128" y1="22.6662" x2="128" y2="234.066" gradientUnits="userSpaceOnUse">
<stop offset="0.510417" stop-color="#DA0000" stop-opacity="0"/>
<stop offset="1" stop-color="#DA0000" stop-opacity="0.2"/>
</linearGradient>
<linearGradient id="paint27_linear_1_129" x1="128" y1="22.6664" x2="128" y2="234.065" gradientUnits="userSpaceOnUse">
<stop offset="0.510417" stop-color="#DA0000" stop-opacity="0"/>
<stop offset="1" stop-color="#DA0000" stop-opacity="0.2"/>
</linearGradient>
<linearGradient id="paint28_linear_1_129" x1="128" y1="22.6663" x2="128" y2="234.065" gradientUnits="userSpaceOnUse">
<stop offset="0.510417" stop-color="#DA0000" stop-opacity="0"/>
<stop offset="1" stop-color="#DA0000" stop-opacity="0.2"/>
</linearGradient>
<linearGradient id="paint29_linear_1_129" x1="128" y1="22.6663" x2="128" y2="234.065" gradientUnits="userSpaceOnUse">
<stop offset="0.510417" stop-color="#DA0000" stop-opacity="0"/>
<stop offset="1" stop-color="#DA0000" stop-opacity="0.2"/>
</linearGradient>
<linearGradient id="paint30_linear_1_129" x1="128" y1="22.6664" x2="128" y2="234.065" gradientUnits="userSpaceOnUse">
<stop offset="0.510417" stop-color="#DA0000" stop-opacity="0"/>
<stop offset="1" stop-color="#DA0000" stop-opacity="0.2"/>
</linearGradient>
<linearGradient id="paint31_linear_1_129" x1="128" y1="22.6664" x2="128" y2="234.065" gradientUnits="userSpaceOnUse">
<stop offset="0.510417" stop-color="#DA0000" stop-opacity="0"/>
<stop offset="1" stop-color="#DA0000" stop-opacity="0.2"/>
</linearGradient>
<linearGradient id="paint32_linear_1_129" x1="128" y1="22.6664" x2="128" y2="234.065" gradientUnits="userSpaceOnUse">
<stop offset="0.510417" stop-color="#DA0000" stop-opacity="0"/>
<stop offset="1" stop-color="#DA0000" stop-opacity="0.2"/>
</linearGradient>
<linearGradient id="paint33_linear_1_129" x1="128" y1="22.6663" x2="128" y2="234.065" gradientUnits="userSpaceOnUse">
<stop offset="0.510417" stop-color="#DA0000" stop-opacity="0"/>
<stop offset="1" stop-color="#DA0000" stop-opacity="0.2"/>
</linearGradient>
<linearGradient id="paint34_linear_1_129" x1="128" y1="22.6663" x2="128" y2="234.065" gradientUnits="userSpaceOnUse">
<stop offset="0.510417" stop-color="#DA0000" stop-opacity="0"/>
<stop offset="1" stop-color="#DA0000" stop-opacity="0.2"/>
</linearGradient>
<linearGradient id="paint35_linear_1_129" x1="128" y1="22.6664" x2="128" y2="234.065" gradientUnits="userSpaceOnUse">
<stop offset="0.510417" stop-color="#DA0000" stop-opacity="0"/>
<stop offset="1" stop-color="#DA0000" stop-opacity="0.2"/>
</linearGradient>
<linearGradient id="paint36_linear_1_129" x1="128" y1="22.6664" x2="128" y2="234.065" gradientUnits="userSpaceOnUse">
<stop offset="0.510417" stop-color="#DA0000" stop-opacity="0"/>
<stop offset="1" stop-color="#DA0000" stop-opacity="0.2"/>
</linearGradient>
<linearGradient id="paint37_linear_1_129" x1="128" y1="22.6665" x2="128" y2="234.065" gradientUnits="userSpaceOnUse">
<stop offset="0.510417" stop-color="#DA0000" stop-opacity="0"/>
<stop offset="1" stop-color="#DA0000" stop-opacity="0.2"/>
</linearGradient>
<linearGradient id="paint38_linear_1_129" x1="128" y1="22.6663" x2="128" y2="234.065" gradientUnits="userSpaceOnUse">
<stop offset="0.510417" stop-color="#DA0000" stop-opacity="0"/>
<stop offset="1" stop-color="#DA0000" stop-opacity="0.2"/>
</linearGradient>
<linearGradient id="paint39_linear_1_129" x1="128" y1="22.6663" x2="128" y2="234.065" gradientUnits="userSpaceOnUse">
<stop offset="0.510417" stop-color="#DA0000" stop-opacity="0"/>
<stop offset="1" stop-color="#DA0000" stop-opacity="0.2"/>
</linearGradient>
<linearGradient id="paint40_linear_1_129" x1="128" y1="22.6664" x2="128" y2="234.065" gradientUnits="userSpaceOnUse">
<stop offset="0.510417" stop-color="#DA0000" stop-opacity="0"/>
<stop offset="1" stop-color="#DA0000" stop-opacity="0.2"/>
</linearGradient>
<linearGradient id="paint41_linear_1_129" x1="128" y1="22.6664" x2="128" y2="234.065" gradientUnits="userSpaceOnUse">
<stop offset="0.510417" stop-color="#DA0000" stop-opacity="0"/>
<stop offset="1" stop-color="#DA0000" stop-opacity="0.2"/>
</linearGradient>
<linearGradient id="paint42_linear_1_129" x1="128" y1="22.6663" x2="128" y2="234.065" gradientUnits="userSpaceOnUse">
<stop offset="0.510417" stop-color="#DA0000" stop-opacity="0"/>
<stop offset="1" stop-color="#DA0000" stop-opacity="0.2"/>
</linearGradient>
<linearGradient id="paint43_linear_1_129" x1="128" y1="22.6664" x2="128" y2="234.065" gradientUnits="userSpaceOnUse">
<stop offset="0.510417" stop-color="#DA0000" stop-opacity="0"/>
<stop offset="1" stop-color="#DA0000" stop-opacity="0.2"/>
</linearGradient>
<linearGradient id="paint44_linear_1_129" x1="128" y1="22.6664" x2="128" y2="234.065" gradientUnits="userSpaceOnUse">
<stop offset="0.510417" stop-color="#DA0000" stop-opacity="0"/>
<stop offset="1" stop-color="#DA0000" stop-opacity="0.2"/>
</linearGradient>
<linearGradient id="paint45_linear_1_129" x1="128" y1="22.6664" x2="128" y2="234.065" gradientUnits="userSpaceOnUse">
<stop offset="0.510417" stop-color="#DA0000" stop-opacity="0"/>
<stop offset="1" stop-color="#DA0000" stop-opacity="0.2"/>
</linearGradient>
<linearGradient id="paint46_linear_1_129" x1="128" y1="22.6664" x2="128" y2="234.065" gradientUnits="userSpaceOnUse">
<stop offset="0.510417" stop-color="#DA0000" stop-opacity="0"/>
<stop offset="1" stop-color="#DA0000" stop-opacity="0.2"/>
</linearGradient>
<linearGradient id="paint47_linear_1_129" x1="128" y1="22.6664" x2="128" y2="234.065" gradientUnits="userSpaceOnUse">
<stop offset="0.510417" stop-color="#DA0000" stop-opacity="0"/>
<stop offset="1" stop-color="#DA0000" stop-opacity="0.2"/>
</linearGradient>
<linearGradient id="paint48_linear_1_129" x1="128" y1="22.6664" x2="128" y2="234.065" gradientUnits="userSpaceOnUse">
<stop offset="0.510417" stop-color="#DA0000" stop-opacity="0"/>
<stop offset="1" stop-color="#DA0000" stop-opacity="0.2"/>
</linearGradient>
<linearGradient id="paint49_linear_1_129" x1="128" y1="22.6664" x2="128" y2="234.065" gradientUnits="userSpaceOnUse">
<stop offset="0.510417" stop-color="#DA0000" stop-opacity="0"/>
<stop offset="1" stop-color="#DA0000" stop-opacity="0.2"/>
</linearGradient>
<linearGradient id="paint50_linear_1_129" x1="128" y1="22.6664" x2="128" y2="234.065" gradientUnits="userSpaceOnUse">
<stop offset="0.510417" stop-color="#DA0000" stop-opacity="0"/>
<stop offset="1" stop-color="#DA0000" stop-opacity="0.2"/>
</linearGradient>
<linearGradient id="paint51_linear_1_129" x1="128" y1="22.6664" x2="128" y2="234.065" gradientUnits="userSpaceOnUse">
<stop offset="0.510417" stop-color="#DA0000" stop-opacity="0"/>
<stop offset="1" stop-color="#DA0000" stop-opacity="0.2"/>
</linearGradient>
</defs>
</svg>
