<?xml version="1.0" encoding="UTF-8"?>
<svg xmlns="http://www.w3.org/2000/svg" xmlns:xlink="http://www.w3.org/1999/xlink" width="603px" height="512px" viewBox="0 0 602 512" version="1.1">
<defs>
<linearGradient id="linear0" gradientUnits="userSpaceOnUse" x1="36.5" y1="0.274902" x2="36.5" y2="61.1739" gradientTransform="matrix(8.246574,0,0,8.258064,0,0)">
<stop offset="0.510417" style="stop-color:rgb(85.490196%,0%,0%);stop-opacity:0;"/>
<stop offset="1" style="stop-color:rgb(85.490196%,0%,0%);stop-opacity:0.2;"/>
</linearGradient>
<linearGradient id="linear1" gradientUnits="userSpaceOnUse" x1="36.5" y1="0.274902" x2="36.5" y2="61.1739" gradientTransform="matrix(8.246574,0,0,8.258064,0,0)">
<stop offset="0.510417" style="stop-color:rgb(85.490196%,0%,0%);stop-opacity:0;"/>
<stop offset="1" style="stop-color:rgb(85.490196%,0%,0%);stop-opacity:0.2;"/>
</linearGradient>
<linearGradient id="linear2" gradientUnits="userSpaceOnUse" x1="36.5" y1="0.274902" x2="36.5" y2="61.1739" gradientTransform="matrix(8.246574,0,0,8.258064,0,0)">
<stop offset="0.510417" style="stop-color:rgb(85.490196%,0%,0%);stop-opacity:0;"/>
<stop offset="1" style="stop-color:rgb(85.490196%,0%,0%);stop-opacity:0.2;"/>
</linearGradient>
<linearGradient id="linear3" gradientUnits="userSpaceOnUse" x1="36.5" y1="0.274902" x2="36.5" y2="61.1739" gradientTransform="matrix(8.246574,0,0,8.258064,0,0)">
<stop offset="0.510417" style="stop-color:rgb(85.490196%,0%,0%);stop-opacity:0;"/>
<stop offset="1" style="stop-color:rgb(85.490196%,0%,0%);stop-opacity:0.2;"/>
</linearGradient>
<linearGradient id="linear4" gradientUnits="userSpaceOnUse" x1="36.5" y1="0.274902" x2="36.5" y2="61.1739" gradientTransform="matrix(8.246574,0,0,8.258064,0,0)">
<stop offset="0.510417" style="stop-color:rgb(85.490196%,0%,0%);stop-opacity:0;"/>
<stop offset="1" style="stop-color:rgb(85.490196%,0%,0%);stop-opacity:0.2;"/>
</linearGradient>
<linearGradient id="linear5" gradientUnits="userSpaceOnUse" x1="36.5" y1="0.274902" x2="36.5" y2="61.1739" gradientTransform="matrix(8.246574,0,0,8.258064,0,0)">
<stop offset="0.510417" style="stop-color:rgb(85.490196%,0%,0%);stop-opacity:0;"/>
<stop offset="1" style="stop-color:rgb(85.490196%,0%,0%);stop-opacity:0.2;"/>
</linearGradient>
<linearGradient id="linear6" gradientUnits="userSpaceOnUse" x1="36.5" y1="0.274902" x2="36.5" y2="61.1739" gradientTransform="matrix(8.246574,0,0,8.258064,0,0)">
<stop offset="0.510417" style="stop-color:rgb(85.490196%,0%,0%);stop-opacity:0;"/>
<stop offset="1" style="stop-color:rgb(85.490196%,0%,0%);stop-opacity:0.2;"/>
</linearGradient>
<linearGradient id="linear7" gradientUnits="userSpaceOnUse" x1="36.5" y1="0.274902" x2="36.5" y2="61.1739" gradientTransform="matrix(8.246574,0,0,8.258064,0,0)">
<stop offset="0.510417" style="stop-color:rgb(85.490196%,0%,0%);stop-opacity:0;"/>
<stop offset="1" style="stop-color:rgb(85.490196%,0%,0%);stop-opacity:0.2;"/>
</linearGradient>
<linearGradient id="linear8" gradientUnits="userSpaceOnUse" x1="36.5" y1="0.274902" x2="36.5" y2="61.1739" gradientTransform="matrix(8.246574,0,0,8.258064,0,0)">
<stop offset="0.510417" style="stop-color:rgb(85.490196%,0%,0%);stop-opacity:0;"/>
<stop offset="1" style="stop-color:rgb(85.490196%,0%,0%);stop-opacity:0.2;"/>
</linearGradient>
<linearGradient id="linear9" gradientUnits="userSpaceOnUse" x1="36.5" y1="0.274902" x2="36.5" y2="61.1739" gradientTransform="matrix(8.246574,0,0,8.258064,0,0)">
<stop offset="0.510417" style="stop-color:rgb(85.490196%,0%,0%);stop-opacity:0;"/>
<stop offset="1" style="stop-color:rgb(85.490196%,0%,0%);stop-opacity:0.2;"/>
</linearGradient>
<linearGradient id="linear10" gradientUnits="userSpaceOnUse" x1="36.5" y1="0.274902" x2="36.5" y2="61.1739" gradientTransform="matrix(8.246574,0,0,8.258064,0,0)">
<stop offset="0.510417" style="stop-color:rgb(85.490196%,0%,0%);stop-opacity:0;"/>
<stop offset="1" style="stop-color:rgb(85.490196%,0%,0%);stop-opacity:0.2;"/>
</linearGradient>
<linearGradient id="linear11" gradientUnits="userSpaceOnUse" x1="36.5" y1="0.274902" x2="36.5" y2="61.1739" gradientTransform="matrix(8.246574,0,0,8.258064,0,0)">
<stop offset="0.510417" style="stop-color:rgb(85.490196%,0%,0%);stop-opacity:0;"/>
<stop offset="1" style="stop-color:rgb(85.490196%,0%,0%);stop-opacity:0.2;"/>
</linearGradient>
<linearGradient id="linear12" gradientUnits="userSpaceOnUse" x1="36.5" y1="0.274902" x2="36.5" y2="61.1739" gradientTransform="matrix(8.246574,0,0,8.258064,0,0)">
<stop offset="0.510417" style="stop-color:rgb(85.490196%,0%,0%);stop-opacity:0;"/>
<stop offset="1" style="stop-color:rgb(85.490196%,0%,0%);stop-opacity:0.2;"/>
</linearGradient>
<linearGradient id="linear13" gradientUnits="userSpaceOnUse" x1="36.5" y1="0.274902" x2="36.5" y2="61.1739" gradientTransform="matrix(8.246574,0,0,8.258064,0,0)">
<stop offset="0.510417" style="stop-color:rgb(85.490196%,0%,0%);stop-opacity:0;"/>
<stop offset="1" style="stop-color:rgb(85.490196%,0%,0%);stop-opacity:0.2;"/>
</linearGradient>
<linearGradient id="linear14" gradientUnits="userSpaceOnUse" x1="36.5" y1="0.274902" x2="36.5" y2="61.1739" gradientTransform="matrix(8.246574,0,0,8.258064,0,0)">
<stop offset="0.510417" style="stop-color:rgb(85.490196%,0%,0%);stop-opacity:0;"/>
<stop offset="1" style="stop-color:rgb(85.490196%,0%,0%);stop-opacity:0.2;"/>
</linearGradient>
<linearGradient id="linear15" gradientUnits="userSpaceOnUse" x1="36.5" y1="0.274902" x2="36.5" y2="61.1739" gradientTransform="matrix(8.246574,0,0,8.258064,0,0)">
<stop offset="0.510417" style="stop-color:rgb(85.490196%,0%,0%);stop-opacity:0;"/>
<stop offset="1" style="stop-color:rgb(85.490196%,0%,0%);stop-opacity:0.2;"/>
</linearGradient>
<linearGradient id="linear16" gradientUnits="userSpaceOnUse" x1="36.5" y1="0.274902" x2="36.5" y2="61.1739" gradientTransform="matrix(8.246574,0,0,8.258064,0,0)">
<stop offset="0.510417" style="stop-color:rgb(85.490196%,0%,0%);stop-opacity:0;"/>
<stop offset="1" style="stop-color:rgb(85.490196%,0%,0%);stop-opacity:0.2;"/>
</linearGradient>
<linearGradient id="linear17" gradientUnits="userSpaceOnUse" x1="36.5" y1="0.274902" x2="36.5" y2="61.1739" gradientTransform="matrix(8.246574,0,0,8.258064,0,0)">
<stop offset="0.510417" style="stop-color:rgb(85.490196%,0%,0%);stop-opacity:0;"/>
<stop offset="1" style="stop-color:rgb(85.490196%,0%,0%);stop-opacity:0.2;"/>
</linearGradient>
<linearGradient id="linear18" gradientUnits="userSpaceOnUse" x1="36.5" y1="0.274902" x2="36.5" y2="61.1739" gradientTransform="matrix(8.246574,0,0,8.258064,0,0)">
<stop offset="0.510417" style="stop-color:rgb(85.490196%,0%,0%);stop-opacity:0;"/>
<stop offset="1" style="stop-color:rgb(85.490196%,0%,0%);stop-opacity:0.2;"/>
</linearGradient>
<linearGradient id="linear19" gradientUnits="userSpaceOnUse" x1="36.5" y1="0.274902" x2="36.5" y2="61.1739" gradientTransform="matrix(8.246574,0,0,8.258064,0,0)">
<stop offset="0.510417" style="stop-color:rgb(85.490196%,0%,0%);stop-opacity:0;"/>
<stop offset="1" style="stop-color:rgb(85.490196%,0%,0%);stop-opacity:0.2;"/>
</linearGradient>
<linearGradient id="linear20" gradientUnits="userSpaceOnUse" x1="36.5" y1="0.274902" x2="36.5" y2="61.1739" gradientTransform="matrix(8.246574,0,0,8.258064,0,0)">
<stop offset="0.510417" style="stop-color:rgb(85.490196%,0%,0%);stop-opacity:0;"/>
<stop offset="1" style="stop-color:rgb(85.490196%,0%,0%);stop-opacity:0.2;"/>
</linearGradient>
<linearGradient id="linear21" gradientUnits="userSpaceOnUse" x1="36.5" y1="0.274902" x2="36.5" y2="61.1739" gradientTransform="matrix(8.246574,0,0,8.258064,0,0)">
<stop offset="0.510417" style="stop-color:rgb(85.490196%,0%,0%);stop-opacity:0;"/>
<stop offset="1" style="stop-color:rgb(85.490196%,0%,0%);stop-opacity:0.2;"/>
</linearGradient>
<linearGradient id="linear22" gradientUnits="userSpaceOnUse" x1="36.5" y1="0.274902" x2="36.5" y2="61.1739" gradientTransform="matrix(8.246574,0,0,8.258064,0,0)">
<stop offset="0.510417" style="stop-color:rgb(85.490196%,0%,0%);stop-opacity:0;"/>
<stop offset="1" style="stop-color:rgb(85.490196%,0%,0%);stop-opacity:0.2;"/>
</linearGradient>
<linearGradient id="linear23" gradientUnits="userSpaceOnUse" x1="36.5" y1="0.274902" x2="36.5" y2="61.1739" gradientTransform="matrix(8.246574,0,0,8.258064,0,0)">
<stop offset="0.510417" style="stop-color:rgb(85.490196%,0%,0%);stop-opacity:0;"/>
<stop offset="1" style="stop-color:rgb(85.490196%,0%,0%);stop-opacity:0.2;"/>
</linearGradient>
<linearGradient id="linear24" gradientUnits="userSpaceOnUse" x1="36.5" y1="0.274902" x2="36.5" y2="61.1739" gradientTransform="matrix(8.246574,0,0,8.258064,0,0)">
<stop offset="0.510417" style="stop-color:rgb(85.490196%,0%,0%);stop-opacity:0;"/>
<stop offset="1" style="stop-color:rgb(85.490196%,0%,0%);stop-opacity:0.2;"/>
</linearGradient>
<linearGradient id="linear25" gradientUnits="userSpaceOnUse" x1="36.5" y1="0.274902" x2="36.5" y2="61.1739" gradientTransform="matrix(8.246574,0,0,8.258064,0,0)">
<stop offset="0.510417" style="stop-color:rgb(85.490196%,0%,0%);stop-opacity:0;"/>
<stop offset="1" style="stop-color:rgb(85.490196%,0%,0%);stop-opacity:0.2;"/>
</linearGradient>
<linearGradient id="linear26" gradientUnits="userSpaceOnUse" x1="36.5" y1="0.274902" x2="36.5" y2="61.1739" gradientTransform="matrix(8.246574,0,0,8.258064,0,0)">
<stop offset="0.510417" style="stop-color:rgb(85.490196%,0%,0%);stop-opacity:0;"/>
<stop offset="1" style="stop-color:rgb(85.490196%,0%,0%);stop-opacity:0.2;"/>
</linearGradient>
<linearGradient id="linear27" gradientUnits="userSpaceOnUse" x1="36.5" y1="0.274902" x2="36.5" y2="61.1739" gradientTransform="matrix(8.246574,0,0,8.258064,0,0)">
<stop offset="0.510417" style="stop-color:rgb(85.490196%,0%,0%);stop-opacity:0;"/>
<stop offset="1" style="stop-color:rgb(85.490196%,0%,0%);stop-opacity:0.2;"/>
</linearGradient>
<linearGradient id="linear28" gradientUnits="userSpaceOnUse" x1="36.5" y1="0.274902" x2="36.5" y2="61.1739" gradientTransform="matrix(8.246574,0,0,8.258064,0,0)">
<stop offset="0.510417" style="stop-color:rgb(85.490196%,0%,0%);stop-opacity:0;"/>
<stop offset="1" style="stop-color:rgb(85.490196%,0%,0%);stop-opacity:0.2;"/>
</linearGradient>
<linearGradient id="linear29" gradientUnits="userSpaceOnUse" x1="36.5" y1="0.274902" x2="36.5" y2="61.1739" gradientTransform="matrix(8.246574,0,0,8.258064,0,0)">
<stop offset="0.510417" style="stop-color:rgb(85.490196%,0%,0%);stop-opacity:0;"/>
<stop offset="1" style="stop-color:rgb(85.490196%,0%,0%);stop-opacity:0.2;"/>
</linearGradient>
<linearGradient id="linear30" gradientUnits="userSpaceOnUse" x1="36.5" y1="0.274902" x2="36.5" y2="61.1739" gradientTransform="matrix(8.246574,0,0,8.258064,0,0)">
<stop offset="0.510417" style="stop-color:rgb(85.490196%,0%,0%);stop-opacity:0;"/>
<stop offset="1" style="stop-color:rgb(85.490196%,0%,0%);stop-opacity:0.2;"/>
</linearGradient>
<linearGradient id="linear31" gradientUnits="userSpaceOnUse" x1="36.5" y1="0.274902" x2="36.5" y2="61.1739" gradientTransform="matrix(8.246574,0,0,8.258064,0,0)">
<stop offset="0.510417" style="stop-color:rgb(85.490196%,0%,0%);stop-opacity:0;"/>
<stop offset="1" style="stop-color:rgb(85.490196%,0%,0%);stop-opacity:0.2;"/>
</linearGradient>
<linearGradient id="linear32" gradientUnits="userSpaceOnUse" x1="36.5" y1="0.274902" x2="36.5" y2="61.1739" gradientTransform="matrix(8.246574,0,0,8.258064,0,0)">
<stop offset="0.510417" style="stop-color:rgb(85.490196%,0%,0%);stop-opacity:0;"/>
<stop offset="1" style="stop-color:rgb(85.490196%,0%,0%);stop-opacity:0.2;"/>
</linearGradient>
<linearGradient id="linear33" gradientUnits="userSpaceOnUse" x1="36.5" y1="0.274902" x2="36.5" y2="61.1739" gradientTransform="matrix(8.246574,0,0,8.258064,0,0)">
<stop offset="0.510417" style="stop-color:rgb(85.490196%,0%,0%);stop-opacity:0;"/>
<stop offset="1" style="stop-color:rgb(85.490196%,0%,0%);stop-opacity:0.2;"/>
</linearGradient>
<linearGradient id="linear34" gradientUnits="userSpaceOnUse" x1="36.5" y1="0.274902" x2="36.5" y2="61.1739" gradientTransform="matrix(8.246574,0,0,8.258064,0,0)">
<stop offset="0.510417" style="stop-color:rgb(85.490196%,0%,0%);stop-opacity:0;"/>
<stop offset="1" style="stop-color:rgb(85.490196%,0%,0%);stop-opacity:0.2;"/>
</linearGradient>
<linearGradient id="linear35" gradientUnits="userSpaceOnUse" x1="36.5" y1="0.274902" x2="36.5" y2="61.1739" gradientTransform="matrix(8.246574,0,0,8.258064,0,0)">
<stop offset="0.510417" style="stop-color:rgb(85.490196%,0%,0%);stop-opacity:0;"/>
<stop offset="1" style="stop-color:rgb(85.490196%,0%,0%);stop-opacity:0.2;"/>
</linearGradient>
<linearGradient id="linear36" gradientUnits="userSpaceOnUse" x1="36.5" y1="0.274902" x2="36.5" y2="61.1739" gradientTransform="matrix(8.246574,0,0,8.258064,0,0)">
<stop offset="0.510417" style="stop-color:rgb(85.490196%,0%,0%);stop-opacity:0;"/>
<stop offset="1" style="stop-color:rgb(85.490196%,0%,0%);stop-opacity:0.2;"/>
</linearGradient>
<linearGradient id="linear37" gradientUnits="userSpaceOnUse" x1="36.5" y1="0.274902" x2="36.5" y2="61.1739" gradientTransform="matrix(8.246574,0,0,8.258064,0,0)">
<stop offset="0.510417" style="stop-color:rgb(85.490196%,0%,0%);stop-opacity:0;"/>
<stop offset="1" style="stop-color:rgb(85.490196%,0%,0%);stop-opacity:0.2;"/>
</linearGradient>
<linearGradient id="linear38" gradientUnits="userSpaceOnUse" x1="36.5" y1="0.274902" x2="36.5" y2="61.1739" gradientTransform="matrix(8.246574,0,0,8.258064,0,0)">
<stop offset="0.510417" style="stop-color:rgb(85.490196%,0%,0%);stop-opacity:0;"/>
<stop offset="1" style="stop-color:rgb(85.490196%,0%,0%);stop-opacity:0.2;"/>
</linearGradient>
<linearGradient id="linear39" gradientUnits="userSpaceOnUse" x1="36.5" y1="0.274902" x2="36.5" y2="61.1739" gradientTransform="matrix(8.246574,0,0,8.258064,0,0)">
<stop offset="0.510417" style="stop-color:rgb(85.490196%,0%,0%);stop-opacity:0;"/>
<stop offset="1" style="stop-color:rgb(85.490196%,0%,0%);stop-opacity:0.2;"/>
</linearGradient>
<linearGradient id="linear40" gradientUnits="userSpaceOnUse" x1="36.5" y1="0.274902" x2="36.5" y2="61.1739" gradientTransform="matrix(8.246574,0,0,8.258064,0,0)">
<stop offset="0.510417" style="stop-color:rgb(85.490196%,0%,0%);stop-opacity:0;"/>
<stop offset="1" style="stop-color:rgb(85.490196%,0%,0%);stop-opacity:0.2;"/>
</linearGradient>
<linearGradient id="linear41" gradientUnits="userSpaceOnUse" x1="36.5" y1="0.274902" x2="36.5" y2="61.1739" gradientTransform="matrix(8.246574,0,0,8.258064,0,0)">
<stop offset="0.510417" style="stop-color:rgb(85.490196%,0%,0%);stop-opacity:0;"/>
<stop offset="1" style="stop-color:rgb(85.490196%,0%,0%);stop-opacity:0.2;"/>
</linearGradient>
<linearGradient id="linear42" gradientUnits="userSpaceOnUse" x1="36.5" y1="0.274902" x2="36.5" y2="61.1739" gradientTransform="matrix(8.246574,0,0,8.258064,0,0)">
<stop offset="0.510417" style="stop-color:rgb(85.490196%,0%,0%);stop-opacity:0;"/>
<stop offset="1" style="stop-color:rgb(85.490196%,0%,0%);stop-opacity:0.2;"/>
</linearGradient>
<linearGradient id="linear43" gradientUnits="userSpaceOnUse" x1="36.5" y1="0.274902" x2="36.5" y2="61.1739" gradientTransform="matrix(8.246574,0,0,8.258064,0,0)">
<stop offset="0.510417" style="stop-color:rgb(85.490196%,0%,0%);stop-opacity:0;"/>
<stop offset="1" style="stop-color:rgb(85.490196%,0%,0%);stop-opacity:0.2;"/>
</linearGradient>
<linearGradient id="linear44" gradientUnits="userSpaceOnUse" x1="36.5" y1="0.274902" x2="36.5" y2="61.1739" gradientTransform="matrix(8.246574,0,0,8.258064,0,0)">
<stop offset="0.510417" style="stop-color:rgb(85.490196%,0%,0%);stop-opacity:0;"/>
<stop offset="1" style="stop-color:rgb(85.490196%,0%,0%);stop-opacity:0.2;"/>
</linearGradient>
<linearGradient id="linear45" gradientUnits="userSpaceOnUse" x1="36.5" y1="0.274902" x2="36.5" y2="61.1739" gradientTransform="matrix(8.246574,0,0,8.258064,0,0)">
<stop offset="0.510417" style="stop-color:rgb(85.490196%,0%,0%);stop-opacity:0;"/>
<stop offset="1" style="stop-color:rgb(85.490196%,0%,0%);stop-opacity:0.2;"/>
</linearGradient>
<linearGradient id="linear46" gradientUnits="userSpaceOnUse" x1="36.5" y1="0.274902" x2="36.5" y2="61.1739" gradientTransform="matrix(8.246574,0,0,8.258064,0,0)">
<stop offset="0.510417" style="stop-color:rgb(85.490196%,0%,0%);stop-opacity:0;"/>
<stop offset="1" style="stop-color:rgb(85.490196%,0%,0%);stop-opacity:0.2;"/>
</linearGradient>
<linearGradient id="linear47" gradientUnits="userSpaceOnUse" x1="36.5" y1="0.274902" x2="36.5" y2="61.1739" gradientTransform="matrix(8.246574,0,0,8.258064,0,0)">
<stop offset="0.510417" style="stop-color:rgb(85.490196%,0%,0%);stop-opacity:0;"/>
<stop offset="1" style="stop-color:rgb(85.490196%,0%,0%);stop-opacity:0.2;"/>
</linearGradient>
<linearGradient id="linear48" gradientUnits="userSpaceOnUse" x1="36.5" y1="0.274902" x2="36.5" y2="61.1739" gradientTransform="matrix(8.246574,0,0,8.258064,0,0)">
<stop offset="0.510417" style="stop-color:rgb(85.490196%,0%,0%);stop-opacity:0;"/>
<stop offset="1" style="stop-color:rgb(85.490196%,0%,0%);stop-opacity:0.2;"/>
</linearGradient>
<linearGradient id="linear49" gradientUnits="userSpaceOnUse" x1="36.5" y1="0.274902" x2="36.5" y2="61.1739" gradientTransform="matrix(8.246574,0,0,8.258064,0,0)">
<stop offset="0.510417" style="stop-color:rgb(85.490196%,0%,0%);stop-opacity:0;"/>
<stop offset="1" style="stop-color:rgb(85.490196%,0%,0%);stop-opacity:0.2;"/>
</linearGradient>
<linearGradient id="linear50" gradientUnits="userSpaceOnUse" x1="36.5" y1="0.274902" x2="36.5" y2="61.1739" gradientTransform="matrix(8.246574,0,0,8.258064,0,0)">
<stop offset="0.510417" style="stop-color:rgb(85.490196%,0%,0%);stop-opacity:0;"/>
<stop offset="1" style="stop-color:rgb(85.490196%,0%,0%);stop-opacity:0.2;"/>
</linearGradient>
<linearGradient id="linear51" gradientUnits="userSpaceOnUse" x1="36.5" y1="0.274902" x2="36.5" y2="61.1739" gradientTransform="matrix(8.246574,0,0,8.258064,0,0)">
<stop offset="0.510417" style="stop-color:rgb(85.490196%,0%,0%);stop-opacity:0;"/>
<stop offset="1" style="stop-color:rgb(85.490196%,0%,0%);stop-opacity:0.2;"/>
</linearGradient>
</defs>
<g id="surface1">
<path style=" stroke:none;fill-rule:evenodd;fill:rgb(99.215686%,78.823529%,5.098039%);fill-opacity:1;" d="M 351.578125 150.613281 C 355.554688 163.332031 349.519531 176.40625 338.0625 179.78125 L 214.503906 216.167969 C 203.054688 219.53125 190.558594 211.9375 186.585938 199.1875 C 182.621094 186.417969 188.6875 173.375 200.132812 170.019531 L 323.695312 133.605469 C 335.171875 130.21875 347.613281 137.84375 351.578125 150.613281 Z M 351.578125 150.613281 "/>
<path style=" stroke:none;fill-rule:evenodd;fill:url(#linear0);" d="M 351.578125 150.613281 C 355.554688 163.332031 349.519531 176.40625 338.0625 179.78125 L 214.503906 216.167969 C 203.054688 219.53125 190.558594 211.9375 186.585938 199.1875 C 182.621094 186.417969 188.6875 173.375 200.132812 170.019531 L 323.695312 133.605469 C 335.171875 130.21875 347.613281 137.84375 351.578125 150.613281 Z M 351.578125 150.613281 "/>
<path style=" stroke:none;fill-rule:evenodd;fill:rgb(99.215686%,78.823529%,5.098039%);fill-opacity:1;" d="M 184.578125 189.863281 L 175.085938 192.613281 C 170.4375 193.988281 168 199.269531 169.613281 204.449219 C 171.226562 209.59375 176.273438 212.644531 180.863281 211.269531 L 190.382812 208.46875 C 188.34375 205.988281 186.699219 202.957031 185.660156 199.65625 C 184.609375 196.355469 184.234375 193.050781 184.523438 189.863281 "/>
<path style=" stroke:none;fill-rule:evenodd;fill:url(#linear1);" d="M 184.578125 189.863281 L 175.085938 192.613281 C 170.4375 193.988281 168 199.269531 169.613281 204.449219 C 171.226562 209.59375 176.273438 212.644531 180.863281 211.269531 L 190.382812 208.46875 C 188.34375 205.988281 186.699219 202.957031 185.660156 199.65625 C 184.609375 196.355469 184.234375 193.050781 184.523438 189.863281 "/>
<path style=" stroke:none;fill-rule:evenodd;fill:rgb(99.215686%,78.823529%,5.098039%);fill-opacity:1;" d="M 192.621094 254.863281 C 192.765625 254.511719 193.109375 254.3125 193.472656 254.375 C 193.867188 254.511719 194.046875 254.917969 193.984375 255.199219 L 191.914062 261.71875 C 191.746094 262.074219 191.351562 262.269531 191.007812 262.136719 C 190.613281 262.050781 190.382812 261.667969 190.527344 261.300781 Z M 192.621094 254.863281 "/>
<path style=" stroke:none;fill-rule:evenodd;fill:url(#linear2);" d="M 192.621094 254.863281 C 192.765625 254.511719 193.109375 254.3125 193.472656 254.375 C 193.867188 254.511719 194.046875 254.917969 193.984375 255.199219 L 191.914062 261.71875 C 191.746094 262.074219 191.351562 262.269531 191.007812 262.136719 C 190.613281 262.050781 190.382812 261.667969 190.527344 261.300781 Z M 192.621094 254.863281 "/>
<path style=" stroke:none;fill-rule:evenodd;fill:rgb(99.215686%,78.823529%,5.098039%);fill-opacity:1;" d="M 188.0625 253.074219 C 188.207031 252.6875 188.636719 252.53125 189 252.6875 C 189.28125 252.832031 189.457031 253.238281 189.363281 253.519531 L 186.53125 259.738281 C 186.367188 260.09375 185.878906 260.292969 185.597656 260.074219 C 185.230469 259.957031 185.085938 259.519531 185.253906 259.238281 L 188.03125 253.050781 "/>
<path style=" stroke:none;fill-rule:evenodd;fill:url(#linear3);" d="M 188.0625 253.074219 C 188.207031 252.6875 188.636719 252.53125 189 252.6875 C 189.28125 252.832031 189.457031 253.238281 189.363281 253.519531 L 186.53125 259.738281 C 186.367188 260.09375 185.878906 260.292969 185.597656 260.074219 C 185.230469 259.957031 185.085938 259.519531 185.253906 259.238281 L 188.03125 253.050781 "/>
<path style=" stroke:none;fill-rule:evenodd;fill:rgb(99.215686%,78.823529%,5.098039%);fill-opacity:1;" d="M 183.640625 250.792969 C 183.839844 250.457031 184.210938 250.324219 184.609375 250.519531 C 184.972656 250.707031 185.054688 251.125 184.890625 251.457031 L 181.488281 257.34375 C 181.257812 257.675781 180.777344 257.78125 180.496094 257.5625 C 180.125 257.394531 180.019531 257.011719 180.21875 256.6875 L 183.671875 250.824219 "/>
<path style=" stroke:none;fill-rule:evenodd;fill:url(#linear4);" d="M 183.640625 250.792969 C 183.839844 250.457031 184.210938 250.324219 184.609375 250.519531 C 184.972656 250.707031 185.054688 251.125 184.890625 251.457031 L 181.488281 257.34375 C 181.257812 257.675781 180.777344 257.78125 180.496094 257.5625 C 180.125 257.394531 180.019531 257.011719 180.21875 256.6875 L 183.671875 250.824219 "/>
<path style=" stroke:none;fill-rule:evenodd;fill:rgb(99.215686%,78.823529%,5.098039%);fill-opacity:1;" d="M 179.5625 248.144531 C 179.757812 247.824219 180.1875 247.738281 180.527344 247.957031 C 180.808594 248.175781 180.808594 248.59375 180.695312 248.925781 L 176.617188 254.425781 C 176.324219 254.699219 175.910156 254.78125 175.617188 254.5625 C 175.335938 254.34375 175.253906 253.925781 175.484375 253.65625 Z M 179.5625 248.144531 "/>
<path style=" stroke:none;fill-rule:evenodd;fill:url(#linear5);" d="M 179.5625 248.144531 C 179.757812 247.824219 180.1875 247.738281 180.527344 247.957031 C 180.808594 248.175781 180.808594 248.59375 180.695312 248.925781 L 176.617188 254.425781 C 176.324219 254.699219 175.910156 254.78125 175.617188 254.5625 C 175.335938 254.34375 175.253906 253.925781 175.484375 253.65625 Z M 179.5625 248.144531 "/>
<path style=" stroke:none;fill-rule:evenodd;fill:rgb(99.215686%,78.823529%,5.098039%);fill-opacity:1;" d="M 175.792969 245.15625 C 175.992188 244.824219 176.417969 244.792969 176.699219 245.042969 C 176.980469 245.3125 176.980469 245.761719 176.816406 246.03125 L 172.277344 251.144531 C 171.996094 251.425781 171.488281 251.425781 171.257812 251.144531 C 170.976562 250.957031 170.914062 250.519531 171.195312 250.269531 L 175.734375 245.175781 "/>
<path style=" stroke:none;fill-rule:evenodd;fill:url(#linear6);" d="M 175.792969 245.15625 C 175.992188 244.824219 176.417969 244.792969 176.699219 245.042969 C 176.980469 245.3125 176.980469 245.761719 176.816406 246.03125 L 172.277344 251.144531 C 171.996094 251.425781 171.488281 251.425781 171.257812 251.144531 C 170.976562 250.957031 170.914062 250.519531 171.195312 250.269531 L 175.734375 245.175781 "/>
<path style=" stroke:none;fill-rule:evenodd;fill:rgb(99.215686%,78.823529%,5.098039%);fill-opacity:1;" d="M 172.277344 241.824219 C 172.558594 241.542969 172.984375 241.542969 173.296875 241.824219 C 173.578125 242.09375 173.527344 242.542969 173.296875 242.8125 L 168.25 247.488281 C 167.96875 247.769531 167.492188 247.707031 167.261719 247.488281 C 166.980469 247.21875 166.980469 246.75 167.261719 246.53125 L 172.246094 241.84375 "/>
<path style=" stroke:none;fill-rule:evenodd;fill:url(#linear7);" d="M 172.277344 241.824219 C 172.558594 241.542969 172.984375 241.542969 173.296875 241.824219 C 173.578125 242.09375 173.527344 242.542969 173.296875 242.8125 L 168.25 247.488281 C 167.96875 247.769531 167.492188 247.707031 167.261719 247.488281 C 166.980469 247.21875 166.980469 246.75 167.261719 246.53125 L 172.246094 241.84375 "/>
<path style=" stroke:none;fill-rule:evenodd;fill:rgb(99.215686%,78.823529%,5.098039%);fill-opacity:1;" d="M 169.269531 238.324219 C 169.550781 238.050781 169.957031 238.105469 170.238281 238.4375 C 170.4375 238.707031 170.382812 239.15625 170.125 239.394531 L 164.683594 243.613281 C 164.339844 243.886719 163.914062 243.769531 163.695312 243.5 C 163.402344 243.230469 163.496094 242.78125 163.808594 242.5625 L 169.25 238.355469 "/>
<path style=" stroke:none;fill-rule:evenodd;fill:url(#linear8);" d="M 169.269531 238.324219 C 169.550781 238.050781 169.957031 238.105469 170.238281 238.4375 C 170.4375 238.707031 170.382812 239.15625 170.125 239.394531 L 164.683594 243.613281 C 164.339844 243.886719 163.914062 243.769531 163.695312 243.5 C 163.402344 243.230469 163.496094 242.78125 163.808594 242.5625 L 169.25 238.355469 "/>
<path style=" stroke:none;fill-rule:evenodd;fill:rgb(99.215686%,78.823529%,5.098039%);fill-opacity:1;" d="M 166.585938 234.667969 C 166.917969 234.449219 167.378906 234.53125 167.574219 234.832031 C 167.773438 235.15625 167.65625 235.574219 167.378906 235.792969 L 161.59375 239.511719 C 161.164062 239.699219 160.738281 239.59375 160.570312 239.292969 C 160.292969 238.957031 160.425781 238.574219 160.738281 238.386719 L 166.554688 234.636719 "/>
<path style=" stroke:none;fill-rule:evenodd;fill:url(#linear9);" d="M 166.585938 234.667969 C 166.917969 234.449219 167.378906 234.53125 167.574219 234.832031 C 167.773438 235.15625 167.65625 235.574219 167.378906 235.792969 L 161.59375 239.511719 C 161.164062 239.699219 160.738281 239.59375 160.570312 239.292969 C 160.292969 238.957031 160.425781 238.574219 160.738281 238.386719 L 166.554688 234.636719 "/>
<path style=" stroke:none;fill-rule:evenodd;fill:rgb(99.215686%,78.823529%,5.098039%);fill-opacity:1;" d="M 164.453125 230.925781 C 164.734375 230.699219 165.160156 230.84375 165.390625 231.199219 C 165.535156 231.46875 165.390625 231.917969 165.046875 232.105469 L 158.960938 235.300781 C 158.585938 235.46875 158.105469 235.300781 157.992188 235.019531 C 157.855469 234.667969 157.992188 234.25 158.273438 234.082031 L 164.515625 230.949219 "/>
<path style=" stroke:none;fill-rule:evenodd;fill:url(#linear10);" d="M 164.453125 230.925781 C 164.734375 230.699219 165.160156 230.84375 165.390625 231.199219 C 165.535156 231.46875 165.390625 231.917969 165.046875 232.105469 L 158.960938 235.300781 C 158.585938 235.46875 158.105469 235.300781 157.992188 235.019531 C 157.855469 234.667969 157.992188 234.25 158.273438 234.082031 L 164.515625 230.949219 "/>
<path style=" stroke:none;fill-rule:evenodd;fill:rgb(99.215686%,78.823529%,5.098039%);fill-opacity:1;" d="M 162.695312 227.125 C 163.070312 226.988281 163.496094 227.125 163.632812 227.511719 C 163.808594 227.863281 163.578125 228.25 163.265625 228.386719 L 156.804688 230.925781 C 156.410156 231.082031 156.015625 230.925781 155.867188 230.542969 C 155.722656 230.207031 155.921875 229.824219 156.265625 229.707031 L 162.726562 227.15625 "/>
<path style=" stroke:none;fill-rule:evenodd;fill:url(#linear11);" d="M 162.695312 227.125 C 163.070312 226.988281 163.496094 227.125 163.632812 227.511719 C 163.808594 227.863281 163.578125 228.25 163.265625 228.386719 L 156.804688 230.925781 C 156.410156 231.082031 156.015625 230.925781 155.867188 230.542969 C 155.722656 230.207031 155.921875 229.824219 156.265625 229.707031 L 162.726562 227.15625 "/>
<path style=" stroke:none;fill-rule:evenodd;fill:rgb(99.215686%,78.823529%,5.098039%);fill-opacity:1;" d="M 161.507812 223.46875 C 161.902344 223.324219 162.246094 223.542969 162.363281 223.925781 C 162.476562 224.292969 162.214844 224.644531 161.871094 224.761719 L 155.128906 226.574219 C 154.765625 226.65625 154.371094 226.4375 154.277344 226.082031 C 154.195312 225.71875 154.421875 225.363281 154.765625 225.25 L 161.457031 223.46875 "/>
<path style=" stroke:none;fill-rule:evenodd;fill:url(#linear12);" d="M 161.507812 223.46875 C 161.902344 223.324219 162.246094 223.542969 162.363281 223.925781 C 162.476562 224.292969 162.214844 224.644531 161.871094 224.761719 L 155.128906 226.574219 C 154.765625 226.65625 154.371094 226.4375 154.277344 226.082031 C 154.195312 225.71875 154.421875 225.363281 154.765625 225.25 L 161.457031 223.46875 "/>
<path style=" stroke:none;fill-rule:evenodd;fill:rgb(99.215686%,78.823529%,5.098039%);fill-opacity:1;" d="M 160.832031 219.917969 C 161.195312 219.832031 161.5625 220.105469 161.625 220.46875 C 161.675781 220.855469 161.425781 221.175781 161.050781 221.230469 L 154.171875 222.230469 C 153.746094 222.230469 153.371094 221.949219 153.320312 221.625 C 153.257812 221.261719 153.601562 220.90625 153.945312 220.875 Z M 160.832031 219.917969 "/>
<path style=" stroke:none;fill-rule:evenodd;fill:url(#linear13);" d="M 160.832031 219.917969 C 161.195312 219.832031 161.5625 220.105469 161.625 220.46875 C 161.675781 220.855469 161.425781 221.175781 161.050781 221.230469 L 154.171875 222.230469 C 153.746094 222.230469 153.371094 221.949219 153.320312 221.625 C 153.257812 221.261719 153.601562 220.90625 153.945312 220.875 Z M 160.832031 219.917969 "/>
<path style=" stroke:none;fill-rule:evenodd;fill:rgb(99.215686%,78.823529%,5.098039%);fill-opacity:1;" d="M 160.6875 216.582031 C 161.082031 216.582031 161.394531 216.855469 161.425781 217.238281 C 161.425781 217.65625 161.050781 217.925781 160.6875 217.957031 L 153.714844 217.957031 C 153.320312 217.957031 153.039062 217.605469 153.039062 217.238281 C 153.039062 216.855469 153.371094 216.582031 153.746094 216.582031 L 160.738281 216.582031 "/>
<path style=" stroke:none;fill-rule:evenodd;fill:url(#linear14);" d="M 160.6875 216.582031 C 161.082031 216.582031 161.394531 216.855469 161.425781 217.238281 C 161.425781 217.65625 161.050781 217.925781 160.6875 217.957031 L 153.714844 217.957031 C 153.320312 217.957031 153.039062 217.605469 153.039062 217.238281 C 153.039062 216.855469 153.371094 216.582031 153.746094 216.582031 L 160.738281 216.582031 "/>
<path style=" stroke:none;fill-rule:evenodd;fill:rgb(99.215686%,78.823529%,5.098039%);fill-opacity:1;" d="M 161.050781 213.550781 C 161.476562 213.613281 161.707031 213.96875 161.625 214.386719 C 161.625 214.707031 161.164062 214.925781 160.832031 214.875 L 154.027344 213.71875 C 153.601562 213.636719 153.351562 213.25 153.453125 212.894531 C 153.453125 212.542969 153.859375 212.34375 154.226562 212.34375 Z M 161.050781 213.550781 "/>
<path style=" stroke:none;fill-rule:evenodd;fill:url(#linear15);" d="M 161.050781 213.550781 C 161.476562 213.613281 161.707031 213.96875 161.625 214.386719 C 161.625 214.707031 161.164062 214.925781 160.832031 214.875 L 154.027344 213.71875 C 153.601562 213.636719 153.351562 213.25 153.453125 212.894531 C 153.453125 212.542969 153.859375 212.34375 154.226562 212.34375 Z M 161.050781 213.550781 "/>
<path style=" stroke:none;fill-rule:evenodd;fill:rgb(99.215686%,78.823529%,5.098039%);fill-opacity:1;" d="M 161.964844 210.886719 C 162.363281 211.019531 162.527344 211.4375 162.382812 211.769531 C 162.214844 212.125 161.820312 212.261719 161.476562 212.15625 L 154.964844 209.675781 C 154.621094 209.542969 154.453125 209.125 154.589844 208.855469 C 154.734375 208.46875 155.160156 208.300781 155.503906 208.4375 Z M 161.964844 210.886719 "/>
<path style=" stroke:none;fill-rule:evenodd;fill:url(#linear16);" d="M 161.964844 210.886719 C 162.363281 211.019531 162.527344 211.4375 162.382812 211.769531 C 162.214844 212.125 161.820312 212.261719 161.476562 212.15625 L 154.964844 209.675781 C 154.621094 209.542969 154.453125 209.125 154.589844 208.855469 C 154.734375 208.46875 155.160156 208.300781 155.503906 208.4375 Z M 161.964844 210.886719 "/>
<path style=" stroke:none;fill-rule:evenodd;fill:rgb(99.215686%,78.823529%,5.098039%);fill-opacity:1;" d="M 163.402344 208.625 C 163.746094 208.824219 163.777344 209.261719 163.578125 209.5625 C 163.296875 209.84375 162.890625 209.925781 162.558594 209.761719 L 156.804688 205.90625 C 156.523438 205.707031 156.410156 205.269531 156.628906 204.96875 C 156.835938 204.699219 157.285156 204.613281 157.597656 204.800781 Z M 163.402344 208.625 "/>
<path style=" stroke:none;fill-rule:evenodd;fill:url(#linear17);" d="M 163.402344 208.625 C 163.746094 208.824219 163.777344 209.261719 163.578125 209.5625 C 163.296875 209.84375 162.890625 209.925781 162.558594 209.761719 L 156.804688 205.90625 C 156.523438 205.707031 156.410156 205.269531 156.628906 204.96875 C 156.835938 204.699219 157.285156 204.613281 157.597656 204.800781 Z M 163.402344 208.625 "/>
<path style=" stroke:none;fill-rule:evenodd;fill:rgb(99.215686%,78.823529%,5.098039%);fill-opacity:1;" d="M 165.304688 206.699219 C 165.585938 206.980469 165.535156 207.394531 165.242188 207.667969 C 164.964844 207.9375 164.535156 207.886719 164.253906 207.613281 L 159.519531 202.65625 C 159.242188 202.386719 159.324219 201.96875 159.582031 201.71875 C 159.863281 201.449219 160.292969 201.5 160.519531 201.71875 L 165.335938 206.730469 "/>
<path style=" stroke:none;fill-rule:evenodd;fill:url(#linear18);" d="M 165.304688 206.699219 C 165.585938 206.980469 165.535156 207.394531 165.242188 207.667969 C 164.964844 207.9375 164.535156 207.886719 164.253906 207.613281 L 159.519531 202.65625 C 159.242188 202.386719 159.324219 201.96875 159.582031 201.71875 C 159.863281 201.449219 160.292969 201.5 160.519531 201.71875 L 165.335938 206.730469 "/>
<path style=" stroke:none;fill-rule:evenodd;fill:rgb(99.215686%,78.823529%,5.098039%);fill-opacity:1;" d="M 167.773438 205.105469 C 168 205.46875 167.855469 205.855469 167.542969 206.074219 C 167.117188 206.238281 166.691406 206.125 166.554688 205.792969 L 163.039062 199.9375 C 162.871094 199.574219 163.039062 199.1875 163.320312 198.96875 C 163.664062 198.800781 164.089844 198.96875 164.253906 199.25 Z M 167.773438 205.105469 "/>
<path style=" stroke:none;fill-rule:evenodd;fill:url(#linear19);" d="M 167.773438 205.105469 C 168 205.46875 167.855469 205.855469 167.542969 206.074219 C 167.117188 206.238281 166.691406 206.125 166.554688 205.792969 L 163.039062 199.9375 C 162.871094 199.574219 163.039062 199.1875 163.320312 198.96875 C 163.664062 198.800781 164.089844 198.96875 164.253906 199.25 Z M 167.773438 205.105469 "/>
<path style=" stroke:none;fill-rule:evenodd;fill:rgb(99.215686%,78.823529%,5.098039%);fill-opacity:1;" d="M 170.976562 203.894531 C 171.113281 204.25 170.863281 204.613281 170.519531 204.71875 C 170.15625 204.886719 169.78125 204.667969 169.667969 204.332031 L 167.398438 197.894531 C 167.316406 197.511719 167.511719 197.15625 167.886719 197.011719 C 168.25 196.90625 168.648438 197.125 168.738281 197.457031 L 171 203.894531 "/>
<path style=" stroke:none;fill-rule:evenodd;fill:url(#linear20);" d="M 170.976562 203.894531 C 171.113281 204.25 170.863281 204.613281 170.519531 204.71875 C 170.15625 204.886719 169.78125 204.667969 169.667969 204.332031 L 167.398438 197.894531 C 167.316406 197.511719 167.511719 197.15625 167.886719 197.011719 C 168.25 196.90625 168.648438 197.125 168.738281 197.457031 L 171 203.894531 "/>
<path style=" stroke:none;fill-rule:evenodd;fill:rgb(99.215686%,78.823529%,5.098039%);fill-opacity:1;" d="M 216.886719 299.78125 C 216.605469 300.113281 216.175781 300.136719 215.863281 299.863281 C 215.636719 299.59375 215.667969 299.175781 215.863281 298.925781 L 220.683594 293.980469 C 220.964844 293.75 221.472656 293.75 221.648438 294.03125 C 221.984375 294.25 221.984375 294.71875 221.648438 294.96875 Z M 216.886719 299.78125 "/>
<path style=" stroke:none;fill-rule:evenodd;fill:url(#linear21);" d="M 216.886719 299.78125 C 216.605469 300.113281 216.175781 300.136719 215.863281 299.863281 C 215.636719 299.59375 215.667969 299.175781 215.863281 298.925781 L 220.683594 293.980469 C 220.964844 293.75 221.472656 293.75 221.648438 294.03125 C 221.984375 294.25 221.984375 294.71875 221.648438 294.96875 Z M 216.886719 299.78125 "/>
<path style=" stroke:none;fill-rule:evenodd;fill:rgb(99.215686%,78.823529%,5.098039%);fill-opacity:1;" d="M 220.171875 303.4375 C 219.890625 303.71875 219.433594 303.667969 219.152344 303.363281 C 218.957031 303.082031 219.070312 302.675781 219.296875 302.425781 L 224.679688 298.1875 C 225.023438 297.90625 225.53125 298.019531 225.667969 298.292969 C 225.949219 298.574219 225.894531 299.011719 225.582031 299.230469 L 220.203125 303.4375 "/>
<path style=" stroke:none;fill-rule:evenodd;fill:url(#linear22);" d="M 220.171875 303.4375 C 219.890625 303.71875 219.433594 303.667969 219.152344 303.363281 C 218.957031 303.082031 219.070312 302.675781 219.296875 302.425781 L 224.679688 298.1875 C 225.023438 297.90625 225.53125 298.019531 225.667969 298.292969 C 225.949219 298.574219 225.894531 299.011719 225.582031 299.230469 L 220.203125 303.4375 "/>
<path style=" stroke:none;fill-rule:evenodd;fill:rgb(99.215686%,78.823529%,5.098039%);fill-opacity:1;" d="M 222.472656 306.855469 C 222.179688 307.074219 221.753906 306.988281 221.503906 306.667969 C 221.339844 306.332031 221.503906 305.917969 221.785156 305.730469 L 227.738281 302.261719 C 228.113281 302.0625 228.589844 302.207031 228.675781 302.53125 C 228.953125 302.863281 228.820312 303.25 228.476562 303.46875 Z M 222.472656 306.855469 "/>
<path style=" stroke:none;fill-rule:evenodd;fill:url(#linear23);" d="M 222.472656 306.855469 C 222.179688 307.074219 221.753906 306.988281 221.503906 306.667969 C 221.339844 306.332031 221.503906 305.917969 221.785156 305.730469 L 227.738281 302.261719 C 228.113281 302.0625 228.589844 302.207031 228.675781 302.53125 C 228.953125 302.863281 228.820312 303.25 228.476562 303.46875 Z M 222.472656 306.855469 "/>
<path style=" stroke:none;fill-rule:evenodd;fill:rgb(99.215686%,78.823529%,5.098039%);fill-opacity:1;" d="M 224.054688 310.238281 C 223.710938 310.375 223.292969 310.238281 223.148438 309.855469 C 223.066406 309.519531 223.261719 309.113281 223.542969 308.980469 L 230.003906 306.449219 C 230.402344 306.300781 230.859375 306.5 230.910156 306.824219 C 231.109375 307.1875 230.910156 307.574219 230.546875 307.707031 L 224.117188 310.1875 "/>
<path style=" stroke:none;fill-rule:evenodd;fill:url(#linear24);" d="M 224.054688 310.238281 C 223.710938 310.375 223.292969 310.238281 223.148438 309.855469 C 223.066406 309.519531 223.261719 309.113281 223.542969 308.980469 L 230.003906 306.449219 C 230.402344 306.300781 230.859375 306.5 230.910156 306.824219 C 231.109375 307.1875 230.910156 307.574219 230.546875 307.707031 L 224.117188 310.1875 "/>
<path style=" stroke:none;fill-rule:evenodd;fill:rgb(99.215686%,78.823529%,5.098039%);fill-opacity:1;" d="M 224.992188 313.4375 C 224.625 313.519531 224.28125 313.324219 224.136719 312.9375 C 224.054688 312.582031 224.335938 312.25 224.648438 312.113281 L 231.453125 310.59375 C 231.847656 310.542969 232.242188 310.792969 232.304688 311.144531 C 232.417969 311.53125 232.160156 311.863281 231.734375 311.980469 Z M 224.992188 313.4375 "/>
<path style=" stroke:none;fill-rule:evenodd;fill:url(#linear25);" d="M 224.992188 313.4375 C 224.625 313.519531 224.28125 313.324219 224.136719 312.9375 C 224.054688 312.582031 224.335938 312.25 224.648438 312.113281 L 231.453125 310.59375 C 231.847656 310.542969 232.242188 310.792969 232.304688 311.144531 C 232.417969 311.53125 232.160156 311.863281 231.734375 311.980469 Z M 224.992188 313.4375 "/>
<path style=" stroke:none;fill-rule:evenodd;fill:rgb(99.215686%,78.823529%,5.098039%);fill-opacity:1;" d="M 225.332031 316.519531 C 224.929688 316.574219 224.625 316.292969 224.5625 315.90625 C 224.5625 315.519531 224.90625 315.21875 225.238281 315.199219 L 232.210938 314.78125 C 232.617188 314.78125 232.949219 315.050781 232.929688 315.4375 C 233.011719 315.800781 232.699219 316.074219 232.304688 316.105469 L 225.355469 316.488281 "/>
<path style=" stroke:none;fill-rule:evenodd;fill:url(#linear26);" d="M 225.332031 316.519531 C 224.929688 316.574219 224.625 316.292969 224.5625 315.90625 C 224.5625 315.519531 224.90625 315.21875 225.238281 315.199219 L 232.210938 314.78125 C 232.617188 314.78125 232.949219 315.050781 232.929688 315.4375 C 233.011719 315.800781 232.699219 316.074219 232.304688 316.105469 L 225.355469 316.488281 "/>
<path style=" stroke:none;fill-rule:evenodd;fill:rgb(99.215686%,78.823529%,5.098039%);fill-opacity:1;" d="M 225.105469 319.4375 C 224.761719 319.4375 224.480469 319.105469 224.53125 318.6875 C 224.53125 318.355469 224.929688 318.136719 225.269531 318.136719 L 232.210938 318.824219 C 232.636719 318.824219 232.929688 319.238281 232.835938 319.574219 C 232.835938 319.925781 232.472656 320.207031 232.109375 320.125 L 225.15625 319.40625 "/>
<path style=" stroke:none;fill-rule:evenodd;fill:url(#linear27);" d="M 225.105469 319.4375 C 224.761719 319.4375 224.480469 319.105469 224.53125 318.6875 C 224.53125 318.355469 224.929688 318.136719 225.269531 318.136719 L 232.210938 318.824219 C 232.636719 318.824219 232.929688 319.238281 232.835938 319.574219 C 232.835938 319.925781 232.472656 320.207031 232.109375 320.125 L 225.15625 319.40625 "/>
<path style=" stroke:none;fill-rule:evenodd;fill:rgb(99.215686%,78.823529%,5.098039%);fill-opacity:1;" d="M 224.53125 322.207031 C 224.085938 322.105469 223.910156 321.75 223.972656 321.386719 C 224.085938 321 224.53125 320.832031 224.824219 320.894531 L 231.566406 322.675781 C 231.929688 322.792969 232.191406 323.175781 232.015625 323.511719 C 231.960938 323.894531 231.566406 324.050781 231.171875 324 L 224.511719 322.207031 "/>
<path style=" stroke:none;fill-rule:evenodd;fill:url(#linear28);" d="M 224.53125 322.207031 C 224.085938 322.105469 223.910156 321.75 223.972656 321.386719 C 224.085938 321 224.53125 320.832031 224.824219 320.894531 L 231.566406 322.675781 C 231.929688 322.792969 232.191406 323.175781 232.015625 323.511719 C 231.960938 323.894531 231.566406 324.050781 231.171875 324 L 224.511719 322.207031 "/>
<path style=" stroke:none;fill-rule:evenodd;fill:rgb(99.215686%,78.823529%,5.098039%);fill-opacity:1;" d="M 223.398438 324.738281 C 223.117188 324.636719 222.917969 324.199219 223.117188 323.863281 C 223.230469 323.53125 223.691406 323.425781 223.972656 323.53125 L 230.347656 326.28125 C 230.714844 326.480469 230.859375 326.917969 230.683594 327.21875 C 230.546875 327.582031 230.121094 327.6875 229.746094 327.550781 L 223.429688 324.71875 "/>
<path style=" stroke:none;fill-rule:evenodd;fill:url(#linear29);" d="M 223.398438 324.738281 C 223.117188 324.636719 222.917969 324.199219 223.117188 323.863281 C 223.230469 323.53125 223.691406 323.425781 223.972656 323.53125 L 230.347656 326.28125 C 230.714844 326.480469 230.859375 326.917969 230.683594 327.21875 C 230.546875 327.582031 230.121094 327.6875 229.746094 327.550781 L 223.429688 324.71875 "/>
<path style=" stroke:none;fill-rule:evenodd;fill:rgb(99.215686%,78.823529%,5.098039%);fill-opacity:1;" d="M 221.984375 327.082031 C 221.648438 326.894531 221.558594 326.480469 221.753906 326.144531 C 221.984375 325.824219 222.441406 325.792969 222.753906 325.957031 L 228.558594 329.667969 C 228.902344 329.949219 228.984375 330.355469 228.757812 330.636719 C 228.527344 330.96875 228.082031 331.042969 227.800781 330.824219 L 221.960938 327.113281 "/>
<path style=" stroke:none;fill-rule:evenodd;fill:url(#linear30);" d="M 221.984375 327.082031 C 221.648438 326.894531 221.558594 326.480469 221.753906 326.144531 C 221.984375 325.824219 222.441406 325.792969 222.753906 325.957031 L 228.558594 329.667969 C 228.902344 329.949219 228.984375 330.355469 228.757812 330.636719 C 228.527344 330.96875 228.082031 331.042969 227.800781 330.824219 L 221.960938 327.113281 "/>
<path style=" stroke:none;fill-rule:evenodd;fill:rgb(99.215686%,78.823529%,5.098039%);fill-opacity:1;" d="M 220.226562 329.144531 C 219.890625 328.875 219.890625 328.488281 220.140625 328.1875 C 220.421875 327.90625 220.847656 327.90625 221.128906 328.1875 L 226.324219 332.644531 C 226.601562 332.917969 226.664062 333.386719 226.375 333.605469 C 226.09375 333.886719 225.667969 333.886719 225.417969 333.605469 L 220.257812 329.125 "/>
<path style=" stroke:none;fill-rule:evenodd;fill:url(#linear31);" d="M 220.226562 329.144531 C 219.890625 328.875 219.890625 328.488281 220.140625 328.1875 C 220.421875 327.90625 220.847656 327.90625 221.128906 328.1875 L 226.324219 332.644531 C 226.601562 332.917969 226.664062 333.386719 226.375 333.605469 C 226.09375 333.886719 225.667969 333.886719 225.417969 333.605469 L 220.257812 329.125 "/>
<path style=" stroke:none;fill-rule:evenodd;fill:rgb(99.215686%,78.823529%,5.098039%);fill-opacity:1;" d="M 218.164062 330.886719 C 217.875 330.605469 217.957031 330.21875 218.269531 329.949219 C 218.558594 329.730469 218.957031 329.8125 219.207031 330.082031 L 223.628906 335.3125 C 223.855469 335.582031 223.804688 336.050781 223.492188 336.28125 C 223.199219 336.550781 222.773438 336.4375 222.554688 336.167969 L 218.101562 330.9375 "/>
<path style=" stroke:none;fill-rule:evenodd;fill:url(#linear32);" d="M 218.164062 330.886719 C 217.875 330.605469 217.957031 330.21875 218.269531 329.949219 C 218.558594 329.730469 218.957031 329.8125 219.207031 330.082031 L 223.628906 335.3125 C 223.855469 335.582031 223.804688 336.050781 223.492188 336.28125 C 223.199219 336.550781 222.773438 336.4375 222.554688 336.167969 L 218.101562 330.9375 "/>
<path style=" stroke:none;fill-rule:evenodd;fill:rgb(99.215686%,78.823529%,5.098039%);fill-opacity:1;" d="M 215.863281 332.363281 C 215.667969 332.011719 215.78125 331.625 216.144531 331.40625 C 216.488281 331.1875 216.886719 331.324219 217.082031 331.675781 L 220.652344 337.457031 C 220.847656 337.792969 220.714844 338.230469 220.371094 338.363281 C 220.027344 338.582031 219.632812 338.449219 219.433594 338.144531 Z M 215.863281 332.363281 "/>
<path style=" stroke:none;fill-rule:evenodd;fill:url(#linear33);" d="M 215.863281 332.363281 C 215.667969 332.011719 215.78125 331.625 216.144531 331.40625 C 216.488281 331.1875 216.886719 331.324219 217.082031 331.675781 L 220.652344 337.457031 C 220.847656 337.792969 220.714844 338.230469 220.371094 338.363281 C 220.027344 338.582031 219.632812 338.449219 219.433594 338.144531 Z M 215.863281 332.363281 "/>
<path style=" stroke:none;fill-rule:evenodd;fill:rgb(99.215686%,78.823529%,5.098039%);fill-opacity:1;" d="M 213.429688 333.417969 C 213.253906 333.082031 213.429688 332.667969 213.792969 332.53125 C 214.222656 332.363281 214.585938 332.59375 214.730469 332.917969 L 217.28125 339.199219 C 217.445312 339.550781 217.28125 339.96875 216.917969 340.074219 C 216.574219 340.238281 216.175781 340.074219 216.0625 339.738281 Z M 213.429688 333.417969 "/>
<path style=" stroke:none;fill-rule:evenodd;fill:url(#linear34);" d="M 213.429688 333.417969 C 213.253906 333.082031 213.429688 332.667969 213.792969 332.53125 C 214.222656 332.363281 214.585938 332.59375 214.730469 332.917969 L 217.28125 339.199219 C 217.445312 339.550781 217.28125 339.96875 216.917969 340.074219 C 216.574219 340.238281 216.175781 340.074219 216.0625 339.738281 Z M 213.429688 333.417969 "/>
<path style=" stroke:none;fill-rule:evenodd;fill:rgb(99.215686%,78.823529%,5.098039%);fill-opacity:1;" d="M 210.851562 334.074219 C 210.703125 333.6875 210.964844 333.332031 211.359375 333.25 C 211.722656 333.199219 212.066406 333.417969 212.152344 333.800781 L 213.679688 340.40625 C 213.761719 340.792969 213.480469 341.125 213.117188 341.230469 C 212.773438 341.28125 212.429688 341.042969 212.316406 340.675781 Z M 210.851562 334.074219 "/>
<path style=" stroke:none;fill-rule:evenodd;fill:url(#linear35);" d="M 210.851562 334.074219 C 210.703125 333.6875 210.964844 333.332031 211.359375 333.25 C 211.722656 333.199219 212.066406 333.417969 212.152344 333.800781 L 213.679688 340.40625 C 213.761719 340.792969 213.480469 341.125 213.117188 341.230469 C 212.773438 341.28125 212.429688 341.042969 212.316406 340.675781 Z M 210.851562 334.074219 "/>
<path style=" stroke:none;fill-rule:evenodd;fill:rgb(99.215686%,78.823529%,5.098039%);fill-opacity:1;" d="M 208.15625 334.292969 C 208.101562 333.90625 208.382812 333.605469 208.808594 333.582031 C 209.207031 333.582031 209.488281 333.855469 209.519531 334.238281 L 209.863281 340.980469 C 209.863281 341.394531 209.570312 341.730469 209.207031 341.730469 C 208.777344 341.730469 208.46875 341.394531 208.46875 341.09375 L 208.125 334.324219 "/>
<path style=" stroke:none;fill-rule:evenodd;fill:url(#linear36);" d="M 208.15625 334.292969 C 208.101562 333.90625 208.382812 333.605469 208.808594 333.582031 C 209.207031 333.582031 209.488281 333.855469 209.519531 334.238281 L 209.863281 340.980469 C 209.863281 341.394531 209.570312 341.730469 209.207031 341.730469 C 208.777344 341.730469 208.46875 341.394531 208.46875 341.09375 L 208.125 334.324219 "/>
<path style=" stroke:none;fill-rule:evenodd;fill:rgb(99.215686%,78.823529%,5.098039%);fill-opacity:1;" d="M 205.4375 334.074219 C 205.4375 333.65625 205.804688 333.46875 206.199219 333.519531 C 206.625 333.519531 206.824219 333.886719 206.769531 334.269531 L 205.917969 340.925781 C 205.855469 341.34375 205.492188 341.613281 205.148438 341.5625 C 204.753906 341.5625 204.503906 341.144531 204.523438 340.824219 L 205.4375 334.105469 "/>
<path style=" stroke:none;fill-rule:evenodd;fill:url(#linear37);" d="M 205.4375 334.074219 C 205.4375 333.65625 205.804688 333.46875 206.199219 333.519531 C 206.625 333.519531 206.824219 333.886719 206.769531 334.269531 L 205.917969 340.925781 C 205.855469 341.34375 205.492188 341.613281 205.148438 341.5625 C 204.753906 341.5625 204.503906 341.144531 204.523438 340.824219 L 205.4375 334.105469 "/>
<path style=" stroke:none;fill-rule:evenodd;fill:rgb(99.215686%,78.823529%,5.098039%);fill-opacity:1;" d="M 202.714844 333.355469 C 202.777344 333 203.171875 332.8125 203.566406 332.917969 C 203.910156 333.03125 204.074219 333.417969 203.960938 333.738281 L 201.921875 340.1875 C 201.839844 340.625 201.351562 340.792969 201.070312 340.675781 C 200.671875 340.574219 200.507812 340.1875 200.589844 339.855469 Z M 202.714844 333.355469 "/>
<path style=" stroke:none;fill-rule:evenodd;fill:url(#linear38);" d="M 202.714844 333.355469 C 202.777344 333 203.171875 332.8125 203.566406 332.917969 C 203.910156 333.03125 204.074219 333.417969 203.960938 333.738281 L 201.921875 340.1875 C 201.839844 340.625 201.351562 340.792969 201.070312 340.675781 C 200.671875 340.574219 200.507812 340.1875 200.589844 339.855469 Z M 202.714844 333.355469 "/>
<path style=" stroke:none;fill-rule:evenodd;fill:rgb(99.215686%,78.823529%,5.098039%);fill-opacity:1;" d="M 199.882812 332.144531 C 200.050781 331.738281 200.507812 331.675781 200.839844 331.824219 C 201.214844 332.011719 201.296875 332.363281 201.132812 332.75 L 197.957031 338.75 C 197.761719 339.113281 197.386719 339.25 196.988281 339.03125 C 196.648438 338.917969 196.5625 338.480469 196.710938 338.199219 Z M 199.882812 332.144531 "/>
<path style=" stroke:none;fill-rule:evenodd;fill:url(#linear39);" d="M 199.882812 332.144531 C 200.050781 331.738281 200.507812 331.675781 200.839844 331.824219 C 201.214844 332.011719 201.296875 332.363281 201.132812 332.75 L 197.957031 338.75 C 197.761719 339.113281 197.386719 339.25 196.988281 339.03125 C 196.648438 338.917969 196.5625 338.480469 196.710938 338.199219 Z M 199.882812 332.144531 "/>
<path style=" stroke:none;fill-rule:evenodd;fill:rgb(99.215686%,78.823529%,5.098039%);fill-opacity:1;" d="M 147.730469 328.675781 L 150.28125 332.75 L 162.363281 331.59375 L 170.351562 329.75 L 172.277344 325.625 L 168.023438 314.894531 L 156.628906 310.019531 L 146.515625 315.988281 L 147.710938 328.65625 Z M 148.8125 338.3125 C 147.847656 338.3125 146.941406 337.8125 146.460938 336.988281 L 142.664062 330.9375 C 142.4375 330.605469 142.320312 330.21875 142.289062 329.832031 L 140.875 314.832031 C 140.792969 313.824219 141.300781 312.824219 142.207031 312.300781 L 155.015625 304.738281 C 155.785156 304.269531 156.722656 304.1875 157.566406 304.574219 L 171.371094 310.457031 C 172.050781 310.738281 172.558594 311.28125 172.839844 311.980469 L 177.886719 324.738281 C 178.117188 325.40625 178.085938 326.125 177.804688 326.78125 L 174.859375 333.21875 C 174.515625 333.96875 173.808594 334.542969 172.953125 334.738281 L 163.234375 336.886719 L 149.0625 338.261719 L 148.78125 338.261719 Z M 148.8125 338.3125 "/>
<path style=" stroke:none;fill-rule:evenodd;fill:url(#linear40);" d="M 147.730469 328.675781 L 150.28125 332.75 L 162.363281 331.59375 L 170.351562 329.75 L 172.277344 325.625 L 168.023438 314.894531 L 156.628906 310.019531 L 146.515625 315.988281 L 147.710938 328.65625 Z M 148.8125 338.3125 C 147.847656 338.3125 146.941406 337.8125 146.460938 336.988281 L 142.664062 330.9375 C 142.4375 330.605469 142.320312 330.21875 142.289062 329.832031 L 140.875 314.832031 C 140.792969 313.824219 141.300781 312.824219 142.207031 312.300781 L 155.015625 304.738281 C 155.785156 304.269531 156.722656 304.1875 157.566406 304.574219 L 171.371094 310.457031 C 172.050781 310.738281 172.558594 311.28125 172.839844 311.980469 L 177.886719 324.738281 C 178.117188 325.40625 178.085938 326.125 177.804688 326.78125 L 174.859375 333.21875 C 174.515625 333.96875 173.808594 334.542969 172.953125 334.738281 L 163.234375 336.886719 L 149.0625 338.261719 L 148.78125 338.261719 Z M 148.8125 338.3125 "/>
<path style=" stroke:none;fill-rule:evenodd;fill:rgb(99.215686%,78.823529%,5.098039%);fill-opacity:1;" d="M 150.738281 310.324219 L 144.328125 249.332031 C 144.328125 249.332031 160.65625 247.324219 165.304688 248.457031 L 165.304688 311.207031 "/>
<path style=" stroke:none;fill-rule:evenodd;fill:url(#linear41);" d="M 150.738281 310.324219 L 144.328125 249.332031 C 144.328125 249.332031 160.65625 247.324219 165.304688 248.457031 L 165.304688 311.207031 "/>
<path style=" stroke:none;fill-rule:evenodd;fill:rgb(99.215686%,78.823529%,5.098039%);fill-opacity:1;" d="M 193.816406 344.917969 C 187.75 344.917969 182.589844 341.667969 181.914062 341.199219 L 179.925781 339.886719 L 178.425781 330.738281 L 176.441406 330.46875 L 178.085938 319.824219 L 188.125 321.300781 L 190.050781 333.28125 C 191.746094 333.96875 193.960938 334.511719 195.429688 333.824219 C 197.019531 333.113281 198.269531 330.71875 199.0625 327.113281 L 193.160156 321.824219 L 192.535156 314.394531 C 192.421875 313.019531 191.859375 301.625 199.289062 294.363281 C 202.058594 291.605469 207.082031 288.417969 215.355469 288.855469 L 217.28125 288.90625 L 218.757812 290.175781 C 218.871094 290.3125 233.035156 302.230469 248.453125 301.40625 C 264.039062 300.636719 276.515625 297.363281 278.578125 296.730469 L 336.285156 271.40625 L 340.902344 281.175781 L 282.09375 306.96875 C 281.53125 307.15625 267.414062 311.207031 248.996094 312.136719 C 232.554688 312.96875 217.90625 303.21875 213.117188 299.59375 C 210.570312 299.730469 208.582031 300.5 207.167969 301.90625 C 203.765625 305.207031 203.421875 311.613281 203.535156 313.59375 L 203.816406 316.824219 L 210.765625 323.09375 L 210.421875 325.84375 C 209.339844 335.0625 205.835938 341.0625 200.082031 343.675781 C 197.980469 344.582031 195.886719 344.96875 193.847656 344.96875 "/>
<path style=" stroke:none;fill-rule:evenodd;fill:url(#linear42);" d="M 193.816406 344.917969 C 187.75 344.917969 182.589844 341.667969 181.914062 341.199219 L 179.925781 339.886719 L 178.425781 330.738281 L 176.441406 330.46875 L 178.085938 319.824219 L 188.125 321.300781 L 190.050781 333.28125 C 191.746094 333.96875 193.960938 334.511719 195.429688 333.824219 C 197.019531 333.113281 198.269531 330.71875 199.0625 327.113281 L 193.160156 321.824219 L 192.535156 314.394531 C 192.421875 313.019531 191.859375 301.625 199.289062 294.363281 C 202.058594 291.605469 207.082031 288.417969 215.355469 288.855469 L 217.28125 288.90625 L 218.757812 290.175781 C 218.871094 290.3125 233.035156 302.230469 248.453125 301.40625 C 264.039062 300.636719 276.515625 297.363281 278.578125 296.730469 L 336.285156 271.40625 L 340.902344 281.175781 L 282.09375 306.96875 C 281.53125 307.15625 267.414062 311.207031 248.996094 312.136719 C 232.554688 312.96875 217.90625 303.21875 213.117188 299.59375 C 210.570312 299.730469 208.582031 300.5 207.167969 301.90625 C 203.765625 305.207031 203.421875 311.613281 203.535156 313.59375 L 203.816406 316.824219 L 210.765625 323.09375 L 210.421875 325.84375 C 209.339844 335.0625 205.835938 341.0625 200.082031 343.675781 C 197.980469 344.582031 195.886719 344.96875 193.847656 344.96875 "/>
<path style=" stroke:none;fill-rule:evenodd;fill:rgb(99.215686%,78.823529%,5.098039%);fill-opacity:1;" d="M 577.734375 117.480469 L 553.367188 137.207031 C 528 156.949219 514.824219 135.011719 514.824219 135.011719 L 496.855469 129.582031 L 387.40625 239.011719 C 387.40625 239.011719 453.300781 235.15625 474.691406 210.3125 C 474.691406 210.3125 489.230469 196.824219 496.148438 164.542969 C 496.148438 164.542969 522.867188 161.84375 528.457031 161.84375 C 577.703125 161.84375 584.625 141.644531 584.625 141.644531 L 577.703125 117.425781 "/>
<path style=" stroke:none;fill-rule:evenodd;fill:url(#linear43);" d="M 577.734375 117.480469 L 553.367188 137.207031 C 528 156.949219 514.824219 135.011719 514.824219 135.011719 L 496.855469 129.582031 L 387.40625 239.011719 C 387.40625 239.011719 453.300781 235.15625 474.691406 210.3125 C 474.691406 210.3125 489.230469 196.824219 496.148438 164.542969 C 496.148438 164.542969 522.867188 161.84375 528.457031 161.84375 C 577.703125 161.84375 584.625 141.644531 584.625 141.644531 L 577.703125 117.425781 "/>
<path style=" stroke:none;fill-rule:evenodd;fill:rgb(99.215686%,78.823529%,5.098039%);fill-opacity:1;" d="M 301.820312 350.886719 C 287.734375 350.886719 269.847656 349.042969 258.796875 340.980469 C 239.046875 326.5625 228.589844 303.199219 228.132812 302.175781 L 233.230469 300.0625 C 233.324219 300.332031 243.554688 323.175781 262.085938 336.667969 C 280.285156 349.925781 321.800781 344.261719 322.246094 344.199219 L 323.015625 349.542969 C 322.164062 349.65625 313.238281 350.917969 301.757812 350.917969 "/>
<path style=" stroke:none;fill-rule:evenodd;fill:url(#linear44);" d="M 301.820312 350.886719 C 287.734375 350.886719 269.847656 349.042969 258.796875 340.980469 C 239.046875 326.5625 228.589844 303.199219 228.132812 302.175781 L 233.230469 300.0625 C 233.324219 300.332031 243.554688 323.175781 262.085938 336.667969 C 280.285156 349.925781 321.800781 344.261719 322.246094 344.199219 L 323.015625 349.542969 C 322.164062 349.65625 313.238281 350.917969 301.757812 350.917969 "/>
<path style=" stroke:none;fill-rule:evenodd;fill:rgb(99.215686%,78.823529%,5.098039%);fill-opacity:1;" d="M 309.4375 350.582031 C 309.4375 350.582031 319.21875 332.75 334.378906 348.21875 C 349.601562 363.6875 309.4375 350.582031 309.4375 350.582031 Z M 309.4375 350.582031 "/>
<path style=" stroke:none;fill-rule:evenodd;fill:url(#linear45);" d="M 309.4375 350.582031 C 309.4375 350.582031 319.21875 332.75 334.378906 348.21875 C 349.601562 363.6875 309.4375 350.582031 309.4375 350.582031 Z M 309.4375 350.582031 "/>
<path style=" stroke:none;fill-rule:evenodd;fill:rgb(99.215686%,78.823529%,5.098039%);fill-opacity:1;" d="M 318.742188 201.332031 C 318.742188 201.332031 333.640625 207.832031 337.15625 219.71875 Z M 318.742188 201.332031 "/>
<path style=" stroke:none;fill-rule:evenodd;fill:url(#linear46);" d="M 318.742188 201.332031 C 318.742188 201.332031 333.640625 207.832031 337.15625 219.71875 Z M 318.742188 201.332031 "/>
<path style=" stroke:none;fill-rule:evenodd;fill:rgb(99.215686%,78.823529%,5.098039%);fill-opacity:1;" d="M 601.855469 36.949219 L 600.148438 29.15625 L 593.351562 33.613281 C 569.265625 49.300781 539.789062 66.5625 534.179688 67 C 524.398438 67 498.238281 68.925781 497.105469 69.042969 L 496.347656 69.144531 C 478.542969 73.113281 468.710938 79.519531 466.304688 88.800781 C 463.839844 98.292969 470.5 106.636719 474.070312 110.269531 C 473.050781 131.730469 458.199219 150.03125 453.519531 155.261719 C 431.042969 157 418.808594 172.792969 413.988281 180.78125 C 370.828125 167.292969 325.847656 191.019531 317.210938 195.917969 L 275.890625 195.917969 L 275.175781 195.96875 C 273.199219 196.1875 227.570312 202.019531 204.105469 214.488281 C 187.78125 223.15625 183.503906 239.09375 182.570312 250.050781 C 174.710938 245.15625 162.808594 239.59375 150.625 241.050781 C 140.707031 242.207031 132.34375 247.574219 125.828125 257.011719 C 122.3125 262.238281 117.246094 278.480469 121.011719 294.386719 C 123.789062 306.03125 130.875 315.386719 141.5 321.4375 L 147.085938 312.082031 C 139.035156 307.542969 133.933594 300.75 131.863281 291.9375 C 128.835938 279.332031 132.945312 266.125 135.101562 262.988281 C 139.773438 256.1875 145.246094 252.53125 151.925781 251.699219 C 167.605469 249.855469 184.378906 264.71875 184.578125 264.855469 L 195.90625 275.042969 L 193.816406 260.175781 C 193.816406 259.90625 190.300781 234.03125 209.402344 223.925781 C 230.035156 212.980469 272.03125 207.199219 276.289062 206.644531 L 320.324219 206.644531 L 321.683594 205.824219 C 322.164062 205.488281 371.566406 176.09375 414.695312 192.332031 L 419.660156 194.207031 L 421.78125 189.449219 C 422.210938 188.511719 432.15625 166.605469 456.265625 165.78125 L 458.480469 165.71875 L 460.011719 164.15625 C 461.03125 163.136719 485.085938 138.699219 485.085938 107.957031 L 485.085938 105.480469 L 483.195312 103.886719 C 481.550781 102.5 475.679688 96.261719 476.960938 91.332031 C 477.667969 88.582031 481.40625 83.457031 498.355469 79.636719 C 501.757812 79.355469 525.449219 77.707031 534.148438 77.707031 C 541.285156 77.707031 562.117188 65.824219 579.628906 55.03125 C 574.019531 60.980469 565.601562 68.59375 552.992188 78.09375 C 551.492188 79.199219 550.527344 79.90625 550.160156 80.125 L 547.464844 82.167969 L 548.320312 88.355469 L 551.234375 89.574219 C 553.417969 90.394531 554.75 90.125 556.902344 88.738281 C 557.695312 88.199219 558.609375 87.480469 559.746094 86.625 C 601.96875 54.980469 602.613281 40.582031 601.855469 36.917969 "/>
<path style=" stroke:none;fill-rule:evenodd;fill:url(#linear47);" d="M 601.855469 36.949219 L 600.148438 29.15625 L 593.351562 33.613281 C 569.265625 49.300781 539.789062 66.5625 534.179688 67 C 524.398438 67 498.238281 68.925781 497.105469 69.042969 L 496.347656 69.144531 C 478.542969 73.113281 468.710938 79.519531 466.304688 88.800781 C 463.839844 98.292969 470.5 106.636719 474.070312 110.269531 C 473.050781 131.730469 458.199219 150.03125 453.519531 155.261719 C 431.042969 157 418.808594 172.792969 413.988281 180.78125 C 370.828125 167.292969 325.847656 191.019531 317.210938 195.917969 L 275.890625 195.917969 L 275.175781 195.96875 C 273.199219 196.1875 227.570312 202.019531 204.105469 214.488281 C 187.78125 223.15625 183.503906 239.09375 182.570312 250.050781 C 174.710938 245.15625 162.808594 239.59375 150.625 241.050781 C 140.707031 242.207031 132.34375 247.574219 125.828125 257.011719 C 122.3125 262.238281 117.246094 278.480469 121.011719 294.386719 C 123.789062 306.03125 130.875 315.386719 141.5 321.4375 L 147.085938 312.082031 C 139.035156 307.542969 133.933594 300.75 131.863281 291.9375 C 128.835938 279.332031 132.945312 266.125 135.101562 262.988281 C 139.773438 256.1875 145.246094 252.53125 151.925781 251.699219 C 167.605469 249.855469 184.378906 264.71875 184.578125 264.855469 L 195.90625 275.042969 L 193.816406 260.175781 C 193.816406 259.90625 190.300781 234.03125 209.402344 223.925781 C 230.035156 212.980469 272.03125 207.199219 276.289062 206.644531 L 320.324219 206.644531 L 321.683594 205.824219 C 322.164062 205.488281 371.566406 176.09375 414.695312 192.332031 L 419.660156 194.207031 L 421.78125 189.449219 C 422.210938 188.511719 432.15625 166.605469 456.265625 165.78125 L 458.480469 165.71875 L 460.011719 164.15625 C 461.03125 163.136719 485.085938 138.699219 485.085938 107.957031 L 485.085938 105.480469 L 483.195312 103.886719 C 481.550781 102.5 475.679688 96.261719 476.960938 91.332031 C 477.667969 88.582031 481.40625 83.457031 498.355469 79.636719 C 501.757812 79.355469 525.449219 77.707031 534.148438 77.707031 C 541.285156 77.707031 562.117188 65.824219 579.628906 55.03125 C 574.019531 60.980469 565.601562 68.59375 552.992188 78.09375 C 551.492188 79.199219 550.527344 79.90625 550.160156 80.125 L 547.464844 82.167969 L 548.320312 88.355469 L 551.234375 89.574219 C 553.417969 90.394531 554.75 90.125 556.902344 88.738281 C 557.695312 88.199219 558.609375 87.480469 559.746094 86.625 C 601.96875 54.980469 602.613281 40.582031 601.855469 36.917969 "/>
<path style=" stroke:none;fill-rule:evenodd;fill:rgb(99.215686%,78.823529%,5.098039%);fill-opacity:1;" d="M 362.972656 258.21875 L 356.742188 249.332031 L 376.636719 236.230469 C 415.007812 221.644531 437.402344 204.25 440.167969 202.019531 L 475.253906 162.175781 L 504.847656 93.144531 L 510.800781 91.03125 C 516.242188 90.53125 523.066406 86.957031 527.519531 84.613281 C 530.632812 82.96875 532.566406 81.96875 534.40625 81.667969 L 553.5625 78.511719 L 555.457031 89.105469 L 536.269531 92.269531 C 536.050781 92.375 534.292969 93.363281 532.785156 94.082031 C 527.800781 96.699219 520.433594 100.582031 513.234375 101.59375 L 484.246094 168.480469 L 447.679688 209.863281 C 446.746094 210.699219 423.675781 229.769531 381.253906 246.03125 L 362.972656 258.144531 "/>
<path style=" stroke:none;fill-rule:evenodd;fill:url(#linear48);" d="M 362.972656 258.21875 L 356.742188 249.332031 L 376.636719 236.230469 C 415.007812 221.644531 437.402344 204.25 440.167969 202.019531 L 475.253906 162.175781 L 504.847656 93.144531 L 510.800781 91.03125 C 516.242188 90.53125 523.066406 86.957031 527.519531 84.613281 C 530.632812 82.96875 532.566406 81.96875 534.40625 81.667969 L 553.5625 78.511719 L 555.457031 89.105469 L 536.269531 92.269531 C 536.050781 92.375 534.292969 93.363281 532.785156 94.082031 C 527.800781 96.699219 520.433594 100.582031 513.234375 101.59375 L 484.246094 168.480469 L 447.679688 209.863281 C 446.746094 210.699219 423.675781 229.769531 381.253906 246.03125 L 362.972656 258.144531 "/>
<path style=" stroke:none;fill-rule:evenodd;fill:rgb(99.215686%,78.823529%,5.098039%);fill-opacity:1;" d="M 430.285156 312.582031 C 430.285156 348.5 404.488281 333.65625 404.488281 333.65625 L 390.609375 319.355469 C 390.609375 319.355469 342.371094 281.730469 331.007812 280.675781 C 306.773438 278.53125 273.394531 256.019531 252.398438 264.605469 C 250.578125 265.375 248.847656 266.042969 247.152344 266.613281 C 205.949219 281.144531 201.660156 252.96875 201.660156 252.96875 C 201.660156 252.96875 197.980469 224.292969 254.238281 223.386719 C 310.457031 222.449219 364.816406 253.824219 364.816406 253.824219 L 398.945312 305.832031 C 398.945312 305.832031 411.867188 307.207031 415.550781 317.0625 C 415.550781 317.0625 430.285156 304.488281 430.285156 312.582031 Z M 430.285156 312.582031 "/>
<path style=" stroke:none;fill-rule:evenodd;fill:url(#linear49);" d="M 430.285156 312.582031 C 430.285156 348.5 404.488281 333.65625 404.488281 333.65625 L 390.609375 319.355469 C 390.609375 319.355469 342.371094 281.730469 331.007812 280.675781 C 306.773438 278.53125 273.394531 256.019531 252.398438 264.605469 C 250.578125 265.375 248.847656 266.042969 247.152344 266.613281 C 205.949219 281.144531 201.660156 252.96875 201.660156 252.96875 C 201.660156 252.96875 197.980469 224.292969 254.238281 223.386719 C 310.457031 222.449219 364.816406 253.824219 364.816406 253.824219 L 398.945312 305.832031 C 398.945312 305.832031 411.867188 307.207031 415.550781 317.0625 C 415.550781 317.0625 430.285156 304.488281 430.285156 312.582031 Z M 430.285156 312.582031 "/>
<path style=" stroke:none;fill-rule:evenodd;fill:rgb(99.215686%,78.823529%,5.098039%);fill-opacity:1;" d="M 597.910156 40.71875 C 597.910156 40.71875 545.34375 75.042969 535.707031 75.042969 C 525.992188 75.042969 499.0625 77.050781 499.0625 77.050781 C 453.433594 87.144531 481.070312 110.675781 481.070312 110.675781 C 481.070312 139.574219 457.546875 163.136719 457.546875 163.136719 C 429.492188 164.019531 418.152344 190.050781 418.152344 190.050781 C 371.847656 172.550781 320.238281 203.949219 320.238281 203.949219 L 277.359375 203.949219 C 277.359375 203.949219 231.027344 209.730469 208.21875 221.84375 C 185.429688 233.949219 189.789062 263.5625 189.789062 263.5625 C 189.789062 263.5625 153.664062 231.011719 131.980469 262.6875 C 127.441406 269.230469 118.710938 302.042969 143.933594 318.199219 L 143.652344 314.5625 L 156.410156 306.988281 L 170.238281 312.886719 L 175.253906 325.65625 L 174.773438 326.75 L 178.792969 327.738281 L 184.742188 328.675781 L 184.316406 342.113281 C 184.316406 342.113281 203.679688 350.644531 206.425781 327.738281 L 199.996094 321.96875 L 199.507812 316.574219 C 199.507812 316.574219 198.09375 295.925781 216.574219 296.8125 C 216.574219 296.8125 232.242188 310.292969 250.210938 309.386719 C 268.183594 308.425781 282.011719 304.4375 282.011719 304.4375 L 340.101562 278.832031 L 365.417969 254.175781 L 380.152344 243.855469 C 422.542969 227.699219 445.609375 208.40625 445.609375 208.40625 L 481.582031 167.675781 L 510.621094 99.917969 L 512.890625 99.042969 C 522.621094 98.125 534.148438 90.0625 536.894531 89.59375 L 556.050781 86.425781 L 557.894531 85.050781 C 600.6875 52.96875 597.992188 40.75 597.992188 40.75 "/>
<path style=" stroke:none;fill-rule:evenodd;fill:url(#linear50);" d="M 597.910156 40.71875 C 597.910156 40.71875 545.34375 75.042969 535.707031 75.042969 C 525.992188 75.042969 499.0625 77.050781 499.0625 77.050781 C 453.433594 87.144531 481.070312 110.675781 481.070312 110.675781 C 481.070312 139.574219 457.546875 163.136719 457.546875 163.136719 C 429.492188 164.019531 418.152344 190.050781 418.152344 190.050781 C 371.847656 172.550781 320.238281 203.949219 320.238281 203.949219 L 277.359375 203.949219 C 277.359375 203.949219 231.027344 209.730469 208.21875 221.84375 C 185.429688 233.949219 189.789062 263.5625 189.789062 263.5625 C 189.789062 263.5625 153.664062 231.011719 131.980469 262.6875 C 127.441406 269.230469 118.710938 302.042969 143.933594 318.199219 L 143.652344 314.5625 L 156.410156 306.988281 L 170.238281 312.886719 L 175.253906 325.65625 L 174.773438 326.75 L 178.792969 327.738281 L 184.742188 328.675781 L 184.316406 342.113281 C 184.316406 342.113281 203.679688 350.644531 206.425781 327.738281 L 199.996094 321.96875 L 199.507812 316.574219 C 199.507812 316.574219 198.09375 295.925781 216.574219 296.8125 C 216.574219 296.8125 232.242188 310.292969 250.210938 309.386719 C 268.183594 308.425781 282.011719 304.4375 282.011719 304.4375 L 340.101562 278.832031 L 365.417969 254.175781 L 380.152344 243.855469 C 422.542969 227.699219 445.609375 208.40625 445.609375 208.40625 L 481.582031 167.675781 L 510.621094 99.917969 L 512.890625 99.042969 C 522.621094 98.125 534.148438 90.0625 536.894531 89.59375 L 556.050781 86.425781 L 557.894531 85.050781 C 600.6875 52.96875 597.992188 40.75 597.992188 40.75 "/>
<path style=" stroke:none;fill-rule:evenodd;fill:rgb(99.215686%,78.823529%,5.098039%);fill-opacity:1;" d="M 466.328125 299.980469 C 444.683594 392.28125 359.664062 461.363281 258.371094 461.363281 C 140.761719 461.363281 45.085938 368.261719 45.085938 253.792969 C 45.085938 139.355469 140.761719 46.21875 258.371094 46.21875 C 304.851562 46.21875 347.925781 60.8125 383.011719 85.46875 C 390.660156 72.949219 399.535156 60.863281 410.109375 50.4375 C 367.457031 20.15625 315.027344 2.269531 258.371094 2.269531 C 115.914062 2.269531 0 115.113281 0 253.707031 C 0 392.363281 115.914062 505.175781 258.371094 505.175781 C 384.886719 505.175781 490.476562 416.199219 512.496094 299.175781 C 497.304688 301.050781 481.207031 300.550781 466.359375 299.917969 "/>
<path style=" stroke:none;fill-rule:evenodd;fill:url(#linear51);" d="M 466.328125 299.980469 C 444.683594 392.28125 359.664062 461.363281 258.371094 461.363281 C 140.761719 461.363281 45.085938 368.261719 45.085938 253.792969 C 45.085938 139.355469 140.761719 46.21875 258.371094 46.21875 C 304.851562 46.21875 347.925781 60.8125 383.011719 85.46875 C 390.660156 72.949219 399.535156 60.863281 410.109375 50.4375 C 367.457031 20.15625 315.027344 2.269531 258.371094 2.269531 C 115.914062 2.269531 0 115.113281 0 253.707031 C 0 392.363281 115.914062 505.175781 258.371094 505.175781 C 384.886719 505.175781 490.476562 416.199219 512.496094 299.175781 C 497.304688 301.050781 481.207031 300.550781 466.359375 299.917969 "/>
</g>
</svg>
