<svg width="144" height="144" viewBox="0 0 144 144" fill="none" xmlns="http://www.w3.org/2000/svg">
<path fill-rule="evenodd" clip-rule="evenodd" d="M83.9306 47.9526C84.8682 50.9494 83.4447 54.0296 80.7424 54.8249L51.5968 63.398C48.897 64.1907 45.9493 62.4015 45.0118 59.3973C44.0766 56.3883 45.5075 53.3154 48.2073 52.5251L77.3529 43.9446C80.0601 43.147 82.9955 44.9436 83.9306 47.9526Z" fill="#FDC90D"/>
<path fill-rule="evenodd" clip-rule="evenodd" d="M83.9306 47.9526C84.8682 50.9494 83.4447 54.0296 80.7424 54.8249L51.5968 63.398C48.897 64.1907 45.9493 62.4015 45.0118 59.3973C44.0766 56.3883 45.5075 53.3154 48.2073 52.5251L77.3529 43.9446C80.0601 43.147 82.9955 44.9436 83.9306 47.9526Z" fill="url(#paint0_linear_1_1594)"/>
<path fill-rule="evenodd" clip-rule="evenodd" d="M44.538 57.2007L42.2997 57.8487C41.2025 58.1726 40.6282 59.417 41.0087 60.6368C41.3891 61.8493 42.5794 62.5684 43.6618 62.2444L45.9076 61.5842C45.4265 61.0001 45.0387 60.2858 44.7933 59.5078C44.5454 58.7298 44.457 57.9517 44.5258 57.2007" fill="#FDC90D"/>
<path fill-rule="evenodd" clip-rule="evenodd" d="M44.538 57.2007L42.2997 57.8487C41.2025 58.1726 40.6282 59.417 41.0087 60.6368C41.3891 61.8493 42.5794 62.5684 43.6618 62.2444L45.9076 61.5842C45.4265 61.0001 45.0387 60.2858 44.7933 59.5078C44.5454 58.7298 44.457 57.9517 44.5258 57.2007" fill="url(#paint1_linear_1_1594)"/>
<path fill-rule="evenodd" clip-rule="evenodd" d="M46.4353 72.5159C46.4696 72.4325 46.5506 72.3858 46.6365 72.4006C46.7298 72.4325 46.7715 72.5282 46.7568 72.5945L46.2684 74.1309C46.2291 74.2143 46.1358 74.261 46.0548 74.2291C45.9616 74.2094 45.9076 74.1186 45.9419 74.0327L46.4353 72.5159Z" fill="#FDC90D"/>
<path fill-rule="evenodd" clip-rule="evenodd" d="M46.4353 72.5159C46.4696 72.4325 46.5506 72.3858 46.6365 72.4006C46.7298 72.4325 46.7715 72.5282 46.7568 72.5945L46.2684 74.1309C46.2291 74.2143 46.1358 74.261 46.0548 74.2291C45.9616 74.2094 45.9076 74.1186 45.9419 74.0327L46.4353 72.5159Z" fill="url(#paint2_linear_1_1594)"/>
<path fill-rule="evenodd" clip-rule="evenodd" d="M45.3602 72.0938C45.3946 72.003 45.4952 71.9662 45.5811 72.003C45.6474 72.0374 45.6891 72.1331 45.667 72.1993L44.9994 73.6646C44.9602 73.748 44.8448 73.7947 44.7785 73.7431C44.6926 73.7161 44.6583 73.6131 44.6976 73.5468L45.3529 72.0889" fill="#FDC90D"/>
<path fill-rule="evenodd" clip-rule="evenodd" d="M45.3602 72.0938C45.3946 72.003 45.4952 71.9662 45.5811 72.003C45.6474 72.0374 45.6891 72.1331 45.667 72.1993L44.9994 73.6646C44.9602 73.748 44.8448 73.7947 44.7785 73.7431C44.6926 73.7161 44.6583 73.6131 44.6976 73.5468L45.3529 72.0889" fill="url(#paint3_linear_1_1594)"/>
<path fill-rule="evenodd" clip-rule="evenodd" d="M44.3171 71.5562C44.3638 71.4777 44.4521 71.4458 44.5454 71.4924C44.6313 71.5366 44.6509 71.6348 44.6116 71.7133L43.8091 73.1C43.7551 73.1786 43.6422 73.2031 43.5759 73.1516C43.4875 73.1123 43.463 73.0215 43.5096 72.9454L44.3245 71.5636" fill="#FDC90D"/>
<path fill-rule="evenodd" clip-rule="evenodd" d="M44.3171 71.5562C44.3638 71.4777 44.4521 71.4458 44.5454 71.4924C44.6313 71.5366 44.6509 71.6348 44.6116 71.7133L43.8091 73.1C43.7551 73.1786 43.6422 73.2031 43.5759 73.1516C43.4875 73.1123 43.463 73.0215 43.5096 72.9454L44.3245 71.5636" fill="url(#paint4_linear_1_1594)"/>
<path fill-rule="evenodd" clip-rule="evenodd" d="M43.3551 70.9329C43.4017 70.8568 43.5023 70.8372 43.5833 70.8887C43.6496 70.9403 43.6496 71.0384 43.6226 71.117L42.6605 72.4129C42.5917 72.4767 42.4936 72.4963 42.4248 72.4448C42.3586 72.3932 42.3389 72.2951 42.3929 72.2313L43.3551 70.9329Z" fill="#FDC90D"/>
<path fill-rule="evenodd" clip-rule="evenodd" d="M43.3551 70.9329C43.4017 70.8568 43.5023 70.8372 43.5833 70.8887C43.6496 70.9403 43.6496 71.0384 43.6226 71.117L42.6605 72.4129C42.5917 72.4767 42.4936 72.4963 42.4248 72.4448C42.3586 72.3932 42.3389 72.2951 42.3929 72.2313L43.3551 70.9329Z" fill="url(#paint5_linear_1_1594)"/>
<path fill-rule="evenodd" clip-rule="evenodd" d="M42.4665 70.2284C42.5132 70.1499 42.6138 70.1425 42.6801 70.2014C42.7463 70.2653 42.7463 70.3708 42.707 70.4346L41.6369 71.6397C41.5707 71.706 41.4504 71.706 41.3964 71.6397C41.3301 71.5955 41.3154 71.4924 41.3817 71.4335L42.4518 70.2334" fill="#FDC90D"/>
<path fill-rule="evenodd" clip-rule="evenodd" d="M42.4665 70.2284C42.5132 70.1499 42.6138 70.1425 42.6801 70.2014C42.7463 70.2653 42.7463 70.3708 42.707 70.4346L41.6369 71.6397C41.5707 71.706 41.4504 71.706 41.3964 71.6397C41.3301 71.5955 41.3154 71.4924 41.3817 71.4335L42.4518 70.2334" fill="url(#paint6_linear_1_1594)"/>
<path fill-rule="evenodd" clip-rule="evenodd" d="M41.6369 69.4431C41.7032 69.3768 41.8038 69.3768 41.8775 69.4431C41.9437 69.5069 41.9315 69.6124 41.8775 69.6762L40.6871 70.7782C40.6208 70.8445 40.5079 70.8298 40.4539 70.7782C40.3877 70.7144 40.3877 70.604 40.4539 70.5524L41.6296 69.448" fill="#FDC90D"/>
<path fill-rule="evenodd" clip-rule="evenodd" d="M41.6369 69.4431C41.7032 69.3768 41.8038 69.3768 41.8775 69.4431C41.9437 69.5069 41.9315 69.6124 41.8775 69.6762L40.6871 70.7782C40.6208 70.8445 40.5079 70.8298 40.4539 70.7782C40.3877 70.7144 40.3877 70.604 40.4539 70.5524L41.6296 69.448" fill="url(#paint7_linear_1_1594)"/>
<path fill-rule="evenodd" clip-rule="evenodd" d="M40.9277 68.6184C40.9939 68.5546 41.0897 68.5669 41.1559 68.6454C41.2026 68.7092 41.1903 68.8147 41.1289 68.8712L39.8453 69.8652C39.7643 69.929 39.6637 69.902 39.6121 69.8382C39.5434 69.7744 39.5655 69.6689 39.6391 69.6173L40.9228 68.6258" fill="#FDC90D"/>
<path fill-rule="evenodd" clip-rule="evenodd" d="M40.9277 68.6184C40.9939 68.5546 41.0897 68.5669 41.1559 68.6454C41.2026 68.7092 41.1903 68.8147 41.1289 68.8712L39.8453 69.8652C39.7643 69.929 39.6637 69.902 39.6121 69.8382C39.5434 69.7744 39.5655 69.6689 39.6391 69.6173L40.9228 68.6258" fill="url(#paint8_linear_1_1594)"/>
<path fill-rule="evenodd" clip-rule="evenodd" d="M40.2944 67.7569C40.3729 67.7054 40.4809 67.725 40.5276 67.7962C40.5742 67.8723 40.5472 67.9705 40.4809 68.022L39.1163 68.8982C39.0157 68.9424 38.915 68.9179 38.8758 68.8467C38.8095 68.7681 38.8414 68.6773 38.915 68.6331L40.287 67.7496" fill="#FDC90D"/>
<path fill-rule="evenodd" clip-rule="evenodd" d="M40.2944 67.7569C40.3729 67.7054 40.4809 67.725 40.5276 67.7962C40.5742 67.8723 40.5472 67.9705 40.4809 68.022L39.1163 68.8982C39.0157 68.9424 38.915 68.9179 38.8758 68.8467C38.8095 68.7681 38.8414 68.6773 38.915 68.6331L40.287 67.7496" fill="url(#paint9_linear_1_1594)"/>
<path fill-rule="evenodd" clip-rule="evenodd" d="M39.7913 66.8758C39.8575 66.8218 39.9582 66.8562 40.0122 66.9396C40.0465 67.0034 40.0122 67.109 39.9312 67.1531L38.4954 67.9066C38.407 67.9459 38.2941 67.9066 38.2671 67.8404C38.2352 67.7569 38.2671 67.6587 38.3334 67.6195L39.806 66.8807" fill="#FDC90D"/>
<path fill-rule="evenodd" clip-rule="evenodd" d="M39.7913 66.8758C39.8575 66.8218 39.9582 66.8562 40.0122 66.9396C40.0465 67.0034 40.0122 67.109 39.9312 67.1531L38.4954 67.9066C38.407 67.9459 38.2941 67.9066 38.2671 67.8404C38.2352 67.7569 38.2671 67.6587 38.3334 67.6195L39.806 66.8807" fill="url(#paint10_linear_1_1594)"/>
<path fill-rule="evenodd" clip-rule="evenodd" d="M39.3765 65.9799C39.4649 65.948 39.5655 65.9799 39.5974 66.0707C39.6391 66.1542 39.5851 66.245 39.5115 66.2769L37.9873 66.8758C37.8941 66.9126 37.8008 66.8758 37.7664 66.785C37.7321 66.7064 37.7787 66.6156 37.8597 66.5886L39.3839 65.9873" fill="#FDC90D"/>
<path fill-rule="evenodd" clip-rule="evenodd" d="M39.3765 65.9799C39.4649 65.948 39.5655 65.9799 39.5974 66.0707C39.6391 66.1542 39.5851 66.245 39.5115 66.2769L37.9873 66.8758C37.8941 66.9126 37.8008 66.8758 37.7664 66.785C37.7321 66.7064 37.7787 66.6156 37.8597 66.5886L39.3839 65.9873" fill="url(#paint11_linear_1_1594)"/>
<path fill-rule="evenodd" clip-rule="evenodd" d="M39.0967 65.1185C39.1899 65.0841 39.2709 65.1357 39.2979 65.2265C39.3249 65.3124 39.2636 65.3958 39.1826 65.4228L37.5921 65.8499C37.5062 65.8695 37.413 65.818 37.3909 65.7345C37.3713 65.6486 37.4252 65.5652 37.5062 65.5382L39.0844 65.1185" fill="#FDC90D"/>
<path fill-rule="evenodd" clip-rule="evenodd" d="M39.0967 65.1185C39.1899 65.0841 39.2709 65.1357 39.2979 65.2265C39.3249 65.3124 39.2636 65.3958 39.1826 65.4228L37.5921 65.8499C37.5062 65.8695 37.413 65.818 37.3909 65.7345C37.3713 65.6486 37.4252 65.5652 37.5062 65.5382L39.0844 65.1185" fill="url(#paint12_linear_1_1594)"/>
<path fill-rule="evenodd" clip-rule="evenodd" d="M38.9372 64.2815C39.0231 64.2619 39.109 64.3257 39.1237 64.4116C39.136 64.5024 39.0771 64.5785 38.9887 64.5908L37.3664 64.8264C37.2658 64.8264 37.1774 64.7601 37.1651 64.6841C37.1504 64.5982 37.2314 64.5147 37.3124 64.5073L38.9372 64.2815Z" fill="#FDC90D"/>
<path fill-rule="evenodd" clip-rule="evenodd" d="M38.9372 64.2815C39.0231 64.2619 39.109 64.3257 39.1237 64.4116C39.136 64.5024 39.0771 64.5785 38.9887 64.5908L37.3664 64.8264C37.2658 64.8264 37.1774 64.7601 37.1651 64.6841C37.1504 64.5982 37.2314 64.5147 37.3124 64.5073L38.9372 64.2815Z" fill="url(#paint13_linear_1_1594)"/>
<path fill-rule="evenodd" clip-rule="evenodd" d="M38.9028 63.4962C38.996 63.4962 39.0697 63.56 39.077 63.6508C39.077 63.749 38.9887 63.8128 38.9028 63.8201H37.2583C37.1651 63.8201 37.0988 63.7367 37.0988 63.6508C37.0988 63.56 37.1774 63.4962 37.2657 63.4962H38.915" fill="#FDC90D"/>
<path fill-rule="evenodd" clip-rule="evenodd" d="M38.9028 63.4962C38.996 63.4962 39.0697 63.56 39.077 63.6508C39.077 63.749 38.9887 63.8128 38.9028 63.8201H37.2583C37.1651 63.8201 37.0988 63.7367 37.0988 63.6508C37.0988 63.56 37.1774 63.4962 37.2657 63.4962H38.915" fill="url(#paint14_linear_1_1594)"/>
<path fill-rule="evenodd" clip-rule="evenodd" d="M38.9886 62.7819C39.0893 62.7966 39.1433 62.8801 39.1236 62.9782C39.1236 63.0543 39.0156 63.1059 38.9371 63.0936L37.332 62.8212C37.2313 62.8015 37.1724 62.7107 37.197 62.6273C37.197 62.5438 37.2927 62.4972 37.3786 62.4972L38.9886 62.7819Z" fill="#FDC90D"/>
<path fill-rule="evenodd" clip-rule="evenodd" d="M38.9886 62.7819C39.0893 62.7966 39.1433 62.8801 39.1236 62.9782C39.1236 63.0543 39.0156 63.1059 38.9371 63.0936L37.332 62.8212C37.2313 62.8015 37.1724 62.7107 37.197 62.6273C37.197 62.5438 37.2927 62.4972 37.3786 62.4972L38.9886 62.7819Z" fill="url(#paint15_linear_1_1594)"/>
<path fill-rule="evenodd" clip-rule="evenodd" d="M39.2047 62.1536C39.2979 62.1855 39.3372 62.2837 39.3028 62.3622C39.2636 62.4457 39.1703 62.4776 39.0893 62.453L37.5529 61.8689C37.4719 61.837 37.4326 61.7388 37.4645 61.675C37.4989 61.5842 37.5995 61.5449 37.6805 61.5768L39.2047 62.1536Z" fill="#FDC90D"/>
<path fill-rule="evenodd" clip-rule="evenodd" d="M39.2047 62.1536C39.2979 62.1855 39.3372 62.2837 39.3028 62.3622C39.2636 62.4457 39.1703 62.4776 39.0893 62.453L37.5529 61.8689C37.4719 61.837 37.4326 61.7388 37.4645 61.675C37.4989 61.5842 37.5995 61.5449 37.6805 61.5768L39.2047 62.1536Z" fill="url(#paint16_linear_1_1594)"/>
<path fill-rule="evenodd" clip-rule="evenodd" d="M39.5433 61.621C39.6243 61.6677 39.6317 61.7707 39.5851 61.8419C39.5188 61.9082 39.4231 61.9278 39.3445 61.8885L37.9873 60.9804C37.921 60.9338 37.894 60.8307 37.9455 60.7595C37.9946 60.6957 38.1002 60.6761 38.1738 60.7203L39.5433 61.621Z" fill="#FDC90D"/>
<path fill-rule="evenodd" clip-rule="evenodd" d="M39.5433 61.621C39.6243 61.6677 39.6317 61.7707 39.5851 61.8419C39.5188 61.9082 39.4231 61.9278 39.3445 61.8885L37.9873 60.9804C37.921 60.9338 37.894 60.8307 37.9455 60.7595C37.9946 60.6957 38.1002 60.6761 38.1738 60.7203L39.5433 61.621Z" fill="url(#paint17_linear_1_1594)"/>
<path fill-rule="evenodd" clip-rule="evenodd" d="M39.9926 61.1669C40.0589 61.2332 40.0466 61.3314 39.9779 61.3952C39.9116 61.459 39.811 61.4467 39.7447 61.3829L38.628 60.2147C38.5617 60.1508 38.5813 60.0527 38.6427 59.9938C38.709 59.9299 38.8096 59.9422 38.8636 59.9938L40 61.1743" fill="#FDC90D"/>
<path fill-rule="evenodd" clip-rule="evenodd" d="M39.9926 61.1669C40.0589 61.2332 40.0466 61.3314 39.9779 61.3952C39.9116 61.459 39.811 61.4467 39.7447 61.3829L38.628 60.2147C38.5617 60.1508 38.5813 60.0527 38.6427 59.9938C38.709 59.9299 38.8096 59.9422 38.8636 59.9938L40 61.1743" fill="url(#paint18_linear_1_1594)"/>
<path fill-rule="evenodd" clip-rule="evenodd" d="M40.5742 60.7914C40.6282 60.8773 40.5939 60.9682 40.5202 61.0197C40.4196 61.059 40.319 61.032 40.2871 60.9534L39.4575 59.5741C39.4182 59.4882 39.4575 59.3974 39.5238 59.3458C39.6047 59.3066 39.7054 59.3458 39.7446 59.4121L40.5742 60.7914Z" fill="#FDC90D"/>
<path fill-rule="evenodd" clip-rule="evenodd" d="M40.5742 60.7914C40.6282 60.8773 40.5939 60.9682 40.5202 61.0197C40.4196 61.059 40.319 61.032 40.2871 60.9534L39.4575 59.5741C39.4182 59.4882 39.4575 59.3974 39.5238 59.3458C39.6047 59.3066 39.7054 59.3458 39.7446 59.4121L40.5742 60.7914Z" fill="url(#paint19_linear_1_1594)"/>
<path fill-rule="evenodd" clip-rule="evenodd" d="M41.3301 60.5067C41.362 60.5902 41.3031 60.6761 41.2221 60.7006C41.1362 60.7399 41.0479 60.6883 41.0209 60.6098L40.4858 59.093C40.4662 59.0022 40.5128 58.9187 40.6012 58.8844C40.6871 58.8598 40.7804 58.9114 40.8024 58.9899L41.335 60.5067" fill="#FDC90D"/>
<path fill-rule="evenodd" clip-rule="evenodd" d="M41.3301 60.5067C41.362 60.5902 41.3031 60.6761 41.2221 60.7006C41.1362 60.7399 41.0479 60.6883 41.0209 60.6098L40.4858 59.093C40.4662 59.0022 40.5128 58.9187 40.6012 58.8844C40.6871 58.8598 40.7804 58.9114 40.8024 58.9899L41.335 60.5067" fill="url(#paint20_linear_1_1594)"/>
<path fill-rule="evenodd" clip-rule="evenodd" d="M52.1589 83.0992C52.0926 83.1777 51.992 83.1826 51.9183 83.1188C51.8643 83.055 51.8717 82.9568 51.9183 82.8979L53.0547 81.7321C53.121 81.6781 53.2412 81.6781 53.283 81.7443C53.3615 81.7959 53.3615 81.9063 53.283 81.9652L52.1589 83.0992Z" fill="#FDC90D"/>
<path fill-rule="evenodd" clip-rule="evenodd" d="M52.1589 83.0992C52.0926 83.1777 51.992 83.1826 51.9183 83.1188C51.8643 83.055 51.8717 82.9568 51.9183 82.8979L53.0547 81.7321C53.121 81.6781 53.2412 81.6781 53.283 81.7443C53.3615 81.7959 53.3615 81.9063 53.283 81.9652L52.1589 83.0992Z" fill="url(#paint21_linear_1_1594)"/>
<path fill-rule="evenodd" clip-rule="evenodd" d="M52.9344 83.9606C52.8682 84.0269 52.7602 84.0146 52.6939 83.9435C52.6473 83.8772 52.6743 83.7815 52.7283 83.7226L53.9972 82.7236C54.0782 82.6574 54.1984 82.6844 54.2303 82.7482C54.2966 82.8145 54.2843 82.9175 54.2107 82.9691L52.9418 83.9606" fill="#FDC90D"/>
<path fill-rule="evenodd" clip-rule="evenodd" d="M52.9344 83.9606C52.8682 84.0269 52.7602 84.0146 52.6939 83.9435C52.6473 83.8772 52.6743 83.7815 52.7283 83.7226L53.9972 82.7236C54.0782 82.6574 54.1984 82.6844 54.2303 82.7482C54.2966 82.8145 54.2843 82.9175 54.2107 82.9691L52.9418 83.9606" fill="url(#paint22_linear_1_1594)"/>
<path fill-rule="evenodd" clip-rule="evenodd" d="M53.4768 84.7657C53.4081 84.8172 53.3075 84.7976 53.2486 84.7215C53.2093 84.643 53.2486 84.5448 53.3148 84.5006L54.7187 83.6833C54.8071 83.6367 54.92 83.6711 54.9396 83.7471C55.0059 83.8257 54.974 83.9165 54.893 83.968L53.4768 84.7657Z" fill="#FDC90D"/>
<path fill-rule="evenodd" clip-rule="evenodd" d="M53.4768 84.7657C53.4081 84.8172 53.3075 84.7976 53.2486 84.7215C53.2093 84.643 53.2486 84.5448 53.3148 84.5006L54.7187 83.6833C54.8071 83.6367 54.92 83.6711 54.9396 83.7471C55.0059 83.8257 54.974 83.9165 54.893 83.968L53.4768 84.7657Z" fill="url(#paint23_linear_1_1594)"/>
<path fill-rule="evenodd" clip-rule="evenodd" d="M53.8499 85.5634C53.7689 85.5953 53.6707 85.5634 53.6364 85.4725C53.6167 85.394 53.6634 85.2983 53.7296 85.2664L55.2538 84.67C55.3471 84.6356 55.455 84.6822 55.4673 84.7583C55.514 84.8442 55.4673 84.935 55.3814 84.9669L53.8646 85.5511" fill="#FDC90D"/>
<path fill-rule="evenodd" clip-rule="evenodd" d="M53.8499 85.5634C53.7689 85.5953 53.6707 85.5634 53.6364 85.4725C53.6167 85.394 53.6634 85.2983 53.7296 85.2664L55.2538 84.67C55.3471 84.6356 55.455 84.6822 55.4673 84.7583C55.514 84.8442 55.4673 84.935 55.3814 84.9669L53.8646 85.5511" fill="url(#paint24_linear_1_1594)"/>
<path fill-rule="evenodd" clip-rule="evenodd" d="M54.0708 86.3169C53.9849 86.3365 53.9039 86.2899 53.8695 86.1991C53.8499 86.1156 53.9162 86.0371 53.9898 86.0052L55.5949 85.6468C55.6882 85.6345 55.7815 85.6935 55.7962 85.7769C55.8232 85.8677 55.7618 85.9463 55.6612 85.9733L54.0708 86.3169Z" fill="#FDC90D"/>
<path fill-rule="evenodd" clip-rule="evenodd" d="M54.0708 86.3169C53.9849 86.3365 53.9039 86.2899 53.8695 86.1991C53.8499 86.1156 53.9162 86.0371 53.9898 86.0052L55.5949 85.6468C55.6882 85.6345 55.7815 85.6935 55.7962 85.7769C55.8232 85.8677 55.7618 85.9463 55.6612 85.9733L54.0708 86.3169Z" fill="url(#paint25_linear_1_1594)"/>
<path fill-rule="evenodd" clip-rule="evenodd" d="M54.1518 87.0433C54.0561 87.0556 53.9849 86.9893 53.9702 86.8985C53.9702 86.8077 54.0511 86.7365 54.1297 86.7316L55.7741 86.6335C55.8698 86.6335 55.9484 86.6973 55.9435 86.7881C55.9631 86.874 55.8895 86.9378 55.7962 86.9452L54.1567 87.036" fill="#FDC90D"/>
<path fill-rule="evenodd" clip-rule="evenodd" d="M54.1518 87.0433C54.0561 87.0556 53.9849 86.9893 53.9702 86.8985C53.9702 86.8077 54.0511 86.7365 54.1297 86.7316L55.7741 86.6335C55.8698 86.6335 55.9484 86.6973 55.9435 86.7881C55.9631 86.874 55.8895 86.9378 55.7962 86.9452L54.1567 87.036" fill="url(#paint26_linear_1_1594)"/>
<path fill-rule="evenodd" clip-rule="evenodd" d="M54.0978 87.7306C54.0168 87.7306 53.9505 87.652 53.9628 87.5538C53.9628 87.4753 54.056 87.4238 54.137 87.4238L55.7741 87.5858C55.8747 87.5858 55.9434 87.6839 55.9214 87.7625C55.9214 87.8459 55.8355 87.9122 55.7496 87.8926L54.11 87.7232" fill="#FDC90D"/>
<path fill-rule="evenodd" clip-rule="evenodd" d="M54.0978 87.7306C54.0168 87.7306 53.9505 87.652 53.9628 87.5538C53.9628 87.4753 54.056 87.4238 54.137 87.4238L55.7741 87.5858C55.8747 87.5858 55.9434 87.6839 55.9214 87.7625C55.9214 87.8459 55.8355 87.9122 55.7496 87.8926L54.11 87.7232" fill="url(#paint27_linear_1_1594)"/>
<path fill-rule="evenodd" clip-rule="evenodd" d="M53.9627 88.3834C53.8572 88.3589 53.8155 88.2754 53.8302 88.1895C53.8572 88.0987 53.9627 88.0594 54.0315 88.0742L55.6219 88.4939C55.7078 88.5208 55.7691 88.6117 55.7274 88.6902C55.7152 88.781 55.6219 88.8178 55.5286 88.8056L53.9578 88.3834" fill="#FDC90D"/>
<path fill-rule="evenodd" clip-rule="evenodd" d="M53.9627 88.3834C53.8572 88.3589 53.8155 88.2754 53.8302 88.1895C53.8572 88.0987 53.9627 88.0594 54.0315 88.0742L55.6219 88.4939C55.7078 88.5208 55.7691 88.6117 55.7274 88.6902C55.7152 88.781 55.6219 88.8178 55.5286 88.8056L53.9578 88.3834" fill="url(#paint28_linear_1_1594)"/>
<path fill-rule="evenodd" clip-rule="evenodd" d="M53.6952 88.9798C53.629 88.9553 53.5823 88.8522 53.629 88.7736C53.656 88.6951 53.7639 88.6706 53.8302 88.6951L55.3347 89.3431C55.4206 89.3897 55.455 89.4928 55.4133 89.5639C55.3814 89.6499 55.2807 89.6744 55.1924 89.6425L53.7026 88.9749" fill="#FDC90D"/>
<path fill-rule="evenodd" clip-rule="evenodd" d="M53.6952 88.9798C53.629 88.9553 53.5823 88.8522 53.629 88.7736C53.656 88.6951 53.7639 88.6706 53.8302 88.6951L55.3347 89.3431C55.4206 89.3897 55.455 89.4928 55.4133 89.5639C55.3814 89.6499 55.2807 89.6744 55.1924 89.6425L53.7026 88.9749" fill="url(#paint29_linear_1_1594)"/>
<path fill-rule="evenodd" clip-rule="evenodd" d="M53.3615 89.5321C53.283 89.4879 53.2609 89.3897 53.3075 89.3112C53.3615 89.2351 53.4695 89.2277 53.5431 89.267L54.9127 90.1408C54.9936 90.207 55.0133 90.3027 54.9593 90.369C54.9053 90.4475 54.7998 90.4647 54.7335 90.4132L53.3566 89.5394" fill="#FDC90D"/>
<path fill-rule="evenodd" clip-rule="evenodd" d="M53.3615 89.5321C53.283 89.4879 53.2609 89.3897 53.3075 89.3112C53.3615 89.2351 53.4695 89.2277 53.5431 89.267L54.9127 90.1408C54.9936 90.207 55.0133 90.3027 54.9593 90.369C54.9053 90.4475 54.7998 90.4647 54.7335 90.4132L53.3566 89.5394" fill="url(#paint30_linear_1_1594)"/>
<path fill-rule="evenodd" clip-rule="evenodd" d="M52.9467 90.018C52.8682 89.9542 52.8682 89.8634 52.9271 89.7922C52.9933 89.726 53.094 89.726 53.1602 89.7922L54.385 90.8427C54.4512 90.9065 54.4659 91.017 54.3972 91.0685C54.331 91.1348 54.2303 91.1348 54.1714 91.0685L52.9541 90.0131" fill="#FDC90D"/>
<path fill-rule="evenodd" clip-rule="evenodd" d="M52.9467 90.018C52.8682 89.9542 52.8682 89.8634 52.9271 89.7922C52.9933 89.726 53.094 89.726 53.1602 89.7922L54.385 90.8427C54.4512 90.9065 54.4659 91.017 54.3972 91.0685C54.331 91.1348 54.2303 91.1348 54.1714 91.0685L52.9541 90.0131" fill="url(#paint31_linear_1_1594)"/>
<path fill-rule="evenodd" clip-rule="evenodd" d="M52.4607 90.4279C52.392 90.3616 52.4116 90.2708 52.4853 90.207C52.554 90.1555 52.6472 90.1751 52.7062 90.2389L53.7493 91.471C53.8033 91.5348 53.791 91.6453 53.7174 91.6993C53.6486 91.7631 53.548 91.7361 53.4965 91.6723L52.446 90.4402" fill="#FDC90D"/>
<path fill-rule="evenodd" clip-rule="evenodd" d="M52.4607 90.4279C52.392 90.3616 52.4116 90.2708 52.4853 90.207C52.554 90.1555 52.6472 90.1751 52.7062 90.2389L53.7493 91.471C53.8033 91.5348 53.791 91.6453 53.7174 91.6993C53.6486 91.7631 53.548 91.7361 53.4965 91.6723L52.446 90.4402" fill="url(#paint32_linear_1_1594)"/>
<path fill-rule="evenodd" clip-rule="evenodd" d="M51.9183 90.7764C51.8716 90.693 51.8986 90.6021 51.9845 90.5506C52.0655 90.4991 52.1588 90.531 52.2054 90.6144L53.0473 91.9766C53.0939 92.0551 53.062 92.1582 52.981 92.1901C52.9 92.2417 52.8068 92.2098 52.7601 92.1386L51.9183 90.7764Z" fill="#FDC90D"/>
<path fill-rule="evenodd" clip-rule="evenodd" d="M51.9183 90.7764C51.8716 90.693 51.8986 90.6021 51.9845 90.5506C52.0655 90.4991 52.1588 90.531 52.2054 90.6144L53.0473 91.9766C53.0939 92.0551 53.062 92.1582 52.981 92.1901C52.9 92.2417 52.8068 92.2098 52.7601 92.1386L51.9183 90.7764Z" fill="url(#paint33_linear_1_1594)"/>
<path fill-rule="evenodd" clip-rule="evenodd" d="M51.344 91.0243C51.3023 90.9458 51.344 90.8476 51.4299 90.8157C51.5306 90.7764 51.6165 90.8304 51.6508 90.9065L52.2521 92.3865C52.2914 92.4699 52.2521 92.5681 52.1662 92.5926C52.0852 92.6319 51.992 92.5926 51.965 92.5141L51.344 91.0243Z" fill="#FDC90D"/>
<path fill-rule="evenodd" clip-rule="evenodd" d="M51.344 91.0243C51.3023 90.9458 51.344 90.8476 51.4299 90.8157C51.5306 90.7764 51.6165 90.8304 51.6508 90.9065L52.2521 92.3865C52.2914 92.4699 52.2521 92.5681 52.1662 92.5926C52.0852 92.6319 51.992 92.5926 51.965 92.5141L51.344 91.0243Z" fill="url(#paint34_linear_1_1594)"/>
<path fill-rule="evenodd" clip-rule="evenodd" d="M50.7352 91.1789C50.7009 91.0881 50.7622 91.0047 50.8555 90.985C50.9414 90.9728 51.0224 91.0243 51.042 91.1151L51.4028 92.6712C51.4225 92.762 51.3562 92.8405 51.2703 92.8651C51.1893 92.8774 51.1083 92.8209 51.0813 92.735L50.7352 91.1789Z" fill="#FDC90D"/>
<path fill-rule="evenodd" clip-rule="evenodd" d="M50.7352 91.1789C50.7009 91.0881 50.7622 91.0047 50.8555 90.985C50.9414 90.9728 51.0224 91.0243 51.042 91.1151L51.4028 92.6712C51.4225 92.762 51.3562 92.8405 51.2703 92.8651C51.1893 92.8774 51.1083 92.8209 51.0813 92.735L50.7352 91.1789Z" fill="url(#paint35_linear_1_1594)"/>
<path fill-rule="evenodd" clip-rule="evenodd" d="M50.0996 91.2305C50.0873 91.1397 50.1536 91.0685 50.2542 91.0636C50.3475 91.0636 50.4137 91.1274 50.4211 91.2182L50.5021 92.8062C50.5021 92.9044 50.4334 92.9829 50.3475 92.9829C50.2468 92.9829 50.1732 92.9044 50.1732 92.8332L50.0922 91.2379" fill="#FDC90D"/>
<path fill-rule="evenodd" clip-rule="evenodd" d="M50.0996 91.2305C50.0873 91.1397 50.1536 91.0685 50.2542 91.0636C50.3475 91.0636 50.4137 91.1274 50.4211 91.2182L50.5021 92.8062C50.5021 92.9044 50.4334 92.9829 50.3475 92.9829C50.2468 92.9829 50.1732 92.9044 50.1732 92.8332L50.0922 91.2379" fill="url(#paint36_linear_1_1594)"/>
<path fill-rule="evenodd" clip-rule="evenodd" d="M49.459 91.179C49.459 91.0808 49.5449 91.0366 49.6382 91.0489C49.7388 91.0489 49.7854 91.1348 49.7732 91.2256L49.5719 92.7939C49.5572 92.8921 49.4713 92.9559 49.3903 92.9436C49.297 92.9436 49.2381 92.8455 49.243 92.7694L49.459 91.1863" fill="#FDC90D"/>
<path fill-rule="evenodd" clip-rule="evenodd" d="M49.459 91.179C49.459 91.0808 49.5449 91.0366 49.6382 91.0489C49.7388 91.0489 49.7854 91.1348 49.7732 91.2256L49.5719 92.7939C49.5572 92.8921 49.4713 92.9559 49.3903 92.9436C49.297 92.9436 49.2381 92.8455 49.243 92.7694L49.459 91.1863" fill="url(#paint37_linear_1_1594)"/>
<path fill-rule="evenodd" clip-rule="evenodd" d="M48.816 91.0096C48.8307 90.9261 48.924 90.882 49.0172 90.9065C49.0982 90.9335 49.1375 91.0243 49.1105 91.1004L48.6295 92.6196C48.6098 92.7227 48.4945 92.762 48.4282 92.735C48.3349 92.7105 48.2957 92.6196 48.3153 92.5411L48.816 91.0096Z" fill="#FDC90D"/>
<path fill-rule="evenodd" clip-rule="evenodd" d="M48.816 91.0096C48.8307 90.9261 48.924 90.882 49.0172 90.9065C49.0982 90.9335 49.1375 91.0243 49.1105 91.1004L48.6295 92.6196C48.6098 92.7227 48.4945 92.762 48.4282 92.735C48.3349 92.7105 48.2957 92.6196 48.3153 92.5411L48.816 91.0096Z" fill="url(#paint38_linear_1_1594)"/>
<path fill-rule="evenodd" clip-rule="evenodd" d="M48.1484 90.7249C48.1876 90.6292 48.2956 90.6144 48.3742 90.6488C48.4625 90.693 48.4822 90.7764 48.4429 90.8672L47.6943 92.2809C47.6477 92.3668 47.5593 92.3988 47.466 92.3472C47.385 92.3202 47.3654 92.2171 47.3998 92.1509L48.1484 90.7249Z" fill="#FDC90D"/>
<path fill-rule="evenodd" clip-rule="evenodd" d="M48.1484 90.7249C48.1876 90.6292 48.2956 90.6144 48.3742 90.6488C48.4625 90.693 48.4822 90.7764 48.4429 90.8672L47.6943 92.2809C47.6477 92.3668 47.5593 92.3988 47.466 92.3472C47.385 92.3202 47.3654 92.2171 47.3998 92.1509L48.1484 90.7249Z" fill="url(#paint39_linear_1_1594)"/>
<path fill-rule="evenodd" clip-rule="evenodd" d="M35.8471 89.9076L36.4484 90.8673L39.2979 90.5948L41.1828 90.1604L41.6369 89.1885L40.6331 86.6605L37.9455 85.5118L35.5599 86.9182L35.8421 89.9027L35.8471 89.9076ZM36.1023 92.1779C35.874 92.1779 35.6605 92.0601 35.5476 91.8662L34.6518 90.4402C34.5978 90.3617 34.5708 90.2708 34.5634 90.18L34.2296 86.6457C34.21 86.4077 34.3303 86.1721 34.5438 86.0493L37.5651 84.2675C37.7467 84.157 37.9676 84.1374 38.1664 84.2282L41.4234 85.6149C41.5829 85.6812 41.7032 85.8088 41.7694 85.9732L42.9598 88.9798C43.0138 89.1369 43.0064 89.3063 42.9402 89.4609L42.2456 90.9777C42.1646 91.1544 41.9977 91.2894 41.7964 91.336L39.5041 91.8416L36.1612 92.1656H36.0949L36.1023 92.1779Z" fill="#FDC90D"/>
<path fill-rule="evenodd" clip-rule="evenodd" d="M35.8471 89.9076L36.4484 90.8673L39.2979 90.5948L41.1828 90.1604L41.6369 89.1885L40.6331 86.6605L37.9455 85.5118L35.5599 86.9182L35.8421 89.9027L35.8471 89.9076ZM36.1023 92.1779C35.874 92.1779 35.6605 92.0601 35.5476 91.8662L34.6518 90.4402C34.5978 90.3617 34.5708 90.2708 34.5634 90.18L34.2296 86.6457C34.21 86.4077 34.3303 86.1721 34.5438 86.0493L37.5651 84.2675C37.7467 84.157 37.9676 84.1374 38.1664 84.2282L41.4234 85.6149C41.5829 85.6812 41.7032 85.8088 41.7694 85.9732L42.9598 88.9798C43.0138 89.1369 43.0064 89.3063 42.9402 89.4609L42.2456 90.9777C42.1646 91.1544 41.9977 91.2894 41.7964 91.336L39.5041 91.8416L36.1612 92.1656H36.0949L36.1023 92.1779Z" fill="url(#paint40_linear_1_1594)"/>
<path fill-rule="evenodd" clip-rule="evenodd" d="M36.5564 85.583L35.0446 71.2127C35.0446 71.2127 38.8955 70.739 39.9926 71.0065V85.7916" fill="#FDC90D"/>
<path fill-rule="evenodd" clip-rule="evenodd" d="M36.5564 85.583L35.0446 71.2127C35.0446 71.2127 38.8955 70.739 39.9926 71.0065V85.7916" fill="url(#paint41_linear_1_1594)"/>
<path fill-rule="evenodd" clip-rule="evenodd" d="M46.7175 93.7339C45.2866 93.7339 44.0692 92.9682 43.9097 92.8577L43.4409 92.5485L43.0875 90.3935L42.6187 90.3297L43.0065 87.8213L45.375 88.1699L45.829 90.9924C46.2291 91.1544 46.7519 91.282 47.0979 91.12C47.4735 90.9531 47.768 90.3886 47.9545 89.5394L46.5629 88.2926L46.4156 86.5426C46.3886 86.2186 46.2561 83.5336 48.0085 81.8229C48.6614 81.1725 49.8468 80.4214 51.798 80.5245L52.2521 80.5368L52.6006 80.8362C52.6276 80.8681 55.968 83.6759 59.6054 83.482C63.282 83.3004 66.2248 82.5297 66.7108 82.38L80.3227 76.4135L81.4124 78.7156L67.5404 84.7927C67.4078 84.8368 64.0772 85.7916 59.733 86.01C55.8551 86.2064 52.3994 83.9091 51.2704 83.055C50.669 83.0869 50.2003 83.2685 49.8665 83.5998C49.0639 84.3779 48.9829 85.8873 49.0099 86.3536L49.0762 87.1145L50.7157 88.592L50.6347 89.24C50.3794 91.4121 49.5523 92.8258 48.195 93.4418C47.6993 93.6554 47.2059 93.7462 46.7249 93.7462" fill="#FDC90D"/>
<path fill-rule="evenodd" clip-rule="evenodd" d="M46.7175 93.7339C45.2866 93.7339 44.0692 92.9682 43.9097 92.8577L43.4409 92.5485L43.0875 90.3935L42.6187 90.3297L43.0065 87.8213L45.375 88.1699L45.829 90.9924C46.2291 91.1544 46.7519 91.282 47.0979 91.12C47.4735 90.9531 47.768 90.3886 47.9545 89.5394L46.5629 88.2926L46.4156 86.5426C46.3886 86.2186 46.2561 83.5336 48.0085 81.8229C48.6614 81.1725 49.8468 80.4214 51.798 80.5245L52.2521 80.5368L52.6006 80.8362C52.6276 80.8681 55.968 83.6759 59.6054 83.482C63.282 83.3004 66.2248 82.5297 66.7108 82.38L80.3227 76.4135L81.4124 78.7156L67.5404 84.7927C67.4078 84.8368 64.0772 85.7916 59.733 86.01C55.8551 86.2064 52.3994 83.9091 51.2704 83.055C50.669 83.0869 50.2003 83.2685 49.8665 83.5998C49.0639 84.3779 48.9829 85.8873 49.0099 86.3536L49.0762 87.1145L50.7157 88.592L50.6347 89.24C50.3794 91.4121 49.5523 92.8258 48.195 93.4418C47.6993 93.6554 47.2059 93.7462 46.7249 93.7462" fill="url(#paint42_linear_1_1594)"/>
<path fill-rule="evenodd" clip-rule="evenodd" d="M137.276 40.1453L131.528 44.7939C125.544 49.4449 122.437 44.276 122.437 44.276L118.198 42.9973L92.381 68.7804C92.381 68.7804 107.924 67.8723 112.971 62.0186C112.971 62.0186 116.399 58.8402 118.032 51.2341C118.032 51.2341 124.334 50.5984 125.652 50.5984C137.269 50.5984 138.901 45.8394 138.901 45.8394L137.269 40.133" fill="#FDC90D"/>
<path fill-rule="evenodd" clip-rule="evenodd" d="M137.276 40.1453L131.528 44.7939C125.544 49.4449 122.437 44.276 122.437 44.276L118.198 42.9973L92.381 68.7804C92.381 68.7804 107.924 67.8723 112.971 62.0186C112.971 62.0186 116.399 58.8402 118.032 51.2341C118.032 51.2341 124.334 50.5984 125.652 50.5984C137.269 50.5984 138.901 45.8394 138.901 45.8394L137.269 40.133" fill="url(#paint43_linear_1_1594)"/>
<path fill-rule="evenodd" clip-rule="evenodd" d="M72.1938 95.1403C68.8706 95.1403 64.6516 94.7059 62.045 92.8062C57.3866 89.4094 54.92 83.9042 54.812 83.6637L56.0147 83.1655C56.0367 83.2293 58.4494 88.6117 62.8206 91.7901C67.1133 94.9145 76.9062 93.5793 77.0118 93.5646L77.1934 94.8237C76.9921 94.8507 74.8863 95.1477 72.1791 95.1477" fill="#FDC90D"/>
<path fill-rule="evenodd" clip-rule="evenodd" d="M72.1938 95.1403C68.8706 95.1403 64.6516 94.7059 62.045 92.8062C57.3866 89.4094 54.92 83.9042 54.812 83.6637L56.0147 83.1655C56.0367 83.2293 58.4494 88.6117 62.8206 91.7901C67.1133 94.9145 76.9062 93.5793 77.0118 93.5646L77.1934 94.8237C76.9921 94.8507 74.8863 95.1477 72.1791 95.1477" fill="url(#paint44_linear_1_1594)"/>
<path fill-rule="evenodd" clip-rule="evenodd" d="M73.9904 95.0691C73.9904 95.0691 76.2975 90.8672 79.8735 94.5119C83.4643 98.1567 73.9904 95.0691 73.9904 95.0691Z" fill="#FDC90D"/>
<path fill-rule="evenodd" clip-rule="evenodd" d="M73.9904 95.0691C73.9904 95.0691 76.2975 90.8672 79.8735 94.5119C83.4643 98.1567 73.9904 95.0691 73.9904 95.0691Z" fill="url(#paint45_linear_1_1594)"/>
<path fill-rule="evenodd" clip-rule="evenodd" d="M76.1846 59.9029C76.1846 59.9029 79.6993 61.4345 80.5289 64.2349L76.1846 59.9029Z" fill="#FDC90D"/>
<path fill-rule="evenodd" clip-rule="evenodd" d="M76.1846 59.9029C76.1846 59.9029 79.6993 61.4345 80.5289 64.2349L76.1846 59.9029Z" fill="url(#paint46_linear_1_1594)"/>
<path fill-rule="evenodd" clip-rule="evenodd" d="M142.965 21.1706L142.563 19.3347L140.96 20.3852C135.278 24.0815 128.325 28.1483 127.002 28.2514C124.695 28.2514 118.525 28.7055 118.257 28.7325L118.078 28.757C113.879 29.6921 111.559 31.2016 110.992 33.3884C110.411 35.6243 111.982 37.5903 112.823 38.4469C112.583 43.5029 109.08 47.8152 107.976 49.0473C102.675 49.4572 99.7883 53.178 98.6519 55.0605C88.4712 51.8821 77.8609 57.4731 75.8238 58.6267H66.0775L65.9082 58.6389C65.4418 58.6905 54.6794 60.0649 49.1448 63.0028C45.2939 65.0448 44.2852 68.8 44.0643 71.382C42.2113 70.2285 39.4035 68.9178 36.5294 69.2614C34.1904 69.5339 32.2171 70.7979 30.6806 73.0215C29.8511 74.2536 28.6558 78.08 29.5443 81.8278C30.1996 84.5718 31.871 86.7758 34.3769 88.2018L35.6949 85.9978C33.7952 84.9277 32.5926 83.3274 32.1042 81.251C31.39 78.2812 32.3594 75.1691 32.8675 74.4303C33.9695 72.8276 35.2605 71.9662 36.8362 71.7698C40.5349 71.3354 44.4914 74.8378 44.538 74.8697L47.2108 77.27L46.7175 73.7677C46.7175 73.7038 45.8879 67.6072 50.3941 65.2265C55.2611 62.6469 65.167 61.2847 66.1708 61.1547H76.5577L76.8792 60.9608C76.9921 60.8822 88.6454 53.956 98.8188 57.7824L99.9895 58.2242L100.49 57.1025C100.591 56.8816 102.937 51.7201 108.624 51.5262L109.147 51.5115L109.508 51.1433C109.748 50.9028 115.423 45.1448 115.423 37.902V37.3179L114.976 36.9423C114.588 36.6159 113.204 35.1457 113.506 33.9848C113.673 33.3369 114.554 32.1293 118.552 31.2286C119.354 31.1623 124.943 30.7745 126.995 30.7745C128.679 30.7745 133.592 27.9741 137.723 25.4314C136.4 26.8328 134.414 28.6269 131.44 30.8653C131.086 31.1255 130.858 31.2924 130.772 31.3439L130.136 31.825L130.338 33.2829L131.025 33.57C131.54 33.7639 131.855 33.7001 132.363 33.3737C132.549 33.2461 132.765 33.0767 133.033 32.8755C142.992 25.4191 143.145 22.0272 142.965 21.1632" fill="#FDC90D"/>
<path fill-rule="evenodd" clip-rule="evenodd" d="M142.965 21.1706L142.563 19.3347L140.96 20.3852C135.278 24.0815 128.325 28.1483 127.002 28.2514C124.695 28.2514 118.525 28.7055 118.257 28.7325L118.078 28.757C113.879 29.6921 111.559 31.2016 110.992 33.3884C110.411 35.6243 111.982 37.5903 112.823 38.4469C112.583 43.5029 109.08 47.8152 107.976 49.0473C102.675 49.4572 99.7883 53.178 98.6519 55.0605C88.4712 51.8821 77.8609 57.4731 75.8238 58.6267H66.0775L65.9082 58.6389C65.4418 58.6905 54.6794 60.0649 49.1448 63.0028C45.2939 65.0448 44.2852 68.8 44.0643 71.382C42.2113 70.2285 39.4035 68.9178 36.5294 69.2614C34.1904 69.5339 32.2171 70.7979 30.6806 73.0215C29.8511 74.2536 28.6558 78.08 29.5443 81.8278C30.1996 84.5718 31.871 86.7758 34.3769 88.2018L35.6949 85.9978C33.7952 84.9277 32.5926 83.3274 32.1042 81.251C31.39 78.2812 32.3594 75.1691 32.8675 74.4303C33.9695 72.8276 35.2605 71.9662 36.8362 71.7698C40.5349 71.3354 44.4914 74.8378 44.538 74.8697L47.2108 77.27L46.7175 73.7677C46.7175 73.7038 45.8879 67.6072 50.3941 65.2265C55.2611 62.6469 65.167 61.2847 66.1708 61.1547H76.5577L76.8792 60.9608C76.9921 60.8822 88.6454 53.956 98.8188 57.7824L99.9895 58.2242L100.49 57.1025C100.591 56.8816 102.937 51.7201 108.624 51.5262L109.147 51.5115L109.508 51.1433C109.748 50.9028 115.423 45.1448 115.423 37.902V37.3179L114.976 36.9423C114.588 36.6159 113.204 35.1457 113.506 33.9848C113.673 33.3369 114.554 32.1293 118.552 31.2286C119.354 31.1623 124.943 30.7745 126.995 30.7745C128.679 30.7745 133.592 27.9741 137.723 25.4314C136.4 26.8328 134.414 28.6269 131.44 30.8653C131.086 31.1255 130.858 31.2924 130.772 31.3439L130.136 31.825L130.338 33.2829L131.025 33.57C131.54 33.7639 131.855 33.7001 132.363 33.3737C132.549 33.2461 132.765 33.0767 133.033 32.8755C142.992 25.4191 143.145 22.0272 142.965 21.1632" fill="url(#paint47_linear_1_1594)"/>
<path fill-rule="evenodd" clip-rule="evenodd" d="M86.6181 73.3063L85.1479 71.2127L89.8407 68.1251C98.8924 64.689 104.174 60.5902 104.827 60.0649L113.103 50.677L120.083 34.4119L121.487 33.9137C122.771 33.7959 124.381 32.954 125.431 32.4018C126.165 32.014 126.622 31.7784 127.056 31.7072L131.575 30.9635L132.021 33.4596L127.496 34.2057C127.444 34.2303 127.029 34.4634 126.673 34.6328C125.498 35.2488 123.76 36.1643 122.062 36.4024L115.224 52.1619L106.599 61.9131C106.378 62.1094 100.937 66.6034 90.9304 70.4346L86.6181 73.2891" fill="#FDC90D"/>
<path fill-rule="evenodd" clip-rule="evenodd" d="M86.6181 73.3063L85.1479 71.2127L89.8407 68.1251C98.8924 64.689 104.174 60.5902 104.827 60.0649L113.103 50.677L120.083 34.4119L121.487 33.9137C122.771 33.7959 124.381 32.954 125.431 32.4018C126.165 32.014 126.622 31.7784 127.056 31.7072L131.575 30.9635L132.021 33.4596L127.496 34.2057C127.444 34.2303 127.029 34.4634 126.673 34.6328C125.498 35.2488 123.76 36.1643 122.062 36.4024L115.224 52.1619L106.599 61.9131C106.378 62.1094 100.937 66.6034 90.9304 70.4346L86.6181 73.2891" fill="url(#paint48_linear_1_1594)"/>
<path fill-rule="evenodd" clip-rule="evenodd" d="M102.495 86.1156C102.495 94.5783 96.411 91.0808 96.411 91.0808L93.1369 87.7109C93.1369 87.7109 81.7584 78.8458 79.0783 78.5979C73.3621 78.0923 65.4884 72.7884 60.5355 74.8108C60.106 74.9924 59.6986 75.1495 59.2985 75.2845C49.5792 78.7083 48.568 72.0693 48.568 72.0693C48.568 72.0693 47.6992 65.3124 60.97 65.0989C74.2309 64.878 87.0525 72.2705 87.0525 72.2705L95.1028 84.5252C95.1028 84.5252 98.1512 84.8492 99.02 87.171C99.02 87.171 102.495 84.2086 102.495 86.1156Z" fill="#FDC90D"/>
<path fill-rule="evenodd" clip-rule="evenodd" d="M102.495 86.1156C102.495 94.5783 96.411 91.0808 96.411 91.0808L93.1369 87.7109C93.1369 87.7109 81.7584 78.8458 79.0783 78.5979C73.3621 78.0923 65.4884 72.7884 60.5355 74.8108C60.106 74.9924 59.6986 75.1495 59.2985 75.2845C49.5792 78.7083 48.568 72.0693 48.568 72.0693C48.568 72.0693 47.6992 65.3124 60.97 65.0989C74.2309 64.878 87.0525 72.2705 87.0525 72.2705L95.1028 84.5252C95.1028 84.5252 98.1512 84.8492 99.02 87.171C99.02 87.171 102.495 84.2086 102.495 86.1156Z" fill="url(#paint49_linear_1_1594)"/>
<path fill-rule="evenodd" clip-rule="evenodd" d="M142.035 22.0591C142.035 22.0591 129.636 30.1462 127.363 30.1462C125.071 30.1462 118.719 30.6199 118.719 30.6199C107.956 32.9982 114.475 38.5426 114.475 38.5426C114.475 45.351 108.926 50.9028 108.926 50.9028C102.309 51.1114 99.6336 57.2449 99.6336 57.2449C88.7117 53.1215 76.538 60.519 76.538 60.519H66.4236C66.4236 60.519 55.4943 61.8812 50.1143 64.7356C44.7393 67.5876 45.7677 74.5653 45.7677 74.5653C45.7677 74.5653 37.2461 66.8954 32.1312 74.3592C31.0611 75.9005 29.0019 83.6318 34.9513 87.4385L34.885 86.5819L37.894 84.7976L41.1559 86.1868L42.3389 89.1958L42.226 89.4535L43.1734 89.6867L44.5773 89.9076L44.4767 93.0737C44.4767 93.0737 49.0442 95.0838 49.6922 89.6867L48.1754 88.327L48.06 87.0556C48.06 87.0556 47.7262 82.1911 52.0852 82.3997C52.0852 82.3997 55.7815 85.5756 60.0202 85.3621C64.2589 85.1363 67.5207 84.1963 67.5207 84.1963L81.2234 78.1634L87.1949 72.354L90.6703 69.9217C100.669 66.115 106.111 61.5695 106.111 61.5695L114.595 51.9729L121.446 36.0072L121.981 35.8011C124.275 35.5851 126.995 33.6854 127.643 33.575L132.161 32.8288L132.596 32.5049C142.691 24.9454 142.055 22.0664 142.055 22.0664" fill="#FDC90D"/>
<path fill-rule="evenodd" clip-rule="evenodd" d="M142.035 22.0591C142.035 22.0591 129.636 30.1462 127.363 30.1462C125.071 30.1462 118.719 30.6199 118.719 30.6199C107.956 32.9982 114.475 38.5426 114.475 38.5426C114.475 45.351 108.926 50.9028 108.926 50.9028C102.309 51.1114 99.6336 57.2449 99.6336 57.2449C88.7117 53.1215 76.538 60.519 76.538 60.519H66.4236C66.4236 60.519 55.4943 61.8812 50.1143 64.7356C44.7393 67.5876 45.7677 74.5653 45.7677 74.5653C45.7677 74.5653 37.2461 66.8954 32.1312 74.3592C31.0611 75.9005 29.0019 83.6318 34.9513 87.4385L34.885 86.5819L37.894 84.7976L41.1559 86.1868L42.3389 89.1958L42.226 89.4535L43.1734 89.6867L44.5773 89.9076L44.4767 93.0737C44.4767 93.0737 49.0442 95.0838 49.6922 89.6867L48.1754 88.327L48.06 87.0556C48.06 87.0556 47.7262 82.1911 52.0852 82.3997C52.0852 82.3997 55.7815 85.5756 60.0202 85.3621C64.2589 85.1363 67.5207 84.1963 67.5207 84.1963L81.2234 78.1634L87.1949 72.354L90.6703 69.9217C100.669 66.115 106.111 61.5695 106.111 61.5695L114.595 51.9729L121.446 36.0072L121.981 35.8011C124.275 35.5851 126.995 33.6854 127.643 33.575L132.161 32.8288L132.596 32.5049C142.691 24.9454 142.055 22.0664 142.055 22.0664" fill="url(#paint50_linear_1_1594)"/>
<path fill-rule="evenodd" clip-rule="evenodd" d="M110.997 83.1458C105.892 104.894 85.8376 121.171 61.9444 121.171C34.2027 121.171 11.6348 99.2342 11.6348 72.2631C11.6348 45.2995 34.2027 23.355 61.9444 23.355C72.908 23.355 83.0691 26.7935 91.3452 32.603C93.1492 29.6529 95.2428 26.8058 97.7364 24.349C87.676 17.2141 75.3084 13 61.9444 13C28.3416 13 1 39.5882 1 72.2435C1 104.914 28.3416 131.494 61.9444 131.494C91.787 131.494 116.694 110.529 121.887 82.9568C118.304 83.3986 114.507 83.2808 111.005 83.1311" fill="#FDC90D"/>
<path fill-rule="evenodd" clip-rule="evenodd" d="M110.997 83.1458C105.892 104.894 85.8376 121.171 61.9444 121.171C34.2027 121.171 11.6348 99.2342 11.6348 72.2631C11.6348 45.2995 34.2027 23.355 61.9444 23.355C72.908 23.355 83.0691 26.7935 91.3452 32.603C93.1492 29.6529 95.2428 26.8058 97.7364 24.349C87.676 17.2141 75.3084 13 61.9444 13C28.3416 13 1 39.5882 1 72.2435C1 104.914 28.3416 131.494 61.9444 131.494C91.787 131.494 116.694 110.529 121.887 82.9568C118.304 83.3986 114.507 83.2808 111.005 83.1311" fill="url(#paint51_linear_1_1594)"/>
<defs>
<linearGradient id="paint0_linear_1_1594" x1="72" y1="12.9998" x2="72" y2="131.495" gradientUnits="userSpaceOnUse">
<stop offset="0.510417" stop-color="#DA0000" stop-opacity="0"/>
<stop offset="1" stop-color="#DA0000" stop-opacity="0.2"/>
</linearGradient>
<linearGradient id="paint1_linear_1_1594" x1="71.9999" y1="12.9998" x2="71.9999" y2="131.495" gradientUnits="userSpaceOnUse">
<stop offset="0.510417" stop-color="#DA0000" stop-opacity="0"/>
<stop offset="1" stop-color="#DA0000" stop-opacity="0.2"/>
</linearGradient>
<linearGradient id="paint2_linear_1_1594" x1="71.9999" y1="12.9998" x2="71.9999" y2="131.495" gradientUnits="userSpaceOnUse">
<stop offset="0.510417" stop-color="#DA0000" stop-opacity="0"/>
<stop offset="1" stop-color="#DA0000" stop-opacity="0.2"/>
</linearGradient>
<linearGradient id="paint3_linear_1_1594" x1="71.9999" y1="12.9999" x2="71.9999" y2="131.495" gradientUnits="userSpaceOnUse">
<stop offset="0.510417" stop-color="#DA0000" stop-opacity="0"/>
<stop offset="1" stop-color="#DA0000" stop-opacity="0.2"/>
</linearGradient>
<linearGradient id="paint4_linear_1_1594" x1="71.9999" y1="12.9998" x2="71.9999" y2="131.495" gradientUnits="userSpaceOnUse">
<stop offset="0.510417" stop-color="#DA0000" stop-opacity="0"/>
<stop offset="1" stop-color="#DA0000" stop-opacity="0.2"/>
</linearGradient>
<linearGradient id="paint5_linear_1_1594" x1="71.9999" y1="12.9999" x2="71.9999" y2="131.495" gradientUnits="userSpaceOnUse">
<stop offset="0.510417" stop-color="#DA0000" stop-opacity="0"/>
<stop offset="1" stop-color="#DA0000" stop-opacity="0.2"/>
</linearGradient>
<linearGradient id="paint6_linear_1_1594" x1="71.9999" y1="12.9998" x2="71.9999" y2="131.495" gradientUnits="userSpaceOnUse">
<stop offset="0.510417" stop-color="#DA0000" stop-opacity="0"/>
<stop offset="1" stop-color="#DA0000" stop-opacity="0.2"/>
</linearGradient>
<linearGradient id="paint7_linear_1_1594" x1="71.9999" y1="12.9998" x2="71.9999" y2="131.495" gradientUnits="userSpaceOnUse">
<stop offset="0.510417" stop-color="#DA0000" stop-opacity="0"/>
<stop offset="1" stop-color="#DA0000" stop-opacity="0.2"/>
</linearGradient>
<linearGradient id="paint8_linear_1_1594" x1="71.9999" y1="12.9998" x2="71.9999" y2="131.495" gradientUnits="userSpaceOnUse">
<stop offset="0.510417" stop-color="#DA0000" stop-opacity="0"/>
<stop offset="1" stop-color="#DA0000" stop-opacity="0.2"/>
</linearGradient>
<linearGradient id="paint9_linear_1_1594" x1="71.9999" y1="12.9999" x2="71.9999" y2="131.495" gradientUnits="userSpaceOnUse">
<stop offset="0.510417" stop-color="#DA0000" stop-opacity="0"/>
<stop offset="1" stop-color="#DA0000" stop-opacity="0.2"/>
</linearGradient>
<linearGradient id="paint10_linear_1_1594" x1="71.9999" y1="12.9998" x2="71.9999" y2="131.495" gradientUnits="userSpaceOnUse">
<stop offset="0.510417" stop-color="#DA0000" stop-opacity="0"/>
<stop offset="1" stop-color="#DA0000" stop-opacity="0.2"/>
</linearGradient>
<linearGradient id="paint11_linear_1_1594" x1="71.9999" y1="12.9998" x2="71.9999" y2="131.495" gradientUnits="userSpaceOnUse">
<stop offset="0.510417" stop-color="#DA0000" stop-opacity="0"/>
<stop offset="1" stop-color="#DA0000" stop-opacity="0.2"/>
</linearGradient>
<linearGradient id="paint12_linear_1_1594" x1="71.9999" y1="12.9999" x2="71.9999" y2="131.495" gradientUnits="userSpaceOnUse">
<stop offset="0.510417" stop-color="#DA0000" stop-opacity="0"/>
<stop offset="1" stop-color="#DA0000" stop-opacity="0.2"/>
</linearGradient>
<linearGradient id="paint13_linear_1_1594" x1="72" y1="12.9999" x2="72" y2="131.495" gradientUnits="userSpaceOnUse">
<stop offset="0.510417" stop-color="#DA0000" stop-opacity="0"/>
<stop offset="1" stop-color="#DA0000" stop-opacity="0.2"/>
</linearGradient>
<linearGradient id="paint14_linear_1_1594" x1="71.9999" y1="12.9999" x2="71.9999" y2="131.495" gradientUnits="userSpaceOnUse">
<stop offset="0.510417" stop-color="#DA0000" stop-opacity="0"/>
<stop offset="1" stop-color="#DA0000" stop-opacity="0.2"/>
</linearGradient>
<linearGradient id="paint15_linear_1_1594" x1="71.9999" y1="12.9998" x2="71.9999" y2="131.495" gradientUnits="userSpaceOnUse">
<stop offset="0.510417" stop-color="#DA0000" stop-opacity="0"/>
<stop offset="1" stop-color="#DA0000" stop-opacity="0.2"/>
</linearGradient>
<linearGradient id="paint16_linear_1_1594" x1="71.9999" y1="12.9999" x2="71.9999" y2="131.495" gradientUnits="userSpaceOnUse">
<stop offset="0.510417" stop-color="#DA0000" stop-opacity="0"/>
<stop offset="1" stop-color="#DA0000" stop-opacity="0.2"/>
</linearGradient>
<linearGradient id="paint17_linear_1_1594" x1="71.9999" y1="12.9999" x2="71.9999" y2="131.495" gradientUnits="userSpaceOnUse">
<stop offset="0.510417" stop-color="#DA0000" stop-opacity="0"/>
<stop offset="1" stop-color="#DA0000" stop-opacity="0.2"/>
</linearGradient>
<linearGradient id="paint18_linear_1_1594" x1="72" y1="12.9999" x2="72" y2="131.495" gradientUnits="userSpaceOnUse">
<stop offset="0.510417" stop-color="#DA0000" stop-opacity="0"/>
<stop offset="1" stop-color="#DA0000" stop-opacity="0.2"/>
</linearGradient>
<linearGradient id="paint19_linear_1_1594" x1="71.9999" y1="12.9999" x2="71.9999" y2="131.495" gradientUnits="userSpaceOnUse">
<stop offset="0.510417" stop-color="#DA0000" stop-opacity="0"/>
<stop offset="1" stop-color="#DA0000" stop-opacity="0.2"/>
</linearGradient>
<linearGradient id="paint20_linear_1_1594" x1="71.9999" y1="12.9998" x2="71.9999" y2="131.495" gradientUnits="userSpaceOnUse">
<stop offset="0.510417" stop-color="#DA0000" stop-opacity="0"/>
<stop offset="1" stop-color="#DA0000" stop-opacity="0.2"/>
</linearGradient>
<linearGradient id="paint21_linear_1_1594" x1="72" y1="12.9998" x2="72" y2="131.495" gradientUnits="userSpaceOnUse">
<stop offset="0.510417" stop-color="#DA0000" stop-opacity="0"/>
<stop offset="1" stop-color="#DA0000" stop-opacity="0.2"/>
</linearGradient>
<linearGradient id="paint22_linear_1_1594" x1="71.9999" y1="12.9998" x2="71.9999" y2="131.495" gradientUnits="userSpaceOnUse">
<stop offset="0.510417" stop-color="#DA0000" stop-opacity="0"/>
<stop offset="1" stop-color="#DA0000" stop-opacity="0.2"/>
</linearGradient>
<linearGradient id="paint23_linear_1_1594" x1="71.9999" y1="12.9999" x2="71.9999" y2="131.495" gradientUnits="userSpaceOnUse">
<stop offset="0.510417" stop-color="#DA0000" stop-opacity="0"/>
<stop offset="1" stop-color="#DA0000" stop-opacity="0.2"/>
</linearGradient>
<linearGradient id="paint24_linear_1_1594" x1="71.9999" y1="12.9998" x2="71.9999" y2="131.495" gradientUnits="userSpaceOnUse">
<stop offset="0.510417" stop-color="#DA0000" stop-opacity="0"/>
<stop offset="1" stop-color="#DA0000" stop-opacity="0.2"/>
</linearGradient>
<linearGradient id="paint25_linear_1_1594" x1="71.9999" y1="12.9998" x2="71.9999" y2="131.495" gradientUnits="userSpaceOnUse">
<stop offset="0.510417" stop-color="#DA0000" stop-opacity="0"/>
<stop offset="1" stop-color="#DA0000" stop-opacity="0.2"/>
</linearGradient>
<linearGradient id="paint26_linear_1_1594" x1="71.9999" y1="12.9998" x2="71.9999" y2="131.495" gradientUnits="userSpaceOnUse">
<stop offset="0.510417" stop-color="#DA0000" stop-opacity="0"/>
<stop offset="1" stop-color="#DA0000" stop-opacity="0.2"/>
</linearGradient>
<linearGradient id="paint27_linear_1_1594" x1="71.9999" y1="12.9999" x2="71.9999" y2="131.495" gradientUnits="userSpaceOnUse">
<stop offset="0.510417" stop-color="#DA0000" stop-opacity="0"/>
<stop offset="1" stop-color="#DA0000" stop-opacity="0.2"/>
</linearGradient>
<linearGradient id="paint28_linear_1_1594" x1="71.9999" y1="12.9998" x2="71.9999" y2="131.495" gradientUnits="userSpaceOnUse">
<stop offset="0.510417" stop-color="#DA0000" stop-opacity="0"/>
<stop offset="1" stop-color="#DA0000" stop-opacity="0.2"/>
</linearGradient>
<linearGradient id="paint29_linear_1_1594" x1="71.9999" y1="12.9998" x2="71.9999" y2="131.495" gradientUnits="userSpaceOnUse">
<stop offset="0.510417" stop-color="#DA0000" stop-opacity="0"/>
<stop offset="1" stop-color="#DA0000" stop-opacity="0.2"/>
</linearGradient>
<linearGradient id="paint30_linear_1_1594" x1="71.9999" y1="12.9998" x2="71.9999" y2="131.495" gradientUnits="userSpaceOnUse">
<stop offset="0.510417" stop-color="#DA0000" stop-opacity="0"/>
<stop offset="1" stop-color="#DA0000" stop-opacity="0.2"/>
</linearGradient>
<linearGradient id="paint31_linear_1_1594" x1="71.9999" y1="12.9999" x2="71.9999" y2="131.495" gradientUnits="userSpaceOnUse">
<stop offset="0.510417" stop-color="#DA0000" stop-opacity="0"/>
<stop offset="1" stop-color="#DA0000" stop-opacity="0.2"/>
</linearGradient>
<linearGradient id="paint32_linear_1_1594" x1="71.9999" y1="12.9998" x2="71.9999" y2="131.495" gradientUnits="userSpaceOnUse">
<stop offset="0.510417" stop-color="#DA0000" stop-opacity="0"/>
<stop offset="1" stop-color="#DA0000" stop-opacity="0.2"/>
</linearGradient>
<linearGradient id="paint33_linear_1_1594" x1="71.9999" y1="12.9998" x2="71.9999" y2="131.495" gradientUnits="userSpaceOnUse">
<stop offset="0.510417" stop-color="#DA0000" stop-opacity="0"/>
<stop offset="1" stop-color="#DA0000" stop-opacity="0.2"/>
</linearGradient>
<linearGradient id="paint34_linear_1_1594" x1="72" y1="12.9998" x2="72" y2="131.495" gradientUnits="userSpaceOnUse">
<stop offset="0.510417" stop-color="#DA0000" stop-opacity="0"/>
<stop offset="1" stop-color="#DA0000" stop-opacity="0.2"/>
</linearGradient>
<linearGradient id="paint35_linear_1_1594" x1="71.9999" y1="12.9998" x2="71.9999" y2="131.495" gradientUnits="userSpaceOnUse">
<stop offset="0.510417" stop-color="#DA0000" stop-opacity="0"/>
<stop offset="1" stop-color="#DA0000" stop-opacity="0.2"/>
</linearGradient>
<linearGradient id="paint36_linear_1_1594" x1="71.9999" y1="12.9999" x2="71.9999" y2="131.495" gradientUnits="userSpaceOnUse">
<stop offset="0.510417" stop-color="#DA0000" stop-opacity="0"/>
<stop offset="1" stop-color="#DA0000" stop-opacity="0.2"/>
</linearGradient>
<linearGradient id="paint37_linear_1_1594" x1="71.9999" y1="12.9999" x2="71.9999" y2="131.495" gradientUnits="userSpaceOnUse">
<stop offset="0.510417" stop-color="#DA0000" stop-opacity="0"/>
<stop offset="1" stop-color="#DA0000" stop-opacity="0.2"/>
</linearGradient>
<linearGradient id="paint38_linear_1_1594" x1="71.9999" y1="12.9998" x2="71.9999" y2="131.495" gradientUnits="userSpaceOnUse">
<stop offset="0.510417" stop-color="#DA0000" stop-opacity="0"/>
<stop offset="1" stop-color="#DA0000" stop-opacity="0.2"/>
</linearGradient>
<linearGradient id="paint39_linear_1_1594" x1="71.9999" y1="12.9998" x2="71.9999" y2="131.495" gradientUnits="userSpaceOnUse">
<stop offset="0.510417" stop-color="#DA0000" stop-opacity="0"/>
<stop offset="1" stop-color="#DA0000" stop-opacity="0.2"/>
</linearGradient>
<linearGradient id="paint40_linear_1_1594" x1="71.9999" y1="12.9999" x2="71.9999" y2="131.495" gradientUnits="userSpaceOnUse">
<stop offset="0.510417" stop-color="#DA0000" stop-opacity="0"/>
<stop offset="1" stop-color="#DA0000" stop-opacity="0.2"/>
</linearGradient>
<linearGradient id="paint41_linear_1_1594" x1="71.9999" y1="12.9998" x2="71.9999" y2="131.495" gradientUnits="userSpaceOnUse">
<stop offset="0.510417" stop-color="#DA0000" stop-opacity="0"/>
<stop offset="1" stop-color="#DA0000" stop-opacity="0.2"/>
</linearGradient>
<linearGradient id="paint42_linear_1_1594" x1="71.9999" y1="12.9998" x2="71.9999" y2="131.495" gradientUnits="userSpaceOnUse">
<stop offset="0.510417" stop-color="#DA0000" stop-opacity="0"/>
<stop offset="1" stop-color="#DA0000" stop-opacity="0.2"/>
</linearGradient>
<linearGradient id="paint43_linear_1_1594" x1="71.9999" y1="12.9998" x2="71.9999" y2="131.495" gradientUnits="userSpaceOnUse">
<stop offset="0.510417" stop-color="#DA0000" stop-opacity="0"/>
<stop offset="1" stop-color="#DA0000" stop-opacity="0.2"/>
</linearGradient>
<linearGradient id="paint44_linear_1_1594" x1="71.9999" y1="12.9999" x2="71.9999" y2="131.495" gradientUnits="userSpaceOnUse">
<stop offset="0.510417" stop-color="#DA0000" stop-opacity="0"/>
<stop offset="1" stop-color="#DA0000" stop-opacity="0.2"/>
</linearGradient>
<linearGradient id="paint45_linear_1_1594" x1="71.9999" y1="12.9998" x2="71.9999" y2="131.495" gradientUnits="userSpaceOnUse">
<stop offset="0.510417" stop-color="#DA0000" stop-opacity="0"/>
<stop offset="1" stop-color="#DA0000" stop-opacity="0.2"/>
</linearGradient>
<linearGradient id="paint46_linear_1_1594" x1="71.9999" y1="12.9998" x2="71.9999" y2="131.495" gradientUnits="userSpaceOnUse">
<stop offset="0.510417" stop-color="#DA0000" stop-opacity="0"/>
<stop offset="1" stop-color="#DA0000" stop-opacity="0.2"/>
</linearGradient>
<linearGradient id="paint47_linear_1_1594" x1="71.9999" y1="12.9998" x2="71.9999" y2="131.495" gradientUnits="userSpaceOnUse">
<stop offset="0.510417" stop-color="#DA0000" stop-opacity="0"/>
<stop offset="1" stop-color="#DA0000" stop-opacity="0.2"/>
</linearGradient>
<linearGradient id="paint48_linear_1_1594" x1="71.9999" y1="12.9998" x2="71.9999" y2="131.495" gradientUnits="userSpaceOnUse">
<stop offset="0.510417" stop-color="#DA0000" stop-opacity="0"/>
<stop offset="1" stop-color="#DA0000" stop-opacity="0.2"/>
</linearGradient>
<linearGradient id="paint49_linear_1_1594" x1="71.9999" y1="12.9999" x2="71.9999" y2="131.495" gradientUnits="userSpaceOnUse">
<stop offset="0.510417" stop-color="#DA0000" stop-opacity="0"/>
<stop offset="1" stop-color="#DA0000" stop-opacity="0.2"/>
</linearGradient>
<linearGradient id="paint50_linear_1_1594" x1="71.9999" y1="12.9999" x2="71.9999" y2="131.495" gradientUnits="userSpaceOnUse">
<stop offset="0.510417" stop-color="#DA0000" stop-opacity="0"/>
<stop offset="1" stop-color="#DA0000" stop-opacity="0.2"/>
</linearGradient>
<linearGradient id="paint51_linear_1_1594" x1="71.9999" y1="12.9998" x2="71.9999" y2="131.495" gradientUnits="userSpaceOnUse">
<stop offset="0.510417" stop-color="#DA0000" stop-opacity="0"/>
<stop offset="1" stop-color="#DA0000" stop-opacity="0.2"/>
</linearGradient>
</defs>
</svg>
