<svg width="384" height="384" viewBox="0 0 384 384" fill="none" xmlns="http://www.w3.org/2000/svg">
<path fill-rule="evenodd" clip-rule="evenodd" d="M223.927 127.535C226.436 135.555 222.626 143.798 215.395 145.926L137.4 168.868C130.175 170.989 122.287 166.201 119.778 158.162C117.275 150.11 121.105 141.886 128.329 139.771L206.325 116.81C213.569 114.675 221.425 119.483 223.927 127.535Z" fill="#FDC90D"/>
<path fill-rule="evenodd" clip-rule="evenodd" d="M223.927 127.535C226.436 135.555 222.626 143.798 215.395 145.926L137.4 168.868C130.175 170.989 122.287 166.201 119.778 158.162C117.275 150.11 121.105 141.886 128.329 139.771L206.325 116.81C213.569 114.675 221.425 119.483 223.927 127.535Z" fill="url(#paint0_linear_1_235)"/>
<path fill-rule="evenodd" clip-rule="evenodd" d="M118.51 152.284L112.52 154.018C109.584 154.885 108.047 158.214 109.065 161.479C110.083 164.723 113.269 166.648 116.165 165.781L122.175 164.014C120.888 162.451 119.85 160.54 119.193 158.458C118.53 156.375 118.293 154.293 118.477 152.284" fill="#FDC90D"/>
<path fill-rule="evenodd" clip-rule="evenodd" d="M118.51 152.284L112.52 154.018C109.584 154.885 108.047 158.214 109.065 161.479C110.083 164.723 113.269 166.648 116.165 165.781L122.175 164.014C120.888 162.451 119.85 160.54 119.193 158.458C118.53 156.375 118.293 154.293 118.477 152.284" fill="url(#paint1_linear_1_235)"/>
<path fill-rule="evenodd" clip-rule="evenodd" d="M123.587 193.268C123.679 193.045 123.896 192.92 124.126 192.959C124.375 193.045 124.487 193.301 124.448 193.478L123.141 197.59C123.036 197.813 122.786 197.938 122.569 197.852C122.32 197.8 122.175 197.557 122.267 197.327L123.587 193.268Z" fill="#FDC90D"/>
<path fill-rule="evenodd" clip-rule="evenodd" d="M123.587 193.268C123.679 193.045 123.896 192.92 124.126 192.959C124.375 193.045 124.487 193.301 124.448 193.478L123.141 197.59C123.036 197.813 122.786 197.938 122.569 197.852C122.32 197.8 122.175 197.557 122.267 197.327L123.587 193.268Z" fill="url(#paint2_linear_1_235)"/>
<path fill-rule="evenodd" clip-rule="evenodd" d="M120.71 192.138C120.802 191.895 121.072 191.797 121.302 191.895C121.479 191.987 121.591 192.243 121.531 192.421L119.745 196.342C119.64 196.565 119.331 196.69 119.154 196.552C118.924 196.48 118.832 196.204 118.937 196.027L120.691 192.125" fill="#FDC90D"/>
<path fill-rule="evenodd" clip-rule="evenodd" d="M120.71 192.138C120.802 191.895 121.072 191.797 121.302 191.895C121.479 191.987 121.591 192.243 121.531 192.421L119.745 196.342C119.64 196.565 119.331 196.69 119.154 196.552C118.924 196.48 118.832 196.204 118.937 196.027L120.691 192.125" fill="url(#paint3_linear_1_235)"/>
<path fill-rule="evenodd" clip-rule="evenodd" d="M117.919 190.7C118.044 190.49 118.28 190.404 118.53 190.529C118.76 190.647 118.812 190.91 118.707 191.12L116.559 194.831C116.415 195.041 116.113 195.107 115.936 194.969C115.699 194.864 115.633 194.621 115.758 194.417L117.939 190.72" fill="#FDC90D"/>
<path fill-rule="evenodd" clip-rule="evenodd" d="M117.919 190.7C118.044 190.49 118.28 190.404 118.53 190.529C118.76 190.647 118.812 190.91 118.707 191.12L116.559 194.831C116.415 195.041 116.113 195.107 115.936 194.969C115.699 194.864 115.633 194.621 115.758 194.417L117.939 190.72" fill="url(#paint4_linear_1_235)"/>
<path fill-rule="evenodd" clip-rule="evenodd" d="M115.344 189.032C115.469 188.828 115.738 188.776 115.955 188.913C116.133 189.051 116.133 189.314 116.06 189.524L113.486 192.992C113.302 193.163 113.039 193.215 112.855 193.078C112.678 192.94 112.625 192.677 112.77 192.506L115.344 189.032Z" fill="#FDC90D"/>
<path fill-rule="evenodd" clip-rule="evenodd" d="M115.344 189.032C115.469 188.828 115.738 188.776 115.955 188.913C116.133 189.051 116.133 189.314 116.06 189.524L113.486 192.992C113.302 193.163 113.039 193.215 112.855 193.078C112.678 192.94 112.625 192.677 112.77 192.506L115.344 189.032Z" fill="url(#paint5_linear_1_235)"/>
<path fill-rule="evenodd" clip-rule="evenodd" d="M112.967 187.147C113.092 186.936 113.361 186.917 113.538 187.074C113.716 187.245 113.716 187.527 113.61 187.698L110.747 190.923C110.569 191.1 110.248 191.1 110.103 190.923C109.926 190.805 109.886 190.529 110.064 190.371L112.927 187.16" fill="#FDC90D"/>
<path fill-rule="evenodd" clip-rule="evenodd" d="M112.967 187.147C113.092 186.936 113.361 186.917 113.538 187.074C113.716 187.245 113.716 187.527 113.61 187.698L110.747 190.923C110.569 191.1 110.248 191.1 110.103 190.923C109.926 190.805 109.886 190.529 110.064 190.371L112.927 187.16" fill="url(#paint6_linear_1_235)"/>
<path fill-rule="evenodd" clip-rule="evenodd" d="M110.747 185.045C110.924 184.867 111.193 184.867 111.39 185.045C111.568 185.216 111.535 185.498 111.39 185.669L108.205 188.618C108.028 188.795 107.725 188.756 107.581 188.618C107.404 188.447 107.404 188.151 107.581 188.014L110.727 185.058" fill="#FDC90D"/>
<path fill-rule="evenodd" clip-rule="evenodd" d="M110.747 185.045C110.924 184.867 111.193 184.867 111.39 185.045C111.568 185.216 111.535 185.498 111.39 185.669L108.205 188.618C108.028 188.795 107.725 188.756 107.581 188.618C107.404 188.447 107.404 188.151 107.581 188.014L110.727 185.058" fill="url(#paint7_linear_1_235)"/>
<path fill-rule="evenodd" clip-rule="evenodd" d="M108.849 182.838C109.026 182.667 109.282 182.7 109.459 182.91C109.584 183.081 109.551 183.363 109.387 183.514L105.952 186.175C105.735 186.345 105.466 186.273 105.328 186.102C105.144 185.931 105.203 185.649 105.4 185.511L108.835 182.858" fill="#FDC90D"/>
<path fill-rule="evenodd" clip-rule="evenodd" d="M108.849 182.838C109.026 182.667 109.282 182.7 109.459 182.91C109.584 183.081 109.551 183.363 109.387 183.514L105.952 186.175C105.735 186.345 105.466 186.273 105.328 186.102C105.144 185.931 105.203 185.649 105.4 185.511L108.835 182.858" fill="url(#paint8_linear_1_235)"/>
<path fill-rule="evenodd" clip-rule="evenodd" d="M107.154 180.533C107.364 180.395 107.653 180.447 107.778 180.638C107.903 180.841 107.831 181.104 107.653 181.242L104.001 183.587C103.732 183.705 103.463 183.639 103.358 183.449C103.18 183.239 103.266 182.996 103.463 182.877L107.134 180.513" fill="#FDC90D"/>
<path fill-rule="evenodd" clip-rule="evenodd" d="M107.154 180.533C107.364 180.395 107.653 180.447 107.778 180.638C107.903 180.841 107.831 181.104 107.653 181.242L104.001 183.587C103.732 183.705 103.463 183.639 103.358 183.449C103.18 183.239 103.266 182.996 103.463 182.877L107.134 180.513" fill="url(#paint9_linear_1_235)"/>
<path fill-rule="evenodd" clip-rule="evenodd" d="M105.808 178.175C105.985 178.03 106.254 178.122 106.399 178.345C106.491 178.516 106.399 178.799 106.182 178.917L102.34 180.933C102.103 181.038 101.801 180.933 101.729 180.756C101.643 180.533 101.729 180.27 101.906 180.165L105.847 178.188" fill="#FDC90D"/>
<path fill-rule="evenodd" clip-rule="evenodd" d="M105.808 178.175C105.985 178.03 106.254 178.122 106.399 178.345C106.491 178.516 106.399 178.799 106.182 178.917L102.34 180.933C102.103 181.038 101.801 180.933 101.729 180.756C101.643 180.533 101.729 180.27 101.906 180.165L105.847 178.188" fill="url(#paint10_linear_1_235)"/>
<path fill-rule="evenodd" clip-rule="evenodd" d="M104.698 175.777C104.934 175.692 105.203 175.777 105.289 176.02C105.4 176.244 105.256 176.487 105.059 176.572L100.98 178.175C100.731 178.273 100.481 178.175 100.389 177.932C100.297 177.721 100.422 177.478 100.639 177.406L104.717 175.797" fill="#FDC90D"/>
<path fill-rule="evenodd" clip-rule="evenodd" d="M104.698 175.777C104.934 175.692 105.203 175.777 105.289 176.02C105.4 176.244 105.256 176.487 105.059 176.572L100.98 178.175C100.731 178.273 100.481 178.175 100.389 177.932C100.297 177.721 100.422 177.478 100.639 177.406L104.717 175.797" fill="url(#paint11_linear_1_235)"/>
<path fill-rule="evenodd" clip-rule="evenodd" d="M103.949 173.472C104.198 173.38 104.415 173.518 104.487 173.761C104.56 173.991 104.396 174.214 104.179 174.286L99.9227 175.429C99.6928 175.482 99.4432 175.344 99.3841 175.121C99.3316 174.891 99.4761 174.667 99.6928 174.595L103.916 173.472" fill="#FDC90D"/>
<path fill-rule="evenodd" clip-rule="evenodd" d="M103.949 173.472C104.198 173.38 104.415 173.518 104.487 173.761C104.56 173.991 104.396 174.214 104.179 174.286L99.9227 175.429C99.6928 175.482 99.4432 175.344 99.3841 175.121C99.3316 174.891 99.4761 174.667 99.6928 174.595L103.916 173.472" fill="url(#paint12_linear_1_235)"/>
<path fill-rule="evenodd" clip-rule="evenodd" d="M103.522 171.232C103.752 171.18 103.982 171.351 104.021 171.58C104.054 171.823 103.896 172.027 103.66 172.06L99.3184 172.69C99.0491 172.69 98.8127 172.513 98.7798 172.309C98.7404 172.08 98.9572 171.856 99.1739 171.837L103.522 171.232Z" fill="#FDC90D"/>
<path fill-rule="evenodd" clip-rule="evenodd" d="M103.522 171.232C103.752 171.18 103.982 171.351 104.021 171.58C104.054 171.823 103.896 172.027 103.66 172.06L99.3184 172.69C99.0491 172.69 98.8127 172.513 98.7798 172.309C98.7404 172.08 98.9572 171.856 99.1739 171.837L103.522 171.232Z" fill="url(#paint13_linear_1_235)"/>
<path fill-rule="evenodd" clip-rule="evenodd" d="M103.43 169.13C103.68 169.13 103.877 169.301 103.896 169.544C103.896 169.807 103.66 169.978 103.43 169.997H99.0294C98.7798 169.997 98.6025 169.774 98.6025 169.544C98.6025 169.301 98.8127 169.13 99.0491 169.13H103.463" fill="#FDC90D"/>
<path fill-rule="evenodd" clip-rule="evenodd" d="M103.43 169.13C103.68 169.13 103.877 169.301 103.896 169.544C103.896 169.807 103.66 169.978 103.43 169.997H99.0294C98.7798 169.997 98.6025 169.774 98.6025 169.544C98.6025 169.301 98.8127 169.13 99.0491 169.13H103.463" fill="url(#paint14_linear_1_235)"/>
<path fill-rule="evenodd" clip-rule="evenodd" d="M103.66 167.219C103.929 167.259 104.074 167.482 104.021 167.745C104.021 167.948 103.732 168.086 103.522 168.053L99.2264 167.324C98.9572 167.272 98.7995 167.029 98.8652 166.805C98.8652 166.582 99.1214 166.457 99.3512 166.457L103.66 167.219Z" fill="#FDC90D"/>
<path fill-rule="evenodd" clip-rule="evenodd" d="M103.66 167.219C103.929 167.259 104.074 167.482 104.021 167.745C104.021 167.948 103.732 168.086 103.522 168.053L99.2264 167.324C98.9572 167.272 98.7995 167.029 98.8652 166.805C98.8652 166.582 99.1214 166.457 99.3512 166.457L103.66 167.219Z" fill="url(#paint15_linear_1_235)"/>
<path fill-rule="evenodd" clip-rule="evenodd" d="M104.238 165.538C104.487 165.623 104.593 165.886 104.501 166.096C104.395 166.319 104.146 166.405 103.929 166.339L99.8176 164.776C99.6008 164.691 99.4957 164.428 99.5811 164.257C99.6731 164.014 99.9424 163.909 100.159 163.994L104.238 165.538Z" fill="#FDC90D"/>
<path fill-rule="evenodd" clip-rule="evenodd" d="M104.238 165.538C104.487 165.623 104.593 165.886 104.501 166.096C104.395 166.319 104.146 166.405 103.929 166.339L99.8176 164.776C99.6008 164.691 99.4957 164.428 99.5811 164.257C99.6731 164.014 99.9424 163.909 100.159 163.994L104.238 165.538Z" fill="url(#paint16_linear_1_235)"/>
<path fill-rule="evenodd" clip-rule="evenodd" d="M105.144 164.113C105.361 164.237 105.381 164.513 105.256 164.704C105.079 164.881 104.822 164.934 104.612 164.829L100.98 162.398C100.803 162.274 100.73 161.998 100.868 161.807C101 161.636 101.282 161.584 101.479 161.702L105.144 164.113Z" fill="#FDC90D"/>
<path fill-rule="evenodd" clip-rule="evenodd" d="M105.144 164.113C105.361 164.237 105.381 164.513 105.256 164.704C105.079 164.881 104.822 164.934 104.612 164.829L100.98 162.398C100.803 162.274 100.73 161.998 100.868 161.807C101 161.636 101.282 161.584 101.479 161.702L105.144 164.113Z" fill="url(#paint17_linear_1_235)"/>
<path fill-rule="evenodd" clip-rule="evenodd" d="M106.346 162.897C106.524 163.075 106.491 163.338 106.307 163.508C106.129 163.679 105.86 163.646 105.683 163.475L102.694 160.349C102.517 160.178 102.57 159.916 102.734 159.758C102.911 159.587 103.18 159.62 103.325 159.758L106.366 162.917" fill="#FDC90D"/>
<path fill-rule="evenodd" clip-rule="evenodd" d="M106.346 162.897C106.524 163.075 106.491 163.338 106.307 163.508C106.129 163.679 105.86 163.646 105.683 163.475L102.694 160.349C102.517 160.178 102.57 159.916 102.734 159.758C102.911 159.587 103.18 159.62 103.325 159.758L106.366 162.917" fill="url(#paint18_linear_1_235)"/>
<path fill-rule="evenodd" clip-rule="evenodd" d="M107.903 161.893C108.047 162.122 107.955 162.365 107.758 162.503C107.489 162.608 107.22 162.536 107.134 162.326L104.914 158.635C104.809 158.405 104.914 158.162 105.092 158.024C105.308 157.919 105.578 158.024 105.683 158.201L107.903 161.893Z" fill="#FDC90D"/>
<path fill-rule="evenodd" clip-rule="evenodd" d="M107.903 161.893C108.047 162.122 107.955 162.365 107.758 162.503C107.489 162.608 107.22 162.536 107.134 162.326L104.914 158.635C104.809 158.405 104.914 158.162 105.092 158.024C105.308 157.919 105.578 158.024 105.683 158.201L107.903 161.893Z" fill="url(#paint19_linear_1_235)"/>
<path fill-rule="evenodd" clip-rule="evenodd" d="M109.926 161.131C110.011 161.354 109.854 161.584 109.637 161.65C109.407 161.755 109.17 161.617 109.098 161.407L107.666 157.347C107.614 157.104 107.739 156.881 107.975 156.789C108.205 156.724 108.455 156.861 108.514 157.072L109.939 161.131" fill="#FDC90D"/>
<path fill-rule="evenodd" clip-rule="evenodd" d="M109.926 161.131C110.011 161.354 109.854 161.584 109.637 161.65C109.407 161.755 109.17 161.617 109.098 161.407L107.666 157.347C107.614 157.104 107.739 156.881 107.975 156.789C108.205 156.724 108.455 156.861 108.514 157.072L109.939 161.131" fill="url(#paint20_linear_1_235)"/>
<path fill-rule="evenodd" clip-rule="evenodd" d="M138.904 221.589C138.727 221.8 138.457 221.813 138.26 221.642C138.116 221.471 138.135 221.208 138.26 221.051L141.301 217.931C141.479 217.786 141.8 217.786 141.912 217.964C142.122 218.102 142.122 218.397 141.912 218.555L138.904 221.589Z" fill="#FDC90D"/>
<path fill-rule="evenodd" clip-rule="evenodd" d="M138.904 221.589C138.727 221.8 138.457 221.813 138.26 221.642C138.116 221.471 138.135 221.208 138.26 221.051L141.301 217.931C141.479 217.786 141.8 217.786 141.912 217.964C142.122 218.102 142.122 218.397 141.912 218.555L138.904 221.589Z" fill="url(#paint21_linear_1_235)"/>
<path fill-rule="evenodd" clip-rule="evenodd" d="M140.979 223.895C140.802 224.072 140.513 224.039 140.336 223.849C140.211 223.671 140.283 223.415 140.428 223.258L143.823 220.584C144.04 220.407 144.362 220.479 144.447 220.65C144.625 220.827 144.592 221.103 144.395 221.241L140.999 223.895" fill="#FDC90D"/>
<path fill-rule="evenodd" clip-rule="evenodd" d="M140.979 223.895C140.802 224.072 140.513 224.039 140.336 223.849C140.211 223.671 140.283 223.415 140.428 223.258L143.823 220.584C144.04 220.407 144.362 220.479 144.447 220.65C144.625 220.827 144.592 221.103 144.395 221.241L140.999 223.895" fill="url(#paint22_linear_1_235)"/>
<path fill-rule="evenodd" clip-rule="evenodd" d="M142.431 226.049C142.247 226.187 141.978 226.134 141.82 225.931C141.715 225.721 141.82 225.458 141.997 225.34L145.754 223.153C145.991 223.028 146.293 223.12 146.345 223.323C146.523 223.534 146.437 223.777 146.221 223.914L142.431 226.049Z" fill="#FDC90D"/>
<path fill-rule="evenodd" clip-rule="evenodd" d="M142.431 226.049C142.247 226.187 141.978 226.134 141.82 225.931C141.715 225.721 141.82 225.458 141.997 225.34L145.754 223.153C145.991 223.028 146.293 223.12 146.345 223.323C146.523 223.534 146.437 223.777 146.221 223.914L142.431 226.049Z" fill="url(#paint23_linear_1_235)"/>
<path fill-rule="evenodd" clip-rule="evenodd" d="M143.429 228.184C143.212 228.269 142.95 228.184 142.858 227.941C142.805 227.73 142.93 227.474 143.107 227.389L147.186 225.793C147.436 225.701 147.725 225.826 147.758 226.029C147.882 226.259 147.758 226.502 147.528 226.588L143.469 228.151" fill="#FDC90D"/>
<path fill-rule="evenodd" clip-rule="evenodd" d="M143.429 228.184C143.212 228.269 142.95 228.184 142.858 227.941C142.805 227.73 142.93 227.474 143.107 227.389L147.186 225.793C147.436 225.701 147.725 225.826 147.758 226.029C147.882 226.259 147.758 226.502 147.528 226.588L143.469 228.151" fill="url(#paint24_linear_1_235)"/>
<path fill-rule="evenodd" clip-rule="evenodd" d="M144.02 230.2C143.79 230.253 143.574 230.128 143.482 229.885C143.429 229.661 143.607 229.451 143.804 229.366L148.099 228.407C148.349 228.374 148.598 228.532 148.638 228.755C148.71 228.998 148.546 229.208 148.276 229.28L144.02 230.2Z" fill="#FDC90D"/>
<path fill-rule="evenodd" clip-rule="evenodd" d="M144.02 230.2C143.79 230.253 143.574 230.128 143.482 229.885C143.429 229.661 143.607 229.451 143.804 229.366L148.099 228.407C148.349 228.374 148.598 228.532 148.638 228.755C148.71 228.998 148.546 229.208 148.276 229.28L144.02 230.2Z" fill="url(#paint25_linear_1_235)"/>
<path fill-rule="evenodd" clip-rule="evenodd" d="M144.237 232.144C143.981 232.177 143.791 232 143.751 231.757C143.751 231.514 143.968 231.323 144.178 231.31L148.579 231.047C148.835 231.047 149.045 231.218 149.032 231.461C149.084 231.691 148.887 231.862 148.638 231.881L144.25 232.124" fill="#FDC90D"/>
<path fill-rule="evenodd" clip-rule="evenodd" d="M144.237 232.144C143.981 232.177 143.791 232 143.751 231.757C143.751 231.514 143.968 231.323 144.178 231.31L148.579 231.047C148.835 231.047 149.045 231.218 149.032 231.461C149.084 231.691 148.887 231.862 148.638 231.881L144.25 232.124" fill="url(#paint26_linear_1_235)"/>
<path fill-rule="evenodd" clip-rule="evenodd" d="M144.093 233.983C143.876 233.983 143.699 233.773 143.731 233.51C143.731 233.3 143.981 233.162 144.198 233.162L148.579 233.596C148.848 233.596 149.032 233.858 148.973 234.069C148.973 234.292 148.743 234.469 148.513 234.417L144.125 233.963" fill="#FDC90D"/>
<path fill-rule="evenodd" clip-rule="evenodd" d="M144.093 233.983C143.876 233.983 143.699 233.773 143.731 233.51C143.731 233.3 143.981 233.162 144.198 233.162L148.579 233.596C148.848 233.596 149.032 233.858 148.973 234.069C148.973 234.292 148.743 234.469 148.513 234.417L144.125 233.963" fill="url(#paint27_linear_1_235)"/>
<path fill-rule="evenodd" clip-rule="evenodd" d="M143.731 235.73C143.449 235.665 143.337 235.441 143.377 235.211C143.449 234.968 143.731 234.863 143.915 234.903L148.171 236.026C148.401 236.098 148.565 236.341 148.454 236.551C148.421 236.794 148.171 236.893 147.922 236.86L143.718 235.73" fill="#FDC90D"/>
<path fill-rule="evenodd" clip-rule="evenodd" d="M143.731 235.73C143.449 235.665 143.337 235.441 143.377 235.211C143.449 234.968 143.731 234.863 143.915 234.903L148.171 236.026C148.401 236.098 148.565 236.341 148.454 236.551C148.421 236.794 148.171 236.893 147.922 236.86L143.718 235.73" fill="url(#paint28_linear_1_235)"/>
<path fill-rule="evenodd" clip-rule="evenodd" d="M143.015 237.326C142.838 237.261 142.713 236.985 142.838 236.775C142.91 236.564 143.199 236.499 143.377 236.564L147.403 238.298C147.633 238.423 147.725 238.699 147.613 238.889C147.528 239.119 147.258 239.185 147.022 239.1L143.035 237.313" fill="#FDC90D"/>
<path fill-rule="evenodd" clip-rule="evenodd" d="M143.015 237.326C142.838 237.261 142.713 236.985 142.838 236.775C142.91 236.564 143.199 236.499 143.377 236.564L147.403 238.298C147.633 238.423 147.725 238.699 147.613 238.889C147.528 239.119 147.258 239.185 147.022 239.1L143.035 237.313" fill="url(#paint29_linear_1_235)"/>
<path fill-rule="evenodd" clip-rule="evenodd" d="M142.122 238.804C141.912 238.686 141.853 238.423 141.978 238.213C142.122 238.009 142.411 237.99 142.608 238.095L146.273 240.433C146.49 240.61 146.542 240.867 146.398 241.044C146.253 241.254 145.971 241.3 145.794 241.162L142.109 238.824" fill="#FDC90D"/>
<path fill-rule="evenodd" clip-rule="evenodd" d="M142.122 238.804C141.912 238.686 141.853 238.423 141.978 238.213C142.122 238.009 142.411 237.99 142.608 238.095L146.273 240.433C146.49 240.61 146.542 240.867 146.398 241.044C146.253 241.254 145.971 241.3 145.794 241.162L142.109 238.824" fill="url(#paint30_linear_1_235)"/>
<path fill-rule="evenodd" clip-rule="evenodd" d="M141.012 240.105C140.802 239.934 140.802 239.691 140.96 239.5C141.137 239.323 141.406 239.323 141.584 239.5L144.861 242.311C145.038 242.482 145.078 242.778 144.894 242.916C144.717 243.093 144.447 243.093 144.29 242.916L141.032 240.091" fill="#FDC90D"/>
<path fill-rule="evenodd" clip-rule="evenodd" d="M141.012 240.105C140.802 239.934 140.802 239.691 140.96 239.5C141.137 239.323 141.406 239.323 141.584 239.5L144.861 242.311C145.038 242.482 145.078 242.778 144.894 242.916C144.717 243.093 144.447 243.093 144.29 242.916L141.032 240.091" fill="url(#paint31_linear_1_235)"/>
<path fill-rule="evenodd" clip-rule="evenodd" d="M139.712 241.201C139.528 241.024 139.58 240.781 139.777 240.61C139.961 240.472 140.211 240.525 140.369 240.696L143.16 243.993C143.304 244.164 143.272 244.459 143.075 244.604C142.891 244.774 142.621 244.702 142.483 244.531L139.672 241.234" fill="#FDC90D"/>
<path fill-rule="evenodd" clip-rule="evenodd" d="M139.712 241.201C139.528 241.024 139.58 240.781 139.777 240.61C139.961 240.472 140.211 240.525 140.369 240.696L143.16 243.993C143.304 244.164 143.272 244.459 143.075 244.604C142.891 244.774 142.621 244.702 142.483 244.531L139.672 241.234" fill="url(#paint32_linear_1_235)"/>
<path fill-rule="evenodd" clip-rule="evenodd" d="M138.26 242.134C138.135 241.911 138.208 241.668 138.438 241.53C138.654 241.392 138.904 241.477 139.029 241.701L141.281 245.346C141.406 245.556 141.321 245.832 141.104 245.917C140.887 246.055 140.638 245.97 140.513 245.779L138.26 242.134Z" fill="#FDC90D"/>
<path fill-rule="evenodd" clip-rule="evenodd" d="M138.26 242.134C138.135 241.911 138.208 241.668 138.438 241.53C138.654 241.392 138.904 241.477 139.029 241.701L141.281 245.346C141.406 245.556 141.321 245.832 141.104 245.917C140.887 246.055 140.638 245.97 140.513 245.779L138.26 242.134Z" fill="url(#paint33_linear_1_235)"/>
<path fill-rule="evenodd" clip-rule="evenodd" d="M136.723 242.797C136.612 242.587 136.723 242.325 136.953 242.239C137.222 242.134 137.452 242.279 137.544 242.482L139.153 246.443C139.259 246.666 139.153 246.929 138.924 246.994C138.707 247.099 138.457 246.994 138.385 246.784L136.723 242.797Z" fill="#FDC90D"/>
<path fill-rule="evenodd" clip-rule="evenodd" d="M136.723 242.797C136.612 242.587 136.723 242.325 136.953 242.239C137.222 242.134 137.452 242.279 137.544 242.482L139.153 246.443C139.259 246.666 139.153 246.929 138.924 246.994C138.707 247.099 138.457 246.994 138.385 246.784L136.723 242.797Z" fill="url(#paint34_linear_1_235)"/>
<path fill-rule="evenodd" clip-rule="evenodd" d="M135.094 243.211C135.002 242.968 135.167 242.745 135.416 242.692C135.646 242.659 135.863 242.797 135.915 243.04L136.881 247.205C136.933 247.448 136.756 247.658 136.526 247.723C136.31 247.756 136.093 247.605 136.021 247.375L135.094 243.211Z" fill="#FDC90D"/>
<path fill-rule="evenodd" clip-rule="evenodd" d="M135.094 243.211C135.002 242.968 135.167 242.745 135.416 242.692C135.646 242.659 135.863 242.797 135.915 243.04L136.881 247.205C136.933 247.448 136.756 247.658 136.526 247.723C136.31 247.756 136.093 247.605 136.021 247.375L135.094 243.211Z" fill="url(#paint35_linear_1_235)"/>
<path fill-rule="evenodd" clip-rule="evenodd" d="M133.393 243.349C133.36 243.106 133.538 242.916 133.807 242.903C134.057 242.903 134.234 243.073 134.254 243.316L134.47 247.566C134.47 247.829 134.287 248.039 134.057 248.039C133.787 248.039 133.59 247.829 133.59 247.638L133.374 243.369" fill="#FDC90D"/>
<path fill-rule="evenodd" clip-rule="evenodd" d="M133.393 243.349C133.36 243.106 133.538 242.916 133.807 242.903C134.057 242.903 134.234 243.073 134.254 243.316L134.47 247.566C134.47 247.829 134.287 248.039 134.057 248.039C133.787 248.039 133.59 247.829 133.59 247.638L133.374 243.369" fill="url(#paint36_linear_1_235)"/>
<path fill-rule="evenodd" clip-rule="evenodd" d="M131.679 243.211C131.679 242.949 131.909 242.83 132.159 242.863C132.428 242.863 132.553 243.093 132.52 243.336L131.981 247.533C131.942 247.796 131.712 247.967 131.495 247.934C131.246 247.934 131.088 247.671 131.101 247.467L131.679 243.231" fill="#FDC90D"/>
<path fill-rule="evenodd" clip-rule="evenodd" d="M131.679 243.211C131.679 242.949 131.909 242.83 132.159 242.863C132.428 242.863 132.553 243.093 132.52 243.336L131.981 247.533C131.942 247.796 131.712 247.967 131.495 247.934C131.246 247.934 131.088 247.671 131.101 247.467L131.679 243.231" fill="url(#paint37_linear_1_235)"/>
<path fill-rule="evenodd" clip-rule="evenodd" d="M129.958 242.758C129.998 242.535 130.247 242.417 130.497 242.482C130.714 242.554 130.819 242.797 130.746 243.001L129.459 247.067C129.407 247.343 129.098 247.448 128.92 247.375C128.671 247.31 128.566 247.067 128.618 246.856L129.958 242.758Z" fill="#FDC90D"/>
<path fill-rule="evenodd" clip-rule="evenodd" d="M129.958 242.758C129.998 242.535 130.247 242.417 130.497 242.482C130.714 242.554 130.819 242.797 130.746 243.001L129.459 247.067C129.407 247.343 129.098 247.448 128.92 247.375C128.671 247.31 128.566 247.067 128.618 246.856L129.958 242.758Z" fill="url(#paint38_linear_1_235)"/>
<path fill-rule="evenodd" clip-rule="evenodd" d="M128.172 241.996C128.277 241.74 128.566 241.701 128.776 241.793C129.012 241.911 129.065 242.134 128.96 242.377L126.957 246.16C126.832 246.39 126.595 246.476 126.346 246.338C126.129 246.265 126.077 245.99 126.169 245.812L128.172 241.996Z" fill="#FDC90D"/>
<path fill-rule="evenodd" clip-rule="evenodd" d="M128.172 241.996C128.277 241.74 128.566 241.701 128.776 241.793C129.012 241.911 129.065 242.134 128.96 242.377L126.957 246.16C126.832 246.39 126.595 246.476 126.346 246.338C126.129 246.265 126.077 245.99 126.169 245.812L128.172 241.996Z" fill="url(#paint39_linear_1_235)"/>
<path fill-rule="evenodd" clip-rule="evenodd" d="M95.2527 239.809L96.8619 242.377L104.487 241.648L109.532 240.486L110.747 237.885L108.06 231.12L100.868 228.046L94.4843 231.809L95.2396 239.796L95.2527 239.809ZM95.9358 245.884C95.325 245.884 94.7536 245.569 94.4514 245.05L92.0541 241.234C91.9096 241.024 91.8374 240.781 91.8176 240.538L90.9244 231.08C90.8719 230.443 91.1937 229.813 91.7651 229.484L99.8503 224.716C100.336 224.42 100.927 224.368 101.46 224.611L110.175 228.322C110.602 228.499 110.924 228.84 111.101 229.281L114.287 237.326C114.431 237.747 114.412 238.2 114.234 238.614L112.376 242.673C112.159 243.146 111.712 243.507 111.174 243.632L105.039 244.985L96.0934 245.852H95.9161L95.9358 245.884Z" fill="#FDC90D"/>
<path fill-rule="evenodd" clip-rule="evenodd" d="M95.2527 239.809L96.8619 242.377L104.487 241.648L109.532 240.486L110.747 237.885L108.06 231.12L100.868 228.046L94.4843 231.809L95.2396 239.796L95.2527 239.809ZM95.9358 245.884C95.325 245.884 94.7536 245.569 94.4514 245.05L92.0541 241.234C91.9096 241.024 91.8374 240.781 91.8176 240.538L90.9244 231.08C90.8719 230.443 91.1937 229.813 91.7651 229.484L99.8503 224.716C100.336 224.42 100.927 224.368 101.46 224.611L110.175 228.322C110.602 228.499 110.924 228.84 111.101 229.281L114.287 237.326C114.431 237.747 114.412 238.2 114.234 238.614L112.376 242.673C112.159 243.146 111.712 243.507 111.174 243.632L105.039 244.985L96.0934 245.852H95.9161L95.9358 245.884Z" fill="url(#paint40_linear_1_235)"/>
<path fill-rule="evenodd" clip-rule="evenodd" d="M97.151 228.236L93.1051 189.78C93.1051 189.78 103.41 188.513 106.346 189.229V228.794" fill="#FDC90D"/>
<path fill-rule="evenodd" clip-rule="evenodd" d="M97.151 228.236L93.1051 189.78C93.1051 189.78 103.41 188.513 106.346 189.229V228.794" fill="url(#paint41_linear_1_235)"/>
<path fill-rule="evenodd" clip-rule="evenodd" d="M124.343 250.049C120.513 250.049 117.256 247.999 116.829 247.704L115.574 246.876L114.628 241.109L113.374 240.939L114.412 234.226L120.75 235.159L121.965 242.712C123.036 243.146 124.435 243.487 125.361 243.054C126.366 242.607 127.154 241.096 127.653 238.824L123.929 235.487L123.535 230.804C123.462 229.937 123.108 222.752 127.797 218.174C129.544 216.433 132.717 214.424 137.938 214.699L139.153 214.732L140.086 215.534C140.158 215.619 149.097 223.133 158.831 222.614C168.67 222.128 176.545 220.066 177.846 219.665L214.272 203.698L217.188 209.859L180.066 226.121C179.711 226.239 170.798 228.794 159.173 229.379C148.795 229.904 139.548 223.757 136.526 221.471C134.917 221.556 133.663 222.042 132.769 222.929C130.622 225.011 130.405 229.051 130.477 230.298L130.654 232.335L135.042 236.289L134.825 238.022C134.142 243.835 131.929 247.618 128.297 249.267C126.97 249.838 125.65 250.081 124.362 250.081" fill="#FDC90D"/>
<path fill-rule="evenodd" clip-rule="evenodd" d="M124.343 250.049C120.513 250.049 117.256 247.999 116.829 247.704L115.574 246.876L114.628 241.109L113.374 240.939L114.412 234.226L120.75 235.159L121.965 242.712C123.036 243.146 124.435 243.487 125.361 243.054C126.366 242.607 127.154 241.096 127.653 238.824L123.929 235.487L123.535 230.804C123.462 229.937 123.108 222.752 127.797 218.174C129.544 216.433 132.717 214.424 137.938 214.699L139.153 214.732L140.086 215.534C140.158 215.619 149.097 223.133 158.831 222.614C168.67 222.128 176.545 220.066 177.846 219.665L214.272 203.698L217.188 209.859L180.066 226.121C179.711 226.239 170.798 228.794 159.173 229.379C148.795 229.904 139.548 223.757 136.526 221.471C134.917 221.556 133.663 222.042 132.769 222.929C130.622 225.011 130.405 229.051 130.477 230.298L130.654 232.335L135.042 236.289L134.825 238.022C134.142 243.835 131.929 247.618 128.297 249.267C126.97 249.838 125.65 250.081 124.362 250.081" fill="url(#paint42_linear_1_235)"/>
<path fill-rule="evenodd" clip-rule="evenodd" d="M366.683 106.642L351.301 119.082C335.288 131.529 326.973 117.696 326.973 117.696L315.63 114.274L246.541 183.271C246.541 183.271 288.136 180.841 301.64 165.177C301.64 165.177 310.815 156.671 315.183 136.317C315.183 136.317 332.05 134.616 335.577 134.616C366.663 134.616 371.031 121.88 371.031 121.88L366.663 106.609" fill="#FDC90D"/>
<path fill-rule="evenodd" clip-rule="evenodd" d="M366.683 106.642L351.301 119.082C335.288 131.529 326.973 117.696 326.973 117.696L315.63 114.274L246.541 183.271C246.541 183.271 288.136 180.841 301.64 165.177C301.64 165.177 310.815 156.671 315.183 136.317C315.183 136.317 332.05 134.616 335.577 134.616C366.663 134.616 371.031 121.88 371.031 121.88L366.663 106.609" fill="url(#paint43_linear_1_235)"/>
<path fill-rule="evenodd" clip-rule="evenodd" d="M192.519 253.812C183.626 253.812 172.335 252.65 165.36 247.566C152.894 238.476 146.293 223.744 146.004 223.1L149.222 221.767C149.281 221.937 155.738 236.341 167.435 244.847C178.923 253.208 205.129 249.635 205.412 249.595L205.898 252.965C205.359 253.037 199.724 253.832 192.479 253.832" fill="#FDC90D"/>
<path fill-rule="evenodd" clip-rule="evenodd" d="M192.519 253.812C183.626 253.812 172.335 252.65 165.36 247.566C152.894 238.476 146.293 223.744 146.004 223.1L149.222 221.767C149.281 221.937 155.738 236.341 167.435 244.847C178.923 253.208 205.129 249.635 205.412 249.595L205.898 252.965C205.359 253.037 199.724 253.832 192.479 253.832" fill="url(#paint44_linear_1_235)"/>
<path fill-rule="evenodd" clip-rule="evenodd" d="M197.326 253.622C197.326 253.622 203.5 242.377 213.07 252.131C222.679 261.884 197.326 253.622 197.326 253.622Z" fill="#FDC90D"/>
<path fill-rule="evenodd" clip-rule="evenodd" d="M197.326 253.622C197.326 253.622 203.5 242.377 213.07 252.131C222.679 261.884 197.326 253.622 197.326 253.622Z" fill="url(#paint45_linear_1_235)"/>
<path fill-rule="evenodd" clip-rule="evenodd" d="M203.198 159.515C203.198 159.515 212.604 163.613 214.824 171.107L203.198 159.515Z" fill="#FDC90D"/>
<path fill-rule="evenodd" clip-rule="evenodd" d="M203.198 159.515C203.198 159.515 212.604 163.613 214.824 171.107L203.198 159.515Z" fill="url(#paint46_linear_1_235)"/>
<path fill-rule="evenodd" clip-rule="evenodd" d="M381.908 55.865L380.83 50.9521L376.542 53.7632C361.337 63.6546 342.729 74.5379 339.189 74.8137C333.015 74.8137 316.503 76.0288 315.787 76.101L315.308 76.1667C304.07 78.6691 297.863 82.7085 296.346 88.5606C294.789 94.5441 298.993 99.805 301.246 102.097C300.602 115.627 291.229 127.167 288.274 130.465C274.087 131.561 266.363 141.519 263.322 146.556C236.078 138.051 207.684 153.013 202.233 156.1H176.151L175.698 156.132C174.45 156.27 145.649 159.948 130.838 167.81C120.533 173.275 117.834 183.324 117.243 190.234C112.284 187.147 104.77 183.639 97.0787 184.559C90.8194 185.288 85.5387 188.67 81.4271 194.621C79.2071 197.918 76.0085 208.158 78.3861 218.187C80.1398 225.53 84.6126 231.428 91.3185 235.244L94.8456 229.346C89.7619 226.483 86.5436 222.2 85.2366 216.644C83.3253 208.696 85.9196 200.368 87.2792 198.391C90.2283 194.102 93.683 191.797 97.8997 191.271C107.798 190.109 118.385 199.481 118.51 199.567L125.663 205.99L124.343 196.618C124.343 196.447 122.123 180.132 134.181 173.761C147.206 166.858 173.714 163.213 176.401 162.865H204.197L205.057 162.346C205.359 162.136 236.544 143.601 263.769 153.84L266.902 155.022L268.241 152.021C268.511 151.43 274.79 137.617 290.008 137.098L291.407 137.059L292.372 136.074C293.016 135.43 308.201 120.021 308.201 100.639V99.076L307.006 98.0711C305.968 97.1975 302.264 93.2633 303.072 90.1566C303.518 88.4227 305.876 85.1912 316.575 82.7807C318.723 82.6034 333.679 81.5656 339.169 81.5656C343.675 81.5656 356.824 74.0715 367.878 67.2671C364.338 71.0174 359.025 75.8186 351.064 81.8087C350.118 82.5049 349.508 82.9515 349.278 83.0894L347.577 84.3768L348.115 88.2782L349.954 89.0466C351.333 89.5655 352.174 89.3947 353.534 88.5212C354.033 88.1796 354.611 87.7265 355.327 87.1879C381.98 67.2342 382.387 58.1572 381.908 55.8453" fill="#FDC90D"/>
<path fill-rule="evenodd" clip-rule="evenodd" d="M381.908 55.865L380.83 50.9521L376.542 53.7632C361.337 63.6546 342.729 74.5379 339.189 74.8137C333.015 74.8137 316.503 76.0288 315.787 76.101L315.308 76.1667C304.07 78.6691 297.863 82.7085 296.346 88.5606C294.789 94.5441 298.993 99.805 301.246 102.097C300.602 115.627 291.229 127.167 288.274 130.465C274.087 131.561 266.363 141.519 263.322 146.556C236.078 138.051 207.684 153.013 202.233 156.1H176.151L175.698 156.132C174.45 156.27 145.649 159.948 130.838 167.81C120.533 173.275 117.834 183.324 117.243 190.234C112.284 187.147 104.77 183.639 97.0787 184.559C90.8194 185.288 85.5387 188.67 81.4271 194.621C79.2071 197.918 76.0085 208.158 78.3861 218.187C80.1398 225.53 84.6126 231.428 91.3185 235.244L94.8456 229.346C89.7619 226.483 86.5436 222.2 85.2366 216.644C83.3253 208.696 85.9196 200.368 87.2792 198.391C90.2283 194.102 93.683 191.797 97.8997 191.271C107.798 190.109 118.385 199.481 118.51 199.567L125.663 205.99L124.343 196.618C124.343 196.447 122.123 180.132 134.181 173.761C147.206 166.858 173.714 163.213 176.401 162.865H204.197L205.057 162.346C205.359 162.136 236.544 143.601 263.769 153.84L266.902 155.022L268.241 152.021C268.511 151.43 274.79 137.617 290.008 137.098L291.407 137.059L292.372 136.074C293.016 135.43 308.201 120.021 308.201 100.639V99.076L307.006 98.0711C305.968 97.1975 302.264 93.2633 303.072 90.1566C303.518 88.4227 305.876 85.1912 316.575 82.7807C318.723 82.6034 333.679 81.5656 339.169 81.5656C343.675 81.5656 356.824 74.0715 367.878 67.2671C364.338 71.0174 359.025 75.8186 351.064 81.8087C350.118 82.5049 349.508 82.9515 349.278 83.0894L347.577 84.3768L348.115 88.2782L349.954 89.0466C351.333 89.5655 352.174 89.3947 353.534 88.5212C354.033 88.1796 354.611 87.7265 355.327 87.1879C381.98 67.2342 382.387 58.1572 381.908 55.8453" fill="url(#paint47_linear_1_235)"/>
<path fill-rule="evenodd" clip-rule="evenodd" d="M231.119 195.383L227.185 189.78L239.743 181.518C263.966 172.323 278.1 161.354 279.847 159.948L301.994 134.826L320.674 91.2994L324.431 89.9661C327.866 89.6508 332.175 87.398 334.986 85.9202C336.95 84.8825 338.171 84.2519 339.334 84.0615L351.425 82.0714L352.621 88.751L340.509 90.7477C340.371 90.8134 339.261 91.4374 338.309 91.8905C335.163 93.5391 330.513 95.989 325.968 96.6261L307.669 138.799L284.589 164.894C283.998 165.42 269.437 177.446 242.659 187.698L231.119 195.337" fill="#FDC90D"/>
<path fill-rule="evenodd" clip-rule="evenodd" d="M231.119 195.383L227.185 189.78L239.743 181.518C263.966 172.323 278.1 161.354 279.847 159.948L301.994 134.826L320.674 91.2994L324.431 89.9661C327.866 89.6508 332.175 87.398 334.986 85.9202C336.95 84.8825 338.171 84.2519 339.334 84.0615L351.425 82.0714L352.621 88.751L340.509 90.7477C340.371 90.8134 339.261 91.4374 338.309 91.8905C335.163 93.5391 330.513 95.989 325.968 96.6261L307.669 138.799L284.589 164.894C283.998 165.42 269.437 177.446 242.659 187.698L231.119 195.337" fill="url(#paint48_linear_1_235)"/>
<path fill-rule="evenodd" clip-rule="evenodd" d="M273.607 229.661C273.607 252.308 257.325 242.949 257.325 242.949L248.564 233.931C248.564 233.931 218.114 210.207 210.942 209.544C195.645 208.191 174.575 193.997 161.321 199.409C160.171 199.895 159.081 200.316 158.01 200.677C132.001 209.839 129.295 192.073 129.295 192.073C129.295 192.073 126.97 173.991 162.483 173.419C197.97 172.828 232.281 192.611 232.281 192.611L253.825 225.405C253.825 225.405 261.982 226.272 264.307 232.486C264.307 232.486 273.607 224.558 273.607 229.661Z" fill="#FDC90D"/>
<path fill-rule="evenodd" clip-rule="evenodd" d="M273.607 229.661C273.607 252.308 257.325 242.949 257.325 242.949L248.564 233.931C248.564 233.931 218.114 210.207 210.942 209.544C195.645 208.191 174.575 193.997 161.321 199.409C160.171 199.895 159.081 200.316 158.01 200.677C132.001 209.839 129.295 192.073 129.295 192.073C129.295 192.073 126.97 173.991 162.483 173.419C197.97 172.828 232.281 192.611 232.281 192.611L253.825 225.405C253.825 225.405 261.982 226.272 264.307 232.486C264.307 232.486 273.607 224.558 273.607 229.661Z" fill="url(#paint49_linear_1_235)"/>
<path fill-rule="evenodd" clip-rule="evenodd" d="M379.418 58.2426C379.418 58.2426 346.237 79.8842 340.155 79.8842C334.02 79.8842 317.022 81.1519 317.022 81.1519C288.221 87.5163 305.666 102.353 305.666 102.353C305.666 120.573 290.816 135.43 290.816 135.43C273.108 135.988 265.949 152.402 265.949 152.402C236.721 141.367 204.144 161.164 204.144 161.164H177.077C177.077 161.164 147.83 164.809 133.433 172.447C119.049 180.079 121.801 198.752 121.801 198.752C121.801 198.752 98.9966 178.227 85.3088 198.201C82.4451 202.325 76.9346 223.015 92.8555 233.202L92.6781 230.909L100.731 226.134L109.459 229.852L112.625 237.904L112.323 238.594L114.858 239.218L118.615 239.809L118.346 248.282C118.346 248.282 130.569 253.661 132.303 239.218L128.244 235.579L127.935 232.177C127.935 232.177 127.042 219.159 138.707 219.717C138.707 219.717 148.598 228.216 159.941 227.645C171.284 227.041 180.013 224.525 180.013 224.525L216.682 208.381L232.662 192.835L241.963 186.326C268.721 176.139 283.282 163.975 283.282 163.975L305.988 138.294L324.319 95.5687L325.751 95.0169C331.892 94.439 339.169 89.3553 340.903 89.0598L352.995 87.0631L354.158 86.1961C381.172 65.9666 379.471 58.2623 379.471 58.2623" fill="#FDC90D"/>
<path fill-rule="evenodd" clip-rule="evenodd" d="M379.418 58.2426C379.418 58.2426 346.237 79.8842 340.155 79.8842C334.02 79.8842 317.022 81.1519 317.022 81.1519C288.221 87.5163 305.666 102.353 305.666 102.353C305.666 120.573 290.816 135.43 290.816 135.43C273.108 135.988 265.949 152.402 265.949 152.402C236.721 141.367 204.144 161.164 204.144 161.164H177.077C177.077 161.164 147.83 164.809 133.433 172.447C119.049 180.079 121.801 198.752 121.801 198.752C121.801 198.752 98.9966 178.227 85.3088 198.201C82.4451 202.325 76.9346 223.015 92.8555 233.202L92.6781 230.909L100.731 226.134L109.459 229.852L112.625 237.904L112.323 238.594L114.858 239.218L118.615 239.809L118.346 248.282C118.346 248.282 130.569 253.661 132.303 239.218L128.244 235.579L127.935 232.177C127.935 232.177 127.042 219.159 138.707 219.717C138.707 219.717 148.598 228.216 159.941 227.645C171.284 227.041 180.013 224.525 180.013 224.525L216.682 208.381L232.662 192.835L241.963 186.326C268.721 176.139 283.282 163.975 283.282 163.975L305.988 138.294L324.319 95.5687L325.751 95.0169C331.892 94.439 339.169 89.3553 340.903 89.0598L352.995 87.0631L354.158 86.1961C381.172 65.9666 379.471 58.2623 379.471 58.2623" fill="url(#paint50_linear_1_235)"/>
<path fill-rule="evenodd" clip-rule="evenodd" d="M296.359 221.714C282.698 279.913 229.03 323.472 165.091 323.472C90.8522 323.472 30.4592 264.768 30.4592 192.591C30.4592 120.435 90.8522 61.7105 165.091 61.7105C194.43 61.7105 221.622 70.9123 243.769 86.4588C248.596 78.564 254.199 70.9451 260.872 64.3705C233.95 45.2773 200.853 34 165.091 34C75.1678 34 2 105.151 2 192.539C2 279.966 75.1678 351.098 165.091 351.098C244.951 351.098 311.603 294.994 325.501 221.208C315.912 222.391 305.751 222.075 296.379 221.675" fill="#FDC90D"/>
<path fill-rule="evenodd" clip-rule="evenodd" d="M296.359 221.714C282.698 279.913 229.03 323.472 165.091 323.472C90.8522 323.472 30.4592 264.768 30.4592 192.591C30.4592 120.435 90.8522 61.7105 165.091 61.7105C194.43 61.7105 221.622 70.9123 243.769 86.4588C248.596 78.564 254.199 70.9451 260.872 64.3705C233.95 45.2773 200.853 34 165.091 34C75.1678 34 2 105.151 2 192.539C2 279.966 75.1678 351.098 165.091 351.098C244.951 351.098 311.603 294.994 325.501 221.208C315.912 222.391 305.751 222.075 296.379 221.675" fill="url(#paint51_linear_1_235)"/>
<defs>
<linearGradient id="paint0_linear_1_235" x1="192" y1="33.9996" x2="192" y2="351.098" gradientUnits="userSpaceOnUse">
<stop offset="0.510417" stop-color="#DA0000" stop-opacity="0"/>
<stop offset="1" stop-color="#DA0000" stop-opacity="0.2"/>
</linearGradient>
<linearGradient id="paint1_linear_1_235" x1="192" y1="33.9996" x2="192" y2="351.098" gradientUnits="userSpaceOnUse">
<stop offset="0.510417" stop-color="#DA0000" stop-opacity="0"/>
<stop offset="1" stop-color="#DA0000" stop-opacity="0.2"/>
</linearGradient>
<linearGradient id="paint2_linear_1_235" x1="192" y1="33.9996" x2="192" y2="351.098" gradientUnits="userSpaceOnUse">
<stop offset="0.510417" stop-color="#DA0000" stop-opacity="0"/>
<stop offset="1" stop-color="#DA0000" stop-opacity="0.2"/>
</linearGradient>
<linearGradient id="paint3_linear_1_235" x1="192" y1="33.9996" x2="192" y2="351.098" gradientUnits="userSpaceOnUse">
<stop offset="0.510417" stop-color="#DA0000" stop-opacity="0"/>
<stop offset="1" stop-color="#DA0000" stop-opacity="0.2"/>
</linearGradient>
<linearGradient id="paint4_linear_1_235" x1="192" y1="33.9995" x2="192" y2="351.098" gradientUnits="userSpaceOnUse">
<stop offset="0.510417" stop-color="#DA0000" stop-opacity="0"/>
<stop offset="1" stop-color="#DA0000" stop-opacity="0.2"/>
</linearGradient>
<linearGradient id="paint5_linear_1_235" x1="192" y1="33.9996" x2="192" y2="351.098" gradientUnits="userSpaceOnUse">
<stop offset="0.510417" stop-color="#DA0000" stop-opacity="0"/>
<stop offset="1" stop-color="#DA0000" stop-opacity="0.2"/>
</linearGradient>
<linearGradient id="paint6_linear_1_235" x1="192" y1="33.9995" x2="192" y2="351.098" gradientUnits="userSpaceOnUse">
<stop offset="0.510417" stop-color="#DA0000" stop-opacity="0"/>
<stop offset="1" stop-color="#DA0000" stop-opacity="0.2"/>
</linearGradient>
<linearGradient id="paint7_linear_1_235" x1="192" y1="33.9996" x2="192" y2="351.098" gradientUnits="userSpaceOnUse">
<stop offset="0.510417" stop-color="#DA0000" stop-opacity="0"/>
<stop offset="1" stop-color="#DA0000" stop-opacity="0.2"/>
</linearGradient>
<linearGradient id="paint8_linear_1_235" x1="192" y1="33.9996" x2="192" y2="351.098" gradientUnits="userSpaceOnUse">
<stop offset="0.510417" stop-color="#DA0000" stop-opacity="0"/>
<stop offset="1" stop-color="#DA0000" stop-opacity="0.2"/>
</linearGradient>
<linearGradient id="paint9_linear_1_235" x1="192" y1="33.9996" x2="192" y2="351.098" gradientUnits="userSpaceOnUse">
<stop offset="0.510417" stop-color="#DA0000" stop-opacity="0"/>
<stop offset="1" stop-color="#DA0000" stop-opacity="0.2"/>
</linearGradient>
<linearGradient id="paint10_linear_1_235" x1="192" y1="33.9996" x2="192" y2="351.098" gradientUnits="userSpaceOnUse">
<stop offset="0.510417" stop-color="#DA0000" stop-opacity="0"/>
<stop offset="1" stop-color="#DA0000" stop-opacity="0.2"/>
</linearGradient>
<linearGradient id="paint11_linear_1_235" x1="192" y1="33.9996" x2="192" y2="351.098" gradientUnits="userSpaceOnUse">
<stop offset="0.510417" stop-color="#DA0000" stop-opacity="0"/>
<stop offset="1" stop-color="#DA0000" stop-opacity="0.2"/>
</linearGradient>
<linearGradient id="paint12_linear_1_235" x1="192" y1="33.9997" x2="192" y2="351.098" gradientUnits="userSpaceOnUse">
<stop offset="0.510417" stop-color="#DA0000" stop-opacity="0"/>
<stop offset="1" stop-color="#DA0000" stop-opacity="0.2"/>
</linearGradient>
<linearGradient id="paint13_linear_1_235" x1="192" y1="33.9997" x2="192" y2="351.098" gradientUnits="userSpaceOnUse">
<stop offset="0.510417" stop-color="#DA0000" stop-opacity="0"/>
<stop offset="1" stop-color="#DA0000" stop-opacity="0.2"/>
</linearGradient>
<linearGradient id="paint14_linear_1_235" x1="192" y1="33.9996" x2="192" y2="351.098" gradientUnits="userSpaceOnUse">
<stop offset="0.510417" stop-color="#DA0000" stop-opacity="0"/>
<stop offset="1" stop-color="#DA0000" stop-opacity="0.2"/>
</linearGradient>
<linearGradient id="paint15_linear_1_235" x1="192" y1="33.9995" x2="192" y2="351.098" gradientUnits="userSpaceOnUse">
<stop offset="0.510417" stop-color="#DA0000" stop-opacity="0"/>
<stop offset="1" stop-color="#DA0000" stop-opacity="0.2"/>
</linearGradient>
<linearGradient id="paint16_linear_1_235" x1="192" y1="33.9996" x2="192" y2="351.098" gradientUnits="userSpaceOnUse">
<stop offset="0.510417" stop-color="#DA0000" stop-opacity="0"/>
<stop offset="1" stop-color="#DA0000" stop-opacity="0.2"/>
</linearGradient>
<linearGradient id="paint17_linear_1_235" x1="192" y1="33.9996" x2="192" y2="351.098" gradientUnits="userSpaceOnUse">
<stop offset="0.510417" stop-color="#DA0000" stop-opacity="0"/>
<stop offset="1" stop-color="#DA0000" stop-opacity="0.2"/>
</linearGradient>
<linearGradient id="paint18_linear_1_235" x1="192" y1="33.9996" x2="192" y2="351.098" gradientUnits="userSpaceOnUse">
<stop offset="0.510417" stop-color="#DA0000" stop-opacity="0"/>
<stop offset="1" stop-color="#DA0000" stop-opacity="0.2"/>
</linearGradient>
<linearGradient id="paint19_linear_1_235" x1="192" y1="33.9996" x2="192" y2="351.098" gradientUnits="userSpaceOnUse">
<stop offset="0.510417" stop-color="#DA0000" stop-opacity="0"/>
<stop offset="1" stop-color="#DA0000" stop-opacity="0.2"/>
</linearGradient>
<linearGradient id="paint20_linear_1_235" x1="192" y1="33.9996" x2="192" y2="351.098" gradientUnits="userSpaceOnUse">
<stop offset="0.510417" stop-color="#DA0000" stop-opacity="0"/>
<stop offset="1" stop-color="#DA0000" stop-opacity="0.2"/>
</linearGradient>
<linearGradient id="paint21_linear_1_235" x1="192" y1="33.9996" x2="192" y2="351.098" gradientUnits="userSpaceOnUse">
<stop offset="0.510417" stop-color="#DA0000" stop-opacity="0"/>
<stop offset="1" stop-color="#DA0000" stop-opacity="0.2"/>
</linearGradient>
<linearGradient id="paint22_linear_1_235" x1="192" y1="33.9996" x2="192" y2="351.098" gradientUnits="userSpaceOnUse">
<stop offset="0.510417" stop-color="#DA0000" stop-opacity="0"/>
<stop offset="1" stop-color="#DA0000" stop-opacity="0.2"/>
</linearGradient>
<linearGradient id="paint23_linear_1_235" x1="192" y1="33.9997" x2="192" y2="351.098" gradientUnits="userSpaceOnUse">
<stop offset="0.510417" stop-color="#DA0000" stop-opacity="0"/>
<stop offset="1" stop-color="#DA0000" stop-opacity="0.2"/>
</linearGradient>
<linearGradient id="paint24_linear_1_235" x1="192" y1="33.9996" x2="192" y2="351.098" gradientUnits="userSpaceOnUse">
<stop offset="0.510417" stop-color="#DA0000" stop-opacity="0"/>
<stop offset="1" stop-color="#DA0000" stop-opacity="0.2"/>
</linearGradient>
<linearGradient id="paint25_linear_1_235" x1="192" y1="33.9995" x2="192" y2="351.098" gradientUnits="userSpaceOnUse">
<stop offset="0.510417" stop-color="#DA0000" stop-opacity="0"/>
<stop offset="1" stop-color="#DA0000" stop-opacity="0.2"/>
</linearGradient>
<linearGradient id="paint26_linear_1_235" x1="192" y1="33.9993" x2="192" y2="351.098" gradientUnits="userSpaceOnUse">
<stop offset="0.510417" stop-color="#DA0000" stop-opacity="0"/>
<stop offset="1" stop-color="#DA0000" stop-opacity="0.2"/>
</linearGradient>
<linearGradient id="paint27_linear_1_235" x1="192" y1="33.9996" x2="192" y2="351.098" gradientUnits="userSpaceOnUse">
<stop offset="0.510417" stop-color="#DA0000" stop-opacity="0"/>
<stop offset="1" stop-color="#DA0000" stop-opacity="0.2"/>
</linearGradient>
<linearGradient id="paint28_linear_1_235" x1="192" y1="33.9994" x2="192" y2="351.098" gradientUnits="userSpaceOnUse">
<stop offset="0.510417" stop-color="#DA0000" stop-opacity="0"/>
<stop offset="1" stop-color="#DA0000" stop-opacity="0.2"/>
</linearGradient>
<linearGradient id="paint29_linear_1_235" x1="192" y1="33.9995" x2="192" y2="351.098" gradientUnits="userSpaceOnUse">
<stop offset="0.510417" stop-color="#DA0000" stop-opacity="0"/>
<stop offset="1" stop-color="#DA0000" stop-opacity="0.2"/>
</linearGradient>
<linearGradient id="paint30_linear_1_235" x1="192" y1="33.9996" x2="192" y2="351.098" gradientUnits="userSpaceOnUse">
<stop offset="0.510417" stop-color="#DA0000" stop-opacity="0"/>
<stop offset="1" stop-color="#DA0000" stop-opacity="0.2"/>
</linearGradient>
<linearGradient id="paint31_linear_1_235" x1="192" y1="33.9996" x2="192" y2="351.098" gradientUnits="userSpaceOnUse">
<stop offset="0.510417" stop-color="#DA0000" stop-opacity="0"/>
<stop offset="1" stop-color="#DA0000" stop-opacity="0.2"/>
</linearGradient>
<linearGradient id="paint32_linear_1_235" x1="192" y1="33.9996" x2="192" y2="351.098" gradientUnits="userSpaceOnUse">
<stop offset="0.510417" stop-color="#DA0000" stop-opacity="0"/>
<stop offset="1" stop-color="#DA0000" stop-opacity="0.2"/>
</linearGradient>
<linearGradient id="paint33_linear_1_235" x1="192" y1="33.9995" x2="192" y2="351.098" gradientUnits="userSpaceOnUse">
<stop offset="0.510417" stop-color="#DA0000" stop-opacity="0"/>
<stop offset="1" stop-color="#DA0000" stop-opacity="0.2"/>
</linearGradient>
<linearGradient id="paint34_linear_1_235" x1="192" y1="33.9995" x2="192" y2="351.098" gradientUnits="userSpaceOnUse">
<stop offset="0.510417" stop-color="#DA0000" stop-opacity="0"/>
<stop offset="1" stop-color="#DA0000" stop-opacity="0.2"/>
</linearGradient>
<linearGradient id="paint35_linear_1_235" x1="192" y1="33.9995" x2="192" y2="351.098" gradientUnits="userSpaceOnUse">
<stop offset="0.510417" stop-color="#DA0000" stop-opacity="0"/>
<stop offset="1" stop-color="#DA0000" stop-opacity="0.2"/>
</linearGradient>
<linearGradient id="paint36_linear_1_235" x1="192" y1="33.9996" x2="192" y2="351.098" gradientUnits="userSpaceOnUse">
<stop offset="0.510417" stop-color="#DA0000" stop-opacity="0"/>
<stop offset="1" stop-color="#DA0000" stop-opacity="0.2"/>
</linearGradient>
<linearGradient id="paint37_linear_1_235" x1="192" y1="33.9997" x2="192" y2="351.098" gradientUnits="userSpaceOnUse">
<stop offset="0.510417" stop-color="#DA0000" stop-opacity="0"/>
<stop offset="1" stop-color="#DA0000" stop-opacity="0.2"/>
</linearGradient>
<linearGradient id="paint38_linear_1_235" x1="192" y1="33.9996" x2="192" y2="351.098" gradientUnits="userSpaceOnUse">
<stop offset="0.510417" stop-color="#DA0000" stop-opacity="0"/>
<stop offset="1" stop-color="#DA0000" stop-opacity="0.2"/>
</linearGradient>
<linearGradient id="paint39_linear_1_235" x1="192" y1="33.9996" x2="192" y2="351.098" gradientUnits="userSpaceOnUse">
<stop offset="0.510417" stop-color="#DA0000" stop-opacity="0"/>
<stop offset="1" stop-color="#DA0000" stop-opacity="0.2"/>
</linearGradient>
<linearGradient id="paint40_linear_1_235" x1="192" y1="33.9996" x2="192" y2="351.098" gradientUnits="userSpaceOnUse">
<stop offset="0.510417" stop-color="#DA0000" stop-opacity="0"/>
<stop offset="1" stop-color="#DA0000" stop-opacity="0.2"/>
</linearGradient>
<linearGradient id="paint41_linear_1_235" x1="192" y1="33.9995" x2="192" y2="351.098" gradientUnits="userSpaceOnUse">
<stop offset="0.510417" stop-color="#DA0000" stop-opacity="0"/>
<stop offset="1" stop-color="#DA0000" stop-opacity="0.2"/>
</linearGradient>
<linearGradient id="paint42_linear_1_235" x1="192" y1="33.9996" x2="192" y2="351.098" gradientUnits="userSpaceOnUse">
<stop offset="0.510417" stop-color="#DA0000" stop-opacity="0"/>
<stop offset="1" stop-color="#DA0000" stop-opacity="0.2"/>
</linearGradient>
<linearGradient id="paint43_linear_1_235" x1="192" y1="33.9996" x2="192" y2="351.098" gradientUnits="userSpaceOnUse">
<stop offset="0.510417" stop-color="#DA0000" stop-opacity="0"/>
<stop offset="1" stop-color="#DA0000" stop-opacity="0.2"/>
</linearGradient>
<linearGradient id="paint44_linear_1_235" x1="192" y1="33.9996" x2="192" y2="351.098" gradientUnits="userSpaceOnUse">
<stop offset="0.510417" stop-color="#DA0000" stop-opacity="0"/>
<stop offset="1" stop-color="#DA0000" stop-opacity="0.2"/>
</linearGradient>
<linearGradient id="paint45_linear_1_235" x1="192" y1="33.9996" x2="192" y2="351.098" gradientUnits="userSpaceOnUse">
<stop offset="0.510417" stop-color="#DA0000" stop-opacity="0"/>
<stop offset="1" stop-color="#DA0000" stop-opacity="0.2"/>
</linearGradient>
<linearGradient id="paint46_linear_1_235" x1="192" y1="33.9995" x2="192" y2="351.098" gradientUnits="userSpaceOnUse">
<stop offset="0.510417" stop-color="#DA0000" stop-opacity="0"/>
<stop offset="1" stop-color="#DA0000" stop-opacity="0.2"/>
</linearGradient>
<linearGradient id="paint47_linear_1_235" x1="192" y1="33.9996" x2="192" y2="351.098" gradientUnits="userSpaceOnUse">
<stop offset="0.510417" stop-color="#DA0000" stop-opacity="0"/>
<stop offset="1" stop-color="#DA0000" stop-opacity="0.2"/>
</linearGradient>
<linearGradient id="paint48_linear_1_235" x1="192" y1="33.9996" x2="192" y2="351.098" gradientUnits="userSpaceOnUse">
<stop offset="0.510417" stop-color="#DA0000" stop-opacity="0"/>
<stop offset="1" stop-color="#DA0000" stop-opacity="0.2"/>
</linearGradient>
<linearGradient id="paint49_linear_1_235" x1="192" y1="33.9996" x2="192" y2="351.098" gradientUnits="userSpaceOnUse">
<stop offset="0.510417" stop-color="#DA0000" stop-opacity="0"/>
<stop offset="1" stop-color="#DA0000" stop-opacity="0.2"/>
</linearGradient>
<linearGradient id="paint50_linear_1_235" x1="192" y1="33.9996" x2="192" y2="351.098" gradientUnits="userSpaceOnUse">
<stop offset="0.510417" stop-color="#DA0000" stop-opacity="0"/>
<stop offset="1" stop-color="#DA0000" stop-opacity="0.2"/>
</linearGradient>
<linearGradient id="paint51_linear_1_235" x1="192" y1="33.9996" x2="192" y2="351.098" gradientUnits="userSpaceOnUse">
<stop offset="0.510417" stop-color="#DA0000" stop-opacity="0"/>
<stop offset="1" stop-color="#DA0000" stop-opacity="0.2"/>
</linearGradient>
</defs>
</svg>
