<svg width="32" height="32" viewBox="0 0 32 32" fill="none" xmlns="http://www.w3.org/2000/svg">
<path fill-rule="evenodd" clip-rule="evenodd" d="M18.6513 10.6561C18.8596 11.3221 18.5433 12.0066 17.9428 12.1833L11.466 14.0884C10.866 14.2646 10.211 13.867 10.0026 13.1994C9.7948 12.5307 10.1128 11.8479 10.7127 11.6722L17.1895 9.76547C17.7911 9.58822 18.4434 9.98747 18.6513 10.6561Z" fill="#FDC90D"/>
<path fill-rule="evenodd" clip-rule="evenodd" d="M18.6513 10.6561C18.8596 11.3221 18.5433 12.0066 17.9428 12.1833L11.466 14.0884C10.866 14.2646 10.211 13.867 10.0026 13.1994C9.7948 12.5307 10.1128 11.8479 10.7127 11.6722L17.1895 9.76547C17.7911 9.58822 18.4434 9.98747 18.6513 10.6561Z" fill="url(#paint0_linear_101_2)"/>
<path fill-rule="evenodd" clip-rule="evenodd" d="M9.89732 12.7113L9.39992 12.8553C9.1561 12.9272 9.02848 13.2038 9.11303 13.4748C9.19757 13.7443 9.46208 13.9041 9.70261 13.8321L10.2017 13.6854C10.0948 13.5556 10.0086 13.3968 9.95405 13.224C9.89897 13.0511 9.87932 12.8782 9.89461 12.7113" fill="#FDC90D"/>
<path fill-rule="evenodd" clip-rule="evenodd" d="M9.89732 12.7113L9.39992 12.8553C9.1561 12.9272 9.02848 13.2038 9.11303 13.4748C9.19757 13.7443 9.46208 13.9041 9.70261 13.8321L10.2017 13.6854C10.0948 13.5556 10.0086 13.3968 9.95405 13.224C9.89897 13.0511 9.87932 12.8782 9.89461 12.7113" fill="url(#paint1_linear_101_2)"/>
<path fill-rule="evenodd" clip-rule="evenodd" d="M10.319 16.1146C10.3266 16.0961 10.3446 16.0857 10.3637 16.089C10.3844 16.0961 10.3937 16.1174 10.3904 16.1321L10.2819 16.4735C10.2731 16.4921 10.2524 16.5024 10.2344 16.4954C10.2137 16.491 10.2017 16.4708 10.2093 16.4517L10.319 16.1146Z" fill="#FDC90D"/>
<path fill-rule="evenodd" clip-rule="evenodd" d="M10.319 16.1146C10.3266 16.0961 10.3446 16.0857 10.3637 16.089C10.3844 16.0961 10.3937 16.1174 10.3904 16.1321L10.2819 16.4735C10.2731 16.4921 10.2524 16.5024 10.2344 16.4954C10.2137 16.491 10.2017 16.4708 10.2093 16.4517L10.319 16.1146Z" fill="url(#paint2_linear_101_2)"/>
<path fill-rule="evenodd" clip-rule="evenodd" d="M10.08 16.0208C10.0877 16.0007 10.11 15.9925 10.1291 16.0007C10.1439 16.0083 10.1531 16.0296 10.1482 16.0443L9.99986 16.3699C9.99115 16.3884 9.96551 16.3988 9.95077 16.3874C9.93168 16.3814 9.92406 16.3585 9.9328 16.3437L10.0784 16.0198" fill="#FDC90D"/>
<path fill-rule="evenodd" clip-rule="evenodd" d="M10.08 16.0208C10.0877 16.0007 10.11 15.9925 10.1291 16.0007C10.1439 16.0083 10.1531 16.0296 10.1482 16.0443L9.99986 16.3699C9.99115 16.3884 9.96551 16.3988 9.95077 16.3874C9.93168 16.3814 9.92406 16.3585 9.9328 16.3437L10.0784 16.0198" fill="url(#paint3_linear_101_2)"/>
<path fill-rule="evenodd" clip-rule="evenodd" d="M9.84826 15.9014C9.85864 15.8839 9.87826 15.8768 9.89899 15.8872C9.91808 15.897 9.92244 15.9188 9.9137 15.9363L9.73537 16.2444C9.72337 16.2619 9.69828 16.2674 9.68355 16.2559C9.6639 16.2472 9.65846 16.227 9.66881 16.2101L9.8499 15.903" fill="#FDC90D"/>
<path fill-rule="evenodd" clip-rule="evenodd" d="M9.84826 15.9014C9.85864 15.8839 9.87826 15.8768 9.89899 15.8872C9.91808 15.897 9.92244 15.9188 9.9137 15.9363L9.73537 16.2444C9.72337 16.2619 9.69828 16.2674 9.68355 16.2559C9.6639 16.2472 9.65846 16.227 9.66881 16.2101L9.8499 15.903" fill="url(#paint4_linear_101_2)"/>
<path fill-rule="evenodd" clip-rule="evenodd" d="M9.63448 15.7629C9.64483 15.746 9.66719 15.7416 9.68519 15.753C9.69992 15.7645 9.69992 15.7863 9.69392 15.8038L9.48012 16.0918C9.46483 16.1059 9.44303 16.1103 9.42774 16.0988C9.41303 16.0874 9.40865 16.0656 9.42065 16.0514L9.63448 15.7629Z" fill="#FDC90D"/>
<path fill-rule="evenodd" clip-rule="evenodd" d="M9.63448 15.7629C9.64483 15.746 9.66719 15.7416 9.68519 15.753C9.69992 15.7645 9.69992 15.7863 9.69392 15.8038L9.48012 16.0918C9.46483 16.1059 9.44303 16.1103 9.42774 16.0988C9.41303 16.0874 9.40865 16.0656 9.42065 16.0514L9.63448 15.7629Z" fill="url(#paint5_linear_101_2)"/>
<path fill-rule="evenodd" clip-rule="evenodd" d="M9.43699 15.6063C9.44737 15.5889 9.46972 15.5872 9.48446 15.6003C9.49917 15.6145 9.49917 15.638 9.49043 15.6521L9.25263 15.9199C9.23792 15.9347 9.21119 15.9347 9.19919 15.9199C9.18446 15.9101 9.18119 15.8872 9.19592 15.8741L9.43372 15.6074" fill="#FDC90D"/>
<path fill-rule="evenodd" clip-rule="evenodd" d="M9.43699 15.6063C9.44737 15.5889 9.46972 15.5872 9.48446 15.6003C9.49917 15.6145 9.49917 15.638 9.49043 15.6521L9.25263 15.9199C9.23792 15.9347 9.21119 15.9347 9.19919 15.9199C9.18446 15.9101 9.18119 15.8872 9.19592 15.8741L9.43372 15.6074" fill="url(#paint6_linear_101_2)"/>
<path fill-rule="evenodd" clip-rule="evenodd" d="M9.25265 15.4318C9.26739 15.4171 9.28974 15.4171 9.30612 15.4318C9.32083 15.446 9.31812 15.4694 9.30612 15.4836L9.04158 15.7285C9.02685 15.7432 9.00176 15.74 8.98976 15.7285C8.97505 15.7143 8.97505 15.6898 8.98976 15.6783L9.25103 15.4329" fill="#FDC90D"/>
<path fill-rule="evenodd" clip-rule="evenodd" d="M9.25265 15.4318C9.26739 15.4171 9.28974 15.4171 9.30612 15.4318C9.32083 15.446 9.31812 15.4694 9.30612 15.4836L9.04158 15.7285C9.02685 15.7432 9.00176 15.74 8.98976 15.7285C8.97505 15.7143 8.97505 15.6898 8.98976 15.6783L9.25103 15.4329" fill="url(#paint7_linear_101_2)"/>
<path fill-rule="evenodd" clip-rule="evenodd" d="M9.09505 15.2485C9.10976 15.2344 9.13105 15.2371 9.14576 15.2545C9.15614 15.2687 9.1534 15.2922 9.13976 15.3047L8.85452 15.5256C8.83652 15.5398 8.81416 15.5338 8.80269 15.5196C8.78743 15.5054 8.79234 15.482 8.80869 15.4705L9.09396 15.2502" fill="#FDC90D"/>
<path fill-rule="evenodd" clip-rule="evenodd" d="M9.09505 15.2485C9.10976 15.2344 9.13105 15.2371 9.14576 15.2545C9.15614 15.2687 9.1534 15.2922 9.13976 15.3047L8.85452 15.5256C8.83652 15.5398 8.81416 15.5338 8.80269 15.5196C8.78743 15.5054 8.79234 15.482 8.80869 15.4705L9.09396 15.2502" fill="url(#paint8_linear_101_2)"/>
<path fill-rule="evenodd" clip-rule="evenodd" d="M8.95432 15.0571C8.97176 15.0456 8.99576 15.05 9.00614 15.0658C9.0165 15.0827 9.0105 15.1046 8.99576 15.116L8.69252 15.3107C8.67016 15.3205 8.64779 15.3151 8.63907 15.2993C8.62434 15.2818 8.63143 15.2616 8.64779 15.2518L8.95267 15.0555" fill="#FDC90D"/>
<path fill-rule="evenodd" clip-rule="evenodd" d="M8.95432 15.0571C8.97176 15.0456 8.99576 15.05 9.00614 15.0658C9.0165 15.0827 9.0105 15.1046 8.99576 15.116L8.69252 15.3107C8.67016 15.3205 8.64779 15.3151 8.63907 15.2993C8.62434 15.2818 8.63143 15.2616 8.64779 15.2518L8.95267 15.0555" fill="url(#paint9_linear_101_2)"/>
<path fill-rule="evenodd" clip-rule="evenodd" d="M8.84252 14.8613C8.85723 14.8493 8.87961 14.8569 8.89161 14.8755C8.89923 14.8896 8.89161 14.9131 8.87361 14.9229L8.55454 15.0904C8.5349 15.0991 8.50981 15.0904 8.50381 15.0756C8.49672 15.0571 8.50381 15.0353 8.51854 15.0266L8.84579 14.8624" fill="#FDC90D"/>
<path fill-rule="evenodd" clip-rule="evenodd" d="M8.84252 14.8613C8.85723 14.8493 8.87961 14.8569 8.89161 14.8755C8.89923 14.8896 8.89161 14.9131 8.87361 14.9229L8.55454 15.0904C8.5349 15.0991 8.50981 15.0904 8.50381 15.0756C8.49672 15.0571 8.50381 15.0353 8.51854 15.0266L8.84579 14.8624" fill="url(#paint10_linear_101_2)"/>
<path fill-rule="evenodd" clip-rule="evenodd" d="M8.75035 14.6622C8.76999 14.6551 8.79235 14.6622 8.79944 14.6824C8.8087 14.7009 8.7967 14.7211 8.78035 14.7282L8.44164 14.8613C8.42093 14.8695 8.40019 14.8613 8.39255 14.8411C8.38492 14.8236 8.39528 14.8035 8.41328 14.7975L8.75199 14.6638" fill="#FDC90D"/>
<path fill-rule="evenodd" clip-rule="evenodd" d="M8.75035 14.6622C8.76999 14.6551 8.79235 14.6622 8.79944 14.6824C8.8087 14.7009 8.7967 14.7211 8.78035 14.7282L8.44164 14.8613C8.42093 14.8695 8.40019 14.8613 8.39255 14.8411C8.38492 14.8236 8.39528 14.8035 8.41328 14.7975L8.75199 14.6638" fill="url(#paint11_linear_101_2)"/>
<path fill-rule="evenodd" clip-rule="evenodd" d="M8.68816 14.4708C8.70887 14.4631 8.72687 14.4746 8.73287 14.4948C8.73887 14.5139 8.72525 14.5324 8.70725 14.5384L8.35381 14.6333C8.33472 14.6377 8.31401 14.6262 8.30909 14.6077C8.30474 14.5886 8.31672 14.57 8.33472 14.564L8.68543 14.4708" fill="#FDC90D"/>
<path fill-rule="evenodd" clip-rule="evenodd" d="M8.68816 14.4708C8.70887 14.4631 8.72687 14.4746 8.73287 14.4948C8.73887 14.5139 8.72525 14.5324 8.70725 14.5384L8.35381 14.6333C8.33472 14.6377 8.31401 14.6262 8.30909 14.6077C8.30474 14.5886 8.31672 14.57 8.33472 14.564L8.68543 14.4708" fill="url(#paint12_linear_101_2)"/>
<path fill-rule="evenodd" clip-rule="evenodd" d="M8.6527 14.2848C8.67179 14.2804 8.69088 14.2946 8.69415 14.3137C8.69688 14.3339 8.68379 14.3508 8.66415 14.3535L8.30363 14.4059C8.28128 14.4059 8.26163 14.3911 8.2589 14.3742C8.25563 14.3552 8.27363 14.3366 8.29163 14.335L8.6527 14.2848Z" fill="#FDC90D"/>
<path fill-rule="evenodd" clip-rule="evenodd" d="M8.6527 14.2848C8.67179 14.2804 8.69088 14.2946 8.69415 14.3137C8.69688 14.3339 8.68379 14.3508 8.66415 14.3535L8.30363 14.4059C8.28128 14.4059 8.26163 14.3911 8.2589 14.3742C8.25563 14.3552 8.27363 14.3366 8.29163 14.335L8.6527 14.2848Z" fill="url(#paint13_linear_101_2)"/>
<path fill-rule="evenodd" clip-rule="evenodd" d="M8.64506 14.1103C8.66577 14.1103 8.68215 14.1244 8.68377 14.1446C8.68377 14.1664 8.66415 14.1806 8.64506 14.1822H8.27962C8.2589 14.1822 8.24417 14.1637 8.24417 14.1446C8.24417 14.1244 8.26164 14.1103 8.28126 14.1103H8.64777" fill="#FDC90D"/>
<path fill-rule="evenodd" clip-rule="evenodd" d="M8.64506 14.1103C8.66577 14.1103 8.68215 14.1244 8.68377 14.1446C8.68377 14.1664 8.66415 14.1806 8.64506 14.1822H8.27962C8.2589 14.1822 8.24417 14.1637 8.24417 14.1446C8.24417 14.1244 8.26164 14.1103 8.28126 14.1103H8.64777" fill="url(#paint14_linear_101_2)"/>
<path fill-rule="evenodd" clip-rule="evenodd" d="M8.66414 13.9515C8.68652 13.9548 8.69852 13.9734 8.69414 13.9952C8.69414 14.0121 8.67014 14.0235 8.6527 14.0208L8.29601 13.9603C8.27363 13.9559 8.26054 13.9357 8.26601 13.9172C8.26601 13.8986 8.28728 13.8883 8.30637 13.8883L8.66414 13.9515Z" fill="#FDC90D"/>
<path fill-rule="evenodd" clip-rule="evenodd" d="M8.66414 13.9515C8.68652 13.9548 8.69852 13.9734 8.69414 13.9952C8.69414 14.0121 8.67014 14.0235 8.6527 14.0208L8.29601 13.9603C8.27363 13.9559 8.26054 13.9357 8.26601 13.9172C8.26601 13.8986 8.28728 13.8883 8.30637 13.8883L8.66414 13.9515Z" fill="url(#paint15_linear_101_2)"/>
<path fill-rule="evenodd" clip-rule="evenodd" d="M8.71217 13.8119C8.73288 13.819 8.74161 13.8408 8.73397 13.8583C8.72526 13.8768 8.70453 13.8839 8.68653 13.8784L8.3451 13.7486C8.3271 13.7416 8.31837 13.7197 8.32546 13.7056C8.3331 13.6854 8.35546 13.6766 8.37346 13.6837L8.71217 13.8119Z" fill="#FDC90D"/>
<path fill-rule="evenodd" clip-rule="evenodd" d="M8.71217 13.8119C8.73288 13.819 8.74161 13.8408 8.73397 13.8583C8.72526 13.8768 8.70453 13.8839 8.68653 13.8784L8.3451 13.7486C8.3271 13.7416 8.31837 13.7197 8.32546 13.7056C8.3331 13.6854 8.35546 13.6766 8.37346 13.6837L8.71217 13.8119Z" fill="url(#paint16_linear_101_2)"/>
<path fill-rule="evenodd" clip-rule="evenodd" d="M8.78741 13.6936C8.80541 13.7039 8.80706 13.7268 8.7967 13.7426C8.78197 13.7574 8.7607 13.7617 8.74323 13.753L8.44163 13.5512C8.4269 13.5408 8.4209 13.5179 8.43235 13.5021C8.44326 13.4879 8.46672 13.4836 8.48308 13.4934L8.78741 13.6936Z" fill="#FDC90D"/>
<path fill-rule="evenodd" clip-rule="evenodd" d="M8.78741 13.6936C8.80541 13.7039 8.80706 13.7268 8.7967 13.7426C8.78197 13.7574 8.7607 13.7617 8.74323 13.753L8.44163 13.5512C8.4269 13.5408 8.4209 13.5179 8.43235 13.5021C8.44326 13.4879 8.46672 13.4836 8.48308 13.4934L8.78741 13.6936Z" fill="url(#paint17_linear_101_2)"/>
<path fill-rule="evenodd" clip-rule="evenodd" d="M8.88724 13.5926C8.90197 13.6074 8.89924 13.6292 8.88397 13.6434C8.86924 13.6576 8.84689 13.6548 8.83215 13.6406L8.584 13.381C8.56926 13.3668 8.57362 13.345 8.58726 13.332C8.602 13.3178 8.62435 13.3205 8.63635 13.332L8.88889 13.5943" fill="#FDC90D"/>
<path fill-rule="evenodd" clip-rule="evenodd" d="M8.88724 13.5926C8.90197 13.6074 8.89924 13.6292 8.88397 13.6434C8.86924 13.6576 8.84689 13.6548 8.83215 13.6406L8.584 13.381C8.56926 13.3668 8.57362 13.345 8.58726 13.332C8.602 13.3178 8.62435 13.3205 8.63635 13.332L8.88889 13.5943" fill="url(#paint18_linear_101_2)"/>
<path fill-rule="evenodd" clip-rule="evenodd" d="M9.0165 13.5092C9.0285 13.5283 9.02088 13.5485 9.0045 13.5599C8.98214 13.5687 8.95979 13.5627 8.9527 13.5452L8.76834 13.2387C8.75961 13.2196 8.76834 13.1994 8.78308 13.188C8.80105 13.1792 8.82343 13.188 8.83214 13.2027L9.0165 13.5092Z" fill="#FDC90D"/>
<path fill-rule="evenodd" clip-rule="evenodd" d="M9.0165 13.5092C9.0285 13.5283 9.02088 13.5485 9.0045 13.5599C8.98214 13.5687 8.95979 13.5627 8.9527 13.5452L8.76834 13.2387C8.75961 13.2196 8.76834 13.1994 8.78308 13.188C8.80105 13.1792 8.82343 13.188 8.83214 13.2027L9.0165 13.5092Z" fill="url(#paint19_linear_101_2)"/>
<path fill-rule="evenodd" clip-rule="evenodd" d="M9.18446 13.4459C9.19155 13.4645 9.17846 13.4836 9.16046 13.489C9.14137 13.4978 9.12175 13.4863 9.11575 13.4688L8.99684 13.1318C8.99248 13.1116 9.00283 13.093 9.02248 13.0854C9.04157 13.08 9.0623 13.0914 9.06719 13.1089L9.18555 13.4459" fill="#FDC90D"/>
<path fill-rule="evenodd" clip-rule="evenodd" d="M9.18446 13.4459C9.19155 13.4645 9.17846 13.4836 9.16046 13.489C9.14137 13.4978 9.12175 13.4863 9.11575 13.4688L8.99684 13.1318C8.99248 13.1116 9.00283 13.093 9.02248 13.0854C9.04157 13.08 9.0623 13.0914 9.06719 13.1089L9.18555 13.4459" fill="url(#paint20_linear_101_2)"/>
<path fill-rule="evenodd" clip-rule="evenodd" d="M11.5909 18.4665C11.5761 18.4839 11.5538 18.485 11.5374 18.4708C11.5254 18.4567 11.527 18.4348 11.5374 18.4218L11.7899 18.1627C11.8047 18.1507 11.8314 18.1507 11.8407 18.1654C11.8581 18.1769 11.8581 18.2014 11.8407 18.2145L11.5909 18.4665Z" fill="#FDC90D"/>
<path fill-rule="evenodd" clip-rule="evenodd" d="M11.5909 18.4665C11.5761 18.4839 11.5538 18.485 11.5374 18.4708C11.5254 18.4567 11.527 18.4348 11.5374 18.4218L11.7899 18.1627C11.8047 18.1507 11.8314 18.1507 11.8407 18.1654C11.8581 18.1769 11.8581 18.2014 11.8407 18.2145L11.5909 18.4665Z" fill="url(#paint21_linear_101_2)"/>
<path fill-rule="evenodd" clip-rule="evenodd" d="M11.7632 18.6579C11.7485 18.6726 11.7245 18.6699 11.7097 18.6541C11.6994 18.6394 11.7054 18.6181 11.7174 18.605L11.9994 18.383C12.0174 18.3683 12.0441 18.3743 12.0512 18.3885C12.0659 18.4032 12.0632 18.4261 12.0468 18.4376L11.7648 18.6579" fill="#FDC90D"/>
<path fill-rule="evenodd" clip-rule="evenodd" d="M11.7632 18.6579C11.7485 18.6726 11.7245 18.6699 11.7097 18.6541C11.6994 18.6394 11.7054 18.6181 11.7174 18.605L11.9994 18.383C12.0174 18.3683 12.0441 18.3743 12.0512 18.3885C12.0659 18.4032 12.0632 18.4261 12.0468 18.4376L11.7648 18.6579" fill="url(#paint22_linear_101_2)"/>
<path fill-rule="evenodd" clip-rule="evenodd" d="M11.8837 18.8368C11.8685 18.8483 11.8461 18.8439 11.833 18.827C11.8243 18.8096 11.833 18.7877 11.8477 18.7779L12.1597 18.5963C12.1793 18.5859 12.2044 18.5936 12.2088 18.6105C12.2235 18.6279 12.2164 18.6481 12.1984 18.6596L11.8837 18.8368Z" fill="#FDC90D"/>
<path fill-rule="evenodd" clip-rule="evenodd" d="M11.8837 18.8368C11.8685 18.8483 11.8461 18.8439 11.833 18.827C11.8243 18.8096 11.833 18.7877 11.8477 18.7779L12.1597 18.5963C12.1793 18.5859 12.2044 18.5936 12.2088 18.6105C12.2235 18.6279 12.2164 18.6481 12.1984 18.6596L11.8837 18.8368Z" fill="url(#paint23_linear_101_2)"/>
<path fill-rule="evenodd" clip-rule="evenodd" d="M11.9666 19.0141C11.9486 19.0212 11.9268 19.0141 11.9192 18.9939C11.9148 18.9764 11.9252 18.9552 11.9399 18.9481L12.2786 18.8156C12.2993 18.8079 12.3233 18.8183 12.3261 18.8352C12.3364 18.8543 12.3261 18.8744 12.307 18.8815L11.9699 19.0114" fill="#FDC90D"/>
<path fill-rule="evenodd" clip-rule="evenodd" d="M11.9666 19.0141C11.9486 19.0212 11.9268 19.0141 11.9192 18.9939C11.9148 18.9764 11.9252 18.9552 11.9399 18.9481L12.2786 18.8156C12.2993 18.8079 12.3233 18.8183 12.3261 18.8352C12.3364 18.8543 12.3261 18.8744 12.307 18.8815L11.9699 19.0114" fill="url(#paint24_linear_101_2)"/>
<path fill-rule="evenodd" clip-rule="evenodd" d="M12.0157 19.1815C11.9966 19.1859 11.9786 19.1755 11.971 19.1554C11.9666 19.1368 11.9814 19.1194 11.9977 19.1123L12.3544 19.0326C12.3751 19.0299 12.3959 19.043 12.3991 19.0615C12.4051 19.0817 12.3915 19.0992 12.3691 19.1052L12.0157 19.1815Z" fill="#FDC90D"/>
<path fill-rule="evenodd" clip-rule="evenodd" d="M12.0157 19.1815C11.9966 19.1859 11.9786 19.1755 11.971 19.1554C11.9666 19.1368 11.9814 19.1194 11.9977 19.1123L12.3544 19.0326C12.3751 19.0299 12.3959 19.043 12.3991 19.0615C12.4051 19.0817 12.3915 19.0992 12.3691 19.1052L12.0157 19.1815Z" fill="url(#paint25_linear_101_2)"/>
<path fill-rule="evenodd" clip-rule="evenodd" d="M12.0337 19.343C12.0125 19.3457 11.9966 19.331 11.9934 19.3108C11.9934 19.2906 12.0114 19.2748 12.0288 19.2737L12.3942 19.2519C12.4155 19.2519 12.433 19.2661 12.4319 19.2862C12.4362 19.3053 12.4199 19.3195 12.3992 19.3212L12.0348 19.3413" fill="#FDC90D"/>
<path fill-rule="evenodd" clip-rule="evenodd" d="M12.0337 19.343C12.0125 19.3457 11.9966 19.331 11.9934 19.3108C11.9934 19.2906 12.0114 19.2748 12.0288 19.2737L12.3942 19.2519C12.4155 19.2519 12.433 19.2661 12.4319 19.2862C12.4362 19.3053 12.4199 19.3195 12.3992 19.3212L12.0348 19.3413" fill="url(#paint26_linear_101_2)"/>
<path fill-rule="evenodd" clip-rule="evenodd" d="M12.0217 19.4957C12.0037 19.4957 11.989 19.4782 11.9917 19.4564C11.9917 19.439 12.0124 19.4275 12.0304 19.4275L12.3942 19.4635C12.4166 19.4635 12.4319 19.4853 12.427 19.5028C12.427 19.5213 12.4079 19.536 12.3888 19.5317L12.0244 19.494" fill="#FDC90D"/>
<path fill-rule="evenodd" clip-rule="evenodd" d="M12.0217 19.4957C12.0037 19.4957 11.989 19.4782 11.9917 19.4564C11.9917 19.439 12.0124 19.4275 12.0304 19.4275L12.3942 19.4635C12.4166 19.4635 12.4319 19.4853 12.427 19.5028C12.427 19.5213 12.4079 19.536 12.3888 19.5317L12.0244 19.494" fill="url(#paint27_linear_101_2)"/>
<path fill-rule="evenodd" clip-rule="evenodd" d="M11.9917 19.6408C11.9683 19.6353 11.959 19.6168 11.9623 19.5977C11.9683 19.5775 11.9917 19.5688 12.007 19.572L12.3604 19.6653C12.3795 19.6713 12.3931 19.6915 12.3839 19.7089C12.3812 19.7291 12.3604 19.7373 12.3397 19.7346L11.9906 19.6408" fill="#FDC90D"/>
<path fill-rule="evenodd" clip-rule="evenodd" d="M11.9917 19.6408C11.9683 19.6353 11.959 19.6168 11.9623 19.5977C11.9683 19.5775 11.9917 19.5688 12.007 19.572L12.3604 19.6653C12.3795 19.6713 12.3931 19.6915 12.3839 19.7089C12.3812 19.7291 12.3604 19.7373 12.3397 19.7346L11.9906 19.6408" fill="url(#paint28_linear_101_2)"/>
<path fill-rule="evenodd" clip-rule="evenodd" d="M11.9323 19.7733C11.9176 19.7678 11.9072 19.7449 11.9176 19.7275C11.9236 19.71 11.9475 19.7046 11.9623 19.71L12.2966 19.854C12.3157 19.8644 12.3233 19.8873 12.3141 19.9031C12.307 19.9222 12.2846 19.9276 12.265 19.9206L11.9339 19.7722" fill="#FDC90D"/>
<path fill-rule="evenodd" clip-rule="evenodd" d="M11.9323 19.7733C11.9176 19.7678 11.9072 19.7449 11.9176 19.7275C11.9236 19.71 11.9475 19.7046 11.9623 19.71L12.2966 19.854C12.3157 19.8644 12.3233 19.8873 12.3141 19.9031C12.307 19.9222 12.2846 19.9276 12.265 19.9206L11.9339 19.7722" fill="url(#paint29_linear_101_2)"/>
<path fill-rule="evenodd" clip-rule="evenodd" d="M11.8581 19.896C11.8407 19.8862 11.8358 19.8644 11.8461 19.8469C11.8581 19.83 11.8821 19.8284 11.8985 19.8371L12.2028 20.0313C12.2208 20.046 12.2252 20.0673 12.2132 20.082C12.2012 20.0994 12.1777 20.1033 12.163 20.0918L11.857 19.8976" fill="#FDC90D"/>
<path fill-rule="evenodd" clip-rule="evenodd" d="M11.8581 19.896C11.8407 19.8862 11.8358 19.8644 11.8461 19.8469C11.8581 19.83 11.8821 19.8284 11.8985 19.8371L12.2028 20.0313C12.2208 20.046 12.2252 20.0673 12.2132 20.082C12.2012 20.0994 12.1777 20.1033 12.163 20.0918L11.857 19.8976" fill="url(#paint30_linear_101_2)"/>
<path fill-rule="evenodd" clip-rule="evenodd" d="M11.7659 20.004C11.7485 19.9898 11.7485 19.9696 11.7616 19.9538C11.7763 19.9391 11.7987 19.9391 11.8134 19.9538L12.0856 20.1873C12.1003 20.2014 12.1035 20.226 12.0883 20.2374C12.0736 20.2522 12.0512 20.2522 12.0381 20.2374L11.7676 20.0029" fill="#FDC90D"/>
<path fill-rule="evenodd" clip-rule="evenodd" d="M11.7659 20.004C11.7485 19.9898 11.7485 19.9696 11.7616 19.9538C11.7763 19.9391 11.7987 19.9391 11.8134 19.9538L12.0856 20.1873C12.1003 20.2014 12.1035 20.226 12.0883 20.2374C12.0736 20.2522 12.0512 20.2522 12.0381 20.2374L11.7676 20.0029" fill="url(#paint31_linear_101_2)"/>
<path fill-rule="evenodd" clip-rule="evenodd" d="M11.6579 20.0951C11.6427 20.0804 11.647 20.0602 11.6634 20.046C11.6787 20.0346 11.6994 20.0389 11.7125 20.0531L11.9443 20.3269C11.9563 20.3411 11.9536 20.3656 11.9372 20.3776C11.9219 20.3918 11.8996 20.3858 11.8881 20.3716L11.6547 20.0978" fill="#FDC90D"/>
<path fill-rule="evenodd" clip-rule="evenodd" d="M11.6579 20.0951C11.6427 20.0804 11.647 20.0602 11.6634 20.046C11.6787 20.0346 11.6994 20.0389 11.7125 20.0531L11.9443 20.3269C11.9563 20.3411 11.9536 20.3656 11.9372 20.3776C11.9219 20.3918 11.8996 20.3858 11.8881 20.3716L11.6547 20.0978" fill="url(#paint32_linear_101_2)"/>
<path fill-rule="evenodd" clip-rule="evenodd" d="M11.5374 20.1725C11.527 20.154 11.533 20.1338 11.5521 20.1224C11.5701 20.1109 11.5908 20.118 11.6012 20.1365L11.7883 20.4392C11.7986 20.4567 11.7915 20.4796 11.7735 20.4867C11.7555 20.4982 11.7348 20.4911 11.7245 20.4752L11.5374 20.1725Z" fill="#FDC90D"/>
<path fill-rule="evenodd" clip-rule="evenodd" d="M11.5374 20.1725C11.527 20.154 11.533 20.1338 11.5521 20.1224C11.5701 20.1109 11.5908 20.118 11.6012 20.1365L11.7883 20.4392C11.7986 20.4567 11.7915 20.4796 11.7735 20.4867C11.7555 20.4982 11.7348 20.4911 11.7245 20.4752L11.5374 20.1725Z" fill="url(#paint33_linear_101_2)"/>
<path fill-rule="evenodd" clip-rule="evenodd" d="M11.4098 20.2276C11.4005 20.2102 11.4098 20.1884 11.4289 20.1813C11.4512 20.1725 11.4703 20.1845 11.478 20.2014L11.6116 20.5303C11.6203 20.5489 11.6116 20.5707 11.5925 20.5761C11.5745 20.5849 11.5538 20.5761 11.5478 20.5587L11.4098 20.2276Z" fill="#FDC90D"/>
<path fill-rule="evenodd" clip-rule="evenodd" d="M11.4098 20.2276C11.4005 20.2102 11.4098 20.1884 11.4289 20.1813C11.4512 20.1725 11.4703 20.1845 11.478 20.2014L11.6116 20.5303C11.6203 20.5489 11.6116 20.5707 11.5925 20.5761C11.5745 20.5849 11.5538 20.5761 11.5478 20.5587L11.4098 20.2276Z" fill="url(#paint34_linear_101_2)"/>
<path fill-rule="evenodd" clip-rule="evenodd" d="M11.2745 20.262C11.2669 20.2418 11.2805 20.2233 11.3012 20.2189C11.3203 20.2162 11.3383 20.2276 11.3427 20.2478L11.4228 20.5936C11.4272 20.6138 11.4125 20.6312 11.3934 20.6367C11.3754 20.6394 11.3574 20.6269 11.3514 20.6078L11.2745 20.262Z" fill="#FDC90D"/>
<path fill-rule="evenodd" clip-rule="evenodd" d="M11.2745 20.262C11.2669 20.2418 11.2805 20.2233 11.3012 20.2189C11.3203 20.2162 11.3383 20.2276 11.3427 20.2478L11.4228 20.5936C11.4272 20.6138 11.4125 20.6312 11.3934 20.6367C11.3754 20.6394 11.3574 20.6269 11.3514 20.6078L11.2745 20.262Z" fill="url(#paint35_linear_101_2)"/>
<path fill-rule="evenodd" clip-rule="evenodd" d="M11.1332 20.2734C11.1305 20.2533 11.1452 20.2374 11.1676 20.2364C11.1883 20.2364 11.203 20.2505 11.2047 20.2707L11.2227 20.6236C11.2227 20.6454 11.2074 20.6629 11.1883 20.6629C11.1659 20.6629 11.1496 20.6454 11.1496 20.6296L11.1316 20.2751" fill="#FDC90D"/>
<path fill-rule="evenodd" clip-rule="evenodd" d="M11.1332 20.2734C11.1305 20.2533 11.1452 20.2374 11.1676 20.2364C11.1883 20.2364 11.203 20.2505 11.2047 20.2707L11.2227 20.6236C11.2227 20.6454 11.2074 20.6629 11.1883 20.6629C11.1659 20.6629 11.1496 20.6454 11.1496 20.6296L11.1316 20.2751" fill="url(#paint36_linear_101_2)"/>
<path fill-rule="evenodd" clip-rule="evenodd" d="M10.9909 20.262C10.9909 20.2402 11.01 20.2304 11.0307 20.2331C11.0531 20.2331 11.0634 20.2522 11.0607 20.2724L11.016 20.6209C11.0127 20.6427 10.9936 20.6569 10.9756 20.6541C10.9549 20.6541 10.9418 20.6323 10.9429 20.6154L10.9909 20.2636" fill="#FDC90D"/>
<path fill-rule="evenodd" clip-rule="evenodd" d="M10.9909 20.262C10.9909 20.2402 11.01 20.2304 11.0307 20.2331C11.0531 20.2331 11.0634 20.2522 11.0607 20.2724L11.016 20.6209C11.0127 20.6427 10.9936 20.6569 10.9756 20.6541C10.9549 20.6541 10.9418 20.6323 10.9429 20.6154L10.9909 20.2636" fill="url(#paint37_linear_101_2)"/>
<path fill-rule="evenodd" clip-rule="evenodd" d="M10.848 20.2244C10.8513 20.2058 10.872 20.196 10.8927 20.2014C10.9107 20.2074 10.9194 20.2276 10.9134 20.2445L10.8065 20.5821C10.8022 20.605 10.7765 20.6138 10.7618 20.6078C10.7411 20.6023 10.7324 20.5821 10.7367 20.5647L10.848 20.2244Z" fill="#FDC90D"/>
<path fill-rule="evenodd" clip-rule="evenodd" d="M10.848 20.2244C10.8513 20.2058 10.872 20.196 10.8927 20.2014C10.9107 20.2074 10.9194 20.2276 10.9134 20.2445L10.8065 20.5821C10.8022 20.605 10.7765 20.6138 10.7618 20.6078C10.7411 20.6023 10.7324 20.5821 10.7367 20.5647L10.848 20.2244Z" fill="url(#paint38_linear_101_2)"/>
<path fill-rule="evenodd" clip-rule="evenodd" d="M10.6997 20.1611C10.7084 20.1398 10.7324 20.1365 10.7498 20.1442C10.7694 20.154 10.7738 20.1725 10.7651 20.1927L10.5987 20.5069C10.5884 20.526 10.5687 20.5331 10.548 20.5216C10.53 20.5156 10.5257 20.4927 10.5333 20.478L10.6997 20.1611Z" fill="#FDC90D"/>
<path fill-rule="evenodd" clip-rule="evenodd" d="M10.6997 20.1611C10.7084 20.1398 10.7324 20.1365 10.7498 20.1442C10.7694 20.154 10.7738 20.1725 10.7651 20.1927L10.5987 20.5069C10.5884 20.526 10.5687 20.5331 10.548 20.5216C10.53 20.5156 10.5257 20.4927 10.5333 20.478L10.6997 20.1611Z" fill="url(#paint39_linear_101_2)"/>
<path fill-rule="evenodd" clip-rule="evenodd" d="M7.96602 19.9795L8.09964 20.1927L8.73286 20.1322L9.15173 20.0356L9.25264 19.8197L9.02957 19.2579L8.43233 19.0026L7.90219 19.3152L7.9649 19.9784L7.96602 19.9795ZM8.02273 20.484C7.97199 20.484 7.92455 20.4578 7.89946 20.4147L7.70039 20.0978C7.68839 20.0804 7.68239 20.0602 7.68075 20.04L7.60657 19.2546C7.60222 19.2017 7.62895 19.1494 7.67639 19.1221L8.34779 18.7261C8.38815 18.7016 8.43724 18.6972 8.48142 18.7174L9.20519 19.0255C9.24064 19.0403 9.26737 19.0686 9.28208 19.1052L9.54662 19.7733C9.55862 19.8082 9.55697 19.8458 9.54226 19.8802L9.3879 20.2173C9.3699 20.2565 9.33282 20.2865 9.28808 20.2969L8.77868 20.4092L8.03582 20.4812H8.02108L8.02273 20.484Z" fill="#FDC90D"/>
<path fill-rule="evenodd" clip-rule="evenodd" d="M7.96602 19.9795L8.09964 20.1927L8.73286 20.1322L9.15173 20.0356L9.25264 19.8197L9.02957 19.2579L8.43233 19.0026L7.90219 19.3152L7.9649 19.9784L7.96602 19.9795ZM8.02273 20.484C7.97199 20.484 7.92455 20.4578 7.89946 20.4147L7.70039 20.0978C7.68839 20.0804 7.68239 20.0602 7.68075 20.04L7.60657 19.2546C7.60222 19.2017 7.62895 19.1494 7.67639 19.1221L8.34779 18.7261C8.38815 18.7016 8.43724 18.6972 8.48142 18.7174L9.20519 19.0255C9.24064 19.0403 9.26737 19.0686 9.28208 19.1052L9.54662 19.7733C9.55862 19.8082 9.55697 19.8458 9.54226 19.8802L9.3879 20.2173C9.3699 20.2565 9.33282 20.2865 9.28808 20.2969L8.77868 20.4092L8.03582 20.4812H8.02108L8.02273 20.484Z" fill="url(#paint40_linear_101_2)"/>
<path fill-rule="evenodd" clip-rule="evenodd" d="M8.12364 19.0184L7.78769 15.825C7.78769 15.825 8.64344 15.7198 8.88724 15.7792V19.0648" fill="#FDC90D"/>
<path fill-rule="evenodd" clip-rule="evenodd" d="M8.12364 19.0184L7.78769 15.825C7.78769 15.825 8.64344 15.7198 8.88724 15.7792V19.0648" fill="url(#paint41_linear_101_2)"/>
<path fill-rule="evenodd" clip-rule="evenodd" d="M10.3817 20.8298C10.0637 20.8298 9.79316 20.6596 9.75771 20.635L9.65354 20.5663L9.575 20.0874L9.47083 20.0733L9.557 19.5158L10.0833 19.5933L10.1842 20.2205C10.2731 20.2565 10.3893 20.2849 10.4662 20.2489C10.5497 20.2118 10.6151 20.0864 10.6566 19.8976L10.3473 19.6206L10.3146 19.2317C10.3086 19.1597 10.2791 18.563 10.6686 18.1829C10.8136 18.0383 11.0771 17.8714 11.5107 17.8943L11.6116 17.8971L11.689 17.9636C11.695 17.9707 12.4373 18.5946 13.2456 18.5516C14.0627 18.5112 14.7166 18.3399 14.8246 18.3067L17.8495 16.9808L18.0916 17.4924L15.009 18.8428C14.9795 18.8526 14.2394 19.0648 13.274 19.1133C12.4122 19.157 11.6443 18.6465 11.3934 18.4567C11.2598 18.4638 11.1556 18.5041 11.0814 18.5777C10.9031 18.7506 10.8851 19.0861 10.8911 19.1897L10.9058 19.3588L11.2702 19.6871L11.2522 19.8311C11.1954 20.3138 11.0116 20.628 10.71 20.7648C10.5998 20.8123 10.4902 20.8325 10.3833 20.8325" fill="#FDC90D"/>
<path fill-rule="evenodd" clip-rule="evenodd" d="M10.3817 20.8298C10.0637 20.8298 9.79316 20.6596 9.75771 20.635L9.65354 20.5663L9.575 20.0874L9.47083 20.0733L9.557 19.5158L10.0833 19.5933L10.1842 20.2205C10.2731 20.2565 10.3893 20.2849 10.4662 20.2489C10.5497 20.2118 10.6151 20.0864 10.6566 19.8976L10.3473 19.6206L10.3146 19.2317C10.3086 19.1597 10.2791 18.563 10.6686 18.1829C10.8136 18.0383 11.0771 17.8714 11.5107 17.8943L11.6116 17.8971L11.689 17.9636C11.695 17.9707 12.4373 18.5946 13.2456 18.5516C14.0627 18.5112 14.7166 18.3399 14.8246 18.3067L17.8495 16.9808L18.0916 17.4924L15.009 18.8428C14.9795 18.8526 14.2394 19.0648 13.274 19.1133C12.4122 19.157 11.6443 18.6465 11.3934 18.4567C11.2598 18.4638 11.1556 18.5041 11.0814 18.5777C10.9031 18.7506 10.8851 19.0861 10.8911 19.1897L10.9058 19.3588L11.2702 19.6871L11.2522 19.8311C11.1954 20.3138 11.0116 20.628 10.71 20.7648C10.5998 20.8123 10.4902 20.8325 10.3833 20.8325" fill="url(#paint42_linear_101_2)"/>
<path fill-rule="evenodd" clip-rule="evenodd" d="M30.5058 8.92118L29.2284 9.9542C27.8987 10.9878 27.2082 9.83911 27.2082 9.83911L26.2662 9.55496L20.5291 15.2845C20.5291 15.2845 23.9831 15.0827 25.1047 13.7819C25.1047 13.7819 25.8664 13.0756 26.2293 11.3854C26.2293 11.3854 27.6298 11.2441 27.9227 11.2441C30.5042 11.2441 30.8669 10.1865 30.8669 10.1865L30.5042 8.91845" fill="#FDC90D"/>
<path fill-rule="evenodd" clip-rule="evenodd" d="M30.5058 8.92118L29.2284 9.9542C27.8987 10.9878 27.2082 9.83911 27.2082 9.83911L26.2662 9.55496L20.5291 15.2845C20.5291 15.2845 23.9831 15.0827 25.1047 13.7819C25.1047 13.7819 25.8664 13.0756 26.2293 11.3854C26.2293 11.3854 27.6298 11.2441 27.9227 11.2441C30.5042 11.2441 30.8669 10.1865 30.8669 10.1865L30.5042 8.91845" fill="url(#paint43_linear_101_2)"/>
<path fill-rule="evenodd" clip-rule="evenodd" d="M16.0431 21.1423C15.3046 21.1423 14.367 21.0458 13.7878 20.6236C12.7526 19.8688 12.2045 18.6454 12.1805 18.5919L12.4477 18.4812C12.4526 18.4954 12.9888 19.6915 13.9601 20.3978C14.9141 21.0921 17.0903 20.7954 17.1137 20.7921L17.1541 21.0719C17.1094 21.0779 16.6414 21.1439 16.0398 21.1439" fill="#FDC90D"/>
<path fill-rule="evenodd" clip-rule="evenodd" d="M16.0431 21.1423C15.3046 21.1423 14.367 21.0458 13.7878 20.6236C12.7526 19.8688 12.2045 18.6454 12.1805 18.5919L12.4477 18.4812C12.4526 18.4954 12.9888 19.6915 13.9601 20.3978C14.9141 21.0921 17.0903 20.7954 17.1137 20.7921L17.1541 21.0719C17.1094 21.0779 16.6414 21.1439 16.0398 21.1439" fill="url(#paint44_linear_101_2)"/>
<path fill-rule="evenodd" clip-rule="evenodd" d="M16.4423 21.1265C16.4423 21.1265 16.955 20.1927 17.7497 21.0026C18.5476 21.8126 16.4423 21.1265 16.4423 21.1265Z" fill="#FDC90D"/>
<path fill-rule="evenodd" clip-rule="evenodd" d="M16.4423 21.1265C16.4423 21.1265 16.955 20.1927 17.7497 21.0026C18.5476 21.8126 16.4423 21.1265 16.4423 21.1265Z" fill="url(#paint45_linear_101_2)"/>
<path fill-rule="evenodd" clip-rule="evenodd" d="M16.9299 13.3118C16.9299 13.3118 17.7109 13.6521 17.8953 14.2744L16.9299 13.3118Z" fill="#FDC90D"/>
<path fill-rule="evenodd" clip-rule="evenodd" d="M16.9299 13.3118C16.9299 13.3118 17.7109 13.6521 17.8953 14.2744L16.9299 13.3118Z" fill="url(#paint46_linear_101_2)"/>
<path fill-rule="evenodd" clip-rule="evenodd" d="M31.77 4.70458L31.6807 4.2966L31.3244 4.53004C30.0618 5.35144 28.5167 6.25518 28.2227 6.27809C27.71 6.27809 26.3389 6.379 26.2793 6.385L26.2396 6.39044C25.3064 6.59824 24.7909 6.93369 24.6649 7.41964C24.5358 7.91651 24.8849 8.3534 25.0718 8.54376C25.0184 9.66731 24.24 10.6256 23.9947 10.8994C22.8167 10.9905 22.1752 11.8173 21.9226 12.2357C19.6603 11.5294 17.3024 12.7718 16.8497 13.0282H14.6839L14.6463 13.0309C14.5426 13.0423 12.151 13.3478 10.9211 14.0006C10.0653 14.4544 9.84116 15.2889 9.79207 15.8627C9.38029 15.6063 8.75633 15.3151 8.11764 15.3914C7.59787 15.452 7.15936 15.7329 6.81791 16.227C6.63358 16.5008 6.36796 17.3511 6.5654 18.184C6.71102 18.7937 7.08244 19.2835 7.63931 19.6004L7.9322 19.1106C7.51004 18.8728 7.2428 18.5172 7.13427 18.0558C6.97556 17.3958 7.19098 16.7042 7.30389 16.5401C7.54878 16.1839 7.83567 15.9925 8.18582 15.9488C9.00776 15.8523 9.88698 16.6306 9.89733 16.6377L10.4913 17.1711L10.3817 16.3928C10.3817 16.3786 10.1973 15.0238 11.1987 14.4948C12.2802 13.9215 14.4816 13.6188 14.7046 13.5899H17.0128L17.0843 13.5468C17.1094 13.5294 19.699 11.9902 21.9597 12.8405L22.2199 12.9387L22.3311 12.6894C22.3536 12.6404 22.8749 11.4934 24.1387 11.4503L24.2549 11.447L24.3351 11.3652C24.3884 11.3117 25.6496 10.0322 25.6496 8.42267V8.29287L25.5502 8.2094C25.464 8.13687 25.1564 7.81016 25.2236 7.55218C25.2607 7.4082 25.4564 7.13984 26.3449 6.93969C26.5231 6.92496 27.7651 6.83878 28.2211 6.83878C28.5953 6.83878 29.6871 6.21647 30.6051 5.65142C30.3111 5.96284 29.8698 6.36153 29.2089 6.85896C29.1302 6.91678 29.0796 6.95387 29.0604 6.96531L28.9191 7.07222L28.964 7.3962L29.1167 7.46C29.2311 7.50309 29.3011 7.48891 29.414 7.41638C29.4553 7.38802 29.5033 7.35038 29.5629 7.30567C31.776 5.64869 31.81 4.89493 31.77 4.70293" fill="#FDC90D"/>
<path fill-rule="evenodd" clip-rule="evenodd" d="M31.77 4.70458L31.6807 4.2966L31.3244 4.53004C30.0618 5.35144 28.5167 6.25518 28.2227 6.27809C27.71 6.27809 26.3389 6.379 26.2793 6.385L26.2396 6.39044C25.3064 6.59824 24.7909 6.93369 24.6649 7.41964C24.5358 7.91651 24.8849 8.3534 25.0718 8.54376C25.0184 9.66731 24.24 10.6256 23.9947 10.8994C22.8167 10.9905 22.1752 11.8173 21.9226 12.2357C19.6603 11.5294 17.3024 12.7718 16.8497 13.0282H14.6839L14.6463 13.0309C14.5426 13.0423 12.151 13.3478 10.9211 14.0006C10.0653 14.4544 9.84116 15.2889 9.79207 15.8627C9.38029 15.6063 8.75633 15.3151 8.11764 15.3914C7.59787 15.452 7.15936 15.7329 6.81791 16.227C6.63358 16.5008 6.36796 17.3511 6.5654 18.184C6.71102 18.7937 7.08244 19.2835 7.63931 19.6004L7.9322 19.1106C7.51004 18.8728 7.2428 18.5172 7.13427 18.0558C6.97556 17.3958 7.19098 16.7042 7.30389 16.5401C7.54878 16.1839 7.83567 15.9925 8.18582 15.9488C9.00776 15.8523 9.88698 16.6306 9.89733 16.6377L10.4913 17.1711L10.3817 16.3928C10.3817 16.3786 10.1973 15.0238 11.1987 14.4948C12.2802 13.9215 14.4816 13.6188 14.7046 13.5899H17.0128L17.0843 13.5468C17.1094 13.5294 19.699 11.9902 21.9597 12.8405L22.2199 12.9387L22.3311 12.6894C22.3536 12.6404 22.8749 11.4934 24.1387 11.4503L24.2549 11.447L24.3351 11.3652C24.3884 11.3117 25.6496 10.0322 25.6496 8.42267V8.29287L25.5502 8.2094C25.464 8.13687 25.1564 7.81016 25.2236 7.55218C25.2607 7.4082 25.4564 7.13984 26.3449 6.93969C26.5231 6.92496 27.7651 6.83878 28.2211 6.83878C28.5953 6.83878 29.6871 6.21647 30.6051 5.65142C30.3111 5.96284 29.8698 6.36153 29.2089 6.85896C29.1302 6.91678 29.0796 6.95387 29.0604 6.96531L28.9191 7.07222L28.964 7.3962L29.1167 7.46C29.2311 7.50309 29.3011 7.48891 29.414 7.41638C29.4553 7.38802 29.5033 7.35038 29.5629 7.30567C31.776 5.64869 31.81 4.89493 31.77 4.70293" fill="url(#paint47_linear_101_2)"/>
<path fill-rule="evenodd" clip-rule="evenodd" d="M19.2485 16.2903L18.9218 15.825L19.9646 15.1389C21.9761 14.3753 23.1498 13.4645 23.2949 13.3478L25.134 11.2616L26.6851 7.64709L26.9971 7.53638C27.2824 7.5102 27.6402 7.32311 27.8736 7.2004C28.0367 7.11422 28.1382 7.06186 28.2347 7.04604L29.2389 6.88078L29.338 7.43546L28.3324 7.60126C28.3209 7.60673 28.2287 7.65853 28.1496 7.69618C27.8884 7.83306 27.5022 8.03651 27.1249 8.08942L25.6053 11.5915L23.6887 13.7585C23.6396 13.8021 22.4304 14.8008 20.2068 15.6521L19.2485 16.2865" fill="#FDC90D"/>
<path fill-rule="evenodd" clip-rule="evenodd" d="M19.2485 16.2903L18.9218 15.825L19.9646 15.1389C21.9761 14.3753 23.1498 13.4645 23.2949 13.3478L25.134 11.2616L26.6851 7.64709L26.9971 7.53638C27.2824 7.5102 27.6402 7.32311 27.8736 7.2004C28.0367 7.11422 28.1382 7.06186 28.2347 7.04604L29.2389 6.88078L29.338 7.43546L28.3324 7.60126C28.3209 7.60673 28.2287 7.65853 28.1496 7.69618C27.8884 7.83306 27.5022 8.03651 27.1249 8.08942L25.6053 11.5915L23.6887 13.7585C23.6396 13.8021 22.4304 14.8008 20.2068 15.6521L19.2485 16.2865" fill="url(#paint48_linear_101_2)"/>
<path fill-rule="evenodd" clip-rule="evenodd" d="M22.7767 19.1368C22.7767 21.0174 21.4247 20.2402 21.4247 20.2402L20.6971 19.4913C20.6971 19.4913 18.1685 17.5213 17.573 17.4662C16.3027 17.3538 14.553 16.1752 13.4523 16.6246C13.3569 16.665 13.2664 16.6999 13.1775 16.7299C11.0176 17.4907 10.7929 16.0154 10.7929 16.0154C10.7929 16.0154 10.5998 14.5139 13.5489 14.4664C16.4958 14.4173 19.345 16.0601 19.345 16.0601L21.134 18.7834C21.134 18.7834 21.8114 18.8554 22.0045 19.3713C22.0045 19.3713 22.7767 18.713 22.7767 19.1368Z" fill="#FDC90D"/>
<path fill-rule="evenodd" clip-rule="evenodd" d="M22.7767 19.1368C22.7767 21.0174 21.4247 20.2402 21.4247 20.2402L20.6971 19.4913C20.6971 19.4913 18.1685 17.5213 17.573 17.4662C16.3027 17.3538 14.553 16.1752 13.4523 16.6246C13.3569 16.665 13.2664 16.6999 13.1775 16.7299C11.0176 17.4907 10.7929 16.0154 10.7929 16.0154C10.7929 16.0154 10.5998 14.5139 13.5489 14.4664C16.4958 14.4173 19.345 16.0601 19.345 16.0601L21.134 18.7834C21.134 18.7834 21.8114 18.8554 22.0045 19.3713C22.0045 19.3713 22.7767 18.713 22.7767 19.1368Z" fill="url(#paint49_linear_101_2)"/>
<path fill-rule="evenodd" clip-rule="evenodd" d="M31.5633 4.90202C31.5633 4.90202 28.808 6.69916 28.3029 6.69916C27.7935 6.69916 26.382 6.80442 26.382 6.80442C23.9902 7.33293 25.4389 8.56502 25.4389 8.56502C25.4389 10.078 24.2058 11.3117 24.2058 11.3117C22.7353 11.3581 22.1408 12.7211 22.1408 12.7211C19.7137 11.8048 17.0084 13.4487 17.0084 13.4487H14.7608C14.7608 13.4487 12.3321 13.7514 11.1365 14.3857C9.94206 15.0195 10.1706 16.5701 10.1706 16.5701C10.1706 16.5701 8.2769 14.8656 7.14026 16.5243C6.90246 16.8668 6.44486 18.5848 7.76695 19.4308L7.75221 19.2404L8.42088 18.8439L9.14575 19.1526L9.40863 19.8213L9.38355 19.8786L9.59408 19.9304L9.90606 19.9795L9.8837 20.683C9.8837 20.683 10.8987 21.1297 11.0427 19.9304L10.7056 19.6282L10.68 19.3457C10.68 19.3457 10.6058 18.2647 11.5745 18.311C11.5745 18.311 12.3959 19.0168 13.3378 18.9694C14.2797 18.9192 15.0046 18.7103 15.0046 18.7103L18.0496 17.3696L19.3766 16.0787L20.1489 15.5382C22.3709 14.6922 23.5802 13.6821 23.5802 13.6821L25.4655 11.5495L26.988 8.0016L27.1069 7.9558C27.6167 7.9078 28.2211 7.48565 28.3651 7.46111L29.3691 7.29529L29.4658 7.22331C31.7091 5.54342 31.5678 4.90365 31.5678 4.90365" fill="#FDC90D"/>
<path fill-rule="evenodd" clip-rule="evenodd" d="M31.5633 4.90202C31.5633 4.90202 28.808 6.69916 28.3029 6.69916C27.7935 6.69916 26.382 6.80442 26.382 6.80442C23.9902 7.33293 25.4389 8.56502 25.4389 8.56502C25.4389 10.078 24.2058 11.3117 24.2058 11.3117C22.7353 11.3581 22.1408 12.7211 22.1408 12.7211C19.7137 11.8048 17.0084 13.4487 17.0084 13.4487H14.7608C14.7608 13.4487 12.3321 13.7514 11.1365 14.3857C9.94206 15.0195 10.1706 16.5701 10.1706 16.5701C10.1706 16.5701 8.2769 14.8656 7.14026 16.5243C6.90246 16.8668 6.44486 18.5848 7.76695 19.4308L7.75221 19.2404L8.42088 18.8439L9.14575 19.1526L9.40863 19.8213L9.38355 19.8786L9.59408 19.9304L9.90606 19.9795L9.8837 20.683C9.8837 20.683 10.8987 21.1297 11.0427 19.9304L10.7056 19.6282L10.68 19.3457C10.68 19.3457 10.6058 18.2647 11.5745 18.311C11.5745 18.311 12.3959 19.0168 13.3378 18.9694C14.2797 18.9192 15.0046 18.7103 15.0046 18.7103L18.0496 17.3696L19.3766 16.0787L20.1489 15.5382C22.3709 14.6922 23.5802 13.6821 23.5802 13.6821L25.4655 11.5495L26.988 8.0016L27.1069 7.9558C27.6167 7.9078 28.2211 7.48565 28.3651 7.46111L29.3691 7.29529L29.4658 7.22331C31.7091 5.54342 31.5678 4.90365 31.5678 4.90365" fill="url(#paint50_linear_101_2)"/>
<path fill-rule="evenodd" clip-rule="evenodd" d="M24.666 18.4768C23.5316 23.3098 19.075 26.9269 13.7654 26.9269C7.60061 26.9269 2.58552 22.052 2.58552 16.0585C2.58552 10.0666 7.60061 5.19 13.7654 5.19C16.2018 5.19 18.4598 5.95411 20.2989 7.24511C20.6998 6.58953 21.1651 5.95685 21.7192 5.41089C19.4836 3.82536 16.7352 2.88889 13.7654 2.88889C6.29814 2.88889 0.222229 8.79738 0.222229 16.0541C0.222229 23.3142 6.29814 29.2209 13.7654 29.2209C20.3971 29.2209 25.932 24.562 27.086 18.4348C26.2898 18.533 25.446 18.5068 24.6678 18.4736" fill="#FDC90D"/>
<path fill-rule="evenodd" clip-rule="evenodd" d="M24.666 18.4768C23.5316 23.3098 19.075 26.9269 13.7654 26.9269C7.60061 26.9269 2.58552 22.052 2.58552 16.0585C2.58552 10.0666 7.60061 5.19 13.7654 5.19C16.2018 5.19 18.4598 5.95411 20.2989 7.24511C20.6998 6.58953 21.1651 5.95685 21.7192 5.41089C19.4836 3.82536 16.7352 2.88889 13.7654 2.88889C6.29814 2.88889 0.222229 8.79738 0.222229 16.0541C0.222229 23.3142 6.29814 29.2209 13.7654 29.2209C20.3971 29.2209 25.932 24.562 27.086 18.4348C26.2898 18.533 25.446 18.5068 24.6678 18.4736" fill="url(#paint51_linear_101_2)"/>
<defs>
<linearGradient id="paint0_linear_101_2" x1="16" y1="2.88884" x2="16" y2="29.2211" gradientUnits="userSpaceOnUse">
<stop offset="0.510417" stop-color="#DA0000" stop-opacity="0"/>
<stop offset="1" stop-color="#DA0000" stop-opacity="0.2"/>
</linearGradient>
<linearGradient id="paint1_linear_101_2" x1="16" y1="2.88884" x2="16" y2="29.2211" gradientUnits="userSpaceOnUse">
<stop offset="0.510417" stop-color="#DA0000" stop-opacity="0"/>
<stop offset="1" stop-color="#DA0000" stop-opacity="0.2"/>
</linearGradient>
<linearGradient id="paint2_linear_101_2" x1="16" y1="2.8888" x2="16" y2="29.2212" gradientUnits="userSpaceOnUse">
<stop offset="0.510417" stop-color="#DA0000" stop-opacity="0"/>
<stop offset="1" stop-color="#DA0000" stop-opacity="0.2"/>
</linearGradient>
<linearGradient id="paint3_linear_101_2" x1="16" y1="2.88885" x2="16" y2="29.2211" gradientUnits="userSpaceOnUse">
<stop offset="0.510417" stop-color="#DA0000" stop-opacity="0"/>
<stop offset="1" stop-color="#DA0000" stop-opacity="0.2"/>
</linearGradient>
<linearGradient id="paint4_linear_101_2" x1="16" y1="2.88883" x2="16" y2="29.2211" gradientUnits="userSpaceOnUse">
<stop offset="0.510417" stop-color="#DA0000" stop-opacity="0"/>
<stop offset="1" stop-color="#DA0000" stop-opacity="0.2"/>
</linearGradient>
<linearGradient id="paint5_linear_101_2" x1="16" y1="2.88886" x2="16" y2="29.2211" gradientUnits="userSpaceOnUse">
<stop offset="0.510417" stop-color="#DA0000" stop-opacity="0"/>
<stop offset="1" stop-color="#DA0000" stop-opacity="0.2"/>
</linearGradient>
<linearGradient id="paint6_linear_101_2" x1="16" y1="2.88884" x2="16" y2="29.2211" gradientUnits="userSpaceOnUse">
<stop offset="0.510417" stop-color="#DA0000" stop-opacity="0"/>
<stop offset="1" stop-color="#DA0000" stop-opacity="0.2"/>
</linearGradient>
<linearGradient id="paint7_linear_101_2" x1="16" y1="2.88886" x2="16" y2="29.2211" gradientUnits="userSpaceOnUse">
<stop offset="0.510417" stop-color="#DA0000" stop-opacity="0"/>
<stop offset="1" stop-color="#DA0000" stop-opacity="0.2"/>
</linearGradient>
<linearGradient id="paint8_linear_101_2" x1="16" y1="2.88886" x2="16" y2="29.2211" gradientUnits="userSpaceOnUse">
<stop offset="0.510417" stop-color="#DA0000" stop-opacity="0"/>
<stop offset="1" stop-color="#DA0000" stop-opacity="0.2"/>
</linearGradient>
<linearGradient id="paint9_linear_101_2" x1="16" y1="2.88884" x2="16" y2="29.2211" gradientUnits="userSpaceOnUse">
<stop offset="0.510417" stop-color="#DA0000" stop-opacity="0"/>
<stop offset="1" stop-color="#DA0000" stop-opacity="0.2"/>
</linearGradient>
<linearGradient id="paint10_linear_101_2" x1="16" y1="2.88884" x2="16" y2="29.2211" gradientUnits="userSpaceOnUse">
<stop offset="0.510417" stop-color="#DA0000" stop-opacity="0"/>
<stop offset="1" stop-color="#DA0000" stop-opacity="0.2"/>
</linearGradient>
<linearGradient id="paint11_linear_101_2" x1="16" y1="2.88879" x2="16" y2="29.2212" gradientUnits="userSpaceOnUse">
<stop offset="0.510417" stop-color="#DA0000" stop-opacity="0"/>
<stop offset="1" stop-color="#DA0000" stop-opacity="0.2"/>
</linearGradient>
<linearGradient id="paint12_linear_101_2" x1="16" y1="2.88888" x2="16" y2="29.2211" gradientUnits="userSpaceOnUse">
<stop offset="0.510417" stop-color="#DA0000" stop-opacity="0"/>
<stop offset="1" stop-color="#DA0000" stop-opacity="0.2"/>
</linearGradient>
<linearGradient id="paint13_linear_101_2" x1="16" y1="2.88888" x2="16" y2="29.2211" gradientUnits="userSpaceOnUse">
<stop offset="0.510417" stop-color="#DA0000" stop-opacity="0"/>
<stop offset="1" stop-color="#DA0000" stop-opacity="0.2"/>
</linearGradient>
<linearGradient id="paint14_linear_101_2" x1="16" y1="2.88893" x2="16" y2="29.221" gradientUnits="userSpaceOnUse">
<stop offset="0.510417" stop-color="#DA0000" stop-opacity="0"/>
<stop offset="1" stop-color="#DA0000" stop-opacity="0.2"/>
</linearGradient>
<linearGradient id="paint15_linear_101_2" x1="16" y1="2.88882" x2="16" y2="29.2211" gradientUnits="userSpaceOnUse">
<stop offset="0.510417" stop-color="#DA0000" stop-opacity="0"/>
<stop offset="1" stop-color="#DA0000" stop-opacity="0.2"/>
</linearGradient>
<linearGradient id="paint16_linear_101_2" x1="16" y1="2.88889" x2="16" y2="29.2211" gradientUnits="userSpaceOnUse">
<stop offset="0.510417" stop-color="#DA0000" stop-opacity="0"/>
<stop offset="1" stop-color="#DA0000" stop-opacity="0.2"/>
</linearGradient>
<linearGradient id="paint17_linear_101_2" x1="16" y1="2.88885" x2="16" y2="29.2211" gradientUnits="userSpaceOnUse">
<stop offset="0.510417" stop-color="#DA0000" stop-opacity="0"/>
<stop offset="1" stop-color="#DA0000" stop-opacity="0.2"/>
</linearGradient>
<linearGradient id="paint18_linear_101_2" x1="16" y1="2.88888" x2="16" y2="29.2211" gradientUnits="userSpaceOnUse">
<stop offset="0.510417" stop-color="#DA0000" stop-opacity="0"/>
<stop offset="1" stop-color="#DA0000" stop-opacity="0.2"/>
</linearGradient>
<linearGradient id="paint19_linear_101_2" x1="16" y1="2.88886" x2="16" y2="29.2211" gradientUnits="userSpaceOnUse">
<stop offset="0.510417" stop-color="#DA0000" stop-opacity="0"/>
<stop offset="1" stop-color="#DA0000" stop-opacity="0.2"/>
</linearGradient>
<linearGradient id="paint20_linear_101_2" x1="16" y1="2.88884" x2="16" y2="29.2211" gradientUnits="userSpaceOnUse">
<stop offset="0.510417" stop-color="#DA0000" stop-opacity="0"/>
<stop offset="1" stop-color="#DA0000" stop-opacity="0.2"/>
</linearGradient>
<linearGradient id="paint21_linear_101_2" x1="16" y1="2.88888" x2="16" y2="29.2211" gradientUnits="userSpaceOnUse">
<stop offset="0.510417" stop-color="#DA0000" stop-opacity="0"/>
<stop offset="1" stop-color="#DA0000" stop-opacity="0.2"/>
</linearGradient>
<linearGradient id="paint22_linear_101_2" x1="16" y1="2.88886" x2="16" y2="29.2211" gradientUnits="userSpaceOnUse">
<stop offset="0.510417" stop-color="#DA0000" stop-opacity="0"/>
<stop offset="1" stop-color="#DA0000" stop-opacity="0.2"/>
</linearGradient>
<linearGradient id="paint23_linear_101_2" x1="16" y1="2.88883" x2="16" y2="29.2211" gradientUnits="userSpaceOnUse">
<stop offset="0.510417" stop-color="#DA0000" stop-opacity="0"/>
<stop offset="1" stop-color="#DA0000" stop-opacity="0.2"/>
</linearGradient>
<linearGradient id="paint24_linear_101_2" x1="16" y1="2.8888" x2="16" y2="29.2211" gradientUnits="userSpaceOnUse">
<stop offset="0.510417" stop-color="#DA0000" stop-opacity="0"/>
<stop offset="1" stop-color="#DA0000" stop-opacity="0.2"/>
</linearGradient>
<linearGradient id="paint25_linear_101_2" x1="16" y1="2.88873" x2="16" y2="29.2212" gradientUnits="userSpaceOnUse">
<stop offset="0.510417" stop-color="#DA0000" stop-opacity="0"/>
<stop offset="1" stop-color="#DA0000" stop-opacity="0.2"/>
</linearGradient>
<linearGradient id="paint26_linear_101_2" x1="16" y1="2.88893" x2="16" y2="29.2211" gradientUnits="userSpaceOnUse">
<stop offset="0.510417" stop-color="#DA0000" stop-opacity="0"/>
<stop offset="1" stop-color="#DA0000" stop-opacity="0.2"/>
</linearGradient>
<linearGradient id="paint27_linear_101_2" x1="16" y1="2.88875" x2="16" y2="29.2212" gradientUnits="userSpaceOnUse">
<stop offset="0.510417" stop-color="#DA0000" stop-opacity="0"/>
<stop offset="1" stop-color="#DA0000" stop-opacity="0.2"/>
</linearGradient>
<linearGradient id="paint28_linear_101_2" x1="16" y1="2.88885" x2="16" y2="29.2211" gradientUnits="userSpaceOnUse">
<stop offset="0.510417" stop-color="#DA0000" stop-opacity="0"/>
<stop offset="1" stop-color="#DA0000" stop-opacity="0.2"/>
</linearGradient>
<linearGradient id="paint29_linear_101_2" x1="16" y1="2.88878" x2="16" y2="29.2211" gradientUnits="userSpaceOnUse">
<stop offset="0.510417" stop-color="#DA0000" stop-opacity="0"/>
<stop offset="1" stop-color="#DA0000" stop-opacity="0.2"/>
</linearGradient>
<linearGradient id="paint30_linear_101_2" x1="16" y1="2.88882" x2="16" y2="29.2211" gradientUnits="userSpaceOnUse">
<stop offset="0.510417" stop-color="#DA0000" stop-opacity="0"/>
<stop offset="1" stop-color="#DA0000" stop-opacity="0.2"/>
</linearGradient>
<linearGradient id="paint31_linear_101_2" x1="16" y1="2.88888" x2="16" y2="29.2211" gradientUnits="userSpaceOnUse">
<stop offset="0.510417" stop-color="#DA0000" stop-opacity="0"/>
<stop offset="1" stop-color="#DA0000" stop-opacity="0.2"/>
</linearGradient>
<linearGradient id="paint32_linear_101_2" x1="16" y1="2.88882" x2="16" y2="29.2211" gradientUnits="userSpaceOnUse">
<stop offset="0.510417" stop-color="#DA0000" stop-opacity="0"/>
<stop offset="1" stop-color="#DA0000" stop-opacity="0.2"/>
</linearGradient>
<linearGradient id="paint33_linear_101_2" x1="16" y1="2.88882" x2="16" y2="29.2211" gradientUnits="userSpaceOnUse">
<stop offset="0.510417" stop-color="#DA0000" stop-opacity="0"/>
<stop offset="1" stop-color="#DA0000" stop-opacity="0.2"/>
</linearGradient>
<linearGradient id="paint34_linear_101_2" x1="16" y1="2.88884" x2="16" y2="29.2211" gradientUnits="userSpaceOnUse">
<stop offset="0.510417" stop-color="#DA0000" stop-opacity="0"/>
<stop offset="1" stop-color="#DA0000" stop-opacity="0.2"/>
</linearGradient>
<linearGradient id="paint35_linear_101_2" x1="16" y1="2.88888" x2="16" y2="29.2211" gradientUnits="userSpaceOnUse">
<stop offset="0.510417" stop-color="#DA0000" stop-opacity="0"/>
<stop offset="1" stop-color="#DA0000" stop-opacity="0.2"/>
</linearGradient>
<linearGradient id="paint36_linear_101_2" x1="16" y1="2.88883" x2="16" y2="29.2211" gradientUnits="userSpaceOnUse">
<stop offset="0.510417" stop-color="#DA0000" stop-opacity="0"/>
<stop offset="1" stop-color="#DA0000" stop-opacity="0.2"/>
</linearGradient>
<linearGradient id="paint37_linear_101_2" x1="16" y1="2.88881" x2="16" y2="29.2211" gradientUnits="userSpaceOnUse">
<stop offset="0.510417" stop-color="#DA0000" stop-opacity="0"/>
<stop offset="1" stop-color="#DA0000" stop-opacity="0.2"/>
</linearGradient>
<linearGradient id="paint38_linear_101_2" x1="16" y1="2.88885" x2="16" y2="29.2211" gradientUnits="userSpaceOnUse">
<stop offset="0.510417" stop-color="#DA0000" stop-opacity="0"/>
<stop offset="1" stop-color="#DA0000" stop-opacity="0.2"/>
</linearGradient>
<linearGradient id="paint39_linear_101_2" x1="16" y1="2.88888" x2="16" y2="29.2211" gradientUnits="userSpaceOnUse">
<stop offset="0.510417" stop-color="#DA0000" stop-opacity="0"/>
<stop offset="1" stop-color="#DA0000" stop-opacity="0.2"/>
</linearGradient>
<linearGradient id="paint40_linear_101_2" x1="16" y1="2.88887" x2="16" y2="29.2211" gradientUnits="userSpaceOnUse">
<stop offset="0.510417" stop-color="#DA0000" stop-opacity="0"/>
<stop offset="1" stop-color="#DA0000" stop-opacity="0.2"/>
</linearGradient>
<linearGradient id="paint41_linear_101_2" x1="16" y1="2.88884" x2="16" y2="29.2211" gradientUnits="userSpaceOnUse">
<stop offset="0.510417" stop-color="#DA0000" stop-opacity="0"/>
<stop offset="1" stop-color="#DA0000" stop-opacity="0.2"/>
</linearGradient>
<linearGradient id="paint42_linear_101_2" x1="16" y1="2.88884" x2="16" y2="29.2211" gradientUnits="userSpaceOnUse">
<stop offset="0.510417" stop-color="#DA0000" stop-opacity="0"/>
<stop offset="1" stop-color="#DA0000" stop-opacity="0.2"/>
</linearGradient>
<linearGradient id="paint43_linear_101_2" x1="16" y1="2.88884" x2="16" y2="29.2211" gradientUnits="userSpaceOnUse">
<stop offset="0.510417" stop-color="#DA0000" stop-opacity="0"/>
<stop offset="1" stop-color="#DA0000" stop-opacity="0.2"/>
</linearGradient>
<linearGradient id="paint44_linear_101_2" x1="16" y1="2.88887" x2="16" y2="29.2211" gradientUnits="userSpaceOnUse">
<stop offset="0.510417" stop-color="#DA0000" stop-opacity="0"/>
<stop offset="1" stop-color="#DA0000" stop-opacity="0.2"/>
</linearGradient>
<linearGradient id="paint45_linear_101_2" x1="16" y1="2.88884" x2="16" y2="29.2211" gradientUnits="userSpaceOnUse">
<stop offset="0.510417" stop-color="#DA0000" stop-opacity="0"/>
<stop offset="1" stop-color="#DA0000" stop-opacity="0.2"/>
</linearGradient>
<linearGradient id="paint46_linear_101_2" x1="16" y1="2.88884" x2="16" y2="29.2211" gradientUnits="userSpaceOnUse">
<stop offset="0.510417" stop-color="#DA0000" stop-opacity="0"/>
<stop offset="1" stop-color="#DA0000" stop-opacity="0.2"/>
</linearGradient>
<linearGradient id="paint47_linear_101_2" x1="16" y1="2.88884" x2="16" y2="29.2211" gradientUnits="userSpaceOnUse">
<stop offset="0.510417" stop-color="#DA0000" stop-opacity="0"/>
<stop offset="1" stop-color="#DA0000" stop-opacity="0.2"/>
</linearGradient>
<linearGradient id="paint48_linear_101_2" x1="16" y1="2.88884" x2="16" y2="29.2211" gradientUnits="userSpaceOnUse">
<stop offset="0.510417" stop-color="#DA0000" stop-opacity="0"/>
<stop offset="1" stop-color="#DA0000" stop-opacity="0.2"/>
</linearGradient>
<linearGradient id="paint49_linear_101_2" x1="16" y1="2.88887" x2="16" y2="29.2211" gradientUnits="userSpaceOnUse">
<stop offset="0.510417" stop-color="#DA0000" stop-opacity="0"/>
<stop offset="1" stop-color="#DA0000" stop-opacity="0.2"/>
</linearGradient>
<linearGradient id="paint50_linear_101_2" x1="16" y1="2.88887" x2="16" y2="29.2211" gradientUnits="userSpaceOnUse">
<stop offset="0.510417" stop-color="#DA0000" stop-opacity="0"/>
<stop offset="1" stop-color="#DA0000" stop-opacity="0.2"/>
</linearGradient>
<linearGradient id="paint51_linear_101_2" x1="16" y1="2.88884" x2="16" y2="29.2211" gradientUnits="userSpaceOnUse">
<stop offset="0.510417" stop-color="#DA0000" stop-opacity="0"/>
<stop offset="1" stop-color="#DA0000" stop-opacity="0.2"/>
</linearGradient>
</defs>
</svg>
