<svg width="512" height="512" viewBox="0 0 512 512" fill="none" xmlns="http://www.w3.org/2000/svg">
<path fill-rule="evenodd" clip-rule="evenodd" d="M298.569 170.047C301.915 180.74 296.835 191.73 287.193 194.568L183.2 225.157C173.567 227.986 163.049 221.602 159.704 210.883C156.367 200.146 161.473 189.182 171.106 186.362L275.099 155.746C284.759 152.9 295.233 159.31 298.569 170.047Z" fill="#FDC90D"/>
<path fill-rule="evenodd" clip-rule="evenodd" d="M298.569 170.047C301.915 180.74 296.835 191.73 287.193 194.568L183.2 225.157C173.567 227.986 163.049 221.602 159.704 210.883C156.367 200.146 161.473 189.182 171.106 186.362L275.099 155.746C284.759 152.9 295.233 159.31 298.569 170.047Z" fill="url(#paint0_linear_1_341)"/>
<path fill-rule="evenodd" clip-rule="evenodd" d="M158.014 203.045L150.027 205.357C146.112 206.513 144.063 210.953 145.42 215.305C146.778 219.631 151.025 222.197 154.887 221.041L162.9 218.685C161.184 216.601 159.8 214.053 158.924 211.277C158.04 208.501 157.725 205.725 157.97 203.045" fill="#FDC90D"/>
<path fill-rule="evenodd" clip-rule="evenodd" d="M158.014 203.045L150.027 205.357C146.112 206.513 144.063 210.953 145.42 215.305C146.778 219.631 151.025 222.197 154.887 221.041L162.9 218.685C161.184 216.601 159.8 214.053 158.924 211.277C158.04 208.501 157.725 205.725 157.97 203.045" fill="url(#paint1_linear_1_341)"/>
<path fill-rule="evenodd" clip-rule="evenodd" d="M164.783 257.691C164.906 257.393 165.195 257.227 165.501 257.279C165.834 257.393 165.983 257.734 165.93 257.971L164.187 263.453C164.047 263.751 163.715 263.917 163.426 263.803C163.093 263.733 162.9 263.409 163.023 263.103L164.783 257.691Z" fill="#FDC90D"/>
<path fill-rule="evenodd" clip-rule="evenodd" d="M164.783 257.691C164.906 257.393 165.195 257.227 165.501 257.279C165.834 257.393 165.983 257.734 165.93 257.971L164.187 263.453C164.047 263.751 163.715 263.917 163.426 263.803C163.093 263.733 162.9 263.409 163.023 263.103L164.783 257.691Z" fill="url(#paint2_linear_1_341)"/>
<path fill-rule="evenodd" clip-rule="evenodd" d="M160.947 256.184C161.07 255.86 161.429 255.729 161.735 255.86C161.972 255.983 162.121 256.325 162.042 256.561L159.66 261.789C159.52 262.087 159.108 262.253 158.872 262.069C158.565 261.973 158.443 261.605 158.583 261.369L160.921 256.167" fill="#FDC90D"/>
<path fill-rule="evenodd" clip-rule="evenodd" d="M160.947 256.184C161.07 255.86 161.429 255.729 161.735 255.86C161.972 255.983 162.121 256.325 162.042 256.561L159.66 261.789C159.52 262.087 159.108 262.253 158.872 262.069C158.565 261.973 158.443 261.605 158.583 261.369L160.921 256.167" fill="url(#paint3_linear_1_341)"/>
<path fill-rule="evenodd" clip-rule="evenodd" d="M157.225 254.266C157.392 253.986 157.707 253.872 158.04 254.039C158.346 254.196 158.416 254.547 158.276 254.827L155.413 259.775C155.22 260.055 154.817 260.143 154.581 259.959C154.265 259.819 154.178 259.495 154.344 259.223L157.252 254.293" fill="#FDC90D"/>
<path fill-rule="evenodd" clip-rule="evenodd" d="M157.225 254.266C157.392 253.986 157.707 253.872 158.04 254.039C158.346 254.196 158.416 254.547 158.276 254.827L155.413 259.775C155.22 260.055 154.817 260.143 154.581 259.959C154.265 259.819 154.178 259.495 154.344 259.223L157.252 254.293" fill="url(#paint4_linear_1_341)"/>
<path fill-rule="evenodd" clip-rule="evenodd" d="M153.792 252.042C153.959 251.771 154.318 251.701 154.607 251.885C154.843 252.069 154.843 252.419 154.747 252.699L151.314 257.323C151.069 257.551 150.719 257.621 150.473 257.437C150.237 257.253 150.167 256.903 150.36 256.675L153.792 252.042Z" fill="#FDC90D"/>
<path fill-rule="evenodd" clip-rule="evenodd" d="M153.792 252.042C153.959 251.771 154.318 251.701 154.607 251.885C154.843 252.069 154.843 252.419 154.747 252.699L151.314 257.323C151.069 257.551 150.719 257.621 150.473 257.437C150.237 257.253 150.167 256.903 150.36 256.675L153.792 252.042Z" fill="url(#paint5_linear_1_341)"/>
<path fill-rule="evenodd" clip-rule="evenodd" d="M150.622 249.529C150.789 249.249 151.148 249.222 151.384 249.432C151.621 249.66 151.621 250.037 151.48 250.264L147.662 254.564C147.426 254.801 146.997 254.801 146.804 254.564C146.568 254.407 146.515 254.039 146.752 253.829L150.57 249.546" fill="#FDC90D"/>
<path fill-rule="evenodd" clip-rule="evenodd" d="M150.622 249.529C150.789 249.249 151.148 249.222 151.384 249.432C151.621 249.66 151.621 250.037 151.48 250.264L147.662 254.564C147.426 254.801 146.997 254.801 146.804 254.564C146.568 254.407 146.515 254.039 146.752 253.829L150.57 249.546" fill="url(#paint6_linear_1_341)"/>
<path fill-rule="evenodd" clip-rule="evenodd" d="M147.662 246.726C147.899 246.49 148.258 246.49 148.521 246.726C148.757 246.954 148.713 247.331 148.521 247.558L144.273 251.49C144.037 251.727 143.634 251.674 143.441 251.49C143.205 251.263 143.205 250.869 143.441 250.685L147.636 246.744" fill="#FDC90D"/>
<path fill-rule="evenodd" clip-rule="evenodd" d="M147.662 246.726C147.899 246.49 148.258 246.49 148.521 246.726C148.757 246.954 148.713 247.331 148.521 247.558L144.273 251.49C144.037 251.727 143.634 251.674 143.441 251.49C143.205 251.263 143.205 250.869 143.441 250.685L147.636 246.744" fill="url(#paint7_linear_1_341)"/>
<path fill-rule="evenodd" clip-rule="evenodd" d="M145.131 243.784C145.368 243.556 145.709 243.6 145.946 243.88C146.112 244.108 146.068 244.485 145.849 244.686L141.269 248.233C140.98 248.46 140.621 248.364 140.437 248.136C140.192 247.909 140.271 247.532 140.534 247.348L145.114 243.81" fill="#FDC90D"/>
<path fill-rule="evenodd" clip-rule="evenodd" d="M145.131 243.784C145.368 243.556 145.709 243.6 145.946 243.88C146.112 244.108 146.068 244.485 145.849 244.686L141.269 248.233C140.98 248.46 140.621 248.364 140.437 248.136C140.192 247.909 140.271 247.532 140.534 247.348L145.114 243.81" fill="url(#paint8_linear_1_341)"/>
<path fill-rule="evenodd" clip-rule="evenodd" d="M142.872 240.71C143.152 240.526 143.538 240.596 143.704 240.85C143.87 241.122 143.774 241.472 143.538 241.656L138.669 244.782C138.31 244.94 137.95 244.852 137.81 244.599C137.574 244.318 137.688 243.994 137.95 243.837L142.846 240.684" fill="#FDC90D"/>
<path fill-rule="evenodd" clip-rule="evenodd" d="M142.872 240.71C143.152 240.526 143.538 240.596 143.704 240.85C143.87 241.122 143.774 241.472 143.538 241.656L138.669 244.782C138.31 244.94 137.95 244.852 137.81 244.599C137.574 244.318 137.688 243.994 137.95 243.837L142.846 240.684" fill="url(#paint9_linear_1_341)"/>
<path fill-rule="evenodd" clip-rule="evenodd" d="M141.077 237.566C141.313 237.374 141.672 237.496 141.865 237.794C141.988 238.022 141.865 238.398 141.576 238.556L136.453 241.244C136.138 241.384 135.735 241.244 135.638 241.008C135.525 240.71 135.638 240.36 135.875 240.22L141.129 237.584" fill="#FDC90D"/>
<path fill-rule="evenodd" clip-rule="evenodd" d="M141.077 237.566C141.313 237.374 141.672 237.496 141.865 237.794C141.988 238.022 141.865 238.398 141.576 238.556L136.453 241.244C136.138 241.384 135.735 241.244 135.638 241.008C135.525 240.71 135.638 240.36 135.875 240.22L141.129 237.584" fill="url(#paint10_linear_1_341)"/>
<path fill-rule="evenodd" clip-rule="evenodd" d="M139.597 234.37C139.912 234.256 140.271 234.37 140.385 234.694C140.534 234.992 140.341 235.316 140.078 235.429L134.64 237.566C134.307 237.698 133.975 237.566 133.852 237.242C133.729 236.962 133.896 236.638 134.185 236.542L139.623 234.396" fill="#FDC90D"/>
<path fill-rule="evenodd" clip-rule="evenodd" d="M139.597 234.37C139.912 234.256 140.271 234.37 140.385 234.694C140.534 234.992 140.341 235.316 140.078 235.429L134.64 237.566C134.307 237.698 133.975 237.566 133.852 237.242C133.729 236.962 133.896 236.638 134.185 236.542L139.623 234.396" fill="url(#paint11_linear_1_341)"/>
<path fill-rule="evenodd" clip-rule="evenodd" d="M138.598 231.296C138.931 231.174 139.22 231.357 139.317 231.681C139.413 231.988 139.194 232.286 138.905 232.382L133.23 233.906C132.924 233.976 132.591 233.792 132.512 233.494C132.442 233.188 132.635 232.89 132.924 232.794L138.555 231.296" fill="#FDC90D"/>
<path fill-rule="evenodd" clip-rule="evenodd" d="M138.598 231.296C138.931 231.174 139.22 231.357 139.317 231.681C139.413 231.988 139.194 232.286 138.905 232.382L133.23 233.906C132.924 233.976 132.591 233.792 132.512 233.494C132.442 233.188 132.635 232.89 132.924 232.794L138.555 231.296" fill="url(#paint12_linear_1_341)"/>
<path fill-rule="evenodd" clip-rule="evenodd" d="M138.029 228.31C138.336 228.24 138.642 228.467 138.695 228.774C138.739 229.098 138.528 229.369 138.213 229.413L132.425 230.254C132.065 230.254 131.75 230.017 131.706 229.746C131.654 229.439 131.943 229.142 132.232 229.115L138.029 228.31Z" fill="#FDC90D"/>
<path fill-rule="evenodd" clip-rule="evenodd" d="M138.029 228.31C138.336 228.24 138.642 228.467 138.695 228.774C138.739 229.098 138.528 229.369 138.213 229.413L132.425 230.254C132.065 230.254 131.75 230.017 131.706 229.746C131.654 229.439 131.943 229.142 132.232 229.115L138.029 228.31Z" fill="url(#paint13_linear_1_341)"/>
<path fill-rule="evenodd" clip-rule="evenodd" d="M137.907 225.507C138.239 225.507 138.502 225.735 138.528 226.059C138.528 226.409 138.213 226.637 137.907 226.663H132.039C131.706 226.663 131.47 226.366 131.47 226.059C131.47 225.735 131.75 225.507 132.065 225.507H137.95" fill="#FDC90D"/>
<path fill-rule="evenodd" clip-rule="evenodd" d="M137.907 225.507C138.239 225.507 138.502 225.735 138.528 226.059C138.528 226.409 138.213 226.637 137.907 226.663H132.039C131.706 226.663 131.47 226.366 131.47 226.059C131.47 225.735 131.75 225.507 132.065 225.507H137.95" fill="url(#paint14_linear_1_341)"/>
<path fill-rule="evenodd" clip-rule="evenodd" d="M138.213 222.959C138.572 223.011 138.765 223.309 138.695 223.659C138.695 223.931 138.309 224.115 138.029 224.071L132.302 223.099C131.943 223.029 131.733 222.705 131.82 222.407C131.82 222.109 132.162 221.943 132.468 221.943L138.213 222.959Z" fill="#FDC90D"/>
<path fill-rule="evenodd" clip-rule="evenodd" d="M138.213 222.959C138.572 223.011 138.765 223.309 138.695 223.659C138.695 223.931 138.309 224.115 138.029 224.071L132.302 223.099C131.943 223.029 131.733 222.705 131.82 222.407C131.82 222.109 132.162 221.943 132.468 221.943L138.213 222.959Z" fill="url(#paint15_linear_1_341)"/>
<path fill-rule="evenodd" clip-rule="evenodd" d="M138.984 220.717C139.317 220.831 139.457 221.181 139.334 221.461C139.194 221.759 138.861 221.873 138.572 221.785L133.09 219.701C132.801 219.587 132.661 219.237 132.775 219.009C132.897 218.685 133.256 218.545 133.545 218.659L138.984 220.717Z" fill="#FDC90D"/>
<path fill-rule="evenodd" clip-rule="evenodd" d="M138.984 220.717C139.317 220.831 139.457 221.181 139.334 221.461C139.194 221.759 138.861 221.873 138.572 221.785L133.09 219.701C132.801 219.587 132.661 219.237 132.775 219.009C132.897 218.685 133.256 218.545 133.545 218.659L138.984 220.717Z" fill="url(#paint16_linear_1_341)"/>
<path fill-rule="evenodd" clip-rule="evenodd" d="M140.192 218.817C140.481 218.983 140.508 219.351 140.341 219.605C140.105 219.841 139.763 219.911 139.483 219.771L134.64 216.531C134.404 216.365 134.307 215.997 134.491 215.743C134.666 215.515 135.043 215.445 135.306 215.603L140.192 218.817Z" fill="#FDC90D"/>
<path fill-rule="evenodd" clip-rule="evenodd" d="M140.192 218.817C140.481 218.983 140.508 219.351 140.341 219.605C140.105 219.841 139.763 219.911 139.483 219.771L134.64 216.531C134.404 216.365 134.307 215.997 134.491 215.743C134.666 215.515 135.043 215.445 135.306 215.603L140.192 218.817Z" fill="url(#paint17_linear_1_341)"/>
<path fill-rule="evenodd" clip-rule="evenodd" d="M141.795 217.197C142.031 217.433 141.988 217.783 141.742 218.011C141.506 218.239 141.147 218.195 140.91 217.967L136.926 213.799C136.689 213.571 136.759 213.221 136.978 213.011C137.215 212.783 137.574 212.827 137.767 213.011L141.821 217.223" fill="#FDC90D"/>
<path fill-rule="evenodd" clip-rule="evenodd" d="M141.795 217.197C142.031 217.433 141.988 217.783 141.742 218.011C141.506 218.239 141.147 218.195 140.91 217.967L136.926 213.799C136.689 213.571 136.759 213.221 136.978 213.011C137.215 212.783 137.574 212.827 137.767 213.011L141.821 217.223" fill="url(#paint18_linear_1_341)"/>
<path fill-rule="evenodd" clip-rule="evenodd" d="M143.87 215.857C144.063 216.163 143.94 216.487 143.678 216.671C143.319 216.811 142.96 216.715 142.846 216.435L139.886 211.513C139.746 211.207 139.886 210.883 140.122 210.699C140.411 210.559 140.77 210.699 140.91 210.935L143.87 215.857Z" fill="#FDC90D"/>
<path fill-rule="evenodd" clip-rule="evenodd" d="M143.87 215.857C144.063 216.163 143.94 216.487 143.678 216.671C143.319 216.811 142.96 216.715 142.846 216.435L139.886 211.513C139.746 211.207 139.886 210.883 140.122 210.699C140.411 210.559 140.77 210.699 140.91 210.935L143.87 215.857Z" fill="url(#paint19_linear_1_341)"/>
<path fill-rule="evenodd" clip-rule="evenodd" d="M146.568 214.841C146.682 215.139 146.471 215.445 146.182 215.533C145.876 215.673 145.561 215.489 145.464 215.209L143.555 209.797C143.485 209.473 143.652 209.175 143.967 209.052C144.273 208.965 144.606 209.149 144.685 209.429L146.585 214.841" fill="#FDC90D"/>
<path fill-rule="evenodd" clip-rule="evenodd" d="M146.568 214.841C146.682 215.139 146.471 215.445 146.182 215.533C145.876 215.673 145.561 215.489 145.464 215.209L143.555 209.797C143.485 209.473 143.652 209.175 143.967 209.052C144.273 208.965 144.606 209.149 144.685 209.429L146.585 214.841" fill="url(#paint20_linear_1_341)"/>
<path fill-rule="evenodd" clip-rule="evenodd" d="M185.205 295.452C184.969 295.733 184.61 295.75 184.347 295.522C184.154 295.295 184.181 294.944 184.347 294.734L188.402 290.575C188.638 290.382 189.067 290.382 189.216 290.618C189.496 290.802 189.496 291.196 189.216 291.407L185.205 295.452Z" fill="#FDC90D"/>
<path fill-rule="evenodd" clip-rule="evenodd" d="M185.205 295.452C184.969 295.733 184.61 295.75 184.347 295.522C184.154 295.295 184.181 294.944 184.347 294.734L188.402 290.575C188.638 290.382 189.067 290.382 189.216 290.618C189.496 290.802 189.496 291.196 189.216 291.407L185.205 295.452Z" fill="url(#paint21_linear_1_341)"/>
<path fill-rule="evenodd" clip-rule="evenodd" d="M187.972 298.526C187.736 298.763 187.351 298.719 187.114 298.465C186.948 298.229 187.044 297.887 187.237 297.677L191.764 294.113C192.053 293.876 192.483 293.972 192.596 294.2C192.833 294.437 192.789 294.804 192.526 294.988L187.999 298.526" fill="#FDC90D"/>
<path fill-rule="evenodd" clip-rule="evenodd" d="M187.972 298.526C187.736 298.763 187.351 298.719 187.114 298.465C186.948 298.229 187.044 297.887 187.237 297.677L191.764 294.113C192.053 293.876 192.483 293.972 192.596 294.2C192.833 294.437 192.789 294.804 192.526 294.988L187.999 298.526" fill="url(#paint22_linear_1_341)"/>
<path fill-rule="evenodd" clip-rule="evenodd" d="M189.908 301.399C189.663 301.583 189.304 301.513 189.093 301.241C188.953 300.961 189.093 300.611 189.33 300.453L194.339 297.537C194.654 297.37 195.057 297.493 195.127 297.764C195.364 298.045 195.25 298.369 194.961 298.553L189.908 301.399Z" fill="#FDC90D"/>
<path fill-rule="evenodd" clip-rule="evenodd" d="M189.908 301.399C189.663 301.583 189.304 301.513 189.093 301.241C188.953 300.961 189.093 300.611 189.33 300.453L194.339 297.537C194.654 297.37 195.057 297.493 195.127 297.764C195.364 298.045 195.25 298.369 194.961 298.553L189.908 301.399Z" fill="url(#paint23_linear_1_341)"/>
<path fill-rule="evenodd" clip-rule="evenodd" d="M191.239 304.245C190.95 304.359 190.6 304.245 190.477 303.921C190.407 303.641 190.573 303.299 190.81 303.185L196.248 301.057C196.581 300.935 196.966 301.101 197.01 301.372C197.176 301.679 197.01 302.003 196.704 302.117L191.292 304.201" fill="#FDC90D"/>
<path fill-rule="evenodd" clip-rule="evenodd" d="M191.239 304.245C190.95 304.359 190.6 304.245 190.477 303.921C190.407 303.641 190.573 303.299 190.81 303.185L196.248 301.057C196.581 300.935 196.966 301.101 197.01 301.372C197.176 301.679 197.01 302.003 196.704 302.117L191.292 304.201" fill="url(#paint24_linear_1_341)"/>
<path fill-rule="evenodd" clip-rule="evenodd" d="M192.027 306.933C191.721 307.003 191.432 306.837 191.309 306.513C191.239 306.215 191.475 305.935 191.738 305.821L197.465 304.543C197.798 304.499 198.131 304.709 198.184 305.007C198.28 305.331 198.061 305.611 197.702 305.707L192.027 306.933Z" fill="#FDC90D"/>
<path fill-rule="evenodd" clip-rule="evenodd" d="M192.027 306.933C191.721 307.003 191.432 306.837 191.309 306.513C191.239 306.215 191.475 305.935 191.738 305.821L197.465 304.543C197.798 304.499 198.131 304.709 198.184 305.007C198.28 305.331 198.061 305.611 197.702 305.707L192.027 306.933Z" fill="url(#paint25_linear_1_341)"/>
<path fill-rule="evenodd" clip-rule="evenodd" d="M192.316 309.525C191.975 309.569 191.721 309.333 191.668 309.009C191.668 308.685 191.957 308.431 192.237 308.413L198.105 308.063C198.446 308.063 198.727 308.291 198.709 308.615C198.779 308.921 198.516 309.149 198.184 309.175L192.334 309.499" fill="#FDC90D"/>
<path fill-rule="evenodd" clip-rule="evenodd" d="M192.316 309.525C191.975 309.569 191.721 309.333 191.668 309.009C191.668 308.685 191.957 308.431 192.237 308.413L198.105 308.063C198.446 308.063 198.727 308.291 198.709 308.615C198.779 308.921 198.516 309.149 198.184 309.175L192.334 309.499" fill="url(#paint26_linear_1_341)"/>
<path fill-rule="evenodd" clip-rule="evenodd" d="M192.123 311.978C191.834 311.978 191.598 311.697 191.642 311.347C191.642 311.067 191.975 310.883 192.263 310.883L198.105 311.461C198.464 311.461 198.709 311.811 198.63 312.091C198.63 312.389 198.324 312.626 198.017 312.556L192.167 311.951" fill="#FDC90D"/>
<path fill-rule="evenodd" clip-rule="evenodd" d="M192.123 311.978C191.834 311.978 191.598 311.697 191.642 311.347C191.642 311.067 191.975 310.883 192.263 310.883L198.105 311.461C198.464 311.461 198.709 311.811 198.63 312.091C198.63 312.389 198.324 312.626 198.017 312.556L192.167 311.951" fill="url(#paint27_linear_1_341)"/>
<path fill-rule="evenodd" clip-rule="evenodd" d="M191.642 314.307C191.265 314.219 191.116 313.922 191.169 313.615C191.265 313.291 191.642 313.151 191.887 313.204L197.562 314.701C197.868 314.797 198.087 315.121 197.938 315.402C197.895 315.726 197.562 315.857 197.229 315.813L191.624 314.307" fill="#FDC90D"/>
<path fill-rule="evenodd" clip-rule="evenodd" d="M191.642 314.307C191.265 314.219 191.116 313.922 191.169 313.615C191.265 313.291 191.642 313.151 191.887 313.204L197.562 314.701C197.868 314.797 198.087 315.121 197.938 315.402C197.895 315.726 197.562 315.857 197.229 315.813L191.624 314.307" fill="url(#paint28_linear_1_341)"/>
<path fill-rule="evenodd" clip-rule="evenodd" d="M190.687 316.435C190.451 316.347 190.284 315.98 190.451 315.699C190.547 315.419 190.932 315.332 191.169 315.419L196.537 317.731C196.844 317.898 196.966 318.265 196.817 318.519C196.704 318.826 196.345 318.913 196.029 318.8L190.714 316.418" fill="#FDC90D"/>
<path fill-rule="evenodd" clip-rule="evenodd" d="M190.687 316.435C190.451 316.347 190.284 315.98 190.451 315.699C190.547 315.419 190.932 315.332 191.169 315.419L196.537 317.731C196.844 317.898 196.966 318.265 196.817 318.519C196.704 318.826 196.345 318.913 196.029 318.8L190.714 316.418" fill="url(#paint29_linear_1_341)"/>
<path fill-rule="evenodd" clip-rule="evenodd" d="M189.496 318.405C189.216 318.248 189.137 317.898 189.304 317.617C189.496 317.346 189.881 317.32 190.144 317.46L195.031 320.577C195.32 320.814 195.39 321.155 195.197 321.392C195.005 321.672 194.628 321.733 194.392 321.549L189.479 318.432" fill="#FDC90D"/>
<path fill-rule="evenodd" clip-rule="evenodd" d="M189.496 318.405C189.216 318.248 189.137 317.898 189.304 317.617C189.496 317.346 189.881 317.32 190.144 317.46L195.031 320.577C195.32 320.814 195.39 321.155 195.197 321.392C195.005 321.672 194.628 321.733 194.392 321.549L189.479 318.432" fill="url(#paint30_linear_1_341)"/>
<path fill-rule="evenodd" clip-rule="evenodd" d="M188.016 320.14C187.736 319.912 187.736 319.588 187.946 319.334C188.183 319.097 188.542 319.097 188.778 319.334L193.148 323.082C193.385 323.31 193.437 323.704 193.192 323.888C192.955 324.124 192.596 324.124 192.386 323.888L188.043 320.122" fill="#FDC90D"/>
<path fill-rule="evenodd" clip-rule="evenodd" d="M188.016 320.14C187.736 319.912 187.736 319.588 187.946 319.334C188.183 319.097 188.542 319.097 188.778 319.334L193.148 323.082C193.385 323.31 193.437 323.704 193.192 323.888C192.955 324.124 192.596 324.124 192.386 323.888L188.043 320.122" fill="url(#paint31_linear_1_341)"/>
<path fill-rule="evenodd" clip-rule="evenodd" d="M186.282 321.602C186.037 321.366 186.107 321.041 186.37 320.814C186.615 320.63 186.948 320.7 187.158 320.928L190.88 325.324C191.073 325.552 191.029 325.946 190.766 326.138C190.521 326.366 190.162 326.27 189.978 326.042L186.23 321.646" fill="#FDC90D"/>
<path fill-rule="evenodd" clip-rule="evenodd" d="M186.282 321.602C186.037 321.366 186.107 321.041 186.37 320.814C186.615 320.63 186.948 320.7 187.158 320.928L190.88 325.324C191.073 325.552 191.029 325.946 190.766 326.138C190.521 326.366 190.162 326.27 189.978 326.042L186.23 321.646" fill="url(#paint32_linear_1_341)"/>
<path fill-rule="evenodd" clip-rule="evenodd" d="M184.347 322.845C184.181 322.548 184.277 322.224 184.583 322.04C184.872 321.856 185.205 321.97 185.372 322.267L188.375 327.128C188.542 327.408 188.428 327.776 188.139 327.89C187.85 328.074 187.517 327.96 187.351 327.706L184.347 322.845Z" fill="#FDC90D"/>
<path fill-rule="evenodd" clip-rule="evenodd" d="M184.347 322.845C184.181 322.548 184.277 322.224 184.583 322.04C184.872 321.856 185.205 321.97 185.372 322.267L188.375 327.128C188.542 327.408 188.428 327.776 188.139 327.89C187.85 328.074 187.517 327.96 187.351 327.706L184.347 322.845Z" fill="url(#paint33_linear_1_341)"/>
<path fill-rule="evenodd" clip-rule="evenodd" d="M182.298 323.73C182.149 323.45 182.298 323.099 182.604 322.986C182.963 322.845 183.27 323.038 183.392 323.31L185.538 328.59C185.678 328.888 185.538 329.238 185.231 329.326C184.942 329.466 184.61 329.326 184.513 329.046L182.298 323.73Z" fill="#FDC90D"/>
<path fill-rule="evenodd" clip-rule="evenodd" d="M182.298 323.73C182.149 323.45 182.298 323.099 182.604 322.986C182.963 322.845 183.27 323.038 183.392 323.31L185.538 328.59C185.678 328.888 185.538 329.238 185.231 329.326C184.942 329.466 184.61 329.326 184.513 329.046L182.298 323.73Z" fill="url(#paint34_linear_1_341)"/>
<path fill-rule="evenodd" clip-rule="evenodd" d="M180.126 324.282C180.003 323.958 180.222 323.66 180.555 323.59C180.862 323.546 181.151 323.73 181.221 324.054L182.508 329.606C182.578 329.93 182.342 330.21 182.035 330.298C181.746 330.342 181.457 330.14 181.361 329.834L180.126 324.282Z" fill="#FDC90D"/>
<path fill-rule="evenodd" clip-rule="evenodd" d="M180.126 324.282C180.003 323.958 180.222 323.66 180.555 323.59C180.862 323.546 181.151 323.73 181.221 324.054L182.508 329.606C182.578 329.93 182.342 330.21 182.035 330.298C181.746 330.342 181.457 330.14 181.361 329.834L180.126 324.282Z" fill="url(#paint35_linear_1_341)"/>
<path fill-rule="evenodd" clip-rule="evenodd" d="M177.858 324.466C177.814 324.142 178.05 323.888 178.409 323.87C178.742 323.87 178.979 324.098 179.005 324.422L179.294 330.088C179.294 330.438 179.049 330.718 178.742 330.718C178.383 330.718 178.12 330.438 178.12 330.184L177.831 324.492" fill="#FDC90D"/>
<path fill-rule="evenodd" clip-rule="evenodd" d="M177.858 324.466C177.814 324.142 178.05 323.888 178.409 323.87C178.742 323.87 178.979 324.098 179.005 324.422L179.294 330.088C179.294 330.438 179.049 330.718 178.742 330.718C178.383 330.718 178.12 330.438 178.12 330.184L177.831 324.492" fill="url(#paint36_linear_1_341)"/>
<path fill-rule="evenodd" clip-rule="evenodd" d="M175.572 324.282C175.572 323.931 175.879 323.774 176.211 323.818C176.57 323.818 176.737 324.124 176.693 324.448L175.975 330.044C175.922 330.394 175.616 330.622 175.327 330.578C174.994 330.578 174.784 330.228 174.801 329.957L175.572 324.308" fill="#FDC90D"/>
<path fill-rule="evenodd" clip-rule="evenodd" d="M175.572 324.282C175.572 323.931 175.879 323.774 176.211 323.818C176.57 323.818 176.737 324.124 176.693 324.448L175.975 330.044C175.922 330.394 175.616 330.622 175.327 330.578C174.994 330.578 174.784 330.228 174.801 329.957L175.572 324.308" fill="url(#paint37_linear_1_341)"/>
<path fill-rule="evenodd" clip-rule="evenodd" d="M173.278 323.677C173.33 323.38 173.663 323.222 173.996 323.31C174.285 323.406 174.425 323.73 174.328 324.001L172.612 329.422C172.542 329.79 172.13 329.93 171.894 329.834C171.561 329.746 171.421 329.422 171.491 329.142L173.278 323.677Z" fill="#FDC90D"/>
<path fill-rule="evenodd" clip-rule="evenodd" d="M173.278 323.677C173.33 323.38 173.663 323.222 173.996 323.31C174.285 323.406 174.425 323.73 174.328 324.001L172.612 329.422C172.542 329.79 172.13 329.93 171.894 329.834C171.561 329.746 171.421 329.422 171.491 329.142L173.278 323.677Z" fill="url(#paint38_linear_1_341)"/>
<path fill-rule="evenodd" clip-rule="evenodd" d="M170.896 322.662C171.036 322.32 171.421 322.267 171.701 322.39C172.017 322.548 172.087 322.845 171.947 323.169L169.276 328.214C169.109 328.52 168.794 328.634 168.461 328.45C168.172 328.354 168.102 327.986 168.225 327.75L170.896 322.662Z" fill="#FDC90D"/>
<path fill-rule="evenodd" clip-rule="evenodd" d="M170.896 322.662C171.036 322.32 171.421 322.267 171.701 322.39C172.017 322.548 172.087 322.845 171.947 323.169L169.276 328.214C169.109 328.52 168.794 328.634 168.461 328.45C168.172 328.354 168.102 327.986 168.225 327.75L170.896 322.662Z" fill="url(#paint39_linear_1_341)"/>
<path fill-rule="evenodd" clip-rule="evenodd" d="M127.004 319.745L129.149 323.17L139.316 322.198L146.042 320.647L147.662 317.18L144.08 308.159L134.491 304.061L125.979 309.079L126.986 319.728L127.004 319.745ZM127.914 327.846C127.1 327.846 126.338 327.426 125.935 326.734L122.739 321.646C122.546 321.366 122.45 321.042 122.424 320.718L121.233 308.107C121.162 307.257 121.592 306.417 122.353 305.979L133.134 299.621C133.782 299.227 134.57 299.157 135.279 299.481L146.9 304.429C147.47 304.665 147.899 305.121 148.135 305.707L152.382 316.435C152.575 316.996 152.549 317.6 152.312 318.152L149.834 323.564C149.545 324.194 148.95 324.676 148.231 324.842L140.052 326.646L128.125 327.802H127.888L127.914 327.846Z" fill="#FDC90D"/>
<path fill-rule="evenodd" clip-rule="evenodd" d="M127.004 319.745L129.149 323.17L139.316 322.198L146.042 320.647L147.662 317.18L144.08 308.159L134.491 304.061L125.979 309.079L126.986 319.728L127.004 319.745ZM127.914 327.846C127.1 327.846 126.338 327.426 125.935 326.734L122.739 321.646C122.546 321.366 122.45 321.042 122.424 320.718L121.233 308.107C121.162 307.257 121.592 306.417 122.353 305.979L133.134 299.621C133.782 299.227 134.57 299.157 135.279 299.481L146.9 304.429C147.47 304.665 147.899 305.121 148.135 305.707L152.382 316.435C152.575 316.996 152.549 317.6 152.312 318.152L149.834 323.564C149.545 324.194 148.95 324.676 148.231 324.842L140.052 326.646L128.125 327.802H127.888L127.914 327.846Z" fill="url(#paint40_linear_1_341)"/>
<path fill-rule="evenodd" clip-rule="evenodd" d="M129.535 304.315L124.14 253.04C124.14 253.04 137.88 251.35 141.795 252.305V305.059" fill="#FDC90D"/>
<path fill-rule="evenodd" clip-rule="evenodd" d="M129.535 304.315L124.14 253.04C124.14 253.04 137.88 251.35 141.795 252.305V305.059" fill="url(#paint41_linear_1_341)"/>
<path fill-rule="evenodd" clip-rule="evenodd" d="M165.79 333.398C160.685 333.398 156.341 330.666 155.772 330.272L154.099 329.168L152.838 321.479L151.165 321.252L152.549 312.302L161 313.545L162.62 323.616C164.047 324.194 165.913 324.649 167.147 324.071C168.487 323.476 169.538 321.462 170.204 318.432L165.238 313.983L164.713 307.739C164.617 306.583 164.144 297.002 170.396 290.899C172.726 288.578 176.956 285.898 183.918 286.266L185.538 286.31L186.781 287.378C186.878 287.492 198.797 297.51 211.775 296.818C224.894 296.17 235.394 293.421 237.128 292.886L285.696 271.597L289.584 279.812L240.088 301.495C239.615 301.653 227.731 305.059 212.23 305.839C198.394 306.539 186.063 298.342 182.035 295.295C179.889 295.409 178.217 296.057 177.026 297.239C174.162 300.015 173.873 305.401 173.969 307.065L174.206 309.779L180.056 315.051L179.767 317.363C178.856 325.114 175.905 330.158 171.062 332.356C169.293 333.118 167.533 333.442 165.816 333.442" fill="#FDC90D"/>
<path fill-rule="evenodd" clip-rule="evenodd" d="M165.79 333.398C160.685 333.398 156.341 330.666 155.772 330.272L154.099 329.168L152.838 321.479L151.165 321.252L152.549 312.302L161 313.545L162.62 323.616C164.047 324.194 165.913 324.649 167.147 324.071C168.487 323.476 169.538 321.462 170.204 318.432L165.238 313.983L164.713 307.739C164.617 306.583 164.144 297.002 170.396 290.899C172.726 288.578 176.956 285.898 183.918 286.266L185.538 286.31L186.781 287.378C186.878 287.492 198.797 297.51 211.775 296.818C224.894 296.17 235.394 293.421 237.128 292.886L285.696 271.597L289.584 279.812L240.088 301.495C239.615 301.653 227.731 305.059 212.23 305.839C198.394 306.539 186.063 298.342 182.035 295.295C179.889 295.409 178.217 296.057 177.026 297.239C174.162 300.015 173.873 305.401 173.969 307.065L174.206 309.779L180.056 315.051L179.767 317.363C178.856 325.114 175.905 330.158 171.062 332.356C169.293 333.118 167.533 333.442 165.816 333.442" fill="url(#paint42_linear_1_341)"/>
<path fill-rule="evenodd" clip-rule="evenodd" d="M488.911 142.19L468.401 158.776C447.05 175.371 435.964 156.928 435.964 156.928L420.84 152.366L328.721 244.362C328.721 244.362 384.181 241.122 402.186 220.235C402.186 220.235 414.42 208.895 420.244 181.756C420.244 181.756 442.733 179.487 447.436 179.487C488.884 179.487 494.708 162.507 494.708 162.507L488.884 142.146" fill="#FDC90D"/>
<path fill-rule="evenodd" clip-rule="evenodd" d="M488.911 142.19L468.401 158.776C447.05 175.371 435.964 156.928 435.964 156.928L420.84 152.366L328.721 244.362C328.721 244.362 384.181 241.122 402.186 220.235C402.186 220.235 414.42 208.895 420.244 181.756C420.244 181.756 442.733 179.487 447.436 179.487C488.884 179.487 494.708 162.507 494.708 162.507L488.884 142.146" fill="url(#paint43_linear_1_341)"/>
<path fill-rule="evenodd" clip-rule="evenodd" d="M256.692 338.416C244.834 338.416 229.78 336.866 220.48 330.088C203.858 317.968 195.057 298.325 194.672 297.467L198.963 295.689C199.042 295.917 207.65 315.122 223.247 326.462C238.564 337.61 273.506 332.846 273.882 332.794L274.53 337.286C273.812 337.383 266.298 338.442 256.639 338.442" fill="#FDC90D"/>
<path fill-rule="evenodd" clip-rule="evenodd" d="M256.692 338.416C244.834 338.416 229.78 336.866 220.48 330.088C203.858 317.968 195.057 298.325 194.672 297.467L198.963 295.689C199.042 295.917 207.65 315.122 223.247 326.462C238.564 337.61 273.506 332.846 273.882 332.794L274.53 337.286C273.812 337.383 266.298 338.442 256.639 338.442" fill="url(#paint44_linear_1_341)"/>
<path fill-rule="evenodd" clip-rule="evenodd" d="M263.102 338.162C263.102 338.162 271.334 323.169 284.093 336.174C296.905 349.179 263.102 338.162 263.102 338.162Z" fill="#FDC90D"/>
<path fill-rule="evenodd" clip-rule="evenodd" d="M263.102 338.162C263.102 338.162 271.334 323.169 284.093 336.174C296.905 349.179 263.102 338.162 263.102 338.162Z" fill="url(#paint45_linear_1_341)"/>
<path fill-rule="evenodd" clip-rule="evenodd" d="M270.931 212.687C270.931 212.687 283.471 218.151 286.431 228.143L270.931 212.687Z" fill="#FDC90D"/>
<path fill-rule="evenodd" clip-rule="evenodd" d="M270.931 212.687C270.931 212.687 283.471 218.151 286.431 228.143L270.931 212.687Z" fill="url(#paint46_linear_1_341)"/>
<path fill-rule="evenodd" clip-rule="evenodd" d="M509.21 74.4866L507.774 67.9361L502.055 71.6843C481.782 84.8729 456.972 99.3838 452.252 99.7516C444.02 99.7516 422.004 101.372 421.05 101.468L420.41 101.556C405.427 104.892 397.151 110.278 395.128 118.081C393.052 126.059 398.657 133.073 401.661 136.13C400.803 154.17 388.306 169.557 384.365 173.953C365.449 175.415 355.151 188.691 351.096 195.408C314.77 184.068 276.912 204.017 269.644 208.133H234.868L234.264 208.177C232.6 208.36 194.199 213.265 174.451 223.747C160.711 231.033 157.112 244.432 156.323 253.645C149.712 249.529 139.693 244.852 129.438 246.078C121.092 247.051 114.052 251.561 108.569 259.495C105.609 263.891 101.345 277.544 104.515 290.916C106.853 300.707 112.817 308.571 121.758 313.659L126.461 305.795C119.683 301.977 115.391 296.267 113.649 288.858C111.1 278.262 114.559 267.157 116.372 264.521C120.304 258.803 124.911 255.729 130.533 255.028C143.73 253.478 157.847 265.975 158.014 266.089L167.55 274.654L165.79 262.157C165.79 261.929 162.83 240.176 178.909 231.681C196.274 222.477 231.619 217.617 235.201 217.153H272.262L273.409 216.461C273.812 216.181 315.392 191.468 351.691 205.12L355.869 206.697L357.655 202.694C358.014 201.906 366.386 183.49 386.677 182.798L388.542 182.745L389.83 181.432C390.688 180.573 410.935 160.029 410.935 134.186V132.101L409.341 130.761C407.957 129.597 403.018 124.351 404.095 120.209C404.691 117.897 407.835 113.588 422.101 110.374C424.964 110.138 444.905 108.754 452.226 108.754C458.233 108.754 475.766 98.7621 490.504 89.6894C485.784 94.6899 478.699 101.092 468.085 109.078C466.824 110.007 466.01 110.602 465.703 110.786L463.435 112.502L464.153 117.704L466.606 118.729C468.445 119.421 469.565 119.193 471.378 118.028C472.044 117.573 472.814 116.969 473.769 116.251C509.306 89.6456 509.849 77.543 509.21 74.4604" fill="#FDC90D"/>
<path fill-rule="evenodd" clip-rule="evenodd" d="M509.21 74.4866L507.774 67.9361L502.055 71.6843C481.782 84.8729 456.972 99.3838 452.252 99.7516C444.02 99.7516 422.004 101.372 421.05 101.468L420.41 101.556C405.427 104.892 397.151 110.278 395.128 118.081C393.052 126.059 398.657 133.073 401.661 136.13C400.803 154.17 388.306 169.557 384.365 173.953C365.449 175.415 355.151 188.691 351.096 195.408C314.77 184.068 276.912 204.017 269.644 208.133H234.868L234.264 208.177C232.6 208.36 194.199 213.265 174.451 223.747C160.711 231.033 157.112 244.432 156.323 253.645C149.712 249.529 139.693 244.852 129.438 246.078C121.092 247.051 114.052 251.561 108.569 259.495C105.609 263.891 101.345 277.544 104.515 290.916C106.853 300.707 112.817 308.571 121.758 313.659L126.461 305.795C119.683 301.977 115.391 296.267 113.649 288.858C111.1 278.262 114.559 267.157 116.372 264.521C120.304 258.803 124.911 255.729 130.533 255.028C143.73 253.478 157.847 265.975 158.014 266.089L167.55 274.654L165.79 262.157C165.79 261.929 162.83 240.176 178.909 231.681C196.274 222.477 231.619 217.617 235.201 217.153H272.262L273.409 216.461C273.812 216.181 315.392 191.468 351.691 205.12L355.869 206.697L357.655 202.694C358.014 201.906 366.386 183.49 386.677 182.798L388.542 182.745L389.83 181.432C390.688 180.573 410.935 160.029 410.935 134.186V132.101L409.341 130.761C407.957 129.597 403.018 124.351 404.095 120.209C404.691 117.897 407.835 113.588 422.101 110.374C424.964 110.138 444.905 108.754 452.226 108.754C458.233 108.754 475.766 98.7621 490.504 89.6894C485.784 94.6899 478.699 101.092 468.085 109.078C466.824 110.007 466.01 110.602 465.703 110.786L463.435 112.502L464.153 117.704L466.606 118.729C468.445 119.421 469.565 119.193 471.378 118.028C472.044 117.573 472.814 116.969 473.769 116.251C509.306 89.6456 509.849 77.543 509.21 74.4604" fill="url(#paint47_linear_1_341)"/>
<path fill-rule="evenodd" clip-rule="evenodd" d="M308.159 260.511L302.913 253.04L319.657 242.024C351.954 229.763 370.8 215.139 373.129 213.265L402.659 179.768L427.565 121.733L432.574 119.955C437.154 119.534 442.899 116.531 446.647 114.56C449.266 113.177 450.895 112.336 452.445 112.082L468.567 109.428L470.161 118.335L454.012 120.997C453.829 121.085 452.349 121.916 451.079 122.521C446.884 124.719 440.684 127.985 434.624 128.835L410.226 185.066L379.452 219.859C378.664 220.559 359.249 236.594 323.545 250.264L308.159 260.449" fill="#FDC90D"/>
<path fill-rule="evenodd" clip-rule="evenodd" d="M308.159 260.511L302.913 253.04L319.657 242.024C351.954 229.763 370.8 215.139 373.129 213.265L402.659 179.768L427.565 121.733L432.574 119.955C437.154 119.534 442.899 116.531 446.647 114.56C449.266 113.177 450.895 112.336 452.445 112.082L468.567 109.428L470.161 118.335L454.012 120.997C453.829 121.085 452.349 121.916 451.079 122.521C446.884 124.719 440.684 127.985 434.624 128.835L410.226 185.066L379.452 219.859C378.664 220.559 359.249 236.594 323.545 250.264L308.159 260.449" fill="url(#paint48_linear_1_341)"/>
<path fill-rule="evenodd" clip-rule="evenodd" d="M364.81 306.215C364.81 336.411 343.1 323.931 343.1 323.931L331.418 311.908C331.418 311.908 290.819 280.276 281.256 279.392C260.86 277.587 232.766 258.663 215.094 265.879C213.561 266.527 212.108 267.087 210.68 267.569C176.001 279.786 172.393 256.097 172.393 256.097C172.393 256.097 169.293 231.988 216.644 231.226C263.96 230.438 309.709 256.815 309.709 256.815L338.433 300.541C338.433 300.541 349.309 301.697 352.41 309.981C352.41 309.981 364.81 299.411 364.81 306.215Z" fill="#FDC90D"/>
<path fill-rule="evenodd" clip-rule="evenodd" d="M364.81 306.215C364.81 336.411 343.1 323.931 343.1 323.931L331.418 311.908C331.418 311.908 290.819 280.276 281.256 279.392C260.86 277.587 232.766 258.663 215.094 265.879C213.561 266.527 212.108 267.087 210.68 267.569C176.001 279.786 172.393 256.097 172.393 256.097C172.393 256.097 169.293 231.988 216.644 231.226C263.96 230.438 309.709 256.815 309.709 256.815L338.433 300.541C338.433 300.541 349.309 301.697 352.41 309.981C352.41 309.981 364.81 299.411 364.81 306.215Z" fill="url(#paint49_linear_1_341)"/>
<path fill-rule="evenodd" clip-rule="evenodd" d="M505.891 77.6568C505.891 77.6568 461.649 106.512 453.539 106.512C445.36 106.512 422.696 108.202 422.696 108.202C384.295 116.688 407.555 136.471 407.555 136.471C407.555 160.764 387.754 180.573 387.754 180.573C364.144 181.318 354.599 203.202 354.599 203.202C315.629 188.49 272.192 214.885 272.192 214.885H236.103C236.103 214.885 197.106 219.745 177.91 229.93C158.732 240.106 162.401 265.003 162.401 265.003C162.401 265.003 131.995 237.636 113.745 264.267C109.927 269.767 102.579 297.353 123.807 310.935L123.571 307.879L134.307 301.513L145.946 306.469L150.167 317.206L149.764 318.125L153.144 318.957L158.154 319.745L157.795 331.042C157.795 331.042 174.092 338.215 176.404 318.957L170.992 314.106L170.58 309.569C170.58 309.569 169.389 292.212 184.942 292.957C184.942 292.957 198.131 304.289 213.255 303.527C228.379 302.721 240.017 299.367 240.017 299.367L288.91 277.841L310.216 257.113L322.617 248.434C358.294 234.852 377.709 218.633 377.709 218.633L407.984 184.392L432.425 127.425L434.335 126.689C442.523 125.919 452.226 119.14 454.538 118.746L470.66 116.084L472.21 114.928C508.229 87.9555 505.961 77.6831 505.961 77.6831" fill="#FDC90D"/>
<path fill-rule="evenodd" clip-rule="evenodd" d="M505.891 77.6568C505.891 77.6568 461.649 106.512 453.539 106.512C445.36 106.512 422.696 108.202 422.696 108.202C384.295 116.688 407.555 136.471 407.555 136.471C407.555 160.764 387.754 180.573 387.754 180.573C364.144 181.318 354.599 203.202 354.599 203.202C315.629 188.49 272.192 214.885 272.192 214.885H236.103C236.103 214.885 197.106 219.745 177.91 229.93C158.732 240.106 162.401 265.003 162.401 265.003C162.401 265.003 131.995 237.636 113.745 264.267C109.927 269.767 102.579 297.353 123.807 310.935L123.571 307.879L134.307 301.513L145.946 306.469L150.167 317.206L149.764 318.125L153.144 318.957L158.154 319.745L157.795 331.042C157.795 331.042 174.092 338.215 176.404 318.957L170.992 314.106L170.58 309.569C170.58 309.569 169.389 292.212 184.942 292.957C184.942 292.957 198.131 304.289 213.255 303.527C228.379 302.721 240.017 299.367 240.017 299.367L288.91 277.841L310.216 257.113L322.617 248.434C358.294 234.852 377.709 218.633 377.709 218.633L407.984 184.392L432.425 127.425L434.335 126.689C442.523 125.919 452.226 119.14 454.538 118.746L470.66 116.084L472.21 114.928C508.229 87.9555 505.961 77.6831 505.961 77.6831" fill="url(#paint50_linear_1_341)"/>
<path fill-rule="evenodd" clip-rule="evenodd" d="M395.145 295.619C376.93 373.218 305.374 431.297 220.121 431.297C121.136 431.297 40.6123 353.023 40.6123 256.789C40.6123 160.58 121.136 82.2807 220.121 82.2807C259.24 82.2807 295.495 94.5497 325.025 115.278C331.462 104.752 338.932 94.5935 347.829 85.8274C311.933 60.3697 267.805 45.3333 220.121 45.3333C100.224 45.3333 2.66663 140.202 2.66663 256.719C2.66663 373.288 100.224 468.13 220.121 468.13C326.602 468.13 415.471 393.325 434.002 294.944C421.216 296.521 407.668 296.1 395.172 295.566" fill="#FDC90D"/>
<path fill-rule="evenodd" clip-rule="evenodd" d="M395.145 295.619C376.93 373.218 305.374 431.297 220.121 431.297C121.136 431.297 40.6123 353.023 40.6123 256.789C40.6123 160.58 121.136 82.2807 220.121 82.2807C259.24 82.2807 295.495 94.5497 325.025 115.278C331.462 104.752 338.932 94.5935 347.829 85.8274C311.933 60.3697 267.805 45.3333 220.121 45.3333C100.224 45.3333 2.66663 140.202 2.66663 256.719C2.66663 373.288 100.224 468.13 220.121 468.13C326.602 468.13 415.471 393.325 434.002 294.944C421.216 296.521 407.668 296.1 395.172 295.566" fill="url(#paint51_linear_1_341)"/>
<defs>
<linearGradient id="paint0_linear_1_341" x1="256" y1="45.3327" x2="256" y2="468.131" gradientUnits="userSpaceOnUse">
<stop offset="0.510417" stop-color="#DA0000" stop-opacity="0"/>
<stop offset="1" stop-color="#DA0000" stop-opacity="0.2"/>
</linearGradient>
<linearGradient id="paint1_linear_1_341" x1="256" y1="45.3328" x2="256" y2="468.131" gradientUnits="userSpaceOnUse">
<stop offset="0.510417" stop-color="#DA0000" stop-opacity="0"/>
<stop offset="1" stop-color="#DA0000" stop-opacity="0.2"/>
</linearGradient>
<linearGradient id="paint2_linear_1_341" x1="256" y1="45.3328" x2="256" y2="468.131" gradientUnits="userSpaceOnUse">
<stop offset="0.510417" stop-color="#DA0000" stop-opacity="0"/>
<stop offset="1" stop-color="#DA0000" stop-opacity="0.2"/>
</linearGradient>
<linearGradient id="paint3_linear_1_341" x1="256" y1="45.3329" x2="256" y2="468.131" gradientUnits="userSpaceOnUse">
<stop offset="0.510417" stop-color="#DA0000" stop-opacity="0"/>
<stop offset="1" stop-color="#DA0000" stop-opacity="0.2"/>
</linearGradient>
<linearGradient id="paint4_linear_1_341" x1="256" y1="45.3327" x2="256" y2="468.131" gradientUnits="userSpaceOnUse">
<stop offset="0.510417" stop-color="#DA0000" stop-opacity="0"/>
<stop offset="1" stop-color="#DA0000" stop-opacity="0.2"/>
</linearGradient>
<linearGradient id="paint5_linear_1_341" x1="256" y1="45.3329" x2="256" y2="468.131" gradientUnits="userSpaceOnUse">
<stop offset="0.510417" stop-color="#DA0000" stop-opacity="0"/>
<stop offset="1" stop-color="#DA0000" stop-opacity="0.2"/>
</linearGradient>
<linearGradient id="paint6_linear_1_341" x1="256" y1="45.3328" x2="256" y2="468.131" gradientUnits="userSpaceOnUse">
<stop offset="0.510417" stop-color="#DA0000" stop-opacity="0"/>
<stop offset="1" stop-color="#DA0000" stop-opacity="0.2"/>
</linearGradient>
<linearGradient id="paint7_linear_1_341" x1="256" y1="45.3328" x2="256" y2="468.131" gradientUnits="userSpaceOnUse">
<stop offset="0.510417" stop-color="#DA0000" stop-opacity="0"/>
<stop offset="1" stop-color="#DA0000" stop-opacity="0.2"/>
</linearGradient>
<linearGradient id="paint8_linear_1_341" x1="256" y1="45.3328" x2="256" y2="468.131" gradientUnits="userSpaceOnUse">
<stop offset="0.510417" stop-color="#DA0000" stop-opacity="0"/>
<stop offset="1" stop-color="#DA0000" stop-opacity="0.2"/>
</linearGradient>
<linearGradient id="paint9_linear_1_341" x1="256" y1="45.3328" x2="256" y2="468.131" gradientUnits="userSpaceOnUse">
<stop offset="0.510417" stop-color="#DA0000" stop-opacity="0"/>
<stop offset="1" stop-color="#DA0000" stop-opacity="0.2"/>
</linearGradient>
<linearGradient id="paint10_linear_1_341" x1="256" y1="45.3327" x2="256" y2="468.131" gradientUnits="userSpaceOnUse">
<stop offset="0.510417" stop-color="#DA0000" stop-opacity="0"/>
<stop offset="1" stop-color="#DA0000" stop-opacity="0.2"/>
</linearGradient>
<linearGradient id="paint11_linear_1_341" x1="256" y1="45.3327" x2="256" y2="468.131" gradientUnits="userSpaceOnUse">
<stop offset="0.510417" stop-color="#DA0000" stop-opacity="0"/>
<stop offset="1" stop-color="#DA0000" stop-opacity="0.2"/>
</linearGradient>
<linearGradient id="paint12_linear_1_341" x1="256" y1="45.333" x2="256" y2="468.131" gradientUnits="userSpaceOnUse">
<stop offset="0.510417" stop-color="#DA0000" stop-opacity="0"/>
<stop offset="1" stop-color="#DA0000" stop-opacity="0.2"/>
</linearGradient>
<linearGradient id="paint13_linear_1_341" x1="256" y1="45.3329" x2="256" y2="468.131" gradientUnits="userSpaceOnUse">
<stop offset="0.510417" stop-color="#DA0000" stop-opacity="0"/>
<stop offset="1" stop-color="#DA0000" stop-opacity="0.2"/>
</linearGradient>
<linearGradient id="paint14_linear_1_341" x1="256" y1="45.3328" x2="256" y2="468.131" gradientUnits="userSpaceOnUse">
<stop offset="0.510417" stop-color="#DA0000" stop-opacity="0"/>
<stop offset="1" stop-color="#DA0000" stop-opacity="0.2"/>
</linearGradient>
<linearGradient id="paint15_linear_1_341" x1="256" y1="45.3328" x2="256" y2="468.131" gradientUnits="userSpaceOnUse">
<stop offset="0.510417" stop-color="#DA0000" stop-opacity="0"/>
<stop offset="1" stop-color="#DA0000" stop-opacity="0.2"/>
</linearGradient>
<linearGradient id="paint16_linear_1_341" x1="256" y1="45.3328" x2="256" y2="468.131" gradientUnits="userSpaceOnUse">
<stop offset="0.510417" stop-color="#DA0000" stop-opacity="0"/>
<stop offset="1" stop-color="#DA0000" stop-opacity="0.2"/>
</linearGradient>
<linearGradient id="paint17_linear_1_341" x1="256" y1="45.3329" x2="256" y2="468.131" gradientUnits="userSpaceOnUse">
<stop offset="0.510417" stop-color="#DA0000" stop-opacity="0"/>
<stop offset="1" stop-color="#DA0000" stop-opacity="0.2"/>
</linearGradient>
<linearGradient id="paint18_linear_1_341" x1="256" y1="45.3328" x2="256" y2="468.131" gradientUnits="userSpaceOnUse">
<stop offset="0.510417" stop-color="#DA0000" stop-opacity="0"/>
<stop offset="1" stop-color="#DA0000" stop-opacity="0.2"/>
</linearGradient>
<linearGradient id="paint19_linear_1_341" x1="256" y1="45.3328" x2="256" y2="468.131" gradientUnits="userSpaceOnUse">
<stop offset="0.510417" stop-color="#DA0000" stop-opacity="0"/>
<stop offset="1" stop-color="#DA0000" stop-opacity="0.2"/>
</linearGradient>
<linearGradient id="paint20_linear_1_341" x1="256" y1="45.3328" x2="256" y2="468.131" gradientUnits="userSpaceOnUse">
<stop offset="0.510417" stop-color="#DA0000" stop-opacity="0"/>
<stop offset="1" stop-color="#DA0000" stop-opacity="0.2"/>
</linearGradient>
<linearGradient id="paint21_linear_1_341" x1="256" y1="45.3327" x2="256" y2="468.131" gradientUnits="userSpaceOnUse">
<stop offset="0.510417" stop-color="#DA0000" stop-opacity="0"/>
<stop offset="1" stop-color="#DA0000" stop-opacity="0.2"/>
</linearGradient>
<linearGradient id="paint22_linear_1_341" x1="256" y1="45.3328" x2="256" y2="468.131" gradientUnits="userSpaceOnUse">
<stop offset="0.510417" stop-color="#DA0000" stop-opacity="0"/>
<stop offset="1" stop-color="#DA0000" stop-opacity="0.2"/>
</linearGradient>
<linearGradient id="paint23_linear_1_341" x1="256" y1="45.3329" x2="256" y2="468.131" gradientUnits="userSpaceOnUse">
<stop offset="0.510417" stop-color="#DA0000" stop-opacity="0"/>
<stop offset="1" stop-color="#DA0000" stop-opacity="0.2"/>
</linearGradient>
<linearGradient id="paint24_linear_1_341" x1="256" y1="45.3328" x2="256" y2="468.131" gradientUnits="userSpaceOnUse">
<stop offset="0.510417" stop-color="#DA0000" stop-opacity="0"/>
<stop offset="1" stop-color="#DA0000" stop-opacity="0.2"/>
</linearGradient>
<linearGradient id="paint25_linear_1_341" x1="256" y1="45.3327" x2="256" y2="468.131" gradientUnits="userSpaceOnUse">
<stop offset="0.510417" stop-color="#DA0000" stop-opacity="0"/>
<stop offset="1" stop-color="#DA0000" stop-opacity="0.2"/>
</linearGradient>
<linearGradient id="paint26_linear_1_341" x1="256" y1="45.3325" x2="256" y2="468.131" gradientUnits="userSpaceOnUse">
<stop offset="0.510417" stop-color="#DA0000" stop-opacity="0"/>
<stop offset="1" stop-color="#DA0000" stop-opacity="0.2"/>
</linearGradient>
<linearGradient id="paint27_linear_1_341" x1="256" y1="45.3329" x2="256" y2="468.131" gradientUnits="userSpaceOnUse">
<stop offset="0.510417" stop-color="#DA0000" stop-opacity="0"/>
<stop offset="1" stop-color="#DA0000" stop-opacity="0.2"/>
</linearGradient>
<linearGradient id="paint28_linear_1_341" x1="256" y1="45.3326" x2="256" y2="468.131" gradientUnits="userSpaceOnUse">
<stop offset="0.510417" stop-color="#DA0000" stop-opacity="0"/>
<stop offset="1" stop-color="#DA0000" stop-opacity="0.2"/>
</linearGradient>
<linearGradient id="paint29_linear_1_341" x1="256" y1="45.3327" x2="256" y2="468.131" gradientUnits="userSpaceOnUse">
<stop offset="0.510417" stop-color="#DA0000" stop-opacity="0"/>
<stop offset="1" stop-color="#DA0000" stop-opacity="0.2"/>
</linearGradient>
<linearGradient id="paint30_linear_1_341" x1="256" y1="45.3328" x2="256" y2="468.131" gradientUnits="userSpaceOnUse">
<stop offset="0.510417" stop-color="#DA0000" stop-opacity="0"/>
<stop offset="1" stop-color="#DA0000" stop-opacity="0.2"/>
</linearGradient>
<linearGradient id="paint31_linear_1_341" x1="256" y1="45.3329" x2="256" y2="468.131" gradientUnits="userSpaceOnUse">
<stop offset="0.510417" stop-color="#DA0000" stop-opacity="0"/>
<stop offset="1" stop-color="#DA0000" stop-opacity="0.2"/>
</linearGradient>
<linearGradient id="paint32_linear_1_341" x1="256" y1="45.3328" x2="256" y2="468.131" gradientUnits="userSpaceOnUse">
<stop offset="0.510417" stop-color="#DA0000" stop-opacity="0"/>
<stop offset="1" stop-color="#DA0000" stop-opacity="0.2"/>
</linearGradient>
<linearGradient id="paint33_linear_1_341" x1="256" y1="45.3327" x2="256" y2="468.131" gradientUnits="userSpaceOnUse">
<stop offset="0.510417" stop-color="#DA0000" stop-opacity="0"/>
<stop offset="1" stop-color="#DA0000" stop-opacity="0.2"/>
</linearGradient>
<linearGradient id="paint34_linear_1_341" x1="256" y1="45.3328" x2="256" y2="468.131" gradientUnits="userSpaceOnUse">
<stop offset="0.510417" stop-color="#DA0000" stop-opacity="0"/>
<stop offset="1" stop-color="#DA0000" stop-opacity="0.2"/>
</linearGradient>
<linearGradient id="paint35_linear_1_341" x1="256" y1="45.3327" x2="256" y2="468.131" gradientUnits="userSpaceOnUse">
<stop offset="0.510417" stop-color="#DA0000" stop-opacity="0"/>
<stop offset="1" stop-color="#DA0000" stop-opacity="0.2"/>
</linearGradient>
<linearGradient id="paint36_linear_1_341" x1="256" y1="45.3329" x2="256" y2="468.131" gradientUnits="userSpaceOnUse">
<stop offset="0.510417" stop-color="#DA0000" stop-opacity="0"/>
<stop offset="1" stop-color="#DA0000" stop-opacity="0.2"/>
</linearGradient>
<linearGradient id="paint37_linear_1_341" x1="256" y1="45.333" x2="256" y2="468.131" gradientUnits="userSpaceOnUse">
<stop offset="0.510417" stop-color="#DA0000" stop-opacity="0"/>
<stop offset="1" stop-color="#DA0000" stop-opacity="0.2"/>
</linearGradient>
<linearGradient id="paint38_linear_1_341" x1="256" y1="45.3328" x2="256" y2="468.131" gradientUnits="userSpaceOnUse">
<stop offset="0.510417" stop-color="#DA0000" stop-opacity="0"/>
<stop offset="1" stop-color="#DA0000" stop-opacity="0.2"/>
</linearGradient>
<linearGradient id="paint39_linear_1_341" x1="256" y1="45.3327" x2="256" y2="468.131" gradientUnits="userSpaceOnUse">
<stop offset="0.510417" stop-color="#DA0000" stop-opacity="0"/>
<stop offset="1" stop-color="#DA0000" stop-opacity="0.2"/>
</linearGradient>
<linearGradient id="paint40_linear_1_341" x1="256" y1="45.3329" x2="256" y2="468.131" gradientUnits="userSpaceOnUse">
<stop offset="0.510417" stop-color="#DA0000" stop-opacity="0"/>
<stop offset="1" stop-color="#DA0000" stop-opacity="0.2"/>
</linearGradient>
<linearGradient id="paint41_linear_1_341" x1="256" y1="45.3327" x2="256" y2="468.131" gradientUnits="userSpaceOnUse">
<stop offset="0.510417" stop-color="#DA0000" stop-opacity="0"/>
<stop offset="1" stop-color="#DA0000" stop-opacity="0.2"/>
</linearGradient>
<linearGradient id="paint42_linear_1_341" x1="256" y1="45.3327" x2="256" y2="468.131" gradientUnits="userSpaceOnUse">
<stop offset="0.510417" stop-color="#DA0000" stop-opacity="0"/>
<stop offset="1" stop-color="#DA0000" stop-opacity="0.2"/>
</linearGradient>
<linearGradient id="paint43_linear_1_341" x1="256" y1="45.3328" x2="256" y2="468.131" gradientUnits="userSpaceOnUse">
<stop offset="0.510417" stop-color="#DA0000" stop-opacity="0"/>
<stop offset="1" stop-color="#DA0000" stop-opacity="0.2"/>
</linearGradient>
<linearGradient id="paint44_linear_1_341" x1="256" y1="45.3328" x2="256" y2="468.131" gradientUnits="userSpaceOnUse">
<stop offset="0.510417" stop-color="#DA0000" stop-opacity="0"/>
<stop offset="1" stop-color="#DA0000" stop-opacity="0.2"/>
</linearGradient>
<linearGradient id="paint45_linear_1_341" x1="256" y1="45.3328" x2="256" y2="468.131" gradientUnits="userSpaceOnUse">
<stop offset="0.510417" stop-color="#DA0000" stop-opacity="0"/>
<stop offset="1" stop-color="#DA0000" stop-opacity="0.2"/>
</linearGradient>
<linearGradient id="paint46_linear_1_341" x1="256" y1="45.3328" x2="256" y2="468.131" gradientUnits="userSpaceOnUse">
<stop offset="0.510417" stop-color="#DA0000" stop-opacity="0"/>
<stop offset="1" stop-color="#DA0000" stop-opacity="0.2"/>
</linearGradient>
<linearGradient id="paint47_linear_1_341" x1="256" y1="45.3328" x2="256" y2="468.131" gradientUnits="userSpaceOnUse">
<stop offset="0.510417" stop-color="#DA0000" stop-opacity="0"/>
<stop offset="1" stop-color="#DA0000" stop-opacity="0.2"/>
</linearGradient>
<linearGradient id="paint48_linear_1_341" x1="256" y1="45.3328" x2="256" y2="468.131" gradientUnits="userSpaceOnUse">
<stop offset="0.510417" stop-color="#DA0000" stop-opacity="0"/>
<stop offset="1" stop-color="#DA0000" stop-opacity="0.2"/>
</linearGradient>
<linearGradient id="paint49_linear_1_341" x1="256" y1="45.3328" x2="256" y2="468.131" gradientUnits="userSpaceOnUse">
<stop offset="0.510417" stop-color="#DA0000" stop-opacity="0"/>
<stop offset="1" stop-color="#DA0000" stop-opacity="0.2"/>
</linearGradient>
<linearGradient id="paint50_linear_1_341" x1="256" y1="45.3328" x2="256" y2="468.131" gradientUnits="userSpaceOnUse">
<stop offset="0.510417" stop-color="#DA0000" stop-opacity="0"/>
<stop offset="1" stop-color="#DA0000" stop-opacity="0.2"/>
</linearGradient>
<linearGradient id="paint51_linear_1_341" x1="256" y1="45.3328" x2="256" y2="468.131" gradientUnits="userSpaceOnUse">
<stop offset="0.510417" stop-color="#DA0000" stop-opacity="0"/>
<stop offset="1" stop-color="#DA0000" stop-opacity="0.2"/>
</linearGradient>
</defs>
</svg>
