<?xml version="1.0" encoding="UTF-8"?>
<svg xmlns="http://www.w3.org/2000/svg" xmlns:xlink="http://www.w3.org/1999/xlink" width="226px" height="192px" viewBox="0 0 226 192" version="1.1">
<defs>
<linearGradient id="linear0" gradientUnits="userSpaceOnUse" x1="36.5" y1="0.274902" x2="36.5" y2="61.1739" gradientTransform="matrix(3.09589,0,0,3.096774,0,0)">
<stop offset="0.510417" style="stop-color:rgb(85.490196%,0%,0%);stop-opacity:0;"/>
<stop offset="1" style="stop-color:rgb(85.490196%,0%,0%);stop-opacity:0.2;"/>
</linearGradient>
<linearGradient id="linear1" gradientUnits="userSpaceOnUse" x1="36.5" y1="0.274902" x2="36.5" y2="61.1739" gradientTransform="matrix(3.09589,0,0,3.096774,0,0)">
<stop offset="0.510417" style="stop-color:rgb(85.490196%,0%,0%);stop-opacity:0;"/>
<stop offset="1" style="stop-color:rgb(85.490196%,0%,0%);stop-opacity:0.2;"/>
</linearGradient>
<linearGradient id="linear2" gradientUnits="userSpaceOnUse" x1="36.5" y1="0.274902" x2="36.5" y2="61.1739" gradientTransform="matrix(3.09589,0,0,3.096774,0,0)">
<stop offset="0.510417" style="stop-color:rgb(85.490196%,0%,0%);stop-opacity:0;"/>
<stop offset="1" style="stop-color:rgb(85.490196%,0%,0%);stop-opacity:0.2;"/>
</linearGradient>
<linearGradient id="linear3" gradientUnits="userSpaceOnUse" x1="36.5" y1="0.274902" x2="36.5" y2="61.1739" gradientTransform="matrix(3.09589,0,0,3.096774,0,0)">
<stop offset="0.510417" style="stop-color:rgb(85.490196%,0%,0%);stop-opacity:0;"/>
<stop offset="1" style="stop-color:rgb(85.490196%,0%,0%);stop-opacity:0.2;"/>
</linearGradient>
<linearGradient id="linear4" gradientUnits="userSpaceOnUse" x1="36.5" y1="0.274902" x2="36.5" y2="61.1739" gradientTransform="matrix(3.09589,0,0,3.096774,0,0)">
<stop offset="0.510417" style="stop-color:rgb(85.490196%,0%,0%);stop-opacity:0;"/>
<stop offset="1" style="stop-color:rgb(85.490196%,0%,0%);stop-opacity:0.2;"/>
</linearGradient>
<linearGradient id="linear5" gradientUnits="userSpaceOnUse" x1="36.5" y1="0.274902" x2="36.5" y2="61.1739" gradientTransform="matrix(3.09589,0,0,3.096774,0,0)">
<stop offset="0.510417" style="stop-color:rgb(85.490196%,0%,0%);stop-opacity:0;"/>
<stop offset="1" style="stop-color:rgb(85.490196%,0%,0%);stop-opacity:0.2;"/>
</linearGradient>
<linearGradient id="linear6" gradientUnits="userSpaceOnUse" x1="36.5" y1="0.274902" x2="36.5" y2="61.1739" gradientTransform="matrix(3.09589,0,0,3.096774,0,0)">
<stop offset="0.510417" style="stop-color:rgb(85.490196%,0%,0%);stop-opacity:0;"/>
<stop offset="1" style="stop-color:rgb(85.490196%,0%,0%);stop-opacity:0.2;"/>
</linearGradient>
<linearGradient id="linear7" gradientUnits="userSpaceOnUse" x1="36.5" y1="0.274902" x2="36.5" y2="61.1739" gradientTransform="matrix(3.09589,0,0,3.096774,0,0)">
<stop offset="0.510417" style="stop-color:rgb(85.490196%,0%,0%);stop-opacity:0;"/>
<stop offset="1" style="stop-color:rgb(85.490196%,0%,0%);stop-opacity:0.2;"/>
</linearGradient>
<linearGradient id="linear8" gradientUnits="userSpaceOnUse" x1="36.5" y1="0.274902" x2="36.5" y2="61.1739" gradientTransform="matrix(3.09589,0,0,3.096774,0,0)">
<stop offset="0.510417" style="stop-color:rgb(85.490196%,0%,0%);stop-opacity:0;"/>
<stop offset="1" style="stop-color:rgb(85.490196%,0%,0%);stop-opacity:0.2;"/>
</linearGradient>
<linearGradient id="linear9" gradientUnits="userSpaceOnUse" x1="36.5" y1="0.274902" x2="36.5" y2="61.1739" gradientTransform="matrix(3.09589,0,0,3.096774,0,0)">
<stop offset="0.510417" style="stop-color:rgb(85.490196%,0%,0%);stop-opacity:0;"/>
<stop offset="1" style="stop-color:rgb(85.490196%,0%,0%);stop-opacity:0.2;"/>
</linearGradient>
<linearGradient id="linear10" gradientUnits="userSpaceOnUse" x1="36.5" y1="0.274902" x2="36.5" y2="61.1739" gradientTransform="matrix(3.09589,0,0,3.096774,0,0)">
<stop offset="0.510417" style="stop-color:rgb(85.490196%,0%,0%);stop-opacity:0;"/>
<stop offset="1" style="stop-color:rgb(85.490196%,0%,0%);stop-opacity:0.2;"/>
</linearGradient>
<linearGradient id="linear11" gradientUnits="userSpaceOnUse" x1="36.5" y1="0.274902" x2="36.5" y2="61.1739" gradientTransform="matrix(3.09589,0,0,3.096774,0,0)">
<stop offset="0.510417" style="stop-color:rgb(85.490196%,0%,0%);stop-opacity:0;"/>
<stop offset="1" style="stop-color:rgb(85.490196%,0%,0%);stop-opacity:0.2;"/>
</linearGradient>
<linearGradient id="linear12" gradientUnits="userSpaceOnUse" x1="36.5" y1="0.274902" x2="36.5" y2="61.1739" gradientTransform="matrix(3.09589,0,0,3.096774,0,0)">
<stop offset="0.510417" style="stop-color:rgb(85.490196%,0%,0%);stop-opacity:0;"/>
<stop offset="1" style="stop-color:rgb(85.490196%,0%,0%);stop-opacity:0.2;"/>
</linearGradient>
<linearGradient id="linear13" gradientUnits="userSpaceOnUse" x1="36.5" y1="0.274902" x2="36.5" y2="61.1739" gradientTransform="matrix(3.09589,0,0,3.096774,0,0)">
<stop offset="0.510417" style="stop-color:rgb(85.490196%,0%,0%);stop-opacity:0;"/>
<stop offset="1" style="stop-color:rgb(85.490196%,0%,0%);stop-opacity:0.2;"/>
</linearGradient>
<linearGradient id="linear14" gradientUnits="userSpaceOnUse" x1="36.5" y1="0.274902" x2="36.5" y2="61.1739" gradientTransform="matrix(3.09589,0,0,3.096774,0,0)">
<stop offset="0.510417" style="stop-color:rgb(85.490196%,0%,0%);stop-opacity:0;"/>
<stop offset="1" style="stop-color:rgb(85.490196%,0%,0%);stop-opacity:0.2;"/>
</linearGradient>
<linearGradient id="linear15" gradientUnits="userSpaceOnUse" x1="36.5" y1="0.274902" x2="36.5" y2="61.1739" gradientTransform="matrix(3.09589,0,0,3.096774,0,0)">
<stop offset="0.510417" style="stop-color:rgb(85.490196%,0%,0%);stop-opacity:0;"/>
<stop offset="1" style="stop-color:rgb(85.490196%,0%,0%);stop-opacity:0.2;"/>
</linearGradient>
<linearGradient id="linear16" gradientUnits="userSpaceOnUse" x1="36.5" y1="0.274902" x2="36.5" y2="61.1739" gradientTransform="matrix(3.09589,0,0,3.096774,0,0)">
<stop offset="0.510417" style="stop-color:rgb(85.490196%,0%,0%);stop-opacity:0;"/>
<stop offset="1" style="stop-color:rgb(85.490196%,0%,0%);stop-opacity:0.2;"/>
</linearGradient>
<linearGradient id="linear17" gradientUnits="userSpaceOnUse" x1="36.5" y1="0.274902" x2="36.5" y2="61.1739" gradientTransform="matrix(3.09589,0,0,3.096774,0,0)">
<stop offset="0.510417" style="stop-color:rgb(85.490196%,0%,0%);stop-opacity:0;"/>
<stop offset="1" style="stop-color:rgb(85.490196%,0%,0%);stop-opacity:0.2;"/>
</linearGradient>
<linearGradient id="linear18" gradientUnits="userSpaceOnUse" x1="36.5" y1="0.274902" x2="36.5" y2="61.1739" gradientTransform="matrix(3.09589,0,0,3.096774,0,0)">
<stop offset="0.510417" style="stop-color:rgb(85.490196%,0%,0%);stop-opacity:0;"/>
<stop offset="1" style="stop-color:rgb(85.490196%,0%,0%);stop-opacity:0.2;"/>
</linearGradient>
<linearGradient id="linear19" gradientUnits="userSpaceOnUse" x1="36.5" y1="0.274902" x2="36.5" y2="61.1739" gradientTransform="matrix(3.09589,0,0,3.096774,0,0)">
<stop offset="0.510417" style="stop-color:rgb(85.490196%,0%,0%);stop-opacity:0;"/>
<stop offset="1" style="stop-color:rgb(85.490196%,0%,0%);stop-opacity:0.2;"/>
</linearGradient>
<linearGradient id="linear20" gradientUnits="userSpaceOnUse" x1="36.5" y1="0.274902" x2="36.5" y2="61.1739" gradientTransform="matrix(3.09589,0,0,3.096774,0,0)">
<stop offset="0.510417" style="stop-color:rgb(85.490196%,0%,0%);stop-opacity:0;"/>
<stop offset="1" style="stop-color:rgb(85.490196%,0%,0%);stop-opacity:0.2;"/>
</linearGradient>
<linearGradient id="linear21" gradientUnits="userSpaceOnUse" x1="36.5" y1="0.274902" x2="36.5" y2="61.1739" gradientTransform="matrix(3.09589,0,0,3.096774,0,0)">
<stop offset="0.510417" style="stop-color:rgb(85.490196%,0%,0%);stop-opacity:0;"/>
<stop offset="1" style="stop-color:rgb(85.490196%,0%,0%);stop-opacity:0.2;"/>
</linearGradient>
<linearGradient id="linear22" gradientUnits="userSpaceOnUse" x1="36.5" y1="0.274902" x2="36.5" y2="61.1739" gradientTransform="matrix(3.09589,0,0,3.096774,0,0)">
<stop offset="0.510417" style="stop-color:rgb(85.490196%,0%,0%);stop-opacity:0;"/>
<stop offset="1" style="stop-color:rgb(85.490196%,0%,0%);stop-opacity:0.2;"/>
</linearGradient>
<linearGradient id="linear23" gradientUnits="userSpaceOnUse" x1="36.5" y1="0.274902" x2="36.5" y2="61.1739" gradientTransform="matrix(3.09589,0,0,3.096774,0,0)">
<stop offset="0.510417" style="stop-color:rgb(85.490196%,0%,0%);stop-opacity:0;"/>
<stop offset="1" style="stop-color:rgb(85.490196%,0%,0%);stop-opacity:0.2;"/>
</linearGradient>
<linearGradient id="linear24" gradientUnits="userSpaceOnUse" x1="36.5" y1="0.274902" x2="36.5" y2="61.1739" gradientTransform="matrix(3.09589,0,0,3.096774,0,0)">
<stop offset="0.510417" style="stop-color:rgb(85.490196%,0%,0%);stop-opacity:0;"/>
<stop offset="1" style="stop-color:rgb(85.490196%,0%,0%);stop-opacity:0.2;"/>
</linearGradient>
<linearGradient id="linear25" gradientUnits="userSpaceOnUse" x1="36.5" y1="0.274902" x2="36.5" y2="61.1739" gradientTransform="matrix(3.09589,0,0,3.096774,0,0)">
<stop offset="0.510417" style="stop-color:rgb(85.490196%,0%,0%);stop-opacity:0;"/>
<stop offset="1" style="stop-color:rgb(85.490196%,0%,0%);stop-opacity:0.2;"/>
</linearGradient>
<linearGradient id="linear26" gradientUnits="userSpaceOnUse" x1="36.5" y1="0.274902" x2="36.5" y2="61.1739" gradientTransform="matrix(3.09589,0,0,3.096774,0,0)">
<stop offset="0.510417" style="stop-color:rgb(85.490196%,0%,0%);stop-opacity:0;"/>
<stop offset="1" style="stop-color:rgb(85.490196%,0%,0%);stop-opacity:0.2;"/>
</linearGradient>
<linearGradient id="linear27" gradientUnits="userSpaceOnUse" x1="36.5" y1="0.274902" x2="36.5" y2="61.1739" gradientTransform="matrix(3.09589,0,0,3.096774,0,0)">
<stop offset="0.510417" style="stop-color:rgb(85.490196%,0%,0%);stop-opacity:0;"/>
<stop offset="1" style="stop-color:rgb(85.490196%,0%,0%);stop-opacity:0.2;"/>
</linearGradient>
<linearGradient id="linear28" gradientUnits="userSpaceOnUse" x1="36.5" y1="0.274902" x2="36.5" y2="61.1739" gradientTransform="matrix(3.09589,0,0,3.096774,0,0)">
<stop offset="0.510417" style="stop-color:rgb(85.490196%,0%,0%);stop-opacity:0;"/>
<stop offset="1" style="stop-color:rgb(85.490196%,0%,0%);stop-opacity:0.2;"/>
</linearGradient>
<linearGradient id="linear29" gradientUnits="userSpaceOnUse" x1="36.5" y1="0.274902" x2="36.5" y2="61.1739" gradientTransform="matrix(3.09589,0,0,3.096774,0,0)">
<stop offset="0.510417" style="stop-color:rgb(85.490196%,0%,0%);stop-opacity:0;"/>
<stop offset="1" style="stop-color:rgb(85.490196%,0%,0%);stop-opacity:0.2;"/>
</linearGradient>
<linearGradient id="linear30" gradientUnits="userSpaceOnUse" x1="36.5" y1="0.274902" x2="36.5" y2="61.1739" gradientTransform="matrix(3.09589,0,0,3.096774,0,0)">
<stop offset="0.510417" style="stop-color:rgb(85.490196%,0%,0%);stop-opacity:0;"/>
<stop offset="1" style="stop-color:rgb(85.490196%,0%,0%);stop-opacity:0.2;"/>
</linearGradient>
<linearGradient id="linear31" gradientUnits="userSpaceOnUse" x1="36.5" y1="0.274902" x2="36.5" y2="61.1739" gradientTransform="matrix(3.09589,0,0,3.096774,0,0)">
<stop offset="0.510417" style="stop-color:rgb(85.490196%,0%,0%);stop-opacity:0;"/>
<stop offset="1" style="stop-color:rgb(85.490196%,0%,0%);stop-opacity:0.2;"/>
</linearGradient>
<linearGradient id="linear32" gradientUnits="userSpaceOnUse" x1="36.5" y1="0.274902" x2="36.5" y2="61.1739" gradientTransform="matrix(3.09589,0,0,3.096774,0,0)">
<stop offset="0.510417" style="stop-color:rgb(85.490196%,0%,0%);stop-opacity:0;"/>
<stop offset="1" style="stop-color:rgb(85.490196%,0%,0%);stop-opacity:0.2;"/>
</linearGradient>
<linearGradient id="linear33" gradientUnits="userSpaceOnUse" x1="36.5" y1="0.274902" x2="36.5" y2="61.1739" gradientTransform="matrix(3.09589,0,0,3.096774,0,0)">
<stop offset="0.510417" style="stop-color:rgb(85.490196%,0%,0%);stop-opacity:0;"/>
<stop offset="1" style="stop-color:rgb(85.490196%,0%,0%);stop-opacity:0.2;"/>
</linearGradient>
<linearGradient id="linear34" gradientUnits="userSpaceOnUse" x1="36.5" y1="0.274902" x2="36.5" y2="61.1739" gradientTransform="matrix(3.09589,0,0,3.096774,0,0)">
<stop offset="0.510417" style="stop-color:rgb(85.490196%,0%,0%);stop-opacity:0;"/>
<stop offset="1" style="stop-color:rgb(85.490196%,0%,0%);stop-opacity:0.2;"/>
</linearGradient>
<linearGradient id="linear35" gradientUnits="userSpaceOnUse" x1="36.5" y1="0.274902" x2="36.5" y2="61.1739" gradientTransform="matrix(3.09589,0,0,3.096774,0,0)">
<stop offset="0.510417" style="stop-color:rgb(85.490196%,0%,0%);stop-opacity:0;"/>
<stop offset="1" style="stop-color:rgb(85.490196%,0%,0%);stop-opacity:0.2;"/>
</linearGradient>
<linearGradient id="linear36" gradientUnits="userSpaceOnUse" x1="36.5" y1="0.274902" x2="36.5" y2="61.1739" gradientTransform="matrix(3.09589,0,0,3.096774,0,0)">
<stop offset="0.510417" style="stop-color:rgb(85.490196%,0%,0%);stop-opacity:0;"/>
<stop offset="1" style="stop-color:rgb(85.490196%,0%,0%);stop-opacity:0.2;"/>
</linearGradient>
<linearGradient id="linear37" gradientUnits="userSpaceOnUse" x1="36.5" y1="0.274902" x2="36.5" y2="61.1739" gradientTransform="matrix(3.09589,0,0,3.096774,0,0)">
<stop offset="0.510417" style="stop-color:rgb(85.490196%,0%,0%);stop-opacity:0;"/>
<stop offset="1" style="stop-color:rgb(85.490196%,0%,0%);stop-opacity:0.2;"/>
</linearGradient>
<linearGradient id="linear38" gradientUnits="userSpaceOnUse" x1="36.5" y1="0.274902" x2="36.5" y2="61.1739" gradientTransform="matrix(3.09589,0,0,3.096774,0,0)">
<stop offset="0.510417" style="stop-color:rgb(85.490196%,0%,0%);stop-opacity:0;"/>
<stop offset="1" style="stop-color:rgb(85.490196%,0%,0%);stop-opacity:0.2;"/>
</linearGradient>
<linearGradient id="linear39" gradientUnits="userSpaceOnUse" x1="36.5" y1="0.274902" x2="36.5" y2="61.1739" gradientTransform="matrix(3.09589,0,0,3.096774,0,0)">
<stop offset="0.510417" style="stop-color:rgb(85.490196%,0%,0%);stop-opacity:0;"/>
<stop offset="1" style="stop-color:rgb(85.490196%,0%,0%);stop-opacity:0.2;"/>
</linearGradient>
<linearGradient id="linear40" gradientUnits="userSpaceOnUse" x1="36.5" y1="0.274902" x2="36.5" y2="61.1739" gradientTransform="matrix(3.09589,0,0,3.096774,0,0)">
<stop offset="0.510417" style="stop-color:rgb(85.490196%,0%,0%);stop-opacity:0;"/>
<stop offset="1" style="stop-color:rgb(85.490196%,0%,0%);stop-opacity:0.2;"/>
</linearGradient>
<linearGradient id="linear41" gradientUnits="userSpaceOnUse" x1="36.5" y1="0.274902" x2="36.5" y2="61.1739" gradientTransform="matrix(3.09589,0,0,3.096774,0,0)">
<stop offset="0.510417" style="stop-color:rgb(85.490196%,0%,0%);stop-opacity:0;"/>
<stop offset="1" style="stop-color:rgb(85.490196%,0%,0%);stop-opacity:0.2;"/>
</linearGradient>
<linearGradient id="linear42" gradientUnits="userSpaceOnUse" x1="36.5" y1="0.274902" x2="36.5" y2="61.1739" gradientTransform="matrix(3.09589,0,0,3.096774,0,0)">
<stop offset="0.510417" style="stop-color:rgb(85.490196%,0%,0%);stop-opacity:0;"/>
<stop offset="1" style="stop-color:rgb(85.490196%,0%,0%);stop-opacity:0.2;"/>
</linearGradient>
<linearGradient id="linear43" gradientUnits="userSpaceOnUse" x1="36.5" y1="0.274902" x2="36.5" y2="61.1739" gradientTransform="matrix(3.09589,0,0,3.096774,0,0)">
<stop offset="0.510417" style="stop-color:rgb(85.490196%,0%,0%);stop-opacity:0;"/>
<stop offset="1" style="stop-color:rgb(85.490196%,0%,0%);stop-opacity:0.2;"/>
</linearGradient>
<linearGradient id="linear44" gradientUnits="userSpaceOnUse" x1="36.5" y1="0.274902" x2="36.5" y2="61.1739" gradientTransform="matrix(3.09589,0,0,3.096774,0,0)">
<stop offset="0.510417" style="stop-color:rgb(85.490196%,0%,0%);stop-opacity:0;"/>
<stop offset="1" style="stop-color:rgb(85.490196%,0%,0%);stop-opacity:0.2;"/>
</linearGradient>
<linearGradient id="linear45" gradientUnits="userSpaceOnUse" x1="36.5" y1="0.274902" x2="36.5" y2="61.1739" gradientTransform="matrix(3.09589,0,0,3.096774,0,0)">
<stop offset="0.510417" style="stop-color:rgb(85.490196%,0%,0%);stop-opacity:0;"/>
<stop offset="1" style="stop-color:rgb(85.490196%,0%,0%);stop-opacity:0.2;"/>
</linearGradient>
<linearGradient id="linear46" gradientUnits="userSpaceOnUse" x1="36.5" y1="0.274902" x2="36.5" y2="61.1739" gradientTransform="matrix(3.09589,0,0,3.096774,0,0)">
<stop offset="0.510417" style="stop-color:rgb(85.490196%,0%,0%);stop-opacity:0;"/>
<stop offset="1" style="stop-color:rgb(85.490196%,0%,0%);stop-opacity:0.2;"/>
</linearGradient>
<linearGradient id="linear47" gradientUnits="userSpaceOnUse" x1="36.5" y1="0.274902" x2="36.5" y2="61.1739" gradientTransform="matrix(3.09589,0,0,3.096774,0,0)">
<stop offset="0.510417" style="stop-color:rgb(85.490196%,0%,0%);stop-opacity:0;"/>
<stop offset="1" style="stop-color:rgb(85.490196%,0%,0%);stop-opacity:0.2;"/>
</linearGradient>
<linearGradient id="linear48" gradientUnits="userSpaceOnUse" x1="36.5" y1="0.274902" x2="36.5" y2="61.1739" gradientTransform="matrix(3.09589,0,0,3.096774,0,0)">
<stop offset="0.510417" style="stop-color:rgb(85.490196%,0%,0%);stop-opacity:0;"/>
<stop offset="1" style="stop-color:rgb(85.490196%,0%,0%);stop-opacity:0.2;"/>
</linearGradient>
<linearGradient id="linear49" gradientUnits="userSpaceOnUse" x1="36.5" y1="0.274902" x2="36.5" y2="61.1739" gradientTransform="matrix(3.09589,0,0,3.096774,0,0)">
<stop offset="0.510417" style="stop-color:rgb(85.490196%,0%,0%);stop-opacity:0;"/>
<stop offset="1" style="stop-color:rgb(85.490196%,0%,0%);stop-opacity:0.2;"/>
</linearGradient>
<linearGradient id="linear50" gradientUnits="userSpaceOnUse" x1="36.5" y1="0.274902" x2="36.5" y2="61.1739" gradientTransform="matrix(3.09589,0,0,3.096774,0,0)">
<stop offset="0.510417" style="stop-color:rgb(85.490196%,0%,0%);stop-opacity:0;"/>
<stop offset="1" style="stop-color:rgb(85.490196%,0%,0%);stop-opacity:0.2;"/>
</linearGradient>
<linearGradient id="linear51" gradientUnits="userSpaceOnUse" x1="36.5" y1="0.274902" x2="36.5" y2="61.1739" gradientTransform="matrix(3.09589,0,0,3.096774,0,0)">
<stop offset="0.510417" style="stop-color:rgb(85.490196%,0%,0%);stop-opacity:0;"/>
<stop offset="1" style="stop-color:rgb(85.490196%,0%,0%);stop-opacity:0.2;"/>
</linearGradient>
</defs>
<g id="surface1">
<path style=" stroke:none;fill-rule:evenodd;fill:rgb(99.215686%,78.823529%,5.098039%);fill-opacity:1;" d="M 131.988281 56.480469 C 133.480469 61.25 131.214844 66.152344 126.914062 67.417969 L 80.527344 81.0625 C 76.230469 82.324219 71.539062 79.476562 70.046875 74.695312 C 68.558594 69.90625 70.835938 65.015625 75.132812 63.757812 L 121.519531 50.101562 C 125.828125 48.832031 130.5 51.691406 131.988281 56.480469 Z M 131.988281 56.480469 "/>
<path style=" stroke:none;fill-rule:evenodd;fill:url(#linear0);" d="M 131.988281 56.480469 C 133.480469 61.25 131.214844 66.152344 126.914062 67.417969 L 80.527344 81.0625 C 76.230469 82.324219 71.539062 79.476562 70.046875 74.695312 C 68.558594 69.90625 70.835938 65.015625 75.132812 63.757812 L 121.519531 50.101562 C 125.828125 48.832031 130.5 51.691406 131.988281 56.480469 Z M 131.988281 56.480469 "/>
<path style=" stroke:none;fill-rule:evenodd;fill:rgb(99.215686%,78.823529%,5.098039%);fill-opacity:1;" d="M 69.292969 71.199219 L 65.730469 72.230469 C 63.984375 72.746094 63.070312 74.726562 63.675781 76.667969 C 64.28125 78.597656 66.175781 79.742188 67.898438 79.226562 L 71.472656 78.175781 C 70.707031 77.246094 70.089844 76.109375 69.699219 74.871094 C 69.304688 73.632812 69.164062 72.394531 69.273438 71.199219 "/>
<path style=" stroke:none;fill-rule:evenodd;fill:url(#linear1);" d="M 69.292969 71.199219 L 65.730469 72.230469 C 63.984375 72.746094 63.070312 74.726562 63.675781 76.667969 C 64.28125 78.597656 66.175781 79.742188 67.898438 79.226562 L 71.472656 78.175781 C 70.707031 77.246094 70.089844 76.109375 69.699219 74.871094 C 69.304688 73.632812 69.164062 72.394531 69.273438 71.199219 "/>
<path style=" stroke:none;fill-rule:evenodd;fill:rgb(99.215686%,78.823529%,5.098039%);fill-opacity:1;" d="M 72.3125 95.574219 C 72.367188 95.441406 72.496094 95.367188 72.632812 95.390625 C 72.78125 95.441406 72.847656 95.59375 72.824219 95.699219 L 72.046875 98.144531 C 71.984375 98.277344 71.835938 98.351562 71.707031 98.300781 C 71.558594 98.269531 71.472656 98.125 71.527344 97.988281 Z M 72.3125 95.574219 "/>
<path style=" stroke:none;fill-rule:evenodd;fill:url(#linear2);" d="M 72.3125 95.574219 C 72.367188 95.441406 72.496094 95.367188 72.632812 95.390625 C 72.78125 95.441406 72.847656 95.59375 72.824219 95.699219 L 72.046875 98.144531 C 71.984375 98.277344 71.835938 98.351562 71.707031 98.300781 C 71.558594 98.269531 71.472656 98.125 71.527344 97.988281 Z M 72.3125 95.574219 "/>
<path style=" stroke:none;fill-rule:evenodd;fill:rgb(99.215686%,78.823529%,5.098039%);fill-opacity:1;" d="M 70.601562 94.902344 C 70.65625 94.757812 70.816406 94.699219 70.953125 94.757812 C 71.058594 94.8125 71.125 94.964844 71.089844 95.070312 L 70.027344 97.402344 C 69.964844 97.535156 69.78125 97.609375 69.675781 97.527344 C 69.539062 97.484375 69.484375 97.320312 69.546875 97.214844 L 70.589844 94.894531 "/>
<path style=" stroke:none;fill-rule:evenodd;fill:url(#linear3);" d="M 70.601562 94.902344 C 70.65625 94.757812 70.816406 94.699219 70.953125 94.757812 C 71.058594 94.8125 71.125 94.964844 71.089844 95.070312 L 70.027344 97.402344 C 69.964844 97.535156 69.78125 97.609375 69.675781 97.527344 C 69.539062 97.484375 69.484375 97.320312 69.546875 97.214844 L 70.589844 94.894531 "/>
<path style=" stroke:none;fill-rule:evenodd;fill:rgb(99.215686%,78.823529%,5.098039%);fill-opacity:1;" d="M 68.941406 94.046875 C 69.015625 93.921875 69.15625 93.871094 69.304688 93.945312 C 69.441406 94.015625 69.472656 94.171875 69.410156 94.296875 L 68.132812 96.503906 C 68.046875 96.628906 67.867188 96.667969 67.761719 96.585938 C 67.621094 96.523438 67.582031 96.378906 67.65625 96.257812 L 68.953125 94.058594 "/>
<path style=" stroke:none;fill-rule:evenodd;fill:url(#linear4);" d="M 68.941406 94.046875 C 69.015625 93.921875 69.15625 93.871094 69.304688 93.945312 C 69.441406 94.015625 69.472656 94.171875 69.410156 94.296875 L 68.132812 96.503906 C 68.046875 96.628906 67.867188 96.667969 67.761719 96.585938 C 67.621094 96.523438 67.582031 96.378906 67.65625 96.257812 L 68.953125 94.058594 "/>
<path style=" stroke:none;fill-rule:evenodd;fill:rgb(99.215686%,78.823529%,5.098039%);fill-opacity:1;" d="M 67.410156 93.054688 C 67.484375 92.933594 67.644531 92.902344 67.773438 92.984375 C 67.878906 93.066406 67.878906 93.222656 67.835938 93.347656 L 66.304688 95.410156 C 66.195312 95.511719 66.039062 95.542969 65.929688 95.460938 C 65.824219 95.378906 65.792969 95.222656 65.878906 95.121094 Z M 67.410156 93.054688 "/>
<path style=" stroke:none;fill-rule:evenodd;fill:url(#linear5);" d="M 67.410156 93.054688 C 67.484375 92.933594 67.644531 92.902344 67.773438 92.984375 C 67.878906 93.066406 67.878906 93.222656 67.835938 93.347656 L 66.304688 95.410156 C 66.195312 95.511719 66.039062 95.542969 65.929688 95.460938 C 65.824219 95.378906 65.792969 95.222656 65.878906 95.121094 Z M 67.410156 93.054688 "/>
<path style=" stroke:none;fill-rule:evenodd;fill:rgb(99.215686%,78.823529%,5.098039%);fill-opacity:1;" d="M 65.996094 91.933594 C 66.070312 91.808594 66.230469 91.796875 66.335938 91.890625 C 66.441406 91.992188 66.441406 92.160156 66.378906 92.261719 L 64.675781 94.179688 C 64.570312 94.285156 64.378906 94.285156 64.292969 94.179688 C 64.1875 94.109375 64.164062 93.945312 64.269531 93.851562 L 65.972656 91.941406 "/>
<path style=" stroke:none;fill-rule:evenodd;fill:url(#linear6);" d="M 65.996094 91.933594 C 66.070312 91.808594 66.230469 91.796875 66.335938 91.890625 C 66.441406 91.992188 66.441406 92.160156 66.378906 92.261719 L 64.675781 94.179688 C 64.570312 94.285156 64.378906 94.285156 64.292969 94.179688 C 64.1875 94.109375 64.164062 93.945312 64.269531 93.851562 L 65.972656 91.941406 "/>
<path style=" stroke:none;fill-rule:evenodd;fill:rgb(99.215686%,78.823529%,5.098039%);fill-opacity:1;" d="M 64.675781 90.683594 C 64.78125 90.578125 64.941406 90.578125 65.058594 90.683594 C 65.164062 90.785156 65.144531 90.953125 65.058594 91.054688 L 63.164062 92.808594 C 63.058594 92.914062 62.878906 92.890625 62.792969 92.808594 C 62.6875 92.707031 62.6875 92.53125 62.792969 92.449219 L 64.664062 90.691406 "/>
<path style=" stroke:none;fill-rule:evenodd;fill:url(#linear7);" d="M 64.675781 90.683594 C 64.78125 90.578125 64.941406 90.578125 65.058594 90.683594 C 65.164062 90.785156 65.144531 90.953125 65.058594 91.054688 L 63.164062 92.808594 C 63.058594 92.914062 62.878906 92.890625 62.792969 92.808594 C 62.6875 92.707031 62.6875 92.53125 62.792969 92.449219 L 64.664062 90.691406 "/>
<path style=" stroke:none;fill-rule:evenodd;fill:rgb(99.215686%,78.823529%,5.098039%);fill-opacity:1;" d="M 63.546875 89.371094 C 63.652344 89.269531 63.804688 89.289062 63.910156 89.414062 C 63.984375 89.515625 63.964844 89.683594 63.867188 89.773438 L 61.824219 91.355469 C 61.695312 91.457031 61.535156 91.414062 61.453125 91.3125 C 61.34375 91.210938 61.378906 91.042969 61.496094 90.960938 L 63.539062 89.382812 "/>
<path style=" stroke:none;fill-rule:evenodd;fill:url(#linear8);" d="M 63.546875 89.371094 C 63.652344 89.269531 63.804688 89.289062 63.910156 89.414062 C 63.984375 89.515625 63.964844 89.683594 63.867188 89.773438 L 61.824219 91.355469 C 61.695312 91.457031 61.535156 91.414062 61.453125 91.3125 C 61.34375 91.210938 61.378906 91.042969 61.496094 90.960938 L 63.539062 89.382812 "/>
<path style=" stroke:none;fill-rule:evenodd;fill:rgb(99.215686%,78.823529%,5.098039%);fill-opacity:1;" d="M 62.539062 88 C 62.664062 87.917969 62.835938 87.949219 62.910156 88.0625 C 62.984375 88.183594 62.941406 88.339844 62.835938 88.421875 L 60.664062 89.816406 C 60.503906 89.886719 60.34375 89.847656 60.28125 89.734375 C 60.175781 89.609375 60.226562 89.464844 60.34375 89.394531 L 62.527344 87.988281 "/>
<path style=" stroke:none;fill-rule:evenodd;fill:url(#linear9);" d="M 62.539062 88 C 62.664062 87.917969 62.835938 87.949219 62.910156 88.0625 C 62.984375 88.183594 62.941406 88.339844 62.835938 88.421875 L 60.664062 89.816406 C 60.503906 89.886719 60.34375 89.847656 60.28125 89.734375 C 60.175781 89.609375 60.226562 89.464844 60.34375 89.394531 L 62.527344 87.988281 "/>
<path style=" stroke:none;fill-rule:evenodd;fill:rgb(99.215686%,78.823529%,5.098039%);fill-opacity:1;" d="M 61.738281 86.597656 C 61.84375 86.511719 62.003906 86.566406 62.089844 86.699219 C 62.144531 86.800781 62.089844 86.96875 61.960938 87.039062 L 59.675781 88.238281 C 59.535156 88.300781 59.355469 88.238281 59.3125 88.132812 C 59.261719 88 59.3125 87.84375 59.417969 87.78125 L 61.761719 86.605469 "/>
<path style=" stroke:none;fill-rule:evenodd;fill:url(#linear10);" d="M 61.738281 86.597656 C 61.84375 86.511719 62.003906 86.566406 62.089844 86.699219 C 62.144531 86.800781 62.089844 86.96875 61.960938 87.039062 L 59.675781 88.238281 C 59.535156 88.300781 59.355469 88.238281 59.3125 88.132812 C 59.261719 88 59.3125 87.84375 59.417969 87.78125 L 61.761719 86.605469 "/>
<path style=" stroke:none;fill-rule:evenodd;fill:rgb(99.215686%,78.823529%,5.098039%);fill-opacity:1;" d="M 61.078125 85.171875 C 61.21875 85.121094 61.378906 85.171875 61.429688 85.316406 C 61.496094 85.449219 61.410156 85.59375 61.292969 85.644531 L 58.867188 86.597656 C 58.71875 86.65625 58.570312 86.597656 58.515625 86.453125 C 58.460938 86.328125 58.535156 86.183594 58.664062 86.140625 L 61.089844 85.183594 "/>
<path style=" stroke:none;fill-rule:evenodd;fill:url(#linear11);" d="M 61.078125 85.171875 C 61.21875 85.121094 61.378906 85.171875 61.429688 85.316406 C 61.496094 85.449219 61.410156 85.59375 61.292969 85.644531 L 58.867188 86.597656 C 58.71875 86.65625 58.570312 86.597656 58.515625 86.453125 C 58.460938 86.328125 58.535156 86.183594 58.664062 86.140625 L 61.089844 85.183594 "/>
<path style=" stroke:none;fill-rule:evenodd;fill:rgb(99.215686%,78.823529%,5.098039%);fill-opacity:1;" d="M 60.632812 83.800781 C 60.78125 83.746094 60.910156 83.828125 60.953125 83.972656 C 60.996094 84.109375 60.898438 84.242188 60.769531 84.285156 L 58.238281 84.964844 C 58.101562 84.996094 57.953125 84.914062 57.917969 84.78125 C 57.886719 84.644531 57.972656 84.511719 58.101562 84.46875 L 60.613281 83.800781 "/>
<path style=" stroke:none;fill-rule:evenodd;fill:url(#linear12);" d="M 60.632812 83.800781 C 60.78125 83.746094 60.910156 83.828125 60.953125 83.972656 C 60.996094 84.109375 60.898438 84.242188 60.769531 84.285156 L 58.238281 84.964844 C 58.101562 84.996094 57.953125 84.914062 57.917969 84.78125 C 57.886719 84.644531 57.972656 84.511719 58.101562 84.46875 L 60.613281 83.800781 "/>
<path style=" stroke:none;fill-rule:evenodd;fill:rgb(99.215686%,78.823529%,5.098039%);fill-opacity:1;" d="M 60.378906 82.46875 C 60.515625 82.4375 60.652344 82.539062 60.675781 82.675781 C 60.695312 82.820312 60.601562 82.941406 60.460938 82.960938 L 57.878906 83.335938 C 57.71875 83.335938 57.578125 83.230469 57.558594 83.109375 C 57.535156 82.972656 57.664062 82.839844 57.792969 82.828125 Z M 60.378906 82.46875 "/>
<path style=" stroke:none;fill-rule:evenodd;fill:url(#linear13);" d="M 60.378906 82.46875 C 60.515625 82.4375 60.652344 82.539062 60.675781 82.675781 C 60.695312 82.820312 60.601562 82.941406 60.460938 82.960938 L 57.878906 83.335938 C 57.71875 83.335938 57.578125 83.230469 57.558594 83.109375 C 57.535156 82.972656 57.664062 82.839844 57.792969 82.828125 Z M 60.378906 82.46875 "/>
<path style=" stroke:none;fill-rule:evenodd;fill:rgb(99.215686%,78.823529%,5.098039%);fill-opacity:1;" d="M 60.324219 81.21875 C 60.472656 81.21875 60.589844 81.320312 60.601562 81.464844 C 60.601562 81.621094 60.460938 81.722656 60.324219 81.734375 L 57.707031 81.734375 C 57.558594 81.734375 57.453125 81.601562 57.453125 81.464844 C 57.453125 81.320312 57.578125 81.21875 57.71875 81.21875 L 60.34375 81.21875 "/>
<path style=" stroke:none;fill-rule:evenodd;fill:url(#linear14);" d="M 60.324219 81.21875 C 60.472656 81.21875 60.589844 81.320312 60.601562 81.464844 C 60.601562 81.621094 60.460938 81.722656 60.324219 81.734375 L 57.707031 81.734375 C 57.558594 81.734375 57.453125 81.601562 57.453125 81.464844 C 57.453125 81.320312 57.578125 81.21875 57.71875 81.21875 L 60.34375 81.21875 "/>
<path style=" stroke:none;fill-rule:evenodd;fill:rgb(99.215686%,78.823529%,5.098039%);fill-opacity:1;" d="M 60.460938 80.082031 C 60.621094 80.105469 60.707031 80.238281 60.675781 80.394531 C 60.675781 80.515625 60.503906 80.597656 60.378906 80.578125 L 57.824219 80.144531 C 57.664062 80.113281 57.570312 79.96875 57.609375 79.835938 C 57.609375 79.703125 57.761719 79.628906 57.898438 79.628906 Z M 60.460938 80.082031 "/>
<path style=" stroke:none;fill-rule:evenodd;fill:url(#linear15);" d="M 60.460938 80.082031 C 60.621094 80.105469 60.707031 80.238281 60.675781 80.394531 C 60.675781 80.515625 60.503906 80.597656 60.378906 80.578125 L 57.824219 80.144531 C 57.664062 80.113281 57.570312 79.96875 57.609375 79.835938 C 57.609375 79.703125 57.761719 79.628906 57.898438 79.628906 Z M 60.460938 80.082031 "/>
<path style=" stroke:none;fill-rule:evenodd;fill:rgb(99.215686%,78.823529%,5.098039%);fill-opacity:1;" d="M 60.804688 79.082031 C 60.953125 79.132812 61.015625 79.289062 60.960938 79.414062 C 60.898438 79.546875 60.75 79.597656 60.621094 79.558594 L 58.175781 78.628906 C 58.046875 78.578125 57.984375 78.421875 58.035156 78.320312 C 58.089844 78.175781 58.25 78.113281 58.378906 78.164062 Z M 60.804688 79.082031 "/>
<path style=" stroke:none;fill-rule:evenodd;fill:url(#linear16);" d="M 60.804688 79.082031 C 60.953125 79.132812 61.015625 79.289062 60.960938 79.414062 C 60.898438 79.546875 60.75 79.597656 60.621094 79.558594 L 58.175781 78.628906 C 58.046875 78.578125 57.984375 78.421875 58.035156 78.320312 C 58.089844 78.175781 58.25 78.113281 58.378906 78.164062 Z M 60.804688 79.082031 "/>
<path style=" stroke:none;fill-rule:evenodd;fill:rgb(99.215686%,78.823529%,5.098039%);fill-opacity:1;" d="M 61.34375 78.234375 C 61.472656 78.308594 61.484375 78.472656 61.410156 78.585938 C 61.304688 78.691406 61.152344 78.722656 61.027344 78.660156 L 58.867188 77.214844 C 58.761719 77.140625 58.71875 76.976562 58.800781 76.863281 C 58.878906 76.761719 59.046875 76.730469 59.164062 76.800781 Z M 61.34375 78.234375 "/>
<path style=" stroke:none;fill-rule:evenodd;fill:url(#linear17);" d="M 61.34375 78.234375 C 61.472656 78.308594 61.484375 78.472656 61.410156 78.585938 C 61.304688 78.691406 61.152344 78.722656 61.027344 78.660156 L 58.867188 77.214844 C 58.761719 77.140625 58.71875 76.976562 58.800781 76.863281 C 58.878906 76.761719 59.046875 76.730469 59.164062 76.800781 Z M 61.34375 78.234375 "/>
<path style=" stroke:none;fill-rule:evenodd;fill:rgb(99.215686%,78.823529%,5.098039%);fill-opacity:1;" d="M 62.058594 77.511719 C 62.164062 77.617188 62.144531 77.773438 62.035156 77.875 C 61.929688 77.976562 61.769531 77.957031 61.664062 77.855469 L 59.886719 75.996094 C 59.78125 75.894531 59.8125 75.738281 59.910156 75.644531 C 60.015625 75.542969 60.175781 75.5625 60.261719 75.644531 L 62.070312 77.523438 "/>
<path style=" stroke:none;fill-rule:evenodd;fill:url(#linear18);" d="M 62.058594 77.511719 C 62.164062 77.617188 62.144531 77.773438 62.035156 77.875 C 61.929688 77.976562 61.769531 77.957031 61.664062 77.855469 L 59.886719 75.996094 C 59.78125 75.894531 59.8125 75.738281 59.910156 75.644531 C 60.015625 75.542969 60.175781 75.5625 60.261719 75.644531 L 62.070312 77.523438 "/>
<path style=" stroke:none;fill-rule:evenodd;fill:rgb(99.215686%,78.823529%,5.098039%);fill-opacity:1;" d="M 62.984375 76.914062 C 63.070312 77.050781 63.015625 77.195312 62.898438 77.277344 C 62.738281 77.339844 62.578125 77.296875 62.527344 77.171875 L 61.207031 74.976562 C 61.144531 74.839844 61.207031 74.695312 61.3125 74.613281 C 61.441406 74.550781 61.601562 74.613281 61.664062 74.71875 Z M 62.984375 76.914062 "/>
<path style=" stroke:none;fill-rule:evenodd;fill:url(#linear19);" d="M 62.984375 76.914062 C 63.070312 77.050781 63.015625 77.195312 62.898438 77.277344 C 62.738281 77.339844 62.578125 77.296875 62.527344 77.171875 L 61.207031 74.976562 C 61.144531 74.839844 61.207031 74.695312 61.3125 74.613281 C 61.441406 74.550781 61.601562 74.613281 61.664062 74.71875 Z M 62.984375 76.914062 "/>
<path style=" stroke:none;fill-rule:evenodd;fill:rgb(99.215686%,78.823529%,5.098039%);fill-opacity:1;" d="M 64.1875 76.460938 C 64.238281 76.59375 64.144531 76.730469 64.015625 76.769531 C 63.878906 76.832031 63.738281 76.75 63.695312 76.625 L 62.84375 74.210938 C 62.8125 74.066406 62.886719 73.933594 63.027344 73.878906 C 63.164062 73.839844 63.3125 73.921875 63.347656 74.046875 L 64.195312 76.460938 "/>
<path style=" stroke:none;fill-rule:evenodd;fill:url(#linear20);" d="M 64.1875 76.460938 C 64.238281 76.59375 64.144531 76.730469 64.015625 76.769531 C 63.878906 76.832031 63.738281 76.75 63.695312 76.625 L 62.84375 74.210938 C 62.8125 74.066406 62.886719 73.933594 63.027344 73.878906 C 63.164062 73.839844 63.3125 73.921875 63.347656 74.046875 L 64.195312 76.460938 "/>
<path style=" stroke:none;fill-rule:evenodd;fill:rgb(99.215686%,78.823529%,5.098039%);fill-opacity:1;" d="M 81.421875 112.417969 C 81.316406 112.542969 81.15625 112.550781 81.039062 112.449219 C 80.953125 112.347656 80.964844 112.191406 81.039062 112.097656 L 82.847656 110.242188 C 82.953125 110.15625 83.144531 110.15625 83.210938 110.261719 C 83.335938 110.34375 83.335938 110.519531 83.210938 110.613281 Z M 81.421875 112.417969 "/>
<path style=" stroke:none;fill-rule:evenodd;fill:url(#linear21);" d="M 81.421875 112.417969 C 81.316406 112.542969 81.15625 112.550781 81.039062 112.449219 C 80.953125 112.347656 80.964844 112.191406 81.039062 112.097656 L 82.847656 110.242188 C 82.953125 110.15625 83.144531 110.15625 83.210938 110.261719 C 83.335938 110.34375 83.335938 110.519531 83.210938 110.613281 Z M 81.421875 112.417969 "/>
<path style=" stroke:none;fill-rule:evenodd;fill:rgb(99.215686%,78.823529%,5.098039%);fill-opacity:1;" d="M 82.65625 113.789062 C 82.550781 113.894531 82.378906 113.875 82.273438 113.761719 C 82.199219 113.65625 82.242188 113.503906 82.328125 113.410156 L 84.347656 111.820312 C 84.476562 111.714844 84.667969 111.757812 84.71875 111.859375 C 84.824219 111.964844 84.804688 112.128906 84.6875 112.210938 L 82.667969 113.789062 "/>
<path style=" stroke:none;fill-rule:evenodd;fill:url(#linear22);" d="M 82.65625 113.789062 C 82.550781 113.894531 82.378906 113.875 82.273438 113.761719 C 82.199219 113.65625 82.242188 113.503906 82.328125 113.410156 L 84.347656 111.820312 C 84.476562 111.714844 84.667969 111.757812 84.71875 111.859375 C 84.824219 111.964844 84.804688 112.128906 84.6875 112.210938 L 82.667969 113.789062 "/>
<path style=" stroke:none;fill-rule:evenodd;fill:rgb(99.215686%,78.823529%,5.098039%);fill-opacity:1;" d="M 83.519531 115.070312 C 83.410156 115.152344 83.25 115.121094 83.15625 115 C 83.09375 114.875 83.15625 114.71875 83.261719 114.648438 L 85.496094 113.347656 C 85.636719 113.273438 85.816406 113.328125 85.847656 113.449219 C 85.953125 113.574219 85.902344 113.71875 85.773438 113.800781 Z M 83.519531 115.070312 "/>
<path style=" stroke:none;fill-rule:evenodd;fill:url(#linear23);" d="M 83.519531 115.070312 C 83.410156 115.152344 83.25 115.121094 83.15625 115 C 83.09375 114.875 83.15625 114.71875 83.261719 114.648438 L 85.496094 113.347656 C 85.636719 113.273438 85.816406 113.328125 85.847656 113.449219 C 85.953125 113.574219 85.902344 113.71875 85.773438 113.800781 Z M 83.519531 115.070312 "/>
<path style=" stroke:none;fill-rule:evenodd;fill:rgb(99.215686%,78.823529%,5.098039%);fill-opacity:1;" d="M 84.113281 116.339844 C 83.984375 116.390625 83.828125 116.339844 83.773438 116.195312 C 83.742188 116.070312 83.816406 115.917969 83.921875 115.867188 L 86.347656 114.917969 C 86.496094 114.863281 86.667969 114.9375 86.6875 115.058594 C 86.761719 115.195312 86.6875 115.339844 86.550781 115.390625 L 84.136719 116.320312 "/>
<path style=" stroke:none;fill-rule:evenodd;fill:url(#linear24);" d="M 84.113281 116.339844 C 83.984375 116.390625 83.828125 116.339844 83.773438 116.195312 C 83.742188 116.070312 83.816406 115.917969 83.921875 115.867188 L 86.347656 114.917969 C 86.496094 114.863281 86.667969 114.9375 86.6875 115.058594 C 86.761719 115.195312 86.6875 115.339844 86.550781 115.390625 L 84.136719 116.320312 "/>
<path style=" stroke:none;fill-rule:evenodd;fill:rgb(99.215686%,78.823529%,5.098039%);fill-opacity:1;" d="M 84.464844 117.539062 C 84.328125 117.570312 84.199219 117.496094 84.144531 117.351562 C 84.113281 117.21875 84.21875 117.09375 84.335938 117.042969 L 86.890625 116.472656 C 87.039062 116.453125 87.1875 116.546875 87.210938 116.679688 C 87.253906 116.824219 87.15625 116.949219 86.996094 116.992188 Z M 84.464844 117.539062 "/>
<path style=" stroke:none;fill-rule:evenodd;fill:url(#linear25);" d="M 84.464844 117.539062 C 84.328125 117.570312 84.199219 117.496094 84.144531 117.351562 C 84.113281 117.21875 84.21875 117.09375 84.335938 117.042969 L 86.890625 116.472656 C 87.039062 116.453125 87.1875 116.546875 87.210938 116.679688 C 87.253906 116.824219 87.15625 116.949219 86.996094 116.992188 Z M 84.464844 117.539062 "/>
<path style=" stroke:none;fill-rule:evenodd;fill:rgb(99.215686%,78.823529%,5.098039%);fill-opacity:1;" d="M 84.59375 118.695312 C 84.441406 118.714844 84.328125 118.609375 84.304688 118.464844 C 84.304688 118.320312 84.433594 118.207031 84.558594 118.199219 L 87.175781 118.042969 C 87.328125 118.042969 87.453125 118.144531 87.445312 118.289062 C 87.476562 118.425781 87.359375 118.527344 87.210938 118.539062 L 84.601562 118.683594 "/>
<path style=" stroke:none;fill-rule:evenodd;fill:url(#linear26);" d="M 84.59375 118.695312 C 84.441406 118.714844 84.328125 118.609375 84.304688 118.464844 C 84.304688 118.320312 84.433594 118.207031 84.558594 118.199219 L 87.175781 118.042969 C 87.328125 118.042969 87.453125 118.144531 87.445312 118.289062 C 87.476562 118.425781 87.359375 118.527344 87.210938 118.539062 L 84.601562 118.683594 "/>
<path style=" stroke:none;fill-rule:evenodd;fill:rgb(99.215686%,78.823529%,5.098039%);fill-opacity:1;" d="M 84.507812 119.789062 C 84.378906 119.789062 84.273438 119.664062 84.292969 119.507812 C 84.292969 119.382812 84.441406 119.300781 84.570312 119.300781 L 87.175781 119.558594 C 87.335938 119.558594 87.445312 119.714844 87.410156 119.839844 C 87.410156 119.972656 87.273438 120.078125 87.136719 120.046875 L 84.527344 119.777344 "/>
<path style=" stroke:none;fill-rule:evenodd;fill:url(#linear27);" d="M 84.507812 119.789062 C 84.378906 119.789062 84.273438 119.664062 84.292969 119.507812 C 84.292969 119.382812 84.441406 119.300781 84.570312 119.300781 L 87.175781 119.558594 C 87.335938 119.558594 87.445312 119.714844 87.410156 119.839844 C 87.410156 119.972656 87.273438 120.078125 87.136719 120.046875 L 84.527344 119.777344 "/>
<path style=" stroke:none;fill-rule:evenodd;fill:rgb(99.215686%,78.823529%,5.098039%);fill-opacity:1;" d="M 84.292969 120.828125 C 84.125 120.789062 84.058594 120.65625 84.082031 120.519531 C 84.125 120.375 84.292969 120.3125 84.402344 120.335938 L 86.933594 121.003906 C 87.070312 121.046875 87.167969 121.191406 87.101562 121.316406 C 87.082031 121.460938 86.933594 121.519531 86.785156 121.5 L 84.285156 120.828125 "/>
<path style=" stroke:none;fill-rule:evenodd;fill:url(#linear28);" d="M 84.292969 120.828125 C 84.125 120.789062 84.058594 120.65625 84.082031 120.519531 C 84.125 120.375 84.292969 120.3125 84.402344 120.335938 L 86.933594 121.003906 C 87.070312 121.046875 87.167969 121.191406 87.101562 121.316406 C 87.082031 121.460938 86.933594 121.519531 86.785156 121.5 L 84.285156 120.828125 "/>
<path style=" stroke:none;fill-rule:evenodd;fill:rgb(99.215686%,78.823529%,5.098039%);fill-opacity:1;" d="M 83.867188 121.777344 C 83.761719 121.738281 83.6875 121.574219 83.761719 121.449219 C 83.804688 121.324219 83.976562 121.285156 84.082031 121.324219 L 86.476562 122.355469 C 86.613281 122.429688 86.667969 122.59375 86.601562 122.707031 C 86.550781 122.84375 86.390625 122.882812 86.25 122.832031 L 83.878906 121.769531 "/>
<path style=" stroke:none;fill-rule:evenodd;fill:url(#linear29);" d="M 83.867188 121.777344 C 83.761719 121.738281 83.6875 121.574219 83.761719 121.449219 C 83.804688 121.324219 83.976562 121.285156 84.082031 121.324219 L 86.476562 122.355469 C 86.613281 122.429688 86.667969 122.59375 86.601562 122.707031 C 86.550781 122.84375 86.390625 122.882812 86.25 122.832031 L 83.878906 121.769531 "/>
<path style=" stroke:none;fill-rule:evenodd;fill:rgb(99.215686%,78.823529%,5.098039%);fill-opacity:1;" d="M 83.335938 122.65625 C 83.210938 122.585938 83.175781 122.429688 83.25 122.304688 C 83.335938 122.183594 83.507812 122.171875 83.625 122.234375 L 85.804688 123.625 C 85.933594 123.730469 85.964844 123.882812 85.878906 123.988281 C 85.792969 124.113281 85.625 124.140625 85.519531 124.058594 L 83.328125 122.667969 "/>
<path style=" stroke:none;fill-rule:evenodd;fill:url(#linear30);" d="M 83.335938 122.65625 C 83.210938 122.585938 83.175781 122.429688 83.25 122.304688 C 83.335938 122.183594 83.507812 122.171875 83.625 122.234375 L 85.804688 123.625 C 85.933594 123.730469 85.964844 123.882812 85.878906 123.988281 C 85.792969 124.113281 85.625 124.140625 85.519531 124.058594 L 83.328125 122.667969 "/>
<path style=" stroke:none;fill-rule:evenodd;fill:rgb(99.215686%,78.823529%,5.098039%);fill-opacity:1;" d="M 82.675781 123.429688 C 82.550781 123.328125 82.550781 123.183594 82.644531 123.070312 C 82.75 122.964844 82.910156 122.964844 83.015625 123.070312 L 84.964844 124.742188 C 85.070312 124.84375 85.09375 125.019531 84.984375 125.101562 C 84.878906 125.207031 84.71875 125.207031 84.625 125.101562 L 82.6875 123.421875 "/>
<path style=" stroke:none;fill-rule:evenodd;fill:url(#linear31);" d="M 82.675781 123.429688 C 82.550781 123.328125 82.550781 123.183594 82.644531 123.070312 C 82.75 122.964844 82.910156 122.964844 83.015625 123.070312 L 84.964844 124.742188 C 85.070312 124.84375 85.09375 125.019531 84.984375 125.101562 C 84.878906 125.207031 84.71875 125.207031 84.625 125.101562 L 82.6875 123.421875 "/>
<path style=" stroke:none;fill-rule:evenodd;fill:rgb(99.215686%,78.823529%,5.098039%);fill-opacity:1;" d="M 81.902344 124.082031 C 81.792969 123.976562 81.824219 123.832031 81.941406 123.730469 C 82.050781 123.648438 82.199219 123.679688 82.292969 123.78125 L 83.953125 125.742188 C 84.039062 125.84375 84.019531 126.019531 83.902344 126.105469 C 83.792969 126.207031 83.632812 126.164062 83.550781 126.0625 L 81.878906 124.101562 "/>
<path style=" stroke:none;fill-rule:evenodd;fill:url(#linear32);" d="M 81.902344 124.082031 C 81.792969 123.976562 81.824219 123.832031 81.941406 123.730469 C 82.050781 123.648438 82.199219 123.679688 82.292969 123.78125 L 83.953125 125.742188 C 84.039062 125.84375 84.019531 126.019531 83.902344 126.105469 C 83.792969 126.207031 83.632812 126.164062 83.550781 126.0625 L 81.878906 124.101562 "/>
<path style=" stroke:none;fill-rule:evenodd;fill:rgb(99.215686%,78.823529%,5.098039%);fill-opacity:1;" d="M 81.039062 124.636719 C 80.964844 124.503906 81.007812 124.359375 81.144531 124.277344 C 81.273438 124.195312 81.421875 124.246094 81.496094 124.378906 L 82.835938 126.546875 C 82.910156 126.671875 82.859375 126.835938 82.730469 126.886719 C 82.601562 126.96875 82.453125 126.917969 82.378906 126.804688 Z M 81.039062 124.636719 "/>
<path style=" stroke:none;fill-rule:evenodd;fill:url(#linear33);" d="M 81.039062 124.636719 C 80.964844 124.503906 81.007812 124.359375 81.144531 124.277344 C 81.273438 124.195312 81.421875 124.246094 81.496094 124.378906 L 82.835938 126.546875 C 82.910156 126.671875 82.859375 126.835938 82.730469 126.886719 C 82.601562 126.96875 82.453125 126.917969 82.378906 126.804688 Z M 81.039062 124.636719 "/>
<path style=" stroke:none;fill-rule:evenodd;fill:rgb(99.215686%,78.823529%,5.098039%);fill-opacity:1;" d="M 80.125 125.03125 C 80.058594 124.90625 80.125 124.75 80.261719 124.699219 C 80.421875 124.636719 80.558594 124.722656 80.613281 124.84375 L 81.570312 127.199219 C 81.632812 127.332031 81.570312 127.488281 81.433594 127.527344 C 81.304688 127.589844 81.15625 127.527344 81.113281 127.402344 Z M 80.125 125.03125 "/>
<path style=" stroke:none;fill-rule:evenodd;fill:url(#linear34);" d="M 80.125 125.03125 C 80.058594 124.90625 80.125 124.75 80.261719 124.699219 C 80.421875 124.636719 80.558594 124.722656 80.613281 124.84375 L 81.570312 127.199219 C 81.632812 127.332031 81.570312 127.488281 81.433594 127.527344 C 81.304688 127.589844 81.15625 127.527344 81.113281 127.402344 Z M 80.125 125.03125 "/>
<path style=" stroke:none;fill-rule:evenodd;fill:rgb(99.215686%,78.823529%,5.098039%);fill-opacity:1;" d="M 79.15625 125.277344 C 79.101562 125.132812 79.199219 125 79.347656 124.96875 C 79.484375 124.949219 79.613281 125.03125 79.644531 125.175781 L 80.21875 127.652344 C 80.25 127.796875 80.144531 127.921875 80.007812 127.960938 C 79.878906 127.980469 79.75 127.890625 79.707031 127.753906 Z M 79.15625 125.277344 "/>
<path style=" stroke:none;fill-rule:evenodd;fill:url(#linear35);" d="M 79.15625 125.277344 C 79.101562 125.132812 79.199219 125 79.347656 124.96875 C 79.484375 124.949219 79.613281 125.03125 79.644531 125.175781 L 80.21875 127.652344 C 80.25 127.796875 80.144531 127.921875 80.007812 127.960938 C 79.878906 127.980469 79.75 127.890625 79.707031 127.753906 Z M 79.15625 125.277344 "/>
<path style=" stroke:none;fill-rule:evenodd;fill:rgb(99.215686%,78.823529%,5.098039%);fill-opacity:1;" d="M 78.144531 125.359375 C 78.125 125.214844 78.230469 125.101562 78.390625 125.09375 C 78.539062 125.09375 78.644531 125.195312 78.65625 125.339844 L 78.785156 127.867188 C 78.785156 128.023438 78.675781 128.148438 78.539062 128.148438 C 78.378906 128.148438 78.261719 128.023438 78.261719 127.910156 L 78.132812 125.371094 "/>
<path style=" stroke:none;fill-rule:evenodd;fill:url(#linear36);" d="M 78.144531 125.359375 C 78.125 125.214844 78.230469 125.101562 78.390625 125.09375 C 78.539062 125.09375 78.644531 125.195312 78.65625 125.339844 L 78.785156 127.867188 C 78.785156 128.023438 78.675781 128.148438 78.539062 128.148438 C 78.378906 128.148438 78.261719 128.023438 78.261719 127.910156 L 78.132812 125.371094 "/>
<path style=" stroke:none;fill-rule:evenodd;fill:rgb(99.215686%,78.823529%,5.098039%);fill-opacity:1;" d="M 77.125 125.277344 C 77.125 125.121094 77.261719 125.050781 77.410156 125.070312 C 77.570312 125.070312 77.644531 125.207031 77.625 125.351562 L 77.304688 127.847656 C 77.28125 128.003906 77.144531 128.105469 77.015625 128.085938 C 76.867188 128.085938 76.773438 127.929688 76.78125 127.808594 L 77.125 125.289062 "/>
<path style=" stroke:none;fill-rule:evenodd;fill:url(#linear37);" d="M 77.125 125.277344 C 77.125 125.121094 77.261719 125.050781 77.410156 125.070312 C 77.570312 125.070312 77.644531 125.207031 77.625 125.351562 L 77.304688 127.847656 C 77.28125 128.003906 77.144531 128.105469 77.015625 128.085938 C 76.867188 128.085938 76.773438 127.929688 76.78125 127.808594 L 77.125 125.289062 "/>
<path style=" stroke:none;fill-rule:evenodd;fill:rgb(99.215686%,78.823529%,5.098039%);fill-opacity:1;" d="M 76.101562 125.007812 C 76.125 124.875 76.273438 124.804688 76.421875 124.84375 C 76.550781 124.886719 76.613281 125.03125 76.570312 125.152344 L 75.804688 127.570312 C 75.773438 127.734375 75.589844 127.796875 75.484375 127.753906 C 75.335938 127.714844 75.273438 127.570312 75.304688 127.445312 Z M 76.101562 125.007812 "/>
<path style=" stroke:none;fill-rule:evenodd;fill:url(#linear38);" d="M 76.101562 125.007812 C 76.125 124.875 76.273438 124.804688 76.421875 124.84375 C 76.550781 124.886719 76.613281 125.03125 76.570312 125.152344 L 75.804688 127.570312 C 75.773438 127.734375 75.589844 127.796875 75.484375 127.753906 C 75.335938 127.714844 75.273438 127.570312 75.304688 127.445312 Z M 76.101562 125.007812 "/>
<path style=" stroke:none;fill-rule:evenodd;fill:rgb(99.215686%,78.823529%,5.098039%);fill-opacity:1;" d="M 75.039062 124.554688 C 75.101562 124.402344 75.273438 124.378906 75.398438 124.433594 C 75.539062 124.503906 75.570312 124.636719 75.507812 124.78125 L 74.316406 127.03125 C 74.242188 127.167969 74.101562 127.21875 73.953125 127.136719 C 73.824219 127.09375 73.792969 126.929688 73.847656 126.824219 Z M 75.039062 124.554688 "/>
<path style=" stroke:none;fill-rule:evenodd;fill:url(#linear39);" d="M 75.039062 124.554688 C 75.101562 124.402344 75.273438 124.378906 75.398438 124.433594 C 75.539062 124.503906 75.570312 124.636719 75.507812 124.78125 L 74.316406 127.03125 C 74.242188 127.167969 74.101562 127.21875 73.953125 127.136719 C 73.824219 127.09375 73.792969 126.929688 73.847656 126.824219 Z M 75.039062 124.554688 "/>
<path style=" stroke:none;fill-rule:evenodd;fill:rgb(99.215686%,78.823529%,5.098039%);fill-opacity:1;" d="M 55.460938 123.253906 L 56.417969 124.78125 L 60.953125 124.347656 L 63.953125 123.65625 L 64.675781 122.109375 L 63.078125 118.085938 L 58.800781 116.257812 L 55.003906 118.496094 L 55.453125 123.246094 Z M 55.867188 126.867188 C 55.503906 126.867188 55.164062 126.679688 54.984375 126.371094 L 53.558594 124.101562 C 53.472656 123.976562 53.429688 123.832031 53.417969 123.6875 L 52.886719 118.0625 C 52.855469 117.683594 53.046875 117.308594 53.386719 117.113281 L 58.195312 114.277344 C 58.484375 114.101562 58.835938 114.070312 59.152344 114.214844 L 64.335938 116.421875 C 64.589844 116.527344 64.78125 116.730469 64.886719 116.992188 L 66.78125 121.777344 C 66.867188 122.027344 66.855469 122.296875 66.75 122.542969 L 65.644531 124.957031 C 65.515625 125.238281 65.25 125.453125 64.929688 125.527344 L 61.28125 126.332031 L 55.960938 126.847656 L 55.855469 126.847656 Z M 55.867188 126.867188 "/>
<path style=" stroke:none;fill-rule:evenodd;fill:url(#linear40);" d="M 55.460938 123.253906 L 56.417969 124.78125 L 60.953125 124.347656 L 63.953125 123.65625 L 64.675781 122.109375 L 63.078125 118.085938 L 58.800781 116.257812 L 55.003906 118.496094 L 55.453125 123.246094 Z M 55.867188 126.867188 C 55.503906 126.867188 55.164062 126.679688 54.984375 126.371094 L 53.558594 124.101562 C 53.472656 123.976562 53.429688 123.832031 53.417969 123.6875 L 52.886719 118.0625 C 52.855469 117.683594 53.046875 117.308594 53.386719 117.113281 L 58.195312 114.277344 C 58.484375 114.101562 58.835938 114.070312 59.152344 114.214844 L 64.335938 116.421875 C 64.589844 116.527344 64.78125 116.730469 64.886719 116.992188 L 66.78125 121.777344 C 66.867188 122.027344 66.855469 122.296875 66.75 122.542969 L 65.644531 124.957031 C 65.515625 125.238281 65.25 125.453125 64.929688 125.527344 L 61.28125 126.332031 L 55.960938 126.847656 L 55.855469 126.847656 Z M 55.867188 126.867188 "/>
<path style=" stroke:none;fill-rule:evenodd;fill:rgb(99.215686%,78.823529%,5.098039%);fill-opacity:1;" d="M 56.589844 116.371094 L 54.183594 93.5 C 54.183594 93.5 60.3125 92.746094 62.058594 93.171875 L 62.058594 116.703125 "/>
<path style=" stroke:none;fill-rule:evenodd;fill:url(#linear41);" d="M 56.589844 116.371094 L 54.183594 93.5 C 54.183594 93.5 60.3125 92.746094 62.058594 93.171875 L 62.058594 116.703125 "/>
<path style=" stroke:none;fill-rule:evenodd;fill:rgb(99.215686%,78.823529%,5.098039%);fill-opacity:1;" d="M 72.761719 129.34375 C 70.484375 129.34375 68.546875 128.125 68.292969 127.949219 L 67.546875 127.457031 L 66.984375 124.027344 L 66.238281 123.925781 L 66.855469 119.933594 L 70.625 120.488281 L 71.347656 124.980469 C 71.984375 125.238281 72.816406 125.441406 73.367188 125.183594 C 73.964844 124.917969 74.433594 124.019531 74.730469 122.667969 L 72.515625 120.683594 L 72.28125 117.898438 C 72.238281 117.382812 72.027344 113.109375 74.816406 110.386719 C 75.855469 109.351562 77.742188 108.15625 80.847656 108.320312 L 81.570312 108.339844 L 82.125 108.816406 C 82.167969 108.867188 87.484375 113.335938 93.273438 113.027344 C 99.125 112.738281 103.808594 111.511719 104.582031 111.273438 L 126.246094 101.777344 L 127.980469 105.441406 L 105.902344 115.113281 C 105.691406 115.183594 100.390625 116.703125 93.476562 117.050781 C 87.304688 117.363281 81.804688 113.707031 80.007812 112.347656 C 79.050781 112.398438 78.304688 112.6875 77.773438 113.214844 C 76.496094 114.453125 76.367188 116.855469 76.410156 117.597656 L 76.515625 118.808594 L 79.125 121.160156 L 78.996094 122.191406 C 78.589844 125.648438 77.273438 127.898438 75.113281 128.878906 C 74.324219 129.21875 73.539062 129.363281 72.773438 129.363281 "/>
<path style=" stroke:none;fill-rule:evenodd;fill:url(#linear42);" d="M 72.761719 129.34375 C 70.484375 129.34375 68.546875 128.125 68.292969 127.949219 L 67.546875 127.457031 L 66.984375 124.027344 L 66.238281 123.925781 L 66.855469 119.933594 L 70.625 120.488281 L 71.347656 124.980469 C 71.984375 125.238281 72.816406 125.441406 73.367188 125.183594 C 73.964844 124.917969 74.433594 124.019531 74.730469 122.667969 L 72.515625 120.683594 L 72.28125 117.898438 C 72.238281 117.382812 72.027344 113.109375 74.816406 110.386719 C 75.855469 109.351562 77.742188 108.15625 80.847656 108.320312 L 81.570312 108.339844 L 82.125 108.816406 C 82.167969 108.867188 87.484375 113.335938 93.273438 113.027344 C 99.125 112.738281 103.808594 111.511719 104.582031 111.273438 L 126.246094 101.777344 L 127.980469 105.441406 L 105.902344 115.113281 C 105.691406 115.183594 100.390625 116.703125 93.476562 117.050781 C 87.304688 117.363281 81.804688 113.707031 80.007812 112.347656 C 79.050781 112.398438 78.304688 112.6875 77.773438 113.214844 C 76.496094 114.453125 76.367188 116.855469 76.410156 117.597656 L 76.515625 118.808594 L 79.125 121.160156 L 78.996094 122.191406 C 78.589844 125.648438 77.273438 127.898438 75.113281 128.878906 C 74.324219 129.21875 73.539062 129.363281 72.773438 129.363281 "/>
<path style=" stroke:none;fill-rule:evenodd;fill:rgb(99.215686%,78.823529%,5.098039%);fill-opacity:1;" d="M 216.890625 44.054688 L 207.742188 51.453125 C 198.21875 58.855469 193.273438 50.628906 193.273438 50.628906 L 186.527344 48.59375 L 145.4375 89.628906 C 145.4375 89.628906 170.175781 88.183594 178.207031 78.867188 C 178.207031 78.867188 183.664062 73.808594 186.261719 61.703125 C 186.261719 61.703125 196.292969 60.691406 198.390625 60.691406 C 216.878906 60.691406 219.476562 53.117188 219.476562 53.117188 L 216.878906 44.035156 "/>
<path style=" stroke:none;fill-rule:evenodd;fill:url(#linear43);" d="M 216.890625 44.054688 L 207.742188 51.453125 C 198.21875 58.855469 193.273438 50.628906 193.273438 50.628906 L 186.527344 48.59375 L 145.4375 89.628906 C 145.4375 89.628906 170.175781 88.183594 178.207031 78.867188 C 178.207031 78.867188 183.664062 73.808594 186.261719 61.703125 C 186.261719 61.703125 196.292969 60.691406 198.390625 60.691406 C 216.878906 60.691406 219.476562 53.117188 219.476562 53.117188 L 216.878906 44.035156 "/>
<path style=" stroke:none;fill-rule:evenodd;fill:rgb(99.215686%,78.823529%,5.098039%);fill-opacity:1;" d="M 113.308594 131.582031 C 108.019531 131.582031 101.304688 130.890625 97.15625 127.867188 C 89.742188 122.460938 85.816406 113.699219 85.644531 113.316406 L 87.558594 112.523438 C 87.59375 112.625 91.433594 121.191406 98.390625 126.25 C 105.222656 131.222656 120.808594 129.097656 120.976562 129.074219 L 121.265625 131.078125 C 120.945312 131.121094 117.59375 131.59375 113.285156 131.59375 "/>
<path style=" stroke:none;fill-rule:evenodd;fill:url(#linear44);" d="M 113.308594 131.582031 C 108.019531 131.582031 101.304688 130.890625 97.15625 127.867188 C 89.742188 122.460938 85.816406 113.699219 85.644531 113.316406 L 87.558594 112.523438 C 87.59375 112.625 91.433594 121.191406 98.390625 126.25 C 105.222656 131.222656 120.808594 129.097656 120.976562 129.074219 L 121.265625 131.078125 C 120.945312 131.121094 117.59375 131.59375 113.285156 131.59375 "/>
<path style=" stroke:none;fill-rule:evenodd;fill:rgb(99.215686%,78.823529%,5.098039%);fill-opacity:1;" d="M 116.167969 131.46875 C 116.167969 131.46875 119.839844 124.78125 125.53125 130.582031 C 131.246094 136.382812 116.167969 131.46875 116.167969 131.46875 Z M 116.167969 131.46875 "/>
<path style=" stroke:none;fill-rule:evenodd;fill:url(#linear45);" d="M 116.167969 131.46875 C 116.167969 131.46875 119.839844 124.78125 125.53125 130.582031 C 131.246094 136.382812 116.167969 131.46875 116.167969 131.46875 Z M 116.167969 131.46875 "/>
<path style=" stroke:none;fill-rule:evenodd;fill:rgb(99.215686%,78.823529%,5.098039%);fill-opacity:1;" d="M 119.660156 75.5 C 119.660156 75.5 125.253906 77.9375 126.574219 82.394531 Z M 119.660156 75.5 "/>
<path style=" stroke:none;fill-rule:evenodd;fill:url(#linear46);" d="M 119.660156 75.5 C 119.660156 75.5 125.253906 77.9375 126.574219 82.394531 Z M 119.660156 75.5 "/>
<path style=" stroke:none;fill-rule:evenodd;fill:rgb(99.215686%,78.823529%,5.098039%);fill-opacity:1;" d="M 225.945312 13.855469 L 225.304688 10.933594 L 222.753906 12.605469 C 213.710938 18.488281 202.644531 24.960938 200.539062 25.125 C 196.867188 25.125 187.046875 25.847656 186.621094 25.890625 L 186.335938 25.929688 C 179.652344 27.417969 175.960938 29.820312 175.058594 33.300781 C 174.132812 36.859375 176.632812 39.988281 177.972656 41.351562 C 177.589844 49.398438 172.015625 56.261719 170.257812 58.222656 C 161.820312 58.875 157.226562 64.796875 155.417969 67.792969 C 139.214844 62.734375 122.328125 71.632812 119.085938 73.46875 L 103.574219 73.46875 L 103.304688 73.488281 C 102.5625 73.570312 85.433594 75.757812 76.625 80.433594 C 70.496094 83.683594 68.890625 89.660156 68.539062 93.769531 C 65.589844 91.933594 61.121094 89.847656 56.546875 90.394531 C 52.824219 90.828125 49.683594 92.839844 47.238281 96.378906 C 45.917969 98.339844 44.015625 104.429688 45.429688 110.394531 C 46.472656 114.761719 49.132812 118.269531 53.121094 120.539062 L 55.21875 117.03125 C 52.195312 115.328125 50.28125 112.78125 49.503906 109.476562 C 48.367188 104.75 49.910156 99.796875 50.71875 98.621094 C 52.472656 96.070312 54.527344 94.699219 57.035156 94.386719 C 62.921875 93.695312 69.21875 99.269531 69.292969 99.320312 L 73.546875 103.140625 L 72.761719 97.566406 C 72.761719 97.464844 71.441406 87.761719 78.613281 83.972656 C 86.359375 79.867188 102.125 77.699219 103.722656 77.492188 L 120.253906 77.492188 L 120.765625 77.183594 C 120.945312 77.058594 139.492188 66.035156 155.683594 72.125 L 157.546875 72.828125 L 158.34375 71.042969 C 158.503906 70.691406 162.238281 62.476562 171.289062 62.167969 L 172.121094 62.144531 L 172.695312 61.558594 C 173.078125 61.175781 182.109375 52.011719 182.109375 40.484375 L 182.109375 39.554688 L 181.398438 38.957031 C 180.78125 38.4375 178.578125 36.097656 179.058594 34.25 C 179.324219 33.21875 180.726562 31.296875 187.089844 29.863281 C 188.367188 29.757812 197.261719 29.140625 200.527344 29.140625 C 203.207031 29.140625 211.027344 24.683594 217.601562 20.636719 C 215.496094 22.867188 212.335938 25.722656 207.601562 29.285156 C 207.039062 29.699219 206.675781 29.964844 206.539062 30.046875 L 205.527344 30.8125 L 205.847656 33.132812 L 206.941406 33.589844 C 207.761719 33.898438 208.261719 33.796875 209.070312 33.277344 C 209.367188 33.074219 209.710938 32.804688 210.136719 32.484375 C 225.988281 20.617188 226.230469 15.21875 225.945312 13.84375 "/>
<path style=" stroke:none;fill-rule:evenodd;fill:url(#linear47);" d="M 225.945312 13.855469 L 225.304688 10.933594 L 222.753906 12.605469 C 213.710938 18.488281 202.644531 24.960938 200.539062 25.125 C 196.867188 25.125 187.046875 25.847656 186.621094 25.890625 L 186.335938 25.929688 C 179.652344 27.417969 175.960938 29.820312 175.058594 33.300781 C 174.132812 36.859375 176.632812 39.988281 177.972656 41.351562 C 177.589844 49.398438 172.015625 56.261719 170.257812 58.222656 C 161.820312 58.875 157.226562 64.796875 155.417969 67.792969 C 139.214844 62.734375 122.328125 71.632812 119.085938 73.46875 L 103.574219 73.46875 L 103.304688 73.488281 C 102.5625 73.570312 85.433594 75.757812 76.625 80.433594 C 70.496094 83.683594 68.890625 89.660156 68.539062 93.769531 C 65.589844 91.933594 61.121094 89.847656 56.546875 90.394531 C 52.824219 90.828125 49.683594 92.839844 47.238281 96.378906 C 45.917969 98.339844 44.015625 104.429688 45.429688 110.394531 C 46.472656 114.761719 49.132812 118.269531 53.121094 120.539062 L 55.21875 117.03125 C 52.195312 115.328125 50.28125 112.78125 49.503906 109.476562 C 48.367188 104.75 49.910156 99.796875 50.71875 98.621094 C 52.472656 96.070312 54.527344 94.699219 57.035156 94.386719 C 62.921875 93.695312 69.21875 99.269531 69.292969 99.320312 L 73.546875 103.140625 L 72.761719 97.566406 C 72.761719 97.464844 71.441406 87.761719 78.613281 83.972656 C 86.359375 79.867188 102.125 77.699219 103.722656 77.492188 L 120.253906 77.492188 L 120.765625 77.183594 C 120.945312 77.058594 139.492188 66.035156 155.683594 72.125 L 157.546875 72.828125 L 158.34375 71.042969 C 158.503906 70.691406 162.238281 62.476562 171.289062 62.167969 L 172.121094 62.144531 L 172.695312 61.558594 C 173.078125 61.175781 182.109375 52.011719 182.109375 40.484375 L 182.109375 39.554688 L 181.398438 38.957031 C 180.78125 38.4375 178.578125 36.097656 179.058594 34.25 C 179.324219 33.21875 180.726562 31.296875 187.089844 29.863281 C 188.367188 29.757812 197.261719 29.140625 200.527344 29.140625 C 203.207031 29.140625 211.027344 24.683594 217.601562 20.636719 C 215.496094 22.867188 212.335938 25.722656 207.601562 29.285156 C 207.039062 29.699219 206.675781 29.964844 206.539062 30.046875 L 205.527344 30.8125 L 205.847656 33.132812 L 206.941406 33.589844 C 207.761719 33.898438 208.261719 33.796875 209.070312 33.277344 C 209.367188 33.074219 209.710938 32.804688 210.136719 32.484375 C 225.988281 20.617188 226.230469 15.21875 225.945312 13.84375 "/>
<path style=" stroke:none;fill-rule:evenodd;fill:rgb(99.215686%,78.823529%,5.098039%);fill-opacity:1;" d="M 136.265625 96.832031 L 133.925781 93.5 L 141.394531 88.585938 C 155.800781 83.117188 164.207031 76.59375 165.246094 75.757812 L 178.417969 60.816406 L 189.527344 34.929688 L 191.761719 34.136719 C 193.804688 33.949219 196.367188 32.609375 198.039062 31.730469 C 199.207031 31.113281 199.933594 30.738281 200.625 30.625 L 207.816406 29.441406 L 208.527344 33.414062 L 201.324219 34.601562 C 201.242188 34.640625 200.582031 35.011719 200.015625 35.28125 C 198.144531 36.261719 195.378906 37.71875 192.675781 38.097656 L 181.792969 63.179688 L 168.066406 78.699219 C 167.714844 79.011719 159.054688 86.164062 143.128906 92.261719 L 136.265625 96.804688 "/>
<path style=" stroke:none;fill-rule:evenodd;fill:url(#linear48);" d="M 136.265625 96.832031 L 133.925781 93.5 L 141.394531 88.585938 C 155.800781 83.117188 164.207031 76.59375 165.246094 75.757812 L 178.417969 60.816406 L 189.527344 34.929688 L 191.761719 34.136719 C 193.804688 33.949219 196.367188 32.609375 198.039062 31.730469 C 199.207031 31.113281 199.933594 30.738281 200.625 30.625 L 207.816406 29.441406 L 208.527344 33.414062 L 201.324219 34.601562 C 201.242188 34.640625 200.582031 35.011719 200.015625 35.28125 C 198.144531 36.261719 195.378906 37.71875 192.675781 38.097656 L 181.792969 63.179688 L 168.066406 78.699219 C 167.714844 79.011719 159.054688 86.164062 143.128906 92.261719 L 136.265625 96.804688 "/>
<path style=" stroke:none;fill-rule:evenodd;fill:rgb(99.215686%,78.823529%,5.098039%);fill-opacity:1;" d="M 161.535156 117.21875 C 161.535156 130.6875 151.851562 125.121094 151.851562 125.121094 L 146.640625 119.757812 C 146.640625 119.757812 128.53125 105.648438 124.265625 105.253906 C 115.167969 104.449219 102.636719 96.007812 94.753906 99.226562 C 94.070312 99.515625 93.421875 99.765625 92.785156 99.980469 C 77.316406 105.429688 75.707031 94.863281 75.707031 94.863281 C 75.707031 94.863281 74.324219 84.109375 95.445312 83.769531 C 116.550781 83.417969 136.957031 95.183594 136.957031 95.183594 L 149.769531 114.6875 C 149.769531 114.6875 154.621094 115.203125 156.003906 118.898438 C 156.003906 118.898438 161.535156 114.183594 161.535156 117.21875 Z M 161.535156 117.21875 "/>
<path style=" stroke:none;fill-rule:evenodd;fill:url(#linear49);" d="M 161.535156 117.21875 C 161.535156 130.6875 151.851562 125.121094 151.851562 125.121094 L 146.640625 119.757812 C 146.640625 119.757812 128.53125 105.648438 124.265625 105.253906 C 115.167969 104.449219 102.636719 96.007812 94.753906 99.226562 C 94.070312 99.515625 93.421875 99.765625 92.785156 99.980469 C 77.316406 105.429688 75.707031 94.863281 75.707031 94.863281 C 75.707031 94.863281 74.324219 84.109375 95.445312 83.769531 C 116.550781 83.417969 136.957031 95.183594 136.957031 95.183594 L 149.769531 114.6875 C 149.769531 114.6875 154.621094 115.203125 156.003906 118.898438 C 156.003906 118.898438 161.535156 114.183594 161.535156 117.21875 Z M 161.535156 117.21875 "/>
<path style=" stroke:none;fill-rule:evenodd;fill:rgb(99.215686%,78.823529%,5.098039%);fill-opacity:1;" d="M 224.464844 15.269531 C 224.464844 15.269531 204.730469 28.140625 201.113281 28.140625 C 197.464844 28.140625 187.355469 28.894531 187.355469 28.894531 C 170.226562 32.679688 180.601562 41.503906 180.601562 41.503906 C 180.601562 52.339844 171.769531 61.175781 171.769531 61.175781 C 161.238281 61.507812 156.980469 71.269531 156.980469 71.269531 C 139.597656 64.707031 120.222656 76.480469 120.222656 76.480469 L 104.125 76.480469 C 104.125 76.480469 86.730469 78.648438 78.167969 83.191406 C 69.613281 87.730469 71.25 98.835938 71.25 98.835938 C 71.25 98.835938 57.6875 86.628906 49.546875 98.507812 C 47.84375 100.960938 44.566406 113.265625 54.035156 119.324219 L 53.929688 117.960938 L 58.71875 115.121094 L 63.910156 117.332031 L 65.792969 122.121094 L 65.613281 122.53125 L 67.121094 122.902344 L 69.355469 123.253906 L 69.195312 128.292969 C 69.195312 128.292969 76.464844 131.492188 77.496094 122.902344 L 75.082031 120.738281 L 74.898438 118.714844 C 74.898438 118.714844 74.367188 110.972656 81.304688 111.304688 C 81.304688 111.304688 87.1875 116.359375 93.933594 116.019531 C 100.679688 115.660156 105.871094 114.164062 105.871094 114.164062 L 127.679688 104.5625 L 137.183594 95.316406 L 142.714844 91.445312 C 158.628906 85.386719 167.289062 78.152344 167.289062 78.152344 L 180.792969 62.878906 L 191.695312 37.46875 L 192.546875 37.140625 C 196.199219 36.796875 200.527344 33.773438 201.558594 33.597656 L 208.75 32.410156 L 209.441406 31.894531 C 225.507812 19.863281 224.496094 15.28125 224.496094 15.28125 "/>
<path style=" stroke:none;fill-rule:evenodd;fill:url(#linear50);" d="M 224.464844 15.269531 C 224.464844 15.269531 204.730469 28.140625 201.113281 28.140625 C 197.464844 28.140625 187.355469 28.894531 187.355469 28.894531 C 170.226562 32.679688 180.601562 41.503906 180.601562 41.503906 C 180.601562 52.339844 171.769531 61.175781 171.769531 61.175781 C 161.238281 61.507812 156.980469 71.269531 156.980469 71.269531 C 139.597656 64.707031 120.222656 76.480469 120.222656 76.480469 L 104.125 76.480469 C 104.125 76.480469 86.730469 78.648438 78.167969 83.191406 C 69.613281 87.730469 71.25 98.835938 71.25 98.835938 C 71.25 98.835938 57.6875 86.628906 49.546875 98.507812 C 47.84375 100.960938 44.566406 113.265625 54.035156 119.324219 L 53.929688 117.960938 L 58.71875 115.121094 L 63.910156 117.332031 L 65.792969 122.121094 L 65.613281 122.53125 L 67.121094 122.902344 L 69.355469 123.253906 L 69.195312 128.292969 C 69.195312 128.292969 76.464844 131.492188 77.496094 122.902344 L 75.082031 120.738281 L 74.898438 118.714844 C 74.898438 118.714844 74.367188 110.972656 81.304688 111.304688 C 81.304688 111.304688 87.1875 116.359375 93.933594 116.019531 C 100.679688 115.660156 105.871094 114.164062 105.871094 114.164062 L 127.679688 104.5625 L 137.183594 95.316406 L 142.714844 91.445312 C 158.628906 85.386719 167.289062 78.152344 167.289062 78.152344 L 180.792969 62.878906 L 191.695312 37.46875 L 192.546875 37.140625 C 196.199219 36.796875 200.527344 33.773438 201.558594 33.597656 L 208.75 32.410156 L 209.441406 31.894531 C 225.507812 19.863281 224.496094 15.28125 224.496094 15.28125 "/>
<path style=" stroke:none;fill-rule:evenodd;fill:rgb(99.215686%,78.823529%,5.098039%);fill-opacity:1;" d="M 175.066406 112.492188 C 166.941406 147.105469 135.023438 173.011719 96.996094 173.011719 C 52.84375 173.011719 16.925781 138.097656 16.925781 95.171875 C 16.925781 52.257812 52.84375 17.332031 96.996094 17.332031 C 114.445312 17.332031 130.617188 22.804688 143.789062 32.050781 C 146.660156 27.355469 149.992188 22.824219 153.960938 18.914062 C 137.949219 7.558594 118.265625 0.851562 96.996094 0.851562 C 43.515625 0.851562 0 43.167969 0 95.140625 C 0 147.136719 43.515625 189.441406 96.996094 189.441406 C 144.492188 189.441406 184.132812 156.074219 192.398438 112.191406 C 186.695312 112.894531 180.652344 112.707031 175.078125 112.46875 "/>
<path style=" stroke:none;fill-rule:evenodd;fill:url(#linear51);" d="M 175.066406 112.492188 C 166.941406 147.105469 135.023438 173.011719 96.996094 173.011719 C 52.84375 173.011719 16.925781 138.097656 16.925781 95.171875 C 16.925781 52.257812 52.84375 17.332031 96.996094 17.332031 C 114.445312 17.332031 130.617188 22.804688 143.789062 32.050781 C 146.660156 27.355469 149.992188 22.824219 153.960938 18.914062 C 137.949219 7.558594 118.265625 0.851562 96.996094 0.851562 C 43.515625 0.851562 0 43.167969 0 95.140625 C 0 147.136719 43.515625 189.441406 96.996094 189.441406 C 144.492188 189.441406 184.132812 156.074219 192.398438 112.191406 C 186.695312 112.894531 180.652344 112.707031 175.078125 112.46875 "/>
</g>
</svg>
