<svg width="64" height="64" viewBox="0 0 64 64" fill="none" xmlns="http://www.w3.org/2000/svg">
<path fill-rule="evenodd" clip-rule="evenodd" d="M37.3025 21.3123C37.7192 22.6442 37.0865 24.0132 35.8855 24.3666L22.9319 28.1769C21.732 28.5292 20.4219 27.734 20.0053 26.3988C19.5896 25.0615 20.2256 23.6957 21.4255 23.3445L34.3791 19.5309C35.5823 19.1764 36.8869 19.9749 37.3025 21.3123Z" fill="#FDC90D"/>
<path fill-rule="evenodd" clip-rule="evenodd" d="M37.3025 21.3123C37.7192 22.6442 37.0865 24.0132 35.8855 24.3666L22.9319 28.1769C21.732 28.5292 20.4219 27.734 20.0053 26.3988C19.5896 25.0615 20.2256 23.6957 21.4255 23.3445L34.3791 19.5309C35.5823 19.1764 36.8869 19.9749 37.3025 21.3123Z" fill="url(#paint0_linear_101_108)"/>
<path fill-rule="evenodd" clip-rule="evenodd" d="M19.7947 25.4225L18.7999 25.7105C18.3122 25.8545 18.057 26.4076 18.2261 26.9497C18.3952 27.4886 18.9242 27.8082 19.4053 27.6642L20.4034 27.3708C20.1896 27.1112 20.0172 26.7937 19.9081 26.4479C19.798 26.1021 19.7587 25.7563 19.7893 25.4225" fill="#FDC90D"/>
<path fill-rule="evenodd" clip-rule="evenodd" d="M19.7947 25.4225L18.7999 25.7105C18.3122 25.8545 18.057 26.4076 18.2261 26.9497C18.3952 27.4886 18.9242 27.8082 19.4053 27.6642L20.4034 27.3708C20.1896 27.1112 20.0172 26.7937 19.9081 26.4479C19.798 26.1021 19.7587 25.7563 19.7893 25.4225" fill="url(#paint1_linear_101_108)"/>
<path fill-rule="evenodd" clip-rule="evenodd" d="M20.6379 32.2293C20.6532 32.1922 20.6892 32.1715 20.7273 32.178C20.7688 32.1922 20.7873 32.2348 20.7808 32.2642L20.5637 32.9471C20.5463 32.9841 20.5048 33.0049 20.4688 32.9907C20.4274 32.982 20.4034 32.9416 20.4186 32.9034L20.6379 32.2293Z" fill="#FDC90D"/>
<path fill-rule="evenodd" clip-rule="evenodd" d="M20.6379 32.2293C20.6532 32.1922 20.6892 32.1715 20.7273 32.178C20.7688 32.1922 20.7873 32.2348 20.7808 32.2642L20.5637 32.9471C20.5463 32.9841 20.5048 33.0049 20.4688 32.9907C20.4274 32.982 20.4034 32.9416 20.4186 32.9034L20.6379 32.2293Z" fill="url(#paint2_linear_101_108)"/>
<path fill-rule="evenodd" clip-rule="evenodd" d="M20.1601 32.0417C20.1754 32.0013 20.2201 31.985 20.2583 32.0013C20.2877 32.0166 20.3063 32.0592 20.2964 32.0886L19.9997 32.7398C19.9823 32.7769 19.931 32.7976 19.9015 32.7747C19.8634 32.7627 19.8481 32.7169 19.8656 32.6875L20.1568 32.0395" fill="#FDC90D"/>
<path fill-rule="evenodd" clip-rule="evenodd" d="M20.1601 32.0417C20.1754 32.0013 20.2201 31.985 20.2583 32.0013C20.2877 32.0166 20.3063 32.0592 20.2964 32.0886L19.9997 32.7398C19.9823 32.7769 19.931 32.7976 19.9015 32.7747C19.8634 32.7627 19.8481 32.7169 19.8656 32.6875L20.1568 32.0395" fill="url(#paint3_linear_101_108)"/>
<path fill-rule="evenodd" clip-rule="evenodd" d="M19.6965 31.8028C19.7172 31.7679 19.7565 31.7537 19.798 31.7744C19.8361 31.794 19.8448 31.8377 19.8274 31.8726L19.4707 32.4889C19.4467 32.5238 19.3965 32.5347 19.3671 32.5118C19.3278 32.4944 19.3169 32.454 19.3376 32.4202L19.6998 31.806" fill="#FDC90D"/>
<path fill-rule="evenodd" clip-rule="evenodd" d="M19.6965 31.8028C19.7172 31.7679 19.7565 31.7537 19.798 31.7744C19.8361 31.794 19.8448 31.8377 19.8274 31.8726L19.4707 32.4889C19.4467 32.5238 19.3965 32.5347 19.3671 32.5118C19.3278 32.4944 19.3169 32.454 19.3376 32.4202L19.6998 31.806" fill="url(#paint4_linear_101_108)"/>
<path fill-rule="evenodd" clip-rule="evenodd" d="M19.2689 31.5257C19.2896 31.4919 19.3343 31.4832 19.3703 31.5061C19.3998 31.529 19.3998 31.5726 19.3878 31.6076L18.9602 32.1835C18.9296 32.2119 18.886 32.2206 18.8555 32.1977C18.826 32.1748 18.8173 32.1312 18.8413 32.1028L19.2689 31.5257Z" fill="#FDC90D"/>
<path fill-rule="evenodd" clip-rule="evenodd" d="M19.2689 31.5257C19.2896 31.4919 19.3343 31.4832 19.3703 31.5061C19.3998 31.529 19.3998 31.5726 19.3878 31.6076L18.9602 32.1835C18.9296 32.2119 18.886 32.2206 18.8555 32.1977C18.826 32.1748 18.8173 32.1312 18.8413 32.1028L19.2689 31.5257Z" fill="url(#paint5_linear_101_108)"/>
<path fill-rule="evenodd" clip-rule="evenodd" d="M18.874 31.2126C18.8948 31.1777 18.9395 31.1744 18.9689 31.2006C18.9984 31.229 18.9984 31.2759 18.9809 31.3043L18.5053 31.8399C18.4759 31.8693 18.4224 31.8693 18.3984 31.8399C18.3689 31.8202 18.3624 31.7744 18.3919 31.7482L18.8675 31.2148" fill="#FDC90D"/>
<path fill-rule="evenodd" clip-rule="evenodd" d="M18.874 31.2126C18.8948 31.1777 18.9395 31.1744 18.9689 31.2006C18.9984 31.229 18.9984 31.2759 18.9809 31.3043L18.5053 31.8399C18.4759 31.8693 18.4224 31.8693 18.3984 31.8399C18.3689 31.8202 18.3624 31.7744 18.3919 31.7482L18.8675 31.2148" fill="url(#paint6_linear_101_108)"/>
<path fill-rule="evenodd" clip-rule="evenodd" d="M18.5053 30.8636C18.5348 30.8341 18.5795 30.8341 18.6122 30.8636C18.6417 30.892 18.6362 30.9388 18.6122 30.9672L18.0832 31.457C18.0537 31.4864 18.0035 31.4799 17.9795 31.457C17.9501 31.4286 17.9501 31.3796 17.9795 31.3566L18.5021 30.8658" fill="#FDC90D"/>
<path fill-rule="evenodd" clip-rule="evenodd" d="M18.5053 30.8636C18.5348 30.8341 18.5795 30.8341 18.6122 30.8636C18.6417 30.892 18.6362 30.9388 18.6122 30.9672L18.0832 31.457C18.0537 31.4864 18.0035 31.4799 17.9795 31.457C17.9501 31.4286 17.9501 31.3796 17.9795 31.3566L18.5021 30.8658" fill="url(#paint7_linear_101_108)"/>
<path fill-rule="evenodd" clip-rule="evenodd" d="M18.1901 30.4971C18.2195 30.4687 18.2621 30.4742 18.2915 30.5091C18.3123 30.5374 18.3068 30.5843 18.2795 30.6094L17.709 31.0512C17.673 31.0796 17.6283 31.0676 17.6054 31.0392C17.5749 31.0108 17.5847 30.964 17.6174 30.941L18.1879 30.5004" fill="#FDC90D"/>
<path fill-rule="evenodd" clip-rule="evenodd" d="M18.1901 30.4971C18.2195 30.4687 18.2621 30.4742 18.2915 30.5091C18.3123 30.5374 18.3068 30.5843 18.2795 30.6094L17.709 31.0512C17.673 31.0796 17.6283 31.0676 17.6054 31.0392C17.5749 31.0108 17.5847 30.964 17.6174 30.941L18.1879 30.5004" fill="url(#paint8_linear_101_108)"/>
<path fill-rule="evenodd" clip-rule="evenodd" d="M17.9086 30.1142C17.9435 30.0913 17.9915 30.1 18.0123 30.1316C18.033 30.1655 18.021 30.2091 17.9915 30.232L17.385 30.6214C17.3403 30.6411 17.2956 30.6302 17.2781 30.5985C17.2487 30.5636 17.2629 30.5232 17.2956 30.5036L17.9053 30.1109" fill="#FDC90D"/>
<path fill-rule="evenodd" clip-rule="evenodd" d="M17.9086 30.1142C17.9435 30.0913 17.9915 30.1 18.0123 30.1316C18.033 30.1655 18.021 30.2091 17.9915 30.232L17.385 30.6214C17.3403 30.6411 17.2956 30.6302 17.2781 30.5985C17.2487 30.5636 17.2629 30.5232 17.2956 30.5036L17.9053 30.1109" fill="url(#paint9_linear_101_108)"/>
<path fill-rule="evenodd" clip-rule="evenodd" d="M17.685 29.7226C17.7145 29.6986 17.7592 29.7139 17.7832 29.7509C17.7985 29.7793 17.7832 29.8262 17.7472 29.8458L17.1091 30.1807C17.0698 30.1982 17.0196 30.1807 17.0076 30.1513C16.9934 30.1142 17.0076 30.0705 17.0371 30.0531L17.6916 29.7248" fill="#FDC90D"/>
<path fill-rule="evenodd" clip-rule="evenodd" d="M17.685 29.7226C17.7145 29.6986 17.7592 29.7139 17.7832 29.7509C17.7985 29.7793 17.7832 29.8262 17.7472 29.8458L17.1091 30.1807C17.0698 30.1982 17.0196 30.1807 17.0076 30.1513C16.9934 30.1142 17.0076 30.0705 17.0371 30.0531L17.6916 29.7248" fill="url(#paint10_linear_101_108)"/>
<path fill-rule="evenodd" clip-rule="evenodd" d="M17.5007 29.3244C17.54 29.3102 17.5847 29.3244 17.5988 29.3648C17.6174 29.4019 17.5934 29.4422 17.5607 29.4564L16.8832 29.7226C16.8418 29.7389 16.8004 29.7226 16.7851 29.6822C16.7698 29.6473 16.7905 29.6069 16.8265 29.5949L17.504 29.3277" fill="#FDC90D"/>
<path fill-rule="evenodd" clip-rule="evenodd" d="M17.5007 29.3244C17.54 29.3102 17.5847 29.3244 17.5988 29.3648C17.6174 29.4019 17.5934 29.4422 17.5607 29.4564L16.8832 29.7226C16.8418 29.7389 16.8004 29.7226 16.7851 29.6822C16.7698 29.6473 16.7905 29.6069 16.8265 29.5949L17.504 29.3277" fill="url(#paint11_linear_101_108)"/>
<path fill-rule="evenodd" clip-rule="evenodd" d="M17.3763 28.9416C17.4177 28.9263 17.4537 28.9492 17.4657 28.9896C17.4777 29.0277 17.4505 29.0648 17.4145 29.0768L16.7076 29.2666C16.6694 29.2753 16.628 29.2524 16.6182 29.2153C16.6095 29.1772 16.6334 29.1401 16.6694 29.1281L17.3709 28.9416" fill="#FDC90D"/>
<path fill-rule="evenodd" clip-rule="evenodd" d="M17.3763 28.9416C17.4177 28.9263 17.4537 28.9492 17.4657 28.9896C17.4777 29.0277 17.4505 29.0648 17.4145 29.0768L16.7076 29.2666C16.6694 29.2753 16.628 29.2524 16.6182 29.2153C16.6095 29.1772 16.6334 29.1401 16.6694 29.1281L17.3709 28.9416" fill="url(#paint12_linear_101_108)"/>
<path fill-rule="evenodd" clip-rule="evenodd" d="M17.3054 28.5696C17.3436 28.5608 17.3818 28.5892 17.3883 28.6274C17.3938 28.6677 17.3676 28.7016 17.3283 28.707L16.6073 28.8117C16.5626 28.8117 16.5233 28.7823 16.5178 28.7485C16.5113 28.7103 16.5473 28.6732 16.5833 28.6699L17.3054 28.5696Z" fill="#FDC90D"/>
<path fill-rule="evenodd" clip-rule="evenodd" d="M17.3054 28.5696C17.3436 28.5608 17.3818 28.5892 17.3883 28.6274C17.3938 28.6677 17.3676 28.7016 17.3283 28.707L16.6073 28.8117C16.5626 28.8117 16.5233 28.7823 16.5178 28.7485C16.5113 28.7103 16.5473 28.6732 16.5833 28.6699L17.3054 28.5696Z" fill="url(#paint13_linear_101_108)"/>
<path fill-rule="evenodd" clip-rule="evenodd" d="M17.2901 28.2205C17.3315 28.2205 17.3643 28.2489 17.3675 28.2892C17.3675 28.3329 17.3283 28.3612 17.2901 28.3645H16.5592C16.5178 28.3645 16.4883 28.3274 16.4883 28.2892C16.4883 28.2489 16.5233 28.2205 16.5625 28.2205H17.2955" fill="#FDC90D"/>
<path fill-rule="evenodd" clip-rule="evenodd" d="M17.2901 28.2205C17.3315 28.2205 17.3643 28.2489 17.3675 28.2892C17.3675 28.3329 17.3283 28.3612 17.2901 28.3645H16.5592C16.5178 28.3645 16.4883 28.3274 16.4883 28.2892C16.4883 28.2489 16.5233 28.2205 16.5625 28.2205H17.2955" fill="url(#paint14_linear_101_108)"/>
<path fill-rule="evenodd" clip-rule="evenodd" d="M17.3283 27.9031C17.373 27.9096 17.397 27.9467 17.3883 27.9903C17.3883 28.0241 17.3403 28.0471 17.3054 28.0416L16.592 27.9205C16.5472 27.9118 16.5211 27.8714 16.532 27.8344C16.532 27.7972 16.5745 27.7765 16.6127 27.7765L17.3283 27.9031Z" fill="#FDC90D"/>
<path fill-rule="evenodd" clip-rule="evenodd" d="M17.3283 27.9031C17.373 27.9096 17.397 27.9467 17.3883 27.9903C17.3883 28.0241 17.3403 28.0471 17.3054 28.0416L16.592 27.9205C16.5472 27.9118 16.5211 27.8714 16.532 27.8344C16.532 27.7972 16.5745 27.7765 16.6127 27.7765L17.3283 27.9031Z" fill="url(#paint15_linear_101_108)"/>
<path fill-rule="evenodd" clip-rule="evenodd" d="M17.4243 27.6238C17.4657 27.638 17.4832 27.6816 17.4679 27.7165C17.4505 27.7536 17.409 27.7678 17.373 27.7569L16.6902 27.4973C16.6542 27.4831 16.6367 27.4395 16.6509 27.4111C16.6662 27.3708 16.7109 27.3533 16.7469 27.3675L17.4243 27.6238Z" fill="#FDC90D"/>
<path fill-rule="evenodd" clip-rule="evenodd" d="M17.4243 27.6238C17.4657 27.638 17.4832 27.6816 17.4679 27.7165C17.4505 27.7536 17.409 27.7678 17.373 27.7569L16.6902 27.4973C16.6542 27.4831 16.6367 27.4395 16.6509 27.4111C16.6662 27.3708 16.7109 27.3533 16.7469 27.3675L17.4243 27.6238Z" fill="url(#paint16_linear_101_108)"/>
<path fill-rule="evenodd" clip-rule="evenodd" d="M17.5748 27.3871C17.6108 27.4079 17.6141 27.4536 17.5934 27.4853C17.5639 27.5148 17.5214 27.5235 17.4864 27.506L16.8832 27.1024C16.8538 27.0817 16.8418 27.0359 16.8647 27.0042C16.8865 26.9759 16.9334 26.9672 16.9661 26.9868L17.5748 27.3871Z" fill="#FDC90D"/>
<path fill-rule="evenodd" clip-rule="evenodd" d="M17.5748 27.3871C17.6108 27.4079 17.6141 27.4536 17.5934 27.4853C17.5639 27.5148 17.5214 27.5235 17.4864 27.506L16.8832 27.1024C16.8538 27.0817 16.8418 27.0359 16.8647 27.0042C16.8865 26.9759 16.9334 26.9672 16.9661 26.9868L17.5748 27.3871Z" fill="url(#paint17_linear_101_108)"/>
<path fill-rule="evenodd" clip-rule="evenodd" d="M17.7745 27.1853C17.8039 27.2148 17.7985 27.2584 17.7679 27.2868C17.7385 27.3151 17.6938 27.3096 17.6643 27.2813L17.168 26.7621C17.1385 26.7337 17.1472 26.6901 17.1745 26.6639C17.204 26.6355 17.2487 26.641 17.2727 26.6639L17.7778 27.1886" fill="#FDC90D"/>
<path fill-rule="evenodd" clip-rule="evenodd" d="M17.7745 27.1853C17.8039 27.2148 17.7985 27.2584 17.7679 27.2868C17.7385 27.3151 17.6938 27.3096 17.6643 27.2813L17.168 26.7621C17.1385 26.7337 17.1472 26.6901 17.1745 26.6639C17.204 26.6355 17.2487 26.641 17.2727 26.6639L17.7778 27.1886" fill="url(#paint18_linear_101_108)"/>
<path fill-rule="evenodd" clip-rule="evenodd" d="M18.033 27.0184C18.057 27.0566 18.0417 27.097 18.009 27.1199C17.9643 27.1373 17.9195 27.1253 17.9054 27.0904L17.5367 26.4774C17.5192 26.4392 17.5367 26.3988 17.5661 26.3759C17.6021 26.3585 17.6468 26.3759 17.6643 26.4054L18.033 27.0184Z" fill="#FDC90D"/>
<path fill-rule="evenodd" clip-rule="evenodd" d="M18.033 27.0184C18.057 27.0566 18.0417 27.097 18.009 27.1199C17.9643 27.1373 17.9195 27.1253 17.9054 27.0904L17.5367 26.4774C17.5192 26.4392 17.5367 26.3988 17.5661 26.3759C17.6021 26.3585 17.6468 26.3759 17.6643 26.4054L18.033 27.0184Z" fill="url(#paint19_linear_101_108)"/>
<path fill-rule="evenodd" clip-rule="evenodd" d="M18.3689 26.8919C18.3831 26.929 18.3569 26.9672 18.3209 26.978C18.2828 26.9955 18.2435 26.9726 18.2315 26.9377L17.9937 26.2636C17.985 26.2232 18.0057 26.1861 18.045 26.1708C18.0832 26.1599 18.1246 26.1828 18.1344 26.2177L18.3711 26.8919" fill="#FDC90D"/>
<path fill-rule="evenodd" clip-rule="evenodd" d="M18.3689 26.8919C18.3831 26.929 18.3569 26.9672 18.3209 26.978C18.2828 26.9955 18.2435 26.9726 18.2315 26.9377L17.9937 26.2636C17.985 26.2232 18.0057 26.1861 18.045 26.1708C18.0832 26.1599 18.1246 26.1828 18.1344 26.2177L18.3711 26.8919" fill="url(#paint20_linear_101_108)"/>
<path fill-rule="evenodd" clip-rule="evenodd" d="M23.1817 36.933C23.1523 36.9679 23.1076 36.97 23.0748 36.9417C23.0508 36.9133 23.0541 36.8697 23.0748 36.8435L23.5799 36.3254C23.6093 36.3014 23.6628 36.3014 23.6813 36.3308C23.7162 36.3537 23.7162 36.4028 23.6813 36.429L23.1817 36.933Z" fill="#FDC90D"/>
<path fill-rule="evenodd" clip-rule="evenodd" d="M23.1817 36.933C23.1523 36.9679 23.1076 36.97 23.0748 36.9417C23.0508 36.9133 23.0541 36.8697 23.0748 36.8435L23.5799 36.3254C23.6093 36.3014 23.6628 36.3014 23.6813 36.3308C23.7162 36.3537 23.7162 36.4028 23.6813 36.429L23.1817 36.933Z" fill="url(#paint21_linear_101_108)"/>
<path fill-rule="evenodd" clip-rule="evenodd" d="M23.5264 37.3158C23.497 37.3453 23.449 37.3398 23.4195 37.3082C23.3988 37.2788 23.4108 37.2362 23.4348 37.21L23.9988 36.766C24.0348 36.7366 24.0882 36.7486 24.1024 36.777C24.1318 36.8064 24.1264 36.8522 24.0937 36.8752L23.5297 37.3158" fill="#FDC90D"/>
<path fill-rule="evenodd" clip-rule="evenodd" d="M23.5264 37.3158C23.497 37.3453 23.449 37.3398 23.4195 37.3082C23.3988 37.2788 23.4108 37.2362 23.4348 37.21L23.9988 36.766C24.0348 36.7366 24.0882 36.7486 24.1024 36.777C24.1318 36.8064 24.1264 36.8522 24.0937 36.8752L23.5297 37.3158" fill="url(#paint22_linear_101_108)"/>
<path fill-rule="evenodd" clip-rule="evenodd" d="M23.7675 37.6736C23.7369 37.6965 23.6922 37.6878 23.6661 37.654C23.6486 37.6191 23.6661 37.5755 23.6955 37.5558L24.3194 37.1926C24.3587 37.1719 24.4089 37.1872 24.4176 37.2209C24.4471 37.2559 24.4329 37.2962 24.3969 37.3191L23.7675 37.6736Z" fill="#FDC90D"/>
<path fill-rule="evenodd" clip-rule="evenodd" d="M23.7675 37.6736C23.7369 37.6965 23.6922 37.6878 23.6661 37.654C23.6486 37.6191 23.6661 37.5755 23.6955 37.5558L24.3194 37.1926C24.3587 37.1719 24.4089 37.1872 24.4176 37.2209C24.4471 37.2559 24.4329 37.2962 24.3969 37.3191L23.7675 37.6736Z" fill="url(#paint23_linear_101_108)"/>
<path fill-rule="evenodd" clip-rule="evenodd" d="M23.9333 38.0282C23.8973 38.0424 23.8536 38.0282 23.8384 37.9878C23.8296 37.9529 23.8504 37.9104 23.8798 37.8962L24.5572 37.6311C24.5987 37.6158 24.6467 37.6365 24.6521 37.6704C24.6729 37.7085 24.6521 37.7489 24.6139 37.7631L23.9398 38.0227" fill="#FDC90D"/>
<path fill-rule="evenodd" clip-rule="evenodd" d="M23.9333 38.0282C23.8973 38.0424 23.8536 38.0282 23.8384 37.9878C23.8296 37.9529 23.8504 37.9104 23.8798 37.8962L24.5572 37.6311C24.5987 37.6158 24.6467 37.6365 24.6521 37.6704C24.6729 37.7085 24.6521 37.7489 24.6139 37.7631L23.9398 38.0227" fill="url(#paint24_linear_101_108)"/>
<path fill-rule="evenodd" clip-rule="evenodd" d="M24.0315 38.3631C23.9933 38.3718 23.9573 38.3511 23.942 38.3107C23.9333 38.2736 23.9628 38.2387 23.9955 38.2245L24.7089 38.0652C24.7503 38.0598 24.7918 38.086 24.7983 38.1231C24.8103 38.1634 24.783 38.1984 24.7383 38.2104L24.0315 38.3631Z" fill="#FDC90D"/>
<path fill-rule="evenodd" clip-rule="evenodd" d="M24.0315 38.3631C23.9933 38.3718 23.9573 38.3511 23.942 38.3107C23.9333 38.2736 23.9628 38.2387 23.9955 38.2245L24.7089 38.0652C24.7503 38.0598 24.7918 38.086 24.7983 38.1231C24.8103 38.1634 24.783 38.1984 24.7383 38.2104L24.0315 38.3631Z" fill="url(#paint25_linear_101_108)"/>
<path fill-rule="evenodd" clip-rule="evenodd" d="M24.0675 38.6859C24.0249 38.6914 23.9933 38.6619 23.9868 38.6216C23.9868 38.5812 24.0227 38.5496 24.0576 38.5474L24.7885 38.5038C24.831 38.5038 24.866 38.5321 24.8638 38.5725C24.8725 38.6107 24.8398 38.639 24.7983 38.6423L24.0696 38.6827" fill="#FDC90D"/>
<path fill-rule="evenodd" clip-rule="evenodd" d="M24.0675 38.6859C24.0249 38.6914 23.9933 38.6619 23.9868 38.6216C23.9868 38.5812 24.0227 38.5496 24.0576 38.5474L24.7885 38.5038C24.831 38.5038 24.866 38.5321 24.8638 38.5725C24.8725 38.6107 24.8398 38.639 24.7983 38.6423L24.0696 38.6827" fill="url(#paint26_linear_101_108)"/>
<path fill-rule="evenodd" clip-rule="evenodd" d="M24.0435 38.9914C24.0075 38.9914 23.978 38.9564 23.9835 38.9128C23.9835 38.8779 24.0249 38.855 24.0609 38.855L24.7885 38.927C24.8332 38.927 24.8637 38.9706 24.854 39.0056C24.854 39.0426 24.8158 39.0721 24.7776 39.0634L24.0489 38.9881" fill="#FDC90D"/>
<path fill-rule="evenodd" clip-rule="evenodd" d="M24.0435 38.9914C24.0075 38.9914 23.978 38.9564 23.9835 38.9128C23.9835 38.8779 24.0249 38.855 24.0609 38.855L24.7885 38.927C24.8332 38.927 24.8637 38.9706 24.854 39.0056C24.854 39.0426 24.8158 39.0721 24.7776 39.0634L24.0489 38.9881" fill="url(#paint27_linear_101_108)"/>
<path fill-rule="evenodd" clip-rule="evenodd" d="M23.9834 39.2815C23.9365 39.2706 23.918 39.2335 23.9245 39.1953C23.9365 39.155 23.9834 39.1375 24.014 39.1441L24.7209 39.3306C24.759 39.3426 24.7863 39.383 24.7677 39.4179C24.7623 39.4582 24.7209 39.4746 24.6794 39.4692L23.9813 39.2815" fill="#FDC90D"/>
<path fill-rule="evenodd" clip-rule="evenodd" d="M23.9834 39.2815C23.9365 39.2706 23.918 39.2335 23.9245 39.1953C23.9365 39.155 23.9834 39.1375 24.014 39.1441L24.7209 39.3306C24.759 39.3426 24.7863 39.383 24.7677 39.4179C24.7623 39.4582 24.7209 39.4746 24.6794 39.4692L23.9813 39.2815" fill="url(#paint28_linear_101_108)"/>
<path fill-rule="evenodd" clip-rule="evenodd" d="M23.8645 39.5466C23.8351 39.5357 23.8144 39.4899 23.8351 39.4549C23.8471 39.42 23.8951 39.4092 23.9245 39.42L24.5932 39.708C24.6314 39.7288 24.6467 39.7746 24.6281 39.8062C24.614 39.8444 24.5692 39.8553 24.53 39.8411L23.8678 39.5444" fill="#FDC90D"/>
<path fill-rule="evenodd" clip-rule="evenodd" d="M23.8645 39.5466C23.8351 39.5357 23.8144 39.4899 23.8351 39.4549C23.8471 39.42 23.8951 39.4092 23.9245 39.42L24.5932 39.708C24.6314 39.7288 24.6467 39.7746 24.6281 39.8062C24.614 39.8444 24.5692 39.8553 24.53 39.8411L23.8678 39.5444" fill="url(#paint29_linear_101_108)"/>
<path fill-rule="evenodd" clip-rule="evenodd" d="M23.7162 39.792C23.6813 39.7724 23.6715 39.7288 23.6922 39.6939C23.7162 39.66 23.7642 39.6568 23.7969 39.6742L24.4056 40.0626C24.4416 40.092 24.4504 40.1345 24.4264 40.164C24.4024 40.1989 24.3555 40.2065 24.326 40.1836L23.714 39.7953" fill="#FDC90D"/>
<path fill-rule="evenodd" clip-rule="evenodd" d="M23.7162 39.792C23.6813 39.7724 23.6715 39.7288 23.6922 39.6939C23.7162 39.66 23.7642 39.6568 23.7969 39.6742L24.4056 40.0626C24.4416 40.092 24.4504 40.1345 24.4264 40.164C24.4024 40.1989 24.3555 40.2065 24.326 40.1836L23.714 39.7953" fill="url(#paint30_linear_101_108)"/>
<path fill-rule="evenodd" clip-rule="evenodd" d="M23.5319 40.008C23.497 39.9796 23.497 39.9393 23.5231 39.9076C23.5526 39.8782 23.5973 39.8782 23.6267 39.9076L24.1711 40.3745C24.2005 40.4029 24.2071 40.452 24.1765 40.4749C24.1471 40.5044 24.1023 40.5044 24.0762 40.4749L23.5351 40.0058" fill="#FDC90D"/>
<path fill-rule="evenodd" clip-rule="evenodd" d="M23.5319 40.008C23.497 39.9796 23.497 39.9393 23.5231 39.9076C23.5526 39.8782 23.5973 39.8782 23.6267 39.9076L24.1711 40.3745C24.2005 40.4029 24.2071 40.452 24.1765 40.4749C24.1471 40.5044 24.1023 40.5044 24.0762 40.4749L23.5351 40.0058" fill="url(#paint31_linear_101_108)"/>
<path fill-rule="evenodd" clip-rule="evenodd" d="M23.3159 40.1902C23.2853 40.1607 23.294 40.1204 23.3268 40.092C23.3573 40.0691 23.3987 40.0778 23.425 40.1062L23.8886 40.6538C23.9126 40.6821 23.9071 40.7312 23.8744 40.7552C23.8438 40.7836 23.7991 40.7716 23.7762 40.7432L23.3093 40.1956" fill="#FDC90D"/>
<path fill-rule="evenodd" clip-rule="evenodd" d="M23.3159 40.1902C23.2853 40.1607 23.294 40.1204 23.3268 40.092C23.3573 40.0691 23.3987 40.0778 23.425 40.1062L23.8886 40.6538C23.9126 40.6821 23.9071 40.7312 23.8744 40.7552C23.8438 40.7836 23.7991 40.7716 23.7762 40.7432L23.3093 40.1956" fill="url(#paint32_linear_101_108)"/>
<path fill-rule="evenodd" clip-rule="evenodd" d="M23.0748 40.3451C23.0541 40.308 23.0661 40.2676 23.1042 40.2447C23.1402 40.2218 23.1817 40.236 23.2024 40.2731L23.5766 40.8785C23.5973 40.9134 23.5831 40.9592 23.5471 40.9734C23.5111 40.9963 23.4697 40.9821 23.4489 40.9505L23.0748 40.3451Z" fill="#FDC90D"/>
<path fill-rule="evenodd" clip-rule="evenodd" d="M23.0748 40.3451C23.0541 40.308 23.0661 40.2676 23.1042 40.2447C23.1402 40.2218 23.1817 40.236 23.2024 40.2731L23.5766 40.8785C23.5973 40.9134 23.5831 40.9592 23.5471 40.9734C23.5111 40.9963 23.4697 40.9821 23.4489 40.9505L23.0748 40.3451Z" fill="url(#paint33_linear_101_108)"/>
<path fill-rule="evenodd" clip-rule="evenodd" d="M22.8196 40.4552C22.801 40.4204 22.8196 40.3767 22.8577 40.3625C22.9025 40.3451 22.9407 40.3691 22.9559 40.4029L23.2232 41.0607C23.2406 41.0977 23.2232 41.1414 23.185 41.1523C23.149 41.1697 23.1076 41.1523 23.0956 41.1174L22.8196 40.4552Z" fill="#FDC90D"/>
<path fill-rule="evenodd" clip-rule="evenodd" d="M22.8196 40.4552C22.801 40.4204 22.8196 40.3767 22.8577 40.3625C22.9025 40.3451 22.9407 40.3691 22.9559 40.4029L23.2232 41.0607C23.2406 41.0977 23.2232 41.1414 23.185 41.1523C23.149 41.1697 23.1076 41.1523 23.0956 41.1174L22.8196 40.4552Z" fill="url(#paint34_linear_101_108)"/>
<path fill-rule="evenodd" clip-rule="evenodd" d="M22.549 40.524C22.5337 40.4836 22.561 40.4465 22.6025 40.4378C22.6406 40.4324 22.6766 40.4552 22.6853 40.4956L22.8457 41.1872C22.8545 41.2276 22.825 41.2624 22.7868 41.2734C22.7508 41.2788 22.7148 41.2537 22.7028 41.2156L22.549 40.524Z" fill="#FDC90D"/>
<path fill-rule="evenodd" clip-rule="evenodd" d="M22.549 40.524C22.5337 40.4836 22.561 40.4465 22.6025 40.4378C22.6406 40.4324 22.6766 40.4552 22.6853 40.4956L22.8457 41.1872C22.8545 41.2276 22.825 41.2624 22.7868 41.2734C22.7508 41.2788 22.7148 41.2537 22.7028 41.2156L22.549 40.524Z" fill="url(#paint35_linear_101_108)"/>
<path fill-rule="evenodd" clip-rule="evenodd" d="M22.2665 40.5469C22.261 40.5065 22.2905 40.4749 22.3352 40.4727C22.3767 40.4727 22.4061 40.5011 22.4094 40.5414L22.4454 41.2472C22.4454 41.2908 22.4149 41.3257 22.3767 41.3257C22.3319 41.3257 22.2992 41.2908 22.2992 41.2592L22.2632 40.5502" fill="#FDC90D"/>
<path fill-rule="evenodd" clip-rule="evenodd" d="M22.2665 40.5469C22.261 40.5065 22.2905 40.4749 22.3352 40.4727C22.3767 40.4727 22.4061 40.5011 22.4094 40.5414L22.4454 41.2472C22.4454 41.2908 22.4149 41.3257 22.3767 41.3257C22.3319 41.3257 22.2992 41.2908 22.2992 41.2592L22.2632 40.5502" fill="url(#paint36_linear_101_108)"/>
<path fill-rule="evenodd" clip-rule="evenodd" d="M21.9818 40.524C21.9818 40.4804 22.02 40.4607 22.0614 40.4662C22.1061 40.4662 22.1268 40.5044 22.1214 40.5447L22.032 41.2417C22.0254 41.2854 21.9872 41.3137 21.9512 41.3083C21.9098 41.3083 21.8836 41.2647 21.8858 41.2308L21.9818 40.5272" fill="#FDC90D"/>
<path fill-rule="evenodd" clip-rule="evenodd" d="M21.9818 40.524C21.9818 40.4804 22.02 40.4607 22.0614 40.4662C22.1061 40.4662 22.1268 40.5044 22.1214 40.5447L22.032 41.2417C22.0254 41.2854 21.9872 41.3137 21.9512 41.3083C21.9098 41.3083 21.8836 41.2647 21.8858 41.2308L21.9818 40.5272" fill="url(#paint37_linear_101_108)"/>
<path fill-rule="evenodd" clip-rule="evenodd" d="M21.696 40.4487C21.7025 40.4116 21.744 40.392 21.7854 40.4029C21.8214 40.4149 21.8389 40.4552 21.8269 40.4891L21.6131 41.1643C21.6044 41.2101 21.5531 41.2276 21.5236 41.2156C21.4822 41.2047 21.4648 41.1643 21.4735 41.1294L21.696 40.4487Z" fill="#FDC90D"/>
<path fill-rule="evenodd" clip-rule="evenodd" d="M21.696 40.4487C21.7025 40.4116 21.744 40.392 21.7854 40.4029C21.8214 40.4149 21.8389 40.4552 21.8269 40.4891L21.6131 41.1643C21.6044 41.2101 21.5531 41.2276 21.5236 41.2156C21.4822 41.2047 21.4648 41.1643 21.4735 41.1294L21.696 40.4487Z" fill="url(#paint38_linear_101_108)"/>
<path fill-rule="evenodd" clip-rule="evenodd" d="M21.3993 40.3222C21.4167 40.2796 21.4647 40.2731 21.4997 40.2884C21.5389 40.308 21.5477 40.3451 21.5302 40.3854L21.1975 41.0137C21.1768 41.0519 21.1375 41.0661 21.096 41.0432C21.06 41.0312 21.0513 40.9854 21.0666 40.956L21.3993 40.3222Z" fill="#FDC90D"/>
<path fill-rule="evenodd" clip-rule="evenodd" d="M21.3993 40.3222C21.4167 40.2796 21.4647 40.2731 21.4997 40.2884C21.5389 40.308 21.5477 40.3451 21.5302 40.3854L21.1975 41.0137C21.1768 41.0519 21.1375 41.0661 21.096 41.0432C21.06 41.0312 21.0513 40.9854 21.0666 40.956L21.3993 40.3222Z" fill="url(#paint39_linear_101_108)"/>
<path fill-rule="evenodd" clip-rule="evenodd" d="M15.932 39.9589L16.1993 40.3855L17.4657 40.2644L18.3035 40.0713L18.5053 39.6393L18.0591 38.5158L16.8647 38.0052L15.8044 38.6303L15.9298 39.9568L15.932 39.9589ZM16.0455 40.968C15.944 40.968 15.8491 40.9156 15.7989 40.8294L15.4008 40.1956C15.3768 40.1608 15.3648 40.1204 15.3615 40.08L15.2131 38.5092C15.2044 38.4034 15.2579 38.2987 15.3528 38.2441L16.6956 37.4522C16.7763 37.4031 16.8745 37.3944 16.9628 37.4348L18.4104 38.0511C18.4813 38.0805 18.5347 38.1372 18.5642 38.2103L19.0932 39.5466C19.1172 39.6164 19.1139 39.6917 19.0845 39.7604L18.7758 40.4345C18.7398 40.5131 18.6656 40.5731 18.5762 40.5938L17.5574 40.8185L16.0716 40.9625H16.0422L16.0455 40.968Z" fill="#FDC90D"/>
<path fill-rule="evenodd" clip-rule="evenodd" d="M15.932 39.9589L16.1993 40.3855L17.4657 40.2644L18.3035 40.0713L18.5053 39.6393L18.0591 38.5158L16.8647 38.0052L15.8044 38.6303L15.9298 39.9568L15.932 39.9589ZM16.0455 40.968C15.944 40.968 15.8491 40.9156 15.7989 40.8294L15.4008 40.1956C15.3768 40.1608 15.3648 40.1204 15.3615 40.08L15.2131 38.5092C15.2044 38.4034 15.2579 38.2987 15.3528 38.2441L16.6956 37.4522C16.7763 37.4031 16.8745 37.3944 16.9628 37.4348L18.4104 38.0511C18.4813 38.0805 18.5347 38.1372 18.5642 38.2103L19.0932 39.5466C19.1172 39.6164 19.1139 39.6917 19.0845 39.7604L18.7758 40.4345C18.7398 40.5131 18.6656 40.5731 18.5762 40.5938L17.5574 40.8185L16.0716 40.9625H16.0422L16.0455 40.968Z" fill="url(#paint40_linear_101_108)"/>
<path fill-rule="evenodd" clip-rule="evenodd" d="M16.2473 38.0369L15.5754 31.6501C15.5754 31.6501 17.2869 31.4396 17.7745 31.5584V38.1296" fill="#FDC90D"/>
<path fill-rule="evenodd" clip-rule="evenodd" d="M16.2473 38.0369L15.5754 31.6501C15.5754 31.6501 17.2869 31.4396 17.7745 31.5584V38.1296" fill="url(#paint41_linear_101_108)"/>
<path fill-rule="evenodd" clip-rule="evenodd" d="M20.7633 41.6595C20.1274 41.6595 19.5863 41.3192 19.5154 41.2701L19.3071 41.1327L19.15 40.1749L18.9417 40.1465L19.114 39.0317L20.1667 39.1866L20.3685 40.4411C20.5463 40.5131 20.7786 40.5698 20.9324 40.4978C21.0993 40.4236 21.2302 40.1727 21.3131 39.7953L20.6946 39.2412L20.6292 38.4634C20.6172 38.3194 20.5583 37.126 21.3371 36.3657C21.6273 36.0767 22.1541 35.7428 23.0213 35.7887L23.2232 35.7941L23.3781 35.9272C23.3901 35.9414 24.8747 37.1893 26.4913 37.1031C28.1253 37.0224 29.4333 36.6799 29.6493 36.6133L35.699 33.9616L36.1833 34.9847L30.018 37.6856C29.959 37.7052 28.4788 38.1296 26.548 38.2267C24.8245 38.314 23.2886 37.2929 22.7869 36.9133C22.5196 36.9275 22.3113 37.0082 22.1629 37.1555C21.8062 37.5013 21.7702 38.1721 21.7822 38.3794L21.8117 38.7176L22.5403 39.3742L22.5043 39.6622C22.3909 40.6276 22.0233 41.2559 21.42 41.5297C21.1997 41.6246 20.9804 41.665 20.7666 41.665" fill="#FDC90D"/>
<path fill-rule="evenodd" clip-rule="evenodd" d="M20.7633 41.6595C20.1274 41.6595 19.5863 41.3192 19.5154 41.2701L19.3071 41.1327L19.15 40.1749L18.9417 40.1465L19.114 39.0317L20.1667 39.1866L20.3685 40.4411C20.5463 40.5131 20.7786 40.5698 20.9324 40.4978C21.0993 40.4236 21.2302 40.1727 21.3131 39.7953L20.6946 39.2412L20.6292 38.4634C20.6172 38.3194 20.5583 37.126 21.3371 36.3657C21.6273 36.0767 22.1541 35.7428 23.0213 35.7887L23.2232 35.7941L23.3781 35.9272C23.3901 35.9414 24.8747 37.1893 26.4913 37.1031C28.1253 37.0224 29.4333 36.6799 29.6493 36.6133L35.699 33.9616L36.1833 34.9847L30.018 37.6856C29.959 37.7052 28.4788 38.1296 26.548 38.2267C24.8245 38.314 23.2886 37.2929 22.7869 36.9133C22.5196 36.9275 22.3113 37.0082 22.1629 37.1555C21.8062 37.5013 21.7702 38.1721 21.7822 38.3794L21.8117 38.7176L22.5403 39.3742L22.5043 39.6622C22.3909 40.6276 22.0233 41.2559 21.42 41.5297C21.1997 41.6246 20.9804 41.665 20.7666 41.665" fill="url(#paint42_linear_101_108)"/>
<path fill-rule="evenodd" clip-rule="evenodd" d="M61.0116 17.8424L58.4569 19.9084C55.7973 21.9755 54.4164 19.6782 54.4164 19.6782L52.5325 19.1099L41.0582 30.5691C41.0582 30.5691 47.9662 30.1655 50.2093 27.5638C50.2093 27.5638 51.7329 26.1512 52.4587 22.7707C52.4587 22.7707 55.2596 22.4882 55.8453 22.4882C61.0085 22.4882 61.7338 20.3731 61.7338 20.3731L61.0085 17.8369" fill="#FDC90D"/>
<path fill-rule="evenodd" clip-rule="evenodd" d="M61.0116 17.8424L58.4569 19.9084C55.7973 21.9755 54.4164 19.6782 54.4164 19.6782L52.5325 19.1099L41.0582 30.5691C41.0582 30.5691 47.9662 30.1655 50.2093 27.5638C50.2093 27.5638 51.7329 26.1512 52.4587 22.7707C52.4587 22.7707 55.2596 22.4882 55.8453 22.4882C61.0085 22.4882 61.7338 20.3731 61.7338 20.3731L61.0085 17.8369" fill="url(#paint43_linear_101_108)"/>
<path fill-rule="evenodd" clip-rule="evenodd" d="M32.0861 42.2846C30.6092 42.2846 28.7341 42.0915 27.5756 41.2472C25.5052 39.7375 24.4089 37.2908 24.3609 37.1839L24.8954 36.9624C24.9052 36.9908 25.9775 39.383 27.9203 40.7956C29.8281 42.1842 34.1805 41.5908 34.2275 41.5843L34.3082 42.1439C34.2187 42.1559 33.2828 42.2879 32.0796 42.2879" fill="#FDC90D"/>
<path fill-rule="evenodd" clip-rule="evenodd" d="M32.0861 42.2846C30.6092 42.2846 28.7341 42.0915 27.5756 41.2472C25.5052 39.7375 24.4089 37.2908 24.3609 37.1839L24.8954 36.9624C24.9052 36.9908 25.9775 39.383 27.9203 40.7956C29.8281 42.1842 34.1805 41.5908 34.2275 41.5843L34.3082 42.1439C34.2187 42.1559 33.2828 42.2879 32.0796 42.2879" fill="url(#paint44_linear_101_108)"/>
<path fill-rule="evenodd" clip-rule="evenodd" d="M32.8846 42.2529C32.8846 42.2529 33.91 40.3854 35.4993 42.0053C37.0952 43.6252 32.8846 42.2529 32.8846 42.2529Z" fill="#FDC90D"/>
<path fill-rule="evenodd" clip-rule="evenodd" d="M32.8846 42.2529C32.8846 42.2529 33.91 40.3854 35.4993 42.0053C37.0952 43.6252 32.8846 42.2529 32.8846 42.2529Z" fill="url(#paint45_linear_101_108)"/>
<path fill-rule="evenodd" clip-rule="evenodd" d="M33.8598 26.6235C33.8598 26.6235 35.4219 27.3042 35.7906 28.5488L33.8598 26.6235Z" fill="#FDC90D"/>
<path fill-rule="evenodd" clip-rule="evenodd" d="M33.8598 26.6235C33.8598 26.6235 35.4219 27.3042 35.7906 28.5488L33.8598 26.6235Z" fill="url(#paint46_linear_101_108)"/>
<path fill-rule="evenodd" clip-rule="evenodd" d="M63.54 9.40916L63.3613 8.5932L62.6489 9.06009C60.1236 10.7029 57.0333 12.5104 56.4453 12.5562C55.42 12.5562 52.6778 12.758 52.5587 12.77L52.4791 12.7809C50.6129 13.1965 49.5818 13.8674 49.3298 14.8393C49.0716 15.833 49.7698 16.7068 50.1436 17.0875C50.0369 19.3346 48.48 21.2512 47.9893 21.7988C45.6333 21.981 44.3504 23.6347 43.8453 24.4713C39.3205 23.0587 34.6048 25.5436 33.6995 26.0563H29.3678L29.2925 26.0617C29.0852 26.0847 24.302 26.6955 21.8421 28.0012C20.1306 28.9088 19.6823 30.5778 19.5841 31.7253C18.7606 31.2127 17.5127 30.6301 16.2353 30.7828C15.1957 30.904 14.3187 31.4657 13.6358 32.454C13.2672 33.0016 12.7359 34.7022 13.1308 36.3679C13.422 37.5875 14.1649 38.567 15.2786 39.2008L15.8644 38.2212C15.0201 37.7456 14.4856 37.0344 14.2685 36.1116C13.9511 34.7916 14.382 33.4085 14.6078 33.0801C15.0976 32.3678 15.6713 31.985 16.3716 31.8977C18.0155 31.7046 19.774 33.2612 19.7947 33.2754L20.9826 34.3422L20.7633 32.7856C20.7633 32.7572 20.3946 30.0476 22.3974 28.9896C24.5605 27.8431 28.9631 27.2376 29.4092 27.1799H34.0256L34.1685 27.0937C34.2187 27.0588 39.398 23.9804 43.9195 25.6811L44.4398 25.8774L44.6622 25.3789C44.7071 25.2807 45.7498 22.9867 48.2773 22.9005L48.5098 22.894L48.6702 22.7304C48.7769 22.6235 51.2991 20.0644 51.2991 16.8453V16.5857L51.1004 16.4188C50.928 16.2737 50.3129 15.6203 50.4471 15.1044C50.5213 14.8164 50.9129 14.2797 52.6898 13.8794C53.0462 13.8499 55.5302 13.6776 56.4422 13.6776C57.1907 13.6776 59.3742 12.4329 61.2102 11.3028C60.6222 11.9257 59.7396 12.7231 58.4178 13.7179C58.2604 13.8336 58.1591 13.9077 58.1209 13.9306L57.8382 14.1444L57.928 14.7924L58.2333 14.92C58.4622 15.0062 58.6022 14.9778 58.828 14.8328C58.9107 14.776 59.0067 14.7008 59.1258 14.6113C63.552 11.2974 63.62 9.78987 63.54 9.40587" fill="#FDC90D"/>
<path fill-rule="evenodd" clip-rule="evenodd" d="M63.54 9.40916L63.3613 8.5932L62.6489 9.06009C60.1236 10.7029 57.0333 12.5104 56.4453 12.5562C55.42 12.5562 52.6778 12.758 52.5587 12.77L52.4791 12.7809C50.6129 13.1965 49.5818 13.8674 49.3298 14.8393C49.0716 15.833 49.7698 16.7068 50.1436 17.0875C50.0369 19.3346 48.48 21.2512 47.9893 21.7988C45.6333 21.981 44.3504 23.6347 43.8453 24.4713C39.3205 23.0587 34.6048 25.5436 33.6995 26.0563H29.3678L29.2925 26.0617C29.0852 26.0847 24.302 26.6955 21.8421 28.0012C20.1306 28.9088 19.6823 30.5778 19.5841 31.7253C18.7606 31.2127 17.5127 30.6301 16.2353 30.7828C15.1957 30.904 14.3187 31.4657 13.6358 32.454C13.2672 33.0016 12.7359 34.7022 13.1308 36.3679C13.422 37.5875 14.1649 38.567 15.2786 39.2008L15.8644 38.2212C15.0201 37.7456 14.4856 37.0344 14.2685 36.1116C13.9511 34.7916 14.382 33.4085 14.6078 33.0801C15.0976 32.3678 15.6713 31.985 16.3716 31.8977C18.0155 31.7046 19.774 33.2612 19.7947 33.2754L20.9826 34.3422L20.7633 32.7856C20.7633 32.7572 20.3946 30.0476 22.3974 28.9896C24.5605 27.8431 28.9631 27.2376 29.4092 27.1799H34.0256L34.1685 27.0937C34.2187 27.0588 39.398 23.9804 43.9195 25.6811L44.4398 25.8774L44.6622 25.3789C44.7071 25.2807 45.7498 22.9867 48.2773 22.9005L48.5098 22.894L48.6702 22.7304C48.7769 22.6235 51.2991 20.0644 51.2991 16.8453V16.5857L51.1004 16.4188C50.928 16.2737 50.3129 15.6203 50.4471 15.1044C50.5213 14.8164 50.9129 14.2797 52.6898 13.8794C53.0462 13.8499 55.5302 13.6776 56.4422 13.6776C57.1907 13.6776 59.3742 12.4329 61.2102 11.3028C60.6222 11.9257 59.7396 12.7231 58.4178 13.7179C58.2604 13.8336 58.1591 13.9077 58.1209 13.9306L57.8382 14.1444L57.928 14.7924L58.2333 14.92C58.4622 15.0062 58.6022 14.9778 58.828 14.8328C58.9107 14.776 59.0067 14.7008 59.1258 14.6113C63.552 11.2974 63.62 9.78987 63.54 9.40587" fill="url(#paint47_linear_101_108)"/>
<path fill-rule="evenodd" clip-rule="evenodd" d="M38.4969 32.5806L37.8435 31.6501L39.9292 30.2778C43.9522 28.7507 46.2996 26.929 46.5898 26.6955L50.268 22.5231L53.3702 15.2942L53.9942 15.0728C54.5649 15.0204 55.2804 14.6462 55.7471 14.4008C56.0733 14.2284 56.2764 14.1237 56.4693 14.0921L58.4778 13.7616L58.676 14.8709L56.6649 15.2025C56.6418 15.2135 56.4573 15.3171 56.2991 15.3924C55.7769 15.6661 55.0044 16.073 54.2498 16.1788L51.2107 23.1831L47.3773 27.5169C47.2791 27.6042 44.8609 29.6015 40.4135 31.3043L38.4969 32.5729" fill="#FDC90D"/>
<path fill-rule="evenodd" clip-rule="evenodd" d="M38.4969 32.5806L37.8435 31.6501L39.9292 30.2778C43.9522 28.7507 46.2996 26.929 46.5898 26.6955L50.268 22.5231L53.3702 15.2942L53.9942 15.0728C54.5649 15.0204 55.2804 14.6462 55.7471 14.4008C56.0733 14.2284 56.2764 14.1237 56.4693 14.0921L58.4778 13.7616L58.676 14.8709L56.6649 15.2025C56.6418 15.2135 56.4573 15.3171 56.2991 15.3924C55.7769 15.6661 55.0044 16.073 54.2498 16.1788L51.2107 23.1831L47.3773 27.5169C47.2791 27.6042 44.8609 29.6015 40.4135 31.3043L38.4969 32.5729" fill="url(#paint48_linear_101_108)"/>
<path fill-rule="evenodd" clip-rule="evenodd" d="M45.5533 38.2736C45.5533 42.0348 42.8493 40.4804 42.8493 40.4804L41.3942 38.9826C41.3942 38.9826 36.3371 35.0426 35.1459 34.9324C32.6054 34.7077 29.1059 32.3504 26.9047 33.2492C26.7138 33.33 26.5327 33.3998 26.3549 33.4598C22.0352 34.9815 21.5858 32.0308 21.5858 32.0308C21.5858 32.0308 21.1996 29.0277 27.0978 28.9328C32.9915 28.8347 38.69 32.1202 38.69 32.1202L42.2679 37.5668C42.2679 37.5668 43.6227 37.7108 44.0089 38.7427C44.0089 38.7427 45.5533 37.426 45.5533 38.2736Z" fill="#FDC90D"/>
<path fill-rule="evenodd" clip-rule="evenodd" d="M45.5533 38.2736C45.5533 42.0348 42.8493 40.4804 42.8493 40.4804L41.3942 38.9826C41.3942 38.9826 36.3371 35.0426 35.1459 34.9324C32.6054 34.7077 29.1059 32.3504 26.9047 33.2492C26.7138 33.33 26.5327 33.3998 26.3549 33.4598C22.0352 34.9815 21.5858 32.0308 21.5858 32.0308C21.5858 32.0308 21.1996 29.0277 27.0978 28.9328C32.9915 28.8347 38.69 32.1202 38.69 32.1202L42.2679 37.5668C42.2679 37.5668 43.6227 37.7108 44.0089 38.7427C44.0089 38.7427 45.5533 37.426 45.5533 38.2736Z" fill="url(#paint49_linear_101_108)"/>
<path fill-rule="evenodd" clip-rule="evenodd" d="M63.1267 9.80404C63.1267 9.80404 57.616 13.3983 56.6058 13.3983C55.5871 13.3983 52.764 13.6088 52.764 13.6088C47.9805 14.6659 50.8778 17.13 50.8778 17.13C50.8778 20.156 48.4116 22.6235 48.4116 22.6235C45.4707 22.7162 44.2816 25.4422 44.2816 25.4422C39.4274 23.6096 34.0169 26.8973 34.0169 26.8973H29.5216C29.5216 26.8973 24.6641 27.5028 22.273 28.7714C19.8841 30.0389 20.3412 33.1401 20.3412 33.1401C20.3412 33.1401 16.5538 29.7313 14.2805 33.0485C13.8049 33.7336 12.8897 37.1697 15.5339 38.8616L15.5045 38.4808L16.8418 37.6878L18.2915 38.3052L18.8173 39.6426L18.7671 39.7571L19.1882 39.8608L19.8121 39.9589L19.7674 41.3661C19.7674 41.3661 21.7974 42.2595 22.0854 39.8608L21.4113 39.2564L21.36 38.6914C21.36 38.6914 21.2117 36.5294 23.149 36.6221C23.149 36.6221 24.7918 38.0336 26.6757 37.9387C28.5595 37.8384 30.0092 37.4206 30.0092 37.4206L36.0993 34.7393L38.7533 32.1573L40.2979 31.0763C44.7418 29.3844 47.1605 27.3642 47.1605 27.3642L50.9311 23.0991L53.976 16.0032L54.2138 15.9116C55.2333 15.8156 56.4422 14.9713 56.7302 14.9222L58.7382 14.5906L58.9316 14.4466C63.4182 11.0868 63.1356 9.80729 63.1356 9.80729" fill="#FDC90D"/>
<path fill-rule="evenodd" clip-rule="evenodd" d="M63.1267 9.80404C63.1267 9.80404 57.616 13.3983 56.6058 13.3983C55.5871 13.3983 52.764 13.6088 52.764 13.6088C47.9805 14.6659 50.8778 17.13 50.8778 17.13C50.8778 20.156 48.4116 22.6235 48.4116 22.6235C45.4707 22.7162 44.2816 25.4422 44.2816 25.4422C39.4274 23.6096 34.0169 26.8973 34.0169 26.8973H29.5216C29.5216 26.8973 24.6641 27.5028 22.273 28.7714C19.8841 30.0389 20.3412 33.1401 20.3412 33.1401C20.3412 33.1401 16.5538 29.7313 14.2805 33.0485C13.8049 33.7336 12.8897 37.1697 15.5339 38.8616L15.5045 38.4808L16.8418 37.6878L18.2915 38.3052L18.8173 39.6426L18.7671 39.7571L19.1882 39.8608L19.8121 39.9589L19.7674 41.3661C19.7674 41.3661 21.7974 42.2595 22.0854 39.8608L21.4113 39.2564L21.36 38.6914C21.36 38.6914 21.2117 36.5294 23.149 36.6221C23.149 36.6221 24.7918 38.0336 26.6757 37.9387C28.5595 37.8384 30.0092 37.4206 30.0092 37.4206L36.0993 34.7393L38.7533 32.1573L40.2979 31.0763C44.7418 29.3844 47.1605 27.3642 47.1605 27.3642L50.9311 23.0991L53.976 16.0032L54.2138 15.9116C55.2333 15.8156 56.4422 14.9713 56.7302 14.9222L58.7382 14.5906L58.9316 14.4466C63.4182 11.0868 63.1356 9.80729 63.1356 9.80729" fill="url(#paint50_linear_101_108)"/>
<path fill-rule="evenodd" clip-rule="evenodd" d="M49.332 36.9537C47.0631 46.6196 38.1501 53.8538 27.5309 53.8538C15.2012 53.8538 5.17104 44.1041 5.17104 32.1169C5.17104 20.1331 15.2012 10.38 27.5309 10.38C32.4036 10.38 36.9196 11.9082 40.5979 14.4902C41.3997 13.1791 42.3301 11.9137 43.4384 10.8218C38.9671 7.65071 33.4704 5.77778 27.5309 5.77778C12.5963 5.77778 0.444458 17.5948 0.444458 32.1082C0.444458 46.6284 12.5963 58.4418 27.5309 58.4418C40.7942 58.4418 51.864 49.124 54.172 36.8697C52.5796 37.066 50.892 37.0137 49.3356 36.9472" fill="#FDC90D"/>
<path fill-rule="evenodd" clip-rule="evenodd" d="M49.332 36.9537C47.0631 46.6196 38.1501 53.8538 27.5309 53.8538C15.2012 53.8538 5.17104 44.1041 5.17104 32.1169C5.17104 20.1331 15.2012 10.38 27.5309 10.38C32.4036 10.38 36.9196 11.9082 40.5979 14.4902C41.3997 13.1791 42.3301 11.9137 43.4384 10.8218C38.9671 7.65071 33.4704 5.77778 27.5309 5.77778C12.5963 5.77778 0.444458 17.5948 0.444458 32.1082C0.444458 46.6284 12.5963 58.4418 27.5309 58.4418C40.7942 58.4418 51.864 49.124 54.172 36.8697C52.5796 37.066 50.892 37.0137 49.3356 36.9472" fill="url(#paint51_linear_101_108)"/>
<defs>
<linearGradient id="paint0_linear_101_108" x1="32" y1="5.77769" x2="32" y2="58.4422" gradientUnits="userSpaceOnUse">
<stop offset="0.510417" stop-color="#DA0000" stop-opacity="0"/>
<stop offset="1" stop-color="#DA0000" stop-opacity="0.2"/>
</linearGradient>
<linearGradient id="paint1_linear_101_108" x1="32" y1="5.77768" x2="32" y2="58.4422" gradientUnits="userSpaceOnUse">
<stop offset="0.510417" stop-color="#DA0000" stop-opacity="0"/>
<stop offset="1" stop-color="#DA0000" stop-opacity="0.2"/>
</linearGradient>
<linearGradient id="paint2_linear_101_108" x1="32" y1="5.77761" x2="32" y2="58.4423" gradientUnits="userSpaceOnUse">
<stop offset="0.510417" stop-color="#DA0000" stop-opacity="0"/>
<stop offset="1" stop-color="#DA0000" stop-opacity="0.2"/>
</linearGradient>
<linearGradient id="paint3_linear_101_108" x1="31.9999" y1="5.7777" x2="31.9999" y2="58.4423" gradientUnits="userSpaceOnUse">
<stop offset="0.510417" stop-color="#DA0000" stop-opacity="0"/>
<stop offset="1" stop-color="#DA0000" stop-opacity="0.2"/>
</linearGradient>
<linearGradient id="paint4_linear_101_108" x1="31.9999" y1="5.77766" x2="31.9999" y2="58.4423" gradientUnits="userSpaceOnUse">
<stop offset="0.510417" stop-color="#DA0000" stop-opacity="0"/>
<stop offset="1" stop-color="#DA0000" stop-opacity="0.2"/>
</linearGradient>
<linearGradient id="paint5_linear_101_108" x1="32" y1="5.77773" x2="32" y2="58.4422" gradientUnits="userSpaceOnUse">
<stop offset="0.510417" stop-color="#DA0000" stop-opacity="0"/>
<stop offset="1" stop-color="#DA0000" stop-opacity="0.2"/>
</linearGradient>
<linearGradient id="paint6_linear_101_108" x1="32" y1="5.77767" x2="32" y2="58.4422" gradientUnits="userSpaceOnUse">
<stop offset="0.510417" stop-color="#DA0000" stop-opacity="0"/>
<stop offset="1" stop-color="#DA0000" stop-opacity="0.2"/>
</linearGradient>
<linearGradient id="paint7_linear_101_108" x1="32" y1="5.77772" x2="32" y2="58.4422" gradientUnits="userSpaceOnUse">
<stop offset="0.510417" stop-color="#DA0000" stop-opacity="0"/>
<stop offset="1" stop-color="#DA0000" stop-opacity="0.2"/>
</linearGradient>
<linearGradient id="paint8_linear_101_108" x1="32" y1="5.77773" x2="32" y2="58.4422" gradientUnits="userSpaceOnUse">
<stop offset="0.510417" stop-color="#DA0000" stop-opacity="0"/>
<stop offset="1" stop-color="#DA0000" stop-opacity="0.2"/>
</linearGradient>
<linearGradient id="paint9_linear_101_108" x1="32" y1="5.77769" x2="32" y2="58.4423" gradientUnits="userSpaceOnUse">
<stop offset="0.510417" stop-color="#DA0000" stop-opacity="0"/>
<stop offset="1" stop-color="#DA0000" stop-opacity="0.2"/>
</linearGradient>
<linearGradient id="paint10_linear_101_108" x1="32" y1="5.77768" x2="32" y2="58.4422" gradientUnits="userSpaceOnUse">
<stop offset="0.510417" stop-color="#DA0000" stop-opacity="0"/>
<stop offset="1" stop-color="#DA0000" stop-opacity="0.2"/>
</linearGradient>
<linearGradient id="paint11_linear_101_108" x1="32" y1="5.77758" x2="32" y2="58.4424" gradientUnits="userSpaceOnUse">
<stop offset="0.510417" stop-color="#DA0000" stop-opacity="0"/>
<stop offset="1" stop-color="#DA0000" stop-opacity="0.2"/>
</linearGradient>
<linearGradient id="paint12_linear_101_108" x1="32" y1="5.77776" x2="32" y2="58.4422" gradientUnits="userSpaceOnUse">
<stop offset="0.510417" stop-color="#DA0000" stop-opacity="0"/>
<stop offset="1" stop-color="#DA0000" stop-opacity="0.2"/>
</linearGradient>
<linearGradient id="paint13_linear_101_108" x1="32" y1="5.77777" x2="32" y2="58.4422" gradientUnits="userSpaceOnUse">
<stop offset="0.510417" stop-color="#DA0000" stop-opacity="0"/>
<stop offset="1" stop-color="#DA0000" stop-opacity="0.2"/>
</linearGradient>
<linearGradient id="paint14_linear_101_108" x1="31.9999" y1="5.77785" x2="31.9999" y2="58.4421" gradientUnits="userSpaceOnUse">
<stop offset="0.510417" stop-color="#DA0000" stop-opacity="0"/>
<stop offset="1" stop-color="#DA0000" stop-opacity="0.2"/>
</linearGradient>
<linearGradient id="paint15_linear_101_108" x1="32" y1="5.77765" x2="32" y2="58.4423" gradientUnits="userSpaceOnUse">
<stop offset="0.510417" stop-color="#DA0000" stop-opacity="0"/>
<stop offset="1" stop-color="#DA0000" stop-opacity="0.2"/>
</linearGradient>
<linearGradient id="paint16_linear_101_108" x1="31.9999" y1="5.77777" x2="31.9999" y2="58.4422" gradientUnits="userSpaceOnUse">
<stop offset="0.510417" stop-color="#DA0000" stop-opacity="0"/>
<stop offset="1" stop-color="#DA0000" stop-opacity="0.2"/>
</linearGradient>
<linearGradient id="paint17_linear_101_108" x1="31.9999" y1="5.77771" x2="31.9999" y2="58.4423" gradientUnits="userSpaceOnUse">
<stop offset="0.510417" stop-color="#DA0000" stop-opacity="0"/>
<stop offset="1" stop-color="#DA0000" stop-opacity="0.2"/>
</linearGradient>
<linearGradient id="paint18_linear_101_108" x1="32" y1="5.77776" x2="32" y2="58.4422" gradientUnits="userSpaceOnUse">
<stop offset="0.510417" stop-color="#DA0000" stop-opacity="0"/>
<stop offset="1" stop-color="#DA0000" stop-opacity="0.2"/>
</linearGradient>
<linearGradient id="paint19_linear_101_108" x1="31.9999" y1="5.77773" x2="31.9999" y2="58.4422" gradientUnits="userSpaceOnUse">
<stop offset="0.510417" stop-color="#DA0000" stop-opacity="0"/>
<stop offset="1" stop-color="#DA0000" stop-opacity="0.2"/>
</linearGradient>
<linearGradient id="paint20_linear_101_108" x1="32" y1="5.77769" x2="32" y2="58.4422" gradientUnits="userSpaceOnUse">
<stop offset="0.510417" stop-color="#DA0000" stop-opacity="0"/>
<stop offset="1" stop-color="#DA0000" stop-opacity="0.2"/>
</linearGradient>
<linearGradient id="paint21_linear_101_108" x1="32" y1="5.77777" x2="32" y2="58.4422" gradientUnits="userSpaceOnUse">
<stop offset="0.510417" stop-color="#DA0000" stop-opacity="0"/>
<stop offset="1" stop-color="#DA0000" stop-opacity="0.2"/>
</linearGradient>
<linearGradient id="paint22_linear_101_108" x1="32" y1="5.77773" x2="32" y2="58.4422" gradientUnits="userSpaceOnUse">
<stop offset="0.510417" stop-color="#DA0000" stop-opacity="0"/>
<stop offset="1" stop-color="#DA0000" stop-opacity="0.2"/>
</linearGradient>
<linearGradient id="paint23_linear_101_108" x1="32" y1="5.77766" x2="32" y2="58.4423" gradientUnits="userSpaceOnUse">
<stop offset="0.510417" stop-color="#DA0000" stop-opacity="0"/>
<stop offset="1" stop-color="#DA0000" stop-opacity="0.2"/>
</linearGradient>
<linearGradient id="paint24_linear_101_108" x1="32" y1="5.77761" x2="32" y2="58.4423" gradientUnits="userSpaceOnUse">
<stop offset="0.510417" stop-color="#DA0000" stop-opacity="0"/>
<stop offset="1" stop-color="#DA0000" stop-opacity="0.2"/>
</linearGradient>
<linearGradient id="paint25_linear_101_108" x1="32" y1="5.77747" x2="32" y2="58.4424" gradientUnits="userSpaceOnUse">
<stop offset="0.510417" stop-color="#DA0000" stop-opacity="0"/>
<stop offset="1" stop-color="#DA0000" stop-opacity="0.2"/>
</linearGradient>
<linearGradient id="paint26_linear_101_108" x1="32" y1="5.77787" x2="32" y2="58.4421" gradientUnits="userSpaceOnUse">
<stop offset="0.510417" stop-color="#DA0000" stop-opacity="0"/>
<stop offset="1" stop-color="#DA0000" stop-opacity="0.2"/>
</linearGradient>
<linearGradient id="paint27_linear_101_108" x1="32" y1="5.77751" x2="32" y2="58.4424" gradientUnits="userSpaceOnUse">
<stop offset="0.510417" stop-color="#DA0000" stop-opacity="0"/>
<stop offset="1" stop-color="#DA0000" stop-opacity="0.2"/>
</linearGradient>
<linearGradient id="paint28_linear_101_108" x1="32" y1="5.77771" x2="32" y2="58.4422" gradientUnits="userSpaceOnUse">
<stop offset="0.510417" stop-color="#DA0000" stop-opacity="0"/>
<stop offset="1" stop-color="#DA0000" stop-opacity="0.2"/>
</linearGradient>
<linearGradient id="paint29_linear_101_108" x1="32" y1="5.77757" x2="32" y2="58.4423" gradientUnits="userSpaceOnUse">
<stop offset="0.510417" stop-color="#DA0000" stop-opacity="0"/>
<stop offset="1" stop-color="#DA0000" stop-opacity="0.2"/>
</linearGradient>
<linearGradient id="paint30_linear_101_108" x1="32" y1="5.77765" x2="32" y2="58.4422" gradientUnits="userSpaceOnUse">
<stop offset="0.510417" stop-color="#DA0000" stop-opacity="0"/>
<stop offset="1" stop-color="#DA0000" stop-opacity="0.2"/>
</linearGradient>
<linearGradient id="paint31_linear_101_108" x1="31.9999" y1="5.77777" x2="31.9999" y2="58.4422" gradientUnits="userSpaceOnUse">
<stop offset="0.510417" stop-color="#DA0000" stop-opacity="0"/>
<stop offset="1" stop-color="#DA0000" stop-opacity="0.2"/>
</linearGradient>
<linearGradient id="paint32_linear_101_108" x1="31.9999" y1="5.77764" x2="31.9999" y2="58.4423" gradientUnits="userSpaceOnUse">
<stop offset="0.510417" stop-color="#DA0000" stop-opacity="0"/>
<stop offset="1" stop-color="#DA0000" stop-opacity="0.2"/>
</linearGradient>
<linearGradient id="paint33_linear_101_108" x1="32" y1="5.77763" x2="32" y2="58.4422" gradientUnits="userSpaceOnUse">
<stop offset="0.510417" stop-color="#DA0000" stop-opacity="0"/>
<stop offset="1" stop-color="#DA0000" stop-opacity="0.2"/>
</linearGradient>
<linearGradient id="paint34_linear_101_108" x1="32" y1="5.77767" x2="32" y2="58.4422" gradientUnits="userSpaceOnUse">
<stop offset="0.510417" stop-color="#DA0000" stop-opacity="0"/>
<stop offset="1" stop-color="#DA0000" stop-opacity="0.2"/>
</linearGradient>
<linearGradient id="paint35_linear_101_108" x1="32" y1="5.77775" x2="32" y2="58.4422" gradientUnits="userSpaceOnUse">
<stop offset="0.510417" stop-color="#DA0000" stop-opacity="0"/>
<stop offset="1" stop-color="#DA0000" stop-opacity="0.2"/>
</linearGradient>
<linearGradient id="paint36_linear_101_108" x1="32" y1="5.77766" x2="32" y2="58.4423" gradientUnits="userSpaceOnUse">
<stop offset="0.510417" stop-color="#DA0000" stop-opacity="0"/>
<stop offset="1" stop-color="#DA0000" stop-opacity="0.2"/>
</linearGradient>
<linearGradient id="paint37_linear_101_108" x1="32" y1="5.77761" x2="32" y2="58.4423" gradientUnits="userSpaceOnUse">
<stop offset="0.510417" stop-color="#DA0000" stop-opacity="0"/>
<stop offset="1" stop-color="#DA0000" stop-opacity="0.2"/>
</linearGradient>
<linearGradient id="paint38_linear_101_108" x1="32" y1="5.77771" x2="32" y2="58.4422" gradientUnits="userSpaceOnUse">
<stop offset="0.510417" stop-color="#DA0000" stop-opacity="0"/>
<stop offset="1" stop-color="#DA0000" stop-opacity="0.2"/>
</linearGradient>
<linearGradient id="paint39_linear_101_108" x1="32" y1="5.77777" x2="32" y2="58.4422" gradientUnits="userSpaceOnUse">
<stop offset="0.510417" stop-color="#DA0000" stop-opacity="0"/>
<stop offset="1" stop-color="#DA0000" stop-opacity="0.2"/>
</linearGradient>
<linearGradient id="paint40_linear_101_108" x1="31.9999" y1="5.77773" x2="31.9999" y2="58.4422" gradientUnits="userSpaceOnUse">
<stop offset="0.510417" stop-color="#DA0000" stop-opacity="0"/>
<stop offset="1" stop-color="#DA0000" stop-opacity="0.2"/>
</linearGradient>
<linearGradient id="paint41_linear_101_108" x1="32" y1="5.77768" x2="32" y2="58.4422" gradientUnits="userSpaceOnUse">
<stop offset="0.510417" stop-color="#DA0000" stop-opacity="0"/>
<stop offset="1" stop-color="#DA0000" stop-opacity="0.2"/>
</linearGradient>
<linearGradient id="paint42_linear_101_108" x1="32" y1="5.77768" x2="32" y2="58.4422" gradientUnits="userSpaceOnUse">
<stop offset="0.510417" stop-color="#DA0000" stop-opacity="0"/>
<stop offset="1" stop-color="#DA0000" stop-opacity="0.2"/>
</linearGradient>
<linearGradient id="paint43_linear_101_108" x1="32" y1="5.77769" x2="32" y2="58.4422" gradientUnits="userSpaceOnUse">
<stop offset="0.510417" stop-color="#DA0000" stop-opacity="0"/>
<stop offset="1" stop-color="#DA0000" stop-opacity="0.2"/>
</linearGradient>
<linearGradient id="paint44_linear_101_108" x1="32" y1="5.77773" x2="32" y2="58.4422" gradientUnits="userSpaceOnUse">
<stop offset="0.510417" stop-color="#DA0000" stop-opacity="0"/>
<stop offset="1" stop-color="#DA0000" stop-opacity="0.2"/>
</linearGradient>
<linearGradient id="paint45_linear_101_108" x1="31.9999" y1="5.77769" x2="31.9999" y2="58.4422" gradientUnits="userSpaceOnUse">
<stop offset="0.510417" stop-color="#DA0000" stop-opacity="0"/>
<stop offset="1" stop-color="#DA0000" stop-opacity="0.2"/>
</linearGradient>
<linearGradient id="paint46_linear_101_108" x1="32" y1="5.77769" x2="32" y2="58.4422" gradientUnits="userSpaceOnUse">
<stop offset="0.510417" stop-color="#DA0000" stop-opacity="0"/>
<stop offset="1" stop-color="#DA0000" stop-opacity="0.2"/>
</linearGradient>
<linearGradient id="paint47_linear_101_108" x1="32" y1="5.77769" x2="32" y2="58.4422" gradientUnits="userSpaceOnUse">
<stop offset="0.510417" stop-color="#DA0000" stop-opacity="0"/>
<stop offset="1" stop-color="#DA0000" stop-opacity="0.2"/>
</linearGradient>
<linearGradient id="paint48_linear_101_108" x1="32" y1="5.77769" x2="32" y2="58.4422" gradientUnits="userSpaceOnUse">
<stop offset="0.510417" stop-color="#DA0000" stop-opacity="0"/>
<stop offset="1" stop-color="#DA0000" stop-opacity="0.2"/>
</linearGradient>
<linearGradient id="paint49_linear_101_108" x1="32" y1="5.77773" x2="32" y2="58.4422" gradientUnits="userSpaceOnUse">
<stop offset="0.510417" stop-color="#DA0000" stop-opacity="0"/>
<stop offset="1" stop-color="#DA0000" stop-opacity="0.2"/>
</linearGradient>
<linearGradient id="paint50_linear_101_108" x1="32" y1="5.77773" x2="32" y2="58.4422" gradientUnits="userSpaceOnUse">
<stop offset="0.510417" stop-color="#DA0000" stop-opacity="0"/>
<stop offset="1" stop-color="#DA0000" stop-opacity="0.2"/>
</linearGradient>
<linearGradient id="paint51_linear_101_108" x1="32" y1="5.77769" x2="32" y2="58.4422" gradientUnits="userSpaceOnUse">
<stop offset="0.510417" stop-color="#DA0000" stop-opacity="0"/>
<stop offset="1" stop-color="#DA0000" stop-opacity="0.2"/>
</linearGradient>
</defs>
</svg>
