<?xml version="1.0" encoding="UTF-8"?>
<svg xmlns="http://www.w3.org/2000/svg" xmlns:xlink="http://www.w3.org/1999/xlink" width="301px" height="256px" viewBox="0 0 301 256" version="1.1">
<defs>
<linearGradient id="linear0" gradientUnits="userSpaceOnUse" x1="36.5" y1="0.274902" x2="36.5" y2="61.1739" gradientTransform="matrix(4.123287,0,0,4.129032,0,0)">
<stop offset="0.510417" style="stop-color:rgb(85.490196%,0%,0%);stop-opacity:0;"/>
<stop offset="1" style="stop-color:rgb(85.490196%,0%,0%);stop-opacity:0.2;"/>
</linearGradient>
<linearGradient id="linear1" gradientUnits="userSpaceOnUse" x1="36.5" y1="0.274902" x2="36.5" y2="61.1739" gradientTransform="matrix(4.123287,0,0,4.129032,0,0)">
<stop offset="0.510417" style="stop-color:rgb(85.490196%,0%,0%);stop-opacity:0;"/>
<stop offset="1" style="stop-color:rgb(85.490196%,0%,0%);stop-opacity:0.2;"/>
</linearGradient>
<linearGradient id="linear2" gradientUnits="userSpaceOnUse" x1="36.5" y1="0.274902" x2="36.5" y2="61.1739" gradientTransform="matrix(4.123287,0,0,4.129032,0,0)">
<stop offset="0.510417" style="stop-color:rgb(85.490196%,0%,0%);stop-opacity:0;"/>
<stop offset="1" style="stop-color:rgb(85.490196%,0%,0%);stop-opacity:0.2;"/>
</linearGradient>
<linearGradient id="linear3" gradientUnits="userSpaceOnUse" x1="36.5" y1="0.274902" x2="36.5" y2="61.1739" gradientTransform="matrix(4.123287,0,0,4.129032,0,0)">
<stop offset="0.510417" style="stop-color:rgb(85.490196%,0%,0%);stop-opacity:0;"/>
<stop offset="1" style="stop-color:rgb(85.490196%,0%,0%);stop-opacity:0.2;"/>
</linearGradient>
<linearGradient id="linear4" gradientUnits="userSpaceOnUse" x1="36.5" y1="0.274902" x2="36.5" y2="61.1739" gradientTransform="matrix(4.123287,0,0,4.129032,0,0)">
<stop offset="0.510417" style="stop-color:rgb(85.490196%,0%,0%);stop-opacity:0;"/>
<stop offset="1" style="stop-color:rgb(85.490196%,0%,0%);stop-opacity:0.2;"/>
</linearGradient>
<linearGradient id="linear5" gradientUnits="userSpaceOnUse" x1="36.5" y1="0.274902" x2="36.5" y2="61.1739" gradientTransform="matrix(4.123287,0,0,4.129032,0,0)">
<stop offset="0.510417" style="stop-color:rgb(85.490196%,0%,0%);stop-opacity:0;"/>
<stop offset="1" style="stop-color:rgb(85.490196%,0%,0%);stop-opacity:0.2;"/>
</linearGradient>
<linearGradient id="linear6" gradientUnits="userSpaceOnUse" x1="36.5" y1="0.274902" x2="36.5" y2="61.1739" gradientTransform="matrix(4.123287,0,0,4.129032,0,0)">
<stop offset="0.510417" style="stop-color:rgb(85.490196%,0%,0%);stop-opacity:0;"/>
<stop offset="1" style="stop-color:rgb(85.490196%,0%,0%);stop-opacity:0.2;"/>
</linearGradient>
<linearGradient id="linear7" gradientUnits="userSpaceOnUse" x1="36.5" y1="0.274902" x2="36.5" y2="61.1739" gradientTransform="matrix(4.123287,0,0,4.129032,0,0)">
<stop offset="0.510417" style="stop-color:rgb(85.490196%,0%,0%);stop-opacity:0;"/>
<stop offset="1" style="stop-color:rgb(85.490196%,0%,0%);stop-opacity:0.2;"/>
</linearGradient>
<linearGradient id="linear8" gradientUnits="userSpaceOnUse" x1="36.5" y1="0.274902" x2="36.5" y2="61.1739" gradientTransform="matrix(4.123287,0,0,4.129032,0,0)">
<stop offset="0.510417" style="stop-color:rgb(85.490196%,0%,0%);stop-opacity:0;"/>
<stop offset="1" style="stop-color:rgb(85.490196%,0%,0%);stop-opacity:0.2;"/>
</linearGradient>
<linearGradient id="linear9" gradientUnits="userSpaceOnUse" x1="36.5" y1="0.274902" x2="36.5" y2="61.1739" gradientTransform="matrix(4.123287,0,0,4.129032,0,0)">
<stop offset="0.510417" style="stop-color:rgb(85.490196%,0%,0%);stop-opacity:0;"/>
<stop offset="1" style="stop-color:rgb(85.490196%,0%,0%);stop-opacity:0.2;"/>
</linearGradient>
<linearGradient id="linear10" gradientUnits="userSpaceOnUse" x1="36.5" y1="0.274902" x2="36.5" y2="61.1739" gradientTransform="matrix(4.123287,0,0,4.129032,0,0)">
<stop offset="0.510417" style="stop-color:rgb(85.490196%,0%,0%);stop-opacity:0;"/>
<stop offset="1" style="stop-color:rgb(85.490196%,0%,0%);stop-opacity:0.2;"/>
</linearGradient>
<linearGradient id="linear11" gradientUnits="userSpaceOnUse" x1="36.5" y1="0.274902" x2="36.5" y2="61.1739" gradientTransform="matrix(4.123287,0,0,4.129032,0,0)">
<stop offset="0.510417" style="stop-color:rgb(85.490196%,0%,0%);stop-opacity:0;"/>
<stop offset="1" style="stop-color:rgb(85.490196%,0%,0%);stop-opacity:0.2;"/>
</linearGradient>
<linearGradient id="linear12" gradientUnits="userSpaceOnUse" x1="36.5" y1="0.274902" x2="36.5" y2="61.1739" gradientTransform="matrix(4.123287,0,0,4.129032,0,0)">
<stop offset="0.510417" style="stop-color:rgb(85.490196%,0%,0%);stop-opacity:0;"/>
<stop offset="1" style="stop-color:rgb(85.490196%,0%,0%);stop-opacity:0.2;"/>
</linearGradient>
<linearGradient id="linear13" gradientUnits="userSpaceOnUse" x1="36.5" y1="0.274902" x2="36.5" y2="61.1739" gradientTransform="matrix(4.123287,0,0,4.129032,0,0)">
<stop offset="0.510417" style="stop-color:rgb(85.490196%,0%,0%);stop-opacity:0;"/>
<stop offset="1" style="stop-color:rgb(85.490196%,0%,0%);stop-opacity:0.2;"/>
</linearGradient>
<linearGradient id="linear14" gradientUnits="userSpaceOnUse" x1="36.5" y1="0.274902" x2="36.5" y2="61.1739" gradientTransform="matrix(4.123287,0,0,4.129032,0,0)">
<stop offset="0.510417" style="stop-color:rgb(85.490196%,0%,0%);stop-opacity:0;"/>
<stop offset="1" style="stop-color:rgb(85.490196%,0%,0%);stop-opacity:0.2;"/>
</linearGradient>
<linearGradient id="linear15" gradientUnits="userSpaceOnUse" x1="36.5" y1="0.274902" x2="36.5" y2="61.1739" gradientTransform="matrix(4.123287,0,0,4.129032,0,0)">
<stop offset="0.510417" style="stop-color:rgb(85.490196%,0%,0%);stop-opacity:0;"/>
<stop offset="1" style="stop-color:rgb(85.490196%,0%,0%);stop-opacity:0.2;"/>
</linearGradient>
<linearGradient id="linear16" gradientUnits="userSpaceOnUse" x1="36.5" y1="0.274902" x2="36.5" y2="61.1739" gradientTransform="matrix(4.123287,0,0,4.129032,0,0)">
<stop offset="0.510417" style="stop-color:rgb(85.490196%,0%,0%);stop-opacity:0;"/>
<stop offset="1" style="stop-color:rgb(85.490196%,0%,0%);stop-opacity:0.2;"/>
</linearGradient>
<linearGradient id="linear17" gradientUnits="userSpaceOnUse" x1="36.5" y1="0.274902" x2="36.5" y2="61.1739" gradientTransform="matrix(4.123287,0,0,4.129032,0,0)">
<stop offset="0.510417" style="stop-color:rgb(85.490196%,0%,0%);stop-opacity:0;"/>
<stop offset="1" style="stop-color:rgb(85.490196%,0%,0%);stop-opacity:0.2;"/>
</linearGradient>
<linearGradient id="linear18" gradientUnits="userSpaceOnUse" x1="36.5" y1="0.274902" x2="36.5" y2="61.1739" gradientTransform="matrix(4.123287,0,0,4.129032,0,0)">
<stop offset="0.510417" style="stop-color:rgb(85.490196%,0%,0%);stop-opacity:0;"/>
<stop offset="1" style="stop-color:rgb(85.490196%,0%,0%);stop-opacity:0.2;"/>
</linearGradient>
<linearGradient id="linear19" gradientUnits="userSpaceOnUse" x1="36.5" y1="0.274902" x2="36.5" y2="61.1739" gradientTransform="matrix(4.123287,0,0,4.129032,0,0)">
<stop offset="0.510417" style="stop-color:rgb(85.490196%,0%,0%);stop-opacity:0;"/>
<stop offset="1" style="stop-color:rgb(85.490196%,0%,0%);stop-opacity:0.2;"/>
</linearGradient>
<linearGradient id="linear20" gradientUnits="userSpaceOnUse" x1="36.5" y1="0.274902" x2="36.5" y2="61.1739" gradientTransform="matrix(4.123287,0,0,4.129032,0,0)">
<stop offset="0.510417" style="stop-color:rgb(85.490196%,0%,0%);stop-opacity:0;"/>
<stop offset="1" style="stop-color:rgb(85.490196%,0%,0%);stop-opacity:0.2;"/>
</linearGradient>
<linearGradient id="linear21" gradientUnits="userSpaceOnUse" x1="36.5" y1="0.274902" x2="36.5" y2="61.1739" gradientTransform="matrix(4.123287,0,0,4.129032,0,0)">
<stop offset="0.510417" style="stop-color:rgb(85.490196%,0%,0%);stop-opacity:0;"/>
<stop offset="1" style="stop-color:rgb(85.490196%,0%,0%);stop-opacity:0.2;"/>
</linearGradient>
<linearGradient id="linear22" gradientUnits="userSpaceOnUse" x1="36.5" y1="0.274902" x2="36.5" y2="61.1739" gradientTransform="matrix(4.123287,0,0,4.129032,0,0)">
<stop offset="0.510417" style="stop-color:rgb(85.490196%,0%,0%);stop-opacity:0;"/>
<stop offset="1" style="stop-color:rgb(85.490196%,0%,0%);stop-opacity:0.2;"/>
</linearGradient>
<linearGradient id="linear23" gradientUnits="userSpaceOnUse" x1="36.5" y1="0.274902" x2="36.5" y2="61.1739" gradientTransform="matrix(4.123287,0,0,4.129032,0,0)">
<stop offset="0.510417" style="stop-color:rgb(85.490196%,0%,0%);stop-opacity:0;"/>
<stop offset="1" style="stop-color:rgb(85.490196%,0%,0%);stop-opacity:0.2;"/>
</linearGradient>
<linearGradient id="linear24" gradientUnits="userSpaceOnUse" x1="36.5" y1="0.274902" x2="36.5" y2="61.1739" gradientTransform="matrix(4.123287,0,0,4.129032,0,0)">
<stop offset="0.510417" style="stop-color:rgb(85.490196%,0%,0%);stop-opacity:0;"/>
<stop offset="1" style="stop-color:rgb(85.490196%,0%,0%);stop-opacity:0.2;"/>
</linearGradient>
<linearGradient id="linear25" gradientUnits="userSpaceOnUse" x1="36.5" y1="0.274902" x2="36.5" y2="61.1739" gradientTransform="matrix(4.123287,0,0,4.129032,0,0)">
<stop offset="0.510417" style="stop-color:rgb(85.490196%,0%,0%);stop-opacity:0;"/>
<stop offset="1" style="stop-color:rgb(85.490196%,0%,0%);stop-opacity:0.2;"/>
</linearGradient>
<linearGradient id="linear26" gradientUnits="userSpaceOnUse" x1="36.5" y1="0.274902" x2="36.5" y2="61.1739" gradientTransform="matrix(4.123287,0,0,4.129032,0,0)">
<stop offset="0.510417" style="stop-color:rgb(85.490196%,0%,0%);stop-opacity:0;"/>
<stop offset="1" style="stop-color:rgb(85.490196%,0%,0%);stop-opacity:0.2;"/>
</linearGradient>
<linearGradient id="linear27" gradientUnits="userSpaceOnUse" x1="36.5" y1="0.274902" x2="36.5" y2="61.1739" gradientTransform="matrix(4.123287,0,0,4.129032,0,0)">
<stop offset="0.510417" style="stop-color:rgb(85.490196%,0%,0%);stop-opacity:0;"/>
<stop offset="1" style="stop-color:rgb(85.490196%,0%,0%);stop-opacity:0.2;"/>
</linearGradient>
<linearGradient id="linear28" gradientUnits="userSpaceOnUse" x1="36.5" y1="0.274902" x2="36.5" y2="61.1739" gradientTransform="matrix(4.123287,0,0,4.129032,0,0)">
<stop offset="0.510417" style="stop-color:rgb(85.490196%,0%,0%);stop-opacity:0;"/>
<stop offset="1" style="stop-color:rgb(85.490196%,0%,0%);stop-opacity:0.2;"/>
</linearGradient>
<linearGradient id="linear29" gradientUnits="userSpaceOnUse" x1="36.5" y1="0.274902" x2="36.5" y2="61.1739" gradientTransform="matrix(4.123287,0,0,4.129032,0,0)">
<stop offset="0.510417" style="stop-color:rgb(85.490196%,0%,0%);stop-opacity:0;"/>
<stop offset="1" style="stop-color:rgb(85.490196%,0%,0%);stop-opacity:0.2;"/>
</linearGradient>
<linearGradient id="linear30" gradientUnits="userSpaceOnUse" x1="36.5" y1="0.274902" x2="36.5" y2="61.1739" gradientTransform="matrix(4.123287,0,0,4.129032,0,0)">
<stop offset="0.510417" style="stop-color:rgb(85.490196%,0%,0%);stop-opacity:0;"/>
<stop offset="1" style="stop-color:rgb(85.490196%,0%,0%);stop-opacity:0.2;"/>
</linearGradient>
<linearGradient id="linear31" gradientUnits="userSpaceOnUse" x1="36.5" y1="0.274902" x2="36.5" y2="61.1739" gradientTransform="matrix(4.123287,0,0,4.129032,0,0)">
<stop offset="0.510417" style="stop-color:rgb(85.490196%,0%,0%);stop-opacity:0;"/>
<stop offset="1" style="stop-color:rgb(85.490196%,0%,0%);stop-opacity:0.2;"/>
</linearGradient>
<linearGradient id="linear32" gradientUnits="userSpaceOnUse" x1="36.5" y1="0.274902" x2="36.5" y2="61.1739" gradientTransform="matrix(4.123287,0,0,4.129032,0,0)">
<stop offset="0.510417" style="stop-color:rgb(85.490196%,0%,0%);stop-opacity:0;"/>
<stop offset="1" style="stop-color:rgb(85.490196%,0%,0%);stop-opacity:0.2;"/>
</linearGradient>
<linearGradient id="linear33" gradientUnits="userSpaceOnUse" x1="36.5" y1="0.274902" x2="36.5" y2="61.1739" gradientTransform="matrix(4.123287,0,0,4.129032,0,0)">
<stop offset="0.510417" style="stop-color:rgb(85.490196%,0%,0%);stop-opacity:0;"/>
<stop offset="1" style="stop-color:rgb(85.490196%,0%,0%);stop-opacity:0.2;"/>
</linearGradient>
<linearGradient id="linear34" gradientUnits="userSpaceOnUse" x1="36.5" y1="0.274902" x2="36.5" y2="61.1739" gradientTransform="matrix(4.123287,0,0,4.129032,0,0)">
<stop offset="0.510417" style="stop-color:rgb(85.490196%,0%,0%);stop-opacity:0;"/>
<stop offset="1" style="stop-color:rgb(85.490196%,0%,0%);stop-opacity:0.2;"/>
</linearGradient>
<linearGradient id="linear35" gradientUnits="userSpaceOnUse" x1="36.5" y1="0.274902" x2="36.5" y2="61.1739" gradientTransform="matrix(4.123287,0,0,4.129032,0,0)">
<stop offset="0.510417" style="stop-color:rgb(85.490196%,0%,0%);stop-opacity:0;"/>
<stop offset="1" style="stop-color:rgb(85.490196%,0%,0%);stop-opacity:0.2;"/>
</linearGradient>
<linearGradient id="linear36" gradientUnits="userSpaceOnUse" x1="36.5" y1="0.274902" x2="36.5" y2="61.1739" gradientTransform="matrix(4.123287,0,0,4.129032,0,0)">
<stop offset="0.510417" style="stop-color:rgb(85.490196%,0%,0%);stop-opacity:0;"/>
<stop offset="1" style="stop-color:rgb(85.490196%,0%,0%);stop-opacity:0.2;"/>
</linearGradient>
<linearGradient id="linear37" gradientUnits="userSpaceOnUse" x1="36.5" y1="0.274902" x2="36.5" y2="61.1739" gradientTransform="matrix(4.123287,0,0,4.129032,0,0)">
<stop offset="0.510417" style="stop-color:rgb(85.490196%,0%,0%);stop-opacity:0;"/>
<stop offset="1" style="stop-color:rgb(85.490196%,0%,0%);stop-opacity:0.2;"/>
</linearGradient>
<linearGradient id="linear38" gradientUnits="userSpaceOnUse" x1="36.5" y1="0.274902" x2="36.5" y2="61.1739" gradientTransform="matrix(4.123287,0,0,4.129032,0,0)">
<stop offset="0.510417" style="stop-color:rgb(85.490196%,0%,0%);stop-opacity:0;"/>
<stop offset="1" style="stop-color:rgb(85.490196%,0%,0%);stop-opacity:0.2;"/>
</linearGradient>
<linearGradient id="linear39" gradientUnits="userSpaceOnUse" x1="36.5" y1="0.274902" x2="36.5" y2="61.1739" gradientTransform="matrix(4.123287,0,0,4.129032,0,0)">
<stop offset="0.510417" style="stop-color:rgb(85.490196%,0%,0%);stop-opacity:0;"/>
<stop offset="1" style="stop-color:rgb(85.490196%,0%,0%);stop-opacity:0.2;"/>
</linearGradient>
<linearGradient id="linear40" gradientUnits="userSpaceOnUse" x1="36.5" y1="0.274902" x2="36.5" y2="61.1739" gradientTransform="matrix(4.123287,0,0,4.129032,0,0)">
<stop offset="0.510417" style="stop-color:rgb(85.490196%,0%,0%);stop-opacity:0;"/>
<stop offset="1" style="stop-color:rgb(85.490196%,0%,0%);stop-opacity:0.2;"/>
</linearGradient>
<linearGradient id="linear41" gradientUnits="userSpaceOnUse" x1="36.5" y1="0.274902" x2="36.5" y2="61.1739" gradientTransform="matrix(4.123287,0,0,4.129032,0,0)">
<stop offset="0.510417" style="stop-color:rgb(85.490196%,0%,0%);stop-opacity:0;"/>
<stop offset="1" style="stop-color:rgb(85.490196%,0%,0%);stop-opacity:0.2;"/>
</linearGradient>
<linearGradient id="linear42" gradientUnits="userSpaceOnUse" x1="36.5" y1="0.274902" x2="36.5" y2="61.1739" gradientTransform="matrix(4.123287,0,0,4.129032,0,0)">
<stop offset="0.510417" style="stop-color:rgb(85.490196%,0%,0%);stop-opacity:0;"/>
<stop offset="1" style="stop-color:rgb(85.490196%,0%,0%);stop-opacity:0.2;"/>
</linearGradient>
<linearGradient id="linear43" gradientUnits="userSpaceOnUse" x1="36.5" y1="0.274902" x2="36.5" y2="61.1739" gradientTransform="matrix(4.123287,0,0,4.129032,0,0)">
<stop offset="0.510417" style="stop-color:rgb(85.490196%,0%,0%);stop-opacity:0;"/>
<stop offset="1" style="stop-color:rgb(85.490196%,0%,0%);stop-opacity:0.2;"/>
</linearGradient>
<linearGradient id="linear44" gradientUnits="userSpaceOnUse" x1="36.5" y1="0.274902" x2="36.5" y2="61.1739" gradientTransform="matrix(4.123287,0,0,4.129032,0,0)">
<stop offset="0.510417" style="stop-color:rgb(85.490196%,0%,0%);stop-opacity:0;"/>
<stop offset="1" style="stop-color:rgb(85.490196%,0%,0%);stop-opacity:0.2;"/>
</linearGradient>
<linearGradient id="linear45" gradientUnits="userSpaceOnUse" x1="36.5" y1="0.274902" x2="36.5" y2="61.1739" gradientTransform="matrix(4.123287,0,0,4.129032,0,0)">
<stop offset="0.510417" style="stop-color:rgb(85.490196%,0%,0%);stop-opacity:0;"/>
<stop offset="1" style="stop-color:rgb(85.490196%,0%,0%);stop-opacity:0.2;"/>
</linearGradient>
<linearGradient id="linear46" gradientUnits="userSpaceOnUse" x1="36.5" y1="0.274902" x2="36.5" y2="61.1739" gradientTransform="matrix(4.123287,0,0,4.129032,0,0)">
<stop offset="0.510417" style="stop-color:rgb(85.490196%,0%,0%);stop-opacity:0;"/>
<stop offset="1" style="stop-color:rgb(85.490196%,0%,0%);stop-opacity:0.2;"/>
</linearGradient>
<linearGradient id="linear47" gradientUnits="userSpaceOnUse" x1="36.5" y1="0.274902" x2="36.5" y2="61.1739" gradientTransform="matrix(4.123287,0,0,4.129032,0,0)">
<stop offset="0.510417" style="stop-color:rgb(85.490196%,0%,0%);stop-opacity:0;"/>
<stop offset="1" style="stop-color:rgb(85.490196%,0%,0%);stop-opacity:0.2;"/>
</linearGradient>
<linearGradient id="linear48" gradientUnits="userSpaceOnUse" x1="36.5" y1="0.274902" x2="36.5" y2="61.1739" gradientTransform="matrix(4.123287,0,0,4.129032,0,0)">
<stop offset="0.510417" style="stop-color:rgb(85.490196%,0%,0%);stop-opacity:0;"/>
<stop offset="1" style="stop-color:rgb(85.490196%,0%,0%);stop-opacity:0.2;"/>
</linearGradient>
<linearGradient id="linear49" gradientUnits="userSpaceOnUse" x1="36.5" y1="0.274902" x2="36.5" y2="61.1739" gradientTransform="matrix(4.123287,0,0,4.129032,0,0)">
<stop offset="0.510417" style="stop-color:rgb(85.490196%,0%,0%);stop-opacity:0;"/>
<stop offset="1" style="stop-color:rgb(85.490196%,0%,0%);stop-opacity:0.2;"/>
</linearGradient>
<linearGradient id="linear50" gradientUnits="userSpaceOnUse" x1="36.5" y1="0.274902" x2="36.5" y2="61.1739" gradientTransform="matrix(4.123287,0,0,4.129032,0,0)">
<stop offset="0.510417" style="stop-color:rgb(85.490196%,0%,0%);stop-opacity:0;"/>
<stop offset="1" style="stop-color:rgb(85.490196%,0%,0%);stop-opacity:0.2;"/>
</linearGradient>
<linearGradient id="linear51" gradientUnits="userSpaceOnUse" x1="36.5" y1="0.274902" x2="36.5" y2="61.1739" gradientTransform="matrix(4.123287,0,0,4.129032,0,0)">
<stop offset="0.510417" style="stop-color:rgb(85.490196%,0%,0%);stop-opacity:0;"/>
<stop offset="1" style="stop-color:rgb(85.490196%,0%,0%);stop-opacity:0.2;"/>
</linearGradient>
</defs>
<g id="surface1">
<path style=" stroke:none;fill-rule:evenodd;fill:rgb(99.215686%,78.823529%,5.098039%);fill-opacity:1;" d="M 175.789062 75.308594 C 177.777344 81.667969 174.757812 88.203125 169.03125 89.890625 L 107.25 108.082031 C 101.527344 109.765625 95.28125 105.96875 93.292969 99.59375 C 91.308594 93.207031 94.34375 86.6875 100.066406 85.011719 L 161.847656 66.800781 C 167.585938 65.109375 173.808594 68.921875 175.789062 75.308594 Z M 175.789062 75.308594 "/>
<path style=" stroke:none;fill-rule:evenodd;fill:url(#linear0);" d="M 175.789062 75.308594 C 177.777344 81.667969 174.757812 88.203125 169.03125 89.890625 L 107.25 108.082031 C 101.527344 109.765625 95.28125 105.96875 93.292969 99.59375 C 91.308594 93.207031 94.34375 86.6875 100.066406 85.011719 L 161.847656 66.800781 C 167.585938 65.109375 173.808594 68.921875 175.789062 75.308594 Z M 175.789062 75.308594 "/>
<path style=" stroke:none;fill-rule:evenodd;fill:rgb(99.215686%,78.823529%,5.098039%);fill-opacity:1;" d="M 92.289062 94.933594 L 87.542969 96.308594 C 85.21875 96.996094 84 99.636719 84.808594 102.222656 C 85.613281 104.796875 88.136719 106.324219 90.429688 105.636719 L 95.191406 104.234375 C 94.171875 102.996094 93.351562 101.480469 92.828125 99.828125 C 92.304688 98.175781 92.117188 96.527344 92.261719 94.933594 "/>
<path style=" stroke:none;fill-rule:evenodd;fill:url(#linear1);" d="M 92.289062 94.933594 L 87.542969 96.308594 C 85.21875 96.996094 84 99.636719 84.808594 102.222656 C 85.613281 104.796875 88.136719 106.324219 90.429688 105.636719 L 95.191406 104.234375 C 94.171875 102.996094 93.351562 101.480469 92.828125 99.828125 C 92.304688 98.175781 92.117188 96.527344 92.261719 94.933594 "/>
<path style=" stroke:none;fill-rule:evenodd;fill:rgb(99.215686%,78.823529%,5.098039%);fill-opacity:1;" d="M 96.308594 127.433594 C 96.382812 127.253906 96.554688 127.15625 96.738281 127.1875 C 96.933594 127.253906 97.023438 127.457031 96.992188 127.597656 L 95.957031 130.859375 C 95.871094 131.035156 95.675781 131.136719 95.503906 131.066406 C 95.304688 131.027344 95.191406 130.832031 95.265625 130.652344 Z M 96.308594 127.433594 "/>
<path style=" stroke:none;fill-rule:evenodd;fill:url(#linear2);" d="M 96.308594 127.433594 C 96.382812 127.253906 96.554688 127.15625 96.738281 127.1875 C 96.933594 127.253906 97.023438 127.457031 96.992188 127.597656 L 95.957031 130.859375 C 95.871094 131.035156 95.675781 131.136719 95.503906 131.066406 C 95.304688 131.027344 95.191406 130.832031 95.265625 130.652344 Z M 96.308594 127.433594 "/>
<path style=" stroke:none;fill-rule:evenodd;fill:rgb(99.215686%,78.823529%,5.098039%);fill-opacity:1;" d="M 94.03125 126.535156 C 94.105469 126.34375 94.316406 126.265625 94.5 126.34375 C 94.640625 126.417969 94.726562 126.621094 94.679688 126.761719 L 93.265625 129.871094 C 93.183594 130.046875 92.9375 130.144531 92.796875 130.035156 C 92.617188 129.980469 92.542969 129.761719 92.625 129.621094 L 94.015625 126.527344 "/>
<path style=" stroke:none;fill-rule:evenodd;fill:url(#linear3);" d="M 94.03125 126.535156 C 94.105469 126.34375 94.316406 126.265625 94.5 126.34375 C 94.640625 126.417969 94.726562 126.621094 94.679688 126.761719 L 93.265625 129.871094 C 93.183594 130.046875 92.9375 130.144531 92.796875 130.035156 C 92.617188 129.980469 92.542969 129.761719 92.625 129.621094 L 94.015625 126.527344 "/>
<path style=" stroke:none;fill-rule:evenodd;fill:rgb(99.215686%,78.823529%,5.098039%);fill-opacity:1;" d="M 91.820312 125.394531 C 91.917969 125.230469 92.105469 125.160156 92.304688 125.261719 C 92.484375 125.355469 92.527344 125.5625 92.445312 125.730469 L 90.742188 128.671875 C 90.628906 128.839844 90.390625 128.890625 90.25 128.78125 C 90.0625 128.699219 90.007812 128.503906 90.109375 128.34375 L 91.835938 125.410156 "/>
<path style=" stroke:none;fill-rule:evenodd;fill:url(#linear4);" d="M 91.820312 125.394531 C 91.917969 125.230469 92.105469 125.160156 92.304688 125.261719 C 92.484375 125.355469 92.527344 125.5625 92.445312 125.730469 L 90.742188 128.671875 C 90.628906 128.839844 90.390625 128.890625 90.25 128.78125 C 90.0625 128.699219 90.007812 128.503906 90.109375 128.34375 L 91.835938 125.410156 "/>
<path style=" stroke:none;fill-rule:evenodd;fill:rgb(99.215686%,78.823529%,5.098039%);fill-opacity:1;" d="M 89.78125 124.074219 C 89.878906 123.910156 90.09375 123.871094 90.265625 123.980469 C 90.40625 124.089844 90.40625 124.296875 90.347656 124.464844 L 88.308594 127.214844 C 88.164062 127.347656 87.953125 127.390625 87.808594 127.28125 C 87.667969 127.171875 87.625 126.964844 87.742188 126.828125 Z M 89.78125 124.074219 "/>
<path style=" stroke:none;fill-rule:evenodd;fill:url(#linear5);" d="M 89.78125 124.074219 C 89.878906 123.910156 90.09375 123.871094 90.265625 123.980469 C 90.40625 124.089844 90.40625 124.296875 90.347656 124.464844 L 88.308594 127.214844 C 88.164062 127.347656 87.953125 127.390625 87.808594 127.28125 C 87.667969 127.171875 87.625 126.964844 87.742188 126.828125 Z M 89.78125 124.074219 "/>
<path style=" stroke:none;fill-rule:evenodd;fill:rgb(99.215686%,78.823529%,5.098039%);fill-opacity:1;" d="M 87.898438 122.578125 C 87.996094 122.410156 88.210938 122.394531 88.351562 122.519531 C 88.492188 122.65625 88.492188 122.878906 88.40625 123.015625 L 86.140625 125.574219 C 86 125.714844 85.742188 125.714844 85.628906 125.574219 C 85.488281 125.480469 85.457031 125.261719 85.597656 125.136719 L 87.867188 122.589844 "/>
<path style=" stroke:none;fill-rule:evenodd;fill:url(#linear6);" d="M 87.898438 122.578125 C 87.996094 122.410156 88.210938 122.394531 88.351562 122.519531 C 88.492188 122.65625 88.492188 122.878906 88.40625 123.015625 L 86.140625 125.574219 C 86 125.714844 85.742188 125.714844 85.628906 125.574219 C 85.488281 125.480469 85.457031 125.261719 85.597656 125.136719 L 87.867188 122.589844 "/>
<path style=" stroke:none;fill-rule:evenodd;fill:rgb(99.215686%,78.823529%,5.098039%);fill-opacity:1;" d="M 86.140625 120.910156 C 86.28125 120.769531 86.492188 120.769531 86.648438 120.910156 C 86.789062 121.046875 86.761719 121.269531 86.648438 121.40625 L 84.125 123.746094 C 83.984375 123.886719 83.746094 123.855469 83.632812 123.746094 C 83.492188 123.609375 83.492188 123.375 83.632812 123.265625 L 86.125 120.921875 "/>
<path style=" stroke:none;fill-rule:evenodd;fill:url(#linear7);" d="M 86.140625 120.910156 C 86.28125 120.769531 86.492188 120.769531 86.648438 120.910156 C 86.789062 121.046875 86.761719 121.269531 86.648438 121.40625 L 84.125 123.746094 C 83.984375 123.886719 83.746094 123.855469 83.632812 123.746094 C 83.492188 123.609375 83.492188 123.375 83.632812 123.265625 L 86.125 120.921875 "/>
<path style=" stroke:none;fill-rule:evenodd;fill:rgb(99.215686%,78.823529%,5.098039%);fill-opacity:1;" d="M 84.636719 119.160156 C 84.777344 119.027344 84.980469 119.050781 85.121094 119.21875 C 85.21875 119.355469 85.191406 119.578125 85.0625 119.699219 L 82.339844 121.808594 C 82.167969 121.941406 81.957031 121.886719 81.847656 121.75 C 81.703125 121.613281 81.746094 121.390625 81.902344 121.28125 L 84.625 119.175781 "/>
<path style=" stroke:none;fill-rule:evenodd;fill:url(#linear8);" d="M 84.636719 119.160156 C 84.777344 119.027344 84.980469 119.050781 85.121094 119.21875 C 85.21875 119.355469 85.191406 119.578125 85.0625 119.699219 L 82.339844 121.808594 C 82.167969 121.941406 81.957031 121.886719 81.847656 121.75 C 81.703125 121.613281 81.746094 121.390625 81.902344 121.28125 L 84.625 119.175781 "/>
<path style=" stroke:none;fill-rule:evenodd;fill:rgb(99.215686%,78.823529%,5.098039%);fill-opacity:1;" d="M 83.292969 117.332031 C 83.460938 117.222656 83.6875 117.265625 83.789062 117.417969 C 83.886719 117.578125 83.828125 117.785156 83.6875 117.894531 L 80.796875 119.753906 C 80.582031 119.847656 80.371094 119.796875 80.285156 119.644531 C 80.144531 119.480469 80.214844 119.285156 80.371094 119.191406 L 83.277344 117.316406 "/>
<path style=" stroke:none;fill-rule:evenodd;fill:url(#linear9);" d="M 83.292969 117.332031 C 83.460938 117.222656 83.6875 117.265625 83.789062 117.417969 C 83.886719 117.578125 83.828125 117.785156 83.6875 117.894531 L 80.796875 119.753906 C 80.582031 119.847656 80.371094 119.796875 80.285156 119.644531 C 80.144531 119.480469 80.214844 119.285156 80.371094 119.191406 L 83.277344 117.316406 "/>
<path style=" stroke:none;fill-rule:evenodd;fill:rgb(99.215686%,78.823529%,5.098039%);fill-opacity:1;" d="M 82.226562 115.464844 C 82.367188 115.347656 82.582031 115.421875 82.695312 115.597656 C 82.769531 115.734375 82.695312 115.957031 82.523438 116.050781 L 79.480469 117.652344 C 79.292969 117.734375 79.054688 117.652344 78.996094 117.511719 C 78.929688 117.332031 78.996094 117.125 79.136719 117.042969 L 82.257812 115.472656 "/>
<path style=" stroke:none;fill-rule:evenodd;fill:url(#linear10);" d="M 82.226562 115.464844 C 82.367188 115.347656 82.582031 115.421875 82.695312 115.597656 C 82.769531 115.734375 82.695312 115.957031 82.523438 116.050781 L 79.480469 117.652344 C 79.292969 117.734375 79.054688 117.652344 78.996094 117.511719 C 78.929688 117.332031 78.996094 117.125 79.136719 117.042969 L 82.257812 115.472656 "/>
<path style=" stroke:none;fill-rule:evenodd;fill:rgb(99.215686%,78.823529%,5.098039%);fill-opacity:1;" d="M 81.347656 113.5625 C 81.535156 113.496094 81.746094 113.5625 81.816406 113.753906 C 81.902344 113.933594 81.789062 114.125 81.632812 114.191406 L 78.402344 115.464844 C 78.203125 115.542969 78.007812 115.464844 77.933594 115.269531 C 77.863281 115.105469 77.960938 114.910156 78.132812 114.855469 L 81.363281 113.578125 "/>
<path style=" stroke:none;fill-rule:evenodd;fill:url(#linear11);" d="M 81.347656 113.5625 C 81.535156 113.496094 81.746094 113.5625 81.816406 113.753906 C 81.902344 113.933594 81.789062 114.125 81.632812 114.191406 L 78.402344 115.464844 C 78.203125 115.542969 78.007812 115.464844 77.933594 115.269531 C 77.863281 115.105469 77.960938 114.910156 78.132812 114.855469 L 81.363281 113.578125 "/>
<path style=" stroke:none;fill-rule:evenodd;fill:rgb(99.215686%,78.823529%,5.098039%);fill-opacity:1;" d="M 80.753906 111.734375 C 80.953125 111.660156 81.125 111.769531 81.179688 111.964844 C 81.238281 112.144531 81.109375 112.324219 80.9375 112.378906 L 77.566406 113.285156 C 77.382812 113.328125 77.183594 113.21875 77.136719 113.042969 C 77.097656 112.859375 77.210938 112.683594 77.382812 112.625 L 80.726562 111.734375 "/>
<path style=" stroke:none;fill-rule:evenodd;fill:url(#linear12);" d="M 80.753906 111.734375 C 80.953125 111.660156 81.125 111.769531 81.179688 111.964844 C 81.238281 112.144531 81.109375 112.324219 80.9375 112.378906 L 77.566406 113.285156 C 77.382812 113.328125 77.183594 113.21875 77.136719 113.042969 C 77.097656 112.859375 77.210938 112.683594 77.382812 112.625 L 80.726562 111.734375 "/>
<path style=" stroke:none;fill-rule:evenodd;fill:rgb(99.215686%,78.823529%,5.098039%);fill-opacity:1;" d="M 80.417969 109.957031 C 80.597656 109.917969 80.78125 110.050781 80.8125 110.234375 C 80.835938 110.425781 80.710938 110.589844 80.527344 110.613281 L 77.085938 111.113281 C 76.875 111.113281 76.6875 110.972656 76.660156 110.8125 C 76.628906 110.628906 76.800781 110.453125 76.972656 110.4375 Z M 80.417969 109.957031 "/>
<path style=" stroke:none;fill-rule:evenodd;fill:url(#linear13);" d="M 80.417969 109.957031 C 80.597656 109.917969 80.78125 110.050781 80.8125 110.234375 C 80.835938 110.425781 80.710938 110.589844 80.527344 110.613281 L 77.085938 111.113281 C 76.875 111.113281 76.6875 110.972656 76.660156 110.8125 C 76.628906 110.628906 76.800781 110.453125 76.972656 110.4375 Z M 80.417969 109.957031 "/>
<path style=" stroke:none;fill-rule:evenodd;fill:rgb(99.215686%,78.823529%,5.098039%);fill-opacity:1;" d="M 80.34375 108.292969 C 80.539062 108.292969 80.695312 108.425781 80.710938 108.621094 C 80.710938 108.828125 80.527344 108.964844 80.34375 108.980469 L 76.859375 108.980469 C 76.660156 108.980469 76.519531 108.800781 76.519531 108.621094 C 76.519531 108.425781 76.6875 108.292969 76.875 108.292969 L 80.371094 108.292969 "/>
<path style=" stroke:none;fill-rule:evenodd;fill:url(#linear14);" d="M 80.34375 108.292969 C 80.539062 108.292969 80.695312 108.425781 80.710938 108.621094 C 80.710938 108.828125 80.527344 108.964844 80.34375 108.980469 L 76.859375 108.980469 C 76.660156 108.980469 76.519531 108.800781 76.519531 108.621094 C 76.519531 108.425781 76.6875 108.292969 76.875 108.292969 L 80.371094 108.292969 "/>
<path style=" stroke:none;fill-rule:evenodd;fill:rgb(99.215686%,78.823529%,5.098039%);fill-opacity:1;" d="M 80.527344 106.777344 C 80.738281 106.808594 80.851562 106.984375 80.8125 107.191406 C 80.8125 107.355469 80.582031 107.464844 80.417969 107.4375 L 77.015625 106.859375 C 76.800781 106.816406 76.675781 106.625 76.726562 106.449219 C 76.726562 106.269531 76.929688 106.171875 77.113281 106.171875 Z M 80.527344 106.777344 "/>
<path style=" stroke:none;fill-rule:evenodd;fill:url(#linear15);" d="M 80.527344 106.777344 C 80.738281 106.808594 80.851562 106.984375 80.8125 107.191406 C 80.8125 107.355469 80.582031 107.464844 80.417969 107.4375 L 77.015625 106.859375 C 76.800781 106.816406 76.675781 106.625 76.726562 106.449219 C 76.726562 106.269531 76.929688 106.171875 77.113281 106.171875 Z M 80.527344 106.777344 "/>
<path style=" stroke:none;fill-rule:evenodd;fill:rgb(99.215686%,78.823529%,5.098039%);fill-opacity:1;" d="M 80.984375 105.441406 C 81.179688 105.511719 81.265625 105.71875 81.191406 105.886719 C 81.109375 106.0625 80.910156 106.128906 80.738281 106.078125 L 77.480469 104.839844 C 77.308594 104.769531 77.226562 104.5625 77.292969 104.425781 C 77.367188 104.234375 77.582031 104.152344 77.753906 104.21875 Z M 80.984375 105.441406 "/>
<path style=" stroke:none;fill-rule:evenodd;fill:url(#linear16);" d="M 80.984375 105.441406 C 81.179688 105.511719 81.265625 105.71875 81.191406 105.886719 C 81.109375 106.0625 80.910156 106.128906 80.738281 106.078125 L 77.480469 104.839844 C 77.308594 104.769531 77.226562 104.5625 77.292969 104.425781 C 77.367188 104.234375 77.582031 104.152344 77.753906 104.21875 Z M 80.984375 105.441406 "/>
<path style=" stroke:none;fill-rule:evenodd;fill:rgb(99.215686%,78.823529%,5.098039%);fill-opacity:1;" d="M 81.703125 104.3125 C 81.871094 104.410156 81.886719 104.628906 81.789062 104.78125 C 81.648438 104.921875 81.445312 104.964844 81.28125 104.878906 L 78.402344 102.953125 C 78.261719 102.855469 78.203125 102.636719 78.3125 102.484375 C 78.417969 102.347656 78.640625 102.308594 78.796875 102.402344 Z M 81.703125 104.3125 "/>
<path style=" stroke:none;fill-rule:evenodd;fill:url(#linear17);" d="M 81.703125 104.3125 C 81.871094 104.410156 81.886719 104.628906 81.789062 104.78125 C 81.648438 104.921875 81.445312 104.964844 81.28125 104.878906 L 78.402344 102.953125 C 78.261719 102.855469 78.203125 102.636719 78.3125 102.484375 C 78.417969 102.347656 78.640625 102.308594 78.796875 102.402344 Z M 81.703125 104.3125 "/>
<path style=" stroke:none;fill-rule:evenodd;fill:rgb(99.215686%,78.823529%,5.098039%);fill-opacity:1;" d="M 82.652344 103.347656 C 82.792969 103.488281 82.769531 103.699219 82.621094 103.832031 C 82.480469 103.96875 82.269531 103.941406 82.128906 103.808594 L 79.761719 101.328125 C 79.621094 101.191406 79.660156 100.984375 79.792969 100.859375 C 79.933594 100.722656 80.144531 100.75 80.261719 100.859375 L 82.667969 103.363281 "/>
<path style=" stroke:none;fill-rule:evenodd;fill:url(#linear18);" d="M 82.652344 103.347656 C 82.792969 103.488281 82.769531 103.699219 82.621094 103.832031 C 82.480469 103.96875 82.269531 103.941406 82.128906 103.808594 L 79.761719 101.328125 C 79.621094 101.191406 79.660156 100.984375 79.792969 100.859375 C 79.933594 100.722656 80.144531 100.75 80.261719 100.859375 L 82.667969 103.363281 "/>
<path style=" stroke:none;fill-rule:evenodd;fill:rgb(99.215686%,78.823529%,5.098039%);fill-opacity:1;" d="M 83.886719 102.550781 C 84 102.734375 83.929688 102.925781 83.773438 103.035156 C 83.558594 103.121094 83.34375 103.0625 83.277344 102.894531 L 81.519531 99.96875 C 81.4375 99.785156 81.519531 99.59375 81.660156 99.484375 C 81.832031 99.402344 82.042969 99.484375 82.128906 99.625 Z M 83.886719 102.550781 "/>
<path style=" stroke:none;fill-rule:evenodd;fill:url(#linear19);" d="M 83.886719 102.550781 C 84 102.734375 83.929688 102.925781 83.773438 103.035156 C 83.558594 103.121094 83.34375 103.0625 83.277344 102.894531 L 81.519531 99.96875 C 81.4375 99.785156 81.519531 99.59375 81.660156 99.484375 C 81.832031 99.402344 82.042969 99.484375 82.128906 99.625 Z M 83.886719 102.550781 "/>
<path style=" stroke:none;fill-rule:evenodd;fill:rgb(99.215686%,78.823529%,5.098039%);fill-opacity:1;" d="M 85.488281 101.949219 C 85.554688 102.125 85.429688 102.308594 85.257812 102.359375 C 85.078125 102.441406 84.890625 102.332031 84.832031 102.167969 L 83.699219 98.949219 C 83.65625 98.753906 83.757812 98.578125 83.945312 98.503906 C 84.125 98.453125 84.324219 98.5625 84.371094 98.730469 L 85.5 101.949219 "/>
<path style=" stroke:none;fill-rule:evenodd;fill:url(#linear20);" d="M 85.488281 101.949219 C 85.554688 102.125 85.429688 102.308594 85.257812 102.359375 C 85.078125 102.441406 84.890625 102.332031 84.832031 102.167969 L 83.699219 98.949219 C 83.65625 98.753906 83.757812 98.578125 83.945312 98.503906 C 84.125 98.453125 84.324219 98.5625 84.371094 98.730469 L 85.5 101.949219 "/>
<path style=" stroke:none;fill-rule:evenodd;fill:rgb(99.215686%,78.823529%,5.098039%);fill-opacity:1;" d="M 108.441406 149.890625 C 108.300781 150.058594 108.089844 150.066406 107.933594 149.933594 C 107.816406 149.796875 107.832031 149.589844 107.933594 149.464844 L 110.339844 146.988281 C 110.480469 146.875 110.738281 146.875 110.824219 147.015625 C 110.992188 147.125 110.992188 147.359375 110.824219 147.484375 Z M 108.441406 149.890625 "/>
<path style=" stroke:none;fill-rule:evenodd;fill:url(#linear21);" d="M 108.441406 149.890625 C 108.300781 150.058594 108.089844 150.066406 107.933594 149.933594 C 107.816406 149.796875 107.832031 149.589844 107.933594 149.464844 L 110.339844 146.988281 C 110.480469 146.875 110.738281 146.875 110.824219 147.015625 C 110.992188 147.125 110.992188 147.359375 110.824219 147.484375 Z M 108.441406 149.890625 "/>
<path style=" stroke:none;fill-rule:evenodd;fill:rgb(99.215686%,78.823529%,5.098039%);fill-opacity:1;" d="M 110.085938 151.71875 C 109.945312 151.859375 109.71875 151.832031 109.578125 151.683594 C 109.476562 151.542969 109.535156 151.339844 109.648438 151.214844 L 112.339844 149.09375 C 112.511719 148.953125 112.765625 149.011719 112.832031 149.144531 C 112.972656 149.285156 112.949219 149.503906 112.792969 149.613281 L 110.101562 151.71875 "/>
<path style=" stroke:none;fill-rule:evenodd;fill:url(#linear22);" d="M 110.085938 151.71875 C 109.945312 151.859375 109.71875 151.832031 109.578125 151.683594 C 109.476562 151.542969 109.535156 151.339844 109.648438 151.214844 L 112.339844 149.09375 C 112.511719 148.953125 112.765625 149.011719 112.832031 149.144531 C 112.972656 149.285156 112.949219 149.503906 112.792969 149.613281 L 110.101562 151.71875 "/>
<path style=" stroke:none;fill-rule:evenodd;fill:rgb(99.215686%,78.823529%,5.098039%);fill-opacity:1;" d="M 111.234375 153.425781 C 111.089844 153.535156 110.878906 153.496094 110.753906 153.332031 C 110.667969 153.167969 110.753906 152.957031 110.894531 152.863281 L 113.867188 151.128906 C 114.054688 151.03125 114.296875 151.105469 114.335938 151.265625 C 114.476562 151.433594 114.410156 151.625 114.238281 151.734375 Z M 111.234375 153.425781 "/>
<path style=" stroke:none;fill-rule:evenodd;fill:url(#linear23);" d="M 111.234375 153.425781 C 111.089844 153.535156 110.878906 153.496094 110.753906 153.332031 C 110.667969 153.167969 110.753906 152.957031 110.894531 152.863281 L 113.867188 151.128906 C 114.054688 151.03125 114.296875 151.105469 114.335938 151.265625 C 114.476562 151.433594 114.410156 151.625 114.238281 151.734375 Z M 111.234375 153.425781 "/>
<path style=" stroke:none;fill-rule:evenodd;fill:rgb(99.215686%,78.823529%,5.098039%);fill-opacity:1;" d="M 112.027344 155.121094 C 111.855469 155.1875 111.648438 155.121094 111.574219 154.925781 C 111.53125 154.761719 111.632812 154.558594 111.773438 154.488281 L 115.003906 153.222656 C 115.199219 153.152344 115.429688 153.25 115.457031 153.410156 C 115.554688 153.59375 115.457031 153.785156 115.273438 153.855469 L 112.058594 155.09375 "/>
<path style=" stroke:none;fill-rule:evenodd;fill:url(#linear24);" d="M 112.027344 155.121094 C 111.855469 155.1875 111.648438 155.121094 111.574219 154.925781 C 111.53125 154.761719 111.632812 154.558594 111.773438 154.488281 L 115.003906 153.222656 C 115.199219 153.152344 115.429688 153.25 115.457031 153.410156 C 115.554688 153.59375 115.457031 153.785156 115.273438 153.855469 L 112.058594 155.09375 "/>
<path style=" stroke:none;fill-rule:evenodd;fill:rgb(99.215686%,78.823529%,5.098039%);fill-opacity:1;" d="M 112.496094 156.71875 C 112.3125 156.761719 112.140625 156.660156 112.070312 156.46875 C 112.027344 156.292969 112.167969 156.125 112.324219 156.058594 L 115.726562 155.296875 C 115.921875 155.269531 116.121094 155.394531 116.152344 155.574219 C 116.210938 155.765625 116.078125 155.933594 115.867188 155.988281 Z M 112.496094 156.71875 "/>
<path style=" stroke:none;fill-rule:evenodd;fill:url(#linear25);" d="M 112.496094 156.71875 C 112.3125 156.761719 112.140625 156.660156 112.070312 156.46875 C 112.027344 156.292969 112.167969 156.125 112.324219 156.058594 L 115.726562 155.296875 C 115.921875 155.269531 116.121094 155.394531 116.152344 155.574219 C 116.210938 155.765625 116.078125 155.933594 115.867188 155.988281 Z M 112.496094 156.71875 "/>
<path style=" stroke:none;fill-rule:evenodd;fill:rgb(99.215686%,78.823529%,5.098039%);fill-opacity:1;" d="M 112.667969 158.261719 C 112.464844 158.285156 112.3125 158.144531 112.28125 157.953125 C 112.28125 157.761719 112.453125 157.609375 112.621094 157.597656 L 116.105469 157.390625 C 116.308594 157.390625 116.476562 157.527344 116.464844 157.71875 C 116.507812 157.902344 116.351562 158.035156 116.152344 158.050781 L 112.675781 158.246094 "/>
<path style=" stroke:none;fill-rule:evenodd;fill:url(#linear26);" d="M 112.667969 158.261719 C 112.464844 158.285156 112.3125 158.144531 112.28125 157.953125 C 112.28125 157.761719 112.453125 157.609375 112.621094 157.597656 L 116.105469 157.390625 C 116.308594 157.390625 116.476562 157.527344 116.464844 157.71875 C 116.507812 157.902344 116.351562 158.035156 116.152344 158.050781 L 112.675781 158.246094 "/>
<path style=" stroke:none;fill-rule:evenodd;fill:rgb(99.215686%,78.823529%,5.098039%);fill-opacity:1;" d="M 112.550781 159.71875 C 112.378906 159.71875 112.242188 159.550781 112.265625 159.34375 C 112.265625 159.175781 112.464844 159.066406 112.636719 159.066406 L 116.105469 159.410156 C 116.320312 159.410156 116.464844 159.621094 116.417969 159.785156 C 116.417969 159.964844 116.234375 160.105469 116.054688 160.0625 L 112.578125 159.703125 "/>
<path style=" stroke:none;fill-rule:evenodd;fill:url(#linear27);" d="M 112.550781 159.71875 C 112.378906 159.71875 112.242188 159.550781 112.265625 159.34375 C 112.265625 159.175781 112.464844 159.066406 112.636719 159.066406 L 116.105469 159.410156 C 116.320312 159.410156 116.464844 159.621094 116.417969 159.785156 C 116.417969 159.964844 116.234375 160.105469 116.054688 160.0625 L 112.578125 159.703125 "/>
<path style=" stroke:none;fill-rule:evenodd;fill:rgb(99.215686%,78.823529%,5.098039%);fill-opacity:1;" d="M 112.265625 161.105469 C 112.042969 161.050781 111.953125 160.875 111.984375 160.691406 C 112.042969 160.5 112.265625 160.417969 112.410156 160.449219 L 115.785156 161.339844 C 115.964844 161.394531 116.09375 161.589844 116.007812 161.753906 C 115.980469 161.949219 115.785156 162.027344 115.585938 162 L 112.257812 161.105469 "/>
<path style=" stroke:none;fill-rule:evenodd;fill:url(#linear28);" d="M 112.265625 161.105469 C 112.042969 161.050781 111.953125 160.875 111.984375 160.691406 C 112.042969 160.5 112.265625 160.417969 112.410156 160.449219 L 115.785156 161.339844 C 115.964844 161.394531 116.09375 161.589844 116.007812 161.753906 C 115.980469 161.949219 115.785156 162.027344 115.585938 162 L 112.257812 161.105469 "/>
<path style=" stroke:none;fill-rule:evenodd;fill:rgb(99.215686%,78.823529%,5.098039%);fill-opacity:1;" d="M 111.699219 162.371094 C 111.558594 162.316406 111.460938 162.097656 111.558594 161.933594 C 111.617188 161.765625 111.84375 161.714844 111.984375 161.765625 L 115.175781 163.140625 C 115.355469 163.238281 115.429688 163.457031 115.339844 163.609375 C 115.273438 163.792969 115.058594 163.84375 114.871094 163.777344 L 111.714844 162.359375 "/>
<path style=" stroke:none;fill-rule:evenodd;fill:url(#linear29);" d="M 111.699219 162.371094 C 111.558594 162.316406 111.460938 162.097656 111.558594 161.933594 C 111.617188 161.765625 111.84375 161.714844 111.984375 161.765625 L 115.175781 163.140625 C 115.355469 163.238281 115.429688 163.457031 115.339844 163.609375 C 115.273438 163.792969 115.058594 163.84375 114.871094 163.777344 L 111.714844 162.359375 "/>
<path style=" stroke:none;fill-rule:evenodd;fill:rgb(99.215686%,78.823529%,5.098039%);fill-opacity:1;" d="M 110.992188 163.542969 C 110.824219 163.449219 110.777344 163.238281 110.878906 163.074219 C 110.992188 162.910156 111.21875 162.894531 111.375 162.980469 L 114.28125 164.832031 C 114.453125 164.972656 114.492188 165.175781 114.378906 165.316406 C 114.265625 165.484375 114.039062 165.519531 113.898438 165.410156 L 110.980469 163.558594 "/>
<path style=" stroke:none;fill-rule:evenodd;fill:url(#linear30);" d="M 110.992188 163.542969 C 110.824219 163.449219 110.777344 163.238281 110.878906 163.074219 C 110.992188 162.910156 111.21875 162.894531 111.375 162.980469 L 114.28125 164.832031 C 114.453125 164.972656 114.492188 165.175781 114.378906 165.316406 C 114.265625 165.484375 114.039062 165.519531 113.898438 165.410156 L 110.980469 163.558594 "/>
<path style=" stroke:none;fill-rule:evenodd;fill:rgb(99.215686%,78.823529%,5.098039%);fill-opacity:1;" d="M 110.113281 164.574219 C 109.945312 164.4375 109.945312 164.246094 110.070312 164.09375 C 110.210938 163.953125 110.425781 163.953125 110.566406 164.09375 L 113.160156 166.324219 C 113.300781 166.457031 113.332031 166.691406 113.1875 166.800781 C 113.046875 166.941406 112.832031 166.941406 112.707031 166.800781 L 110.128906 164.5625 "/>
<path style=" stroke:none;fill-rule:evenodd;fill:url(#linear31);" d="M 110.113281 164.574219 C 109.945312 164.4375 109.945312 164.246094 110.070312 164.09375 C 110.210938 163.953125 110.425781 163.953125 110.566406 164.09375 L 113.160156 166.324219 C 113.300781 166.457031 113.332031 166.691406 113.1875 166.800781 C 113.046875 166.941406 112.832031 166.941406 112.707031 166.800781 L 110.128906 164.5625 "/>
<path style=" stroke:none;fill-rule:evenodd;fill:rgb(99.215686%,78.823529%,5.098039%);fill-opacity:1;" d="M 109.082031 165.441406 C 108.9375 165.300781 108.976562 165.109375 109.132812 164.972656 C 109.28125 164.863281 109.476562 164.90625 109.601562 165.042969 L 111.8125 167.65625 C 111.929688 167.792969 111.902344 168.027344 111.746094 168.140625 C 111.601562 168.277344 111.386719 168.21875 111.277344 168.082031 L 109.050781 165.46875 "/>
<path style=" stroke:none;fill-rule:evenodd;fill:url(#linear32);" d="M 109.082031 165.441406 C 108.9375 165.300781 108.976562 165.109375 109.132812 164.972656 C 109.28125 164.863281 109.476562 164.90625 109.601562 165.042969 L 111.8125 167.65625 C 111.929688 167.792969 111.902344 168.027344 111.746094 168.140625 C 111.601562 168.277344 111.386719 168.21875 111.277344 168.082031 L 109.050781 165.46875 "/>
<path style=" stroke:none;fill-rule:evenodd;fill:rgb(99.215686%,78.823529%,5.098039%);fill-opacity:1;" d="M 107.933594 166.183594 C 107.832031 166.003906 107.890625 165.8125 108.074219 165.703125 C 108.246094 165.59375 108.441406 165.660156 108.542969 165.839844 L 110.324219 168.730469 C 110.425781 168.894531 110.355469 169.113281 110.183594 169.183594 C 110.011719 169.292969 109.816406 169.222656 109.71875 169.074219 Z M 107.933594 166.183594 "/>
<path style=" stroke:none;fill-rule:evenodd;fill:url(#linear33);" d="M 107.933594 166.183594 C 107.832031 166.003906 107.890625 165.8125 108.074219 165.703125 C 108.246094 165.59375 108.441406 165.660156 108.542969 165.839844 L 110.324219 168.730469 C 110.425781 168.894531 110.355469 169.113281 110.183594 169.183594 C 110.011719 169.292969 109.816406 169.222656 109.71875 169.074219 Z M 107.933594 166.183594 "/>
<path style=" stroke:none;fill-rule:evenodd;fill:rgb(99.215686%,78.823529%,5.098039%);fill-opacity:1;" d="M 106.714844 166.707031 C 106.625 166.542969 106.714844 166.332031 106.898438 166.265625 C 107.109375 166.183594 107.292969 166.296875 107.367188 166.457031 L 108.640625 169.597656 C 108.722656 169.777344 108.640625 169.984375 108.457031 170.035156 C 108.285156 170.121094 108.089844 170.035156 108.03125 169.871094 Z M 106.714844 166.707031 "/>
<path style=" stroke:none;fill-rule:evenodd;fill:url(#linear34);" d="M 106.714844 166.707031 C 106.625 166.542969 106.714844 166.332031 106.898438 166.265625 C 107.109375 166.183594 107.292969 166.296875 107.367188 166.457031 L 108.640625 169.597656 C 108.722656 169.777344 108.640625 169.984375 108.457031 170.035156 C 108.285156 170.121094 108.089844 170.035156 108.03125 169.871094 Z M 106.714844 166.707031 "/>
<path style=" stroke:none;fill-rule:evenodd;fill:rgb(99.215686%,78.823529%,5.098039%);fill-opacity:1;" d="M 105.425781 167.035156 C 105.351562 166.84375 105.480469 166.667969 105.679688 166.625 C 105.863281 166.597656 106.035156 166.707031 106.074219 166.902344 L 106.839844 170.203125 C 106.882812 170.394531 106.742188 170.5625 106.558594 170.613281 C 106.386719 170.640625 106.214844 170.519531 106.160156 170.339844 Z M 105.425781 167.035156 "/>
<path style=" stroke:none;fill-rule:evenodd;fill:url(#linear35);" d="M 105.425781 167.035156 C 105.351562 166.84375 105.480469 166.667969 105.679688 166.625 C 105.863281 166.597656 106.035156 166.707031 106.074219 166.902344 L 106.839844 170.203125 C 106.882812 170.394531 106.742188 170.5625 106.558594 170.613281 C 106.386719 170.640625 106.214844 170.519531 106.160156 170.339844 Z M 105.425781 167.035156 "/>
<path style=" stroke:none;fill-rule:evenodd;fill:rgb(99.215686%,78.823529%,5.098039%);fill-opacity:1;" d="M 104.078125 167.144531 C 104.050781 166.953125 104.191406 166.800781 104.40625 166.792969 C 104.601562 166.792969 104.742188 166.925781 104.757812 167.121094 L 104.929688 170.488281 C 104.929688 170.699219 104.785156 170.863281 104.601562 170.863281 C 104.390625 170.863281 104.234375 170.699219 104.234375 170.546875 L 104.0625 167.160156 "/>
<path style=" stroke:none;fill-rule:evenodd;fill:url(#linear36);" d="M 104.078125 167.144531 C 104.050781 166.953125 104.191406 166.800781 104.40625 166.792969 C 104.601562 166.792969 104.742188 166.925781 104.757812 167.121094 L 104.929688 170.488281 C 104.929688 170.699219 104.785156 170.863281 104.601562 170.863281 C 104.390625 170.863281 104.234375 170.699219 104.234375 170.546875 L 104.0625 167.160156 "/>
<path style=" stroke:none;fill-rule:evenodd;fill:rgb(99.215686%,78.823529%,5.098039%);fill-opacity:1;" d="M 102.71875 167.035156 C 102.71875 166.828125 102.902344 166.734375 103.097656 166.761719 C 103.3125 166.761719 103.410156 166.941406 103.386719 167.136719 L 102.957031 170.464844 C 102.925781 170.671875 102.746094 170.808594 102.574219 170.78125 C 102.375 170.78125 102.25 170.574219 102.261719 170.410156 L 102.71875 167.050781 "/>
<path style=" stroke:none;fill-rule:evenodd;fill:url(#linear37);" d="M 102.71875 167.035156 C 102.71875 166.828125 102.902344 166.734375 103.097656 166.761719 C 103.3125 166.761719 103.410156 166.941406 103.386719 167.136719 L 102.957031 170.464844 C 102.925781 170.671875 102.746094 170.808594 102.574219 170.78125 C 102.375 170.78125 102.25 170.574219 102.261719 170.410156 L 102.71875 167.050781 "/>
<path style=" stroke:none;fill-rule:evenodd;fill:rgb(99.215686%,78.823529%,5.098039%);fill-opacity:1;" d="M 101.355469 166.675781 C 101.386719 166.5 101.585938 166.40625 101.78125 166.457031 C 101.953125 166.515625 102.039062 166.707031 101.980469 166.871094 L 100.960938 170.09375 C 100.917969 170.3125 100.675781 170.394531 100.535156 170.339844 C 100.335938 170.285156 100.253906 170.09375 100.296875 169.925781 Z M 101.355469 166.675781 "/>
<path style=" stroke:none;fill-rule:evenodd;fill:url(#linear38);" d="M 101.355469 166.675781 C 101.386719 166.5 101.585938 166.40625 101.78125 166.457031 C 101.953125 166.515625 102.039062 166.707031 101.980469 166.871094 L 100.960938 170.09375 C 100.917969 170.3125 100.675781 170.394531 100.535156 170.339844 C 100.335938 170.285156 100.253906 170.09375 100.296875 169.925781 Z M 101.355469 166.675781 "/>
<path style=" stroke:none;fill-rule:evenodd;fill:rgb(99.215686%,78.823529%,5.098039%);fill-opacity:1;" d="M 99.941406 166.074219 C 100.023438 165.871094 100.253906 165.839844 100.421875 165.910156 C 100.605469 166.003906 100.648438 166.183594 100.566406 166.375 L 98.980469 169.375 C 98.878906 169.558594 98.691406 169.625 98.496094 169.515625 C 98.324219 169.457031 98.28125 169.238281 98.355469 169.097656 Z M 99.941406 166.074219 "/>
<path style=" stroke:none;fill-rule:evenodd;fill:url(#linear39);" d="M 99.941406 166.074219 C 100.023438 165.871094 100.253906 165.839844 100.421875 165.910156 C 100.605469 166.003906 100.648438 166.183594 100.566406 166.375 L 98.980469 169.375 C 98.878906 169.558594 98.691406 169.625 98.496094 169.515625 C 98.324219 169.457031 98.28125 169.238281 98.355469 169.097656 Z M 99.941406 166.074219 "/>
<path style=" stroke:none;fill-rule:evenodd;fill:rgb(99.215686%,78.823529%,5.098039%);fill-opacity:1;" d="M 73.867188 164.339844 L 75.140625 166.375 L 81.179688 165.796875 L 85.175781 164.875 L 86.140625 162.8125 L 84.011719 157.449219 L 78.3125 155.011719 L 73.257812 157.996094 L 73.855469 164.328125 Z M 74.40625 169.15625 C 73.921875 169.15625 73.472656 168.90625 73.230469 168.496094 L 71.332031 165.46875 C 71.21875 165.300781 71.160156 165.109375 71.144531 164.917969 L 70.4375 157.417969 C 70.394531 156.910156 70.652344 156.410156 71.105469 156.152344 L 77.507812 152.371094 C 77.894531 152.136719 78.359375 152.09375 78.78125 152.285156 L 85.6875 155.230469 C 86.023438 155.371094 86.28125 155.640625 86.421875 155.988281 L 88.941406 162.371094 C 89.058594 162.703125 89.042969 163.0625 88.902344 163.390625 L 87.429688 166.609375 C 87.257812 166.984375 86.902344 167.269531 86.476562 167.371094 L 81.617188 168.441406 L 74.53125 169.128906 L 74.390625 169.128906 Z M 74.40625 169.15625 "/>
<path style=" stroke:none;fill-rule:evenodd;fill:url(#linear40);" d="M 73.867188 164.339844 L 75.140625 166.375 L 81.179688 165.796875 L 85.175781 164.875 L 86.140625 162.8125 L 84.011719 157.449219 L 78.3125 155.011719 L 73.257812 157.996094 L 73.855469 164.328125 Z M 74.40625 169.15625 C 73.921875 169.15625 73.472656 168.90625 73.230469 168.496094 L 71.332031 165.46875 C 71.21875 165.300781 71.160156 165.109375 71.144531 164.917969 L 70.4375 157.417969 C 70.394531 156.910156 70.652344 156.410156 71.105469 156.152344 L 77.507812 152.371094 C 77.894531 152.136719 78.359375 152.09375 78.78125 152.285156 L 85.6875 155.230469 C 86.023438 155.371094 86.28125 155.640625 86.421875 155.988281 L 88.941406 162.371094 C 89.058594 162.703125 89.042969 163.0625 88.902344 163.390625 L 87.429688 166.609375 C 87.257812 166.984375 86.902344 167.269531 86.476562 167.371094 L 81.617188 168.441406 L 74.53125 169.128906 L 74.390625 169.128906 Z M 74.40625 169.15625 "/>
<path style=" stroke:none;fill-rule:evenodd;fill:rgb(99.215686%,78.823529%,5.098039%);fill-opacity:1;" d="M 75.371094 155.160156 L 72.164062 124.667969 C 72.164062 124.667969 80.328125 123.660156 82.652344 124.230469 L 82.652344 155.605469 "/>
<path style=" stroke:none;fill-rule:evenodd;fill:url(#linear41);" d="M 75.371094 155.160156 L 72.164062 124.667969 C 72.164062 124.667969 80.328125 123.660156 82.652344 124.230469 L 82.652344 155.605469 "/>
<path style=" stroke:none;fill-rule:evenodd;fill:rgb(99.215686%,78.823529%,5.098039%);fill-opacity:1;" d="M 96.910156 172.457031 C 93.875 172.457031 91.292969 170.832031 90.957031 170.597656 L 89.960938 169.941406 L 89.214844 165.371094 L 88.21875 165.234375 L 89.042969 159.910156 L 94.0625 160.652344 L 95.023438 166.640625 C 95.871094 166.984375 96.980469 167.253906 97.714844 166.910156 C 98.511719 166.558594 99.136719 165.359375 99.53125 163.558594 L 96.582031 160.910156 L 96.269531 157.199219 C 96.210938 156.511719 95.929688 150.8125 99.644531 147.183594 C 101.027344 145.800781 103.542969 144.207031 107.675781 144.425781 L 108.640625 144.453125 L 109.378906 145.089844 C 109.4375 145.15625 116.515625 151.113281 124.226562 150.703125 C 132.019531 150.316406 138.257812 148.683594 139.289062 148.363281 L 168.140625 135.703125 L 170.453125 140.589844 L 141.046875 153.484375 C 140.765625 153.578125 133.707031 155.605469 124.496094 156.066406 C 116.277344 156.484375 108.953125 151.609375 106.558594 149.796875 C 105.285156 149.863281 104.289062 150.25 103.582031 150.953125 C 101.882812 152.605469 101.710938 155.808594 101.765625 156.796875 L 101.90625 158.410156 L 105.382812 161.546875 L 105.210938 162.921875 C 104.671875 167.53125 102.917969 170.53125 100.039062 171.839844 C 98.988281 172.292969 97.945312 172.484375 96.925781 172.484375 "/>
<path style=" stroke:none;fill-rule:evenodd;fill:url(#linear42);" d="M 96.910156 172.457031 C 93.875 172.457031 91.292969 170.832031 90.957031 170.597656 L 89.960938 169.941406 L 89.214844 165.371094 L 88.21875 165.234375 L 89.042969 159.910156 L 94.0625 160.652344 L 95.023438 166.640625 C 95.871094 166.984375 96.980469 167.253906 97.714844 166.910156 C 98.511719 166.558594 99.136719 165.359375 99.53125 163.558594 L 96.582031 160.910156 L 96.269531 157.199219 C 96.210938 156.511719 95.929688 150.8125 99.644531 147.183594 C 101.027344 145.800781 103.542969 144.207031 107.675781 144.425781 L 108.640625 144.453125 L 109.378906 145.089844 C 109.4375 145.15625 116.515625 151.113281 124.226562 150.703125 C 132.019531 150.316406 138.257812 148.683594 139.289062 148.363281 L 168.140625 135.703125 L 170.453125 140.589844 L 141.046875 153.484375 C 140.765625 153.578125 133.707031 155.605469 124.496094 156.066406 C 116.277344 156.484375 108.953125 151.609375 106.558594 149.796875 C 105.285156 149.863281 104.289062 150.25 103.582031 150.953125 C 101.882812 152.605469 101.710938 155.808594 101.765625 156.796875 L 101.90625 158.410156 L 105.382812 161.546875 L 105.210938 162.921875 C 104.671875 167.53125 102.917969 170.53125 100.039062 171.839844 C 98.988281 172.292969 97.945312 172.484375 96.925781 172.484375 "/>
<path style=" stroke:none;fill-rule:evenodd;fill:rgb(99.215686%,78.823529%,5.098039%);fill-opacity:1;" d="M 288.867188 58.738281 L 276.683594 68.605469 C 264 78.472656 257.414062 67.503906 257.414062 67.503906 L 248.429688 64.792969 L 193.703125 119.503906 C 193.703125 119.503906 226.648438 117.578125 237.347656 105.15625 C 237.347656 105.15625 244.613281 98.410156 248.074219 82.269531 C 248.074219 82.269531 261.433594 80.921875 264.226562 80.921875 C 288.851562 80.921875 292.3125 70.824219 292.3125 70.824219 L 288.851562 58.714844 "/>
<path style=" stroke:none;fill-rule:evenodd;fill:url(#linear43);" d="M 288.867188 58.738281 L 276.683594 68.605469 C 264 78.472656 257.414062 67.503906 257.414062 67.503906 L 248.429688 64.792969 L 193.703125 119.503906 C 193.703125 119.503906 226.648438 117.578125 237.347656 105.15625 C 237.347656 105.15625 244.613281 98.410156 248.074219 82.269531 C 248.074219 82.269531 261.433594 80.921875 264.226562 80.921875 C 288.851562 80.921875 292.3125 70.824219 292.3125 70.824219 L 288.851562 58.714844 "/>
<path style=" stroke:none;fill-rule:evenodd;fill:rgb(99.215686%,78.823529%,5.098039%);fill-opacity:1;" d="M 150.910156 175.441406 C 143.867188 175.441406 134.921875 174.519531 129.398438 170.488281 C 119.523438 163.28125 114.296875 151.597656 114.066406 151.089844 L 116.617188 150.03125 C 116.664062 150.167969 121.777344 161.589844 131.042969 168.332031 C 140.140625 174.964844 160.898438 172.128906 161.125 172.097656 L 161.507812 174.769531 C 161.082031 174.828125 156.617188 175.457031 150.878906 175.457031 "/>
<path style=" stroke:none;fill-rule:evenodd;fill:url(#linear44);" d="M 150.910156 175.441406 C 143.867188 175.441406 134.921875 174.519531 129.398438 170.488281 C 119.523438 163.28125 114.296875 151.597656 114.066406 151.089844 L 116.617188 150.03125 C 116.664062 150.167969 121.777344 161.589844 131.042969 168.332031 C 140.140625 174.964844 160.898438 172.128906 161.125 172.097656 L 161.507812 174.769531 C 161.082031 174.828125 156.617188 175.457031 150.878906 175.457031 "/>
<path style=" stroke:none;fill-rule:evenodd;fill:rgb(99.215686%,78.823529%,5.098039%);fill-opacity:1;" d="M 154.71875 175.292969 C 154.71875 175.292969 159.609375 166.375 167.191406 174.109375 C 174.800781 181.84375 154.71875 175.292969 154.71875 175.292969 Z M 154.71875 175.292969 "/>
<path style=" stroke:none;fill-rule:evenodd;fill:url(#linear45);" d="M 154.71875 175.292969 C 154.71875 175.292969 159.609375 166.375 167.191406 174.109375 C 174.800781 181.84375 154.71875 175.292969 154.71875 175.292969 Z M 154.71875 175.292969 "/>
<path style=" stroke:none;fill-rule:evenodd;fill:rgb(99.215686%,78.823529%,5.098039%);fill-opacity:1;" d="M 159.371094 100.667969 C 159.371094 100.667969 166.820312 103.917969 168.578125 109.859375 Z M 159.371094 100.667969 "/>
<path style=" stroke:none;fill-rule:evenodd;fill:url(#linear46);" d="M 159.371094 100.667969 C 159.371094 100.667969 166.820312 103.917969 168.578125 109.859375 Z M 159.371094 100.667969 "/>
<path style=" stroke:none;fill-rule:evenodd;fill:rgb(99.215686%,78.823529%,5.098039%);fill-opacity:1;" d="M 300.925781 18.472656 L 300.074219 14.578125 L 296.675781 16.808594 C 284.632812 24.652344 269.894531 33.28125 267.089844 33.5 C 262.199219 33.5 249.121094 34.464844 248.554688 34.519531 L 248.171875 34.574219 C 239.273438 36.558594 234.355469 39.761719 233.152344 44.402344 C 231.921875 49.144531 235.25 53.316406 237.035156 55.136719 C 236.523438 65.863281 229.101562 75.015625 226.757812 77.628906 C 215.523438 78.5 209.402344 86.394531 206.996094 90.390625 C 185.414062 83.644531 162.921875 95.511719 158.605469 97.957031 L 137.945312 97.957031 L 137.585938 97.984375 C 136.597656 98.09375 113.785156 101.011719 102.054688 107.246094 C 93.890625 111.578125 91.753906 119.546875 91.285156 125.027344 C 87.355469 122.578125 81.40625 119.796875 75.3125 120.527344 C 70.355469 121.105469 66.171875 123.785156 62.914062 128.503906 C 61.15625 131.121094 58.621094 139.238281 60.507812 147.191406 C 61.894531 153.015625 65.4375 157.691406 70.75 160.71875 L 73.542969 156.042969 C 69.515625 153.769531 66.96875 150.375 65.933594 145.96875 C 64.417969 139.667969 66.472656 133.0625 67.550781 131.496094 C 69.886719 128.09375 72.621094 126.265625 75.960938 125.847656 C 83.804688 124.925781 92.191406 132.359375 92.289062 132.425781 L 97.953125 137.519531 L 96.910156 130.089844 C 96.910156 129.953125 95.148438 117.015625 104.703125 111.964844 C 115.019531 106.488281 136.015625 103.597656 138.144531 103.324219 L 160.160156 103.324219 L 160.84375 102.910156 C 161.082031 102.746094 185.785156 88.046875 207.347656 96.167969 L 209.832031 97.105469 L 210.890625 94.722656 C 211.105469 94.253906 216.078125 83.300781 228.132812 82.890625 L 229.242188 82.859375 L 230.003906 82.078125 C 230.515625 81.566406 242.542969 69.347656 242.542969 53.980469 L 242.542969 52.738281 L 241.597656 51.941406 C 240.773438 51.25 237.839844 48.128906 238.480469 45.667969 C 238.835938 44.292969 240.703125 41.730469 249.175781 39.816406 C 250.878906 39.675781 262.726562 38.855469 267.074219 38.855469 C 270.644531 38.855469 281.058594 32.910156 289.816406 27.515625 C 287.011719 30.488281 282.800781 34.296875 276.496094 39.046875 C 275.746094 39.597656 275.261719 39.953125 275.082031 40.0625 L 273.734375 41.082031 L 274.160156 44.175781 L 275.617188 44.785156 C 276.710938 45.199219 277.375 45.0625 278.453125 44.371094 C 278.847656 44.097656 279.304688 43.738281 279.871094 43.3125 C 300.984375 27.488281 301.308594 20.292969 300.925781 18.457031 "/>
<path style=" stroke:none;fill-rule:evenodd;fill:url(#linear47);" d="M 300.925781 18.472656 L 300.074219 14.578125 L 296.675781 16.808594 C 284.632812 24.652344 269.894531 33.28125 267.089844 33.5 C 262.199219 33.5 249.121094 34.464844 248.554688 34.519531 L 248.171875 34.574219 C 239.273438 36.558594 234.355469 39.761719 233.152344 44.402344 C 231.921875 49.144531 235.25 53.316406 237.035156 55.136719 C 236.523438 65.863281 229.101562 75.015625 226.757812 77.628906 C 215.523438 78.5 209.402344 86.394531 206.996094 90.390625 C 185.414062 83.644531 162.921875 95.511719 158.605469 97.957031 L 137.945312 97.957031 L 137.585938 97.984375 C 136.597656 98.09375 113.785156 101.011719 102.054688 107.246094 C 93.890625 111.578125 91.753906 119.546875 91.285156 125.027344 C 87.355469 122.578125 81.40625 119.796875 75.3125 120.527344 C 70.355469 121.105469 66.171875 123.785156 62.914062 128.503906 C 61.15625 131.121094 58.621094 139.238281 60.507812 147.191406 C 61.894531 153.015625 65.4375 157.691406 70.75 160.71875 L 73.542969 156.042969 C 69.515625 153.769531 66.96875 150.375 65.933594 145.96875 C 64.417969 139.667969 66.472656 133.0625 67.550781 131.496094 C 69.886719 128.09375 72.621094 126.265625 75.960938 125.847656 C 83.804688 124.925781 92.191406 132.359375 92.289062 132.425781 L 97.953125 137.519531 L 96.910156 130.089844 C 96.910156 129.953125 95.148438 117.015625 104.703125 111.964844 C 115.019531 106.488281 136.015625 103.597656 138.144531 103.324219 L 160.160156 103.324219 L 160.84375 102.910156 C 161.082031 102.746094 185.785156 88.046875 207.347656 96.167969 L 209.832031 97.105469 L 210.890625 94.722656 C 211.105469 94.253906 216.078125 83.300781 228.132812 82.890625 L 229.242188 82.859375 L 230.003906 82.078125 C 230.515625 81.566406 242.542969 69.347656 242.542969 53.980469 L 242.542969 52.738281 L 241.597656 51.941406 C 240.773438 51.25 237.839844 48.128906 238.480469 45.667969 C 238.835938 44.292969 240.703125 41.730469 249.175781 39.816406 C 250.878906 39.675781 262.726562 38.855469 267.074219 38.855469 C 270.644531 38.855469 281.058594 32.910156 289.816406 27.515625 C 287.011719 30.488281 282.800781 34.296875 276.496094 39.046875 C 275.746094 39.597656 275.261719 39.953125 275.082031 40.0625 L 273.734375 41.082031 L 274.160156 44.175781 L 275.617188 44.785156 C 276.710938 45.199219 277.375 45.0625 278.453125 44.371094 C 278.847656 44.097656 279.304688 43.738281 279.871094 43.3125 C 300.984375 27.488281 301.308594 20.292969 300.925781 18.457031 "/>
<path style=" stroke:none;fill-rule:evenodd;fill:rgb(99.215686%,78.823529%,5.098039%);fill-opacity:1;" d="M 181.488281 129.109375 L 178.371094 124.667969 L 188.316406 118.113281 C 207.503906 110.824219 218.699219 102.125 220.085938 101.011719 L 237.628906 81.089844 L 252.421875 46.574219 L 255.398438 45.515625 C 258.121094 45.265625 261.535156 43.480469 263.761719 42.308594 C 265.316406 41.484375 266.285156 40.984375 267.203125 40.832031 L 276.78125 39.253906 L 277.730469 44.550781 L 268.136719 46.136719 C 268.027344 46.1875 267.148438 46.683594 266.390625 47.042969 C 263.902344 48.347656 260.21875 50.292969 256.617188 50.796875 L 242.121094 84.238281 L 223.839844 104.933594 C 223.371094 105.347656 211.839844 114.886719 190.628906 123.015625 L 181.488281 129.074219 "/>
<path style=" stroke:none;fill-rule:evenodd;fill:url(#linear48);" d="M 181.488281 129.109375 L 178.371094 124.667969 L 188.316406 118.113281 C 207.503906 110.824219 218.699219 102.125 220.085938 101.011719 L 237.628906 81.089844 L 252.421875 46.574219 L 255.398438 45.515625 C 258.121094 45.265625 261.535156 43.480469 263.761719 42.308594 C 265.316406 41.484375 266.285156 40.984375 267.203125 40.832031 L 276.78125 39.253906 L 277.730469 44.550781 L 268.136719 46.136719 C 268.027344 46.1875 267.148438 46.683594 266.390625 47.042969 C 263.902344 48.347656 260.21875 50.292969 256.617188 50.796875 L 242.121094 84.238281 L 223.839844 104.933594 C 223.371094 105.347656 211.839844 114.886719 190.628906 123.015625 L 181.488281 129.074219 "/>
<path style=" stroke:none;fill-rule:evenodd;fill:rgb(99.215686%,78.823529%,5.098039%);fill-opacity:1;" d="M 215.140625 156.292969 C 215.140625 174.25 202.246094 166.828125 202.246094 166.828125 L 195.304688 159.675781 C 195.304688 159.675781 171.183594 140.863281 165.503906 140.339844 C 153.386719 139.265625 136.699219 128.011719 126.199219 132.300781 C 125.289062 132.6875 124.425781 133.019531 123.578125 133.308594 C 102.972656 140.574219 100.832031 126.484375 100.832031 126.484375 C 100.832031 126.484375 98.988281 112.144531 127.121094 111.691406 C 155.230469 111.222656 182.40625 126.910156 182.40625 126.910156 L 199.472656 152.917969 C 199.472656 152.917969 205.933594 153.605469 207.773438 158.53125 C 207.773438 158.53125 215.140625 152.246094 215.140625 156.292969 Z M 215.140625 156.292969 "/>
<path style=" stroke:none;fill-rule:evenodd;fill:url(#linear49);" d="M 215.140625 156.292969 C 215.140625 174.25 202.246094 166.828125 202.246094 166.828125 L 195.304688 159.675781 C 195.304688 159.675781 171.183594 140.863281 165.503906 140.339844 C 153.386719 139.265625 136.699219 128.011719 126.199219 132.300781 C 125.289062 132.6875 124.425781 133.019531 123.578125 133.308594 C 102.972656 140.574219 100.832031 126.484375 100.832031 126.484375 C 100.832031 126.484375 98.988281 112.144531 127.121094 111.691406 C 155.230469 111.222656 182.40625 126.910156 182.40625 126.910156 L 199.472656 152.917969 C 199.472656 152.917969 205.933594 153.605469 207.773438 158.53125 C 207.773438 158.53125 215.140625 152.246094 215.140625 156.292969 Z M 215.140625 156.292969 "/>
<path style=" stroke:none;fill-rule:evenodd;fill:rgb(99.215686%,78.823529%,5.098039%);fill-opacity:1;" d="M 298.957031 20.359375 C 298.957031 20.359375 272.671875 37.519531 267.855469 37.519531 C 262.996094 37.519531 249.53125 38.527344 249.53125 38.527344 C 226.71875 43.574219 240.535156 55.339844 240.535156 55.339844 C 240.535156 69.785156 228.773438 81.566406 228.773438 81.566406 C 214.746094 82.011719 209.074219 95.027344 209.074219 95.027344 C 185.925781 86.277344 160.121094 101.972656 160.121094 101.972656 L 138.679688 101.972656 C 138.679688 101.972656 115.511719 104.863281 104.109375 110.921875 C 92.714844 116.972656 94.894531 131.78125 94.894531 131.78125 C 94.894531 131.78125 76.832031 115.503906 65.988281 131.34375 C 63.722656 134.613281 59.355469 151.019531 71.96875 159.097656 L 71.828125 157.28125 L 78.203125 153.496094 L 85.121094 156.441406 L 87.625 162.828125 L 87.386719 163.375 L 89.394531 163.871094 L 92.371094 164.339844 L 92.160156 171.058594 C 92.160156 171.058594 101.839844 175.324219 103.214844 163.871094 L 100 160.984375 L 99.753906 158.285156 C 99.753906 158.285156 99.046875 147.964844 108.285156 148.40625 C 108.285156 148.40625 116.121094 155.144531 125.105469 154.691406 C 134.089844 154.214844 141.003906 152.21875 141.003906 152.21875 L 170.050781 139.417969 L 182.710938 127.089844 L 190.074219 121.925781 C 211.269531 113.847656 222.804688 104.203125 222.804688 104.203125 L 240.789062 83.839844 L 255.3125 49.957031 L 256.445312 49.519531 C 261.308594 49.0625 267.074219 45.03125 268.449219 44.796875 L 278.027344 43.214844 L 278.945312 42.527344 C 300.34375 26.484375 298.996094 20.375 298.996094 20.375 "/>
<path style=" stroke:none;fill-rule:evenodd;fill:url(#linear50);" d="M 298.957031 20.359375 C 298.957031 20.359375 272.671875 37.519531 267.855469 37.519531 C 262.996094 37.519531 249.53125 38.527344 249.53125 38.527344 C 226.71875 43.574219 240.535156 55.339844 240.535156 55.339844 C 240.535156 69.785156 228.773438 81.566406 228.773438 81.566406 C 214.746094 82.011719 209.074219 95.027344 209.074219 95.027344 C 185.925781 86.277344 160.121094 101.972656 160.121094 101.972656 L 138.679688 101.972656 C 138.679688 101.972656 115.511719 104.863281 104.109375 110.921875 C 92.714844 116.972656 94.894531 131.78125 94.894531 131.78125 C 94.894531 131.78125 76.832031 115.503906 65.988281 131.34375 C 63.722656 134.613281 59.355469 151.019531 71.96875 159.097656 L 71.828125 157.28125 L 78.203125 153.496094 L 85.121094 156.441406 L 87.625 162.828125 L 87.386719 163.375 L 89.394531 163.871094 L 92.371094 164.339844 L 92.160156 171.058594 C 92.160156 171.058594 101.839844 175.324219 103.214844 163.871094 L 100 160.984375 L 99.753906 158.285156 C 99.753906 158.285156 99.046875 147.964844 108.285156 148.40625 C 108.285156 148.40625 116.121094 155.144531 125.105469 154.691406 C 134.089844 154.214844 141.003906 152.21875 141.003906 152.21875 L 170.050781 139.417969 L 182.710938 127.089844 L 190.074219 121.925781 C 211.269531 113.847656 222.804688 104.203125 222.804688 104.203125 L 240.789062 83.839844 L 255.3125 49.957031 L 256.445312 49.519531 C 261.308594 49.0625 267.074219 45.03125 268.449219 44.796875 L 278.027344 43.214844 L 278.945312 42.527344 C 300.34375 26.484375 298.996094 20.375 298.996094 20.375 "/>
<path style=" stroke:none;fill-rule:evenodd;fill:rgb(99.215686%,78.823529%,5.098039%);fill-opacity:1;" d="M 233.164062 149.988281 C 222.34375 196.140625 179.832031 230.683594 129.183594 230.683594 C 70.378906 230.683594 22.542969 184.128906 22.542969 126.894531 C 22.542969 69.675781 70.378906 23.109375 129.183594 23.109375 C 152.425781 23.109375 173.964844 30.40625 191.507812 42.734375 C 195.332031 36.472656 199.769531 30.433594 205.054688 25.21875 C 183.730469 10.078125 157.511719 1.136719 129.183594 1.136719 C 57.957031 1.136719 0 57.558594 0 126.855469 C 0 196.183594 57.957031 252.589844 129.183594 252.589844 C 192.441406 252.589844 245.238281 208.097656 256.246094 149.589844 C 248.652344 150.527344 240.601562 150.277344 233.179688 149.957031 "/>
<path style=" stroke:none;fill-rule:evenodd;fill:url(#linear51);" d="M 233.164062 149.988281 C 222.34375 196.140625 179.832031 230.683594 129.183594 230.683594 C 70.378906 230.683594 22.542969 184.128906 22.542969 126.894531 C 22.542969 69.675781 70.378906 23.109375 129.183594 23.109375 C 152.425781 23.109375 173.964844 30.40625 191.507812 42.734375 C 195.332031 36.472656 199.769531 30.433594 205.054688 25.21875 C 183.730469 10.078125 157.511719 1.136719 129.183594 1.136719 C 57.957031 1.136719 0 57.558594 0 126.855469 C 0 196.183594 57.957031 252.589844 129.183594 252.589844 C 192.441406 252.589844 245.238281 208.097656 256.246094 149.589844 C 248.652344 150.527344 240.601562 150.277344 233.179688 149.957031 "/>
</g>
</svg>
