<svg width="192" height="192" viewBox="0 0 192 192" fill="none" xmlns="http://www.w3.org/2000/svg">
<path fill-rule="evenodd" clip-rule="evenodd" d="M111.963 63.7676C113.218 67.7774 111.313 71.8988 107.698 72.9628L68.6999 84.4339C65.0875 85.4946 61.1434 83.1006 59.8889 79.081C58.6377 75.0548 60.5523 70.9432 64.1647 69.8857L103.162 58.4048C106.785 57.3375 110.712 59.7414 111.963 63.7676Z" fill="#FDC90D"/>
<path fill-rule="evenodd" clip-rule="evenodd" d="M111.963 63.7676C113.218 67.7774 111.313 71.8988 107.698 72.9628L68.6999 84.4339C65.0875 85.4946 61.1434 83.1006 59.8889 79.081C58.6377 75.0548 60.5523 70.9432 64.1647 69.8857L103.162 58.4048C106.785 57.3375 110.712 59.7414 111.963 63.7676Z" fill="url(#paint0_linear_1_23)"/>
<path fill-rule="evenodd" clip-rule="evenodd" d="M59.2551 76.1418L56.2601 77.0088C54.7921 77.4423 54.0236 79.1072 54.5327 80.7394C55.0417 82.3617 56.6344 83.3239 58.0827 82.8904L61.0876 82.007C60.4439 81.2254 59.925 80.2698 59.5966 79.2288C59.2649 78.1877 59.1467 77.1467 59.2387 76.1418" fill="#FDC90D"/>
<path fill-rule="evenodd" clip-rule="evenodd" d="M59.2551 76.1418L56.2601 77.0088C54.7921 77.4423 54.0236 79.1072 54.5327 80.7394C55.0417 82.3617 56.6344 83.3239 58.0827 82.8904L61.0876 82.007C60.4439 81.2254 59.925 80.2698 59.5966 79.2288C59.2649 78.1877 59.1467 77.1467 59.2387 76.1418" fill="url(#paint1_linear_1_23)"/>
<path fill-rule="evenodd" clip-rule="evenodd" d="M61.7937 96.634C61.8396 96.5224 61.948 96.46 62.0629 96.4797C62.1877 96.5224 62.2436 96.6504 62.2239 96.7391L61.5703 98.7949C61.5178 98.9066 61.393 98.969 61.2846 98.9263C61.1598 98.9 61.0876 98.7785 61.1336 98.6635L61.7937 96.634Z" fill="#FDC90D"/>
<path fill-rule="evenodd" clip-rule="evenodd" d="M61.7937 96.634C61.8396 96.5224 61.948 96.46 62.0629 96.4797C62.1877 96.5224 62.2436 96.6504 62.2239 96.7391L61.5703 98.7949C61.5178 98.9066 61.393 98.969 61.2846 98.9263C61.1598 98.9 61.0876 98.7785 61.1336 98.6635L61.7937 96.634Z" fill="url(#paint2_linear_1_23)"/>
<path fill-rule="evenodd" clip-rule="evenodd" d="M60.3552 96.0692C60.4012 95.9477 60.5358 95.8984 60.6508 95.9477C60.7395 95.9937 60.7953 96.1217 60.7657 96.2104L59.8725 98.171C59.8199 98.2826 59.6656 98.345 59.5769 98.276C59.462 98.2399 59.416 98.102 59.4685 98.0133L60.3454 96.0626" fill="#FDC90D"/>
<path fill-rule="evenodd" clip-rule="evenodd" d="M60.3552 96.0692C60.4012 95.9477 60.5358 95.8984 60.6508 95.9477C60.7395 95.9937 60.7953 96.1217 60.7657 96.2104L59.8725 98.171C59.8199 98.2826 59.6656 98.345 59.5769 98.276C59.462 98.2399 59.416 98.102 59.4685 98.0133L60.3454 96.0626" fill="url(#paint3_linear_1_23)"/>
<path fill-rule="evenodd" clip-rule="evenodd" d="M58.9595 95.3499C59.0219 95.2448 59.1402 95.2021 59.265 95.2645C59.3799 95.3236 59.4062 95.455 59.3536 95.5601L58.2797 97.4155C58.2075 97.5206 58.0564 97.5534 57.9678 97.4845C57.8495 97.4319 57.8167 97.3104 57.8791 97.2086L58.9694 95.3597" fill="#FDC90D"/>
<path fill-rule="evenodd" clip-rule="evenodd" d="M58.9595 95.3499C59.0219 95.2448 59.1402 95.2021 59.265 95.2645C59.3799 95.3236 59.4062 95.455 59.3536 95.5601L58.2797 97.4155C58.2075 97.5206 58.0564 97.5534 57.9678 97.4845C57.8495 97.4319 57.8167 97.3104 57.8791 97.2086L58.9694 95.3597" fill="url(#paint4_linear_1_23)"/>
<path fill-rule="evenodd" clip-rule="evenodd" d="M57.6722 94.5158C57.7346 94.414 57.8692 94.3878 57.9776 94.4567C58.0663 94.5257 58.0663 94.657 58.0302 94.7621L56.7428 96.4961C56.6509 96.5815 56.5195 96.6077 56.4276 96.5388C56.3389 96.4698 56.3126 96.3385 56.3849 96.2531L57.6722 94.5158Z" fill="#FDC90D"/>
<path fill-rule="evenodd" clip-rule="evenodd" d="M57.6722 94.5158C57.7346 94.414 57.8692 94.3878 57.9776 94.4567C58.0663 94.5257 58.0663 94.657 58.0302 94.7621L56.7428 96.4961C56.6509 96.5815 56.5195 96.6077 56.4276 96.5388C56.3389 96.4698 56.3126 96.3385 56.3849 96.2531L57.6722 94.5158Z" fill="url(#paint5_linear_1_23)"/>
<path fill-rule="evenodd" clip-rule="evenodd" d="M56.4834 93.5733C56.5458 93.4682 56.6804 93.4583 56.7691 93.5371C56.8578 93.6225 56.8578 93.7637 56.8052 93.8491L55.3734 95.4616C55.2847 95.5502 55.1238 95.5502 55.0516 95.4616C54.9629 95.4025 54.9432 95.2645 55.0319 95.1857L56.4637 93.5798" fill="#FDC90D"/>
<path fill-rule="evenodd" clip-rule="evenodd" d="M56.4834 93.5733C56.5458 93.4682 56.6804 93.4583 56.7691 93.5371C56.8578 93.6225 56.8578 93.7637 56.8052 93.8491L55.3734 95.4616C55.2847 95.5502 55.1238 95.5502 55.0516 95.4616C54.9629 95.4025 54.9432 95.2645 55.0319 95.1857L56.4637 93.5798" fill="url(#paint6_linear_1_23)"/>
<path fill-rule="evenodd" clip-rule="evenodd" d="M55.3734 92.5224C55.4621 92.4337 55.5967 92.4337 55.6952 92.5224C55.7839 92.6078 55.7675 92.749 55.6952 92.8344L54.1025 94.3089C54.0138 94.3975 53.8627 94.3778 53.7905 94.3089C53.7018 94.2235 53.7018 94.0757 53.7905 94.0067L55.3635 92.5289" fill="#FDC90D"/>
<path fill-rule="evenodd" clip-rule="evenodd" d="M55.3734 92.5224C55.4621 92.4337 55.5967 92.4337 55.6952 92.5224C55.7839 92.6078 55.7675 92.749 55.6952 92.8344L54.1025 94.3089C54.0138 94.3975 53.8627 94.3778 53.7905 94.3089C53.7018 94.2235 53.7018 94.0757 53.7905 94.0067L55.3635 92.5289" fill="url(#paint7_linear_1_23)"/>
<path fill-rule="evenodd" clip-rule="evenodd" d="M54.4243 91.419C54.513 91.3336 54.641 91.35 54.7297 91.4551C54.7921 91.5405 54.7757 91.6817 54.6936 91.7572L52.976 93.0873C52.8677 93.1726 52.733 93.1365 52.6641 93.0511C52.5721 92.9657 52.6017 92.8245 52.7002 92.7556L54.4177 91.4288" fill="#FDC90D"/>
<path fill-rule="evenodd" clip-rule="evenodd" d="M54.4243 91.419C54.513 91.3336 54.641 91.35 54.7297 91.4551C54.7921 91.5405 54.7757 91.6817 54.6936 91.7572L52.976 93.0873C52.8677 93.1726 52.733 93.1365 52.6641 93.0511C52.5721 92.9657 52.6017 92.8245 52.7002 92.7556L54.4177 91.4288" fill="url(#paint8_linear_1_23)"/>
<path fill-rule="evenodd" clip-rule="evenodd" d="M53.577 90.2663C53.6821 90.1974 53.8266 90.2237 53.889 90.3189C53.9514 90.4207 53.9153 90.5521 53.8266 90.621L52.0007 91.7934C51.8661 91.8525 51.7314 91.8197 51.6789 91.7244C51.5902 91.6194 51.6329 91.4978 51.7314 91.4387L53.5672 90.2565" fill="#FDC90D"/>
<path fill-rule="evenodd" clip-rule="evenodd" d="M53.577 90.2663C53.6821 90.1974 53.8266 90.2237 53.889 90.3189C53.9514 90.4207 53.9153 90.5521 53.8266 90.621L52.0007 91.7934C51.8661 91.8525 51.7314 91.8197 51.6789 91.7244C51.5902 91.6194 51.6329 91.4978 51.7314 91.4387L53.5672 90.2565" fill="url(#paint9_linear_1_23)"/>
<path fill-rule="evenodd" clip-rule="evenodd" d="M52.9038 89.0873C52.9925 89.0151 53.1271 89.0611 53.1994 89.1727C53.2453 89.2581 53.1994 89.3993 53.091 89.4584L51.1698 90.4666C51.0516 90.5192 50.9006 90.4666 50.8644 90.378C50.8217 90.2663 50.8644 90.1349 50.9531 90.0824L52.9235 89.0939" fill="#FDC90D"/>
<path fill-rule="evenodd" clip-rule="evenodd" d="M52.9038 89.0873C52.9925 89.0151 53.1271 89.0611 53.1994 89.1727C53.2453 89.2581 53.1994 89.3993 53.091 89.4584L51.1698 90.4666C51.0516 90.5192 50.9006 90.4666 50.8644 90.378C50.8217 90.2663 50.8644 90.1349 50.9531 90.0824L52.9235 89.0939" fill="url(#paint10_linear_1_23)"/>
<path fill-rule="evenodd" clip-rule="evenodd" d="M52.3488 87.8887C52.467 87.846 52.6017 87.8887 52.6444 88.0102C52.7002 88.1218 52.6279 88.2433 52.5294 88.286L50.49 89.0873C50.3653 89.1366 50.2405 89.0873 50.1945 88.9658C50.1485 88.8607 50.2109 88.7392 50.3193 88.7031L52.3586 87.8985" fill="#FDC90D"/>
<path fill-rule="evenodd" clip-rule="evenodd" d="M52.3488 87.8887C52.467 87.846 52.6017 87.8887 52.6444 88.0102C52.7002 88.1218 52.6279 88.2433 52.5294 88.286L50.49 89.0873C50.3653 89.1366 50.2405 89.0873 50.1945 88.9658C50.1485 88.8607 50.2109 88.7392 50.3193 88.7031L52.3586 87.8985" fill="url(#paint11_linear_1_23)"/>
<path fill-rule="evenodd" clip-rule="evenodd" d="M51.9744 86.736C52.0992 86.69 52.2076 86.759 52.2437 86.8805C52.2799 86.9955 52.1978 87.1071 52.0894 87.1432L49.9613 87.7147C49.8464 87.7409 49.7216 87.672 49.6921 87.5603C49.6658 87.4454 49.738 87.3337 49.8464 87.2976L51.958 86.736" fill="#FDC90D"/>
<path fill-rule="evenodd" clip-rule="evenodd" d="M51.9744 86.736C52.0992 86.69 52.2076 86.759 52.2437 86.8805C52.2799 86.9955 52.1978 87.1071 52.0894 87.1432L49.9613 87.7147C49.8464 87.7409 49.7216 87.672 49.6921 87.5603C49.6658 87.4454 49.738 87.3337 49.8464 87.2976L51.958 86.736" fill="url(#paint12_linear_1_23)"/>
<path fill-rule="evenodd" clip-rule="evenodd" d="M51.761 85.6162C51.8759 85.5899 51.9908 85.6753 52.0105 85.7902C52.027 85.9117 51.9482 86.0135 51.8299 86.03L49.6592 86.3452C49.5246 86.3452 49.4063 86.2566 49.3899 86.1547C49.3702 86.0398 49.4786 85.9281 49.5869 85.9183L51.761 85.6162Z" fill="#FDC90D"/>
<path fill-rule="evenodd" clip-rule="evenodd" d="M51.761 85.6162C51.8759 85.5899 51.9908 85.6753 52.0105 85.7902C52.027 85.9117 51.9482 86.0135 51.8299 86.03L49.6592 86.3452C49.5246 86.3452 49.4063 86.2566 49.3899 86.1547C49.3702 86.0398 49.4786 85.9281 49.5869 85.9183L51.761 85.6162Z" fill="url(#paint13_linear_1_23)"/>
<path fill-rule="evenodd" clip-rule="evenodd" d="M51.715 84.5652C51.8398 84.5652 51.9383 84.6506 51.9482 84.7721C51.9482 84.9035 51.8299 84.9889 51.715 84.9987H49.5147C49.3899 84.9987 49.3012 84.8871 49.3012 84.7721C49.3012 84.6506 49.4063 84.5652 49.5246 84.5652H51.7314" fill="#FDC90D"/>
<path fill-rule="evenodd" clip-rule="evenodd" d="M51.715 84.5652C51.8398 84.5652 51.9383 84.6506 51.9482 84.7721C51.9482 84.9035 51.8299 84.9889 51.715 84.9987H49.5147C49.3899 84.9987 49.3012 84.8871 49.3012 84.7721C49.3012 84.6506 49.4063 84.5652 49.5246 84.5652H51.7314" fill="url(#paint14_linear_1_23)"/>
<path fill-rule="evenodd" clip-rule="evenodd" d="M51.8299 83.6096C51.9646 83.6293 52.0368 83.7409 52.0106 83.8723C52.0106 83.9741 51.8661 84.0431 51.761 84.0267L49.6132 83.6621C49.4786 83.6359 49.3998 83.5143 49.4326 83.4027C49.4326 83.291 49.5607 83.2286 49.6756 83.2286L51.8299 83.6096Z" fill="#FDC90D"/>
<path fill-rule="evenodd" clip-rule="evenodd" d="M51.8299 83.6096C51.9646 83.6293 52.0368 83.7409 52.0106 83.8723C52.0106 83.9741 51.8661 84.0431 51.761 84.0267L49.6132 83.6621C49.4786 83.6359 49.3998 83.5143 49.4326 83.4027C49.4326 83.291 49.5607 83.2286 49.6756 83.2286L51.8299 83.6096Z" fill="url(#paint15_linear_1_23)"/>
<path fill-rule="evenodd" clip-rule="evenodd" d="M52.1189 82.7689C52.2437 82.8116 52.2963 82.9429 52.2503 83.048C52.1977 83.1597 52.0729 83.2024 51.9646 83.1695L49.9088 82.3879C49.8004 82.3453 49.7479 82.2139 49.7906 82.1285C49.8365 82.007 49.9712 81.9545 50.0796 81.9971L52.1189 82.7689Z" fill="#FDC90D"/>
<path fill-rule="evenodd" clip-rule="evenodd" d="M52.1189 82.7689C52.2437 82.8116 52.2963 82.9429 52.2503 83.048C52.1977 83.1597 52.0729 83.2024 51.9646 83.1695L49.9088 82.3879C49.8004 82.3453 49.7479 82.2139 49.7906 82.1285C49.8365 82.007 49.9712 81.9545 50.0796 81.9971L52.1189 82.7689Z" fill="url(#paint16_linear_1_23)"/>
<path fill-rule="evenodd" clip-rule="evenodd" d="M52.5721 82.0563C52.6805 82.1187 52.6903 82.2567 52.6279 82.3519C52.5393 82.4406 52.4112 82.4668 52.3061 82.4143L50.49 81.1992C50.4014 81.1368 50.3652 80.9989 50.4342 80.9036C50.4999 80.8183 50.6411 80.792 50.7396 80.8511L52.5721 82.0563Z" fill="#FDC90D"/>
<path fill-rule="evenodd" clip-rule="evenodd" d="M52.5721 82.0563C52.6805 82.1187 52.6903 82.2567 52.6279 82.3519C52.5393 82.4406 52.4112 82.4668 52.3061 82.4143L50.49 81.1992C50.4014 81.1368 50.3652 80.9989 50.4342 80.9036C50.4999 80.8183 50.6411 80.792 50.7396 80.8511L52.5721 82.0563Z" fill="url(#paint17_linear_1_23)"/>
<path fill-rule="evenodd" clip-rule="evenodd" d="M53.1731 81.4487C53.2618 81.5374 53.2454 81.6688 53.1534 81.7541C53.0647 81.8395 52.9301 81.8231 52.8414 81.7377L51.3472 80.1745C51.2585 80.0891 51.2848 79.9578 51.3669 79.879C51.4556 79.7936 51.5902 79.81 51.6625 79.879L53.183 81.4586" fill="#FDC90D"/>
<path fill-rule="evenodd" clip-rule="evenodd" d="M53.1731 81.4487C53.2618 81.5374 53.2454 81.6688 53.1534 81.7541C53.0647 81.8395 52.9301 81.8231 52.8414 81.7377L51.3472 80.1745C51.2585 80.0891 51.2848 79.9578 51.3669 79.879C51.4556 79.7936 51.5902 79.81 51.6625 79.879L53.183 81.4586" fill="url(#paint18_linear_1_23)"/>
<path fill-rule="evenodd" clip-rule="evenodd" d="M53.9514 80.9463C54.0237 81.0613 53.9777 81.1828 53.8792 81.2517C53.7445 81.3043 53.6099 81.2681 53.5672 81.1631L52.4572 79.3174C52.4046 79.2025 52.4572 79.081 52.5459 79.012C52.6542 78.9595 52.7889 79.012 52.8414 79.1007L53.9514 80.9463Z" fill="#FDC90D"/>
<path fill-rule="evenodd" clip-rule="evenodd" d="M53.9514 80.9463C54.0237 81.0613 53.9777 81.1828 53.8792 81.2517C53.7445 81.3043 53.6099 81.2681 53.5672 81.1631L52.4572 79.3174C52.4046 79.2025 52.4572 79.081 52.5459 79.012C52.6542 78.9595 52.7889 79.012 52.8414 79.1007L53.9514 80.9463Z" fill="url(#paint19_linear_1_23)"/>
<path fill-rule="evenodd" clip-rule="evenodd" d="M54.9629 80.5653C55.0056 80.677 54.9268 80.7919 54.8184 80.8248C54.7035 80.8773 54.5852 80.8083 54.5491 80.7033L53.8332 78.6737C53.8069 78.5522 53.8693 78.4406 53.9875 78.3946C54.1025 78.3618 54.2273 78.4307 54.2568 78.5358L54.9695 80.5653" fill="#FDC90D"/>
<path fill-rule="evenodd" clip-rule="evenodd" d="M54.9629 80.5653C55.0056 80.677 54.9268 80.7919 54.8184 80.8248C54.7035 80.8773 54.5852 80.8083 54.5491 80.7033L53.8332 78.6737C53.8069 78.5522 53.8693 78.4406 53.9875 78.3946C54.1025 78.3618 54.2273 78.4307 54.2568 78.5358L54.9695 80.5653" fill="url(#paint20_linear_1_23)"/>
<path fill-rule="evenodd" clip-rule="evenodd" d="M69.452 110.795C69.3633 110.9 69.2286 110.906 69.1301 110.821C69.0579 110.736 69.0677 110.604 69.1301 110.525L70.6506 108.965C70.7393 108.893 70.9002 108.893 70.956 108.982C71.0611 109.051 71.0611 109.199 70.956 109.277L69.452 110.795Z" fill="#FDC90D"/>
<path fill-rule="evenodd" clip-rule="evenodd" d="M69.452 110.795C69.3633 110.9 69.2286 110.906 69.1301 110.821C69.0579 110.736 69.0677 110.604 69.1301 110.525L70.6506 108.965C70.7393 108.893 70.9002 108.893 70.956 108.982C71.0611 109.051 71.0611 109.199 70.956 109.277L69.452 110.795Z" fill="url(#paint21_linear_1_23)"/>
<path fill-rule="evenodd" clip-rule="evenodd" d="M70.4897 111.947C70.401 112.036 70.2565 112.02 70.1679 111.924C70.1055 111.836 70.1416 111.708 70.2138 111.629L71.9117 110.292C72.02 110.204 72.181 110.24 72.2237 110.325C72.3123 110.414 72.2959 110.552 72.1974 110.621L70.4995 111.947" fill="#FDC90D"/>
<path fill-rule="evenodd" clip-rule="evenodd" d="M70.4897 111.947C70.401 112.036 70.2565 112.02 70.1679 111.924C70.1055 111.836 70.1416 111.708 70.2138 111.629L71.9117 110.292C72.02 110.204 72.181 110.24 72.2237 110.325C72.3123 110.414 72.2959 110.552 72.1974 110.621L70.4995 111.947" fill="url(#paint22_linear_1_23)"/>
<path fill-rule="evenodd" clip-rule="evenodd" d="M71.2155 113.025C71.1235 113.093 70.9889 113.067 70.91 112.965C70.8575 112.86 70.91 112.729 70.9987 112.67L72.8772 111.576C72.9954 111.514 73.1465 111.56 73.1727 111.662C73.2614 111.767 73.2187 111.888 73.1103 111.957L71.2155 113.025Z" fill="#FDC90D"/>
<path fill-rule="evenodd" clip-rule="evenodd" d="M71.2155 113.025C71.1235 113.093 70.9889 113.067 70.91 112.965C70.8575 112.86 70.91 112.729 70.9987 112.67L72.8772 111.576C72.9954 111.514 73.1465 111.56 73.1727 111.662C73.2614 111.767 73.2187 111.888 73.1103 111.957L71.2155 113.025Z" fill="url(#paint23_linear_1_23)"/>
<path fill-rule="evenodd" clip-rule="evenodd" d="M71.7146 114.092C71.6062 114.134 71.4749 114.092 71.4289 113.97C71.4026 113.865 71.465 113.737 71.5537 113.694L73.5931 112.896C73.7179 112.85 73.8624 112.913 73.8788 113.015C73.9412 113.13 73.8788 113.251 73.7638 113.294L71.7343 114.075" fill="#FDC90D"/>
<path fill-rule="evenodd" clip-rule="evenodd" d="M71.7146 114.092C71.6062 114.134 71.4749 114.092 71.4289 113.97C71.4026 113.865 71.465 113.737 71.5537 113.694L73.5931 112.896C73.7179 112.85 73.8624 112.913 73.8788 113.015C73.9412 113.13 73.8788 113.251 73.7638 113.294L71.7343 114.075" fill="url(#paint24_linear_1_23)"/>
<path fill-rule="evenodd" clip-rule="evenodd" d="M72.0102 115.1C71.8952 115.126 71.7869 115.064 71.7409 114.942C71.7146 114.831 71.8033 114.726 71.9018 114.683L74.0495 114.203C74.1743 114.187 74.2991 114.266 74.3188 114.378C74.355 114.499 74.2729 114.604 74.1382 114.64L72.0102 115.1Z" fill="#FDC90D"/>
<path fill-rule="evenodd" clip-rule="evenodd" d="M72.0102 115.1C71.8952 115.126 71.7869 115.064 71.7409 114.942C71.7146 114.831 71.8033 114.726 71.9018 114.683L74.0495 114.203C74.1743 114.187 74.2991 114.266 74.3188 114.378C74.355 114.499 74.2729 114.604 74.1382 114.64L72.0102 115.1Z" fill="url(#paint25_linear_1_23)"/>
<path fill-rule="evenodd" clip-rule="evenodd" d="M72.1186 116.072C71.9905 116.088 71.8953 116 71.8755 115.878C71.8755 115.757 71.9839 115.662 72.089 115.655L74.2893 115.524C74.4174 115.524 74.5225 115.609 74.5159 115.731C74.5422 115.845 74.4436 115.931 74.3189 115.941L72.1251 116.062" fill="#FDC90D"/>
<path fill-rule="evenodd" clip-rule="evenodd" d="M72.1186 116.072C71.9905 116.088 71.8953 116 71.8755 115.878C71.8755 115.757 71.9839 115.662 72.089 115.655L74.2893 115.524C74.4174 115.524 74.5225 115.609 74.5159 115.731C74.5422 115.845 74.4436 115.931 74.3189 115.941L72.1251 116.062" fill="url(#paint26_linear_1_23)"/>
<path fill-rule="evenodd" clip-rule="evenodd" d="M72.0463 116.992C71.9379 116.992 71.8493 116.886 71.8657 116.755C71.8657 116.65 71.9905 116.581 72.0988 116.581L74.2893 116.798C74.4239 116.798 74.5159 116.929 74.4863 117.034C74.4863 117.146 74.3714 117.235 74.2564 117.208L72.0627 116.982" fill="#FDC90D"/>
<path fill-rule="evenodd" clip-rule="evenodd" d="M72.0463 116.992C71.9379 116.992 71.8493 116.886 71.8657 116.755C71.8657 116.65 71.9905 116.581 72.0988 116.581L74.2893 116.798C74.4239 116.798 74.5159 116.929 74.4863 117.034C74.4863 117.146 74.3714 117.235 74.2564 117.208L72.0627 116.982" fill="url(#paint27_linear_1_23)"/>
<path fill-rule="evenodd" clip-rule="evenodd" d="M71.8657 117.865C71.7245 117.832 71.6686 117.721 71.6883 117.606C71.7245 117.484 71.8657 117.432 71.9576 117.451L74.0857 118.013C74.2006 118.049 74.2827 118.171 74.2269 118.276C74.2105 118.397 74.0857 118.446 73.9609 118.43L71.8591 117.865" fill="#FDC90D"/>
<path fill-rule="evenodd" clip-rule="evenodd" d="M71.8657 117.865C71.7245 117.832 71.6686 117.721 71.6883 117.606C71.7245 117.484 71.8657 117.432 71.9576 117.451L74.0857 118.013C74.2006 118.049 74.2827 118.171 74.2269 118.276C74.2105 118.397 74.0857 118.446 73.9609 118.43L71.8591 117.865" fill="url(#paint28_linear_1_23)"/>
<path fill-rule="evenodd" clip-rule="evenodd" d="M71.5077 118.663C71.4191 118.63 71.3567 118.492 71.4191 118.387C71.4552 118.282 71.5997 118.249 71.6883 118.282L73.7014 119.149C73.8164 119.212 73.8624 119.349 73.8065 119.445C73.7638 119.56 73.6292 119.592 73.511 119.55L71.5176 118.657" fill="#FDC90D"/>
<path fill-rule="evenodd" clip-rule="evenodd" d="M71.5077 118.663C71.4191 118.63 71.3567 118.492 71.4191 118.387C71.4552 118.282 71.5997 118.249 71.6883 118.282L73.7014 119.149C73.8164 119.212 73.8624 119.349 73.8065 119.445C73.7638 119.56 73.6292 119.592 73.511 119.55L71.5176 118.657" fill="url(#paint29_linear_1_23)"/>
<path fill-rule="evenodd" clip-rule="evenodd" d="M71.0611 119.402C70.956 119.343 70.9265 119.212 70.9888 119.106C71.0611 119.005 71.2056 118.995 71.3041 119.047L73.1366 120.216C73.245 120.305 73.2712 120.433 73.199 120.522C73.1267 120.627 72.9855 120.65 72.8969 120.581L71.0545 119.412" fill="#FDC90D"/>
<path fill-rule="evenodd" clip-rule="evenodd" d="M71.0611 119.402C70.956 119.343 70.9265 119.212 70.9888 119.106C71.0611 119.005 71.2056 118.995 71.3041 119.047L73.1366 120.216C73.245 120.305 73.2712 120.433 73.199 120.522C73.1267 120.627 72.9855 120.65 72.8969 120.581L71.0545 119.412" fill="url(#paint30_linear_1_23)"/>
<path fill-rule="evenodd" clip-rule="evenodd" d="M70.5061 120.052C70.401 119.967 70.401 119.845 70.4798 119.75C70.5685 119.661 70.7031 119.661 70.7918 119.75L72.4305 121.156C72.5192 121.241 72.5389 121.389 72.4469 121.458C72.3583 121.547 72.2236 121.547 72.1448 121.458L70.516 120.046" fill="#FDC90D"/>
<path fill-rule="evenodd" clip-rule="evenodd" d="M70.5061 120.052C70.401 119.967 70.401 119.845 70.4798 119.75C70.5685 119.661 70.7031 119.661 70.7918 119.75L72.4305 121.156C72.5192 121.241 72.5389 121.389 72.4469 121.458C72.3583 121.547 72.2236 121.547 72.1448 121.458L70.516 120.046" fill="url(#paint31_linear_1_23)"/>
<path fill-rule="evenodd" clip-rule="evenodd" d="M69.8559 120.601C69.7639 120.512 69.7902 120.391 69.8887 120.305C69.9807 120.236 70.1055 120.262 70.1843 120.348L71.58 121.996C71.6522 122.082 71.6358 122.23 71.5373 122.302C71.4453 122.387 71.3107 122.351 71.2417 122.266L69.8362 120.617" fill="#FDC90D"/>
<path fill-rule="evenodd" clip-rule="evenodd" d="M69.8559 120.601C69.7639 120.512 69.7902 120.391 69.8887 120.305C69.9807 120.236 70.1055 120.262 70.1843 120.348L71.58 121.996C71.6522 122.082 71.6358 122.23 71.5373 122.302C71.4453 122.387 71.3107 122.351 71.2417 122.266L69.8362 120.617" fill="url(#paint32_linear_1_23)"/>
<path fill-rule="evenodd" clip-rule="evenodd" d="M69.1301 121.067C69.0677 120.955 69.1038 120.834 69.2188 120.765C69.3271 120.696 69.4519 120.739 69.5143 120.85L70.6407 122.673C70.7031 122.778 70.6604 122.916 70.5521 122.959C70.4437 123.028 70.3189 122.985 70.2565 122.89L69.1301 121.067Z" fill="#FDC90D"/>
<path fill-rule="evenodd" clip-rule="evenodd" d="M69.1301 121.067C69.0677 120.955 69.1038 120.834 69.2188 120.765C69.3271 120.696 69.4519 120.739 69.5143 120.85L70.6407 122.673C70.7031 122.778 70.6604 122.916 70.5521 122.959C70.4437 123.028 70.3189 122.985 70.2565 122.89L69.1301 121.067Z" fill="url(#paint33_linear_1_23)"/>
<path fill-rule="evenodd" clip-rule="evenodd" d="M68.3617 121.399C68.3058 121.294 68.3617 121.162 68.4766 121.12C68.6112 121.067 68.7262 121.139 68.7722 121.241L69.5767 123.221C69.6293 123.333 69.5767 123.464 69.4618 123.497C69.3534 123.55 69.2286 123.497 69.1925 123.392L68.3617 121.399Z" fill="#FDC90D"/>
<path fill-rule="evenodd" clip-rule="evenodd" d="M68.3617 121.399C68.3058 121.294 68.3617 121.162 68.4766 121.12C68.6112 121.067 68.7262 121.139 68.7722 121.241L69.5767 123.221C69.6293 123.333 69.5767 123.464 69.4618 123.497C69.3534 123.55 69.2286 123.497 69.1925 123.392L68.3617 121.399Z" fill="url(#paint34_linear_1_23)"/>
<path fill-rule="evenodd" clip-rule="evenodd" d="M67.5472 121.606C67.5012 121.484 67.5833 121.372 67.7081 121.346C67.8231 121.33 67.9315 121.399 67.9577 121.52L68.4405 123.602C68.4667 123.724 68.3781 123.829 68.2631 123.862C68.1548 123.878 68.0464 123.803 68.0103 123.688L67.5472 121.606Z" fill="#FDC90D"/>
<path fill-rule="evenodd" clip-rule="evenodd" d="M67.5472 121.606C67.5012 121.484 67.5833 121.372 67.7081 121.346C67.8231 121.33 67.9315 121.399 67.9577 121.52L68.4405 123.602C68.4667 123.724 68.3781 123.829 68.2631 123.862C68.1548 123.878 68.0464 123.803 68.0103 123.688L67.5472 121.606Z" fill="url(#paint35_linear_1_23)"/>
<path fill-rule="evenodd" clip-rule="evenodd" d="M66.6967 121.675C66.6802 121.553 66.7689 121.458 66.9035 121.451C67.0283 121.451 67.117 121.537 67.1269 121.658L67.2352 123.783C67.2352 123.914 67.1433 124.019 67.0283 124.019C66.8937 124.019 66.7952 123.914 66.7952 123.819L66.6868 121.684" fill="#FDC90D"/>
<path fill-rule="evenodd" clip-rule="evenodd" d="M66.6967 121.675C66.6802 121.553 66.7689 121.458 66.9035 121.451C67.0283 121.451 67.117 121.537 67.1269 121.658L67.2352 123.783C67.2352 123.914 67.1433 124.019 67.0283 124.019C66.8937 124.019 66.7952 123.914 66.7952 123.819L66.6868 121.684" fill="url(#paint36_linear_1_23)"/>
<path fill-rule="evenodd" clip-rule="evenodd" d="M65.8395 121.606C65.8395 121.474 65.9545 121.415 66.0793 121.432C66.2139 121.432 66.2763 121.547 66.2599 121.668L65.9906 123.767C65.9709 123.898 65.856 123.983 65.7476 123.967C65.6228 123.967 65.544 123.836 65.5506 123.734L65.8395 121.616" fill="#FDC90D"/>
<path fill-rule="evenodd" clip-rule="evenodd" d="M65.8395 121.606C65.8395 121.474 65.9545 121.415 66.0793 121.432C66.2139 121.432 66.2763 121.547 66.2599 121.668L65.9906 123.767C65.9709 123.898 65.856 123.983 65.7476 123.967C65.6228 123.967 65.544 123.836 65.5506 123.734L65.8395 121.616" fill="url(#paint37_linear_1_23)"/>
<path fill-rule="evenodd" clip-rule="evenodd" d="M64.9791 121.379C64.9988 121.267 65.1236 121.208 65.2484 121.241C65.3568 121.277 65.4093 121.399 65.3732 121.501L64.7295 123.533C64.7033 123.671 64.5489 123.724 64.4602 123.688C64.3355 123.655 64.2829 123.533 64.3092 123.428L64.9791 121.379Z" fill="#FDC90D"/>
<path fill-rule="evenodd" clip-rule="evenodd" d="M64.9791 121.379C64.9988 121.267 65.1236 121.208 65.2484 121.241C65.3568 121.277 65.4093 121.399 65.3732 121.501L64.7295 123.533C64.7033 123.671 64.5489 123.724 64.4602 123.688C64.3355 123.655 64.2829 123.533 64.3092 123.428L64.9791 121.379Z" fill="url(#paint38_linear_1_23)"/>
<path fill-rule="evenodd" clip-rule="evenodd" d="M64.0859 120.998C64.1384 120.87 64.2829 120.85 64.388 120.896C64.5062 120.955 64.5325 121.067 64.48 121.189L63.4783 123.08C63.4159 123.195 63.2977 123.238 63.1729 123.169C63.0646 123.133 63.0383 122.995 63.0843 122.906L64.0859 120.998Z" fill="#FDC90D"/>
<path fill-rule="evenodd" clip-rule="evenodd" d="M64.0859 120.998C64.1384 120.87 64.2829 120.85 64.388 120.896C64.5062 120.955 64.5325 121.067 64.48 121.189L63.4783 123.08C63.4159 123.195 63.2977 123.238 63.1729 123.169C63.0646 123.133 63.0383 122.995 63.0843 122.906L64.0859 120.998Z" fill="url(#paint39_linear_1_23)"/>
<path fill-rule="evenodd" clip-rule="evenodd" d="M47.6264 119.905L48.4309 121.189L52.2437 120.824L54.7658 120.243L55.3733 118.942L54.0302 115.56L50.4342 114.023L47.2421 115.905L47.6198 119.898L47.6264 119.905ZM47.9679 122.942C47.6625 122.942 47.3768 122.785 47.2257 122.525L46.027 120.617C45.9548 120.512 45.9187 120.391 45.9088 120.269L45.4622 115.54C45.4359 115.222 45.5968 114.906 45.8826 114.742L49.9252 112.358C50.1682 112.21 50.4637 112.184 50.7298 112.305L55.0876 114.161C55.3011 114.249 55.462 114.42 55.5507 114.64L57.1434 118.663C57.2157 118.873 57.2058 119.1 57.1172 119.307L56.1878 121.336C56.0794 121.573 55.8561 121.753 55.5868 121.816L52.5195 122.492L48.0467 122.926H47.958L47.9679 122.942Z" fill="#FDC90D"/>
<path fill-rule="evenodd" clip-rule="evenodd" d="M47.6264 119.905L48.4309 121.189L52.2437 120.824L54.7658 120.243L55.3733 118.942L54.0302 115.56L50.4342 114.023L47.2421 115.905L47.6198 119.898L47.6264 119.905ZM47.9679 122.942C47.6625 122.942 47.3768 122.785 47.2257 122.525L46.027 120.617C45.9548 120.512 45.9187 120.391 45.9088 120.269L45.4622 115.54C45.4359 115.222 45.5968 114.906 45.8826 114.742L49.9252 112.358C50.1682 112.21 50.4637 112.184 50.7298 112.305L55.0876 114.161C55.3011 114.249 55.462 114.42 55.5507 114.64L57.1434 118.663C57.2157 118.873 57.2058 119.1 57.1172 119.307L56.1878 121.336C56.0794 121.573 55.8561 121.753 55.5868 121.816L52.5195 122.492L48.0467 122.926H47.958L47.9679 122.942Z" fill="url(#paint40_linear_1_23)"/>
<path fill-rule="evenodd" clip-rule="evenodd" d="M48.5755 114.118L46.5526 94.8902C46.5526 94.8902 51.7052 94.2564 53.1731 94.6143V114.397" fill="#FDC90D"/>
<path fill-rule="evenodd" clip-rule="evenodd" d="M48.5755 114.118L46.5526 94.8902C46.5526 94.8902 51.7052 94.2564 53.1731 94.6143V114.397" fill="url(#paint41_linear_1_23)"/>
<path fill-rule="evenodd" clip-rule="evenodd" d="M62.1713 125.024C60.2567 125.024 58.6278 124 58.4144 123.852L57.7871 123.438L57.3142 120.555L56.687 120.469L57.2059 117.113L60.3749 117.579L60.9825 121.356C61.5178 121.573 62.2173 121.744 62.6803 121.527C63.1828 121.303 63.5768 120.548 63.8264 119.412L61.9644 117.744L61.7673 115.402C61.7312 114.969 61.5539 111.376 63.8987 109.087C64.7722 108.217 66.3584 107.212 68.9692 107.35L69.5767 107.366L70.0431 107.767C70.0792 107.809 74.5487 111.566 79.4156 111.307C84.3351 111.064 88.2726 110.033 88.9228 109.832L107.136 101.849L108.594 104.929L90.0328 113.061C89.8555 113.12 85.3991 114.397 79.5864 114.689C74.3977 114.952 69.7738 111.878 68.2631 110.736C67.4585 110.778 66.8313 111.021 66.3847 111.465C65.3108 112.506 65.2024 114.525 65.2385 115.149L65.3272 116.167L67.5209 118.144L67.4126 119.011C67.071 121.918 65.9643 123.809 64.1483 124.633C63.4849 124.919 62.8248 125.041 62.1811 125.041" fill="#FDC90D"/>
<path fill-rule="evenodd" clip-rule="evenodd" d="M62.1713 125.024C60.2567 125.024 58.6278 124 58.4144 123.852L57.7871 123.438L57.3142 120.555L56.687 120.469L57.2059 117.113L60.3749 117.579L60.9825 121.356C61.5178 121.573 62.2173 121.744 62.6803 121.527C63.1828 121.303 63.5768 120.548 63.8264 119.412L61.9644 117.744L61.7673 115.402C61.7312 114.969 61.5539 111.376 63.8987 109.087C64.7722 108.217 66.3584 107.212 68.9692 107.35L69.5767 107.366L70.0431 107.767C70.0792 107.809 74.5487 111.566 79.4156 111.307C84.3351 111.064 88.2726 110.033 88.9228 109.832L107.136 101.849L108.594 104.929L90.0328 113.061C89.8555 113.12 85.3991 114.397 79.5864 114.689C74.3977 114.952 69.7738 111.878 68.2631 110.736C67.4585 110.778 66.8313 111.021 66.3847 111.465C65.3108 112.506 65.2024 114.525 65.2385 115.149L65.3272 116.167L67.5209 118.144L67.4126 119.011C67.071 121.918 65.9643 123.809 64.1483 124.633C63.4849 124.919 62.8248 125.041 62.1811 125.041" fill="url(#paint42_linear_1_23)"/>
<path fill-rule="evenodd" clip-rule="evenodd" d="M183.341 53.3212L175.65 59.5411C167.644 65.7643 163.486 58.8482 163.486 58.8482L157.815 57.1372L123.27 91.6357C123.27 91.6357 144.068 90.4206 150.82 82.5883C150.82 82.5883 155.408 78.3355 157.592 68.1583C157.592 68.1583 166.025 67.3078 167.788 67.3078C183.332 67.3078 185.515 60.9401 185.515 60.9401L183.332 53.3047" fill="#FDC90D"/>
<path fill-rule="evenodd" clip-rule="evenodd" d="M183.341 53.3212L175.65 59.5411C167.644 65.7643 163.486 58.8482 163.486 58.8482L157.815 57.1372L123.27 91.6357C123.27 91.6357 144.068 90.4206 150.82 82.5883C150.82 82.5883 155.408 78.3355 157.592 68.1583C157.592 68.1583 166.025 67.3078 167.788 67.3078C183.332 67.3078 185.515 60.9401 185.515 60.9401L183.332 53.3047" fill="url(#paint43_linear_1_23)"/>
<path fill-rule="evenodd" clip-rule="evenodd" d="M96.2593 126.906C91.8128 126.906 86.1676 126.325 82.6799 123.783C76.4469 119.238 73.1464 111.872 73.002 111.55L74.6111 110.883C74.6407 110.969 77.8689 118.171 83.7177 122.423C89.4614 126.604 102.565 124.817 102.706 124.798L102.949 126.482C102.68 126.519 99.8619 126.916 96.2396 126.916" fill="#FDC90D"/>
<path fill-rule="evenodd" clip-rule="evenodd" d="M96.2593 126.906C91.8128 126.906 86.1676 126.325 82.6799 123.783C76.4469 119.238 73.1464 111.872 73.002 111.55L74.6111 110.883C74.6407 110.969 77.8689 118.171 83.7177 122.423C89.4614 126.604 102.565 124.817 102.706 124.798L102.949 126.482C102.68 126.519 99.8619 126.916 96.2396 126.916" fill="url(#paint44_linear_1_23)"/>
<path fill-rule="evenodd" clip-rule="evenodd" d="M98.6632 126.811C98.6632 126.811 101.75 121.189 106.535 126.065C111.339 130.942 98.6632 126.811 98.6632 126.811Z" fill="#FDC90D"/>
<path fill-rule="evenodd" clip-rule="evenodd" d="M98.6632 126.811C98.6632 126.811 101.75 121.189 106.535 126.065C111.339 130.942 98.6632 126.811 98.6632 126.811Z" fill="url(#paint45_linear_1_23)"/>
<path fill-rule="evenodd" clip-rule="evenodd" d="M101.599 79.7574C101.599 79.7574 106.302 81.8067 107.412 85.5537L101.599 79.7574Z" fill="#FDC90D"/>
<path fill-rule="evenodd" clip-rule="evenodd" d="M101.599 79.7574C101.599 79.7574 106.302 81.8067 107.412 85.5537L101.599 79.7574Z" fill="url(#paint46_linear_1_23)"/>
<path fill-rule="evenodd" clip-rule="evenodd" d="M190.954 27.9325L190.415 25.476L188.271 26.8816C180.668 31.8273 171.365 37.2689 169.595 37.4069C166.508 37.4069 158.252 38.0144 157.894 38.0505L157.654 38.0834C152.035 39.3346 148.932 41.3542 148.173 44.2803C147.395 47.272 149.496 49.9025 150.623 51.0486C150.301 57.8137 145.615 63.5837 144.137 65.2323C137.043 65.7807 133.181 70.7593 131.661 73.2781C118.039 69.0253 103.842 76.5063 101.116 78.0498H88.0756L87.849 78.0662C87.225 78.1352 72.8246 79.9742 65.4192 83.9052C60.2666 86.6375 58.9168 91.662 58.6213 95.1168C56.1418 93.5733 52.3849 91.8196 48.5394 92.2794C45.4097 92.6439 42.7693 94.3352 40.7136 97.3105C39.6036 98.9591 38.0042 104.079 39.1931 109.094C40.0699 112.765 42.3063 115.714 45.6593 117.622L47.4228 114.673C44.881 113.241 43.2718 111.1 42.6183 108.322C41.6626 104.348 42.9598 100.184 43.6396 99.1955C45.1141 97.0511 46.8415 95.8984 48.9499 95.6357C53.8989 95.0544 59.1927 99.7407 59.2551 99.7834L62.8314 102.995L62.1713 98.3089C62.1713 98.2235 61.0613 90.066 67.0907 86.8805C73.6029 83.429 86.8572 81.6064 88.2004 81.4323H102.098L102.529 81.1729C102.68 81.0678 118.272 71.8003 131.884 76.9201L133.451 77.5112L134.121 76.0104C134.255 75.7149 137.395 68.8086 145.004 68.5491L145.703 68.5294L146.186 68.0368C146.508 67.715 154.101 60.0107 154.101 50.3196V49.538L153.503 49.0355C152.984 48.5988 151.132 46.6316 151.536 45.0783C151.759 44.2113 152.938 42.5956 158.288 41.3904C159.362 41.3017 166.839 40.7828 169.585 40.7828C171.838 40.7828 178.412 37.0358 183.939 33.6335C182.169 35.5087 179.512 37.9093 175.532 40.9043C175.059 41.2524 174.754 41.4757 174.639 41.5447L173.788 42.1884L174.058 44.1391L174.977 44.5233C175.667 44.7827 176.087 44.6974 176.767 44.2606C177.016 44.0898 177.305 43.8632 177.663 43.5939C190.99 33.6171 191.194 29.0786 190.954 27.9226" fill="#FDC90D"/>
<path fill-rule="evenodd" clip-rule="evenodd" d="M190.954 27.9325L190.415 25.476L188.271 26.8816C180.668 31.8273 171.365 37.2689 169.595 37.4069C166.508 37.4069 158.252 38.0144 157.894 38.0505L157.654 38.0834C152.035 39.3346 148.932 41.3542 148.173 44.2803C147.395 47.272 149.496 49.9025 150.623 51.0486C150.301 57.8137 145.615 63.5837 144.137 65.2323C137.043 65.7807 133.181 70.7593 131.661 73.2781C118.039 69.0253 103.842 76.5063 101.116 78.0498H88.0756L87.849 78.0662C87.225 78.1352 72.8246 79.9742 65.4192 83.9052C60.2666 86.6375 58.9168 91.662 58.6213 95.1168C56.1418 93.5733 52.3849 91.8196 48.5394 92.2794C45.4097 92.6439 42.7693 94.3352 40.7136 97.3105C39.6036 98.9591 38.0042 104.079 39.1931 109.094C40.0699 112.765 42.3063 115.714 45.6593 117.622L47.4228 114.673C44.881 113.241 43.2718 111.1 42.6183 108.322C41.6626 104.348 42.9598 100.184 43.6396 99.1955C45.1141 97.0511 46.8415 95.8984 48.9499 95.6357C53.8989 95.0544 59.1927 99.7407 59.2551 99.7834L62.8314 102.995L62.1713 98.3089C62.1713 98.2235 61.0613 90.066 67.0907 86.8805C73.6029 83.429 86.8572 81.6064 88.2004 81.4323H102.098L102.529 81.1729C102.68 81.0678 118.272 71.8003 131.884 76.9201L133.451 77.5112L134.121 76.0104C134.255 75.7149 137.395 68.8086 145.004 68.5491L145.703 68.5294L146.186 68.0368C146.508 67.715 154.101 60.0107 154.101 50.3196V49.538L153.503 49.0355C152.984 48.5988 151.132 46.6316 151.536 45.0783C151.759 44.2113 152.938 42.5956 158.288 41.3904C159.362 41.3017 166.839 40.7828 169.585 40.7828C171.838 40.7828 178.412 37.0358 183.939 33.6335C182.169 35.5087 179.512 37.9093 175.532 40.9043C175.059 41.2524 174.754 41.4757 174.639 41.5447L173.788 42.1884L174.058 44.1391L174.977 44.5233C175.667 44.7827 176.087 44.6974 176.767 44.2606C177.016 44.0898 177.305 43.8632 177.663 43.5939C190.99 33.6171 191.194 29.0786 190.954 27.9226" fill="url(#paint47_linear_1_23)"/>
<path fill-rule="evenodd" clip-rule="evenodd" d="M115.559 97.6914L113.592 94.8902L119.871 90.7589C131.983 86.1613 139.05 80.677 139.924 79.9742L150.997 67.4129L160.337 45.6497L162.215 44.9831C163.933 44.8254 166.087 43.699 167.493 42.9601C168.475 42.4412 169.086 42.126 169.667 42.0307L175.713 41.0357L176.31 44.3755L170.255 45.3739C170.186 45.4067 169.631 45.7187 169.155 45.9453C167.581 46.7696 165.256 47.9945 162.984 48.313L153.835 69.3997L142.295 82.4471C141.999 82.7098 134.718 88.7228 121.329 93.8492L115.559 97.6685" fill="#FDC90D"/>
<path fill-rule="evenodd" clip-rule="evenodd" d="M115.559 97.6914L113.592 94.8902L119.871 90.7589C131.983 86.1613 139.05 80.677 139.924 79.9742L150.997 67.4129L160.337 45.6497L162.215 44.9831C163.933 44.8254 166.087 43.699 167.493 42.9601C168.475 42.4412 169.086 42.126 169.667 42.0307L175.713 41.0357L176.31 44.3755L170.255 45.3739C170.186 45.4067 169.631 45.7187 169.155 45.9453C167.581 46.7696 165.256 47.9945 162.984 48.313L153.835 69.3997L142.295 82.4471C141.999 82.7098 134.718 88.7228 121.329 93.8492L115.559 97.6685" fill="url(#paint48_linear_1_23)"/>
<path fill-rule="evenodd" clip-rule="evenodd" d="M136.804 114.831C136.804 126.154 128.663 121.474 128.663 121.474L124.282 116.965C124.282 116.965 109.057 105.103 105.471 104.772C97.8225 104.095 87.2874 96.9986 80.6603 99.7046C80.0856 99.9476 79.5404 100.158 79.0051 100.338C66.0004 104.92 64.6474 96.0363 64.6474 96.0363C64.6474 96.0363 63.4849 86.9955 81.2415 86.7097C98.985 86.4142 116.141 96.3056 116.141 96.3056L126.912 112.703C126.912 112.703 130.991 113.136 132.154 116.243C132.154 116.243 136.804 112.279 136.804 114.831Z" fill="#FDC90D"/>
<path fill-rule="evenodd" clip-rule="evenodd" d="M136.804 114.831C136.804 126.154 128.663 121.474 128.663 121.474L124.282 116.965C124.282 116.965 109.057 105.103 105.471 104.772C97.8225 104.095 87.2874 96.9986 80.6603 99.7046C80.0856 99.9476 79.5404 100.158 79.0051 100.338C66.0004 104.92 64.6474 96.0363 64.6474 96.0363C64.6474 96.0363 63.4849 86.9955 81.2415 86.7097C98.985 86.4142 116.141 96.3056 116.141 96.3056L126.912 112.703C126.912 112.703 130.991 113.136 132.154 116.243C132.154 116.243 136.804 112.279 136.804 114.831Z" fill="url(#paint49_linear_1_23)"/>
<path fill-rule="evenodd" clip-rule="evenodd" d="M189.709 29.1213C189.709 29.1213 173.118 39.9421 170.077 39.9421C167.01 39.9421 158.511 40.5759 158.511 40.5759C144.111 43.7581 152.833 51.1767 152.833 51.1767C152.833 60.2865 145.408 67.715 145.408 67.715C136.554 67.9941 132.975 76.2009 132.975 76.2009C118.361 70.6837 102.072 80.5817 102.072 80.5817H88.5386C88.5386 80.5817 73.9149 82.4044 66.7163 86.2237C59.5244 90.0397 60.9004 99.3761 60.9004 99.3761C60.9004 99.3761 49.4983 89.1136 42.6544 99.1003C41.2226 101.163 38.4673 111.507 46.4277 116.601L46.3391 115.455L50.3653 113.067L54.7297 114.926L56.3126 118.952L56.1615 119.297L57.4292 119.609L59.3076 119.904L59.173 124.141C59.173 124.141 65.2845 126.83 66.1515 119.609L64.122 117.79L63.9676 116.088C63.9676 116.088 63.521 109.58 69.3534 109.859C69.3534 109.859 74.2991 114.108 79.9706 113.823C85.6421 113.52 90.0066 112.263 90.0066 112.263L108.341 104.19L116.331 96.4172L120.981 93.1628C134.36 88.0693 141.641 81.9873 141.641 81.9873L152.994 69.1468L162.16 47.7843L162.875 47.5085C165.946 47.2195 169.585 44.6776 170.452 44.5299L176.498 43.5315L177.079 43.098C190.586 32.9833 189.735 29.1311 189.735 29.1311" fill="#FDC90D"/>
<path fill-rule="evenodd" clip-rule="evenodd" d="M189.709 29.1213C189.709 29.1213 173.118 39.9421 170.077 39.9421C167.01 39.9421 158.511 40.5759 158.511 40.5759C144.111 43.7581 152.833 51.1767 152.833 51.1767C152.833 60.2865 145.408 67.715 145.408 67.715C136.554 67.9941 132.975 76.2009 132.975 76.2009C118.361 70.6837 102.072 80.5817 102.072 80.5817H88.5386C88.5386 80.5817 73.9149 82.4044 66.7163 86.2237C59.5244 90.0397 60.9004 99.3761 60.9004 99.3761C60.9004 99.3761 49.4983 89.1136 42.6544 99.1003C41.2226 101.163 38.4673 111.507 46.4277 116.601L46.3391 115.455L50.3653 113.067L54.7297 114.926L56.3126 118.952L56.1615 119.297L57.4292 119.609L59.3076 119.904L59.173 124.141C59.173 124.141 65.2845 126.83 66.1515 119.609L64.122 117.79L63.9676 116.088C63.9676 116.088 63.521 109.58 69.3534 109.859C69.3534 109.859 74.2991 114.108 79.9706 113.823C85.6421 113.52 90.0066 112.263 90.0066 112.263L108.341 104.19L116.331 96.4172L120.981 93.1628C134.36 88.0693 141.641 81.9873 141.641 81.9873L152.994 69.1468L162.16 47.7843L162.875 47.5085C165.946 47.2195 169.585 44.6776 170.452 44.5299L176.498 43.5315L177.079 43.098C190.586 32.9833 189.735 29.1311 189.735 29.1311" fill="url(#paint50_linear_1_23)"/>
<path fill-rule="evenodd" clip-rule="evenodd" d="M148.18 110.857C141.349 139.957 114.515 161.736 82.5453 161.736C45.4261 161.736 15.2296 132.384 15.2296 96.2957C15.2296 60.2176 45.4261 30.8552 82.5453 30.8552C97.215 30.8552 110.811 35.4561 121.884 43.2294C124.298 39.282 127.099 35.4726 130.436 32.1853C116.975 22.6386 100.427 17 82.5453 17C37.5839 17 1 52.5757 1 96.2695C1 139.983 37.5839 175.549 82.5453 175.549C122.476 175.549 155.802 147.497 162.751 110.604C157.956 111.195 152.876 111.038 148.189 110.837" fill="#FDC90D"/>
<path fill-rule="evenodd" clip-rule="evenodd" d="M148.18 110.857C141.349 139.957 114.515 161.736 82.5453 161.736C45.4261 161.736 15.2296 132.384 15.2296 96.2957C15.2296 60.2176 45.4261 30.8552 82.5453 30.8552C97.215 30.8552 110.811 35.4561 121.884 43.2294C124.298 39.282 127.099 35.4726 130.436 32.1853C116.975 22.6386 100.427 17 82.5453 17C37.5839 17 1 52.5757 1 96.2695C1 139.983 37.5839 175.549 82.5453 175.549C122.476 175.549 155.802 147.497 162.751 110.604C157.956 111.195 152.876 111.038 148.189 110.837" fill="url(#paint51_linear_1_23)"/>
<defs>
<linearGradient id="paint0_linear_1_23" x1="95.9999" y1="16.9998" x2="95.9999" y2="175.549" gradientUnits="userSpaceOnUse">
<stop offset="0.510417" stop-color="#DA0000" stop-opacity="0"/>
<stop offset="1" stop-color="#DA0000" stop-opacity="0.2"/>
</linearGradient>
<linearGradient id="paint1_linear_1_23" x1="95.9999" y1="16.9998" x2="95.9999" y2="175.549" gradientUnits="userSpaceOnUse">
<stop offset="0.510417" stop-color="#DA0000" stop-opacity="0"/>
<stop offset="1" stop-color="#DA0000" stop-opacity="0.2"/>
</linearGradient>
<linearGradient id="paint2_linear_1_23" x1="95.9999" y1="16.9998" x2="95.9999" y2="175.549" gradientUnits="userSpaceOnUse">
<stop offset="0.510417" stop-color="#DA0000" stop-opacity="0"/>
<stop offset="1" stop-color="#DA0000" stop-opacity="0.2"/>
</linearGradient>
<linearGradient id="paint3_linear_1_23" x1="95.9999" y1="16.9998" x2="95.9999" y2="175.549" gradientUnits="userSpaceOnUse">
<stop offset="0.510417" stop-color="#DA0000" stop-opacity="0"/>
<stop offset="1" stop-color="#DA0000" stop-opacity="0.2"/>
</linearGradient>
<linearGradient id="paint4_linear_1_23" x1="95.9999" y1="16.9997" x2="95.9999" y2="175.549" gradientUnits="userSpaceOnUse">
<stop offset="0.510417" stop-color="#DA0000" stop-opacity="0"/>
<stop offset="1" stop-color="#DA0000" stop-opacity="0.2"/>
</linearGradient>
<linearGradient id="paint5_linear_1_23" x1="95.9999" y1="16.9998" x2="95.9999" y2="175.549" gradientUnits="userSpaceOnUse">
<stop offset="0.510417" stop-color="#DA0000" stop-opacity="0"/>
<stop offset="1" stop-color="#DA0000" stop-opacity="0.2"/>
</linearGradient>
<linearGradient id="paint6_linear_1_23" x1="95.9999" y1="16.9998" x2="95.9999" y2="175.549" gradientUnits="userSpaceOnUse">
<stop offset="0.510417" stop-color="#DA0000" stop-opacity="0"/>
<stop offset="1" stop-color="#DA0000" stop-opacity="0.2"/>
</linearGradient>
<linearGradient id="paint7_linear_1_23" x1="95.9999" y1="16.9997" x2="95.9999" y2="175.549" gradientUnits="userSpaceOnUse">
<stop offset="0.510417" stop-color="#DA0000" stop-opacity="0"/>
<stop offset="1" stop-color="#DA0000" stop-opacity="0.2"/>
</linearGradient>
<linearGradient id="paint8_linear_1_23" x1="95.9999" y1="16.9998" x2="95.9999" y2="175.549" gradientUnits="userSpaceOnUse">
<stop offset="0.510417" stop-color="#DA0000" stop-opacity="0"/>
<stop offset="1" stop-color="#DA0000" stop-opacity="0.2"/>
</linearGradient>
<linearGradient id="paint9_linear_1_23" x1="95.9999" y1="16.9998" x2="95.9999" y2="175.549" gradientUnits="userSpaceOnUse">
<stop offset="0.510417" stop-color="#DA0000" stop-opacity="0"/>
<stop offset="1" stop-color="#DA0000" stop-opacity="0.2"/>
</linearGradient>
<linearGradient id="paint10_linear_1_23" x1="95.9999" y1="16.9998" x2="95.9999" y2="175.549" gradientUnits="userSpaceOnUse">
<stop offset="0.510417" stop-color="#DA0000" stop-opacity="0"/>
<stop offset="1" stop-color="#DA0000" stop-opacity="0.2"/>
</linearGradient>
<linearGradient id="paint11_linear_1_23" x1="95.9999" y1="16.9998" x2="95.9999" y2="175.549" gradientUnits="userSpaceOnUse">
<stop offset="0.510417" stop-color="#DA0000" stop-opacity="0"/>
<stop offset="1" stop-color="#DA0000" stop-opacity="0.2"/>
</linearGradient>
<linearGradient id="paint12_linear_1_23" x1="95.9999" y1="16.9998" x2="95.9999" y2="175.549" gradientUnits="userSpaceOnUse">
<stop offset="0.510417" stop-color="#DA0000" stop-opacity="0"/>
<stop offset="1" stop-color="#DA0000" stop-opacity="0.2"/>
</linearGradient>
<linearGradient id="paint13_linear_1_23" x1="95.9999" y1="16.9999" x2="95.9999" y2="175.549" gradientUnits="userSpaceOnUse">
<stop offset="0.510417" stop-color="#DA0000" stop-opacity="0"/>
<stop offset="1" stop-color="#DA0000" stop-opacity="0.2"/>
</linearGradient>
<linearGradient id="paint14_linear_1_23" x1="95.9999" y1="16.9998" x2="95.9999" y2="175.549" gradientUnits="userSpaceOnUse">
<stop offset="0.510417" stop-color="#DA0000" stop-opacity="0"/>
<stop offset="1" stop-color="#DA0000" stop-opacity="0.2"/>
</linearGradient>
<linearGradient id="paint15_linear_1_23" x1="95.9999" y1="16.9998" x2="95.9999" y2="175.549" gradientUnits="userSpaceOnUse">
<stop offset="0.510417" stop-color="#DA0000" stop-opacity="0"/>
<stop offset="1" stop-color="#DA0000" stop-opacity="0.2"/>
</linearGradient>
<linearGradient id="paint16_linear_1_23" x1="95.9999" y1="16.9998" x2="95.9999" y2="175.549" gradientUnits="userSpaceOnUse">
<stop offset="0.510417" stop-color="#DA0000" stop-opacity="0"/>
<stop offset="1" stop-color="#DA0000" stop-opacity="0.2"/>
</linearGradient>
<linearGradient id="paint17_linear_1_23" x1="95.9999" y1="16.9998" x2="95.9999" y2="175.549" gradientUnits="userSpaceOnUse">
<stop offset="0.510417" stop-color="#DA0000" stop-opacity="0"/>
<stop offset="1" stop-color="#DA0000" stop-opacity="0.2"/>
</linearGradient>
<linearGradient id="paint18_linear_1_23" x1="95.9999" y1="16.9998" x2="95.9999" y2="175.549" gradientUnits="userSpaceOnUse">
<stop offset="0.510417" stop-color="#DA0000" stop-opacity="0"/>
<stop offset="1" stop-color="#DA0000" stop-opacity="0.2"/>
</linearGradient>
<linearGradient id="paint19_linear_1_23" x1="95.9999" y1="16.9998" x2="95.9999" y2="175.549" gradientUnits="userSpaceOnUse">
<stop offset="0.510417" stop-color="#DA0000" stop-opacity="0"/>
<stop offset="1" stop-color="#DA0000" stop-opacity="0.2"/>
</linearGradient>
<linearGradient id="paint20_linear_1_23" x1="95.9999" y1="16.9998" x2="95.9999" y2="175.549" gradientUnits="userSpaceOnUse">
<stop offset="0.510417" stop-color="#DA0000" stop-opacity="0"/>
<stop offset="1" stop-color="#DA0000" stop-opacity="0.2"/>
</linearGradient>
<linearGradient id="paint21_linear_1_23" x1="95.9999" y1="16.9998" x2="95.9999" y2="175.549" gradientUnits="userSpaceOnUse">
<stop offset="0.510417" stop-color="#DA0000" stop-opacity="0"/>
<stop offset="1" stop-color="#DA0000" stop-opacity="0.2"/>
</linearGradient>
<linearGradient id="paint22_linear_1_23" x1="95.9999" y1="16.9998" x2="95.9999" y2="175.549" gradientUnits="userSpaceOnUse">
<stop offset="0.510417" stop-color="#DA0000" stop-opacity="0"/>
<stop offset="1" stop-color="#DA0000" stop-opacity="0.2"/>
</linearGradient>
<linearGradient id="paint23_linear_1_23" x1="95.9999" y1="16.9998" x2="95.9999" y2="175.549" gradientUnits="userSpaceOnUse">
<stop offset="0.510417" stop-color="#DA0000" stop-opacity="0"/>
<stop offset="1" stop-color="#DA0000" stop-opacity="0.2"/>
</linearGradient>
<linearGradient id="paint24_linear_1_23" x1="95.9999" y1="16.9998" x2="95.9999" y2="175.549" gradientUnits="userSpaceOnUse">
<stop offset="0.510417" stop-color="#DA0000" stop-opacity="0"/>
<stop offset="1" stop-color="#DA0000" stop-opacity="0.2"/>
</linearGradient>
<linearGradient id="paint25_linear_1_23" x1="95.9999" y1="16.9998" x2="95.9999" y2="175.549" gradientUnits="userSpaceOnUse">
<stop offset="0.510417" stop-color="#DA0000" stop-opacity="0"/>
<stop offset="1" stop-color="#DA0000" stop-opacity="0.2"/>
</linearGradient>
<linearGradient id="paint26_linear_1_23" x1="95.9999" y1="16.9997" x2="95.9999" y2="175.549" gradientUnits="userSpaceOnUse">
<stop offset="0.510417" stop-color="#DA0000" stop-opacity="0"/>
<stop offset="1" stop-color="#DA0000" stop-opacity="0.2"/>
</linearGradient>
<linearGradient id="paint27_linear_1_23" x1="95.9999" y1="16.9998" x2="95.9999" y2="175.549" gradientUnits="userSpaceOnUse">
<stop offset="0.510417" stop-color="#DA0000" stop-opacity="0"/>
<stop offset="1" stop-color="#DA0000" stop-opacity="0.2"/>
</linearGradient>
<linearGradient id="paint28_linear_1_23" x1="95.9999" y1="16.9998" x2="95.9999" y2="175.549" gradientUnits="userSpaceOnUse">
<stop offset="0.510417" stop-color="#DA0000" stop-opacity="0"/>
<stop offset="1" stop-color="#DA0000" stop-opacity="0.2"/>
</linearGradient>
<linearGradient id="paint29_linear_1_23" x1="95.9999" y1="16.9997" x2="95.9999" y2="175.549" gradientUnits="userSpaceOnUse">
<stop offset="0.510417" stop-color="#DA0000" stop-opacity="0"/>
<stop offset="1" stop-color="#DA0000" stop-opacity="0.2"/>
</linearGradient>
<linearGradient id="paint30_linear_1_23" x1="95.9999" y1="16.9998" x2="95.9999" y2="175.549" gradientUnits="userSpaceOnUse">
<stop offset="0.510417" stop-color="#DA0000" stop-opacity="0"/>
<stop offset="1" stop-color="#DA0000" stop-opacity="0.2"/>
</linearGradient>
<linearGradient id="paint31_linear_1_23" x1="95.9999" y1="16.9998" x2="95.9999" y2="175.549" gradientUnits="userSpaceOnUse">
<stop offset="0.510417" stop-color="#DA0000" stop-opacity="0"/>
<stop offset="1" stop-color="#DA0000" stop-opacity="0.2"/>
</linearGradient>
<linearGradient id="paint32_linear_1_23" x1="95.9999" y1="16.9998" x2="95.9999" y2="175.549" gradientUnits="userSpaceOnUse">
<stop offset="0.510417" stop-color="#DA0000" stop-opacity="0"/>
<stop offset="1" stop-color="#DA0000" stop-opacity="0.2"/>
</linearGradient>
<linearGradient id="paint33_linear_1_23" x1="95.9998" y1="16.9998" x2="95.9998" y2="175.549" gradientUnits="userSpaceOnUse">
<stop offset="0.510417" stop-color="#DA0000" stop-opacity="0"/>
<stop offset="1" stop-color="#DA0000" stop-opacity="0.2"/>
</linearGradient>
<linearGradient id="paint34_linear_1_23" x1="95.9999" y1="16.9997" x2="95.9999" y2="175.549" gradientUnits="userSpaceOnUse">
<stop offset="0.510417" stop-color="#DA0000" stop-opacity="0"/>
<stop offset="1" stop-color="#DA0000" stop-opacity="0.2"/>
</linearGradient>
<linearGradient id="paint35_linear_1_23" x1="95.9999" y1="16.9998" x2="95.9999" y2="175.549" gradientUnits="userSpaceOnUse">
<stop offset="0.510417" stop-color="#DA0000" stop-opacity="0"/>
<stop offset="1" stop-color="#DA0000" stop-opacity="0.2"/>
</linearGradient>
<linearGradient id="paint36_linear_1_23" x1="95.9999" y1="16.9998" x2="95.9999" y2="175.549" gradientUnits="userSpaceOnUse">
<stop offset="0.510417" stop-color="#DA0000" stop-opacity="0"/>
<stop offset="1" stop-color="#DA0000" stop-opacity="0.2"/>
</linearGradient>
<linearGradient id="paint37_linear_1_23" x1="95.9999" y1="16.9999" x2="95.9999" y2="175.549" gradientUnits="userSpaceOnUse">
<stop offset="0.510417" stop-color="#DA0000" stop-opacity="0"/>
<stop offset="1" stop-color="#DA0000" stop-opacity="0.2"/>
</linearGradient>
<linearGradient id="paint38_linear_1_23" x1="95.9999" y1="16.9998" x2="95.9999" y2="175.549" gradientUnits="userSpaceOnUse">
<stop offset="0.510417" stop-color="#DA0000" stop-opacity="0"/>
<stop offset="1" stop-color="#DA0000" stop-opacity="0.2"/>
</linearGradient>
<linearGradient id="paint39_linear_1_23" x1="95.9999" y1="16.9998" x2="95.9999" y2="175.549" gradientUnits="userSpaceOnUse">
<stop offset="0.510417" stop-color="#DA0000" stop-opacity="0"/>
<stop offset="1" stop-color="#DA0000" stop-opacity="0.2"/>
</linearGradient>
<linearGradient id="paint40_linear_1_23" x1="95.9998" y1="16.9998" x2="95.9998" y2="175.549" gradientUnits="userSpaceOnUse">
<stop offset="0.510417" stop-color="#DA0000" stop-opacity="0"/>
<stop offset="1" stop-color="#DA0000" stop-opacity="0.2"/>
</linearGradient>
<linearGradient id="paint41_linear_1_23" x1="95.9999" y1="16.9998" x2="95.9999" y2="175.549" gradientUnits="userSpaceOnUse">
<stop offset="0.510417" stop-color="#DA0000" stop-opacity="0"/>
<stop offset="1" stop-color="#DA0000" stop-opacity="0.2"/>
</linearGradient>
<linearGradient id="paint42_linear_1_23" x1="95.9999" y1="16.9998" x2="95.9999" y2="175.549" gradientUnits="userSpaceOnUse">
<stop offset="0.510417" stop-color="#DA0000" stop-opacity="0"/>
<stop offset="1" stop-color="#DA0000" stop-opacity="0.2"/>
</linearGradient>
<linearGradient id="paint43_linear_1_23" x1="95.9999" y1="16.9998" x2="95.9999" y2="175.549" gradientUnits="userSpaceOnUse">
<stop offset="0.510417" stop-color="#DA0000" stop-opacity="0"/>
<stop offset="1" stop-color="#DA0000" stop-opacity="0.2"/>
</linearGradient>
<linearGradient id="paint44_linear_1_23" x1="95.9999" y1="16.9998" x2="95.9999" y2="175.549" gradientUnits="userSpaceOnUse">
<stop offset="0.510417" stop-color="#DA0000" stop-opacity="0"/>
<stop offset="1" stop-color="#DA0000" stop-opacity="0.2"/>
</linearGradient>
<linearGradient id="paint45_linear_1_23" x1="95.9999" y1="16.9998" x2="95.9999" y2="175.549" gradientUnits="userSpaceOnUse">
<stop offset="0.510417" stop-color="#DA0000" stop-opacity="0"/>
<stop offset="1" stop-color="#DA0000" stop-opacity="0.2"/>
</linearGradient>
<linearGradient id="paint46_linear_1_23" x1="95.9999" y1="16.9998" x2="95.9999" y2="175.549" gradientUnits="userSpaceOnUse">
<stop offset="0.510417" stop-color="#DA0000" stop-opacity="0"/>
<stop offset="1" stop-color="#DA0000" stop-opacity="0.2"/>
</linearGradient>
<linearGradient id="paint47_linear_1_23" x1="95.9999" y1="16.9998" x2="95.9999" y2="175.549" gradientUnits="userSpaceOnUse">
<stop offset="0.510417" stop-color="#DA0000" stop-opacity="0"/>
<stop offset="1" stop-color="#DA0000" stop-opacity="0.2"/>
</linearGradient>
<linearGradient id="paint48_linear_1_23" x1="95.9999" y1="16.9998" x2="95.9999" y2="175.549" gradientUnits="userSpaceOnUse">
<stop offset="0.510417" stop-color="#DA0000" stop-opacity="0"/>
<stop offset="1" stop-color="#DA0000" stop-opacity="0.2"/>
</linearGradient>
<linearGradient id="paint49_linear_1_23" x1="95.9999" y1="16.9998" x2="95.9999" y2="175.549" gradientUnits="userSpaceOnUse">
<stop offset="0.510417" stop-color="#DA0000" stop-opacity="0"/>
<stop offset="1" stop-color="#DA0000" stop-opacity="0.2"/>
</linearGradient>
<linearGradient id="paint50_linear_1_23" x1="95.9999" y1="16.9998" x2="95.9999" y2="175.549" gradientUnits="userSpaceOnUse">
<stop offset="0.510417" stop-color="#DA0000" stop-opacity="0"/>
<stop offset="1" stop-color="#DA0000" stop-opacity="0.2"/>
</linearGradient>
<linearGradient id="paint51_linear_1_23" x1="95.9999" y1="16.9998" x2="95.9999" y2="175.549" gradientUnits="userSpaceOnUse">
<stop offset="0.510417" stop-color="#DA0000" stop-opacity="0"/>
<stop offset="1" stop-color="#DA0000" stop-opacity="0.2"/>
</linearGradient>
</defs>
</svg>
