<?xml version="1.0" encoding="UTF-8"?>
<svg xmlns="http://www.w3.org/2000/svg" xmlns:xlink="http://www.w3.org/1999/xlink" width="384px" height="384px" viewBox="0 0 384 326" version="1.1">
<defs>
<linearGradient id="linear0" gradientUnits="userSpaceOnUse" x1="36.5" y1="0.274902" x2="36.5" y2="61.1739" gradientTransform="matrix(5.260273,0,0,5.258064,0,0)">
<stop offset="0.510417" style="stop-color:rgb(85.490196%,0%,0%);stop-opacity:0;"/>
<stop offset="1" style="stop-color:rgb(85.490196%,0%,0%);stop-opacity:0.2;"/>
</linearGradient>
<linearGradient id="linear1" gradientUnits="userSpaceOnUse" x1="36.5" y1="0.274902" x2="36.5" y2="61.1739" gradientTransform="matrix(5.260273,0,0,5.258064,0,0)">
<stop offset="0.510417" style="stop-color:rgb(85.490196%,0%,0%);stop-opacity:0;"/>
<stop offset="1" style="stop-color:rgb(85.490196%,0%,0%);stop-opacity:0.2;"/>
</linearGradient>
<linearGradient id="linear2" gradientUnits="userSpaceOnUse" x1="36.5" y1="0.274902" x2="36.5" y2="61.1739" gradientTransform="matrix(5.260273,0,0,5.258064,0,0)">
<stop offset="0.510417" style="stop-color:rgb(85.490196%,0%,0%);stop-opacity:0;"/>
<stop offset="1" style="stop-color:rgb(85.490196%,0%,0%);stop-opacity:0.2;"/>
</linearGradient>
<linearGradient id="linear3" gradientUnits="userSpaceOnUse" x1="36.5" y1="0.274902" x2="36.5" y2="61.1739" gradientTransform="matrix(5.260273,0,0,5.258064,0,0)">
<stop offset="0.510417" style="stop-color:rgb(85.490196%,0%,0%);stop-opacity:0;"/>
<stop offset="1" style="stop-color:rgb(85.490196%,0%,0%);stop-opacity:0.2;"/>
</linearGradient>
<linearGradient id="linear4" gradientUnits="userSpaceOnUse" x1="36.5" y1="0.274902" x2="36.5" y2="61.1739" gradientTransform="matrix(5.260273,0,0,5.258064,0,0)">
<stop offset="0.510417" style="stop-color:rgb(85.490196%,0%,0%);stop-opacity:0;"/>
<stop offset="1" style="stop-color:rgb(85.490196%,0%,0%);stop-opacity:0.2;"/>
</linearGradient>
<linearGradient id="linear5" gradientUnits="userSpaceOnUse" x1="36.5" y1="0.274902" x2="36.5" y2="61.1739" gradientTransform="matrix(5.260273,0,0,5.258064,0,0)">
<stop offset="0.510417" style="stop-color:rgb(85.490196%,0%,0%);stop-opacity:0;"/>
<stop offset="1" style="stop-color:rgb(85.490196%,0%,0%);stop-opacity:0.2;"/>
</linearGradient>
<linearGradient id="linear6" gradientUnits="userSpaceOnUse" x1="36.5" y1="0.274902" x2="36.5" y2="61.1739" gradientTransform="matrix(5.260273,0,0,5.258064,0,0)">
<stop offset="0.510417" style="stop-color:rgb(85.490196%,0%,0%);stop-opacity:0;"/>
<stop offset="1" style="stop-color:rgb(85.490196%,0%,0%);stop-opacity:0.2;"/>
</linearGradient>
<linearGradient id="linear7" gradientUnits="userSpaceOnUse" x1="36.5" y1="0.274902" x2="36.5" y2="61.1739" gradientTransform="matrix(5.260273,0,0,5.258064,0,0)">
<stop offset="0.510417" style="stop-color:rgb(85.490196%,0%,0%);stop-opacity:0;"/>
<stop offset="1" style="stop-color:rgb(85.490196%,0%,0%);stop-opacity:0.2;"/>
</linearGradient>
<linearGradient id="linear8" gradientUnits="userSpaceOnUse" x1="36.5" y1="0.274902" x2="36.5" y2="61.1739" gradientTransform="matrix(5.260273,0,0,5.258064,0,0)">
<stop offset="0.510417" style="stop-color:rgb(85.490196%,0%,0%);stop-opacity:0;"/>
<stop offset="1" style="stop-color:rgb(85.490196%,0%,0%);stop-opacity:0.2;"/>
</linearGradient>
<linearGradient id="linear9" gradientUnits="userSpaceOnUse" x1="36.5" y1="0.274902" x2="36.5" y2="61.1739" gradientTransform="matrix(5.260273,0,0,5.258064,0,0)">
<stop offset="0.510417" style="stop-color:rgb(85.490196%,0%,0%);stop-opacity:0;"/>
<stop offset="1" style="stop-color:rgb(85.490196%,0%,0%);stop-opacity:0.2;"/>
</linearGradient>
<linearGradient id="linear10" gradientUnits="userSpaceOnUse" x1="36.5" y1="0.274902" x2="36.5" y2="61.1739" gradientTransform="matrix(5.260273,0,0,5.258064,0,0)">
<stop offset="0.510417" style="stop-color:rgb(85.490196%,0%,0%);stop-opacity:0;"/>
<stop offset="1" style="stop-color:rgb(85.490196%,0%,0%);stop-opacity:0.2;"/>
</linearGradient>
<linearGradient id="linear11" gradientUnits="userSpaceOnUse" x1="36.5" y1="0.274902" x2="36.5" y2="61.1739" gradientTransform="matrix(5.260273,0,0,5.258064,0,0)">
<stop offset="0.510417" style="stop-color:rgb(85.490196%,0%,0%);stop-opacity:0;"/>
<stop offset="1" style="stop-color:rgb(85.490196%,0%,0%);stop-opacity:0.2;"/>
</linearGradient>
<linearGradient id="linear12" gradientUnits="userSpaceOnUse" x1="36.5" y1="0.274902" x2="36.5" y2="61.1739" gradientTransform="matrix(5.260273,0,0,5.258064,0,0)">
<stop offset="0.510417" style="stop-color:rgb(85.490196%,0%,0%);stop-opacity:0;"/>
<stop offset="1" style="stop-color:rgb(85.490196%,0%,0%);stop-opacity:0.2;"/>
</linearGradient>
<linearGradient id="linear13" gradientUnits="userSpaceOnUse" x1="36.5" y1="0.274902" x2="36.5" y2="61.1739" gradientTransform="matrix(5.260273,0,0,5.258064,0,0)">
<stop offset="0.510417" style="stop-color:rgb(85.490196%,0%,0%);stop-opacity:0;"/>
<stop offset="1" style="stop-color:rgb(85.490196%,0%,0%);stop-opacity:0.2;"/>
</linearGradient>
<linearGradient id="linear14" gradientUnits="userSpaceOnUse" x1="36.5" y1="0.274902" x2="36.5" y2="61.1739" gradientTransform="matrix(5.260273,0,0,5.258064,0,0)">
<stop offset="0.510417" style="stop-color:rgb(85.490196%,0%,0%);stop-opacity:0;"/>
<stop offset="1" style="stop-color:rgb(85.490196%,0%,0%);stop-opacity:0.2;"/>
</linearGradient>
<linearGradient id="linear15" gradientUnits="userSpaceOnUse" x1="36.5" y1="0.274902" x2="36.5" y2="61.1739" gradientTransform="matrix(5.260273,0,0,5.258064,0,0)">
<stop offset="0.510417" style="stop-color:rgb(85.490196%,0%,0%);stop-opacity:0;"/>
<stop offset="1" style="stop-color:rgb(85.490196%,0%,0%);stop-opacity:0.2;"/>
</linearGradient>
<linearGradient id="linear16" gradientUnits="userSpaceOnUse" x1="36.5" y1="0.274902" x2="36.5" y2="61.1739" gradientTransform="matrix(5.260273,0,0,5.258064,0,0)">
<stop offset="0.510417" style="stop-color:rgb(85.490196%,0%,0%);stop-opacity:0;"/>
<stop offset="1" style="stop-color:rgb(85.490196%,0%,0%);stop-opacity:0.2;"/>
</linearGradient>
<linearGradient id="linear17" gradientUnits="userSpaceOnUse" x1="36.5" y1="0.274902" x2="36.5" y2="61.1739" gradientTransform="matrix(5.260273,0,0,5.258064,0,0)">
<stop offset="0.510417" style="stop-color:rgb(85.490196%,0%,0%);stop-opacity:0;"/>
<stop offset="1" style="stop-color:rgb(85.490196%,0%,0%);stop-opacity:0.2;"/>
</linearGradient>
<linearGradient id="linear18" gradientUnits="userSpaceOnUse" x1="36.5" y1="0.274902" x2="36.5" y2="61.1739" gradientTransform="matrix(5.260273,0,0,5.258064,0,0)">
<stop offset="0.510417" style="stop-color:rgb(85.490196%,0%,0%);stop-opacity:0;"/>
<stop offset="1" style="stop-color:rgb(85.490196%,0%,0%);stop-opacity:0.2;"/>
</linearGradient>
<linearGradient id="linear19" gradientUnits="userSpaceOnUse" x1="36.5" y1="0.274902" x2="36.5" y2="61.1739" gradientTransform="matrix(5.260273,0,0,5.258064,0,0)">
<stop offset="0.510417" style="stop-color:rgb(85.490196%,0%,0%);stop-opacity:0;"/>
<stop offset="1" style="stop-color:rgb(85.490196%,0%,0%);stop-opacity:0.2;"/>
</linearGradient>
<linearGradient id="linear20" gradientUnits="userSpaceOnUse" x1="36.5" y1="0.274902" x2="36.5" y2="61.1739" gradientTransform="matrix(5.260273,0,0,5.258064,0,0)">
<stop offset="0.510417" style="stop-color:rgb(85.490196%,0%,0%);stop-opacity:0;"/>
<stop offset="1" style="stop-color:rgb(85.490196%,0%,0%);stop-opacity:0.2;"/>
</linearGradient>
<linearGradient id="linear21" gradientUnits="userSpaceOnUse" x1="36.5" y1="0.274902" x2="36.5" y2="61.1739" gradientTransform="matrix(5.260273,0,0,5.258064,0,0)">
<stop offset="0.510417" style="stop-color:rgb(85.490196%,0%,0%);stop-opacity:0;"/>
<stop offset="1" style="stop-color:rgb(85.490196%,0%,0%);stop-opacity:0.2;"/>
</linearGradient>
<linearGradient id="linear22" gradientUnits="userSpaceOnUse" x1="36.5" y1="0.274902" x2="36.5" y2="61.1739" gradientTransform="matrix(5.260273,0,0,5.258064,0,0)">
<stop offset="0.510417" style="stop-color:rgb(85.490196%,0%,0%);stop-opacity:0;"/>
<stop offset="1" style="stop-color:rgb(85.490196%,0%,0%);stop-opacity:0.2;"/>
</linearGradient>
<linearGradient id="linear23" gradientUnits="userSpaceOnUse" x1="36.5" y1="0.274902" x2="36.5" y2="61.1739" gradientTransform="matrix(5.260273,0,0,5.258064,0,0)">
<stop offset="0.510417" style="stop-color:rgb(85.490196%,0%,0%);stop-opacity:0;"/>
<stop offset="1" style="stop-color:rgb(85.490196%,0%,0%);stop-opacity:0.2;"/>
</linearGradient>
<linearGradient id="linear24" gradientUnits="userSpaceOnUse" x1="36.5" y1="0.274902" x2="36.5" y2="61.1739" gradientTransform="matrix(5.260273,0,0,5.258064,0,0)">
<stop offset="0.510417" style="stop-color:rgb(85.490196%,0%,0%);stop-opacity:0;"/>
<stop offset="1" style="stop-color:rgb(85.490196%,0%,0%);stop-opacity:0.2;"/>
</linearGradient>
<linearGradient id="linear25" gradientUnits="userSpaceOnUse" x1="36.5" y1="0.274902" x2="36.5" y2="61.1739" gradientTransform="matrix(5.260273,0,0,5.258064,0,0)">
<stop offset="0.510417" style="stop-color:rgb(85.490196%,0%,0%);stop-opacity:0;"/>
<stop offset="1" style="stop-color:rgb(85.490196%,0%,0%);stop-opacity:0.2;"/>
</linearGradient>
<linearGradient id="linear26" gradientUnits="userSpaceOnUse" x1="36.5" y1="0.274902" x2="36.5" y2="61.1739" gradientTransform="matrix(5.260273,0,0,5.258064,0,0)">
<stop offset="0.510417" style="stop-color:rgb(85.490196%,0%,0%);stop-opacity:0;"/>
<stop offset="1" style="stop-color:rgb(85.490196%,0%,0%);stop-opacity:0.2;"/>
</linearGradient>
<linearGradient id="linear27" gradientUnits="userSpaceOnUse" x1="36.5" y1="0.274902" x2="36.5" y2="61.1739" gradientTransform="matrix(5.260273,0,0,5.258064,0,0)">
<stop offset="0.510417" style="stop-color:rgb(85.490196%,0%,0%);stop-opacity:0;"/>
<stop offset="1" style="stop-color:rgb(85.490196%,0%,0%);stop-opacity:0.2;"/>
</linearGradient>
<linearGradient id="linear28" gradientUnits="userSpaceOnUse" x1="36.5" y1="0.274902" x2="36.5" y2="61.1739" gradientTransform="matrix(5.260273,0,0,5.258064,0,0)">
<stop offset="0.510417" style="stop-color:rgb(85.490196%,0%,0%);stop-opacity:0;"/>
<stop offset="1" style="stop-color:rgb(85.490196%,0%,0%);stop-opacity:0.2;"/>
</linearGradient>
<linearGradient id="linear29" gradientUnits="userSpaceOnUse" x1="36.5" y1="0.274902" x2="36.5" y2="61.1739" gradientTransform="matrix(5.260273,0,0,5.258064,0,0)">
<stop offset="0.510417" style="stop-color:rgb(85.490196%,0%,0%);stop-opacity:0;"/>
<stop offset="1" style="stop-color:rgb(85.490196%,0%,0%);stop-opacity:0.2;"/>
</linearGradient>
<linearGradient id="linear30" gradientUnits="userSpaceOnUse" x1="36.5" y1="0.274902" x2="36.5" y2="61.1739" gradientTransform="matrix(5.260273,0,0,5.258064,0,0)">
<stop offset="0.510417" style="stop-color:rgb(85.490196%,0%,0%);stop-opacity:0;"/>
<stop offset="1" style="stop-color:rgb(85.490196%,0%,0%);stop-opacity:0.2;"/>
</linearGradient>
<linearGradient id="linear31" gradientUnits="userSpaceOnUse" x1="36.5" y1="0.274902" x2="36.5" y2="61.1739" gradientTransform="matrix(5.260273,0,0,5.258064,0,0)">
<stop offset="0.510417" style="stop-color:rgb(85.490196%,0%,0%);stop-opacity:0;"/>
<stop offset="1" style="stop-color:rgb(85.490196%,0%,0%);stop-opacity:0.2;"/>
</linearGradient>
<linearGradient id="linear32" gradientUnits="userSpaceOnUse" x1="36.5" y1="0.274902" x2="36.5" y2="61.1739" gradientTransform="matrix(5.260273,0,0,5.258064,0,0)">
<stop offset="0.510417" style="stop-color:rgb(85.490196%,0%,0%);stop-opacity:0;"/>
<stop offset="1" style="stop-color:rgb(85.490196%,0%,0%);stop-opacity:0.2;"/>
</linearGradient>
<linearGradient id="linear33" gradientUnits="userSpaceOnUse" x1="36.5" y1="0.274902" x2="36.5" y2="61.1739" gradientTransform="matrix(5.260273,0,0,5.258064,0,0)">
<stop offset="0.510417" style="stop-color:rgb(85.490196%,0%,0%);stop-opacity:0;"/>
<stop offset="1" style="stop-color:rgb(85.490196%,0%,0%);stop-opacity:0.2;"/>
</linearGradient>
<linearGradient id="linear34" gradientUnits="userSpaceOnUse" x1="36.5" y1="0.274902" x2="36.5" y2="61.1739" gradientTransform="matrix(5.260273,0,0,5.258064,0,0)">
<stop offset="0.510417" style="stop-color:rgb(85.490196%,0%,0%);stop-opacity:0;"/>
<stop offset="1" style="stop-color:rgb(85.490196%,0%,0%);stop-opacity:0.2;"/>
</linearGradient>
<linearGradient id="linear35" gradientUnits="userSpaceOnUse" x1="36.5" y1="0.274902" x2="36.5" y2="61.1739" gradientTransform="matrix(5.260273,0,0,5.258064,0,0)">
<stop offset="0.510417" style="stop-color:rgb(85.490196%,0%,0%);stop-opacity:0;"/>
<stop offset="1" style="stop-color:rgb(85.490196%,0%,0%);stop-opacity:0.2;"/>
</linearGradient>
<linearGradient id="linear36" gradientUnits="userSpaceOnUse" x1="36.5" y1="0.274902" x2="36.5" y2="61.1739" gradientTransform="matrix(5.260273,0,0,5.258064,0,0)">
<stop offset="0.510417" style="stop-color:rgb(85.490196%,0%,0%);stop-opacity:0;"/>
<stop offset="1" style="stop-color:rgb(85.490196%,0%,0%);stop-opacity:0.2;"/>
</linearGradient>
<linearGradient id="linear37" gradientUnits="userSpaceOnUse" x1="36.5" y1="0.274902" x2="36.5" y2="61.1739" gradientTransform="matrix(5.260273,0,0,5.258064,0,0)">
<stop offset="0.510417" style="stop-color:rgb(85.490196%,0%,0%);stop-opacity:0;"/>
<stop offset="1" style="stop-color:rgb(85.490196%,0%,0%);stop-opacity:0.2;"/>
</linearGradient>
<linearGradient id="linear38" gradientUnits="userSpaceOnUse" x1="36.5" y1="0.274902" x2="36.5" y2="61.1739" gradientTransform="matrix(5.260273,0,0,5.258064,0,0)">
<stop offset="0.510417" style="stop-color:rgb(85.490196%,0%,0%);stop-opacity:0;"/>
<stop offset="1" style="stop-color:rgb(85.490196%,0%,0%);stop-opacity:0.2;"/>
</linearGradient>
<linearGradient id="linear39" gradientUnits="userSpaceOnUse" x1="36.5" y1="0.274902" x2="36.5" y2="61.1739" gradientTransform="matrix(5.260273,0,0,5.258064,0,0)">
<stop offset="0.510417" style="stop-color:rgb(85.490196%,0%,0%);stop-opacity:0;"/>
<stop offset="1" style="stop-color:rgb(85.490196%,0%,0%);stop-opacity:0.2;"/>
</linearGradient>
<linearGradient id="linear40" gradientUnits="userSpaceOnUse" x1="36.5" y1="0.274902" x2="36.5" y2="61.1739" gradientTransform="matrix(5.260273,0,0,5.258064,0,0)">
<stop offset="0.510417" style="stop-color:rgb(85.490196%,0%,0%);stop-opacity:0;"/>
<stop offset="1" style="stop-color:rgb(85.490196%,0%,0%);stop-opacity:0.2;"/>
</linearGradient>
<linearGradient id="linear41" gradientUnits="userSpaceOnUse" x1="36.5" y1="0.274902" x2="36.5" y2="61.1739" gradientTransform="matrix(5.260273,0,0,5.258064,0,0)">
<stop offset="0.510417" style="stop-color:rgb(85.490196%,0%,0%);stop-opacity:0;"/>
<stop offset="1" style="stop-color:rgb(85.490196%,0%,0%);stop-opacity:0.2;"/>
</linearGradient>
<linearGradient id="linear42" gradientUnits="userSpaceOnUse" x1="36.5" y1="0.274902" x2="36.5" y2="61.1739" gradientTransform="matrix(5.260273,0,0,5.258064,0,0)">
<stop offset="0.510417" style="stop-color:rgb(85.490196%,0%,0%);stop-opacity:0;"/>
<stop offset="1" style="stop-color:rgb(85.490196%,0%,0%);stop-opacity:0.2;"/>
</linearGradient>
<linearGradient id="linear43" gradientUnits="userSpaceOnUse" x1="36.5" y1="0.274902" x2="36.5" y2="61.1739" gradientTransform="matrix(5.260273,0,0,5.258064,0,0)">
<stop offset="0.510417" style="stop-color:rgb(85.490196%,0%,0%);stop-opacity:0;"/>
<stop offset="1" style="stop-color:rgb(85.490196%,0%,0%);stop-opacity:0.2;"/>
</linearGradient>
<linearGradient id="linear44" gradientUnits="userSpaceOnUse" x1="36.5" y1="0.274902" x2="36.5" y2="61.1739" gradientTransform="matrix(5.260273,0,0,5.258064,0,0)">
<stop offset="0.510417" style="stop-color:rgb(85.490196%,0%,0%);stop-opacity:0;"/>
<stop offset="1" style="stop-color:rgb(85.490196%,0%,0%);stop-opacity:0.2;"/>
</linearGradient>
<linearGradient id="linear45" gradientUnits="userSpaceOnUse" x1="36.5" y1="0.274902" x2="36.5" y2="61.1739" gradientTransform="matrix(5.260273,0,0,5.258064,0,0)">
<stop offset="0.510417" style="stop-color:rgb(85.490196%,0%,0%);stop-opacity:0;"/>
<stop offset="1" style="stop-color:rgb(85.490196%,0%,0%);stop-opacity:0.2;"/>
</linearGradient>
<linearGradient id="linear46" gradientUnits="userSpaceOnUse" x1="36.5" y1="0.274902" x2="36.5" y2="61.1739" gradientTransform="matrix(5.260273,0,0,5.258064,0,0)">
<stop offset="0.510417" style="stop-color:rgb(85.490196%,0%,0%);stop-opacity:0;"/>
<stop offset="1" style="stop-color:rgb(85.490196%,0%,0%);stop-opacity:0.2;"/>
</linearGradient>
<linearGradient id="linear47" gradientUnits="userSpaceOnUse" x1="36.5" y1="0.274902" x2="36.5" y2="61.1739" gradientTransform="matrix(5.260273,0,0,5.258064,0,0)">
<stop offset="0.510417" style="stop-color:rgb(85.490196%,0%,0%);stop-opacity:0;"/>
<stop offset="1" style="stop-color:rgb(85.490196%,0%,0%);stop-opacity:0.2;"/>
</linearGradient>
<linearGradient id="linear48" gradientUnits="userSpaceOnUse" x1="36.5" y1="0.274902" x2="36.5" y2="61.1739" gradientTransform="matrix(5.260273,0,0,5.258064,0,0)">
<stop offset="0.510417" style="stop-color:rgb(85.490196%,0%,0%);stop-opacity:0;"/>
<stop offset="1" style="stop-color:rgb(85.490196%,0%,0%);stop-opacity:0.2;"/>
</linearGradient>
<linearGradient id="linear49" gradientUnits="userSpaceOnUse" x1="36.5" y1="0.274902" x2="36.5" y2="61.1739" gradientTransform="matrix(5.260273,0,0,5.258064,0,0)">
<stop offset="0.510417" style="stop-color:rgb(85.490196%,0%,0%);stop-opacity:0;"/>
<stop offset="1" style="stop-color:rgb(85.490196%,0%,0%);stop-opacity:0.2;"/>
</linearGradient>
<linearGradient id="linear50" gradientUnits="userSpaceOnUse" x1="36.5" y1="0.274902" x2="36.5" y2="61.1739" gradientTransform="matrix(5.260273,0,0,5.258064,0,0)">
<stop offset="0.510417" style="stop-color:rgb(85.490196%,0%,0%);stop-opacity:0;"/>
<stop offset="1" style="stop-color:rgb(85.490196%,0%,0%);stop-opacity:0.2;"/>
</linearGradient>
<linearGradient id="linear51" gradientUnits="userSpaceOnUse" x1="36.5" y1="0.274902" x2="36.5" y2="61.1739" gradientTransform="matrix(5.260273,0,0,5.258064,0,0)">
<stop offset="0.510417" style="stop-color:rgb(85.490196%,0%,0%);stop-opacity:0;"/>
<stop offset="1" style="stop-color:rgb(85.490196%,0%,0%);stop-opacity:0.2;"/>
</linearGradient>
</defs>
<g id="surface1">
<path style=" stroke:none;fill-rule:evenodd;fill:rgb(99.215686%,78.823529%,5.098039%);fill-opacity:1;" d="M 224.261719 95.898438 C 226.796875 103.996094 222.949219 112.320312 215.640625 114.46875 L 136.824219 137.636719 C 129.523438 139.78125 121.554688 134.945312 119.019531 126.828125 C 116.488281 118.695312 120.359375 110.390625 127.660156 108.253906 L 206.476562 85.066406 C 213.796875 82.914062 221.734375 87.769531 224.261719 95.898438 Z M 224.261719 95.898438 "/>
<path style=" stroke:none;fill-rule:evenodd;fill:url(#linear0);" d="M 224.261719 95.898438 C 226.796875 103.996094 222.949219 112.320312 215.640625 114.46875 L 136.824219 137.636719 C 129.523438 139.78125 121.554688 134.945312 119.019531 126.828125 C 116.488281 118.695312 120.359375 110.390625 127.660156 108.253906 L 206.476562 85.066406 C 213.796875 82.914062 221.734375 87.769531 224.261719 95.898438 Z M 224.261719 95.898438 "/>
<path style=" stroke:none;fill-rule:evenodd;fill:rgb(99.215686%,78.823529%,5.098039%);fill-opacity:1;" d="M 117.738281 120.890625 L 111.683594 122.640625 C 108.71875 123.515625 107.164062 126.878906 108.191406 130.175781 C 109.222656 133.453125 112.441406 135.394531 115.367188 134.519531 L 121.441406 132.734375 C 120.140625 131.15625 119.089844 129.226562 118.425781 127.125 C 117.757812 125.023438 117.519531 122.917969 117.703125 120.890625 "/>
<path style=" stroke:none;fill-rule:evenodd;fill:url(#linear1);" d="M 117.738281 120.890625 L 111.683594 122.640625 C 108.71875 123.515625 107.164062 126.878906 108.191406 130.175781 C 109.222656 133.453125 112.441406 135.394531 115.367188 134.519531 L 121.441406 132.734375 C 120.140625 131.15625 119.089844 129.226562 118.425781 127.125 C 117.757812 125.023438 117.519531 122.917969 117.703125 120.890625 "/>
<path style=" stroke:none;fill-rule:evenodd;fill:rgb(99.215686%,78.823529%,5.098039%);fill-opacity:1;" d="M 122.867188 162.277344 C 122.960938 162.050781 123.179688 161.925781 123.410156 161.964844 C 123.664062 162.050781 123.777344 162.308594 123.738281 162.488281 L 122.414062 166.640625 C 122.308594 166.867188 122.058594 166.992188 121.839844 166.90625 C 121.585938 166.851562 121.441406 166.609375 121.53125 166.375 Z M 122.867188 162.277344 "/>
<path style=" stroke:none;fill-rule:evenodd;fill:url(#linear2);" d="M 122.867188 162.277344 C 122.960938 162.050781 123.179688 161.925781 123.410156 161.964844 C 123.664062 162.050781 123.777344 162.308594 123.738281 162.488281 L 122.414062 166.640625 C 122.308594 166.867188 122.058594 166.992188 121.839844 166.90625 C 121.585938 166.851562 121.441406 166.609375 121.53125 166.375 Z M 122.867188 162.277344 "/>
<path style=" stroke:none;fill-rule:evenodd;fill:rgb(99.215686%,78.823529%,5.098039%);fill-opacity:1;" d="M 119.960938 161.136719 C 120.054688 160.890625 120.324219 160.792969 120.558594 160.890625 C 120.738281 160.984375 120.847656 161.242188 120.789062 161.421875 L 118.984375 165.382812 C 118.878906 165.605469 118.566406 165.734375 118.386719 165.59375 C 118.15625 165.519531 118.0625 165.242188 118.167969 165.0625 L 119.941406 161.121094 "/>
<path style=" stroke:none;fill-rule:evenodd;fill:url(#linear3);" d="M 119.960938 161.136719 C 120.054688 160.890625 120.324219 160.792969 120.558594 160.890625 C 120.738281 160.984375 120.847656 161.242188 120.789062 161.421875 L 118.984375 165.382812 C 118.878906 165.605469 118.566406 165.734375 118.386719 165.59375 C 118.15625 165.519531 118.0625 165.242188 118.167969 165.0625 L 119.941406 161.121094 "/>
<path style=" stroke:none;fill-rule:evenodd;fill:rgb(99.215686%,78.823529%,5.098039%);fill-opacity:1;" d="M 117.140625 159.683594 C 117.265625 159.472656 117.503906 159.386719 117.757812 159.511719 C 117.988281 159.628906 118.042969 159.894531 117.9375 160.109375 L 115.765625 163.855469 C 115.621094 164.066406 115.3125 164.132812 115.136719 163.996094 C 114.894531 163.890625 114.828125 163.644531 114.957031 163.4375 L 117.160156 159.703125 "/>
<path style=" stroke:none;fill-rule:evenodd;fill:url(#linear4);" d="M 117.140625 159.683594 C 117.265625 159.472656 117.503906 159.386719 117.757812 159.511719 C 117.988281 159.628906 118.042969 159.894531 117.9375 160.109375 L 115.765625 163.855469 C 115.621094 164.066406 115.3125 164.132812 115.136719 163.996094 C 114.894531 163.890625 114.828125 163.644531 114.957031 163.4375 L 117.160156 159.703125 "/>
<path style=" stroke:none;fill-rule:evenodd;fill:rgb(99.215686%,78.823529%,5.098039%);fill-opacity:1;" d="M 114.539062 158 C 114.664062 157.792969 114.9375 157.742188 115.15625 157.878906 C 115.335938 158.019531 115.335938 158.285156 115.261719 158.496094 L 112.660156 162 C 112.472656 162.171875 112.207031 162.222656 112.023438 162.085938 C 111.84375 161.945312 111.789062 161.679688 111.9375 161.507812 Z M 114.539062 158 "/>
<path style=" stroke:none;fill-rule:evenodd;fill:url(#linear5);" d="M 114.539062 158 C 114.664062 157.792969 114.9375 157.742188 115.15625 157.878906 C 115.335938 158.019531 115.335938 158.285156 115.261719 158.496094 L 112.660156 162 C 112.472656 162.171875 112.207031 162.222656 112.023438 162.085938 C 111.84375 161.945312 111.789062 161.679688 111.9375 161.507812 Z M 114.539062 158 "/>
<path style=" stroke:none;fill-rule:evenodd;fill:rgb(99.215686%,78.823529%,5.098039%);fill-opacity:1;" d="M 112.136719 156.09375 C 112.261719 155.882812 112.53125 155.863281 112.710938 156.023438 C 112.890625 156.195312 112.890625 156.480469 112.785156 156.652344 L 109.890625 159.910156 C 109.710938 160.089844 109.386719 160.089844 109.242188 159.910156 C 109.0625 159.789062 109.023438 159.511719 109.203125 159.351562 L 112.09375 156.109375 "/>
<path style=" stroke:none;fill-rule:evenodd;fill:url(#linear6);" d="M 112.136719 156.09375 C 112.261719 155.882812 112.53125 155.863281 112.710938 156.023438 C 112.890625 156.195312 112.890625 156.480469 112.785156 156.652344 L 109.890625 159.910156 C 109.710938 160.089844 109.386719 160.089844 109.242188 159.910156 C 109.0625 159.789062 109.023438 159.511719 109.203125 159.351562 L 112.09375 156.109375 "/>
<path style=" stroke:none;fill-rule:evenodd;fill:rgb(99.215686%,78.823529%,5.098039%);fill-opacity:1;" d="M 109.890625 153.972656 C 110.070312 153.792969 110.34375 153.792969 110.542969 153.972656 C 110.722656 154.144531 110.6875 154.429688 110.542969 154.601562 L 107.324219 157.582031 C 107.144531 157.761719 106.839844 157.71875 106.691406 157.582031 C 106.511719 157.410156 106.511719 157.109375 106.691406 156.972656 L 109.871094 153.988281 "/>
<path style=" stroke:none;fill-rule:evenodd;fill:url(#linear7);" d="M 109.890625 153.972656 C 110.070312 153.792969 110.34375 153.792969 110.542969 153.972656 C 110.722656 154.144531 110.6875 154.429688 110.542969 154.601562 L 107.324219 157.582031 C 107.144531 157.761719 106.839844 157.71875 106.691406 157.582031 C 106.511719 157.410156 106.511719 157.109375 106.691406 156.972656 L 109.871094 153.988281 "/>
<path style=" stroke:none;fill-rule:evenodd;fill:rgb(99.215686%,78.823529%,5.098039%);fill-opacity:1;" d="M 107.972656 151.746094 C 108.152344 151.570312 108.410156 151.605469 108.589844 151.816406 C 108.71875 151.988281 108.683594 152.273438 108.519531 152.429688 L 105.046875 155.113281 C 104.828125 155.285156 104.554688 155.214844 104.414062 155.039062 C 104.230469 154.867188 104.289062 154.582031 104.488281 154.445312 L 107.960938 151.765625 "/>
<path style=" stroke:none;fill-rule:evenodd;fill:url(#linear8);" d="M 107.972656 151.746094 C 108.152344 151.570312 108.410156 151.605469 108.589844 151.816406 C 108.71875 151.988281 108.683594 152.273438 108.519531 152.429688 L 105.046875 155.113281 C 104.828125 155.285156 104.554688 155.214844 104.414062 155.039062 C 104.230469 154.867188 104.289062 154.582031 104.488281 154.445312 L 107.960938 151.765625 "/>
<path style=" stroke:none;fill-rule:evenodd;fill:rgb(99.215686%,78.823529%,5.098039%);fill-opacity:1;" d="M 106.261719 149.417969 C 106.472656 149.277344 106.765625 149.332031 106.890625 149.523438 C 107.019531 149.726562 106.945312 149.992188 106.765625 150.132812 L 103.074219 152.5 C 102.804688 152.621094 102.53125 152.554688 102.425781 152.363281 C 102.246094 152.148438 102.332031 151.902344 102.53125 151.785156 L 106.242188 149.398438 "/>
<path style=" stroke:none;fill-rule:evenodd;fill:url(#linear9);" d="M 106.261719 149.417969 C 106.472656 149.277344 106.765625 149.332031 106.890625 149.523438 C 107.019531 149.726562 106.945312 149.992188 106.765625 150.132812 L 103.074219 152.5 C 102.804688 152.621094 102.53125 152.554688 102.425781 152.363281 C 102.246094 152.148438 102.332031 151.902344 102.53125 151.785156 L 106.242188 149.398438 "/>
<path style=" stroke:none;fill-rule:evenodd;fill:rgb(99.215686%,78.823529%,5.098039%);fill-opacity:1;" d="M 104.902344 147.035156 C 105.078125 146.890625 105.351562 146.984375 105.496094 147.207031 C 105.589844 147.378906 105.496094 147.664062 105.277344 147.785156 L 101.394531 149.820312 C 101.15625 149.925781 100.851562 149.820312 100.777344 149.640625 C 100.691406 149.417969 100.777344 149.152344 100.957031 149.046875 L 104.941406 147.050781 "/>
<path style=" stroke:none;fill-rule:evenodd;fill:url(#linear10);" d="M 104.902344 147.035156 C 105.078125 146.890625 105.351562 146.984375 105.496094 147.207031 C 105.589844 147.378906 105.496094 147.664062 105.277344 147.785156 L 101.394531 149.820312 C 101.15625 149.925781 100.851562 149.820312 100.777344 149.640625 C 100.691406 149.417969 100.777344 149.152344 100.957031 149.046875 L 104.941406 147.050781 "/>
<path style=" stroke:none;fill-rule:evenodd;fill:rgb(99.215686%,78.823529%,5.098039%);fill-opacity:1;" d="M 103.777344 144.613281 C 104.019531 144.527344 104.289062 144.613281 104.375 144.859375 C 104.488281 145.085938 104.34375 145.332031 104.144531 145.417969 L 100.023438 147.035156 C 99.769531 147.136719 99.519531 147.035156 99.425781 146.789062 C 99.332031 146.578125 99.457031 146.332031 99.675781 146.257812 L 103.796875 144.632812 "/>
<path style=" stroke:none;fill-rule:evenodd;fill:url(#linear11);" d="M 103.777344 144.613281 C 104.019531 144.527344 104.289062 144.613281 104.375 144.859375 C 104.488281 145.085938 104.34375 145.332031 104.144531 145.417969 L 100.023438 147.035156 C 99.769531 147.136719 99.519531 147.035156 99.425781 146.789062 C 99.332031 146.578125 99.457031 146.332031 99.675781 146.257812 L 103.796875 144.632812 "/>
<path style=" stroke:none;fill-rule:evenodd;fill:rgb(99.215686%,78.823529%,5.098039%);fill-opacity:1;" d="M 103.023438 142.285156 C 103.273438 142.195312 103.492188 142.332031 103.566406 142.578125 C 103.640625 142.8125 103.472656 143.035156 103.253906 143.109375 L 98.953125 144.261719 C 98.722656 144.316406 98.46875 144.175781 98.410156 143.953125 C 98.355469 143.71875 98.503906 143.492188 98.722656 143.421875 L 102.988281 142.285156 "/>
<path style=" stroke:none;fill-rule:evenodd;fill:url(#linear12);" d="M 103.023438 142.285156 C 103.273438 142.195312 103.492188 142.332031 103.566406 142.578125 C 103.640625 142.8125 103.472656 143.035156 103.253906 143.109375 L 98.953125 144.261719 C 98.722656 144.316406 98.46875 144.175781 98.410156 143.953125 C 98.355469 143.71875 98.503906 143.492188 98.722656 143.421875 L 102.988281 142.285156 "/>
<path style=" stroke:none;fill-rule:evenodd;fill:rgb(99.215686%,78.823529%,5.098039%);fill-opacity:1;" d="M 102.589844 140.023438 C 102.824219 139.972656 103.054688 140.144531 103.09375 140.375 C 103.128906 140.621094 102.96875 140.828125 102.730469 140.859375 L 98.34375 141.496094 C 98.070312 141.496094 97.832031 141.320312 97.796875 141.113281 C 97.757812 140.878906 97.976562 140.65625 98.195312 140.636719 Z M 102.589844 140.023438 "/>
<path style=" stroke:none;fill-rule:evenodd;fill:url(#linear13);" d="M 102.589844 140.023438 C 102.824219 139.972656 103.054688 140.144531 103.09375 140.375 C 103.128906 140.621094 102.96875 140.828125 102.730469 140.859375 L 98.34375 141.496094 C 98.070312 141.496094 97.832031 141.320312 97.796875 141.113281 C 97.757812 140.878906 97.976562 140.65625 98.195312 140.636719 Z M 102.589844 140.023438 "/>
<path style=" stroke:none;fill-rule:evenodd;fill:rgb(99.215686%,78.823529%,5.098039%);fill-opacity:1;" d="M 102.496094 137.902344 C 102.75 137.902344 102.949219 138.074219 102.96875 138.320312 C 102.96875 138.585938 102.730469 138.757812 102.496094 138.777344 L 98.050781 138.777344 C 97.796875 138.777344 97.621094 138.550781 97.621094 138.320312 C 97.621094 138.074219 97.832031 137.902344 98.070312 137.902344 L 102.53125 137.902344 "/>
<path style=" stroke:none;fill-rule:evenodd;fill:url(#linear14);" d="M 102.496094 137.902344 C 102.75 137.902344 102.949219 138.074219 102.96875 138.320312 C 102.96875 138.585938 102.730469 138.757812 102.496094 138.777344 L 98.050781 138.777344 C 97.796875 138.777344 97.621094 138.550781 97.621094 138.320312 C 97.621094 138.074219 97.832031 137.902344 98.070312 137.902344 L 102.53125 137.902344 "/>
<path style=" stroke:none;fill-rule:evenodd;fill:rgb(99.215686%,78.823529%,5.098039%);fill-opacity:1;" d="M 102.730469 135.972656 C 103.003906 136.011719 103.148438 136.238281 103.09375 136.503906 C 103.09375 136.707031 102.804688 136.847656 102.589844 136.816406 L 98.25 136.078125 C 97.976562 136.027344 97.820312 135.78125 97.886719 135.554688 C 97.886719 135.328125 98.144531 135.203125 98.375 135.203125 Z M 102.730469 135.972656 "/>
<path style=" stroke:none;fill-rule:evenodd;fill:url(#linear15);" d="M 102.730469 135.972656 C 103.003906 136.011719 103.148438 136.238281 103.09375 136.503906 C 103.09375 136.707031 102.804688 136.847656 102.589844 136.816406 L 98.25 136.078125 C 97.976562 136.027344 97.820312 135.78125 97.886719 135.554688 C 97.886719 135.328125 98.144531 135.203125 98.375 135.203125 Z M 102.730469 135.972656 "/>
<path style=" stroke:none;fill-rule:evenodd;fill:rgb(99.215686%,78.823529%,5.098039%);fill-opacity:1;" d="M 103.3125 134.273438 C 103.566406 134.359375 103.671875 134.625 103.578125 134.839844 C 103.472656 135.0625 103.222656 135.148438 103.003906 135.082031 L 98.847656 133.503906 C 98.628906 133.417969 98.523438 133.152344 98.609375 132.980469 C 98.703125 132.734375 98.972656 132.628906 99.191406 132.714844 Z M 103.3125 134.273438 "/>
<path style=" stroke:none;fill-rule:evenodd;fill:url(#linear16);" d="M 103.3125 134.273438 C 103.566406 134.359375 103.671875 134.625 103.578125 134.839844 C 103.472656 135.0625 103.222656 135.148438 103.003906 135.082031 L 98.847656 133.503906 C 98.628906 133.417969 98.523438 133.152344 98.609375 132.980469 C 98.703125 132.734375 98.972656 132.628906 99.191406 132.714844 Z M 103.3125 134.273438 "/>
<path style=" stroke:none;fill-rule:evenodd;fill:rgb(99.215686%,78.823529%,5.098039%);fill-opacity:1;" d="M 104.230469 132.835938 C 104.449219 132.960938 104.46875 133.238281 104.34375 133.433594 C 104.164062 133.613281 103.90625 133.664062 103.691406 133.558594 L 100.023438 131.105469 C 99.84375 130.976562 99.769531 130.699219 99.910156 130.507812 C 100.042969 130.335938 100.328125 130.28125 100.527344 130.402344 Z M 104.230469 132.835938 "/>
<path style=" stroke:none;fill-rule:evenodd;fill:url(#linear17);" d="M 104.230469 132.835938 C 104.449219 132.960938 104.46875 133.238281 104.34375 133.433594 C 104.164062 133.613281 103.90625 133.664062 103.691406 133.558594 L 100.023438 131.105469 C 99.84375 130.976562 99.769531 130.699219 99.910156 130.507812 C 100.042969 130.335938 100.328125 130.28125 100.527344 130.402344 Z M 104.230469 132.835938 "/>
<path style=" stroke:none;fill-rule:evenodd;fill:rgb(99.215686%,78.823529%,5.098039%);fill-opacity:1;" d="M 105.445312 131.609375 C 105.625 131.789062 105.589844 132.054688 105.40625 132.226562 C 105.226562 132.398438 104.953125 132.363281 104.773438 132.191406 L 101.753906 129.035156 C 101.574219 128.863281 101.628906 128.597656 101.792969 128.4375 C 101.972656 128.265625 102.246094 128.296875 102.390625 128.4375 L 105.464844 131.628906 "/>
<path style=" stroke:none;fill-rule:evenodd;fill:url(#linear18);" d="M 105.445312 131.609375 C 105.625 131.789062 105.589844 132.054688 105.40625 132.226562 C 105.226562 132.398438 104.953125 132.363281 104.773438 132.191406 L 101.753906 129.035156 C 101.574219 128.863281 101.628906 128.597656 101.792969 128.4375 C 101.972656 128.265625 102.246094 128.296875 102.390625 128.4375 L 105.464844 131.628906 "/>
<path style=" stroke:none;fill-rule:evenodd;fill:rgb(99.215686%,78.823529%,5.098039%);fill-opacity:1;" d="M 107.019531 130.59375 C 107.164062 130.824219 107.070312 131.070312 106.871094 131.210938 C 106.597656 131.316406 106.328125 131.242188 106.242188 131.03125 L 103.996094 127.304688 C 103.890625 127.070312 103.996094 126.828125 104.175781 126.6875 C 104.394531 126.582031 104.667969 126.6875 104.773438 126.867188 Z M 107.019531 130.59375 "/>
<path style=" stroke:none;fill-rule:evenodd;fill:url(#linear19);" d="M 107.019531 130.59375 C 107.164062 130.824219 107.070312 131.070312 106.871094 131.210938 C 106.597656 131.316406 106.328125 131.242188 106.242188 131.03125 L 103.996094 127.304688 C 103.890625 127.070312 103.996094 126.828125 104.175781 126.6875 C 104.394531 126.582031 104.667969 126.6875 104.773438 126.867188 Z M 107.019531 130.59375 "/>
<path style=" stroke:none;fill-rule:evenodd;fill:rgb(99.215686%,78.823529%,5.098039%);fill-opacity:1;" d="M 109.0625 129.824219 C 109.148438 130.050781 108.988281 130.28125 108.769531 130.347656 C 108.539062 130.453125 108.296875 130.316406 108.226562 130.101562 L 106.777344 126.003906 C 106.726562 125.757812 106.851562 125.53125 107.089844 125.441406 C 107.324219 125.375 107.574219 125.511719 107.636719 125.726562 L 109.074219 129.824219 "/>
<path style=" stroke:none;fill-rule:evenodd;fill:url(#linear20);" d="M 109.0625 129.824219 C 109.148438 130.050781 108.988281 130.28125 108.769531 130.347656 C 108.539062 130.453125 108.296875 130.316406 108.226562 130.101562 L 106.777344 126.003906 C 106.726562 125.757812 106.851562 125.53125 107.089844 125.441406 C 107.324219 125.375 107.574219 125.511719 107.636719 125.726562 L 109.074219 129.824219 "/>
<path style=" stroke:none;fill-rule:evenodd;fill:rgb(99.215686%,78.823529%,5.098039%);fill-opacity:1;" d="M 138.34375 190.875 C 138.164062 191.089844 137.894531 191.101562 137.695312 190.929688 C 137.546875 190.757812 137.570312 190.492188 137.695312 190.332031 L 140.769531 187.183594 C 140.945312 187.035156 141.273438 187.035156 141.386719 187.214844 C 141.597656 187.355469 141.597656 187.652344 141.386719 187.8125 Z M 138.34375 190.875 "/>
<path style=" stroke:none;fill-rule:evenodd;fill:url(#linear21);" d="M 138.34375 190.875 C 138.164062 191.089844 137.894531 191.101562 137.695312 190.929688 C 137.546875 190.757812 137.570312 190.492188 137.695312 190.332031 L 140.769531 187.183594 C 140.945312 187.035156 141.273438 187.035156 141.386719 187.214844 C 141.597656 187.355469 141.597656 187.652344 141.386719 187.8125 Z M 138.34375 190.875 "/>
<path style=" stroke:none;fill-rule:evenodd;fill:rgb(99.215686%,78.823529%,5.098039%);fill-opacity:1;" d="M 140.441406 193.203125 C 140.261719 193.382812 139.972656 193.351562 139.792969 193.15625 C 139.664062 192.980469 139.738281 192.71875 139.886719 192.5625 L 143.316406 189.863281 C 143.535156 189.683594 143.859375 189.753906 143.945312 189.929688 C 144.125 190.105469 144.09375 190.386719 143.894531 190.523438 L 140.460938 193.203125 "/>
<path style=" stroke:none;fill-rule:evenodd;fill:url(#linear22);" d="M 140.441406 193.203125 C 140.261719 193.382812 139.972656 193.351562 139.792969 193.15625 C 139.664062 192.980469 139.738281 192.71875 139.886719 192.5625 L 143.316406 189.863281 C 143.535156 189.683594 143.859375 189.753906 143.945312 189.929688 C 144.125 190.105469 144.09375 190.386719 143.894531 190.523438 L 140.460938 193.203125 "/>
<path style=" stroke:none;fill-rule:evenodd;fill:rgb(99.215686%,78.823529%,5.098039%);fill-opacity:1;" d="M 141.910156 195.378906 C 141.722656 195.519531 141.453125 195.464844 141.292969 195.261719 C 141.1875 195.046875 141.292969 194.78125 141.472656 194.664062 L 145.269531 192.453125 C 145.507812 192.328125 145.8125 192.421875 145.863281 192.628906 C 146.042969 192.839844 145.957031 193.085938 145.738281 193.222656 Z M 141.910156 195.378906 "/>
<path style=" stroke:none;fill-rule:evenodd;fill:url(#linear23);" d="M 141.910156 195.378906 C 141.722656 195.519531 141.453125 195.464844 141.292969 195.261719 C 141.1875 195.046875 141.292969 194.78125 141.472656 194.664062 L 145.269531 192.453125 C 145.507812 192.328125 145.8125 192.421875 145.863281 192.628906 C 146.042969 192.839844 145.957031 193.085938 145.738281 193.222656 Z M 141.910156 195.378906 "/>
<path style=" stroke:none;fill-rule:evenodd;fill:rgb(99.215686%,78.823529%,5.098039%);fill-opacity:1;" d="M 142.917969 197.535156 C 142.699219 197.621094 142.433594 197.535156 142.339844 197.289062 C 142.289062 197.078125 142.414062 196.820312 142.59375 196.734375 L 146.714844 195.121094 C 146.96875 195.027344 147.257812 195.15625 147.292969 195.359375 C 147.417969 195.59375 147.292969 195.835938 147.058594 195.921875 L 142.957031 197.503906 "/>
<path style=" stroke:none;fill-rule:evenodd;fill:url(#linear24);" d="M 142.917969 197.535156 C 142.699219 197.621094 142.433594 197.535156 142.339844 197.289062 C 142.289062 197.078125 142.414062 196.820312 142.59375 196.734375 L 146.714844 195.121094 C 146.96875 195.027344 147.257812 195.15625 147.292969 195.359375 C 147.417969 195.59375 147.292969 195.835938 147.058594 195.921875 L 142.957031 197.503906 "/>
<path style=" stroke:none;fill-rule:evenodd;fill:rgb(99.215686%,78.823529%,5.098039%);fill-opacity:1;" d="M 143.515625 199.570312 C 143.28125 199.625 143.0625 199.5 142.972656 199.253906 C 142.917969 199.027344 143.097656 198.816406 143.296875 198.730469 L 147.636719 197.761719 C 147.890625 197.726562 148.140625 197.886719 148.179688 198.113281 C 148.253906 198.359375 148.089844 198.570312 147.816406 198.644531 Z M 143.515625 199.570312 "/>
<path style=" stroke:none;fill-rule:evenodd;fill:url(#linear25);" d="M 143.515625 199.570312 C 143.28125 199.625 143.0625 199.5 142.972656 199.253906 C 142.917969 199.027344 143.097656 198.816406 143.296875 198.730469 L 147.636719 197.761719 C 147.890625 197.726562 148.140625 197.886719 148.179688 198.113281 C 148.253906 198.359375 148.089844 198.570312 147.816406 198.644531 Z M 143.515625 199.570312 "/>
<path style=" stroke:none;fill-rule:evenodd;fill:rgb(99.215686%,78.823529%,5.098039%);fill-opacity:1;" d="M 143.734375 201.535156 C 143.476562 201.566406 143.28125 201.390625 143.242188 201.144531 C 143.242188 200.898438 143.460938 200.707031 143.675781 200.691406 L 148.121094 200.425781 C 148.378906 200.425781 148.59375 200.597656 148.578125 200.84375 C 148.632812 201.078125 148.433594 201.25 148.179688 201.269531 L 143.746094 201.515625 "/>
<path style=" stroke:none;fill-rule:evenodd;fill:url(#linear26);" d="M 143.734375 201.535156 C 143.476562 201.566406 143.28125 201.390625 143.242188 201.144531 C 143.242188 200.898438 143.460938 200.707031 143.675781 200.691406 L 148.121094 200.425781 C 148.378906 200.425781 148.59375 200.597656 148.578125 200.84375 C 148.632812 201.078125 148.433594 201.25 148.179688 201.269531 L 143.746094 201.515625 "/>
<path style=" stroke:none;fill-rule:evenodd;fill:rgb(99.215686%,78.823529%,5.098039%);fill-opacity:1;" d="M 143.589844 203.390625 C 143.371094 203.390625 143.191406 203.179688 143.222656 202.914062 C 143.222656 202.703125 143.476562 202.5625 143.695312 202.5625 L 148.121094 203 C 148.394531 203 148.578125 203.265625 148.519531 203.476562 C 148.519531 203.703125 148.289062 203.882812 148.054688 203.828125 L 143.621094 203.371094 "/>
<path style=" stroke:none;fill-rule:evenodd;fill:url(#linear27);" d="M 143.589844 203.390625 C 143.371094 203.390625 143.191406 203.179688 143.222656 202.914062 C 143.222656 202.703125 143.476562 202.5625 143.695312 202.5625 L 148.121094 203 C 148.394531 203 148.578125 203.265625 148.519531 203.476562 C 148.519531 203.703125 148.289062 203.882812 148.054688 203.828125 L 143.621094 203.371094 "/>
<path style=" stroke:none;fill-rule:evenodd;fill:rgb(99.215686%,78.823529%,5.098039%);fill-opacity:1;" d="M 143.222656 205.15625 C 142.9375 205.089844 142.824219 204.863281 142.863281 204.632812 C 142.9375 204.386719 143.222656 204.28125 143.410156 204.320312 L 147.710938 205.453125 C 147.941406 205.527344 148.109375 205.773438 147.996094 205.984375 C 147.960938 206.230469 147.710938 206.328125 147.457031 206.296875 L 143.210938 205.15625 "/>
<path style=" stroke:none;fill-rule:evenodd;fill:url(#linear28);" d="M 143.222656 205.15625 C 142.9375 205.089844 142.824219 204.863281 142.863281 204.632812 C 142.9375 204.386719 143.222656 204.28125 143.410156 204.320312 L 147.710938 205.453125 C 147.941406 205.527344 148.109375 205.773438 147.996094 205.984375 C 147.960938 206.230469 147.710938 206.328125 147.457031 206.296875 L 143.210938 205.15625 "/>
<path style=" stroke:none;fill-rule:evenodd;fill:rgb(99.215686%,78.823529%,5.098039%);fill-opacity:1;" d="M 142.5 206.769531 C 142.320312 206.703125 142.195312 206.421875 142.320312 206.210938 C 142.394531 206 142.6875 205.933594 142.863281 206 L 146.933594 207.75 C 147.164062 207.875 147.257812 208.152344 147.144531 208.347656 C 147.058594 208.578125 146.789062 208.644531 146.546875 208.558594 L 142.519531 206.753906 "/>
<path style=" stroke:none;fill-rule:evenodd;fill:url(#linear29);" d="M 142.5 206.769531 C 142.320312 206.703125 142.195312 206.421875 142.320312 206.210938 C 142.394531 206 142.6875 205.933594 142.863281 206 L 146.933594 207.75 C 147.164062 207.875 147.257812 208.152344 147.144531 208.347656 C 147.058594 208.578125 146.789062 208.644531 146.546875 208.558594 L 142.519531 206.753906 "/>
<path style=" stroke:none;fill-rule:evenodd;fill:rgb(99.215686%,78.823529%,5.098039%);fill-opacity:1;" d="M 141.597656 208.261719 C 141.386719 208.140625 141.324219 207.875 141.453125 207.664062 C 141.597656 207.457031 141.890625 207.4375 142.089844 207.542969 L 145.792969 209.90625 C 146.011719 210.085938 146.0625 210.34375 145.917969 210.523438 C 145.773438 210.734375 145.488281 210.78125 145.308594 210.640625 L 141.585938 208.28125 "/>
<path style=" stroke:none;fill-rule:evenodd;fill:url(#linear30);" d="M 141.597656 208.261719 C 141.386719 208.140625 141.324219 207.875 141.453125 207.664062 C 141.597656 207.457031 141.890625 207.4375 142.089844 207.542969 L 145.792969 209.90625 C 146.011719 210.085938 146.0625 210.34375 145.917969 210.523438 C 145.773438 210.734375 145.488281 210.78125 145.308594 210.640625 L 141.585938 208.28125 "/>
<path style=" stroke:none;fill-rule:evenodd;fill:rgb(99.215686%,78.823529%,5.098039%);fill-opacity:1;" d="M 140.476562 209.574219 C 140.261719 209.402344 140.261719 209.15625 140.421875 208.964844 C 140.601562 208.785156 140.875 208.785156 141.054688 208.964844 L 144.363281 211.800781 C 144.542969 211.972656 144.585938 212.273438 144.398438 212.410156 C 144.21875 212.589844 143.945312 212.589844 143.789062 212.410156 L 140.496094 209.558594 "/>
<path style=" stroke:none;fill-rule:evenodd;fill:url(#linear31);" d="M 140.476562 209.574219 C 140.261719 209.402344 140.261719 209.15625 140.421875 208.964844 C 140.601562 208.785156 140.875 208.785156 141.054688 208.964844 L 144.363281 211.800781 C 144.542969 211.972656 144.585938 212.273438 144.398438 212.410156 C 144.21875 212.589844 143.945312 212.589844 143.789062 212.410156 L 140.496094 209.558594 "/>
<path style=" stroke:none;fill-rule:evenodd;fill:rgb(99.215686%,78.823529%,5.098039%);fill-opacity:1;" d="M 139.160156 210.679688 C 138.976562 210.5 139.027344 210.257812 139.226562 210.085938 C 139.414062 209.945312 139.664062 209.996094 139.824219 210.171875 L 142.644531 213.5 C 142.792969 213.671875 142.757812 213.96875 142.558594 214.117188 C 142.375 214.289062 142.101562 214.214844 141.960938 214.042969 L 139.121094 210.714844 "/>
<path style=" stroke:none;fill-rule:evenodd;fill:url(#linear32);" d="M 139.160156 210.679688 C 138.976562 210.5 139.027344 210.257812 139.226562 210.085938 C 139.414062 209.945312 139.664062 209.996094 139.824219 210.171875 L 142.644531 213.5 C 142.792969 213.671875 142.757812 213.96875 142.558594 214.117188 C 142.375 214.289062 142.101562 214.214844 141.960938 214.042969 L 139.121094 210.714844 "/>
<path style=" stroke:none;fill-rule:evenodd;fill:rgb(99.215686%,78.823529%,5.098039%);fill-opacity:1;" d="M 137.695312 211.621094 C 137.570312 211.398438 137.640625 211.152344 137.875 211.011719 C 138.09375 210.875 138.34375 210.960938 138.472656 211.183594 L 140.746094 214.867188 C 140.875 215.078125 140.789062 215.355469 140.570312 215.441406 C 140.347656 215.582031 140.097656 215.496094 139.972656 215.304688 Z M 137.695312 211.621094 "/>
<path style=" stroke:none;fill-rule:evenodd;fill:url(#linear33);" d="M 137.695312 211.621094 C 137.570312 211.398438 137.640625 211.152344 137.875 211.011719 C 138.09375 210.875 138.34375 210.960938 138.472656 211.183594 L 140.746094 214.867188 C 140.875 215.078125 140.789062 215.355469 140.570312 215.441406 C 140.347656 215.582031 140.097656 215.496094 139.972656 215.304688 Z M 137.695312 211.621094 "/>
<path style=" stroke:none;fill-rule:evenodd;fill:rgb(99.215686%,78.823529%,5.098039%);fill-opacity:1;" d="M 136.140625 212.292969 C 136.027344 212.082031 136.140625 211.816406 136.375 211.730469 C 136.644531 211.621094 136.878906 211.769531 136.972656 211.972656 L 138.597656 215.972656 C 138.703125 216.199219 138.597656 216.464844 138.363281 216.53125 C 138.144531 216.636719 137.894531 216.53125 137.820312 216.320312 Z M 136.140625 212.292969 "/>
<path style=" stroke:none;fill-rule:evenodd;fill:url(#linear34);" d="M 136.140625 212.292969 C 136.027344 212.082031 136.140625 211.816406 136.375 211.730469 C 136.644531 211.621094 136.878906 211.769531 136.972656 211.972656 L 138.597656 215.972656 C 138.703125 216.199219 138.597656 216.464844 138.363281 216.53125 C 138.144531 216.636719 137.894531 216.53125 137.820312 216.320312 Z M 136.140625 212.292969 "/>
<path style=" stroke:none;fill-rule:evenodd;fill:rgb(99.215686%,78.823529%,5.098039%);fill-opacity:1;" d="M 134.496094 212.710938 C 134.402344 212.464844 134.570312 212.238281 134.820312 212.1875 C 135.054688 212.152344 135.273438 212.292969 135.324219 212.539062 L 136.300781 216.742188 C 136.355469 216.988281 136.175781 217.199219 135.941406 217.265625 C 135.722656 217.300781 135.503906 217.148438 135.429688 216.914062 Z M 134.496094 212.710938 "/>
<path style=" stroke:none;fill-rule:evenodd;fill:url(#linear35);" d="M 134.496094 212.710938 C 134.402344 212.464844 134.570312 212.238281 134.820312 212.1875 C 135.054688 212.152344 135.273438 212.292969 135.324219 212.539062 L 136.300781 216.742188 C 136.355469 216.988281 136.175781 217.199219 135.941406 217.265625 C 135.722656 217.300781 135.503906 217.148438 135.429688 216.914062 Z M 134.496094 212.710938 "/>
<path style=" stroke:none;fill-rule:evenodd;fill:rgb(99.215686%,78.823529%,5.098039%);fill-opacity:1;" d="M 132.777344 212.851562 C 132.742188 212.605469 132.921875 212.410156 133.195312 212.398438 C 133.445312 212.398438 133.625 212.570312 133.644531 212.816406 L 133.863281 217.109375 C 133.863281 217.375 133.679688 217.585938 133.445312 217.585938 C 133.175781 217.585938 132.976562 217.375 132.976562 217.179688 L 132.757812 212.871094 "/>
<path style=" stroke:none;fill-rule:evenodd;fill:url(#linear36);" d="M 132.777344 212.851562 C 132.742188 212.605469 132.921875 212.410156 133.195312 212.398438 C 133.445312 212.398438 133.625 212.570312 133.644531 212.816406 L 133.863281 217.109375 C 133.863281 217.375 133.679688 217.585938 133.445312 217.585938 C 133.175781 217.585938 132.976562 217.375 132.976562 217.179688 L 132.757812 212.871094 "/>
<path style=" stroke:none;fill-rule:evenodd;fill:rgb(99.215686%,78.823529%,5.098039%);fill-opacity:1;" d="M 131.042969 212.710938 C 131.042969 212.445312 131.277344 212.324219 131.527344 212.359375 C 131.800781 212.359375 131.925781 212.589844 131.894531 212.835938 L 131.347656 217.074219 C 131.308594 217.339844 131.078125 217.511719 130.859375 217.480469 C 130.605469 217.480469 130.445312 217.214844 130.460938 217.007812 L 131.042969 212.730469 "/>
<path style=" stroke:none;fill-rule:evenodd;fill:url(#linear37);" d="M 131.042969 212.710938 C 131.042969 212.445312 131.277344 212.324219 131.527344 212.359375 C 131.800781 212.359375 131.925781 212.589844 131.894531 212.835938 L 131.347656 217.074219 C 131.308594 217.339844 131.078125 217.511719 130.859375 217.480469 C 130.605469 217.480469 130.445312 217.214844 130.460938 217.007812 L 131.042969 212.730469 "/>
<path style=" stroke:none;fill-rule:evenodd;fill:rgb(99.215686%,78.823529%,5.098039%);fill-opacity:1;" d="M 129.304688 212.253906 C 129.34375 212.027344 129.597656 211.90625 129.847656 211.972656 C 130.070312 212.046875 130.175781 212.292969 130.101562 212.5 L 128.800781 216.605469 C 128.746094 216.882812 128.4375 216.988281 128.257812 216.914062 C 128.003906 216.847656 127.898438 216.605469 127.953125 216.390625 Z M 129.304688 212.253906 "/>
<path style=" stroke:none;fill-rule:evenodd;fill:url(#linear38);" d="M 129.304688 212.253906 C 129.34375 212.027344 129.597656 211.90625 129.847656 211.972656 C 130.070312 212.046875 130.175781 212.292969 130.101562 212.5 L 128.800781 216.605469 C 128.746094 216.882812 128.4375 216.988281 128.257812 216.914062 C 128.003906 216.847656 127.898438 216.605469 127.953125 216.390625 Z M 129.304688 212.253906 "/>
<path style=" stroke:none;fill-rule:evenodd;fill:rgb(99.215686%,78.823529%,5.098039%);fill-opacity:1;" d="M 127.5 211.484375 C 127.605469 211.226562 127.898438 211.183594 128.109375 211.277344 C 128.347656 211.398438 128.402344 211.621094 128.296875 211.867188 L 126.273438 215.6875 C 126.144531 215.921875 125.90625 216.007812 125.65625 215.867188 C 125.4375 215.792969 125.382812 215.515625 125.476562 215.335938 Z M 127.5 211.484375 "/>
<path style=" stroke:none;fill-rule:evenodd;fill:url(#linear39);" d="M 127.5 211.484375 C 127.605469 211.226562 127.898438 211.183594 128.109375 211.277344 C 128.347656 211.398438 128.402344 211.621094 128.296875 211.867188 L 126.273438 215.6875 C 126.144531 215.921875 125.90625 216.007812 125.65625 215.867188 C 125.4375 215.792969 125.382812 215.515625 125.476562 215.335938 Z M 127.5 211.484375 "/>
<path style=" stroke:none;fill-rule:evenodd;fill:rgb(99.215686%,78.823529%,5.098039%);fill-opacity:1;" d="M 94.234375 209.273438 L 95.859375 211.867188 L 103.566406 211.132812 L 108.664062 209.957031 L 109.890625 207.332031 L 107.175781 200.5 L 99.910156 197.394531 L 93.457031 201.195312 L 94.222656 209.261719 Z M 94.925781 215.410156 C 94.308594 215.410156 93.730469 215.089844 93.425781 214.566406 L 91.003906 210.714844 C 90.855469 210.5 90.78125 210.257812 90.761719 210.011719 L 89.859375 200.460938 C 89.808594 199.816406 90.132812 199.179688 90.710938 198.847656 L 98.878906 194.035156 C 99.371094 193.734375 99.96875 193.683594 100.507812 193.925781 L 109.3125 197.675781 C 109.746094 197.855469 110.070312 198.199219 110.25 198.644531 L 113.46875 206.769531 C 113.613281 207.191406 113.59375 207.648438 113.414062 208.066406 L 111.539062 212.167969 C 111.320312 212.644531 110.867188 213.007812 110.324219 213.136719 L 104.125 214.5 L 95.085938 215.375 L 94.90625 215.375 Z M 94.925781 215.410156 "/>
<path style=" stroke:none;fill-rule:evenodd;fill:url(#linear40);" d="M 94.234375 209.273438 L 95.859375 211.867188 L 103.566406 211.132812 L 108.664062 209.957031 L 109.890625 207.332031 L 107.175781 200.5 L 99.910156 197.394531 L 93.457031 201.195312 L 94.222656 209.261719 Z M 94.925781 215.410156 C 94.308594 215.410156 93.730469 215.089844 93.425781 214.566406 L 91.003906 210.714844 C 90.855469 210.5 90.78125 210.257812 90.761719 210.011719 L 89.859375 200.460938 C 89.808594 199.816406 90.132812 199.179688 90.710938 198.847656 L 98.878906 194.035156 C 99.371094 193.734375 99.96875 193.683594 100.507812 193.925781 L 109.3125 197.675781 C 109.746094 197.855469 110.070312 198.199219 110.25 198.644531 L 113.46875 206.769531 C 113.613281 207.191406 113.59375 207.648438 113.414062 208.066406 L 111.539062 212.167969 C 111.320312 212.644531 110.867188 213.007812 110.324219 213.136719 L 104.125 214.5 L 95.085938 215.375 L 94.90625 215.375 Z M 94.925781 215.410156 "/>
<path style=" stroke:none;fill-rule:evenodd;fill:rgb(99.215686%,78.823529%,5.098039%);fill-opacity:1;" d="M 96.152344 197.589844 L 92.0625 158.753906 C 92.0625 158.753906 102.476562 157.476562 105.445312 158.199219 L 105.445312 198.152344 "/>
<path style=" stroke:none;fill-rule:evenodd;fill:url(#linear41);" d="M 96.152344 197.589844 L 92.0625 158.753906 C 92.0625 158.753906 102.476562 157.476562 105.445312 158.199219 L 105.445312 198.152344 "/>
<path style=" stroke:none;fill-rule:evenodd;fill:rgb(99.215686%,78.823529%,5.098039%);fill-opacity:1;" d="M 123.628906 219.613281 C 119.761719 219.613281 116.46875 217.546875 116.039062 217.246094 L 114.769531 216.410156 L 113.8125 210.589844 L 112.546875 210.414062 L 113.59375 203.636719 L 120 204.578125 L 121.226562 212.207031 C 122.308594 212.644531 123.722656 212.988281 124.660156 212.550781 C 125.675781 212.101562 126.472656 210.574219 126.976562 208.28125 L 123.210938 204.910156 L 122.8125 200.183594 C 122.742188 199.304688 122.382812 192.050781 127.121094 187.425781 C 128.886719 185.667969 132.09375 183.640625 137.371094 183.917969 L 138.597656 183.953125 L 139.539062 184.761719 C 139.613281 184.847656 148.644531 192.433594 158.480469 191.910156 C 168.425781 191.421875 176.382812 189.335938 177.695312 188.933594 L 214.507812 172.808594 L 217.453125 179.03125 L 179.941406 195.453125 C 179.582031 195.570312 170.574219 198.152344 158.828125 198.742188 C 148.339844 199.273438 138.996094 193.066406 135.941406 190.757812 C 134.316406 190.84375 133.046875 191.335938 132.144531 192.230469 C 129.976562 194.332031 129.757812 198.410156 129.828125 199.671875 L 130.007812 201.726562 L 134.441406 205.71875 L 134.222656 207.472656 C 133.53125 213.339844 131.296875 217.160156 127.625 218.824219 C 126.285156 219.402344 124.953125 219.648438 123.652344 219.648438 "/>
<path style=" stroke:none;fill-rule:evenodd;fill:url(#linear42);" d="M 123.628906 219.613281 C 119.761719 219.613281 116.46875 217.546875 116.039062 217.246094 L 114.769531 216.410156 L 113.8125 210.589844 L 112.546875 210.414062 L 113.59375 203.636719 L 120 204.578125 L 121.226562 212.207031 C 122.308594 212.644531 123.722656 212.988281 124.660156 212.550781 C 125.675781 212.101562 126.472656 210.574219 126.976562 208.28125 L 123.210938 204.910156 L 122.8125 200.183594 C 122.742188 199.304688 122.382812 192.050781 127.121094 187.425781 C 128.886719 185.667969 132.09375 183.640625 137.371094 183.917969 L 138.597656 183.953125 L 139.539062 184.761719 C 139.613281 184.847656 148.644531 192.433594 158.480469 191.910156 C 168.425781 191.421875 176.382812 189.335938 177.695312 188.933594 L 214.507812 172.808594 L 217.453125 179.03125 L 179.941406 195.453125 C 179.582031 195.570312 170.574219 198.152344 158.828125 198.742188 C 148.339844 199.273438 138.996094 193.066406 135.941406 190.757812 C 134.316406 190.84375 133.046875 191.335938 132.144531 192.230469 C 129.976562 194.332031 129.757812 198.410156 129.828125 199.671875 L 130.007812 201.726562 L 134.441406 205.71875 L 134.222656 207.472656 C 133.53125 213.339844 131.296875 217.160156 127.625 218.824219 C 126.285156 219.402344 124.953125 219.648438 123.652344 219.648438 "/>
<path style=" stroke:none;fill-rule:evenodd;fill:rgb(99.215686%,78.823529%,5.098039%);fill-opacity:1;" d="M 368.523438 74.800781 L 352.976562 87.363281 C 336.796875 99.933594 328.394531 85.964844 328.394531 85.964844 L 316.929688 82.507812 L 247.113281 152.183594 C 247.113281 152.183594 289.148438 149.726562 302.792969 133.910156 C 302.792969 133.910156 312.066406 125.320312 316.480469 104.765625 C 316.480469 104.765625 333.523438 103.050781 337.089844 103.050781 C 368.503906 103.050781 372.914062 90.1875 372.914062 90.1875 L 368.503906 74.769531 "/>
<path style=" stroke:none;fill-rule:evenodd;fill:url(#linear43);" d="M 368.523438 74.800781 L 352.976562 87.363281 C 336.796875 99.933594 328.394531 85.964844 328.394531 85.964844 L 316.929688 82.507812 L 247.113281 152.183594 C 247.113281 152.183594 289.148438 149.726562 302.792969 133.910156 C 302.792969 133.910156 312.066406 125.320312 316.480469 104.765625 C 316.480469 104.765625 333.523438 103.050781 337.089844 103.050781 C 368.503906 103.050781 372.914062 90.1875 372.914062 90.1875 L 368.503906 74.769531 "/>
<path style=" stroke:none;fill-rule:evenodd;fill:rgb(99.215686%,78.823529%,5.098039%);fill-opacity:1;" d="M 192.523438 223.414062 C 183.539062 223.414062 172.128906 222.242188 165.078125 217.109375 C 152.480469 207.929688 145.8125 193.050781 145.519531 192.402344 L 148.773438 191.054688 C 148.832031 191.226562 155.355469 205.773438 167.175781 214.363281 C 178.785156 222.804688 205.269531 219.195312 205.554688 219.15625 L 206.042969 222.558594 C 205.5 222.632812 199.804688 223.433594 192.484375 223.433594 "/>
<path style=" stroke:none;fill-rule:evenodd;fill:url(#linear44);" d="M 192.523438 223.414062 C 183.539062 223.414062 172.128906 222.242188 165.078125 217.109375 C 152.480469 207.929688 145.8125 193.050781 145.519531 192.402344 L 148.773438 191.054688 C 148.832031 191.226562 155.355469 205.773438 167.175781 214.363281 C 178.785156 222.804688 205.269531 219.195312 205.554688 219.15625 L 206.042969 222.558594 C 205.5 222.632812 199.804688 223.433594 192.484375 223.433594 "/>
<path style=" stroke:none;fill-rule:evenodd;fill:rgb(99.215686%,78.823529%,5.098039%);fill-opacity:1;" d="M 197.382812 223.222656 C 197.382812 223.222656 203.621094 211.867188 213.292969 221.71875 C 223.003906 231.566406 197.382812 223.222656 197.382812 223.222656 Z M 197.382812 223.222656 "/>
<path style=" stroke:none;fill-rule:evenodd;fill:url(#linear45);" d="M 197.382812 223.222656 C 197.382812 223.222656 203.621094 211.867188 213.292969 221.71875 C 223.003906 231.566406 197.382812 223.222656 197.382812 223.222656 Z M 197.382812 223.222656 "/>
<path style=" stroke:none;fill-rule:evenodd;fill:rgb(99.215686%,78.823529%,5.098039%);fill-opacity:1;" d="M 203.316406 128.191406 C 203.316406 128.191406 212.820312 132.332031 215.0625 139.898438 Z M 203.316406 128.191406 "/>
<path style=" stroke:none;fill-rule:evenodd;fill:url(#linear46);" d="M 203.316406 128.191406 C 203.316406 128.191406 212.820312 132.332031 215.0625 139.898438 Z M 203.316406 128.191406 "/>
<path style=" stroke:none;fill-rule:evenodd;fill:rgb(99.215686%,78.823529%,5.098039%);fill-opacity:1;" d="M 383.90625 23.527344 L 382.820312 18.5625 L 378.484375 21.402344 C 363.121094 31.390625 344.316406 42.382812 340.738281 42.660156 C 334.5 42.660156 317.8125 43.886719 317.089844 43.960938 L 316.605469 44.027344 C 305.25 46.554688 298.976562 50.632812 297.445312 56.542969 C 295.871094 62.585938 300.121094 67.898438 302.394531 70.210938 C 301.746094 83.875 292.273438 95.527344 289.289062 98.855469 C 274.953125 99.964844 267.144531 110.019531 264.074219 115.105469 C 236.542969 106.519531 207.847656 121.625 202.339844 124.742188 L 175.984375 124.742188 L 175.527344 124.777344 C 174.265625 124.917969 145.160156 128.628906 130.195312 136.570312 C 119.78125 142.085938 117.054688 152.234375 116.457031 159.210938 C 111.445312 156.09375 103.851562 152.554688 96.078125 153.480469 C 89.753906 154.21875 84.417969 157.632812 80.261719 163.644531 C 78.019531 166.972656 74.789062 177.3125 77.191406 187.441406 C 78.960938 194.855469 83.480469 200.8125 90.257812 204.664062 L 93.824219 198.710938 C 88.6875 195.816406 85.433594 191.492188 84.113281 185.882812 C 82.179688 177.855469 84.804688 169.445312 86.175781 167.449219 C 89.15625 163.121094 92.648438 160.792969 96.910156 160.261719 C 106.910156 159.085938 117.609375 168.550781 117.738281 168.636719 L 124.964844 175.125 L 123.628906 165.660156 C 123.628906 165.488281 121.386719 149.011719 133.574219 142.578125 C 146.734375 135.609375 173.523438 131.925781 176.238281 131.574219 L 204.324219 131.574219 L 205.195312 131.050781 C 205.5 130.839844 237.011719 112.121094 264.523438 122.460938 L 267.691406 123.65625 L 269.042969 120.625 C 269.316406 120.027344 275.660156 106.078125 291.039062 105.554688 L 292.453125 105.515625 L 293.429688 104.519531 C 294.078125 103.871094 309.425781 88.3125 309.425781 68.738281 L 309.425781 67.160156 L 308.21875 66.144531 C 307.167969 65.265625 303.425781 61.289062 304.242188 58.152344 C 304.691406 56.402344 307.074219 53.140625 317.886719 50.707031 C 320.058594 50.527344 335.171875 49.476562 340.71875 49.476562 C 345.273438 49.476562 358.558594 41.910156 369.730469 35.039062 C 366.152344 38.828125 360.78125 43.675781 352.738281 49.722656 C 351.78125 50.425781 351.164062 50.878906 350.933594 51.015625 L 349.214844 52.316406 L 349.757812 56.257812 L 351.617188 57.03125 C 353.011719 57.558594 353.859375 57.382812 355.234375 56.503906 C 355.738281 56.15625 356.324219 55.699219 357.046875 55.15625 C 383.980469 35.007812 384.390625 25.839844 383.90625 23.503906 "/>
<path style=" stroke:none;fill-rule:evenodd;fill:url(#linear47);" d="M 383.90625 23.527344 L 382.820312 18.5625 L 378.484375 21.402344 C 363.121094 31.390625 344.316406 42.382812 340.738281 42.660156 C 334.5 42.660156 317.8125 43.886719 317.089844 43.960938 L 316.605469 44.027344 C 305.25 46.554688 298.976562 50.632812 297.445312 56.542969 C 295.871094 62.585938 300.121094 67.898438 302.394531 70.210938 C 301.746094 83.875 292.273438 95.527344 289.289062 98.855469 C 274.953125 99.964844 267.144531 110.019531 264.074219 115.105469 C 236.542969 106.519531 207.847656 121.625 202.339844 124.742188 L 175.984375 124.742188 L 175.527344 124.777344 C 174.265625 124.917969 145.160156 128.628906 130.195312 136.570312 C 119.78125 142.085938 117.054688 152.234375 116.457031 159.210938 C 111.445312 156.09375 103.851562 152.554688 96.078125 153.480469 C 89.753906 154.21875 84.417969 157.632812 80.261719 163.644531 C 78.019531 166.972656 74.789062 177.3125 77.191406 187.441406 C 78.960938 194.855469 83.480469 200.8125 90.257812 204.664062 L 93.824219 198.710938 C 88.6875 195.816406 85.433594 191.492188 84.113281 185.882812 C 82.179688 177.855469 84.804688 169.445312 86.175781 167.449219 C 89.15625 163.121094 92.648438 160.792969 96.910156 160.261719 C 106.910156 159.085938 117.609375 168.550781 117.738281 168.636719 L 124.964844 175.125 L 123.628906 165.660156 C 123.628906 165.488281 121.386719 149.011719 133.574219 142.578125 C 146.734375 135.609375 173.523438 131.925781 176.238281 131.574219 L 204.324219 131.574219 L 205.195312 131.050781 C 205.5 130.839844 237.011719 112.121094 264.523438 122.460938 L 267.691406 123.65625 L 269.042969 120.625 C 269.316406 120.027344 275.660156 106.078125 291.039062 105.554688 L 292.453125 105.515625 L 293.429688 104.519531 C 294.078125 103.871094 309.425781 88.3125 309.425781 68.738281 L 309.425781 67.160156 L 308.21875 66.144531 C 307.167969 65.265625 303.425781 61.289062 304.242188 58.152344 C 304.691406 56.402344 307.074219 53.140625 317.886719 50.707031 C 320.058594 50.527344 335.171875 49.476562 340.71875 49.476562 C 345.273438 49.476562 358.558594 41.910156 369.730469 35.039062 C 366.152344 38.828125 360.78125 43.675781 352.738281 49.722656 C 351.78125 50.425781 351.164062 50.878906 350.933594 51.015625 L 349.214844 52.316406 L 349.757812 56.257812 L 351.617188 57.03125 C 353.011719 57.558594 353.859375 57.382812 355.234375 56.503906 C 355.738281 56.15625 356.324219 55.699219 357.046875 55.15625 C 383.980469 35.007812 384.390625 25.839844 383.90625 23.503906 "/>
<path style=" stroke:none;fill-rule:evenodd;fill:rgb(99.215686%,78.823529%,5.098039%);fill-opacity:1;" d="M 231.53125 164.414062 L 227.554688 158.753906 L 240.246094 150.410156 C 264.722656 141.125 279.007812 130.050781 280.773438 128.628906 L 303.152344 103.261719 L 322.027344 59.308594 L 325.824219 57.960938 C 329.296875 57.644531 333.652344 55.367188 336.492188 53.875 C 338.476562 52.828125 339.710938 52.191406 340.886719 52 L 353.105469 49.988281 L 354.3125 56.734375 L 342.074219 58.75 C 341.933594 58.816406 340.8125 59.445312 339.847656 59.90625 C 336.671875 61.570312 331.972656 64.042969 327.378906 64.6875 L 308.886719 107.273438 L 285.5625 133.625 C 284.96875 134.15625 270.253906 146.300781 243.191406 156.652344 L 231.53125 164.367188 "/>
<path style=" stroke:none;fill-rule:evenodd;fill:url(#linear48);" d="M 231.53125 164.414062 L 227.554688 158.753906 L 240.246094 150.410156 C 264.722656 141.125 279.007812 130.050781 280.773438 128.628906 L 303.152344 103.261719 L 322.027344 59.308594 L 325.824219 57.960938 C 329.296875 57.644531 333.652344 55.367188 336.492188 53.875 C 338.476562 52.828125 339.710938 52.191406 340.886719 52 L 353.105469 49.988281 L 354.3125 56.734375 L 342.074219 58.75 C 341.933594 58.816406 340.8125 59.445312 339.847656 59.90625 C 336.671875 61.570312 331.972656 64.042969 327.378906 64.6875 L 308.886719 107.273438 L 285.5625 133.625 C 284.96875 134.15625 270.253906 146.300781 243.191406 156.652344 L 231.53125 164.367188 "/>
<path style=" stroke:none;fill-rule:evenodd;fill:rgb(99.215686%,78.823529%,5.098039%);fill-opacity:1;" d="M 274.46875 199.027344 C 274.46875 221.898438 258.011719 212.445312 258.011719 212.445312 L 249.160156 203.339844 C 249.160156 203.339844 218.390625 179.382812 211.140625 178.710938 C 195.683594 177.347656 174.390625 163.011719 160.996094 168.476562 C 159.835938 168.96875 158.734375 169.394531 157.652344 169.757812 C 131.371094 179.011719 128.636719 161.070312 128.636719 161.070312 C 128.636719 161.070312 126.285156 142.8125 162.171875 142.234375 C 198.03125 141.636719 232.707031 161.613281 232.707031 161.613281 L 254.476562 194.730469 C 254.476562 194.730469 262.71875 195.605469 265.070312 201.878906 C 265.070312 201.878906 274.46875 193.875 274.46875 199.027344 Z M 274.46875 199.027344 "/>
<path style=" stroke:none;fill-rule:evenodd;fill:url(#linear49);" d="M 274.46875 199.027344 C 274.46875 221.898438 258.011719 212.445312 258.011719 212.445312 L 249.160156 203.339844 C 249.160156 203.339844 218.390625 179.382812 211.140625 178.710938 C 195.683594 177.347656 174.390625 163.011719 160.996094 168.476562 C 159.835938 168.96875 158.734375 169.394531 157.652344 169.757812 C 131.371094 179.011719 128.636719 161.070312 128.636719 161.070312 C 128.636719 161.070312 126.285156 142.8125 162.171875 142.234375 C 198.03125 141.636719 232.707031 161.613281 232.707031 161.613281 L 254.476562 194.730469 C 254.476562 194.730469 262.71875 195.605469 265.070312 201.878906 C 265.070312 201.878906 274.46875 193.875 274.46875 199.027344 Z M 274.46875 199.027344 "/>
<path style=" stroke:none;fill-rule:evenodd;fill:rgb(99.215686%,78.823529%,5.098039%);fill-opacity:1;" d="M 381.390625 25.925781 C 381.390625 25.925781 347.859375 47.78125 341.714844 47.78125 C 335.515625 47.78125 318.339844 49.058594 318.339844 49.058594 C 289.234375 55.488281 306.863281 70.46875 306.863281 70.46875 C 306.863281 88.867188 291.855469 103.871094 291.855469 103.871094 C 273.960938 104.433594 266.726562 121.007812 266.726562 121.007812 C 237.191406 109.867188 204.273438 129.859375 204.273438 129.859375 L 176.921875 129.859375 C 176.921875 129.859375 147.363281 133.539062 132.816406 141.253906 C 118.28125 148.960938 121.0625 167.816406 121.0625 167.816406 C 121.0625 167.816406 98.019531 147.089844 84.1875 167.257812 C 81.292969 171.421875 75.722656 192.316406 91.8125 202.601562 L 91.632812 200.289062 L 99.769531 195.464844 L 108.589844 199.21875 L 111.789062 207.351562 L 111.484375 208.046875 L 114.046875 208.679688 L 117.84375 209.273438 L 117.570312 217.832031 C 117.570312 217.832031 129.921875 223.261719 131.675781 208.679688 L 127.574219 205.003906 L 127.261719 201.566406 C 127.261719 201.566406 126.359375 188.421875 138.144531 188.984375 C 138.144531 188.984375 148.140625 197.570312 159.605469 196.992188 C 171.066406 196.382812 179.886719 193.839844 179.886719 193.839844 L 216.941406 177.539062 L 233.089844 161.839844 L 242.488281 155.265625 C 269.527344 144.980469 284.242188 132.695312 284.242188 132.695312 L 307.1875 106.761719 L 325.710938 63.617188 L 327.160156 63.0625 C 333.363281 62.476562 340.71875 57.34375 342.472656 57.046875 L 354.691406 55.03125 L 355.863281 54.152344 C 383.164062 33.726562 381.445312 25.945312 381.445312 25.945312 "/>
<path style=" stroke:none;fill-rule:evenodd;fill:url(#linear50);" d="M 381.390625 25.925781 C 381.390625 25.925781 347.859375 47.78125 341.714844 47.78125 C 335.515625 47.78125 318.339844 49.058594 318.339844 49.058594 C 289.234375 55.488281 306.863281 70.46875 306.863281 70.46875 C 306.863281 88.867188 291.855469 103.871094 291.855469 103.871094 C 273.960938 104.433594 266.726562 121.007812 266.726562 121.007812 C 237.191406 109.867188 204.273438 129.859375 204.273438 129.859375 L 176.921875 129.859375 C 176.921875 129.859375 147.363281 133.539062 132.816406 141.253906 C 118.28125 148.960938 121.0625 167.816406 121.0625 167.816406 C 121.0625 167.816406 98.019531 147.089844 84.1875 167.257812 C 81.292969 171.421875 75.722656 192.316406 91.8125 202.601562 L 91.632812 200.289062 L 99.769531 195.464844 L 108.589844 199.21875 L 111.789062 207.351562 L 111.484375 208.046875 L 114.046875 208.679688 L 117.84375 209.273438 L 117.570312 217.832031 C 117.570312 217.832031 129.921875 223.261719 131.675781 208.679688 L 127.574219 205.003906 L 127.261719 201.566406 C 127.261719 201.566406 126.359375 188.421875 138.144531 188.984375 C 138.144531 188.984375 148.140625 197.570312 159.605469 196.992188 C 171.066406 196.382812 179.886719 193.839844 179.886719 193.839844 L 216.941406 177.539062 L 233.089844 161.839844 L 242.488281 155.265625 C 269.527344 144.980469 284.242188 132.695312 284.242188 132.695312 L 307.1875 106.761719 L 325.710938 63.617188 L 327.160156 63.0625 C 333.363281 62.476562 340.71875 57.34375 342.472656 57.046875 L 354.691406 55.03125 L 355.863281 54.152344 C 383.164062 33.726562 381.445312 25.945312 381.445312 25.945312 "/>
<path style=" stroke:none;fill-rule:evenodd;fill:rgb(99.215686%,78.823529%,5.098039%);fill-opacity:1;" d="M 297.457031 191.003906 C 283.652344 249.773438 229.421875 293.757812 164.808594 293.757812 C 89.789062 293.757812 28.757812 234.476562 28.757812 161.59375 C 28.757812 88.730469 89.789062 29.429688 164.808594 29.429688 C 194.457031 29.429688 221.933594 38.71875 244.3125 54.417969 C 249.191406 46.449219 254.855469 38.753906 261.597656 32.113281 C 234.390625 12.832031 200.945312 1.445312 164.808594 1.445312 C 73.9375 1.445312 0 73.296875 0 161.539062 C 0 249.824219 73.9375 321.65625 164.808594 321.65625 C 245.507812 321.65625 312.863281 265 326.90625 190.492188 C 317.21875 191.683594 306.949219 191.367188 297.476562 190.960938 "/>
<path style=" stroke:none;fill-rule:evenodd;fill:url(#linear51);" d="M 297.457031 191.003906 C 283.652344 249.773438 229.421875 293.757812 164.808594 293.757812 C 89.789062 293.757812 28.757812 234.476562 28.757812 161.59375 C 28.757812 88.730469 89.789062 29.429688 164.808594 29.429688 C 194.457031 29.429688 221.933594 38.71875 244.3125 54.417969 C 249.191406 46.449219 254.855469 38.753906 261.597656 32.113281 C 234.390625 12.832031 200.945312 1.445312 164.808594 1.445312 C 73.9375 1.445312 0 73.296875 0 161.539062 C 0 249.824219 73.9375 321.65625 164.808594 321.65625 C 245.507812 321.65625 312.863281 265 326.90625 190.492188 C 317.21875 191.683594 306.949219 191.367188 297.476562 190.960938 "/>
</g>
</svg>
