<svg width="24" height="24" viewBox="0 0 24 24" fill="none" xmlns="http://www.w3.org/2000/svg">
<g clip-path="url(#clip0_3644_12674)">
<path d="M20.1797 4.71679C19.7266 4.71679 19.3594 5.08405 19.3594 5.53711V8.44922H17.5611C17.1522 6.14434 15.1322 4.38838 12.7093 4.38838H4.92741C2.21046 4.38838 0 6.59638 0 9.31042C0 10.6138 0.505025 11.8422 1.42201 12.7693C2.33781 13.6952 3.5593 14.2145 4.86146 14.2317C4.87524 14.2319 4.88873 14.2317 4.90235 14.2312C5.13434 14.2227 5.3678 14.1943 5.59613 14.1466C7.32084 13.7869 8.12109 13.0149 8.59917 12.5536C8.665 12.4901 8.74629 12.4117 8.81073 12.3557C8.87931 12.4142 8.96897 12.5015 9.04095 12.5715C9.53982 13.0573 10.2937 13.7913 11.9973 14.1466C12.2307 14.1953 12.4697 14.2239 12.7073 14.2316C12.7162 14.2319 12.7251 14.2321 12.734 14.2321H12.7389C14.0487 14.2243 15.2789 13.7091 16.2028 12.7813C16.9414 12.0397 17.4145 11.1039 17.5752 10.0898H19.3594V17.2266C19.3594 18.4026 18.4026 19.3594 17.2266 19.3594H11.6895C10.5134 19.3594 9.55664 18.4026 9.55664 17.2266V16.7386C9.99333 16.8271 10.3977 16.9611 10.57 17.0276C10.6674 17.0653 10.7676 17.0832 10.8662 17.0832C11.1946 17.0832 11.5047 16.8845 11.6309 16.56C11.7952 16.1378 11.586 15.6623 11.1637 15.4982C11.0357 15.4484 9.88206 15.0117 8.81561 15.0117C7.74916 15.0117 6.59556 15.4484 6.46751 15.4982C6.04525 15.6623 5.83607 16.1378 6.0003 16.56C6.16448 16.9822 6.63977 17.1915 7.06215 17.0272C7.21243 16.9688 7.54167 16.8581 7.91602 16.7721V17.2266C7.91602 19.3072 9.60877 21 11.6895 21H17.2266C19.3072 21 21 19.3072 21 17.2266V5.53711C21 5.08405 20.6327 4.71679 20.1797 4.71679ZM12.7453 12.5914C12.6071 12.586 12.4683 12.5689 12.3323 12.5406C11.0961 12.2828 10.5912 11.7912 10.1855 11.3961C9.86389 11.083 9.50201 10.7306 8.93677 10.6726C8.89809 10.6669 8.85855 10.6641 8.81836 10.6641H8.77513C8.72923 10.6641 8.6842 10.6678 8.64035 10.6751C8.11712 10.739 7.76955 11.0744 7.46009 11.3729C7.04234 11.776 6.52247 12.2775 5.26128 12.5405C5.12974 12.568 4.99562 12.5849 4.86228 12.5908C3.08396 12.5562 1.64062 11.0889 1.64062 9.31042C1.64062 7.50106 3.11505 6.02901 4.92741 6.02901H12.7093C14.5217 6.02901 15.9961 7.50106 15.9961 9.31042C15.9961 11.1036 14.5393 12.5721 12.7453 12.5914Z" fill="#000345"/>
<path d="M20.1797 0C19.7266 0 19.3594 0.367254 19.3594 0.820312V2.25586C19.3594 2.70892 19.7266 3.07617 20.1797 3.07617C20.6327 3.07617 21 2.70892 21 2.25586V0.820312C21 0.367254 20.6327 0 20.1797 0Z" fill="#000345"/>
<rect x="13.2" y="13.2" width="11.1" height="11.1" rx="5.55" fill="#000345" stroke="#FDC90D" stroke-width="0.6"/>
<path d="M19.1919 15.1831C19.0747 15.0658 18.9158 15 18.75 15C18.5842 15 18.4253 15.0658 18.3081 15.1831C18.1908 15.3003 18.125 15.4592 18.125 15.625V18.125H15.625C15.4592 18.125 15.3003 18.1908 15.1831 18.3081C15.0658 18.4253 15 18.5842 15 18.75C15 18.9158 15.0658 19.0747 15.1831 19.1919C15.3003 19.3092 15.4592 19.375 15.625 19.375H18.125V21.875C18.125 22.0408 18.1908 22.1997 18.3081 22.3169C18.4253 22.4342 18.5842 22.5 18.75 22.5C18.9158 22.5 19.0747 22.4342 19.1919 22.3169C19.3092 22.1997 19.375 22.0408 19.375 21.875V19.375H21.875C22.0408 19.375 22.1997 19.3092 22.3169 19.1919C22.4342 19.0747 22.5 18.9158 22.5 18.75C22.5 18.5842 22.4342 18.4253 22.3169 18.3081C22.1997 18.1908 22.0408 18.125 21.875 18.125H19.375V15.625C19.375 15.4592 19.3092 15.3003 19.1919 15.1831Z" fill="#FDC90D"/>
</g>
<defs>
<clipPath id="clip0_3644_12674">
<rect width="24" height="24" fill="white"/>
</clipPath>
</defs>
</svg>
