<svg width="24" height="24" viewBox="0 0 24 24" fill="none" xmlns="http://www.w3.org/2000/svg">
<g clip-path="url(#clip0_3190_1937)">
<path d="M3.33163 7.77388C2.91811 7.77388 2.56726 7.91809 2.27885 8.2065C1.99044 8.49491 1.84619 8.84099 1.84619 9.24492V15.4468C1.84619 15.8608 1.9904 16.2114 2.27885 16.4999C2.56726 16.7883 2.91811 16.9325 3.33163 16.9325C3.74485 16.9325 4.09358 16.7883 4.37752 16.4999C4.66089 16.2114 4.80297 15.8608 4.80297 15.4468V9.24492C4.80297 8.84095 4.65877 8.49491 4.37031 8.2065C4.08186 7.91809 3.73556 7.77388 3.33163 7.77388Z" fill="black"/>
<path d="M15.2741 2.20654L16.2982 0.317431C16.3654 0.192364 16.3415 0.0964594 16.2262 0.0290222C16.1011 -0.0291283 16.005 0.000337534 15.9378 0.115337L14.8994 2.01955C13.9857 1.61558 13.0193 1.41322 12.0003 1.41322C10.981 1.41322 10.0145 1.61562 9.10116 2.01955L8.06274 0.115337C7.99526 0.000337534 7.89914 -0.0288679 7.77433 0.0290222C7.65882 0.0967632 7.6349 0.192364 7.70238 0.317431L8.72648 2.20654C7.68806 2.7361 6.86103 3.47361 6.24567 4.42069C5.63032 5.36828 5.32251 6.40379 5.32251 7.52904H18.6635C18.6635 6.40405 18.3557 5.36849 17.7404 4.42069C17.125 3.47361 16.3027 2.7361 15.2741 2.20654ZM9.35347 4.95428C9.24272 5.06529 9.11045 5.12053 8.9567 5.12053C8.80264 5.12053 8.67306 5.06529 8.56735 4.95428C8.46164 4.84379 8.40878 4.71204 8.40878 4.55777C8.40878 4.40402 8.46164 4.27201 8.56735 4.16126C8.67306 4.05078 8.80295 3.99554 8.9567 3.99554C9.11045 3.99554 9.24272 4.05078 9.35347 4.16126C9.46395 4.27227 9.51946 4.40402 9.51946 4.55777C9.51915 4.71178 9.46369 4.84379 9.35347 4.95428ZM15.4326 4.95428C15.3267 5.06529 15.1968 5.12053 15.0433 5.12053C14.8892 5.12053 14.757 5.06529 14.6465 4.95428C14.5358 4.84379 14.4805 4.71204 14.4805 4.55777C14.4805 4.40402 14.5358 4.27201 14.6465 4.16126C14.757 4.05078 14.8892 3.99554 15.0433 3.99554C15.1971 3.99554 15.3266 4.05078 15.4326 4.16126C15.5384 4.27227 15.5912 4.40402 15.5912 4.55777C15.5912 4.71178 15.5384 4.84379 15.4326 4.95428Z" fill="black"/>
<path d="M5.37979 17.6537C5.37979 18.0964 5.53354 18.4712 5.84109 18.7787C6.14889 19.0862 6.52366 19.24 6.96608 19.24H8.03344L8.04807 22.5144C8.04807 22.9279 8.19227 23.279 8.48068 23.5674C8.76909 23.8559 9.11543 24.0001 9.5191 24.0001C9.93236 24.0001 10.2834 23.8559 10.5719 23.5674C10.8603 23.279 11.0045 22.9279 11.0045 22.5144V19.2403H12.9949V22.5144C12.9949 22.9279 13.139 23.279 13.4275 23.5674C13.7159 23.8559 14.0667 24.0001 14.4802 24.0001C14.8935 24.0001 15.2446 23.8559 15.533 23.5674C15.8215 23.279 15.9656 22.9279 15.9656 22.5144V19.2403H17.0474C17.48 19.2403 17.85 19.0865 18.1581 18.779C18.4656 18.4714 18.6194 18.0966 18.6194 17.654V8.04781H5.37979V17.6537Z" fill="black"/>
<path d="M20.6683 7.77388C20.2644 7.77388 19.9183 7.91596 19.6299 8.19934C19.3415 8.48323 19.1973 8.83196 19.1973 9.24492V15.4468C19.1973 15.8608 19.3414 16.2114 19.6299 16.4999C19.9183 16.7883 20.2646 16.9325 20.6683 16.9325C21.0816 16.9325 21.4327 16.7883 21.7211 16.4999C22.0096 16.2114 22.1537 15.8608 22.1537 15.4468V9.24492C22.1537 8.83192 22.0096 8.48323 21.7211 8.19934C21.4327 7.91596 21.0816 7.77388 20.6683 7.77388Z" fill="black"/>
</g>
<defs>
<clipPath id="clip0_3190_1937">
<rect width="24" height="24" fill="white"/>
</clipPath>
</defs>
</svg>
