<svg width="24" height="24" viewBox="0 0 24 24" fill="none" xmlns="http://www.w3.org/2000/svg">
<g clip-path="url(#clip0_3190_6446)">
<path d="M16.499 0C15.2195 0.0884995 13.724 0.907495 12.8525 1.97399C12.0575 2.94148 11.4035 4.37847 11.6585 5.77497C13.0565 5.81847 14.501 4.97997 15.338 3.89548C16.121 2.88598 16.7135 1.45799 16.499 0Z" fill="black"/>
<path d="M21.5556 8.05198C20.3271 6.51149 18.6006 5.6175 16.9701 5.6175C14.8176 5.6175 13.9071 6.64799 12.4116 6.64799C10.8696 6.64799 9.69813 5.6205 7.83665 5.6205C6.00816 5.6205 4.06117 6.73799 2.82668 8.64898C1.09119 11.34 1.38818 16.3994 4.20067 20.7089C5.20716 22.2509 6.55115 23.9849 8.30914 23.9999C9.87363 24.0149 10.3146 22.9964 12.4341 22.9859C14.5536 22.9739 14.9556 24.0134 16.5171 23.9969C18.2766 23.9834 19.6941 22.0619 20.7006 20.5199C21.4221 19.4144 21.6906 18.8579 22.2501 17.6099C18.1806 16.0604 17.5281 10.2735 21.5556 8.05198Z" fill="black"/>
</g>
<defs>
<clipPath id="clip0_3190_6446">
<rect width="24" height="24" fill="white"/>
</clipPath>
</defs>
</svg>
