<svg width="16" height="16" viewBox="0 0 16 16" fill="none" xmlns="http://www.w3.org/2000/svg">
<path d="M16 8C16 12.4183 12.4183 16 8 16C3.58175 16 0 12.4183 0 8C0 8.00187 8 0.00090625 8 0C12.4183 0 16 3.58175 16 8Z" fill="#0052B4"/>
<path d="M7.97864 8.00004H8.00004C8.00004 7.99279 8.00004 7.98586 8.00004 7.97864C7.99292 7.98579 7.98579 7.99292 7.97864 8.00004Z" fill="#F0F0F0"/>
<path d="M8 4.17488C8 2.76723 8 1.84482 8 0.000976562H7.99866C3.581 0.00169531 0 3.5831 0 8.00095H4.17391V5.65057L6.52428 8.00095H7.97862C7.98578 7.99382 7.99291 7.9867 8.00003 7.97954C8.00003 7.44057 8.00003 6.95966 8.00003 6.52529L5.64962 4.17488H8Z" fill="#F0F0F0"/>
<path d="M4.04733 1.04346C2.79611 1.75593 1.75593 2.79611 1.04346 4.04733V7.99999H3.13043V3.13046V3.13043H7.99999C7.99999 2.47221 7.99999 1.84514 7.99999 1.04346H4.04733Z" fill="#D80027"/>
<path d="M7.99988 7.01621L5.15761 4.17396H4.17383C4.17383 4.17393 4.17383 4.17396 4.17383 4.17396L7.99985 8H7.99988C7.99988 8 7.99988 7.32171 7.99988 7.01621Z" fill="#D80027"/>
<path d="M4.82486 9.39136L5.26392 10.3094L6.25539 10.0803L5.81139 10.996L6.6087 11.6282L5.61598 11.852L5.61877 12.8696L4.82486 12.233L4.03098 12.8696L4.03377 11.852L3.04102 11.6282L3.83836 10.996L3.3943 10.0803L4.38583 10.3094L4.82486 9.39136Z" fill="#F0F0F0"/>
<path d="M11.9776 11.1305L12.1971 11.5895L12.6929 11.4749L12.4708 11.9328L12.8695 12.2489L12.3732 12.3608L12.3745 12.8696L11.9776 12.5513L11.5807 12.8696L11.582 12.3608L11.0857 12.2489L11.4843 11.9328L11.2623 11.4749L11.7581 11.5895L11.9776 11.1305Z" fill="#F0F0F0"/>
<path d="M9.9354 6.26086L10.1549 6.71993L10.6506 6.6053L10.4286 7.06315L10.8273 7.37931L10.331 7.49118L10.3323 8L9.9354 7.68165L9.53846 8L9.5398 7.49118L9.04346 7.37931L9.44211 7.06315L9.22011 6.6053L9.71586 6.71993L9.9354 6.26086Z" fill="#F0F0F0"/>
<path d="M11.9776 3.47827L12.1971 3.93733L12.6929 3.82274L12.4709 4.28058L12.8695 4.59671L12.3732 4.70862L12.3745 5.21743L11.9776 4.89908L11.5807 5.21743L11.582 4.70862L11.0857 4.59671L11.4843 4.28058L11.2623 3.82274L11.7581 3.93733L11.9776 3.47827Z" fill="#F0F0F0"/>
<path d="M13.7616 5.56519L13.9811 6.02425L14.4768 5.90962L14.2548 6.36747L14.6535 6.68362L14.1571 6.79553L14.1585 7.30431L13.7616 6.986L13.3646 7.30431L13.366 6.79553L12.8696 6.68362L13.2683 6.36747L13.0463 5.90962L13.542 6.02425L13.7616 5.56519Z" fill="#F0F0F0"/>
<path d="M12.4859 8L12.6585 8.53144H13.2173L12.7652 8.85991L12.938 9.39131L12.4859 9.06287L12.0338 9.39131L12.2065 8.85991L11.7544 8.53144H12.3132L12.4859 8Z" fill="#F0F0F0"/>
</svg>
