<svg width="24" height="24" viewBox="0 0 24 24" fill="none" xmlns="http://www.w3.org/2000/svg">
<g clip-path="url(#clip0_512_31161)">
<path d="M23.8604 20.8806C23.2416 19.1635 21.9355 17.8158 20.3088 17.0905C20.855 16.4517 21.1859 15.6233 21.1859 14.7188C21.1859 13.0602 20.0756 11.657 18.5595 11.2112C18.6541 10.7743 18.6279 10.3063 18.4664 9.86353C17.8276 8.11212 16.4735 6.74158 14.7897 6.0141C15.3287 5.37708 15.6547 4.5542 15.6547 3.65625C15.6547 1.64026 14.0144 0 11.9984 0C9.98242 0 8.34216 1.64026 8.34216 3.65625C8.34216 4.5542 8.66809 5.37689 9.20715 6.0141C7.52331 6.74158 6.16925 8.11212 5.53039 9.86353C5.37183 10.298 5.35058 10.765 5.45715 11.2055C3.93078 11.6451 2.81091 13.0532 2.81091 14.7188C2.81091 15.6233 3.14178 16.4517 3.68799 17.0905C2.06109 17.8156 0.755003 19.1635 0.136289 20.8806C-0.118227 21.5872 -0.0118429 22.377 0.421019 22.9931C0.864134 23.6235 1.59344 24 2.37182 24H5.81091C6.32873 24 6.74841 23.5803 6.74841 23.0625C6.74841 22.5447 6.32873 22.125 5.81091 22.125H2.37182C2.12903 22.125 1.99975 21.9782 1.95526 21.9152C1.90637 21.8452 1.83386 21.7006 1.90033 21.5164C2.57745 19.6375 4.41272 18.375 6.46716 18.375C8.52161 18.375 10.3569 19.6375 11.034 21.5164C11.0551 21.5748 11.0631 21.6286 11.0631 21.6777C11.0633 21.6826 11.0629 21.6874 11.0629 21.6923C11.0594 21.8011 11.0157 21.8837 10.9824 21.9313C10.9315 22.0036 10.8132 22.125 10.5922 22.125C10.0743 22.125 9.65466 22.5447 9.65466 23.0625C9.65466 23.5803 10.0743 24 10.5922 24C11.1113 24 11.6073 23.8308 12.0092 23.5303C12.415 23.8308 12.9134 24 13.4343 24H16.9672C17.485 24 17.9047 23.5803 17.9047 23.0625C17.9047 22.5447 17.485 22.125 16.9672 22.125H13.4343C13.1915 22.125 13.0623 21.9782 13.0178 21.9152C12.9689 21.8452 12.8964 21.7006 12.9628 21.5164C13.64 19.6375 15.4752 18.375 17.5297 18.375C19.5841 18.375 21.4194 19.6375 22.0965 21.5164C22.1672 21.7126 22.0945 21.8606 22.0449 21.9313C21.994 22.0036 21.8757 22.1252 21.6547 22.1252C21.1368 22.1252 20.7172 22.5449 20.7172 23.0627C20.7172 23.5803 21.1368 24.0002 21.6547 24.0002C22.4237 24.0002 23.1429 23.6298 23.5789 23.0092C24.0129 22.3916 24.1182 21.5958 23.8604 20.8806ZM19.3109 14.7188C19.3109 15.7009 18.5118 16.5 17.5297 16.5C16.5475 16.5 15.7484 15.7009 15.7484 14.7188C15.7484 13.7366 16.5475 12.9375 17.5297 12.9375C18.5118 12.9375 19.3109 13.7366 19.3109 14.7188ZM10.2172 3.65625C10.2172 2.67407 11.0162 1.875 11.9984 1.875C12.9806 1.875 13.7797 2.67407 13.7797 3.65625C13.7797 4.63843 12.9806 5.4375 11.9984 5.4375C11.0162 5.4375 10.2172 4.63843 10.2172 3.65625ZM4.68591 14.7188C4.68591 13.7366 5.48498 12.9375 6.46716 12.9375C7.44934 12.9375 8.24841 13.7366 8.24841 14.7188C8.24841 15.7009 7.44934 16.5 6.46716 16.5C5.48498 16.5 4.68591 15.7009 4.68591 14.7188ZM11.9984 19.3464C11.3044 18.3609 10.3495 17.5823 9.24634 17.0905C9.79254 16.4517 10.1234 15.6233 10.1234 14.7188C10.1234 14.1103 9.97308 13.5366 9.70905 13.0313H11.6703C12.1881 13.0313 12.6078 12.6116 12.6078 12.0938C12.6078 11.5759 12.1881 11.1563 11.6703 11.1563H7.79907C7.54016 11.1563 7.40063 10.9968 7.35266 10.9281C7.29993 10.8528 7.22192 10.6978 7.29187 10.5062C7.98859 8.59589 9.88007 7.3125 11.9984 7.3125C14.1168 7.3125 16.0082 8.59589 16.705 10.5062C16.7864 10.7292 16.7077 10.9545 16.5925 11.053C16.5898 11.0554 16.5896 11.0555 16.5867 11.0579C16.4785 11.1511 16.306 11.2646 16.2408 11.2861C16.1428 11.3141 16.0535 11.3571 15.9735 11.4111C14.7336 11.9969 13.8734 13.259 13.8734 14.7188C13.8734 15.6233 14.2043 16.4517 14.7505 17.0905C13.6473 17.5823 12.6922 18.3609 11.9984 19.3464Z" fill="black"/>
</g>
<defs>
<clipPath id="clip0_512_31161">
<rect width="24" height="24" fill="white"/>
</clipPath>
</defs>
</svg>
