<svg width="16" height="16" viewBox="0 0 16 16" fill="none" xmlns="http://www.w3.org/2000/svg">
<g clip-path="url(#clip0_3777_9963)">
<path d="M16 0.625V2.625V3.875V10.375C16 10.7202 15.7202 11 15.375 11C15.0298 11 14.75 10.7202 14.75 10.375V3.40138C14.5446 3.2425 14.3422 3.04406 14.1434 2.80606C14.1141 2.77097 14.0605 2.75 14 2.75C13.9395 2.75 13.8859 2.77097 13.8566 2.80606C13.2642 3.51537 12.6395 3.875 12 3.875C11.3605 3.875 10.7358 3.51537 10.1434 2.80606C10.1141 2.77097 10.0605 2.75 10 2.75C9.93953 2.75 9.88594 2.77097 9.85659 2.80606C9.26416 3.51537 8.6395 3.875 8 3.875C7.3605 3.875 6.73584 3.51537 6.14341 2.80606C6.11406 2.77097 6.06047 2.75 6 2.75C5.93953 2.75 5.88594 2.77097 5.85659 2.80606C5.26416 3.51537 4.6395 3.875 4 3.875C3.3605 3.875 2.73584 3.51537 2.14341 2.80606C2.11406 2.77097 2.06047 2.75 2 2.75C1.93953 2.75 1.88594 2.77097 1.85659 2.80606C1.65781 3.04406 1.45537 3.2425 1.25 3.40138V13.5C1.25 14.1892 1.81075 14.75 2.5 14.75H13.5C14.1892 14.75 14.75 14.1892 14.75 13.5C14.75 13.1548 15.0298 12.875 15.375 12.875C15.7202 12.875 16 13.1548 16 13.5C16 14.8785 14.8785 16 13.5 16H2.5C1.1215 16 0 14.8785 0 13.5V3.875V2.625V0.625C0 0.279813 0.279813 0 0.625 0C0.970187 0 1.25 0.279813 1.25 0.625V1.70394C1.47116 1.57181 1.72953 1.5 2 1.5C2.43287 1.5 2.83481 1.68397 3.10275 2.00475C3.432 2.39894 3.75903 2.625 4 2.625C4.24097 2.625 4.568 2.39894 4.89725 2.00475C5.16519 1.68397 5.56712 1.5 6 1.5C6.43288 1.5 6.83481 1.68397 7.10275 2.00475C7.432 2.39894 7.75903 2.625 8 2.625C8.24097 2.625 8.568 2.39894 8.89725 2.00475C9.16519 1.68397 9.56713 1.5 10 1.5C10.4329 1.5 10.8348 1.68397 11.1027 2.00475C11.432 2.39894 11.759 2.625 12 2.625C12.241 2.625 12.568 2.39894 12.8973 2.00475C13.1652 1.68397 13.5671 1.5 14 1.5C14.2705 1.5 14.5288 1.57181 14.75 1.70394V0.625C14.75 0.279813 15.0298 0 15.375 0C15.7202 0 16 0.279813 16 0.625ZM8 5.125C7.65481 5.125 7.375 5.40481 7.375 5.75V11.8177L5.6625 10.0911C5.41944 9.84606 5.02372 9.84444 4.77863 10.0875C4.53356 10.3306 4.53191 10.7263 4.775 10.9714L6.70166 12.9139C7.05653 13.2717 7.52872 13.4688 8.03125 13.4688C8.53378 13.4688 9.00597 13.2717 9.36084 12.9139L11.2875 10.9714C11.5306 10.7263 11.5289 10.3306 11.2839 10.0875C11.0388 9.84444 10.6431 9.84606 10.4 10.0911L8.625 11.8807V5.75C8.625 5.40481 8.34519 5.125 8 5.125Z" fill="#0059DE"/>
</g>
<defs>
<clipPath id="clip0_3777_9963">
<rect width="16" height="16" fill="white"/>
</clipPath>
</defs>
</svg>
