<svg width="36" height="36" viewBox="0 0 36 36" fill="none" xmlns="http://www.w3.org/2000/svg">
<path d="M13.7156 16.8822V16.8706C12.37 16.8706 11.2842 17.983 11.2842 19.3501C11.2842 20.7173 12.37 21.8297 13.7156 21.8297C15.0612 21.8297 16.1471 20.7173 16.1471 19.3617C16.1471 17.9944 15.0493 16.8822 13.7156 16.8822Z" fill="white"/>
<path d="M18 1C8.61117 1 1 8.61117 1 18C1 27.3888 8.61117 35 18 35C27.3888 35 35 27.3888 35 18C35 8.61117 27.3888 1 18 1ZM24.2896 26.9699C24.2896 26.9699 23.4332 26.0172 22.8171 25.1771C25.7849 24.3367 26.9039 22.6559 26.9039 22.6559C23.8181 24.5638 20.9362 25.2978 18 25.2024C15.0638 25.2976 12.1819 24.5638 9.09649 22.6559C9.09649 22.6559 10.2151 24.3367 13.1833 25.1771C12.5669 26.0175 11.7108 26.9699 11.7108 26.9699C6.61945 26.8579 4.6448 23.7428 4.53056 23.8772C4.53056 16.9412 7.89792 11.2936 7.89792 11.2936C10.9114 9.13117 13.7195 9.04127 14.2559 9.03005L14.5984 9.35502C10.7516 10.4307 8.89099 12.1115 8.89099 12.1115C12.1926 10.5169 15.3044 9.95594 18 9.92235C20.6957 9.95635 23.8072 10.5169 27.109 12.1115C27.109 12.1115 25.2484 10.4307 21.4016 9.35502L21.7441 9.03005C22.2806 9.04127 25.0886 9.1309 28.1021 11.2936C28.1021 11.2936 31.4694 16.9411 31.4694 23.8772C31.3552 23.7428 29.3805 26.8579 24.2896 26.9699Z" fill="white"/>
<path d="M22.2845 16.8701V16.8817C20.9507 16.8817 19.853 17.9941 19.853 19.3612C19.853 20.7168 20.939 21.8292 22.2845 21.8292C23.63 21.8292 24.7159 20.7168 24.7159 19.3496C24.7159 17.9824 23.6301 16.8701 22.2845 16.8701Z" fill="white"/>
</svg>
