<svg width="36" height="36" viewBox="0 0 36 36" fill="none" xmlns="http://www.w3.org/2000/svg">
<path fill-rule="evenodd" clip-rule="evenodd" d="M18 1C27.3888 1 35 8.61114 35 18C35 25.6285 29.9755 32.0833 23.0553 34.2357L22.7946 34.3028V29.972C22.7505 29.4306 22.4418 28.7707 21.8685 27.9923C24.2501 27.5862 25.9811 26.8925 27.0616 25.9111C28.4949 24.4222 29.2116 22.4764 29.2116 20.0737V18.8216C29.1014 17.8289 28.6603 16.7178 27.8886 15.4883C27.7893 15.4883 27.6846 15.3812 27.5743 15.1669C27.7838 14.5013 27.8886 13.9091 27.8886 13.3903V13.1872C27.7342 11.5178 27.4971 10.683 27.1774 10.6831C26.0638 10.6831 24.6359 11.2753 22.8939 12.4596C21.4495 12.11 20.4296 11.9352 19.8342 11.9351H17.6015C17.2487 11.9351 16.2619 12.11 14.6411 12.4596C12.9872 11.2753 11.5263 10.6831 10.2583 10.6831C9.97168 11.123 9.7677 11.9915 9.6464 13.2888V13.5087C9.84487 14.5465 9.94411 15.0992 9.94412 15.1669C8.86357 16.6333 8.32331 18.1956 8.32333 19.8538C8.32333 23.249 9.54719 25.5783 11.9949 26.8417C12.7777 27.3267 13.8968 27.6764 15.3522 27.8908H15.6499V28.0938C15.264 28.5337 14.9278 29.2613 14.6411 30.2765C13.9867 30.5004 13.2984 30.6092 12.6068 30.598H12.4911C11.4987 30.598 10.4844 29.7295 9.44793 27.9923C8.70921 27.3606 7.99254 27.0448 7.29792 27.0448L6.78524 27.2648C6.78524 27.4565 7.29793 28.0092 8.32333 28.9229C8.55488 29.1936 9.02899 30.0622 9.74564 31.5286C10.4844 32.2956 11.6421 32.6792 13.2188 32.6792C13.6894 32.6077 14.165 32.5737 14.6411 32.5776L14.7403 32.7807V34.68L14.5739 34.6546C6.82729 33.0694 1 26.2152 1 18C1 8.61114 8.61116 1 18 1Z" fill="white"/>
</svg>
