<svg width="16" height="16" viewBox="0 0 16 16" fill="none" xmlns="http://www.w3.org/2000/svg">
<path d="M15.9889 5.3166C15.9845 5.26081 15.9796 5.21804 15.9752 5.18867C15.7513 2.65391 13.8917 0.647583 11.4783 0.647583C10.0801 0.647583 8.80234 1.30923 7.9657 2.38185C7.14858 1.30201 5.91951 0.647583 4.52872 0.647583C2.1235 0.647583 0.268152 2.64032 0.0292673 5.20308C0.0246751 5.23294 0.0200518 5.2693 0.0158345 5.31207C-0.0249949 5.72611 0.0089619 6.27473 0.16675 6.94318C0.502007 8.3634 1.28598 9.65695 2.39172 10.6593L7.54078 15.1865C7.79157 15.407 8.16688 15.4078 8.41863 15.1884L13.6055 10.6687C14.828 9.39635 15.5546 8.25182 15.8427 6.93297C15.9872 6.27064 16.0209 5.72561 15.9889 5.3166ZM14.5405 6.64869C14.3139 7.68595 13.7111 8.63559 12.6864 9.70521L7.98297 13.8005L3.27934 9.66507C2.37713 8.84711 1.73595 7.78913 1.46395 6.63698C1.34046 6.11382 1.31566 5.71277 1.34515 5.41397L1.35455 5.34693C1.52599 3.41705 2.85768 1.98046 4.52872 1.98046C5.77275 1.98046 6.83116 2.73916 7.34554 3.9577C7.57477 4.5007 8.34425 4.5007 8.57348 3.9577C9.07756 2.76359 10.211 1.98046 11.4783 1.98046C13.1494 1.98046 14.481 3.41714 14.6524 5.34759C14.657 5.38639 14.6583 5.39713 14.6601 5.42047C14.6821 5.7024 14.6565 6.11694 14.5405 6.64869Z" fill="#000345"/>
</svg>
