<svg width="24" height="24" viewBox="0 0 24 24" fill="none" xmlns="http://www.w3.org/2000/svg">
<g clip-path="url(#clip0_646_32794)">
<path d="M23.7254 22.3993L18.785 17.4588C18.7774 17.451 18.7698 17.4433 18.762 17.4358L6.57526 5.24909C6.56701 5.24051 6.55866 5.23216 6.55013 5.22396L1.60114 0.274973C1.235 -0.0911693 0.641464 -0.0911693 0.275368 0.274973C-0.0907269 0.641115 -0.0907738 1.23465 0.275368 1.60074L4.46545 5.79082C2.32967 7.47238 1.00559 9.3501 0.617136 9.94068C-0.205712 11.1917 -0.205712 12.8084 0.617136 14.0594C1.11926 14.8228 2.53503 16.7826 4.83131 18.4893C7.15627 20.2174 9.57522 21.0936 12.0209 21.0936C14.0368 21.0936 16.0394 20.4937 17.9837 19.3091L22.3997 23.7251C22.5828 23.9082 22.8227 23.9997 23.0626 23.9997C23.3025 23.9997 23.5424 23.9082 23.7254 23.7251C24.0915 23.3589 24.0915 22.7654 23.7254 22.3993ZM8.97545 10.3008L10.2654 11.5907C10.1298 12.1836 10.2929 12.8309 10.7547 13.2926C11.2165 13.7544 11.8637 13.9174 12.4566 13.7819L13.7001 15.0255C13.187 15.3148 12.6056 15.4687 12.0005 15.4687C10.0878 15.4687 8.53183 13.9127 8.53183 12C8.53178 11.3972 8.68609 10.8148 8.97545 10.3008ZM12.0209 19.2185C7.46917 19.2185 3.69566 15.3279 2.18352 13.029C1.77233 12.4039 1.77233 11.5961 2.18352 10.971C2.54075 10.4279 3.78613 8.66319 5.80149 7.12691L7.61706 8.94248C6.99348 9.83395 6.65682 10.8948 6.65682 12C6.65682 14.9465 9.05392 17.3436 12.0004 17.3436C13.1101 17.3436 14.1681 17.0076 15.0584 16.3838L16.6131 17.9385C15.0937 18.7886 13.5533 19.2185 12.0209 19.2185Z" fill="black"/>
<path d="M23.4074 9.97708C23.4025 9.96925 23.3976 9.96142 23.3926 9.95364C22.8948 9.18934 21.4903 7.2271 19.2043 5.51775C16.8868 3.78501 14.47 2.90643 12.0209 2.90643C11.0887 2.90643 10.1437 3.03819 9.21235 3.29798C8.7136 3.43715 8.42214 3.95423 8.56121 4.45289C8.70034 4.95159 9.21723 5.24302 9.71612 5.10403C10.4835 4.88995 11.2589 4.78143 12.0208 4.78143C16.5532 4.78143 20.2912 8.64287 21.8023 10.9475C21.8071 10.9554 21.8121 10.9632 21.8172 10.9709C22.0186 11.2771 22.125 11.6329 22.125 11.9999C22.125 12.367 22.0186 12.7227 21.8172 13.0289C21.3663 13.7145 20.762 14.4665 20.1156 15.1465C19.7589 15.5218 19.7739 16.1151 20.1492 16.4718C20.3306 16.6443 20.5629 16.7298 20.7949 16.7298C21.0428 16.7298 21.2903 16.6321 21.4746 16.4382C22.3984 15.4664 23.0227 14.608 23.3837 14.0592C23.7869 13.4462 24 12.7341 24 11.9998C23.9999 11.2802 23.7952 10.5818 23.4074 9.97708Z" fill="black"/>
<path d="M17.2196 10.8497C16.779 8.84296 15.2002 7.24986 13.1972 6.79114C12.6926 6.67578 12.1897 6.99102 12.0741 7.49567C11.9586 8.00038 12.274 8.50316 12.7787 8.61876C14.0781 8.91632 15.1024 9.94982 15.3883 11.2518C15.4844 11.6898 15.8724 11.9884 16.3031 11.9884C16.3696 11.9884 16.4373 11.9813 16.505 11.9663C17.0107 11.8553 17.3306 11.3554 17.2196 10.8497Z" fill="black"/>
</g>
<defs>
<clipPath id="clip0_646_32794">
<rect width="24" height="24" fill="white"/>
</clipPath>
</defs>
</svg>
