<svg width="167" height="167" viewBox="0 0 167 167" fill="none" xmlns="http://www.w3.org/2000/svg">
<circle opacity="0.4" cx="83.1285" cy="83.1282" r="64.5" transform="rotate(-18.8205 83.1285 83.1282)" stroke="white" stroke-width="2" stroke-linecap="round" stroke-dasharray="3 8"/>
<g clip-path="url(#clip0_2847_2744)">
<path d="M43.6094 69.0986L40.9178 72.8794L39.2215 67.9025L42.5662 63.0973L46.9787 61.5934L53.0905 79.5258L47.7801 81.3357L43.6094 69.0986ZM63.259 76.4896C61.5487 77.0726 59.9268 77.2149 58.3935 76.9166C56.8714 76.5955 55.5207 75.8532 54.3415 74.6897C53.1623 73.5263 52.2434 71.9782 51.5847 70.0456C50.926 68.113 50.6997 66.3289 50.9058 64.6933C51.1232 63.0347 51.7394 61.6221 52.7544 60.4553C53.7806 59.2656 55.1574 58.3764 56.8848 57.7876C58.6122 57.1989 60.2455 57.0622 61.7847 57.3775C63.3181 57.6758 64.6687 58.4181 65.8367 59.6045C67.0159 60.7679 67.9348 62.3159 68.5935 64.2486C69.2522 66.1812 69.4699 67.9682 69.2467 69.6096C69.0235 71.2511 68.3987 72.6666 67.3725 73.8564C66.3404 75.029 64.9692 75.9067 63.259 76.4896ZM61.5714 71.5384C62.5805 71.1944 63.2219 70.5559 63.4956 69.6226C63.7635 68.6723 63.6642 67.513 63.1979 66.1448C62.7316 64.7766 62.1022 63.798 61.3097 63.209C60.5285 62.5972 59.6333 62.4632 58.6242 62.8071C57.5981 63.1569 56.9539 63.8155 56.6919 64.7829C56.4411 65.7274 56.5489 66.8838 57.0152 68.252C57.4816 69.6202 58.111 70.5988 58.9035 71.1877C59.6901 71.7596 60.5795 71.8764 61.5714 71.5384ZM81.2972 70.3417C79.5869 70.9246 77.9651 71.067 76.4317 70.7687C74.9096 70.4476 73.559 69.7053 72.3798 68.5418C71.2006 67.3784 70.2816 65.8303 69.6229 63.8977C68.9642 61.9651 68.7379 60.181 68.9441 58.5454C69.1615 56.8868 69.7777 55.4742 70.7926 54.3074C71.8189 53.1177 73.1957 52.2285 74.9231 51.6397C76.6505 51.051 78.2838 50.9143 79.823 51.2296C81.3563 51.5279 82.707 52.2702 83.8749 53.4565C85.0541 54.62 85.9731 56.168 86.6317 58.1007C87.2904 60.0333 87.5082 61.8203 87.2849 63.4617C87.0617 65.1032 86.437 66.5187 85.4107 67.7085C84.3787 68.8811 83.0075 69.7588 81.2972 70.3417ZM79.6097 65.3904C80.6187 65.0465 81.2601 64.408 81.5338 63.4747C81.8017 62.5244 81.7025 61.3651 81.2362 59.9969C80.7698 58.6286 80.1404 57.6501 79.3479 57.0611C78.5667 56.4493 77.6716 56.3153 76.6625 56.6592C75.6363 57.009 74.9922 57.6676 74.7301 58.635C74.4794 59.5795 74.5871 60.7359 75.0535 62.1041C75.5198 63.4723 76.1492 64.4509 76.9417 65.0398C77.7284 65.6117 78.6177 65.7285 79.6097 65.3904ZM92.3733 56.201C91.5182 56.4925 90.6615 56.5554 89.8033 56.3898C88.9392 56.207 88.171 55.8293 87.4986 55.2567C86.8433 54.6783 86.3699 53.9615 86.0785 53.1064C85.787 52.2512 85.7241 51.3946 85.8898 50.5363C86.0667 49.6552 86.4444 48.887 87.0228 48.2317C87.5954 47.5593 88.3092 47.0774 89.1644 46.7859C90.0195 46.4944 90.8791 46.4401 91.7432 46.6228C92.6185 46.7827 93.3867 47.1603 94.0479 47.7559C94.7202 48.3285 95.2022 49.0423 95.4936 49.8975C95.7851 50.7526 95.8394 51.6122 95.6567 52.4763C95.491 53.3345 95.1134 54.1027 94.5237 54.7809C93.9452 55.4362 93.2285 55.9096 92.3733 56.201ZM97.9667 44.2154L103.2 42.4316L99.3838 63.7478L94.1503 65.5315L97.9667 44.2154ZM91.3503 53.1995C91.8121 53.0421 92.1444 52.757 92.3474 52.3442C92.5503 51.9315 92.5731 51.4942 92.4157 51.0324C92.2583 50.5706 91.9732 50.2383 91.5604 50.0354C91.1418 49.8153 90.7016 49.784 90.2399 49.9414C89.7781 50.0988 89.4486 50.3924 89.2515 50.8223C89.0486 51.2351 89.0258 51.6723 89.1832 52.1341C89.3406 52.5959 89.6257 52.9282 90.0385 53.1312C90.4513 53.3341 90.8885 53.3569 91.3503 53.1995ZM108.135 61.1948C107.28 61.4862 106.423 61.5491 105.565 61.3835C104.701 61.2007 103.932 60.8231 103.26 60.2505C102.605 59.672 102.131 58.9553 101.84 58.1001C101.549 57.245 101.486 56.3883 101.651 55.5301C101.828 54.6489 102.206 53.8807 102.784 53.2254C103.357 52.553 104.071 52.0711 104.926 51.7796C105.781 51.4882 106.641 51.4338 107.505 51.6166C108.38 51.7764 109.148 52.1541 109.809 52.7496C110.482 53.3222 110.964 54.036 111.255 54.8912C111.547 55.7463 111.601 56.6059 111.418 57.47C111.253 58.3282 110.875 59.0964 110.285 59.7746C109.707 60.4299 108.99 60.9033 108.135 61.1948ZM107.112 58.1932C107.574 58.0358 107.906 57.7507 108.109 57.338C108.312 56.9252 108.335 56.4879 108.177 56.0261C108.02 55.5644 107.735 55.232 107.322 55.0291C106.903 54.8091 106.463 54.7777 106.001 54.9351C105.54 55.0925 105.21 55.3861 105.013 55.816C104.81 56.2288 104.787 56.6661 104.945 57.1278C105.102 57.5896 105.387 57.922 105.8 58.1249C106.213 58.3278 106.65 58.3506 107.112 58.1932Z" fill="white" fill-opacity="0.9"/>
<path d="M50.4902 91.2168L51.5163 90.867L51.8521 91.8522C52.0314 91.3329 52.3165 90.8997 52.7073 90.5527C53.1072 90.2026 53.5671 89.939 54.0871 89.7618C54.9536 89.4664 55.6744 89.4753 56.2495 89.7884C56.8336 90.0983 57.2563 90.6364 57.5174 91.4026L58.9677 95.6578L57.9142 96.0169L56.4965 91.8575C56.3038 91.292 56.0193 90.9053 55.643 90.6976C55.2637 90.4807 54.773 90.4748 54.171 90.68C53.1585 91.0251 52.5112 91.7547 52.2292 92.869L53.7821 97.4252L52.7285 97.7843L50.4902 91.2168ZM64.0477 94.1555C63.3362 94.398 62.6541 94.4727 62.0013 94.3796C61.3576 94.2833 60.7921 94.0281 60.3048 93.6139C59.8234 93.1874 59.4631 92.623 59.2237 91.9206C58.9874 91.2274 58.9343 90.5634 59.064 89.9287C59.1939 89.2939 59.4826 88.7373 59.9305 88.2589C60.3874 87.7774 60.9671 87.4169 61.6694 87.1775C62.3718 86.9381 63.0463 86.8712 63.6931 86.9765C64.349 87.0787 64.9222 87.3415 65.4126 87.7649C65.9031 88.1883 66.2664 88.7465 66.5027 89.4398C66.7421 90.1421 66.7969 90.8106 66.667 91.4454C66.5432 92.0679 66.2513 92.6154 65.7913 93.0878C65.3404 93.5571 64.7592 93.913 64.0477 94.1555ZM63.7632 93.3209C64.5477 93.0535 65.0917 92.6034 65.3952 91.9705C65.7048 91.3255 65.7227 90.6016 65.4492 89.7988C65.1725 88.987 64.7162 88.4248 64.0802 88.1121C63.4502 87.7873 62.743 87.7584 61.9585 88.0258C61.1741 88.2932 60.6271 88.7494 60.3175 89.3945C60.014 90.0274 60.0006 90.7498 60.2772 91.5616C60.5508 92.3643 61.0026 92.9281 61.6326 93.2529C62.2686 93.5656 62.9788 93.5882 63.7632 93.3209ZM67.0185 85.5835L68.0447 85.2337L68.3804 86.2189C68.5598 85.6996 68.8449 85.2664 69.2356 84.9195C69.6356 84.5694 70.0955 84.3057 70.6154 84.1285C71.4819 83.8332 72.2027 83.8421 72.7778 84.1551C73.3619 84.465 73.7846 85.0031 74.0457 85.7693L75.496 90.0245L74.4425 90.3836L73.0248 86.2242C72.8321 85.6587 72.5476 85.272 72.1714 85.0643C71.792 84.8474 71.3013 84.8416 70.6993 85.0467C69.6868 85.3918 69.0395 86.1215 68.7575 87.2357L70.3104 91.7919L69.2569 92.151L67.0185 85.5835ZM75.5374 85.0013L79.7379 83.5697L80.041 84.459L75.8406 85.8907L75.5374 85.0013ZM80.6741 80.9293L81.7003 80.5795L82.0874 81.7152C82.4303 80.6006 83.2357 79.8272 84.5036 79.395C85.1512 79.1743 85.7848 79.1213 86.4042 79.236C87.0236 79.3506 87.574 79.6212 88.0553 80.0477C88.5366 80.4742 88.8954 81.0339 89.1317 81.7272C89.3649 82.4113 89.4211 83.0692 89.3004 83.7008C89.1888 84.3294 88.9182 84.8798 88.4887 85.3519C88.0651 85.8119 87.5295 86.1523 86.8819 86.373C86.289 86.5751 85.6998 86.6537 85.1144 86.6089C84.5258 86.5549 84.0171 86.3618 83.5882 86.0295L84.9872 90.1342L83.9338 90.4932L80.6741 80.9293ZM86.3785 85.613C86.8711 85.4451 87.2762 85.1849 87.5938 84.8323C87.9205 84.4766 88.1265 84.0653 88.2118 83.5985C88.303 83.1194 88.2585 82.6154 88.0782 82.0863C87.901 81.5663 87.6299 81.1446 87.2651 80.8209C86.9063 80.4851 86.4889 80.2761 86.0129 80.194C85.5461 80.1087 85.0664 80.1501 84.5738 80.3179C83.9535 80.5294 83.4622 80.8801 83.0998 81.3701C82.7434 81.8479 82.5659 82.4022 82.567 83.0331L83.1219 84.6613C83.4849 85.1586 83.961 85.4951 84.5504 85.671C85.1489 85.8438 85.7582 85.8244 86.3785 85.613ZM89.6531 77.869L90.6793 77.5193L91.1177 78.8054C91.3544 77.7677 92.1981 77.0016 93.6484 76.5073L93.9375 77.3556C92.3504 77.8966 91.5485 78.7552 91.532 79.9317L92.945 84.0775L91.8915 84.4365L89.6531 77.869ZM100.485 81.7368C99.7734 81.9792 99.0913 82.0539 98.4385 81.9608C97.7948 81.8645 97.2293 81.6093 96.742 81.1951C96.2606 80.7686 95.9003 80.2042 95.6609 79.5019C95.4246 78.8086 95.3714 78.1447 95.5012 77.5099C95.6311 76.8751 95.9198 76.3185 96.3677 75.8401C96.8246 75.3586 97.4043 74.9982 98.1066 74.7588C98.8089 74.5194 99.4835 74.4524 100.13 74.5577C100.786 74.6599 101.359 74.9228 101.85 75.3461C102.34 75.7695 102.704 76.3277 102.94 77.021C103.179 77.7233 103.234 78.3919 103.104 79.0267C102.98 79.6492 102.689 80.1966 102.228 80.6691C101.778 81.1384 101.196 81.4943 100.485 81.7368ZM100.2 80.9021C100.985 80.6348 101.529 80.1847 101.832 79.5518C102.142 78.9067 102.16 78.1828 101.886 77.3801C101.61 76.5683 101.153 76.006 100.517 75.6934C99.8874 75.3685 99.1801 75.3397 98.3957 75.6071C97.6113 75.8744 97.0643 76.3307 96.7547 76.9758C96.4512 77.6087 96.4378 78.331 96.7144 79.1428C96.988 79.9455 97.4398 80.5093 98.0698 80.8342C98.7058 81.1469 99.416 81.1695 100.2 80.9021ZM103.733 73.9864L102.707 74.3361L102.427 73.5152L103.454 73.1655L102.969 71.7425C102.729 71.0402 102.769 70.4258 103.089 69.8995C103.405 69.3641 103.901 68.9813 104.576 68.7513C104.922 68.6331 105.262 68.5683 105.594 68.557L105.883 69.4053C105.633 69.3887 105.357 69.4317 105.056 69.5343C104.573 69.6991 104.246 69.9481 104.074 70.2814C103.9 70.6056 103.888 70.9912 104.041 71.4382L104.507 72.8064L108.776 71.3514L111.014 77.919L109.961 78.278L108.002 72.5315L104.787 73.6273L106.745 79.3739L105.692 79.733L103.733 73.9864ZM107.757 70.1104C107.575 70.1726 107.398 70.1615 107.227 70.0774C107.056 69.9932 106.939 69.8598 106.877 69.6774C106.815 69.495 106.826 69.3182 106.91 69.147C106.994 68.9758 107.127 68.859 107.31 68.7969C107.492 68.7347 107.669 68.7457 107.84 68.8299C108.021 68.9109 108.142 69.0427 108.204 69.2251C108.266 69.4075 108.251 69.5859 108.157 69.7602C108.073 69.9315 107.94 70.0482 107.757 70.1104ZM115.575 76.5936C114.955 76.805 114.409 76.7874 113.938 76.5406C113.476 76.2908 113.13 75.8284 112.9 75.1534L111.59 71.3087L110.564 71.6584L110.284 70.8375L111.31 70.4877L110.639 68.5175L111.692 68.1584L112.364 70.1286L114.019 69.5644L114.299 70.3853L112.644 70.9496L113.963 74.8217C114.119 75.2777 114.32 75.5705 114.568 75.6999C114.813 75.8201 115.177 75.7979 115.66 75.6331C115.897 75.5523 116.129 75.412 116.357 75.2124L116.65 76.0744C116.381 76.2682 116.022 76.4413 115.575 76.5936Z" fill="white" fill-opacity="0.9"/>
<path d="M54.5823 106.346L68.4562 101.617L70.0791 106.379L61.8696 109.177L62.765 111.804L68.6758 109.789L70.1587 114.14L64.2479 116.155L66.7661 123.543L61.1016 125.474L54.5823 106.346ZM70.9156 100.779L79.8091 97.7481C82.1078 96.9646 84.1219 96.9298 85.8516 97.6434C87.575 98.3388 88.8099 99.7811 89.556 101.97C90.041 103.393 90.1534 104.709 89.8934 105.918C89.6515 107.12 89.0735 108.172 88.1593 109.074L93.5527 114.414L87.7514 116.391L83.0482 111.733L81.1874 112.367L83.0994 117.976L77.4349 119.907L70.9156 100.779ZM81.765 107.161C82.6406 106.862 83.2596 106.468 83.6221 105.978C83.9965 105.464 84.0407 104.787 83.7547 103.948C83.4687 103.108 83.0234 102.609 82.4189 102.448C81.8265 102.263 81.0924 102.32 80.2167 102.618L78.1097 103.336L79.6579 107.879L81.765 107.161ZM90.2686 94.1832L104.142 89.4546L105.765 94.2161L97.5559 97.0141L98.4512 99.6411L104.362 97.6265L105.845 101.977L99.9342 103.992L100.83 106.619L109.039 103.821L110.662 108.583L96.7879 113.311L90.2686 94.1832ZM106.869 88.5253L120.743 83.7968L122.366 88.5582L114.156 91.3562L115.052 93.9832L120.962 91.9686L122.445 96.3196L116.535 98.3342L117.43 100.961L125.639 98.1632L127.262 102.925L113.388 107.653L106.869 88.5253Z" fill="white" fill-opacity="0.9"/>
</g>
<defs>
<clipPath id="clip0_2847_2744">
<rect width="74.0828" height="68.6621" fill="white" transform="translate(36.7104 63.1558) rotate(-18.8205)"/>
</clipPath>
</defs>
</svg>
