<svg width="10" height="10" viewBox="0 0 10 10" fill="none" xmlns="http://www.w3.org/2000/svg">
<path d="M5.00278 0.498358C4.93655 0.498291 4.87096 0.511284 4.80976 0.536596C4.74857 0.561909 4.69296 0.599042 4.64613 0.645871C4.59931 0.692699 4.56217 0.748304 4.53686 0.809501C4.51155 0.870699 4.49855 0.936288 4.49862 1.00251L4.49505 4.49584L0.998139 4.49584C0.931933 4.49584 0.866375 4.50888 0.805208 4.53422C0.744041 4.55956 0.688463 4.59669 0.641648 4.64351C0.594833 4.69032 0.557697 4.7459 0.532361 4.80707C0.507024 4.86824 0.493984 4.93379 0.493984 5C0.493984 5.06621 0.507024 5.13176 0.532361 5.19293C0.557697 5.2541 0.594833 5.30968 0.641648 5.35649C0.688463 5.40331 0.744041 5.44044 0.805208 5.46578C0.866375 5.49112 0.931933 5.50416 0.998139 5.50416L4.49505 5.50416L4.49505 9.00106C4.49505 9.06727 4.50809 9.13283 4.53342 9.19399C4.55876 9.25516 4.59589 9.31074 4.64271 9.35755C4.68952 9.40437 4.7451 9.4415 4.80627 9.46684C4.86744 9.49218 4.93299 9.50522 4.9992 9.50522C5.06541 9.50522 5.13097 9.49218 5.19213 9.46684C5.2533 9.4415 5.30888 9.40437 5.35569 9.35755C5.40251 9.31074 5.43964 9.25516 5.46498 9.19399C5.49032 9.13283 5.50336 9.06727 5.50336 9.00106L5.50336 5.50416L9.00026 5.50416C9.06647 5.50416 9.13203 5.49111 9.1932 5.46578C9.25436 5.44044 9.30994 5.40331 9.35676 5.35649C9.40357 5.30968 9.44071 5.2541 9.46604 5.19293C9.49138 5.13176 9.50442 5.06621 9.50442 5C9.50442 4.93379 9.49138 4.86824 9.46604 4.80707C9.44071 4.7459 9.40357 4.69032 9.35676 4.64351C9.30994 4.59669 9.25436 4.55956 9.1932 4.53422C9.13203 4.50889 9.06647 4.49584 9.00026 4.49584L5.50336 4.49584L5.50336 0.998938C5.50336 0.727195 5.27452 0.498358 5.00278 0.498358Z" fill="#0059DE"/>
</svg>
