<svg width="24" height="24" viewBox="0 0 24 24" fill="none" xmlns="http://www.w3.org/2000/svg">
<g clip-path="url(#clip0_2835_12684)">
<path d="M10.7982 0C16.7523 0 21.5964 4.84407 21.5964 10.7982C21.5964 13.4177 20.6588 15.8224 19.1015 17.6942L23.6963 22.242C24.0993 22.6422 24.1015 23.2933 23.7013 23.6963C23.5002 23.8987 23.2359 24 22.9716 24C22.7096 24 22.4475 23.9005 22.2469 23.7013L17.6427 19.1442C15.7783 20.6758 13.3937 21.5964 10.7982 21.5964C8.94573 21.5964 7.11775 21.119 5.51201 20.2159C5.01694 19.9376 4.84134 19.3105 5.11978 18.8155C5.39817 18.3205 6.02518 18.1448 6.52025 18.4232C7.81881 19.1536 9.29811 19.5396 10.7982 19.5396C15.6182 19.5396 19.5396 15.6182 19.5396 10.7982C19.5396 5.97818 15.6182 2.0568 10.7982 2.0568C5.97818 2.0568 2.0568 5.97818 2.0568 10.7982C2.0568 12.3167 2.45186 13.8119 3.1992 15.1221C3.48062 15.6155 3.30877 16.2436 2.81544 16.525C2.32207 16.8063 1.69403 16.6346 1.41261 16.1412C0.488489 14.521 0 12.6734 0 10.7982C0 4.84407 4.84406 0 10.7982 0Z" fill="#000345"/>
</g>
<defs>
<clipPath id="clip0_2835_12684">
<rect width="24" height="24" fill="white"/>
</clipPath>
</defs>
</svg>
