<svg width="46" height="46" viewBox="0 0 46 46" fill="none" xmlns="http://www.w3.org/2000/svg">
<g filter="url(#filter0_d_1444_42873)">
<path d="M8 23C8 14.7157 14.7157 8 23 8V8C31.2843 8 38 14.7157 38 23V23C38 31.2843 31.2843 38 23 38V38C14.7157 38 8 31.2843 8 23V23Z" fill="white" fill-opacity="0.8" shape-rendering="crispEdges"/>
<path d="M17.667 23V28.3333C17.667 28.687 17.8075 29.0261 18.0575 29.2761C18.3076 29.5262 18.6467 29.6667 19.0003 29.6667H27.0003C27.3539 29.6667 27.6931 29.5262 27.9431 29.2761C28.1932 29.0261 28.3337 28.687 28.3337 28.3333V23" stroke="#000345" stroke-width="1.33333" stroke-linecap="round" stroke-linejoin="round"/>
<path d="M25.6663 19.0002L22.9997 16.3335L20.333 19.0002" stroke="#000345" stroke-width="1.33333" stroke-linecap="round" stroke-linejoin="round"/>
<path d="M23 16.3335V25.0002" stroke="#000345" stroke-width="1.33333" stroke-linecap="round" stroke-linejoin="round"/>
</g>
<defs>
<filter id="filter0_d_1444_42873" x="0" y="0" width="46" height="46" filterUnits="userSpaceOnUse" color-interpolation-filters="sRGB">
<feFlood flood-opacity="0" result="BackgroundImageFix"/>
<feColorMatrix in="SourceAlpha" type="matrix" values="0 0 0 0 0 0 0 0 0 0 0 0 0 0 0 0 0 0 127 0" result="hardAlpha"/>
<feOffset/>
<feGaussianBlur stdDeviation="4"/>
<feComposite in2="hardAlpha" operator="out"/>
<feColorMatrix type="matrix" values="0 0 0 0 0 0 0 0 0 0.245 0 0 0 0 0.35 0 0 0 0.1 0"/>
<feBlend mode="normal" in2="BackgroundImageFix" result="effect1_dropShadow_1444_42873"/>
<feBlend mode="normal" in="SourceGraphic" in2="effect1_dropShadow_1444_42873" result="shape"/>
</filter>
</defs>
</svg>
