<svg width="16" height="16" viewBox="0 0 16 16" fill="none" xmlns="http://www.w3.org/2000/svg">
<path d="M8 0C12.4183 0 16 3.58172 16 8C16 12.4183 12.4183 16 8 16C3.58172 16 0 12.4183 0 8C0 3.58172 3.58172 0 8 0Z" fill="#F0F0F0"/>
<path d="M1.65367 12.8706C1.02526 12.053 0.551419 11.1107 0.275513 10.0869H4.43733L1.65367 12.8706Z" fill="#0052B4"/>
<path d="M15.7244 10.087C15.4485 11.1107 14.9746 12.053 14.3462 12.8706L11.5626 10.087H15.7244Z" fill="#0052B4"/>
<path d="M0.275513 5.91309C0.55145 4.8894 1.02529 3.94706 1.65367 3.1295L4.43723 5.91309H0.275513Z" fill="#0052B4"/>
<path d="M12.8705 14.3463C12.0529 14.9747 11.1106 15.4485 10.0869 15.7245V11.5627L12.8705 14.3463Z" fill="#0052B4"/>
<path d="M3.12939 1.65382C3.94699 1.02541 4.88933 0.551566 5.91302 0.275628V4.43738L3.12939 1.65382Z" fill="#0052B4"/>
<path d="M5.91299 15.7245C4.8893 15.4485 3.94696 14.9747 3.12939 14.3463L5.91299 11.5627V15.7245Z" fill="#0052B4"/>
<path d="M10.0869 0.275628C11.1106 0.551566 12.0529 1.02541 12.8705 1.65378L10.0869 4.43738V0.275628Z" fill="#0052B4"/>
<path d="M11.5626 5.91309L14.3462 3.12947C14.9746 3.94703 15.4485 4.8894 15.7244 5.91309H11.5626Z" fill="#0052B4"/>
<path d="M15.9323 9.04347H9.04353H9.0435V15.9323C8.70191 15.9767 8.35366 16 8 16C7.64628 16 7.29809 15.9767 6.95653 15.9323V9.04353V9.0435H0.0677188C0.02325 8.70191 0 8.35366 0 8C0 7.64628 0.02325 7.29809 0.0677188 6.95653H6.95647H6.9565V0.0677185C7.29809 0.0232496 7.64628 0 8 0C8.35366 0 8.70191 0.0232182 9.04347 0.0677185V6.95647V6.9565H15.9323C15.9768 7.29809 16 7.64628 16 8C16 8.35366 15.9768 8.70191 15.9323 9.04347Z" fill="#D80027"/>
<path d="M10.087 5.91293L13.6569 2.34306C13.8211 2.50718 13.9777 2.67878 14.1272 2.85665L11.0708 5.91296H10.087V5.91293Z" fill="#D80027"/>
<path d="M5.91304 5.91296H5.91298L2.34314 2.34312C2.50726 2.17893 2.67886 2.02231 2.85673 1.87287L5.91304 4.92924V5.91296Z" fill="#D80027"/>
<path d="M5.91305 10.0869V10.087L2.34317 13.6569C2.17899 13.4927 2.02236 13.3211 1.87292 13.1433L4.92927 10.0869H5.91305V10.0869Z" fill="#D80027"/>
<path d="M10.087 10.0869L13.6569 13.6569C13.4928 13.821 13.3212 13.9777 13.1433 14.1271L10.087 11.0707V10.0869Z" fill="#D80027"/>
</svg>
