<?xml version="1.0" standalone="no"?>
<!DOCTYPE svg PUBLIC "-//W3C//DTD SVG 20010904//EN"
 "http://www.w3.org/TR/2001/REC-SVG-20010904/DTD/svg10.dtd">
<svg version="1.0" xmlns="http://www.w3.org/2000/svg"
 width="200.000000pt" height="200.000000pt" viewBox="0 0 200.000000 200.000000"
 preserveAspectRatio="xMidYMid meet">

<g transform="translate(0.000000,200.000000) scale(0.100000,-0.100000)"
fill="#000000" stroke="none">
<path d="M572 1947 c-6 -7 -12 -33 -14 -57 l-3 -45 -23 43 c-12 23 -26 42 -30
42 -4 0 -18 -26 -32 -58 -24 -55 -25 -63 -24 -277 l1 -220 36 -124 c21 -69 37
-139 36 -155 0 -27 -4 -23 -34 38 -31 63 -49 128 -72 260 -10 59 -36 82 -59
52 -8 -11 -14 -32 -14 -48 0 -45 -30 -35 -84 30 l-49 57 5 -46 c7 -66 27 -98
83 -141 54 -40 85 -87 85 -127 0 -14 13 -39 29 -56 16 -16 36 -54 46 -83 13
-39 28 -62 64 -93 27 -22 60 -61 74 -88 26 -47 61 -173 55 -193 -5 -15 -66 39
-92 81 -12 20 -37 70 -55 111 -31 71 -65 120 -83 120 -16 0 -7 -59 18 -115 28
-65 29 -118 2 -123 -24 -5 -60 36 -104 117 -42 77 -80 121 -106 121 -27 0 -23
-14 33 -118 83 -157 112 -184 244 -233 79 -29 121 -74 219 -238 62 -103 80
-142 84 -179 4 -46 3 -49 -26 -61 -35 -15 -77 -57 -87 -88 l-6 -23 181 0 181
0 -6 23 c-9 28 -52 75 -77 83 -28 8 -11 24 95 87 152 90 144 87 249 80 66 -4
102 -2 119 7 53 26 178 114 173 122 -12 18 -54 5 -122 -37 -119 -74 -154 -57
-68 33 31 33 56 62 56 65 0 19 -43 3 -82 -30 -64 -54 -129 -93 -155 -93 -29 0
-29 4 2 45 34 44 90 81 148 99 26 8 65 30 87 50 22 20 45 36 52 36 7 0 28 16
48 35 28 28 49 38 90 44 44 7 60 16 88 46 18 20 32 39 29 42 -3 2 -28 -4 -56
-14 -59 -20 -81 -11 -61 26 13 24 5 44 -16 39 -8 -2 -38 -34 -67 -73 -48 -63
-147 -150 -147 -128 0 5 37 51 83 101 66 72 95 117 150 222 59 114 67 137 67
185 0 59 -4 64 -32 38 -23 -21 -31 -13 -19 19 10 26 -1 48 -25 48 -28 0 -39
-35 -45 -139 -4 -80 -11 -121 -30 -166 -13 -33 -29 -60 -34 -60 -5 0 -15 12
-22 26 -11 22 -10 35 2 75 20 66 19 74 -9 74 -34 0 -49 -24 -42 -62 23 -121
17 -157 -38 -240 -38 -57 -138 -177 -148 -177 -12 -1 -9 84 3 135 9 36 20 51
50 70 49 31 59 50 59 117 0 53 -18 87 -48 87 -16 0 -32 -34 -32 -69 0 -41 -16
-48 -52 -21 -23 17 -32 19 -38 10 -9 -15 -3 -38 17 -61 12 -14 10 -29 -15
-106 -22 -64 -29 -102 -25 -134 4 -37 -1 -53 -29 -99 -18 -30 -48 -63 -66 -73
-31 -19 -34 -19 -52 -2 -32 29 -24 66 35 161 76 122 99 169 92 188 -15 39 -79
-2 -93 -61 -5 -19 -9 -21 -20 -12 -16 13 -48 -6 -41 -25 3 -6 -13 -63 -34
-126 l-39 -115 0 62 c0 34 7 93 15 131 7 38 19 109 25 157 6 49 16 95 21 102
19 22 6 58 -22 61 -24 3 -25 5 -21 62 6 88 -31 136 -72 94 -20 -19 -20 -72 -5
-254 15 -164 9 -204 -31 -225 -43 -22 -53 -19 -83 27 -25 38 -27 50 -27 139 0
88 2 100 24 126 27 32 41 80 51 170 9 89 22 119 61 142 25 15 34 27 34 47 0
29 8 28 -90 8 l-30 -6 20 58 c24 69 23 107 -3 112 -41 8 -67 -9 -97 -61 -40
-69 -41 -131 -4 -187 23 -35 26 -46 20 -91 -12 -87 -63 -206 -81 -187 -17 16
-57 236 -62 334 -7 136 2 166 68 238 39 43 49 61 49 89 0 39 -27 67 -66 67
-18 0 -22 -7 -27 -51 -8 -64 -33 -108 -76 -133 l-34 -20 6 90 c8 113 28 182
78 265 40 67 49 112 29 150 -12 22 -42 25 -58 6z"/>
</g>
</svg>
